<?xml version="1.0" encoding="utf-8" standalone="no"?>
<!DOCTYPE svg PUBLIC "-//W3C//DTD SVG 1.1//EN"
  "http://www.w3.org/Graphics/SVG/1.1/DTD/svg11.dtd">
<!-- Created with matplotlib (http://matplotlib.org/) -->
<svg height="187pt" version="1.1" viewBox="0 0 504 187" width="504pt" xmlns="http://www.w3.org/2000/svg" xmlns:xlink="http://www.w3.org/1999/xlink">
 <defs>
  <style type="text/css">
*{stroke-linecap:butt;stroke-linejoin:round;}
  </style>
 </defs>
 <g id="figure_1">
  <g id="patch_1">
   <path d="M 0 187.2 
L 504 187.2 
L 504 0 
L 0 0 
z
" style="fill:none;"/>
  </g>
  <g id="axes_1">
   <g id="patch_2">
    <path d="M 12.48 131.56 
L 491.52 131.56 
L 491.52 12.48 
L 12.48 12.48 
z
" style="fill:none;"/>
   </g>
   <g id="PathCollection_1">
    <defs>
     <path d="M 0 7.071068 
C 1.875269 7.071068 3.673985 6.326016 5 5 
C 6.326016 3.673985 7.071068 1.875269 7.071068 0 
C 7.071068 -1.875269 6.326016 -3.673985 5 -5 
C 3.673985 -6.326016 1.875269 -7.071068 0 -7.071068 
C -1.875269 -7.071068 -3.673985 -6.326016 -5 -5 
C -6.326016 -3.673985 -7.071068 -1.875269 -7.071068 0 
C -7.071068 1.875269 -6.326016 3.673985 -5 5 
C -3.673985 6.326016 -1.875269 7.071068 0 7.071068 
z
" id="C0_0_e4fa76aeef"/>
    </defs>
    <g clip-path="url(#p1b0fa64d3d)">
     <use style="fill:#e04b4b;stroke:#e04b4b;" x="41.202514" xlink:href="#C0_0_e4fa76aeef" y="111.713333"/>
    </g>
    <g clip-path="url(#p1b0fa64d3d)">
     <use style="fill:#e04b4b;stroke:#e04b4b;" x="108.122351" xlink:href="#C0_0_e4fa76aeef" y="111.713333"/>
    </g>
    <g clip-path="url(#p1b0fa64d3d)">
     <use style="fill:#e04b4b;stroke:#e04b4b;" x="108.122351" xlink:href="#C0_0_e4fa76aeef" y="72.02"/>
    </g>
    <g clip-path="url(#p1b0fa64d3d)">
     <use style="fill:#e04b4b;stroke:#e04b4b;" x="124.85231" xlink:href="#C0_0_e4fa76aeef" y="111.713333"/>
    </g>
    <g clip-path="url(#p1b0fa64d3d)">
     <use style="fill:#88c9c1;stroke:#88c9c1;" x="141.582269" xlink:href="#C0_0_e4fa76aeef" y="111.713333"/>
    </g>
    <g clip-path="url(#p1b0fa64d3d)">
     <use style="fill:#e04b4b;stroke:#e04b4b;" x="141.582269" xlink:href="#C0_0_e4fa76aeef" y="72.02"/>
    </g>
    <g clip-path="url(#p1b0fa64d3d)">
     <use style="fill:#e04b4b;stroke:#e04b4b;" x="141.582269" xlink:href="#C0_0_e4fa76aeef" y="32.326667"/>
    </g>
    <g clip-path="url(#p1b0fa64d3d)">
     <use style="fill:#e04b4b;stroke:#e04b4b;" x="175.042188" xlink:href="#C0_0_e4fa76aeef" y="111.713333"/>
    </g>
    <g clip-path="url(#p1b0fa64d3d)">
     <use style="fill:#e04b4b;stroke:#e04b4b;" x="175.042188" xlink:href="#C0_0_e4fa76aeef" y="72.02"/>
    </g>
    <g clip-path="url(#p1b0fa64d3d)">
     <use style="fill:#e04b4b;stroke:#e04b4b;" x="175.042188" xlink:href="#C0_0_e4fa76aeef" y="32.326667"/>
    </g>
    <g clip-path="url(#p1b0fa64d3d)">
     <use style="fill:#88c9c1;stroke:#88c9c1;" x="191.772147" xlink:href="#C0_0_e4fa76aeef" y="111.713333"/>
    </g>
    <g clip-path="url(#p1b0fa64d3d)">
     <use style="fill:#e04b4b;stroke:#e04b4b;" x="208.502106" xlink:href="#C0_0_e4fa76aeef" y="111.713333"/>
    </g>
    <g clip-path="url(#p1b0fa64d3d)">
     <use style="fill:#e04b4b;stroke:#e04b4b;" x="208.502106" xlink:href="#C0_0_e4fa76aeef" y="72.02"/>
    </g>
    <g clip-path="url(#p1b0fa64d3d)">
     <use style="fill:#e04b4b;stroke:#e04b4b;" x="208.502106" xlink:href="#C0_0_e4fa76aeef" y="32.326667"/>
    </g>
    <g clip-path="url(#p1b0fa64d3d)">
     <use style="fill:#e04b4b;stroke:#e04b4b;" x="225.232065" xlink:href="#C0_0_e4fa76aeef" y="111.713333"/>
    </g>
    <g clip-path="url(#p1b0fa64d3d)">
     <use style="fill:#88c9c1;stroke:#88c9c1;" x="225.232065" xlink:href="#C0_0_e4fa76aeef" y="72.02"/>
    </g>
    <g clip-path="url(#p1b0fa64d3d)">
     <use style="fill:#e04b4b;stroke:#e04b4b;" x="225.232065" xlink:href="#C0_0_e4fa76aeef" y="32.326667"/>
    </g>
    <g clip-path="url(#p1b0fa64d3d)">
     <use style="fill:#e04b4b;stroke:#e04b4b;" x="241.962024" xlink:href="#C0_0_e4fa76aeef" y="111.713333"/>
    </g>
    <g clip-path="url(#p1b0fa64d3d)">
     <use style="fill:#e04b4b;stroke:#e04b4b;" x="241.962024" xlink:href="#C0_0_e4fa76aeef" y="72.02"/>
    </g>
    <g clip-path="url(#p1b0fa64d3d)">
     <use style="fill:#e04b4b;stroke:#e04b4b;" x="241.962024" xlink:href="#C0_0_e4fa76aeef" y="32.326667"/>
    </g>
    <g clip-path="url(#p1b0fa64d3d)">
     <use style="fill:#e04b4b;stroke:#e04b4b;" x="258.691984" xlink:href="#C0_0_e4fa76aeef" y="111.713333"/>
    </g>
    <g clip-path="url(#p1b0fa64d3d)">
     <use style="fill:#88c9c1;stroke:#88c9c1;" x="258.691984" xlink:href="#C0_0_e4fa76aeef" y="72.02"/>
    </g>
    <g clip-path="url(#p1b0fa64d3d)">
     <use style="fill:#88c9c1;stroke:#88c9c1;" x="275.421943" xlink:href="#C0_0_e4fa76aeef" y="111.713333"/>
    </g>
    <g clip-path="url(#p1b0fa64d3d)">
     <use style="fill:#88c9c1;stroke:#88c9c1;" x="275.421943" xlink:href="#C0_0_e4fa76aeef" y="72.02"/>
    </g>
    <g clip-path="url(#p1b0fa64d3d)">
     <use style="fill:#88c9c1;stroke:#88c9c1;" x="292.151902" xlink:href="#C0_0_e4fa76aeef" y="111.713333"/>
    </g>
    <g clip-path="url(#p1b0fa64d3d)">
     <use style="fill:#88c9c1;stroke:#88c9c1;" x="292.151902" xlink:href="#C0_0_e4fa76aeef" y="72.02"/>
    </g>
    <g clip-path="url(#p1b0fa64d3d)">
     <use style="fill:#88c9c1;stroke:#88c9c1;" x="292.151902" xlink:href="#C0_0_e4fa76aeef" y="32.326667"/>
    </g>
    <g clip-path="url(#p1b0fa64d3d)">
     <use style="fill:#e04b4b;stroke:#e04b4b;" x="308.881861" xlink:href="#C0_0_e4fa76aeef" y="111.713333"/>
    </g>
    <g clip-path="url(#p1b0fa64d3d)">
     <use style="fill:#e04b4b;stroke:#e04b4b;" x="325.61182" xlink:href="#C0_0_e4fa76aeef" y="111.713333"/>
    </g>
    <g clip-path="url(#p1b0fa64d3d)">
     <use style="fill:#88c9c1;stroke:#88c9c1;" x="325.61182" xlink:href="#C0_0_e4fa76aeef" y="72.02"/>
    </g>
    <g clip-path="url(#p1b0fa64d3d)">
     <use style="fill:#88c9c1;stroke:#88c9c1;" x="342.34178" xlink:href="#C0_0_e4fa76aeef" y="111.713333"/>
    </g>
    <g clip-path="url(#p1b0fa64d3d)">
     <use style="fill:#88c9c1;stroke:#88c9c1;" x="359.071739" xlink:href="#C0_0_e4fa76aeef" y="111.713333"/>
    </g>
    <g clip-path="url(#p1b0fa64d3d)">
     <use style="fill:#88c9c1;stroke:#88c9c1;" x="359.071739" xlink:href="#C0_0_e4fa76aeef" y="72.02"/>
    </g>
    <g clip-path="url(#p1b0fa64d3d)">
     <use style="fill:#88c9c1;stroke:#88c9c1;" x="359.071739" xlink:href="#C0_0_e4fa76aeef" y="32.326667"/>
    </g>
    <g clip-path="url(#p1b0fa64d3d)">
     <use style="fill:#88c9c1;stroke:#88c9c1;" x="375.801698" xlink:href="#C0_0_e4fa76aeef" y="111.713333"/>
    </g>
    <g clip-path="url(#p1b0fa64d3d)">
     <use style="fill:#88c9c1;stroke:#88c9c1;" x="392.531657" xlink:href="#C0_0_e4fa76aeef" y="111.713333"/>
    </g>
    <g clip-path="url(#p1b0fa64d3d)">
     <use style="fill:#88c9c1;stroke:#88c9c1;" x="409.261616" xlink:href="#C0_0_e4fa76aeef" y="111.713333"/>
    </g>
    <g clip-path="url(#p1b0fa64d3d)">
     <use style="fill:#88c9c1;stroke:#88c9c1;" x="425.991575" xlink:href="#C0_0_e4fa76aeef" y="111.713333"/>
    </g>
    <g clip-path="url(#p1b0fa64d3d)">
     <use style="fill:#88c9c1;stroke:#88c9c1;" x="442.721535" xlink:href="#C0_0_e4fa76aeef" y="111.713333"/>
    </g>
    <g clip-path="url(#p1b0fa64d3d)">
     <use style="fill:#88c9c1;stroke:#88c9c1;" x="442.721535" xlink:href="#C0_0_e4fa76aeef" y="72.02"/>
    </g>
   </g>
   <g id="matplotlib.axis_1">
    <g id="xtick_1">
     <g id="line2d_1">
      <defs>
       <path d="M 0 0 
L 0 3.5 
" id="m478831e6f9" style="stroke:#000000;"/>
      </defs>
      <g>
       <use style="stroke:#000000;" x="98.040817" xlink:href="#m478831e6f9" y="131.56"/>
      </g>
     </g>
     <g id="text_1">
      <!-- $\mathdefault{70}$ -->
      <defs>
       <path d="M 56.390625 67.921875 
L 27.875 0 
L 20.609375 0 
L 47.796875 64.890625 
L 14.109375 64.890625 
L 14.109375 55.90625 
L 8.40625 55.90625 
L 8.40625 72.90625 
L 56.390625 72.90625 
z
" id="DejaVuSerif-37"/>
       <path d="M 31.78125 3.421875 
Q 39.265625 3.421875 42.96875 11.625 
Q 46.6875 19.828125 46.6875 36.375 
Q 46.6875 52.984375 42.96875 61.1875 
Q 39.265625 69.390625 31.78125 69.390625 
Q 24.3125 69.390625 20.59375 61.1875 
Q 16.890625 52.984375 16.890625 36.375 
Q 16.890625 19.828125 20.59375 11.625 
Q 24.3125 3.421875 31.78125 3.421875 
z
M 31.78125 -1.421875 
Q 19.921875 -1.421875 13.25 8.53125 
Q 6.59375 18.5 6.59375 36.375 
Q 6.59375 54.296875 13.25 64.25 
Q 19.921875 74.21875 31.78125 74.21875 
Q 43.703125 74.21875 50.34375 64.25 
Q 56.984375 54.296875 56.984375 36.375 
Q 56.984375 18.5 50.34375 8.53125 
Q 43.703125 -1.421875 31.78125 -1.421875 
z
" id="DejaVuSerif-30"/>
      </defs>
      <g transform="translate(89.720817 148.437969)scale(0.13 -0.13)">
       <use transform="translate(0 0.78125)" xlink:href="#DejaVuSerif-37"/>
       <use transform="translate(63.623047 0.78125)" xlink:href="#DejaVuSerif-30"/>
      </g>
     </g>
    </g>
    <g id="xtick_2">
     <g id="line2d_2">
      <g>
       <use style="stroke:#000000;" x="188.224902" xlink:href="#m478831e6f9" y="131.56"/>
      </g>
     </g>
     <g id="text_2">
      <!-- $\mathdefault{80}$ -->
      <defs>
       <path d="M 46.578125 19.921875 
Q 46.578125 27.734375 42.6875 32.046875 
Q 38.8125 36.375 31.78125 36.375 
Q 24.75 36.375 20.875 32.046875 
Q 17 27.734375 17 19.921875 
Q 17 12.0625 20.875 7.734375 
Q 24.75 3.421875 31.78125 3.421875 
Q 38.8125 3.421875 42.6875 7.734375 
Q 46.578125 12.0625 46.578125 19.921875 
z
M 44.578125 55.328125 
Q 44.578125 61.96875 41.203125 65.671875 
Q 37.84375 69.390625 31.78125 69.390625 
Q 25.78125 69.390625 22.390625 65.671875 
Q 19 61.96875 19 55.328125 
Q 19 48.640625 22.390625 44.921875 
Q 25.78125 41.21875 31.78125 41.21875 
Q 37.84375 41.21875 41.203125 44.921875 
Q 44.578125 48.640625 44.578125 55.328125 
z
M 39.3125 38.8125 
Q 47.609375 37.703125 52.25 32.6875 
Q 56.890625 27.6875 56.890625 19.921875 
Q 56.890625 9.671875 50.390625 4.125 
Q 43.890625 -1.421875 31.78125 -1.421875 
Q 19.734375 -1.421875 13.203125 4.125 
Q 6.6875 9.671875 6.6875 19.921875 
Q 6.6875 27.6875 11.328125 32.6875 
Q 15.96875 37.703125 24.3125 38.8125 
Q 16.9375 40.140625 13 44.40625 
Q 9.078125 48.6875 9.078125 55.328125 
Q 9.078125 64.109375 15.125 69.15625 
Q 21.1875 74.21875 31.78125 74.21875 
Q 42.390625 74.21875 48.4375 69.15625 
Q 54.5 64.109375 54.5 55.328125 
Q 54.5 48.6875 50.5625 44.40625 
Q 46.625 40.140625 39.3125 38.8125 
z
" id="DejaVuSerif-38"/>
      </defs>
      <g transform="translate(179.904902 148.437969)scale(0.13 -0.13)">
       <use transform="translate(0 0.78125)" xlink:href="#DejaVuSerif-38"/>
       <use transform="translate(63.623047 0.78125)" xlink:href="#DejaVuSerif-30"/>
      </g>
     </g>
    </g>
    <g id="xtick_3">
     <g id="line2d_3">
      <g>
       <use style="stroke:#000000;" x="278.408986" xlink:href="#m478831e6f9" y="131.56"/>
      </g>
     </g>
     <g id="text_3">
      <!-- $\mathdefault{90}$ -->
      <defs>
       <path d="M 46.78125 32.671875 
Q 43.5 29 39.25 27.1875 
Q 35.015625 25.390625 29.6875 25.390625 
Q 18.84375 25.390625 12.5625 31.9375 
Q 6.296875 38.484375 6.296875 49.8125 
Q 6.296875 60.890625 13.109375 67.546875 
Q 19.921875 74.21875 31.296875 74.21875 
Q 43.65625 74.21875 50.265625 65.015625 
Q 56.890625 55.8125 56.890625 38.71875 
Q 56.890625 19.578125 49.015625 9.078125 
Q 41.15625 -1.421875 26.90625 -1.421875 
Q 23.046875 -1.421875 18.796875 -0.6875 
Q 14.546875 0.046875 10.109375 1.515625 
L 10.109375 13.625 
L 15.578125 13.625 
Q 16.21875 8.6875 19.390625 6.046875 
Q 22.5625 3.421875 27.875 3.421875 
Q 37.359375 3.421875 41.984375 10.5625 
Q 46.625 17.71875 46.78125 32.671875 
z
M 30.90625 69.390625 
Q 23.96875 69.390625 20.28125 64.328125 
Q 16.609375 59.28125 16.609375 49.8125 
Q 16.609375 40.328125 20.28125 35.25 
Q 23.96875 30.171875 30.90625 30.171875 
Q 37.84375 30.171875 41.53125 35.078125 
Q 45.21875 39.984375 45.21875 49.21875 
Q 45.21875 58.9375 41.5 64.15625 
Q 37.796875 69.390625 30.90625 69.390625 
z
" id="DejaVuSerif-39"/>
      </defs>
      <g transform="translate(270.088986 148.437969)scale(0.13 -0.13)">
       <use transform="translate(0 0.78125)" xlink:href="#DejaVuSerif-39"/>
       <use transform="translate(63.623047 0.78125)" xlink:href="#DejaVuSerif-30"/>
      </g>
     </g>
    </g>
    <g id="xtick_4">
     <g id="line2d_4">
      <g>
       <use style="stroke:#000000;" x="368.59307" xlink:href="#m478831e6f9" y="131.56"/>
      </g>
     </g>
     <g id="text_4">
      <!-- $\mathdefault{100}$ -->
      <defs>
       <path d="M 14.203125 0 
L 14.203125 5.171875 
L 26.90625 5.171875 
L 26.90625 65.828125 
L 12.203125 56.296875 
L 12.203125 62.703125 
L 29.984375 74.21875 
L 36.71875 74.21875 
L 36.71875 5.171875 
L 49.421875 5.171875 
L 49.421875 0 
z
" id="DejaVuSerif-31"/>
      </defs>
      <g transform="translate(356.17807 148.437969)scale(0.13 -0.13)">
       <use transform="translate(0 0.78125)" xlink:href="#DejaVuSerif-31"/>
       <use transform="translate(63.623047 0.78125)" xlink:href="#DejaVuSerif-30"/>
       <use transform="translate(127.246094 0.78125)" xlink:href="#DejaVuSerif-30"/>
      </g>
     </g>
    </g>
    <g id="xtick_5">
     <g id="line2d_5">
      <g>
       <use style="stroke:#000000;" x="458.777154" xlink:href="#m478831e6f9" y="131.56"/>
      </g>
     </g>
     <g id="text_5">
      <!-- $\mathdefault{110}$ -->
      <g transform="translate(446.362154 148.437969)scale(0.13 -0.13)">
       <use transform="translate(0 0.78125)" xlink:href="#DejaVuSerif-31"/>
       <use transform="translate(63.623047 0.78125)" xlink:href="#DejaVuSerif-31"/>
       <use transform="translate(127.246094 0.78125)" xlink:href="#DejaVuSerif-30"/>
      </g>
     </g>
    </g>
    <g id="text_6">
     <!-- Observed Value -->
     <defs>
      <path d="M 41.015625 3.8125 
Q 52.984375 3.8125 59.078125 12.03125 
Q 65.1875 20.265625 65.1875 36.375 
Q 65.1875 52.546875 59.078125 60.765625 
Q 52.984375 69 41.015625 69 
Q 29 69 22.890625 60.765625 
Q 16.796875 52.546875 16.796875 36.375 
Q 16.796875 20.265625 22.890625 12.03125 
Q 29 3.8125 41.015625 3.8125 
z
M 41.015625 -1.421875 
Q 33.59375 -1.421875 27.359375 1.015625 
Q 21.140625 3.46875 16.40625 8.203125 
Q 10.9375 13.671875 8.265625 20.609375 
Q 5.609375 27.546875 5.609375 36.375 
Q 5.609375 45.21875 8.265625 52.171875 
Q 10.9375 59.125 16.40625 64.59375 
Q 21.1875 69.390625 27.34375 71.796875 
Q 33.5 74.21875 41.015625 74.21875 
Q 56.890625 74.21875 66.65625 63.8125 
Q 76.421875 53.421875 76.421875 36.375 
Q 76.421875 27.640625 73.734375 20.625 
Q 71.046875 13.625 65.578125 8.203125 
Q 60.796875 3.421875 54.640625 1 
Q 48.484375 -1.421875 41.015625 -1.421875 
z
" id="DejaVuSerif-4f"/>
      <path d="M 11.53125 5.171875 
L 11.53125 70.796875 
L 2.875 70.796875 
L 2.875 75.984375 
L 20.515625 75.984375 
L 20.515625 43.796875 
Q 23.140625 48.6875 27.21875 51 
Q 31.296875 53.328125 37.3125 53.328125 
Q 46.875 53.328125 52.921875 45.75 
Q 58.984375 38.1875 58.984375 25.984375 
Q 58.984375 13.765625 52.921875 6.171875 
Q 46.875 -1.421875 37.3125 -1.421875 
Q 31.296875 -1.421875 27.21875 0.890625 
Q 23.140625 3.21875 20.515625 8.109375 
L 20.515625 0 
L 2.875 0 
L 2.875 5.171875 
z
M 20.515625 23.390625 
Q 20.515625 14.015625 24.09375 9.109375 
Q 27.6875 4.203125 34.515625 4.203125 
Q 41.40625 4.203125 44.9375 9.71875 
Q 48.484375 15.234375 48.484375 25.984375 
Q 48.484375 36.765625 44.9375 42.234375 
Q 41.40625 47.703125 34.515625 47.703125 
Q 27.6875 47.703125 24.09375 42.765625 
Q 20.515625 37.84375 20.515625 28.515625 
z
" id="DejaVuSerif-62"/>
      <path d="M 5.609375 2.875 
L 5.609375 14.984375 
L 10.796875 14.984375 
Q 10.984375 9.1875 14.421875 6.296875 
Q 17.875 3.421875 24.609375 3.421875 
Q 30.671875 3.421875 33.84375 5.6875 
Q 37.015625 7.953125 37.015625 12.3125 
Q 37.015625 15.71875 34.6875 17.8125 
Q 32.375 19.921875 24.90625 22.3125 
L 18.40625 24.515625 
Q 11.71875 26.65625 8.71875 29.875 
Q 5.71875 33.109375 5.71875 38.09375 
Q 5.71875 45.21875 10.9375 49.265625 
Q 16.15625 53.328125 25.390625 53.328125 
Q 29.5 53.328125 34.03125 52.25 
Q 38.578125 51.171875 43.40625 49.125 
L 43.40625 37.796875 
L 38.234375 37.796875 
Q 38.03125 42.828125 34.703125 45.65625 
Q 31.390625 48.484375 25.6875 48.484375 
Q 20.015625 48.484375 17.109375 46.484375 
Q 14.203125 44.484375 14.203125 40.484375 
Q 14.203125 37.203125 16.40625 35.21875 
Q 18.609375 33.25 25.203125 31.203125 
L 32.328125 29 
Q 39.703125 26.703125 42.9375 23.265625 
Q 46.1875 19.828125 46.1875 14.40625 
Q 46.1875 7.03125 40.546875 2.796875 
Q 34.90625 -1.421875 25 -1.421875 
Q 19.96875 -1.421875 15.1875 -0.34375 
Q 10.40625 0.734375 5.609375 2.875 
z
" id="DejaVuSerif-73"/>
      <path d="M 54.203125 25 
L 15.484375 25 
L 15.484375 24.609375 
Q 15.484375 14.109375 19.4375 8.765625 
Q 23.390625 3.421875 31.109375 3.421875 
Q 37.015625 3.421875 40.796875 6.515625 
Q 44.578125 9.625 46.09375 15.71875 
L 53.328125 15.71875 
Q 51.171875 7.171875 45.375 2.875 
Q 39.59375 -1.421875 30.171875 -1.421875 
Q 18.796875 -1.421875 11.890625 6.078125 
Q 4.984375 13.578125 4.984375 25.984375 
Q 4.984375 38.28125 11.765625 45.796875 
Q 18.5625 53.328125 29.59375 53.328125 
Q 41.359375 53.328125 47.65625 46.0625 
Q 53.953125 38.8125 54.203125 25 
z
M 43.609375 30.171875 
Q 43.3125 39.265625 39.765625 43.875 
Q 36.234375 48.484375 29.59375 48.484375 
Q 23.390625 48.484375 19.828125 43.84375 
Q 16.265625 39.203125 15.484375 30.171875 
z
" id="DejaVuSerif-65"/>
      <path d="M 47.796875 52 
L 47.796875 39.015625 
L 42.625 39.015625 
Q 42.390625 42.875 40.484375 44.78125 
Q 38.578125 46.6875 34.90625 46.6875 
Q 28.265625 46.6875 24.71875 42.09375 
Q 21.1875 37.5 21.1875 28.90625 
L 21.1875 5.171875 
L 31.59375 5.171875 
L 31.59375 0 
L 4.109375 0 
L 4.109375 5.171875 
L 12.203125 5.171875 
L 12.203125 46.78125 
L 3.609375 46.78125 
L 3.609375 51.90625 
L 21.1875 51.90625 
L 21.1875 42.671875 
Q 23.828125 48.09375 27.96875 50.703125 
Q 32.125 53.328125 38.09375 53.328125 
Q 40.28125 53.328125 42.703125 52.984375 
Q 45.125 52.640625 47.796875 52 
z
" id="DejaVuSerif-72"/>
      <path d="M 24.703125 0 
L 5.609375 46.6875 
L -0.296875 46.6875 
L -0.296875 51.90625 
L 23.578125 51.90625 
L 23.578125 46.6875 
L 15.28125 46.6875 
L 29.890625 10.984375 
L 44.484375 46.6875 
L 36.71875 46.6875 
L 36.71875 51.90625 
L 56.203125 51.90625 
L 56.203125 46.6875 
L 50.390625 46.6875 
L 31.296875 0 
z
" id="DejaVuSerif-76"/>
      <path d="M 52.484375 5.171875 
L 61.078125 5.171875 
L 61.078125 0 
L 43.5 0 
L 43.5 8.109375 
Q 40.875 3.21875 36.796875 0.890625 
Q 32.71875 -1.421875 26.703125 -1.421875 
Q 17.140625 -1.421875 11.0625 6.171875 
Q 4.984375 13.765625 4.984375 25.984375 
Q 4.984375 38.1875 11.03125 45.75 
Q 17.09375 53.328125 26.703125 53.328125 
Q 32.71875 53.328125 36.796875 51 
Q 40.875 48.6875 43.5 43.796875 
L 43.5 70.796875 
L 35.015625 70.796875 
L 35.015625 75.984375 
L 52.484375 75.984375 
z
M 43.5 23.390625 
L 43.5 28.515625 
Q 43.5 37.84375 39.90625 42.765625 
Q 36.328125 47.703125 29.5 47.703125 
Q 22.5625 47.703125 19.015625 42.234375 
Q 15.484375 36.765625 15.484375 25.984375 
Q 15.484375 15.234375 19.015625 9.71875 
Q 22.5625 4.203125 29.5 4.203125 
Q 36.328125 4.203125 39.90625 9.109375 
Q 43.5 14.015625 43.5 23.390625 
z
" id="DejaVuSerif-64"/>
      <path id="DejaVuSerif-20"/>
      <path d="M 17.484375 67.671875 
L 39.015625 11.71875 
L 60.5 67.671875 
L 52.296875 67.671875 
L 52.296875 72.90625 
L 73.6875 72.90625 
L 73.6875 67.671875 
L 66.609375 67.671875 
L 40.578125 0 
L 32.171875 0 
L 6.296875 67.671875 
L -0.984375 67.671875 
L -0.984375 72.90625 
L 25.59375 72.90625 
L 25.59375 67.671875 
z
" id="DejaVuSerif-56"/>
      <path d="M 39.796875 16.3125 
L 39.796875 27.296875 
L 28.21875 27.296875 
Q 21.53125 27.296875 18.25 24.40625 
Q 14.984375 21.53125 14.984375 15.578125 
Q 14.984375 10.15625 18.296875 6.984375 
Q 21.625 3.8125 27.296875 3.8125 
Q 32.90625 3.8125 36.34375 7.28125 
Q 39.796875 10.75 39.796875 16.3125 
z
M 48.78125 32.421875 
L 48.78125 5.171875 
L 56.78125 5.171875 
L 56.78125 0 
L 39.796875 0 
L 39.796875 5.609375 
Q 36.8125 2 32.90625 0.28125 
Q 29 -1.421875 23.78125 -1.421875 
Q 15.140625 -1.421875 10.0625 3.171875 
Q 4.984375 7.765625 4.984375 15.578125 
Q 4.984375 23.640625 10.796875 28.078125 
Q 16.609375 32.515625 27.203125 32.515625 
L 39.796875 32.515625 
L 39.796875 36.078125 
Q 39.796875 42 36.203125 45.234375 
Q 32.625 48.484375 26.125 48.484375 
Q 20.75 48.484375 17.578125 46.046875 
Q 14.40625 43.609375 13.625 38.8125 
L 8.984375 38.8125 
L 8.984375 49.3125 
Q 13.671875 51.3125 18.09375 52.3125 
Q 22.515625 53.328125 26.703125 53.328125 
Q 37.5 53.328125 43.140625 47.96875 
Q 48.78125 42.625 48.78125 32.421875 
z
" id="DejaVuSerif-61"/>
      <path d="M 20.515625 5.171875 
L 29 5.171875 
L 29 0 
L 2.875 0 
L 2.875 5.171875 
L 11.53125 5.171875 
L 11.53125 70.796875 
L 2.875 70.796875 
L 2.875 75.984375 
L 20.515625 75.984375 
z
" id="DejaVuSerif-6c"/>
      <path d="M 35.40625 51.90625 
L 52.203125 51.90625 
L 52.203125 5.171875 
L 60.6875 5.171875 
L 60.6875 0 
L 43.21875 0 
L 43.21875 9.1875 
Q 40.71875 4 36.765625 1.28125 
Q 32.8125 -1.421875 27.59375 -1.421875 
Q 18.953125 -1.421875 14.875 3.484375 
Q 10.796875 8.40625 10.796875 18.890625 
L 10.796875 46.6875 
L 2.6875 46.6875 
L 2.6875 51.90625 
L 19.828125 51.90625 
L 19.828125 21.6875 
Q 19.828125 12.203125 22.140625 8.6875 
Q 24.46875 5.171875 30.421875 5.171875 
Q 36.671875 5.171875 39.9375 9.765625 
Q 43.21875 14.359375 43.21875 23.09375 
L 43.21875 46.6875 
L 35.40625 46.6875 
z
" id="DejaVuSerif-75"/>
     </defs>
     <g transform="translate(191.770312 172.539219)scale(0.15 -0.15)">
      <use xlink:href="#DejaVuSerif-4f"/>
      <use x="81.982422" xlink:href="#DejaVuSerif-62"/>
      <use x="145.996094" xlink:href="#DejaVuSerif-73"/>
      <use x="197.314453" xlink:href="#DejaVuSerif-65"/>
      <use x="256.494141" xlink:href="#DejaVuSerif-72"/>
      <use x="304.296875" xlink:href="#DejaVuSerif-76"/>
      <use x="360.791016" xlink:href="#DejaVuSerif-65"/>
      <use x="419.970703" xlink:href="#DejaVuSerif-64"/>
      <use x="483.984375" xlink:href="#DejaVuSerif-20"/>
      <use x="515.771484" xlink:href="#DejaVuSerif-56"/>
      <use x="587.847656" xlink:href="#DejaVuSerif-61"/>
      <use x="647.466797" xlink:href="#DejaVuSerif-6c"/>
      <use x="679.449219" xlink:href="#DejaVuSerif-75"/>
      <use x="743.853516" xlink:href="#DejaVuSerif-65"/>
     </g>
    </g>
   </g>
   <g id="matplotlib.axis_2"/>
   <g id="patch_3">
    <path d="M 12.48 131.56 
L 491.52 131.56 
" style="fill:none;stroke:#000000;stroke-linecap:square;stroke-linejoin:miter;stroke-width:1.5;"/>
   </g>
   <g id="text_7">
    <!-- Collection -->
    <defs>
     <path d="M 70.515625 19.28125 
Q 67.28125 9.078125 59.6875 3.828125 
Q 52.09375 -1.421875 40.484375 -1.421875 
Q 33.34375 -1.421875 27.234375 1.015625 
Q 21.140625 3.46875 16.40625 8.203125 
Q 10.9375 13.671875 8.265625 20.625 
Q 5.609375 27.59375 5.609375 36.375 
Q 5.609375 53.375 15.421875 63.796875 
Q 25.25 74.21875 41.3125 74.21875 
Q 47.265625 74.21875 54 72.65625 
Q 60.75 71.09375 68.5 67.921875 
L 68.5 51.125 
L 62.984375 51.125 
Q 61.1875 60.296875 55.734375 64.640625 
Q 50.296875 69 40.484375 69 
Q 28.8125 69 22.796875 60.71875 
Q 16.796875 52.4375 16.796875 36.375 
Q 16.796875 20.359375 22.796875 12.078125 
Q 28.8125 3.8125 40.484375 3.8125 
Q 48.640625 3.8125 53.90625 7.6875 
Q 59.1875 11.578125 61.53125 19.28125 
z
" id="DejaVuSerif-43"/>
     <path d="M 30.078125 3.421875 
Q 37.3125 3.421875 40.984375 9.125 
Q 44.671875 14.84375 44.671875 25.984375 
Q 44.671875 37.109375 40.984375 42.796875 
Q 37.3125 48.484375 30.078125 48.484375 
Q 22.859375 48.484375 19.171875 42.796875 
Q 15.484375 37.109375 15.484375 25.984375 
Q 15.484375 14.84375 19.1875 9.125 
Q 22.90625 3.421875 30.078125 3.421875 
z
M 30.078125 -1.421875 
Q 18.75 -1.421875 11.859375 6.078125 
Q 4.984375 13.578125 4.984375 25.984375 
Q 4.984375 38.375 11.84375 45.84375 
Q 18.703125 53.328125 30.078125 53.328125 
Q 41.453125 53.328125 48.3125 45.84375 
Q 55.171875 38.375 55.171875 25.984375 
Q 55.171875 13.578125 48.3125 6.078125 
Q 41.453125 -1.421875 30.078125 -1.421875 
z
" id="DejaVuSerif-6f"/>
     <path d="M 51.421875 15.578125 
Q 49.515625 7.28125 44.09375 2.921875 
Q 38.671875 -1.421875 30.078125 -1.421875 
Q 18.75 -1.421875 11.859375 6.078125 
Q 4.984375 13.578125 4.984375 25.984375 
Q 4.984375 38.421875 11.859375 45.875 
Q 18.75 53.328125 30.078125 53.328125 
Q 35.015625 53.328125 39.890625 52.171875 
Q 44.78125 51.03125 49.703125 48.6875 
L 49.703125 35.40625 
L 44.484375 35.40625 
Q 43.453125 42.234375 40.015625 45.359375 
Q 36.578125 48.484375 30.171875 48.484375 
Q 22.90625 48.484375 19.1875 42.84375 
Q 15.484375 37.203125 15.484375 25.984375 
Q 15.484375 14.75 19.171875 9.078125 
Q 22.859375 3.421875 30.171875 3.421875 
Q 35.984375 3.421875 39.453125 6.4375 
Q 42.921875 9.46875 44.1875 15.578125 
z
" id="DejaVuSerif-63"/>
     <path d="M 10.796875 46.6875 
L 2.875 46.6875 
L 2.875 51.90625 
L 10.796875 51.90625 
L 10.796875 68.015625 
L 19.828125 68.015625 
L 19.828125 51.90625 
L 36.71875 51.90625 
L 36.71875 46.6875 
L 19.828125 46.6875 
L 19.828125 13.71875 
Q 19.828125 7.125 21.09375 5.265625 
Q 22.359375 3.421875 25.78125 3.421875 
Q 29.296875 3.421875 30.90625 5.484375 
Q 32.515625 7.5625 32.625 12.203125 
L 39.40625 12.203125 
Q 39.015625 5.125 35.546875 1.84375 
Q 32.078125 -1.421875 25 -1.421875 
Q 17.234375 -1.421875 14.015625 2.015625 
Q 10.796875 5.46875 10.796875 13.71875 
z
" id="DejaVuSerif-74"/>
     <path d="M 9.71875 68.015625 
Q 9.71875 70.265625 11.34375 71.921875 
Q 12.984375 73.578125 15.28125 73.578125 
Q 17.53125 73.578125 19.15625 71.921875 
Q 20.796875 70.265625 20.796875 68.015625 
Q 20.796875 65.71875 19.1875 64.109375 
Q 17.578125 62.5 15.28125 62.5 
Q 12.984375 62.5 11.34375 64.109375 
Q 9.71875 65.71875 9.71875 68.015625 
z
M 21.1875 5.171875 
L 29.6875 5.171875 
L 29.6875 0 
L 3.609375 0 
L 3.609375 5.171875 
L 12.203125 5.171875 
L 12.203125 46.6875 
L 3.609375 46.6875 
L 3.609375 51.90625 
L 21.1875 51.90625 
z
" id="DejaVuSerif-69"/>
     <path d="M 4.109375 0 
L 4.109375 5.171875 
L 12.203125 5.171875 
L 12.203125 46.6875 
L 3.609375 46.6875 
L 3.609375 51.90625 
L 21.1875 51.90625 
L 21.1875 42.671875 
Q 23.6875 47.953125 27.65625 50.640625 
Q 31.640625 53.328125 36.921875 53.328125 
Q 45.515625 53.328125 49.5625 48.390625 
Q 53.609375 43.453125 53.609375 33.015625 
L 53.609375 5.171875 
L 61.625 5.171875 
L 61.625 0 
L 36.8125 0 
L 36.8125 5.171875 
L 44.578125 5.171875 
L 44.578125 30.171875 
Q 44.578125 39.703125 42.234375 43.234375 
Q 39.890625 46.78125 33.984375 46.78125 
Q 27.734375 46.78125 24.453125 42.203125 
Q 21.1875 37.640625 21.1875 28.90625 
L 21.1875 5.171875 
L 29 5.171875 
L 29 0 
z
" id="DejaVuSerif-6e"/>
    </defs>
    <g style="fill:#a6a6a6;" transform="translate(36.432 47.183312)scale(0.3 -0.3)">
     <use xlink:href="#DejaVuSerif-43"/>
     <use x="76.513672" xlink:href="#DejaVuSerif-6f"/>
     <use x="136.71875" xlink:href="#DejaVuSerif-6c"/>
     <use x="168.701172" xlink:href="#DejaVuSerif-6c"/>
     <use x="200.683594" xlink:href="#DejaVuSerif-65"/>
     <use x="259.863281" xlink:href="#DejaVuSerif-63"/>
     <use x="315.869141" xlink:href="#DejaVuSerif-74"/>
     <use x="356.054688" xlink:href="#DejaVuSerif-69"/>
     <use x="388.037109" xlink:href="#DejaVuSerif-6f"/>
     <use x="448.242188" xlink:href="#DejaVuSerif-6e"/>
    </g>
   </g>
  </g>
 </g>
 <defs>
  <clipPath id="p1b0fa64d3d">
   <rect height="119.08" width="479.04" x="12.48" y="12.48"/>
  </clipPath>
 </defs>
</svg>
