<?xml version="1.0" encoding="utf-8" standalone="no"?>
<!DOCTYPE svg PUBLIC "-//W3C//DTD SVG 1.1//EN"
  "http://www.w3.org/Graphics/SVG/1.1/DTD/svg11.dtd">
<!-- Created with matplotlib (http://matplotlib.org/) -->
<svg height="432pt" version="1.1" viewBox="0 0 432 432" width="432pt" xmlns="http://www.w3.org/2000/svg" xmlns:xlink="http://www.w3.org/1999/xlink">
 <defs>
  <style type="text/css">
*{stroke-linecap:butt;stroke-linejoin:round;}
  </style>
 </defs>
 <g id="figure_1">
  <g id="patch_1">
   <path d="M 0 432 
L 432 432 
L 432 0 
L 0 0 
z
" style="fill:#ffffff;"/>
  </g>
  <g id="axes_1">
   <g id="patch_2">
    <path clip-path="url(#pacd7ce24bd)" d="M 69.218182 62.738182 
L 69.218182 138.829091 
L 183.354545 138.829091 
L 183.354545 367.101818 
L 259.445455 367.101818 
L 259.445455 138.829091 
L 373.581818 138.829091 
L 373.581818 62.738182 
z
" style="fill:#acc2d9;stroke:#000000;stroke-linejoin:miter;stroke-width:3;"/>
   </g>
   <g id="patch_3">
    <path d="M 287.123572 366.342899 
L 295.118433 381.070227 
Q 215.404674 366.548244 217.736444 239.498838 
L 208.244943 245.711823 
Q 211.647463 231.71535 221.403294 216.916117 
Q 231.256581 231.543741 236.198005 244.091226 
L 226.127714 239.115974 
Q 239.952948 363.969817 295.868063 353.080264 
L 287.123572 366.342899 
z
" style="fill:#008000;"/>
   </g>
   <g id="patch_4">
    <path d="M 220.707164 147.480319 
L 207.380268 156.188553 
Q 215.562557 120.066084 168.982372 106.684223 
L 172.267287 117.25501 
Q 162.670168 110.820396 147.307704 100.793611 
Q 163.082899 91.079702 178.08056 89.865124 
L 170.304468 98.38892 
Q 225.019717 101.151412 235.372218 155.517213 
L 220.707164 147.480319 
z
" style="fill:#333333;"/>
   </g>
   <g id="patch_5">
    <path d="M 222.092836 147.480319 
L 207.427782 155.517213 
Q 217.780283 101.151412 272.495532 98.38892 
L 264.71944 89.865124 
Q 279.717101 91.079702 295.492296 100.793611 
Q 280.129832 110.820396 270.532713 117.25501 
L 273.817628 106.684223 
Q 227.237443 120.066084 235.419732 156.188553 
L 222.092836 147.480319 
z
" style="fill:#333333;"/>
   </g>
   <g id="text_1">
    <!-- A -->
    <defs>
     <path d="M 34.1875 63.1875 
L 20.796875 26.90625 
L 47.609375 26.90625 
z
M 28.609375 72.90625 
L 39.796875 72.90625 
L 67.578125 0 
L 57.328125 0 
L 50.6875 18.703125 
L 17.828125 18.703125 
L 11.1875 0 
L 0.78125 0 
z
" id="DejaVuSans-41"/>
    </defs>
    <g style="fill:#ffffff;" transform="translate(78.729545 126.052727)scale(0.64 -0.64)">
     <use xlink:href="#DejaVuSans-41"/>
    </g>
   </g>
   <g id="text_2">
    <!-- B -->
    <defs>
     <path d="M 19.671875 34.8125 
L 19.671875 8.109375 
L 35.5 8.109375 
Q 43.453125 8.109375 47.28125 11.40625 
Q 51.125 14.703125 51.125 21.484375 
Q 51.125 28.328125 47.28125 31.5625 
Q 43.453125 34.8125 35.5 34.8125 
z
M 19.671875 64.796875 
L 19.671875 42.828125 
L 34.28125 42.828125 
Q 41.5 42.828125 45.03125 45.53125 
Q 48.578125 48.25 48.578125 53.8125 
Q 48.578125 59.328125 45.03125 62.0625 
Q 41.5 64.796875 34.28125 64.796875 
z
M 9.8125 72.90625 
L 35.015625 72.90625 
Q 46.296875 72.90625 52.390625 68.21875 
Q 58.5 63.53125 58.5 54.890625 
Q 58.5 48.1875 55.375 44.234375 
Q 52.25 40.28125 46.1875 39.3125 
Q 53.46875 37.75 57.5 32.78125 
Q 61.53125 27.828125 61.53125 20.40625 
Q 61.53125 10.640625 54.890625 5.3125 
Q 48.25 0 35.984375 0 
L 9.8125 0 
z
" id="DejaVuSans-42"/>
    </defs>
    <g style="fill:#ff0000;" transform="translate(320.160455 126.052727)scale(0.64 -0.64)">
     <use xlink:href="#DejaVuSans-42"/>
    </g>
   </g>
  </g>
  <g id="axes_2"/>
 </g>
 <defs>
  <clipPath id="pacd7ce24bd">
   <rect height="326.16" width="334.8" x="54" y="51.84"/>
  </clipPath>
 </defs>
</svg>
