<?xml version="1.0" encoding="utf-8" standalone="no"?>
<!DOCTYPE svg PUBLIC "-//W3C//DTD SVG 1.1//EN"
  "http://www.w3.org/Graphics/SVG/1.1/DTD/svg11.dtd">
<!-- Created with matplotlib (http://matplotlib.org/) -->
<svg height="432pt" version="1.1" viewBox="0 0 648 432" width="648pt" xmlns="http://www.w3.org/2000/svg" xmlns:xlink="http://www.w3.org/1999/xlink">
 <defs>
  <style type="text/css">
*{stroke-linecap:butt;stroke-linejoin:round;}
  </style>
 </defs>
 <g id="figure_1">
  <g id="patch_1">
   <path d="M 0 432 
L 648 432 
L 648 0 
L 0 0 
z
" style="fill:none;"/>
  </g>
  <g id="axes_1">
   <g id="patch_2">
    <path d="M 81 378 
L 583.2 378 
L 583.2 51.84 
L 81 51.84 
z
" style="fill:none;opacity:0;"/>
   </g>
   <g id="matplotlib.axis_1">
    <g id="xtick_1">
     <g id="line2d_1">
      <defs>
       <path d="M 0 0 
L 0 3.5 
" id="maf4395bcde" style="stroke:#d2d2d2;stroke-width:0.8;"/>
      </defs>
      <g>
       <use style="fill:#d2d2d2;stroke:#d2d2d2;stroke-width:0.8;" x="103.989555" xlink:href="#maf4395bcde" y="378"/>
      </g>
     </g>
     <g id="text_1">
      <!-- $\mathdefault{0}$ -->
      <defs>
       <path d="M 31.78125 3.421875 
Q 39.265625 3.421875 42.96875 11.625 
Q 46.6875 19.828125 46.6875 36.375 
Q 46.6875 52.984375 42.96875 61.1875 
Q 39.265625 69.390625 31.78125 69.390625 
Q 24.3125 69.390625 20.59375 61.1875 
Q 16.890625 52.984375 16.890625 36.375 
Q 16.890625 19.828125 20.59375 11.625 
Q 24.3125 3.421875 31.78125 3.421875 
z
M 31.78125 -1.421875 
Q 19.921875 -1.421875 13.25 8.53125 
Q 6.59375 18.5 6.59375 36.375 
Q 6.59375 54.296875 13.25 64.25 
Q 19.921875 74.21875 31.78125 74.21875 
Q 43.703125 74.21875 50.34375 64.25 
Q 56.984375 54.296875 56.984375 36.375 
Q 56.984375 18.5 50.34375 8.53125 
Q 43.703125 -1.421875 31.78125 -1.421875 
z
" id="DejaVuSerif-30"/>
      </defs>
      <g style="fill:#d2d2d2;" transform="translate(99.829555 394.877969)scale(0.13 -0.13)">
       <use transform="translate(0 0.78125)" xlink:href="#DejaVuSerif-30"/>
      </g>
     </g>
    </g>
    <g id="xtick_2">
     <g id="line2d_2">
      <g>
       <use style="fill:#d2d2d2;stroke:#d2d2d2;stroke-width:0.8;" x="176.024432" xlink:href="#maf4395bcde" y="378"/>
      </g>
     </g>
     <g id="text_2">
      <!-- $\mathdefault{3}$ -->
      <defs>
       <path d="M 9.71875 69.828125 
Q 15.4375 71.96875 20.671875 73.09375 
Q 25.921875 74.21875 30.515625 74.21875 
Q 41.21875 74.21875 47.21875 69.59375 
Q 53.21875 64.984375 53.21875 56.78125 
Q 53.21875 50.203125 49.0625 45.78125 
Q 44.921875 41.359375 37.3125 39.796875 
Q 46.296875 38.53125 51.25 33.28125 
Q 56.203125 28.03125 56.203125 19.671875 
Q 56.203125 9.46875 49.34375 4.015625 
Q 42.484375 -1.421875 29.59375 -1.421875 
Q 23.875 -1.421875 18.421875 -0.1875 
Q 12.984375 1.03125 7.625 3.515625 
L 7.625 17.671875 
L 13.09375 17.671875 
Q 13.578125 10.640625 17.828125 7.03125 
Q 22.078125 3.421875 29.78125 3.421875 
Q 37.25 3.421875 41.578125 7.734375 
Q 45.90625 12.0625 45.90625 19.578125 
Q 45.90625 28.171875 41.453125 32.59375 
Q 37.015625 37.015625 28.421875 37.015625 
L 23.78125 37.015625 
L 23.78125 42 
L 26.21875 42 
Q 34.765625 42 39.03125 45.53125 
Q 43.3125 49.078125 43.3125 56.203125 
Q 43.3125 62.59375 39.796875 65.984375 
Q 36.28125 69.390625 29.6875 69.390625 
Q 23.09375 69.390625 19.453125 66.265625 
Q 15.828125 63.140625 15.1875 56.984375 
L 9.71875 56.984375 
z
" id="DejaVuSerif-33"/>
      </defs>
      <g style="fill:#d2d2d2;" transform="translate(171.864432 394.877969)scale(0.13 -0.13)">
       <use transform="translate(0 0.78125)" xlink:href="#DejaVuSerif-33"/>
      </g>
     </g>
    </g>
    <g id="xtick_3">
     <g id="line2d_3">
      <g>
       <use style="fill:#d2d2d2;stroke:#d2d2d2;stroke-width:0.8;" x="248.05931" xlink:href="#maf4395bcde" y="378"/>
      </g>
     </g>
     <g id="text_3">
      <!-- $\mathdefault{6}$ -->
      <defs>
       <path d="M 32.71875 3.421875 
Q 39.59375 3.421875 43.296875 8.46875 
Q 47.015625 13.53125 47.015625 23 
Q 47.015625 32.46875 43.296875 37.515625 
Q 39.59375 42.578125 32.71875 42.578125 
Q 25.734375 42.578125 22.0625 37.6875 
Q 18.40625 32.8125 18.40625 23.578125 
Q 18.40625 13.875 22.109375 8.640625 
Q 25.828125 3.421875 32.71875 3.421875 
z
M 16.796875 40.140625 
Q 20.125 43.796875 24.3125 45.59375 
Q 28.515625 47.40625 33.796875 47.40625 
Q 44.671875 47.40625 51 40.859375 
Q 57.328125 34.328125 57.328125 23 
Q 57.328125 11.921875 50.515625 5.25 
Q 43.703125 -1.421875 32.328125 -1.421875 
Q 19.96875 -1.421875 13.328125 7.78125 
Q 6.6875 17 6.6875 34.078125 
Q 6.6875 53.21875 14.546875 63.71875 
Q 22.40625 74.21875 36.71875 74.21875 
Q 40.578125 74.21875 44.828125 73.484375 
Q 49.078125 72.75 53.515625 71.296875 
L 53.515625 59.28125 
L 48 59.28125 
Q 47.40625 64.203125 44.234375 66.796875 
Q 41.0625 69.390625 35.6875 69.390625 
Q 26.21875 69.390625 21.578125 62.203125 
Q 16.9375 55.03125 16.796875 40.140625 
z
" id="DejaVuSerif-36"/>
      </defs>
      <g style="fill:#d2d2d2;" transform="translate(243.89931 394.877969)scale(0.13 -0.13)">
       <use transform="translate(0 0.78125)" xlink:href="#DejaVuSerif-36"/>
      </g>
     </g>
    </g>
    <g id="xtick_4">
     <g id="line2d_4">
      <g>
       <use style="fill:#d2d2d2;stroke:#d2d2d2;stroke-width:0.8;" x="320.094187" xlink:href="#maf4395bcde" y="378"/>
      </g>
     </g>
     <g id="text_4">
      <!-- $\mathdefault{9}$ -->
      <defs>
       <path d="M 46.78125 32.671875 
Q 43.5 29 39.25 27.1875 
Q 35.015625 25.390625 29.6875 25.390625 
Q 18.84375 25.390625 12.5625 31.9375 
Q 6.296875 38.484375 6.296875 49.8125 
Q 6.296875 60.890625 13.109375 67.546875 
Q 19.921875 74.21875 31.296875 74.21875 
Q 43.65625 74.21875 50.265625 65.015625 
Q 56.890625 55.8125 56.890625 38.71875 
Q 56.890625 19.578125 49.015625 9.078125 
Q 41.15625 -1.421875 26.90625 -1.421875 
Q 23.046875 -1.421875 18.796875 -0.6875 
Q 14.546875 0.046875 10.109375 1.515625 
L 10.109375 13.625 
L 15.578125 13.625 
Q 16.21875 8.6875 19.390625 6.046875 
Q 22.5625 3.421875 27.875 3.421875 
Q 37.359375 3.421875 41.984375 10.5625 
Q 46.625 17.71875 46.78125 32.671875 
z
M 30.90625 69.390625 
Q 23.96875 69.390625 20.28125 64.328125 
Q 16.609375 59.28125 16.609375 49.8125 
Q 16.609375 40.328125 20.28125 35.25 
Q 23.96875 30.171875 30.90625 30.171875 
Q 37.84375 30.171875 41.53125 35.078125 
Q 45.21875 39.984375 45.21875 49.21875 
Q 45.21875 58.9375 41.5 64.15625 
Q 37.796875 69.390625 30.90625 69.390625 
z
" id="DejaVuSerif-39"/>
      </defs>
      <g style="fill:#d2d2d2;" transform="translate(315.934187 394.877969)scale(0.13 -0.13)">
       <use transform="translate(0 0.78125)" xlink:href="#DejaVuSerif-39"/>
      </g>
     </g>
    </g>
    <g id="xtick_5">
     <g id="line2d_5">
      <g>
       <use style="fill:#d2d2d2;stroke:#d2d2d2;stroke-width:0.8;" x="392.129064" xlink:href="#maf4395bcde" y="378"/>
      </g>
     </g>
     <g id="text_5">
      <!-- $\mathdefault{12}$ -->
      <defs>
       <path d="M 14.203125 0 
L 14.203125 5.171875 
L 26.90625 5.171875 
L 26.90625 65.828125 
L 12.203125 56.296875 
L 12.203125 62.703125 
L 29.984375 74.21875 
L 36.71875 74.21875 
L 36.71875 5.171875 
L 49.421875 5.171875 
L 49.421875 0 
z
" id="DejaVuSerif-31"/>
       <path d="M 12.796875 55.515625 
L 7.328125 55.515625 
L 7.328125 68.5 
Q 12.546875 71.296875 17.84375 72.75 
Q 23.140625 74.21875 28.21875 74.21875 
Q 39.59375 74.21875 46.1875 68.703125 
Q 52.78125 63.1875 52.78125 53.71875 
Q 52.78125 43.015625 37.84375 28.125 
Q 36.671875 27 36.078125 26.421875 
L 17.671875 8.015625 
L 48.09375 8.015625 
L 48.09375 17 
L 53.8125 17 
L 53.8125 0 
L 6.78125 0 
L 6.78125 5.328125 
L 28.90625 27.390625 
Q 36.234375 34.71875 39.359375 40.84375 
Q 42.484375 46.96875 42.484375 53.71875 
Q 42.484375 61.078125 38.640625 65.234375 
Q 34.8125 69.390625 28.078125 69.390625 
Q 21.09375 69.390625 17.28125 65.921875 
Q 13.484375 62.453125 12.796875 55.515625 
z
" id="DejaVuSerif-32"/>
      </defs>
      <g style="fill:#d2d2d2;" transform="translate(383.809064 394.877969)scale(0.13 -0.13)">
       <use transform="translate(0 0.78125)" xlink:href="#DejaVuSerif-31"/>
       <use transform="translate(63.623047 0.78125)" xlink:href="#DejaVuSerif-32"/>
      </g>
     </g>
    </g>
    <g id="xtick_6">
     <g id="line2d_6">
      <g>
       <use style="fill:#d2d2d2;stroke:#d2d2d2;stroke-width:0.8;" x="464.163942" xlink:href="#maf4395bcde" y="378"/>
      </g>
     </g>
     <g id="text_6">
      <!-- $\mathdefault{15}$ -->
      <defs>
       <path d="M 50.296875 72.90625 
L 50.296875 64.890625 
L 16.890625 64.890625 
L 16.890625 44 
Q 19.4375 45.75 22.828125 46.625 
Q 26.21875 47.515625 30.421875 47.515625 
Q 42.234375 47.515625 49.0625 40.96875 
Q 55.90625 34.421875 55.90625 23.09375 
Q 55.90625 11.53125 49 5.046875 
Q 42.09375 -1.421875 29.59375 -1.421875 
Q 24.5625 -1.421875 19.28125 -0.1875 
Q 14.015625 1.03125 8.5 3.515625 
L 8.5 17.671875 
L 14.015625 17.671875 
Q 14.453125 10.75 18.421875 7.078125 
Q 22.40625 3.421875 29.59375 3.421875 
Q 37.3125 3.421875 41.453125 8.5 
Q 45.609375 13.578125 45.609375 23.09375 
Q 45.609375 32.5625 41.484375 37.609375 
Q 37.359375 42.671875 29.59375 42.671875 
Q 25.203125 42.671875 21.84375 41.109375 
Q 18.5 39.546875 15.921875 36.28125 
L 11.71875 36.28125 
L 11.71875 72.90625 
z
" id="DejaVuSerif-35"/>
      </defs>
      <g style="fill:#d2d2d2;" transform="translate(455.843942 394.877969)scale(0.13 -0.13)">
       <use transform="translate(0 0.78125)" xlink:href="#DejaVuSerif-31"/>
       <use transform="translate(63.623047 0.78125)" xlink:href="#DejaVuSerif-35"/>
      </g>
     </g>
    </g>
    <g id="xtick_7">
     <g id="line2d_7">
      <g>
       <use style="fill:#d2d2d2;stroke:#d2d2d2;stroke-width:0.8;" x="536.198819" xlink:href="#maf4395bcde" y="378"/>
      </g>
     </g>
     <g id="text_7">
      <!-- $\mathdefault{18}$ -->
      <defs>
       <path d="M 46.578125 19.921875 
Q 46.578125 27.734375 42.6875 32.046875 
Q 38.8125 36.375 31.78125 36.375 
Q 24.75 36.375 20.875 32.046875 
Q 17 27.734375 17 19.921875 
Q 17 12.0625 20.875 7.734375 
Q 24.75 3.421875 31.78125 3.421875 
Q 38.8125 3.421875 42.6875 7.734375 
Q 46.578125 12.0625 46.578125 19.921875 
z
M 44.578125 55.328125 
Q 44.578125 61.96875 41.203125 65.671875 
Q 37.84375 69.390625 31.78125 69.390625 
Q 25.78125 69.390625 22.390625 65.671875 
Q 19 61.96875 19 55.328125 
Q 19 48.640625 22.390625 44.921875 
Q 25.78125 41.21875 31.78125 41.21875 
Q 37.84375 41.21875 41.203125 44.921875 
Q 44.578125 48.640625 44.578125 55.328125 
z
M 39.3125 38.8125 
Q 47.609375 37.703125 52.25 32.6875 
Q 56.890625 27.6875 56.890625 19.921875 
Q 56.890625 9.671875 50.390625 4.125 
Q 43.890625 -1.421875 31.78125 -1.421875 
Q 19.734375 -1.421875 13.203125 4.125 
Q 6.6875 9.671875 6.6875 19.921875 
Q 6.6875 27.6875 11.328125 32.6875 
Q 15.96875 37.703125 24.3125 38.8125 
Q 16.9375 40.140625 13 44.40625 
Q 9.078125 48.6875 9.078125 55.328125 
Q 9.078125 64.109375 15.125 69.15625 
Q 21.1875 74.21875 31.78125 74.21875 
Q 42.390625 74.21875 48.4375 69.15625 
Q 54.5 64.109375 54.5 55.328125 
Q 54.5 48.6875 50.5625 44.40625 
Q 46.625 40.140625 39.3125 38.8125 
z
" id="DejaVuSerif-38"/>
      </defs>
      <g style="fill:#d2d2d2;" transform="translate(527.878819 394.877969)scale(0.13 -0.13)">
       <use transform="translate(0 0.78125)" xlink:href="#DejaVuSerif-31"/>
       <use transform="translate(63.623047 0.78125)" xlink:href="#DejaVuSerif-38"/>
      </g>
     </g>
    </g>
    <g id="text_8">
     <!-- Number of red cards -->
     <defs>
      <path d="M 4.890625 0 
L 4.890625 5.171875 
L 14.703125 5.171875 
L 14.703125 67.671875 
L 4.890625 67.671875 
L 4.890625 72.90625 
L 23.578125 72.90625 
L 67.28125 15.375 
L 67.28125 67.671875 
L 57.515625 67.671875 
L 57.515625 72.90625 
L 83.109375 72.90625 
L 83.109375 67.671875 
L 73.296875 67.671875 
L 73.296875 -1.421875 
L 67.390625 -1.421875 
L 20.703125 60.015625 
L 20.703125 5.171875 
L 30.515625 5.171875 
L 30.515625 0 
z
" id="DejaVuSerif-4e"/>
      <path d="M 35.40625 51.90625 
L 52.203125 51.90625 
L 52.203125 5.171875 
L 60.6875 5.171875 
L 60.6875 0 
L 43.21875 0 
L 43.21875 9.1875 
Q 40.71875 4 36.765625 1.28125 
Q 32.8125 -1.421875 27.59375 -1.421875 
Q 18.953125 -1.421875 14.875 3.484375 
Q 10.796875 8.40625 10.796875 18.890625 
L 10.796875 46.6875 
L 2.6875 46.6875 
L 2.6875 51.90625 
L 19.828125 51.90625 
L 19.828125 21.6875 
Q 19.828125 12.203125 22.140625 8.6875 
Q 24.46875 5.171875 30.421875 5.171875 
Q 36.671875 5.171875 39.9375 9.765625 
Q 43.21875 14.359375 43.21875 23.09375 
L 43.21875 46.6875 
L 35.40625 46.6875 
z
" id="DejaVuSerif-75"/>
      <path d="M 51.8125 41.796875 
Q 54.390625 47.515625 58.421875 50.421875 
Q 62.453125 53.328125 67.828125 53.328125 
Q 75.984375 53.328125 79.984375 48.265625 
Q 83.984375 43.21875 83.984375 33.015625 
L 83.984375 5.171875 
L 92.09375 5.171875 
L 92.09375 0 
L 67.1875 0 
L 67.1875 5.171875 
L 75 5.171875 
L 75 31.984375 
Q 75 39.9375 72.65625 43.3125 
Q 70.3125 46.6875 64.890625 46.6875 
Q 58.890625 46.6875 55.734375 42.140625 
Q 52.59375 37.59375 52.59375 28.90625 
L 52.59375 5.171875 
L 60.40625 5.171875 
L 60.40625 0 
L 35.796875 0 
L 35.796875 5.171875 
L 43.609375 5.171875 
L 43.609375 32.328125 
Q 43.609375 40.09375 41.265625 43.390625 
Q 38.921875 46.6875 33.5 46.6875 
Q 27.484375 46.6875 24.328125 42.140625 
Q 21.1875 37.59375 21.1875 28.90625 
L 21.1875 5.171875 
L 29 5.171875 
L 29 0 
L 4.109375 0 
L 4.109375 5.171875 
L 12.203125 5.171875 
L 12.203125 46.78125 
L 3.609375 46.78125 
L 3.609375 51.90625 
L 21.1875 51.90625 
L 21.1875 42.671875 
Q 23.6875 47.859375 27.53125 50.59375 
Q 31.390625 53.328125 36.28125 53.328125 
Q 42.328125 53.328125 46.375 50.3125 
Q 50.4375 47.3125 51.8125 41.796875 
z
" id="DejaVuSerif-6d"/>
      <path d="M 11.53125 5.171875 
L 11.53125 70.796875 
L 2.875 70.796875 
L 2.875 75.984375 
L 20.515625 75.984375 
L 20.515625 43.796875 
Q 23.140625 48.6875 27.21875 51 
Q 31.296875 53.328125 37.3125 53.328125 
Q 46.875 53.328125 52.921875 45.75 
Q 58.984375 38.1875 58.984375 25.984375 
Q 58.984375 13.765625 52.921875 6.171875 
Q 46.875 -1.421875 37.3125 -1.421875 
Q 31.296875 -1.421875 27.21875 0.890625 
Q 23.140625 3.21875 20.515625 8.109375 
L 20.515625 0 
L 2.875 0 
L 2.875 5.171875 
z
M 20.515625 23.390625 
Q 20.515625 14.015625 24.09375 9.109375 
Q 27.6875 4.203125 34.515625 4.203125 
Q 41.40625 4.203125 44.9375 9.71875 
Q 48.484375 15.234375 48.484375 25.984375 
Q 48.484375 36.765625 44.9375 42.234375 
Q 41.40625 47.703125 34.515625 47.703125 
Q 27.6875 47.703125 24.09375 42.765625 
Q 20.515625 37.84375 20.515625 28.515625 
z
" id="DejaVuSerif-62"/>
      <path d="M 54.203125 25 
L 15.484375 25 
L 15.484375 24.609375 
Q 15.484375 14.109375 19.4375 8.765625 
Q 23.390625 3.421875 31.109375 3.421875 
Q 37.015625 3.421875 40.796875 6.515625 
Q 44.578125 9.625 46.09375 15.71875 
L 53.328125 15.71875 
Q 51.171875 7.171875 45.375 2.875 
Q 39.59375 -1.421875 30.171875 -1.421875 
Q 18.796875 -1.421875 11.890625 6.078125 
Q 4.984375 13.578125 4.984375 25.984375 
Q 4.984375 38.28125 11.765625 45.796875 
Q 18.5625 53.328125 29.59375 53.328125 
Q 41.359375 53.328125 47.65625 46.0625 
Q 53.953125 38.8125 54.203125 25 
z
M 43.609375 30.171875 
Q 43.3125 39.265625 39.765625 43.875 
Q 36.234375 48.484375 29.59375 48.484375 
Q 23.390625 48.484375 19.828125 43.84375 
Q 16.265625 39.203125 15.484375 30.171875 
z
" id="DejaVuSerif-65"/>
      <path d="M 47.796875 52 
L 47.796875 39.015625 
L 42.625 39.015625 
Q 42.390625 42.875 40.484375 44.78125 
Q 38.578125 46.6875 34.90625 46.6875 
Q 28.265625 46.6875 24.71875 42.09375 
Q 21.1875 37.5 21.1875 28.90625 
L 21.1875 5.171875 
L 31.59375 5.171875 
L 31.59375 0 
L 4.109375 0 
L 4.109375 5.171875 
L 12.203125 5.171875 
L 12.203125 46.78125 
L 3.609375 46.78125 
L 3.609375 51.90625 
L 21.1875 51.90625 
L 21.1875 42.671875 
Q 23.828125 48.09375 27.96875 50.703125 
Q 32.125 53.328125 38.09375 53.328125 
Q 40.28125 53.328125 42.703125 52.984375 
Q 45.125 52.640625 47.796875 52 
z
" id="DejaVuSerif-72"/>
      <path id="DejaVuSerif-20"/>
      <path d="M 30.078125 3.421875 
Q 37.3125 3.421875 40.984375 9.125 
Q 44.671875 14.84375 44.671875 25.984375 
Q 44.671875 37.109375 40.984375 42.796875 
Q 37.3125 48.484375 30.078125 48.484375 
Q 22.859375 48.484375 19.171875 42.796875 
Q 15.484375 37.109375 15.484375 25.984375 
Q 15.484375 14.84375 19.1875 9.125 
Q 22.90625 3.421875 30.078125 3.421875 
z
M 30.078125 -1.421875 
Q 18.75 -1.421875 11.859375 6.078125 
Q 4.984375 13.578125 4.984375 25.984375 
Q 4.984375 38.375 11.84375 45.84375 
Q 18.703125 53.328125 30.078125 53.328125 
Q 41.453125 53.328125 48.3125 45.84375 
Q 55.171875 38.375 55.171875 25.984375 
Q 55.171875 13.578125 48.3125 6.078125 
Q 41.453125 -1.421875 30.078125 -1.421875 
z
" id="DejaVuSerif-6f"/>
      <path d="M 43.015625 63.71875 
L 38.28125 63.71875 
Q 38.234375 67.390625 36.203125 69.28125 
Q 34.1875 71.1875 30.328125 71.1875 
Q 25.296875 71.1875 23.234375 68.421875 
Q 21.1875 65.671875 21.1875 58.59375 
L 21.1875 51.90625 
L 35.6875 51.90625 
L 35.6875 46.6875 
L 21.1875 46.6875 
L 21.1875 5.171875 
L 32.71875 5.171875 
L 32.71875 0 
L 3.609375 0 
L 3.609375 5.171875 
L 12.203125 5.171875 
L 12.203125 46.6875 
L 3.609375 46.6875 
L 3.609375 51.90625 
L 12.203125 51.90625 
L 12.203125 58.40625 
Q 12.203125 67.09375 16.71875 71.53125 
Q 21.234375 75.984375 29.984375 75.984375 
Q 33.25 75.984375 36.515625 75.390625 
Q 39.796875 74.8125 43.015625 73.578125 
z
" id="DejaVuSerif-66"/>
      <path d="M 52.484375 5.171875 
L 61.078125 5.171875 
L 61.078125 0 
L 43.5 0 
L 43.5 8.109375 
Q 40.875 3.21875 36.796875 0.890625 
Q 32.71875 -1.421875 26.703125 -1.421875 
Q 17.140625 -1.421875 11.0625 6.171875 
Q 4.984375 13.765625 4.984375 25.984375 
Q 4.984375 38.1875 11.03125 45.75 
Q 17.09375 53.328125 26.703125 53.328125 
Q 32.71875 53.328125 36.796875 51 
Q 40.875 48.6875 43.5 43.796875 
L 43.5 70.796875 
L 35.015625 70.796875 
L 35.015625 75.984375 
L 52.484375 75.984375 
z
M 43.5 23.390625 
L 43.5 28.515625 
Q 43.5 37.84375 39.90625 42.765625 
Q 36.328125 47.703125 29.5 47.703125 
Q 22.5625 47.703125 19.015625 42.234375 
Q 15.484375 36.765625 15.484375 25.984375 
Q 15.484375 15.234375 19.015625 9.71875 
Q 22.5625 4.203125 29.5 4.203125 
Q 36.328125 4.203125 39.90625 9.109375 
Q 43.5 14.015625 43.5 23.390625 
z
" id="DejaVuSerif-64"/>
      <path d="M 51.421875 15.578125 
Q 49.515625 7.28125 44.09375 2.921875 
Q 38.671875 -1.421875 30.078125 -1.421875 
Q 18.75 -1.421875 11.859375 6.078125 
Q 4.984375 13.578125 4.984375 25.984375 
Q 4.984375 38.421875 11.859375 45.875 
Q 18.75 53.328125 30.078125 53.328125 
Q 35.015625 53.328125 39.890625 52.171875 
Q 44.78125 51.03125 49.703125 48.6875 
L 49.703125 35.40625 
L 44.484375 35.40625 
Q 43.453125 42.234375 40.015625 45.359375 
Q 36.578125 48.484375 30.171875 48.484375 
Q 22.90625 48.484375 19.1875 42.84375 
Q 15.484375 37.203125 15.484375 25.984375 
Q 15.484375 14.75 19.171875 9.078125 
Q 22.859375 3.421875 30.171875 3.421875 
Q 35.984375 3.421875 39.453125 6.4375 
Q 42.921875 9.46875 44.1875 15.578125 
z
" id="DejaVuSerif-63"/>
      <path d="M 39.796875 16.3125 
L 39.796875 27.296875 
L 28.21875 27.296875 
Q 21.53125 27.296875 18.25 24.40625 
Q 14.984375 21.53125 14.984375 15.578125 
Q 14.984375 10.15625 18.296875 6.984375 
Q 21.625 3.8125 27.296875 3.8125 
Q 32.90625 3.8125 36.34375 7.28125 
Q 39.796875 10.75 39.796875 16.3125 
z
M 48.78125 32.421875 
L 48.78125 5.171875 
L 56.78125 5.171875 
L 56.78125 0 
L 39.796875 0 
L 39.796875 5.609375 
Q 36.8125 2 32.90625 0.28125 
Q 29 -1.421875 23.78125 -1.421875 
Q 15.140625 -1.421875 10.0625 3.171875 
Q 4.984375 7.765625 4.984375 15.578125 
Q 4.984375 23.640625 10.796875 28.078125 
Q 16.609375 32.515625 27.203125 32.515625 
L 39.796875 32.515625 
L 39.796875 36.078125 
Q 39.796875 42 36.203125 45.234375 
Q 32.625 48.484375 26.125 48.484375 
Q 20.75 48.484375 17.578125 46.046875 
Q 14.40625 43.609375 13.625 38.8125 
L 8.984375 38.8125 
L 8.984375 49.3125 
Q 13.671875 51.3125 18.09375 52.3125 
Q 22.515625 53.328125 26.703125 53.328125 
Q 37.5 53.328125 43.140625 47.96875 
Q 48.78125 42.625 48.78125 32.421875 
z
" id="DejaVuSerif-61"/>
      <path d="M 5.609375 2.875 
L 5.609375 14.984375 
L 10.796875 14.984375 
Q 10.984375 9.1875 14.421875 6.296875 
Q 17.875 3.421875 24.609375 3.421875 
Q 30.671875 3.421875 33.84375 5.6875 
Q 37.015625 7.953125 37.015625 12.3125 
Q 37.015625 15.71875 34.6875 17.8125 
Q 32.375 19.921875 24.90625 22.3125 
L 18.40625 24.515625 
Q 11.71875 26.65625 8.71875 29.875 
Q 5.71875 33.109375 5.71875 38.09375 
Q 5.71875 45.21875 10.9375 49.265625 
Q 16.15625 53.328125 25.390625 53.328125 
Q 29.5 53.328125 34.03125 52.25 
Q 38.578125 51.171875 43.40625 49.125 
L 43.40625 37.796875 
L 38.234375 37.796875 
Q 38.03125 42.828125 34.703125 45.65625 
Q 31.390625 48.484375 25.6875 48.484375 
Q 20.015625 48.484375 17.109375 46.484375 
Q 14.203125 44.484375 14.203125 40.484375 
Q 14.203125 37.203125 16.40625 35.21875 
Q 18.609375 33.25 25.203125 31.203125 
L 32.328125 29 
Q 39.703125 26.703125 42.9375 23.265625 
Q 46.1875 19.828125 46.1875 14.40625 
Q 46.1875 7.03125 40.546875 2.796875 
Q 34.90625 -1.421875 25 -1.421875 
Q 19.96875 -1.421875 15.1875 -0.34375 
Q 10.40625 0.734375 5.609375 2.875 
z
" id="DejaVuSerif-73"/>
     </defs>
     <g style="fill:#d2d2d2;" transform="translate(236.695781 415.25875)scale(0.18 -0.18)">
      <use xlink:href="#DejaVuSerif-4e"/>
      <use x="87.5" xlink:href="#DejaVuSerif-75"/>
      <use x="151.904297" xlink:href="#DejaVuSerif-6d"/>
      <use x="246.728516" xlink:href="#DejaVuSerif-62"/>
      <use x="310.742188" xlink:href="#DejaVuSerif-65"/>
      <use x="369.921875" xlink:href="#DejaVuSerif-72"/>
      <use x="417.724609" xlink:href="#DejaVuSerif-20"/>
      <use x="449.511719" xlink:href="#DejaVuSerif-6f"/>
      <use x="509.716797" xlink:href="#DejaVuSerif-66"/>
      <use x="546.728516" xlink:href="#DejaVuSerif-20"/>
      <use x="578.515625" xlink:href="#DejaVuSerif-72"/>
      <use x="626.318359" xlink:href="#DejaVuSerif-65"/>
      <use x="685.498047" xlink:href="#DejaVuSerif-64"/>
      <use x="749.511719" xlink:href="#DejaVuSerif-20"/>
      <use x="781.298828" xlink:href="#DejaVuSerif-63"/>
      <use x="837.304688" xlink:href="#DejaVuSerif-61"/>
      <use x="896.923828" xlink:href="#DejaVuSerif-72"/>
      <use x="944.726562" xlink:href="#DejaVuSerif-64"/>
      <use x="1008.740234" xlink:href="#DejaVuSerif-73"/>
     </g>
    </g>
   </g>
   <g id="matplotlib.axis_2">
    <g id="ytick_1">
     <g id="line2d_8">
      <defs>
       <path d="M 0 0 
L -3.5 0 
" id="md6beec4b29" style="stroke:#d2d2d2;stroke-width:0.8;"/>
      </defs>
      <g>
       <use style="fill:#d2d2d2;stroke:#d2d2d2;stroke-width:0.8;" x="81" xlink:href="#md6beec4b29" y="363.172874"/>
      </g>
     </g>
     <g id="text_9">
      <!-- $\mathdefault{0}$ -->
      <g style="fill:#d2d2d2;" transform="translate(67.6 366.972093)scale(0.1 -0.1)">
       <use transform="translate(0 0.78125)" xlink:href="#DejaVuSerif-30"/>
      </g>
     </g>
    </g>
    <g id="ytick_2">
     <g id="line2d_9">
      <g>
       <use style="fill:#d2d2d2;stroke:#d2d2d2;stroke-width:0.8;" x="81" xlink:href="#md6beec4b29" y="323.017708"/>
      </g>
     </g>
     <g id="text_10">
      <!-- $\mathdefault{250}$ -->
      <g style="fill:#d2d2d2;" transform="translate(54.9 326.816926)scale(0.1 -0.1)">
       <use transform="translate(0 0.78125)" xlink:href="#DejaVuSerif-32"/>
       <use transform="translate(63.623047 0.78125)" xlink:href="#DejaVuSerif-35"/>
       <use transform="translate(127.246094 0.78125)" xlink:href="#DejaVuSerif-30"/>
      </g>
     </g>
    </g>
    <g id="ytick_3">
     <g id="line2d_10">
      <g>
       <use style="fill:#d2d2d2;stroke:#d2d2d2;stroke-width:0.8;" x="81" xlink:href="#md6beec4b29" y="282.862541"/>
      </g>
     </g>
     <g id="text_11">
      <!-- $\mathdefault{500}$ -->
      <g style="fill:#d2d2d2;" transform="translate(54.9 286.66176)scale(0.1 -0.1)">
       <use transform="translate(0 0.78125)" xlink:href="#DejaVuSerif-35"/>
       <use transform="translate(63.623047 0.78125)" xlink:href="#DejaVuSerif-30"/>
       <use transform="translate(127.246094 0.78125)" xlink:href="#DejaVuSerif-30"/>
      </g>
     </g>
    </g>
    <g id="ytick_4">
     <g id="line2d_11">
      <g>
       <use style="fill:#d2d2d2;stroke:#d2d2d2;stroke-width:0.8;" x="81" xlink:href="#md6beec4b29" y="242.707375"/>
      </g>
     </g>
     <g id="text_12">
      <!-- $\mathdefault{750}$ -->
      <defs>
       <path d="M 56.390625 67.921875 
L 27.875 0 
L 20.609375 0 
L 47.796875 64.890625 
L 14.109375 64.890625 
L 14.109375 55.90625 
L 8.40625 55.90625 
L 8.40625 72.90625 
L 56.390625 72.90625 
z
" id="DejaVuSerif-37"/>
      </defs>
      <g style="fill:#d2d2d2;" transform="translate(54.9 246.506594)scale(0.1 -0.1)">
       <use transform="translate(0 0.78125)" xlink:href="#DejaVuSerif-37"/>
       <use transform="translate(63.623047 0.78125)" xlink:href="#DejaVuSerif-35"/>
       <use transform="translate(127.246094 0.78125)" xlink:href="#DejaVuSerif-30"/>
      </g>
     </g>
    </g>
    <g id="ytick_5">
     <g id="line2d_12">
      <g>
       <use style="fill:#d2d2d2;stroke:#d2d2d2;stroke-width:0.8;" x="81" xlink:href="#md6beec4b29" y="202.552209"/>
      </g>
     </g>
     <g id="text_13">
      <!-- $\mathdefault{1000}$ -->
      <g style="fill:#d2d2d2;" transform="translate(48.5 206.351428)scale(0.1 -0.1)">
       <use transform="translate(0 0.78125)" xlink:href="#DejaVuSerif-31"/>
       <use transform="translate(63.623047 0.78125)" xlink:href="#DejaVuSerif-30"/>
       <use transform="translate(127.246094 0.78125)" xlink:href="#DejaVuSerif-30"/>
       <use transform="translate(190.869141 0.78125)" xlink:href="#DejaVuSerif-30"/>
      </g>
     </g>
    </g>
    <g id="ytick_6">
     <g id="line2d_13">
      <g>
       <use style="fill:#d2d2d2;stroke:#d2d2d2;stroke-width:0.8;" x="81" xlink:href="#md6beec4b29" y="162.397042"/>
      </g>
     </g>
     <g id="text_14">
      <!-- $\mathdefault{1250}$ -->
      <g style="fill:#d2d2d2;" transform="translate(48.5 166.196261)scale(0.1 -0.1)">
       <use transform="translate(0 0.78125)" xlink:href="#DejaVuSerif-31"/>
       <use transform="translate(63.623047 0.78125)" xlink:href="#DejaVuSerif-32"/>
       <use transform="translate(127.246094 0.78125)" xlink:href="#DejaVuSerif-35"/>
       <use transform="translate(190.869141 0.78125)" xlink:href="#DejaVuSerif-30"/>
      </g>
     </g>
    </g>
    <g id="ytick_7">
     <g id="line2d_14">
      <g>
       <use style="fill:#d2d2d2;stroke:#d2d2d2;stroke-width:0.8;" x="81" xlink:href="#md6beec4b29" y="122.241876"/>
      </g>
     </g>
     <g id="text_15">
      <!-- $\mathdefault{1500}$ -->
      <g style="fill:#d2d2d2;" transform="translate(48.5 126.041095)scale(0.1 -0.1)">
       <use transform="translate(0 0.78125)" xlink:href="#DejaVuSerif-31"/>
       <use transform="translate(63.623047 0.78125)" xlink:href="#DejaVuSerif-35"/>
       <use transform="translate(127.246094 0.78125)" xlink:href="#DejaVuSerif-30"/>
       <use transform="translate(190.869141 0.78125)" xlink:href="#DejaVuSerif-30"/>
      </g>
     </g>
    </g>
    <g id="ytick_8">
     <g id="line2d_15">
      <g>
       <use style="fill:#d2d2d2;stroke:#d2d2d2;stroke-width:0.8;" x="81" xlink:href="#md6beec4b29" y="82.08671"/>
      </g>
     </g>
     <g id="text_16">
      <!-- $\mathdefault{1750}$ -->
      <g style="fill:#d2d2d2;" transform="translate(48.5 85.885929)scale(0.1 -0.1)">
       <use transform="translate(0 0.78125)" xlink:href="#DejaVuSerif-31"/>
       <use transform="translate(63.623047 0.78125)" xlink:href="#DejaVuSerif-37"/>
       <use transform="translate(127.246094 0.78125)" xlink:href="#DejaVuSerif-35"/>
       <use transform="translate(190.869141 0.78125)" xlink:href="#DejaVuSerif-30"/>
      </g>
     </g>
    </g>
    <g id="text_17">
     <!-- Count -->
     <defs>
      <path d="M 70.515625 19.28125 
Q 67.28125 9.078125 59.6875 3.828125 
Q 52.09375 -1.421875 40.484375 -1.421875 
Q 33.34375 -1.421875 27.234375 1.015625 
Q 21.140625 3.46875 16.40625 8.203125 
Q 10.9375 13.671875 8.265625 20.625 
Q 5.609375 27.59375 5.609375 36.375 
Q 5.609375 53.375 15.421875 63.796875 
Q 25.25 74.21875 41.3125 74.21875 
Q 47.265625 74.21875 54 72.65625 
Q 60.75 71.09375 68.5 67.921875 
L 68.5 51.125 
L 62.984375 51.125 
Q 61.1875 60.296875 55.734375 64.640625 
Q 50.296875 69 40.484375 69 
Q 28.8125 69 22.796875 60.71875 
Q 16.796875 52.4375 16.796875 36.375 
Q 16.796875 20.359375 22.796875 12.078125 
Q 28.8125 3.8125 40.484375 3.8125 
Q 48.640625 3.8125 53.90625 7.6875 
Q 59.1875 11.578125 61.53125 19.28125 
z
" id="DejaVuSerif-43"/>
      <path d="M 4.109375 0 
L 4.109375 5.171875 
L 12.203125 5.171875 
L 12.203125 46.6875 
L 3.609375 46.6875 
L 3.609375 51.90625 
L 21.1875 51.90625 
L 21.1875 42.671875 
Q 23.6875 47.953125 27.65625 50.640625 
Q 31.640625 53.328125 36.921875 53.328125 
Q 45.515625 53.328125 49.5625 48.390625 
Q 53.609375 43.453125 53.609375 33.015625 
L 53.609375 5.171875 
L 61.625 5.171875 
L 61.625 0 
L 36.8125 0 
L 36.8125 5.171875 
L 44.578125 5.171875 
L 44.578125 30.171875 
Q 44.578125 39.703125 42.234375 43.234375 
Q 39.890625 46.78125 33.984375 46.78125 
Q 27.734375 46.78125 24.453125 42.203125 
Q 21.1875 37.640625 21.1875 28.90625 
L 21.1875 5.171875 
L 29 5.171875 
L 29 0 
z
" id="DejaVuSerif-6e"/>
      <path d="M 10.796875 46.6875 
L 2.875 46.6875 
L 2.875 51.90625 
L 10.796875 51.90625 
L 10.796875 68.015625 
L 19.828125 68.015625 
L 19.828125 51.90625 
L 36.71875 51.90625 
L 36.71875 46.6875 
L 19.828125 46.6875 
L 19.828125 13.71875 
Q 19.828125 7.125 21.09375 5.265625 
Q 22.359375 3.421875 25.78125 3.421875 
Q 29.296875 3.421875 30.90625 5.484375 
Q 32.515625 7.5625 32.625 12.203125 
L 39.40625 12.203125 
Q 39.015625 5.125 35.546875 1.84375 
Q 32.078125 -1.421875 25 -1.421875 
Q 17.234375 -1.421875 14.015625 2.015625 
Q 10.796875 5.46875 10.796875 13.71875 
z
" id="DejaVuSerif-74"/>
     </defs>
     <g style="fill:#d2d2d2;" transform="translate(40.756563 242.434687)rotate(-90)scale(0.18 -0.18)">
      <use xlink:href="#DejaVuSerif-43"/>
      <use x="76.513672" xlink:href="#DejaVuSerif-6f"/>
      <use x="136.71875" xlink:href="#DejaVuSerif-75"/>
      <use x="201.123047" xlink:href="#DejaVuSerif-6e"/>
      <use x="265.527344" xlink:href="#DejaVuSerif-74"/>
     </g>
    </g>
   </g>
   <g id="LineCollection_1">
    <path clip-path="url(#p61ed1db9a8)" d="M 103.989555 363.172874 
L 103.989555 354.338737 
" style="fill:none;stroke:#fff8d0;stroke-width:2;"/>
    <path clip-path="url(#p61ed1db9a8)" d="M 128.001181 363.172874 
L 128.001181 309.20433 
" style="fill:none;stroke:#fff8d0;stroke-width:2;"/>
    <path clip-path="url(#p61ed1db9a8)" d="M 152.012807 363.172874 
L 152.012807 227.609033 
" style="fill:none;stroke:#fff8d0;stroke-width:2;"/>
    <path clip-path="url(#p61ed1db9a8)" d="M 176.024432 363.172874 
L 176.024432 147.780562 
" style="fill:none;stroke:#fff8d0;stroke-width:2;"/>
    <path clip-path="url(#p61ed1db9a8)" d="M 200.036058 363.172874 
L 200.036058 80.962365 
" style="fill:none;stroke:#fff8d0;stroke-width:2;"/>
    <path clip-path="url(#p61ed1db9a8)" d="M 224.047684 363.172874 
L 224.047684 66.667126 
" style="fill:none;stroke:#fff8d0;stroke-width:2;"/>
    <path clip-path="url(#p61ed1db9a8)" d="M 248.05931 363.172874 
L 248.05931 129.630427 
" style="fill:none;stroke:#fff8d0;stroke-width:2;"/>
    <path clip-path="url(#p61ed1db9a8)" d="M 272.070936 363.172874 
L 272.070936 191.469383 
" style="fill:none;stroke:#fff8d0;stroke-width:2;"/>
    <path clip-path="url(#p61ed1db9a8)" d="M 296.082561 363.172874 
L 296.082561 255.557028 
" style="fill:none;stroke:#fff8d0;stroke-width:2;"/>
    <path clip-path="url(#p61ed1db9a8)" d="M 320.094187 363.172874 
L 320.094187 310.971158 
" style="fill:none;stroke:#fff8d0;stroke-width:2;"/>
    <path clip-path="url(#p61ed1db9a8)" d="M 344.105813 363.172874 
L 344.105813 335.224878 
" style="fill:none;stroke:#fff8d0;stroke-width:2;"/>
    <path clip-path="url(#p61ed1db9a8)" d="M 368.117439 363.172874 
L 368.117439 350.805083 
" style="fill:none;stroke:#fff8d0;stroke-width:2;"/>
    <path clip-path="url(#p61ed1db9a8)" d="M 392.129064 363.172874 
L 392.129064 356.908668 
" style="fill:none;stroke:#fff8d0;stroke-width:2;"/>
    <path clip-path="url(#p61ed1db9a8)" d="M 416.14069 363.172874 
L 416.14069 361.727288 
" style="fill:none;stroke:#fff8d0;stroke-width:2;"/>
    <path clip-path="url(#p61ed1db9a8)" d="M 440.152316 363.172874 
L 440.152316 362.691012 
" style="fill:none;stroke:#fff8d0;stroke-width:2;"/>
    <path clip-path="url(#p61ed1db9a8)" d="M 464.163942 363.172874 
L 464.163942 363.012253 
" style="fill:none;stroke:#fff8d0;stroke-width:2;"/>
    <path clip-path="url(#p61ed1db9a8)" d="M 488.175568 363.172874 
L 488.175568 363.172874 
" style="fill:none;stroke:#fff8d0;stroke-width:2;"/>
    <path clip-path="url(#p61ed1db9a8)" d="M 512.187193 363.172874 
L 512.187193 363.172874 
" style="fill:none;stroke:#fff8d0;stroke-width:2;"/>
    <path clip-path="url(#p61ed1db9a8)" d="M 536.198819 363.172874 
L 536.198819 363.172874 
" style="fill:none;stroke:#fff8d0;stroke-width:2;"/>
    <path clip-path="url(#p61ed1db9a8)" d="M 560.210445 363.172874 
L 560.210445 363.172874 
" style="fill:none;stroke:#fff8d0;stroke-width:2;"/>
   </g>
   <g id="patch_3">
    <path d="M 81 378 
L 81 51.84 
" style="fill:none;stroke:#d2d2d2;stroke-linecap:square;stroke-linejoin:miter;stroke-width:1.5;"/>
   </g>
   <g id="patch_4">
    <path d="M 81 378 
L 583.2 378 
" style="fill:none;stroke:#d2d2d2;stroke-linecap:square;stroke-linejoin:miter;stroke-width:1.5;"/>
   </g>
   <g id="text_18">
    <!-- Bootstrap PDD of $\frac{5}{100}$ red cards -->
    <defs>
     <path d="M 24.703125 5.171875 
L 39.3125 5.171875 
Q 48.09375 5.171875 52.140625 8.984375 
Q 56.203125 12.796875 56.203125 21.09375 
Q 56.203125 29.34375 52.171875 33.125 
Q 48.140625 36.921875 39.3125 36.921875 
L 24.703125 36.921875 
z
M 24.703125 42.09375 
L 37.109375 42.09375 
Q 45.125 42.09375 48.796875 45.171875 
Q 52.484375 48.25 52.484375 54.890625 
Q 52.484375 61.578125 48.796875 64.625 
Q 45.125 67.671875 37.109375 67.671875 
L 24.703125 67.671875 
z
M 5.515625 0 
L 5.515625 5.171875 
L 14.796875 5.171875 
L 14.796875 67.671875 
L 5.515625 67.671875 
L 5.515625 72.90625 
L 41.5 72.90625 
Q 52.546875 72.90625 58.125 68.390625 
Q 63.71875 63.875 63.71875 54.890625 
Q 63.71875 48.390625 59.828125 44.53125 
Q 55.953125 40.671875 48.484375 39.796875 
Q 57.765625 38.625 62.578125 33.859375 
Q 67.390625 29.109375 67.390625 21.09375 
Q 67.390625 10.25 60.546875 5.125 
Q 53.71875 0 39.203125 0 
z
" id="DejaVuSerif-42"/>
     <path d="M 20.515625 28.515625 
L 20.515625 23.390625 
Q 20.515625 14.015625 24.09375 9.109375 
Q 27.6875 4.203125 34.515625 4.203125 
Q 41.40625 4.203125 44.9375 9.71875 
Q 48.484375 15.234375 48.484375 25.984375 
Q 48.484375 36.765625 44.9375 42.234375 
Q 41.40625 47.703125 34.515625 47.703125 
Q 27.6875 47.703125 24.09375 42.765625 
Q 20.515625 37.84375 20.515625 28.515625 
z
M 11.53125 46.6875 
L 2.875 46.6875 
L 2.875 51.90625 
L 20.515625 51.90625 
L 20.515625 43.796875 
Q 23.140625 48.6875 27.21875 51 
Q 31.296875 53.328125 37.3125 53.328125 
Q 46.875 53.328125 52.921875 45.75 
Q 58.984375 38.1875 58.984375 25.984375 
Q 58.984375 13.765625 52.921875 6.171875 
Q 46.875 -1.421875 37.3125 -1.421875 
Q 31.296875 -1.421875 27.21875 0.890625 
Q 23.140625 3.21875 20.515625 8.109375 
L 20.515625 -15.578125 
L 29 -15.578125 
L 29 -20.796875 
L 2.875 -20.796875 
L 2.875 -15.578125 
L 11.53125 -15.578125 
z
" id="DejaVuSerif-70"/>
     <path d="M 24.703125 37.109375 
L 37.59375 37.109375 
Q 44.875 37.109375 48.671875 41.03125 
Q 52.484375 44.96875 52.484375 52.390625 
Q 52.484375 59.859375 48.671875 63.765625 
Q 44.875 67.671875 37.59375 67.671875 
L 24.703125 67.671875 
z
M 5.515625 0 
L 5.515625 5.171875 
L 14.796875 5.171875 
L 14.796875 67.671875 
L 5.515625 67.671875 
L 5.515625 72.90625 
L 39.984375 72.90625 
Q 50.921875 72.90625 57.3125 67.359375 
Q 63.71875 61.8125 63.71875 52.390625 
Q 63.71875 43.015625 57.3125 37.453125 
Q 50.921875 31.890625 39.984375 31.890625 
L 24.703125 31.890625 
L 24.703125 5.171875 
L 35.984375 5.171875 
L 35.984375 0 
z
" id="DejaVuSerif-50"/>
     <path d="M 24.703125 5.171875 
L 33.796875 5.171875 
Q 48 5.171875 55.59375 13.28125 
Q 63.1875 21.390625 63.1875 36.53125 
Q 63.1875 51.65625 55.609375 59.65625 
Q 48.046875 67.671875 33.796875 67.671875 
L 24.703125 67.671875 
z
M 5.515625 0 
L 5.515625 5.171875 
L 14.796875 5.171875 
L 14.796875 67.671875 
L 5.515625 67.671875 
L 5.515625 72.90625 
L 34.515625 72.90625 
Q 53.375 72.90625 63.890625 63.28125 
Q 74.421875 53.65625 74.421875 36.53125 
Q 74.421875 19.34375 63.875 9.671875 
Q 53.328125 0 34.515625 0 
z
" id="DejaVuSerif-44"/>
     <path d="M 10.796875 72.90625 
L 49.515625 72.90625 
L 49.515625 64.59375 
L 19.828125 64.59375 
L 19.828125 46.734375 
Q 21.96875 47.46875 24.109375 47.828125 
Q 26.265625 48.1875 28.421875 48.1875 
Q 40.625 48.1875 47.75 41.5 
Q 54.890625 34.8125 54.890625 23.390625 
Q 54.890625 11.625 47.5625 5.09375 
Q 40.234375 -1.421875 26.90625 -1.421875 
Q 22.3125 -1.421875 17.546875 -0.640625 
Q 12.796875 0.140625 7.71875 1.703125 
L 7.71875 11.625 
Q 12.109375 9.234375 16.796875 8.0625 
Q 21.484375 6.890625 26.703125 6.890625 
Q 35.15625 6.890625 40.078125 11.328125 
Q 45.015625 15.765625 45.015625 23.390625 
Q 45.015625 31 40.078125 35.4375 
Q 35.15625 39.890625 26.703125 39.890625 
Q 22.75 39.890625 18.8125 39.015625 
Q 14.890625 38.140625 10.796875 36.28125 
z
" id="DejaVuSans-35"/>
     <path d="M 12.40625 8.296875 
L 28.515625 8.296875 
L 28.515625 63.921875 
L 10.984375 60.40625 
L 10.984375 69.390625 
L 28.421875 72.90625 
L 38.28125 72.90625 
L 38.28125 8.296875 
L 54.390625 8.296875 
L 54.390625 0 
L 12.40625 0 
z
" id="DejaVuSans-31"/>
     <path d="M 31.78125 66.40625 
Q 24.171875 66.40625 20.328125 58.90625 
Q 16.5 51.421875 16.5 36.375 
Q 16.5 21.390625 20.328125 13.890625 
Q 24.171875 6.390625 31.78125 6.390625 
Q 39.453125 6.390625 43.28125 13.890625 
Q 47.125 21.390625 47.125 36.375 
Q 47.125 51.421875 43.28125 58.90625 
Q 39.453125 66.40625 31.78125 66.40625 
z
M 31.78125 74.21875 
Q 44.046875 74.21875 50.515625 64.515625 
Q 56.984375 54.828125 56.984375 36.375 
Q 56.984375 17.96875 50.515625 8.265625 
Q 44.046875 -1.421875 31.78125 -1.421875 
Q 19.53125 -1.421875 13.0625 8.265625 
Q 6.59375 17.96875 6.59375 36.375 
Q 6.59375 54.828125 13.0625 64.515625 
Q 19.53125 74.21875 31.78125 74.21875 
z
" id="DejaVuSans-30"/>
    </defs>
    <g style="fill:#d2d2d2;" transform="translate(237.48 45.84)scale(0.12 -0.12)">
     <use transform="translate(0 0.173438)" xlink:href="#DejaVuSerif-42"/>
     <use transform="translate(73.486328 0.173438)" xlink:href="#DejaVuSerif-6f"/>
     <use transform="translate(133.691406 0.173438)" xlink:href="#DejaVuSerif-6f"/>
     <use transform="translate(193.896484 0.173438)" xlink:href="#DejaVuSerif-74"/>
     <use transform="translate(234.082031 0.173438)" xlink:href="#DejaVuSerif-73"/>
     <use transform="translate(285.400391 0.173438)" xlink:href="#DejaVuSerif-74"/>
     <use transform="translate(325.585938 0.173438)" xlink:href="#DejaVuSerif-72"/>
     <use transform="translate(373.388672 0.173438)" xlink:href="#DejaVuSerif-61"/>
     <use transform="translate(433.007812 0.173438)" xlink:href="#DejaVuSerif-70"/>
     <use transform="translate(497.021484 0.173438)" xlink:href="#DejaVuSerif-20"/>
     <use transform="translate(528.808594 0.173438)" xlink:href="#DejaVuSerif-50"/>
     <use transform="translate(596.09375 0.173438)" xlink:href="#DejaVuSerif-44"/>
     <use transform="translate(676.269531 0.173438)" xlink:href="#DejaVuSerif-44"/>
     <use transform="translate(756.445312 0.173438)" xlink:href="#DejaVuSerif-20"/>
     <use transform="translate(788.232422 0.173438)" xlink:href="#DejaVuSerif-6f"/>
     <use transform="translate(848.4375 0.173438)" xlink:href="#DejaVuSerif-66"/>
     <use transform="translate(885.449219 0.173438)" xlink:href="#DejaVuSerif-20"/>
     <use transform="translate(962.236328 44.965625)scale(0.7)" xlink:href="#DejaVuSans-35"/>
     <use transform="translate(917.236328 -39.232812)scale(0.7)" xlink:href="#DejaVuSans-31"/>
     <use transform="translate(961.772461 -39.232812)scale(0.7)" xlink:href="#DejaVuSans-30"/>
     <use transform="translate(1006.308594 -39.232812)scale(0.7)" xlink:href="#DejaVuSans-30"/>
     <use transform="translate(1063.344727 0.173438)" xlink:href="#DejaVuSerif-20"/>
     <use transform="translate(1095.131836 0.173438)" xlink:href="#DejaVuSerif-72"/>
     <use transform="translate(1142.93457 0.173438)" xlink:href="#DejaVuSerif-65"/>
     <use transform="translate(1202.114258 0.173438)" xlink:href="#DejaVuSerif-64"/>
     <use transform="translate(1266.12793 0.173438)" xlink:href="#DejaVuSerif-20"/>
     <use transform="translate(1297.915039 0.173438)" xlink:href="#DejaVuSerif-63"/>
     <use transform="translate(1353.920898 0.173438)" xlink:href="#DejaVuSerif-61"/>
     <use transform="translate(1413.540039 0.173438)" xlink:href="#DejaVuSerif-72"/>
     <use transform="translate(1461.342773 0.173438)" xlink:href="#DejaVuSerif-64"/>
     <use transform="translate(1525.356445 0.173438)" xlink:href="#DejaVuSerif-73"/>
     <path d="M 917.236328 18.970313 
L 917.236328 25.220313 
L 1050.844727 25.220313 
L 1050.844727 18.970313 
L 917.236328 18.970313 
z
"/>
    </g>
   </g>
   <g id="PathCollection_1">
    <defs>
     <path d="M 0 7.071068 
C 1.875269 7.071068 3.673985 6.326016 5 5 
C 6.326016 3.673985 7.071068 1.875269 7.071068 0 
C 7.071068 -1.875269 6.326016 -3.673985 5 -5 
C 3.673985 -6.326016 1.875269 -7.071068 0 -7.071068 
C -1.875269 -7.071068 -3.673985 -6.326016 -5 -5 
C -6.326016 -3.673985 -7.071068 -1.875269 -7.071068 0 
C -7.071068 1.875269 -6.326016 3.673985 -5 5 
C -3.673985 6.326016 -1.875269 7.071068 0 7.071068 
z
" id="mf542cda7f5" style="stroke:#e04b4b;"/>
    </defs>
    <g clip-path="url(#p61ed1db9a8)">
     <use style="fill:#e04b4b;stroke:#e04b4b;" x="103.989555" xlink:href="#mf542cda7f5" y="354.338737"/>
     <use style="fill:#e04b4b;stroke:#e04b4b;" x="128.001181" xlink:href="#mf542cda7f5" y="309.20433"/>
     <use style="fill:#e04b4b;stroke:#e04b4b;" x="152.012807" xlink:href="#mf542cda7f5" y="227.609033"/>
     <use style="fill:#e04b4b;stroke:#e04b4b;" x="176.024432" xlink:href="#mf542cda7f5" y="147.780562"/>
     <use style="fill:#e04b4b;stroke:#e04b4b;" x="200.036058" xlink:href="#mf542cda7f5" y="80.962365"/>
     <use style="fill:#e04b4b;stroke:#e04b4b;" x="224.047684" xlink:href="#mf542cda7f5" y="66.667126"/>
     <use style="fill:#e04b4b;stroke:#e04b4b;" x="248.05931" xlink:href="#mf542cda7f5" y="129.630427"/>
     <use style="fill:#e04b4b;stroke:#e04b4b;" x="272.070936" xlink:href="#mf542cda7f5" y="191.469383"/>
     <use style="fill:#e04b4b;stroke:#e04b4b;" x="296.082561" xlink:href="#mf542cda7f5" y="255.557028"/>
     <use style="fill:#e04b4b;stroke:#e04b4b;" x="320.094187" xlink:href="#mf542cda7f5" y="310.971158"/>
     <use style="fill:#e04b4b;stroke:#e04b4b;" x="344.105813" xlink:href="#mf542cda7f5" y="335.224878"/>
     <use style="fill:#e04b4b;stroke:#e04b4b;" x="368.117439" xlink:href="#mf542cda7f5" y="350.805083"/>
     <use style="fill:#e04b4b;stroke:#e04b4b;" x="392.129064" xlink:href="#mf542cda7f5" y="356.908668"/>
     <use style="fill:#e04b4b;stroke:#e04b4b;" x="416.14069" xlink:href="#mf542cda7f5" y="361.727288"/>
     <use style="fill:#e04b4b;stroke:#e04b4b;" x="440.152316" xlink:href="#mf542cda7f5" y="362.691012"/>
     <use style="fill:#e04b4b;stroke:#e04b4b;" x="464.163942" xlink:href="#mf542cda7f5" y="363.012253"/>
     <use style="fill:#e04b4b;stroke:#e04b4b;" x="488.175568" xlink:href="#mf542cda7f5" y="363.172874"/>
     <use style="fill:#e04b4b;stroke:#e04b4b;" x="512.187193" xlink:href="#mf542cda7f5" y="363.172874"/>
     <use style="fill:#e04b4b;stroke:#e04b4b;" x="536.198819" xlink:href="#mf542cda7f5" y="363.172874"/>
     <use style="fill:#e04b4b;stroke:#e04b4b;" x="560.210445" xlink:href="#mf542cda7f5" y="363.172874"/>
    </g>
   </g>
  </g>
 </g>
 <defs>
  <clipPath id="p61ed1db9a8">
   <rect height="326.16" width="502.2" x="81" y="51.84"/>
  </clipPath>
 </defs>
</svg>
