<?xml version="1.0" encoding="utf-8" standalone="no"?>
<!DOCTYPE svg PUBLIC "-//W3C//DTD SVG 1.1//EN"
  "http://www.w3.org/Graphics/SVG/1.1/DTD/svg11.dtd">
<!-- Created with matplotlib (http://matplotlib.org/) -->
<svg height="324pt" version="1.1" viewBox="0 0 432 324" width="432pt" xmlns="http://www.w3.org/2000/svg" xmlns:xlink="http://www.w3.org/1999/xlink">
 <defs>
  <style type="text/css">
*{stroke-linecap:butt;stroke-linejoin:round;}
  </style>
 </defs>
 <g id="figure_1">
  <g id="patch_1">
   <path d="M 0 324 
L 432 324 
L 432 0 
L 0 0 
z
" style="fill:none;"/>
  </g>
  <g id="axes_1">
   <g id="patch_2">
    <path d="M 43.26875 126.85 
L 190.85 126.85 
L 190.85 15.3 
L 43.26875 15.3 
z
" style="fill:none;"/>
   </g>
   <g id="matplotlib.axis_1">
    <g id="xtick_1">
     <g id="line2d_1">
      <defs>
       <path d="M 0 0 
L 0 6 
" id="m08f5225ae4" style="stroke:#d2d2d2;"/>
      </defs>
      <g>
       <use style="fill:#d2d2d2;stroke:#d2d2d2;" x="43.26875" xlink:href="#m08f5225ae4" y="126.85"/>
      </g>
     </g>
     <g id="text_1">
      <!-- 0 -->
      <defs>
       <path d="M 31.78125 3.421875 
Q 39.265625 3.421875 42.96875 11.625 
Q 46.6875 19.828125 46.6875 36.375 
Q 46.6875 52.984375 42.96875 61.1875 
Q 39.265625 69.390625 31.78125 69.390625 
Q 24.3125 69.390625 20.59375 61.1875 
Q 16.890625 52.984375 16.890625 36.375 
Q 16.890625 19.828125 20.59375 11.625 
Q 24.3125 3.421875 31.78125 3.421875 
z
M 31.78125 -1.421875 
Q 19.921875 -1.421875 13.25 8.53125 
Q 6.59375 18.5 6.59375 36.375 
Q 6.59375 54.296875 13.25 64.25 
Q 19.921875 74.21875 31.78125 74.21875 
Q 43.703125 74.21875 50.34375 64.25 
Q 56.984375 54.296875 56.984375 36.375 
Q 56.984375 18.5 50.34375 8.53125 
Q 43.703125 -1.421875 31.78125 -1.421875 
z
" id="DejaVuSerif-30"/>
      </defs>
      <g style="fill:#d2d2d2;" transform="translate(40.72375 142.42875)scale(0.08 -0.08)">
       <use xlink:href="#DejaVuSerif-30"/>
      </g>
     </g>
    </g>
    <g id="xtick_2">
     <g id="line2d_2">
      <g>
       <use style="fill:#d2d2d2;stroke:#d2d2d2;" x="65.405938" xlink:href="#m08f5225ae4" y="126.85"/>
      </g>
     </g>
     <g id="text_2">
      <!-- 3 -->
      <defs>
       <path d="M 9.71875 69.828125 
Q 15.4375 71.96875 20.671875 73.09375 
Q 25.921875 74.21875 30.515625 74.21875 
Q 41.21875 74.21875 47.21875 69.59375 
Q 53.21875 64.984375 53.21875 56.78125 
Q 53.21875 50.203125 49.0625 45.78125 
Q 44.921875 41.359375 37.3125 39.796875 
Q 46.296875 38.53125 51.25 33.28125 
Q 56.203125 28.03125 56.203125 19.671875 
Q 56.203125 9.46875 49.34375 4.015625 
Q 42.484375 -1.421875 29.59375 -1.421875 
Q 23.875 -1.421875 18.421875 -0.1875 
Q 12.984375 1.03125 7.625 3.515625 
L 7.625 17.671875 
L 13.09375 17.671875 
Q 13.578125 10.640625 17.828125 7.03125 
Q 22.078125 3.421875 29.78125 3.421875 
Q 37.25 3.421875 41.578125 7.734375 
Q 45.90625 12.0625 45.90625 19.578125 
Q 45.90625 28.171875 41.453125 32.59375 
Q 37.015625 37.015625 28.421875 37.015625 
L 23.78125 37.015625 
L 23.78125 42 
L 26.21875 42 
Q 34.765625 42 39.03125 45.53125 
Q 43.3125 49.078125 43.3125 56.203125 
Q 43.3125 62.59375 39.796875 65.984375 
Q 36.28125 69.390625 29.6875 69.390625 
Q 23.09375 69.390625 19.453125 66.265625 
Q 15.828125 63.140625 15.1875 56.984375 
L 9.71875 56.984375 
z
" id="DejaVuSerif-33"/>
      </defs>
      <g style="fill:#d2d2d2;" transform="translate(62.860938 142.42875)scale(0.08 -0.08)">
       <use xlink:href="#DejaVuSerif-33"/>
      </g>
     </g>
    </g>
    <g id="xtick_3">
     <g id="line2d_3">
      <g>
       <use style="fill:#d2d2d2;stroke:#d2d2d2;" x="87.543125" xlink:href="#m08f5225ae4" y="126.85"/>
      </g>
     </g>
     <g id="text_3">
      <!-- 6 -->
      <defs>
       <path d="M 32.71875 3.421875 
Q 39.59375 3.421875 43.296875 8.46875 
Q 47.015625 13.53125 47.015625 23 
Q 47.015625 32.46875 43.296875 37.515625 
Q 39.59375 42.578125 32.71875 42.578125 
Q 25.734375 42.578125 22.0625 37.6875 
Q 18.40625 32.8125 18.40625 23.578125 
Q 18.40625 13.875 22.109375 8.640625 
Q 25.828125 3.421875 32.71875 3.421875 
z
M 16.796875 40.140625 
Q 20.125 43.796875 24.3125 45.59375 
Q 28.515625 47.40625 33.796875 47.40625 
Q 44.671875 47.40625 51 40.859375 
Q 57.328125 34.328125 57.328125 23 
Q 57.328125 11.921875 50.515625 5.25 
Q 43.703125 -1.421875 32.328125 -1.421875 
Q 19.96875 -1.421875 13.328125 7.78125 
Q 6.6875 17 6.6875 34.078125 
Q 6.6875 53.21875 14.546875 63.71875 
Q 22.40625 74.21875 36.71875 74.21875 
Q 40.578125 74.21875 44.828125 73.484375 
Q 49.078125 72.75 53.515625 71.296875 
L 53.515625 59.28125 
L 48 59.28125 
Q 47.40625 64.203125 44.234375 66.796875 
Q 41.0625 69.390625 35.6875 69.390625 
Q 26.21875 69.390625 21.578125 62.203125 
Q 16.9375 55.03125 16.796875 40.140625 
z
" id="DejaVuSerif-36"/>
      </defs>
      <g style="fill:#d2d2d2;" transform="translate(84.998125 142.42875)scale(0.08 -0.08)">
       <use xlink:href="#DejaVuSerif-36"/>
      </g>
     </g>
    </g>
    <g id="xtick_4">
     <g id="line2d_4">
      <g>
       <use style="fill:#d2d2d2;stroke:#d2d2d2;" x="109.680313" xlink:href="#m08f5225ae4" y="126.85"/>
      </g>
     </g>
     <g id="text_4">
      <!-- 9 -->
      <defs>
       <path d="M 46.78125 32.671875 
Q 43.5 29 39.25 27.1875 
Q 35.015625 25.390625 29.6875 25.390625 
Q 18.84375 25.390625 12.5625 31.9375 
Q 6.296875 38.484375 6.296875 49.8125 
Q 6.296875 60.890625 13.109375 67.546875 
Q 19.921875 74.21875 31.296875 74.21875 
Q 43.65625 74.21875 50.265625 65.015625 
Q 56.890625 55.8125 56.890625 38.71875 
Q 56.890625 19.578125 49.015625 9.078125 
Q 41.15625 -1.421875 26.90625 -1.421875 
Q 23.046875 -1.421875 18.796875 -0.6875 
Q 14.546875 0.046875 10.109375 1.515625 
L 10.109375 13.625 
L 15.578125 13.625 
Q 16.21875 8.6875 19.390625 6.046875 
Q 22.5625 3.421875 27.875 3.421875 
Q 37.359375 3.421875 41.984375 10.5625 
Q 46.625 17.71875 46.78125 32.671875 
z
M 30.90625 69.390625 
Q 23.96875 69.390625 20.28125 64.328125 
Q 16.609375 59.28125 16.609375 49.8125 
Q 16.609375 40.328125 20.28125 35.25 
Q 23.96875 30.171875 30.90625 30.171875 
Q 37.84375 30.171875 41.53125 35.078125 
Q 45.21875 39.984375 45.21875 49.21875 
Q 45.21875 58.9375 41.5 64.15625 
Q 37.796875 69.390625 30.90625 69.390625 
z
" id="DejaVuSerif-39"/>
      </defs>
      <g style="fill:#d2d2d2;" transform="translate(107.135313 142.42875)scale(0.08 -0.08)">
       <use xlink:href="#DejaVuSerif-39"/>
      </g>
     </g>
    </g>
    <g id="xtick_5">
     <g id="line2d_5">
      <g>
       <use style="fill:#d2d2d2;stroke:#d2d2d2;" x="131.8175" xlink:href="#m08f5225ae4" y="126.85"/>
      </g>
     </g>
     <g id="text_5">
      <!-- 12 -->
      <defs>
       <path d="M 14.203125 0 
L 14.203125 5.171875 
L 26.90625 5.171875 
L 26.90625 65.828125 
L 12.203125 56.296875 
L 12.203125 62.703125 
L 29.984375 74.21875 
L 36.71875 74.21875 
L 36.71875 5.171875 
L 49.421875 5.171875 
L 49.421875 0 
z
" id="DejaVuSerif-31"/>
       <path d="M 12.796875 55.515625 
L 7.328125 55.515625 
L 7.328125 68.5 
Q 12.546875 71.296875 17.84375 72.75 
Q 23.140625 74.21875 28.21875 74.21875 
Q 39.59375 74.21875 46.1875 68.703125 
Q 52.78125 63.1875 52.78125 53.71875 
Q 52.78125 43.015625 37.84375 28.125 
Q 36.671875 27 36.078125 26.421875 
L 17.671875 8.015625 
L 48.09375 8.015625 
L 48.09375 17 
L 53.8125 17 
L 53.8125 0 
L 6.78125 0 
L 6.78125 5.328125 
L 28.90625 27.390625 
Q 36.234375 34.71875 39.359375 40.84375 
Q 42.484375 46.96875 42.484375 53.71875 
Q 42.484375 61.078125 38.640625 65.234375 
Q 34.8125 69.390625 28.078125 69.390625 
Q 21.09375 69.390625 17.28125 65.921875 
Q 13.484375 62.453125 12.796875 55.515625 
z
" id="DejaVuSerif-32"/>
      </defs>
      <g style="fill:#d2d2d2;" transform="translate(126.7275 142.42875)scale(0.08 -0.08)">
       <use xlink:href="#DejaVuSerif-31"/>
       <use x="63.623047" xlink:href="#DejaVuSerif-32"/>
      </g>
     </g>
    </g>
    <g id="xtick_6">
     <g id="line2d_6">
      <g>
       <use style="fill:#d2d2d2;stroke:#d2d2d2;" x="153.954688" xlink:href="#m08f5225ae4" y="126.85"/>
      </g>
     </g>
     <g id="text_6">
      <!-- 15 -->
      <defs>
       <path d="M 50.296875 72.90625 
L 50.296875 64.890625 
L 16.890625 64.890625 
L 16.890625 44 
Q 19.4375 45.75 22.828125 46.625 
Q 26.21875 47.515625 30.421875 47.515625 
Q 42.234375 47.515625 49.0625 40.96875 
Q 55.90625 34.421875 55.90625 23.09375 
Q 55.90625 11.53125 49 5.046875 
Q 42.09375 -1.421875 29.59375 -1.421875 
Q 24.5625 -1.421875 19.28125 -0.1875 
Q 14.015625 1.03125 8.5 3.515625 
L 8.5 17.671875 
L 14.015625 17.671875 
Q 14.453125 10.75 18.421875 7.078125 
Q 22.40625 3.421875 29.59375 3.421875 
Q 37.3125 3.421875 41.453125 8.5 
Q 45.609375 13.578125 45.609375 23.09375 
Q 45.609375 32.5625 41.484375 37.609375 
Q 37.359375 42.671875 29.59375 42.671875 
Q 25.203125 42.671875 21.84375 41.109375 
Q 18.5 39.546875 15.921875 36.28125 
L 11.71875 36.28125 
L 11.71875 72.90625 
z
" id="DejaVuSerif-35"/>
      </defs>
      <g style="fill:#d2d2d2;" transform="translate(148.864688 142.42875)scale(0.08 -0.08)">
       <use xlink:href="#DejaVuSerif-31"/>
       <use x="63.623047" xlink:href="#DejaVuSerif-35"/>
      </g>
     </g>
    </g>
    <g id="xtick_7">
     <g id="line2d_7">
      <g>
       <use style="fill:#d2d2d2;stroke:#d2d2d2;" x="176.091875" xlink:href="#m08f5225ae4" y="126.85"/>
      </g>
     </g>
     <g id="text_7">
      <!-- 18 -->
      <defs>
       <path d="M 46.578125 19.921875 
Q 46.578125 27.734375 42.6875 32.046875 
Q 38.8125 36.375 31.78125 36.375 
Q 24.75 36.375 20.875 32.046875 
Q 17 27.734375 17 19.921875 
Q 17 12.0625 20.875 7.734375 
Q 24.75 3.421875 31.78125 3.421875 
Q 38.8125 3.421875 42.6875 7.734375 
Q 46.578125 12.0625 46.578125 19.921875 
z
M 44.578125 55.328125 
Q 44.578125 61.96875 41.203125 65.671875 
Q 37.84375 69.390625 31.78125 69.390625 
Q 25.78125 69.390625 22.390625 65.671875 
Q 19 61.96875 19 55.328125 
Q 19 48.640625 22.390625 44.921875 
Q 25.78125 41.21875 31.78125 41.21875 
Q 37.84375 41.21875 41.203125 44.921875 
Q 44.578125 48.640625 44.578125 55.328125 
z
M 39.3125 38.8125 
Q 47.609375 37.703125 52.25 32.6875 
Q 56.890625 27.6875 56.890625 19.921875 
Q 56.890625 9.671875 50.390625 4.125 
Q 43.890625 -1.421875 31.78125 -1.421875 
Q 19.734375 -1.421875 13.203125 4.125 
Q 6.6875 9.671875 6.6875 19.921875 
Q 6.6875 27.6875 11.328125 32.6875 
Q 15.96875 37.703125 24.3125 38.8125 
Q 16.9375 40.140625 13 44.40625 
Q 9.078125 48.6875 9.078125 55.328125 
Q 9.078125 64.109375 15.125 69.15625 
Q 21.1875 74.21875 31.78125 74.21875 
Q 42.390625 74.21875 48.4375 69.15625 
Q 54.5 64.109375 54.5 55.328125 
Q 54.5 48.6875 50.5625 44.40625 
Q 46.625 40.140625 39.3125 38.8125 
z
" id="DejaVuSerif-38"/>
      </defs>
      <g style="fill:#d2d2d2;" transform="translate(171.001875 142.42875)scale(0.08 -0.08)">
       <use xlink:href="#DejaVuSerif-31"/>
       <use x="63.623047" xlink:href="#DejaVuSerif-38"/>
      </g>
     </g>
    </g>
    <g id="text_8">
     <!-- x -->
     <defs>
      <path d="M 29.109375 31.6875 
L 39.984375 46.6875 
L 33.015625 46.6875 
L 33.015625 51.90625 
L 52.984375 51.90625 
L 52.984375 46.6875 
L 46.09375 46.6875 
L 32.171875 27.484375 
L 48.390625 5.171875 
L 55.171875 5.171875 
L 55.171875 0 
L 31.203125 0 
L 31.203125 5.171875 
L 37.796875 5.171875 
L 26.515625 20.703125 
L 15.1875 5.171875 
L 21.921875 5.171875 
L 21.921875 0 
L 2.203125 0 
L 2.203125 5.171875 
L 9.078125 5.171875 
L 23.390625 24.90625 
L 7.625 46.6875 
L 1.21875 46.6875 
L 1.21875 51.90625 
L 24.421875 51.90625 
L 24.421875 46.6875 
L 18.21875 46.6875 
z
" id="DejaVuSerif-78"/>
     </defs>
     <g style="fill:#d2d2d2;" transform="translate(113.675938 153.210625)scale(0.12 -0.12)">
      <use xlink:href="#DejaVuSerif-78"/>
     </g>
    </g>
   </g>
   <g id="matplotlib.axis_2">
    <g id="ytick_1">
     <g id="line2d_8">
      <defs>
       <path d="M 0 0 
L -6 0 
" id="mba06976492" style="stroke:#d2d2d2;"/>
      </defs>
      <g>
       <use style="fill:#d2d2d2;stroke:#d2d2d2;" x="43.26875" xlink:href="#mba06976492" y="126.85"/>
      </g>
     </g>
     <g id="text_9">
      <!-- 0 -->
      <g style="fill:#d2d2d2;" transform="translate(28.67875 129.889375)scale(0.08 -0.08)">
       <use xlink:href="#DejaVuSerif-30"/>
      </g>
     </g>
    </g>
    <g id="ytick_2">
     <g id="line2d_9">
      <g>
       <use style="fill:#d2d2d2;stroke:#d2d2d2;" x="43.26875" xlink:href="#mba06976492" y="102.946429"/>
      </g>
     </g>
     <g id="text_10">
      <!-- 3 -->
      <g style="fill:#d2d2d2;" transform="translate(28.67875 105.985804)scale(0.08 -0.08)">
       <use xlink:href="#DejaVuSerif-33"/>
      </g>
     </g>
    </g>
    <g id="ytick_3">
     <g id="line2d_10">
      <g>
       <use style="fill:#d2d2d2;stroke:#d2d2d2;" x="43.26875" xlink:href="#mba06976492" y="79.042857"/>
      </g>
     </g>
     <g id="text_11">
      <!-- 6 -->
      <g style="fill:#d2d2d2;" transform="translate(28.67875 82.082232)scale(0.08 -0.08)">
       <use xlink:href="#DejaVuSerif-36"/>
      </g>
     </g>
    </g>
    <g id="ytick_4">
     <g id="line2d_11">
      <g>
       <use style="fill:#d2d2d2;stroke:#d2d2d2;" x="43.26875" xlink:href="#mba06976492" y="55.139286"/>
      </g>
     </g>
     <g id="text_12">
      <!-- 9 -->
      <g style="fill:#d2d2d2;" transform="translate(28.67875 58.178661)scale(0.08 -0.08)">
       <use xlink:href="#DejaVuSerif-39"/>
      </g>
     </g>
    </g>
    <g id="ytick_5">
     <g id="line2d_12">
      <g>
       <use style="fill:#d2d2d2;stroke:#d2d2d2;" x="43.26875" xlink:href="#mba06976492" y="31.235714"/>
      </g>
     </g>
     <g id="text_13">
      <!-- 12 -->
      <g style="fill:#d2d2d2;" transform="translate(23.58875 34.275089)scale(0.08 -0.08)">
       <use xlink:href="#DejaVuSerif-31"/>
       <use x="63.623047" xlink:href="#DejaVuSerif-32"/>
      </g>
     </g>
    </g>
    <g id="text_14">
     <!-- y -->
     <defs>
      <path d="M 21.578125 -9.515625 
L 25 -0.875 
L 5.609375 46.6875 
L -0.296875 46.6875 
L -0.296875 51.90625 
L 23.578125 51.90625 
L 23.578125 46.6875 
L 15.28125 46.6875 
L 29.890625 10.984375 
L 44.484375 46.6875 
L 36.71875 46.6875 
L 36.71875 51.90625 
L 56.203125 51.90625 
L 56.203125 46.6875 
L 50.390625 46.6875 
L 26.609375 -11.71875 
Q 24.171875 -17.78125 21.1875 -20 
Q 18.21875 -22.21875 12.796875 -22.21875 
Q 10.5 -22.21875 8.078125 -21.828125 
Q 5.671875 -21.4375 3.21875 -20.703125 
L 3.21875 -10.796875 
L 7.8125 -10.796875 
Q 8.109375 -14.109375 9.5 -15.546875 
Q 10.890625 -17 13.8125 -17 
Q 16.5 -17 18.140625 -15.5 
Q 19.78125 -14.015625 21.578125 -9.515625 
z
" id="DejaVuSerif-79"/>
     </defs>
     <g style="fill:#d2d2d2;" transform="translate(20.9225 74.465)rotate(-90)scale(0.12 -0.12)">
      <use xlink:href="#DejaVuSerif-79"/>
     </g>
    </g>
   </g>
   <g id="line2d_13">
    <path clip-path="url(#pbefe11b5cb)" d="M 43.26875 102.945704 
L 50.647813 98.961051 
L 58.026875 94.976398 
L 65.405938 90.991745 
L 72.785 87.007093 
L 80.164063 83.02244 
L 87.543125 79.037787 
L 94.922188 75.053134 
L 102.30125 71.068481 
L 109.680313 67.083828 
L 117.059375 63.099175 
L 124.438438 59.114522 
L 131.8175 55.129869 
L 139.196563 51.145216 
L 146.575625 47.160563 
L 153.954688 43.17591 
L 161.33375 39.191257 
L 168.712813 35.206605 
L 176.091875 31.221952 
L 183.470938 27.237299 
" style="fill:none;stroke:#88c9c1;stroke-linecap:square;stroke-width:1.5;"/>
   </g>
   <g id="patch_3">
    <path d="M 43.26875 126.85 
L 43.26875 15.3 
" style="fill:none;stroke:#d2d2d2;stroke-linecap:square;stroke-linejoin:miter;stroke-width:0.8;"/>
   </g>
   <g id="patch_4">
    <path d="M 43.26875 126.85 
L 190.85 126.85 
" style="fill:none;stroke:#d2d2d2;stroke-linecap:square;stroke-linejoin:miter;stroke-width:0.8;"/>
   </g>
   <g id="text_15">
    <!-- Dataset #0 -->
    <defs>
     <path d="M 24.703125 5.171875 
L 33.796875 5.171875 
Q 48 5.171875 55.59375 13.28125 
Q 63.1875 21.390625 63.1875 36.53125 
Q 63.1875 51.65625 55.609375 59.65625 
Q 48.046875 67.671875 33.796875 67.671875 
L 24.703125 67.671875 
z
M 5.515625 0 
L 5.515625 5.171875 
L 14.796875 5.171875 
L 14.796875 67.671875 
L 5.515625 67.671875 
L 5.515625 72.90625 
L 34.515625 72.90625 
Q 53.375 72.90625 63.890625 63.28125 
Q 74.421875 53.65625 74.421875 36.53125 
Q 74.421875 19.34375 63.875 9.671875 
Q 53.328125 0 34.515625 0 
z
" id="DejaVuSerif-44"/>
     <path d="M 39.796875 16.3125 
L 39.796875 27.296875 
L 28.21875 27.296875 
Q 21.53125 27.296875 18.25 24.40625 
Q 14.984375 21.53125 14.984375 15.578125 
Q 14.984375 10.15625 18.296875 6.984375 
Q 21.625 3.8125 27.296875 3.8125 
Q 32.90625 3.8125 36.34375 7.28125 
Q 39.796875 10.75 39.796875 16.3125 
z
M 48.78125 32.421875 
L 48.78125 5.171875 
L 56.78125 5.171875 
L 56.78125 0 
L 39.796875 0 
L 39.796875 5.609375 
Q 36.8125 2 32.90625 0.28125 
Q 29 -1.421875 23.78125 -1.421875 
Q 15.140625 -1.421875 10.0625 3.171875 
Q 4.984375 7.765625 4.984375 15.578125 
Q 4.984375 23.640625 10.796875 28.078125 
Q 16.609375 32.515625 27.203125 32.515625 
L 39.796875 32.515625 
L 39.796875 36.078125 
Q 39.796875 42 36.203125 45.234375 
Q 32.625 48.484375 26.125 48.484375 
Q 20.75 48.484375 17.578125 46.046875 
Q 14.40625 43.609375 13.625 38.8125 
L 8.984375 38.8125 
L 8.984375 49.3125 
Q 13.671875 51.3125 18.09375 52.3125 
Q 22.515625 53.328125 26.703125 53.328125 
Q 37.5 53.328125 43.140625 47.96875 
Q 48.78125 42.625 48.78125 32.421875 
z
" id="DejaVuSerif-61"/>
     <path d="M 10.796875 46.6875 
L 2.875 46.6875 
L 2.875 51.90625 
L 10.796875 51.90625 
L 10.796875 68.015625 
L 19.828125 68.015625 
L 19.828125 51.90625 
L 36.71875 51.90625 
L 36.71875 46.6875 
L 19.828125 46.6875 
L 19.828125 13.71875 
Q 19.828125 7.125 21.09375 5.265625 
Q 22.359375 3.421875 25.78125 3.421875 
Q 29.296875 3.421875 30.90625 5.484375 
Q 32.515625 7.5625 32.625 12.203125 
L 39.40625 12.203125 
Q 39.015625 5.125 35.546875 1.84375 
Q 32.078125 -1.421875 25 -1.421875 
Q 17.234375 -1.421875 14.015625 2.015625 
Q 10.796875 5.46875 10.796875 13.71875 
z
" id="DejaVuSerif-74"/>
     <path d="M 5.609375 2.875 
L 5.609375 14.984375 
L 10.796875 14.984375 
Q 10.984375 9.1875 14.421875 6.296875 
Q 17.875 3.421875 24.609375 3.421875 
Q 30.671875 3.421875 33.84375 5.6875 
Q 37.015625 7.953125 37.015625 12.3125 
Q 37.015625 15.71875 34.6875 17.8125 
Q 32.375 19.921875 24.90625 22.3125 
L 18.40625 24.515625 
Q 11.71875 26.65625 8.71875 29.875 
Q 5.71875 33.109375 5.71875 38.09375 
Q 5.71875 45.21875 10.9375 49.265625 
Q 16.15625 53.328125 25.390625 53.328125 
Q 29.5 53.328125 34.03125 52.25 
Q 38.578125 51.171875 43.40625 49.125 
L 43.40625 37.796875 
L 38.234375 37.796875 
Q 38.03125 42.828125 34.703125 45.65625 
Q 31.390625 48.484375 25.6875 48.484375 
Q 20.015625 48.484375 17.109375 46.484375 
Q 14.203125 44.484375 14.203125 40.484375 
Q 14.203125 37.203125 16.40625 35.21875 
Q 18.609375 33.25 25.203125 31.203125 
L 32.328125 29 
Q 39.703125 26.703125 42.9375 23.265625 
Q 46.1875 19.828125 46.1875 14.40625 
Q 46.1875 7.03125 40.546875 2.796875 
Q 34.90625 -1.421875 25 -1.421875 
Q 19.96875 -1.421875 15.1875 -0.34375 
Q 10.40625 0.734375 5.609375 2.875 
z
" id="DejaVuSerif-73"/>
     <path d="M 54.203125 25 
L 15.484375 25 
L 15.484375 24.609375 
Q 15.484375 14.109375 19.4375 8.765625 
Q 23.390625 3.421875 31.109375 3.421875 
Q 37.015625 3.421875 40.796875 6.515625 
Q 44.578125 9.625 46.09375 15.71875 
L 53.328125 15.71875 
Q 51.171875 7.171875 45.375 2.875 
Q 39.59375 -1.421875 30.171875 -1.421875 
Q 18.796875 -1.421875 11.890625 6.078125 
Q 4.984375 13.578125 4.984375 25.984375 
Q 4.984375 38.28125 11.765625 45.796875 
Q 18.5625 53.328125 29.59375 53.328125 
Q 41.359375 53.328125 47.65625 46.0625 
Q 53.953125 38.8125 54.203125 25 
z
M 43.609375 30.171875 
Q 43.3125 39.265625 39.765625 43.875 
Q 36.234375 48.484375 29.59375 48.484375 
Q 23.390625 48.484375 19.828125 43.84375 
Q 16.265625 39.203125 15.484375 30.171875 
z
" id="DejaVuSerif-65"/>
     <path id="DejaVuSerif-20"/>
     <path d="M 50.875 44 
L 37.109375 44 
L 33.015625 27.6875 
L 46.921875 27.6875 
z
M 44 71.78125 
L 39.015625 51.515625 
L 52.78125 51.515625 
L 57.8125 71.78125 
L 66.21875 71.78125 
L 61.078125 51.515625 
L 76.125 51.515625 
L 76.125 44 
L 59.1875 44 
L 55.171875 27.6875 
L 70.515625 27.6875 
L 70.515625 20.21875 
L 53.328125 20.21875 
L 48.296875 0 
L 39.890625 0 
L 45.015625 20.21875 
L 31.203125 20.21875 
L 26.125 0 
L 17.828125 0 
L 22.796875 20.21875 
L 7.71875 20.21875 
L 7.71875 27.6875 
L 24.703125 27.6875 
L 28.71875 44 
L 13.28125 44 
L 13.28125 51.515625 
L 30.609375 51.515625 
L 35.6875 71.78125 
z
" id="DejaVuSerif-23"/>
    </defs>
    <g style="fill:#d2d2d2;" transform="translate(46.958281 27.251786)scale(0.1 -0.1)">
     <use xlink:href="#DejaVuSerif-44"/>
     <use x="80.175781" xlink:href="#DejaVuSerif-61"/>
     <use x="139.794922" xlink:href="#DejaVuSerif-74"/>
     <use x="179.980469" xlink:href="#DejaVuSerif-61"/>
     <use x="239.599609" xlink:href="#DejaVuSerif-73"/>
     <use x="290.917969" xlink:href="#DejaVuSerif-65"/>
     <use x="350.097656" xlink:href="#DejaVuSerif-74"/>
     <use x="390.283203" xlink:href="#DejaVuSerif-20"/>
     <use x="422.070312" xlink:href="#DejaVuSerif-23"/>
     <use x="505.859375" xlink:href="#DejaVuSerif-30"/>
    </g>
   </g>
  </g>
  <g id="axes_2">
   <g id="patch_5">
    <path d="M 253.86875 126.85 
L 401.45 126.85 
L 401.45 15.3 
L 253.86875 15.3 
z
" style="fill:none;"/>
   </g>
   <g id="matplotlib.axis_3">
    <g id="xtick_8">
     <g id="line2d_14">
      <g>
       <use style="fill:#d2d2d2;stroke:#d2d2d2;" x="253.86875" xlink:href="#m08f5225ae4" y="126.85"/>
      </g>
     </g>
     <g id="text_16">
      <!-- 0 -->
      <g style="fill:#d2d2d2;" transform="translate(251.32375 142.42875)scale(0.08 -0.08)">
       <use xlink:href="#DejaVuSerif-30"/>
      </g>
     </g>
    </g>
    <g id="xtick_9">
     <g id="line2d_15">
      <g>
       <use style="fill:#d2d2d2;stroke:#d2d2d2;" x="276.005937" xlink:href="#m08f5225ae4" y="126.85"/>
      </g>
     </g>
     <g id="text_17">
      <!-- 3 -->
      <g style="fill:#d2d2d2;" transform="translate(273.460937 142.42875)scale(0.08 -0.08)">
       <use xlink:href="#DejaVuSerif-33"/>
      </g>
     </g>
    </g>
    <g id="xtick_10">
     <g id="line2d_16">
      <g>
       <use style="fill:#d2d2d2;stroke:#d2d2d2;" x="298.143125" xlink:href="#m08f5225ae4" y="126.85"/>
      </g>
     </g>
     <g id="text_18">
      <!-- 6 -->
      <g style="fill:#d2d2d2;" transform="translate(295.598125 142.42875)scale(0.08 -0.08)">
       <use xlink:href="#DejaVuSerif-36"/>
      </g>
     </g>
    </g>
    <g id="xtick_11">
     <g id="line2d_17">
      <g>
       <use style="fill:#d2d2d2;stroke:#d2d2d2;" x="320.280312" xlink:href="#m08f5225ae4" y="126.85"/>
      </g>
     </g>
     <g id="text_19">
      <!-- 9 -->
      <g style="fill:#d2d2d2;" transform="translate(317.735312 142.42875)scale(0.08 -0.08)">
       <use xlink:href="#DejaVuSerif-39"/>
      </g>
     </g>
    </g>
    <g id="xtick_12">
     <g id="line2d_18">
      <g>
       <use style="fill:#d2d2d2;stroke:#d2d2d2;" x="342.4175" xlink:href="#m08f5225ae4" y="126.85"/>
      </g>
     </g>
     <g id="text_20">
      <!-- 12 -->
      <g style="fill:#d2d2d2;" transform="translate(337.3275 142.42875)scale(0.08 -0.08)">
       <use xlink:href="#DejaVuSerif-31"/>
       <use x="63.623047" xlink:href="#DejaVuSerif-32"/>
      </g>
     </g>
    </g>
    <g id="xtick_13">
     <g id="line2d_19">
      <g>
       <use style="fill:#d2d2d2;stroke:#d2d2d2;" x="364.554687" xlink:href="#m08f5225ae4" y="126.85"/>
      </g>
     </g>
     <g id="text_21">
      <!-- 15 -->
      <g style="fill:#d2d2d2;" transform="translate(359.464687 142.42875)scale(0.08 -0.08)">
       <use xlink:href="#DejaVuSerif-31"/>
       <use x="63.623047" xlink:href="#DejaVuSerif-35"/>
      </g>
     </g>
    </g>
    <g id="xtick_14">
     <g id="line2d_20">
      <g>
       <use style="fill:#d2d2d2;stroke:#d2d2d2;" x="386.691875" xlink:href="#m08f5225ae4" y="126.85"/>
      </g>
     </g>
     <g id="text_22">
      <!-- 18 -->
      <g style="fill:#d2d2d2;" transform="translate(381.601875 142.42875)scale(0.08 -0.08)">
       <use xlink:href="#DejaVuSerif-31"/>
       <use x="63.623047" xlink:href="#DejaVuSerif-38"/>
      </g>
     </g>
    </g>
    <g id="text_23">
     <!-- x -->
     <g style="fill:#d2d2d2;" transform="translate(324.275937 153.210625)scale(0.12 -0.12)">
      <use xlink:href="#DejaVuSerif-78"/>
     </g>
    </g>
   </g>
   <g id="matplotlib.axis_4">
    <g id="ytick_6">
     <g id="line2d_21">
      <g>
       <use style="fill:#d2d2d2;stroke:#d2d2d2;" x="253.86875" xlink:href="#mba06976492" y="126.85"/>
      </g>
     </g>
     <g id="text_24">
      <!-- 0 -->
      <g style="fill:#d2d2d2;" transform="translate(239.27875 129.889375)scale(0.08 -0.08)">
       <use xlink:href="#DejaVuSerif-30"/>
      </g>
     </g>
    </g>
    <g id="ytick_7">
     <g id="line2d_22">
      <g>
       <use style="fill:#d2d2d2;stroke:#d2d2d2;" x="253.86875" xlink:href="#mba06976492" y="102.946429"/>
      </g>
     </g>
     <g id="text_25">
      <!-- 3 -->
      <g style="fill:#d2d2d2;" transform="translate(239.27875 105.985804)scale(0.08 -0.08)">
       <use xlink:href="#DejaVuSerif-33"/>
      </g>
     </g>
    </g>
    <g id="ytick_8">
     <g id="line2d_23">
      <g>
       <use style="fill:#d2d2d2;stroke:#d2d2d2;" x="253.86875" xlink:href="#mba06976492" y="79.042857"/>
      </g>
     </g>
     <g id="text_26">
      <!-- 6 -->
      <g style="fill:#d2d2d2;" transform="translate(239.27875 82.082232)scale(0.08 -0.08)">
       <use xlink:href="#DejaVuSerif-36"/>
      </g>
     </g>
    </g>
    <g id="ytick_9">
     <g id="line2d_24">
      <g>
       <use style="fill:#d2d2d2;stroke:#d2d2d2;" x="253.86875" xlink:href="#mba06976492" y="55.139286"/>
      </g>
     </g>
     <g id="text_27">
      <!-- 9 -->
      <g style="fill:#d2d2d2;" transform="translate(239.27875 58.178661)scale(0.08 -0.08)">
       <use xlink:href="#DejaVuSerif-39"/>
      </g>
     </g>
    </g>
    <g id="ytick_10">
     <g id="line2d_25">
      <g>
       <use style="fill:#d2d2d2;stroke:#d2d2d2;" x="253.86875" xlink:href="#mba06976492" y="31.235714"/>
      </g>
     </g>
     <g id="text_28">
      <!-- 12 -->
      <g style="fill:#d2d2d2;" transform="translate(234.18875 34.275089)scale(0.08 -0.08)">
       <use xlink:href="#DejaVuSerif-31"/>
       <use x="63.623047" xlink:href="#DejaVuSerif-32"/>
      </g>
     </g>
    </g>
    <g id="text_29">
     <!-- y -->
     <g style="fill:#d2d2d2;" transform="translate(231.5225 74.465)rotate(-90)scale(0.12 -0.12)">
      <use xlink:href="#DejaVuSerif-79"/>
     </g>
    </g>
   </g>
   <g id="line2d_26">
    <path clip-path="url(#paf216f4cc2)" d="M 253.86875 102.939185 
L 261.247812 98.955256 
L 268.626875 94.971328 
L 276.005937 90.987399 
L 283.385 87.003471 
L 290.764062 83.019542 
L 298.143125 79.035614 
L 305.522187 75.051685 
L 312.90125 71.067756 
L 320.280312 67.083828 
L 327.659375 63.099899 
L 335.038437 59.115971 
L 342.4175 55.132042 
L 349.796562 51.148114 
L 357.175625 47.164185 
L 364.554687 43.180256 
L 371.93375 39.196328 
L 379.312812 35.212399 
L 386.691875 31.228471 
L 394.070937 27.244542 
" style="fill:none;stroke:#88c9c1;stroke-linecap:square;stroke-width:1.5;"/>
   </g>
   <g id="patch_6">
    <path d="M 253.86875 126.85 
L 253.86875 15.3 
" style="fill:none;stroke:#d2d2d2;stroke-linecap:square;stroke-linejoin:miter;stroke-width:0.8;"/>
   </g>
   <g id="patch_7">
    <path d="M 253.86875 126.85 
L 401.45 126.85 
" style="fill:none;stroke:#d2d2d2;stroke-linecap:square;stroke-linejoin:miter;stroke-width:0.8;"/>
   </g>
   <g id="text_30">
    <!-- Dataset #1 -->
    <g style="fill:#d2d2d2;" transform="translate(257.558281 27.251786)scale(0.1 -0.1)">
     <use xlink:href="#DejaVuSerif-44"/>
     <use x="80.175781" xlink:href="#DejaVuSerif-61"/>
     <use x="139.794922" xlink:href="#DejaVuSerif-74"/>
     <use x="179.980469" xlink:href="#DejaVuSerif-61"/>
     <use x="239.599609" xlink:href="#DejaVuSerif-73"/>
     <use x="290.917969" xlink:href="#DejaVuSerif-65"/>
     <use x="350.097656" xlink:href="#DejaVuSerif-74"/>
     <use x="390.283203" xlink:href="#DejaVuSerif-20"/>
     <use x="422.070312" xlink:href="#DejaVuSerif-23"/>
     <use x="505.859375" xlink:href="#DejaVuSerif-31"/>
    </g>
   </g>
  </g>
  <g id="axes_3">
   <g id="patch_8">
    <path d="M 43.26875 283.45 
L 190.85 283.45 
L 190.85 171.9 
L 43.26875 171.9 
z
" style="fill:none;"/>
   </g>
   <g id="matplotlib.axis_5">
    <g id="xtick_15">
     <g id="line2d_27">
      <g>
       <use style="fill:#d2d2d2;stroke:#d2d2d2;" x="43.26875" xlink:href="#m08f5225ae4" y="283.45"/>
      </g>
     </g>
     <g id="text_31">
      <!-- 0 -->
      <g style="fill:#d2d2d2;" transform="translate(40.72375 299.02875)scale(0.08 -0.08)">
       <use xlink:href="#DejaVuSerif-30"/>
      </g>
     </g>
    </g>
    <g id="xtick_16">
     <g id="line2d_28">
      <g>
       <use style="fill:#d2d2d2;stroke:#d2d2d2;" x="65.405938" xlink:href="#m08f5225ae4" y="283.45"/>
      </g>
     </g>
     <g id="text_32">
      <!-- 3 -->
      <g style="fill:#d2d2d2;" transform="translate(62.860938 299.02875)scale(0.08 -0.08)">
       <use xlink:href="#DejaVuSerif-33"/>
      </g>
     </g>
    </g>
    <g id="xtick_17">
     <g id="line2d_29">
      <g>
       <use style="fill:#d2d2d2;stroke:#d2d2d2;" x="87.543125" xlink:href="#m08f5225ae4" y="283.45"/>
      </g>
     </g>
     <g id="text_33">
      <!-- 6 -->
      <g style="fill:#d2d2d2;" transform="translate(84.998125 299.02875)scale(0.08 -0.08)">
       <use xlink:href="#DejaVuSerif-36"/>
      </g>
     </g>
    </g>
    <g id="xtick_18">
     <g id="line2d_30">
      <g>
       <use style="fill:#d2d2d2;stroke:#d2d2d2;" x="109.680313" xlink:href="#m08f5225ae4" y="283.45"/>
      </g>
     </g>
     <g id="text_34">
      <!-- 9 -->
      <g style="fill:#d2d2d2;" transform="translate(107.135313 299.02875)scale(0.08 -0.08)">
       <use xlink:href="#DejaVuSerif-39"/>
      </g>
     </g>
    </g>
    <g id="xtick_19">
     <g id="line2d_31">
      <g>
       <use style="fill:#d2d2d2;stroke:#d2d2d2;" x="131.8175" xlink:href="#m08f5225ae4" y="283.45"/>
      </g>
     </g>
     <g id="text_35">
      <!-- 12 -->
      <g style="fill:#d2d2d2;" transform="translate(126.7275 299.02875)scale(0.08 -0.08)">
       <use xlink:href="#DejaVuSerif-31"/>
       <use x="63.623047" xlink:href="#DejaVuSerif-32"/>
      </g>
     </g>
    </g>
    <g id="xtick_20">
     <g id="line2d_32">
      <g>
       <use style="fill:#d2d2d2;stroke:#d2d2d2;" x="153.954688" xlink:href="#m08f5225ae4" y="283.45"/>
      </g>
     </g>
     <g id="text_36">
      <!-- 15 -->
      <g style="fill:#d2d2d2;" transform="translate(148.864688 299.02875)scale(0.08 -0.08)">
       <use xlink:href="#DejaVuSerif-31"/>
       <use x="63.623047" xlink:href="#DejaVuSerif-35"/>
      </g>
     </g>
    </g>
    <g id="xtick_21">
     <g id="line2d_33">
      <g>
       <use style="fill:#d2d2d2;stroke:#d2d2d2;" x="176.091875" xlink:href="#m08f5225ae4" y="283.45"/>
      </g>
     </g>
     <g id="text_37">
      <!-- 18 -->
      <g style="fill:#d2d2d2;" transform="translate(171.001875 299.02875)scale(0.08 -0.08)">
       <use xlink:href="#DejaVuSerif-31"/>
       <use x="63.623047" xlink:href="#DejaVuSerif-38"/>
      </g>
     </g>
    </g>
    <g id="text_38">
     <!-- x -->
     <g style="fill:#d2d2d2;" transform="translate(113.675938 309.810625)scale(0.12 -0.12)">
      <use xlink:href="#DejaVuSerif-78"/>
     </g>
    </g>
   </g>
   <g id="matplotlib.axis_6">
    <g id="ytick_11">
     <g id="line2d_34">
      <g>
       <use style="fill:#d2d2d2;stroke:#d2d2d2;" x="43.26875" xlink:href="#mba06976492" y="283.45"/>
      </g>
     </g>
     <g id="text_39">
      <!-- 0 -->
      <g style="fill:#d2d2d2;" transform="translate(28.67875 286.489375)scale(0.08 -0.08)">
       <use xlink:href="#DejaVuSerif-30"/>
      </g>
     </g>
    </g>
    <g id="ytick_12">
     <g id="line2d_35">
      <g>
       <use style="fill:#d2d2d2;stroke:#d2d2d2;" x="43.26875" xlink:href="#mba06976492" y="259.546429"/>
      </g>
     </g>
     <g id="text_40">
      <!-- 3 -->
      <g style="fill:#d2d2d2;" transform="translate(28.67875 262.585804)scale(0.08 -0.08)">
       <use xlink:href="#DejaVuSerif-33"/>
      </g>
     </g>
    </g>
    <g id="ytick_13">
     <g id="line2d_36">
      <g>
       <use style="fill:#d2d2d2;stroke:#d2d2d2;" x="43.26875" xlink:href="#mba06976492" y="235.642857"/>
      </g>
     </g>
     <g id="text_41">
      <!-- 6 -->
      <g style="fill:#d2d2d2;" transform="translate(28.67875 238.682232)scale(0.08 -0.08)">
       <use xlink:href="#DejaVuSerif-36"/>
      </g>
     </g>
    </g>
    <g id="ytick_14">
     <g id="line2d_37">
      <g>
       <use style="fill:#d2d2d2;stroke:#d2d2d2;" x="43.26875" xlink:href="#mba06976492" y="211.739286"/>
      </g>
     </g>
     <g id="text_42">
      <!-- 9 -->
      <g style="fill:#d2d2d2;" transform="translate(28.67875 214.778661)scale(0.08 -0.08)">
       <use xlink:href="#DejaVuSerif-39"/>
      </g>
     </g>
    </g>
    <g id="ytick_15">
     <g id="line2d_38">
      <g>
       <use style="fill:#d2d2d2;stroke:#d2d2d2;" x="43.26875" xlink:href="#mba06976492" y="187.835714"/>
      </g>
     </g>
     <g id="text_43">
      <!-- 12 -->
      <g style="fill:#d2d2d2;" transform="translate(23.58875 190.875089)scale(0.08 -0.08)">
       <use xlink:href="#DejaVuSerif-31"/>
       <use x="63.623047" xlink:href="#DejaVuSerif-32"/>
      </g>
     </g>
    </g>
    <g id="text_44">
     <!-- y -->
     <g style="fill:#d2d2d2;" transform="translate(20.9225 231.065)rotate(-90)scale(0.12 -0.12)">
      <use xlink:href="#DejaVuSerif-79"/>
     </g>
    </g>
   </g>
   <g id="line2d_39">
    <path clip-path="url(#p7b9f34746e)" d="M 43.26875 259.526871 
L 50.647813 255.545116 
L 58.026875 251.56336 
L 65.405938 247.581605 
L 72.785 243.599849 
L 80.164063 239.618094 
L 87.543125 235.636338 
L 94.922188 231.654582 
L 102.30125 227.672827 
L 109.680313 223.691071 
L 117.059375 219.709316 
L 124.438438 215.72756 
L 131.8175 211.745805 
L 139.196563 207.764049 
L 146.575625 203.782294 
L 153.954688 199.800538 
L 161.33375 195.818783 
L 168.712813 191.837027 
L 176.091875 187.855272 
L 183.470938 183.873516 
" style="fill:none;stroke:#88c9c1;stroke-linecap:square;stroke-width:1.5;"/>
   </g>
   <g id="patch_9">
    <path d="M 43.26875 283.45 
L 43.26875 171.9 
" style="fill:none;stroke:#d2d2d2;stroke-linecap:square;stroke-linejoin:miter;stroke-width:0.8;"/>
   </g>
   <g id="patch_10">
    <path d="M 43.26875 283.45 
L 190.85 283.45 
" style="fill:none;stroke:#d2d2d2;stroke-linecap:square;stroke-linejoin:miter;stroke-width:0.8;"/>
   </g>
   <g id="text_45">
    <!-- Dataset #2 -->
    <g style="fill:#d2d2d2;" transform="translate(46.958281 183.851786)scale(0.1 -0.1)">
     <use xlink:href="#DejaVuSerif-44"/>
     <use x="80.175781" xlink:href="#DejaVuSerif-61"/>
     <use x="139.794922" xlink:href="#DejaVuSerif-74"/>
     <use x="179.980469" xlink:href="#DejaVuSerif-61"/>
     <use x="239.599609" xlink:href="#DejaVuSerif-73"/>
     <use x="290.917969" xlink:href="#DejaVuSerif-65"/>
     <use x="350.097656" xlink:href="#DejaVuSerif-74"/>
     <use x="390.283203" xlink:href="#DejaVuSerif-20"/>
     <use x="422.070312" xlink:href="#DejaVuSerif-23"/>
     <use x="505.859375" xlink:href="#DejaVuSerif-32"/>
    </g>
   </g>
  </g>
  <g id="axes_4">
   <g id="patch_11">
    <path d="M 253.86875 283.45 
L 401.45 283.45 
L 401.45 171.9 
L 253.86875 171.9 
z
" style="fill:none;"/>
   </g>
   <g id="matplotlib.axis_7">
    <g id="xtick_22">
     <g id="line2d_40">
      <g>
       <use style="fill:#d2d2d2;stroke:#d2d2d2;" x="253.86875" xlink:href="#m08f5225ae4" y="283.45"/>
      </g>
     </g>
     <g id="text_46">
      <!-- 0 -->
      <g style="fill:#d2d2d2;" transform="translate(251.32375 299.02875)scale(0.08 -0.08)">
       <use xlink:href="#DejaVuSerif-30"/>
      </g>
     </g>
    </g>
    <g id="xtick_23">
     <g id="line2d_41">
      <g>
       <use style="fill:#d2d2d2;stroke:#d2d2d2;" x="276.005937" xlink:href="#m08f5225ae4" y="283.45"/>
      </g>
     </g>
     <g id="text_47">
      <!-- 3 -->
      <g style="fill:#d2d2d2;" transform="translate(273.460937 299.02875)scale(0.08 -0.08)">
       <use xlink:href="#DejaVuSerif-33"/>
      </g>
     </g>
    </g>
    <g id="xtick_24">
     <g id="line2d_42">
      <g>
       <use style="fill:#d2d2d2;stroke:#d2d2d2;" x="298.143125" xlink:href="#m08f5225ae4" y="283.45"/>
      </g>
     </g>
     <g id="text_48">
      <!-- 6 -->
      <g style="fill:#d2d2d2;" transform="translate(295.598125 299.02875)scale(0.08 -0.08)">
       <use xlink:href="#DejaVuSerif-36"/>
      </g>
     </g>
    </g>
    <g id="xtick_25">
     <g id="line2d_43">
      <g>
       <use style="fill:#d2d2d2;stroke:#d2d2d2;" x="320.280312" xlink:href="#m08f5225ae4" y="283.45"/>
      </g>
     </g>
     <g id="text_49">
      <!-- 9 -->
      <g style="fill:#d2d2d2;" transform="translate(317.735312 299.02875)scale(0.08 -0.08)">
       <use xlink:href="#DejaVuSerif-39"/>
      </g>
     </g>
    </g>
    <g id="xtick_26">
     <g id="line2d_44">
      <g>
       <use style="fill:#d2d2d2;stroke:#d2d2d2;" x="342.4175" xlink:href="#m08f5225ae4" y="283.45"/>
      </g>
     </g>
     <g id="text_50">
      <!-- 12 -->
      <g style="fill:#d2d2d2;" transform="translate(337.3275 299.02875)scale(0.08 -0.08)">
       <use xlink:href="#DejaVuSerif-31"/>
       <use x="63.623047" xlink:href="#DejaVuSerif-32"/>
      </g>
     </g>
    </g>
    <g id="xtick_27">
     <g id="line2d_45">
      <g>
       <use style="fill:#d2d2d2;stroke:#d2d2d2;" x="364.554687" xlink:href="#m08f5225ae4" y="283.45"/>
      </g>
     </g>
     <g id="text_51">
      <!-- 15 -->
      <g style="fill:#d2d2d2;" transform="translate(359.464687 299.02875)scale(0.08 -0.08)">
       <use xlink:href="#DejaVuSerif-31"/>
       <use x="63.623047" xlink:href="#DejaVuSerif-35"/>
      </g>
     </g>
    </g>
    <g id="xtick_28">
     <g id="line2d_46">
      <g>
       <use style="fill:#d2d2d2;stroke:#d2d2d2;" x="386.691875" xlink:href="#m08f5225ae4" y="283.45"/>
      </g>
     </g>
     <g id="text_52">
      <!-- 18 -->
      <g style="fill:#d2d2d2;" transform="translate(381.601875 299.02875)scale(0.08 -0.08)">
       <use xlink:href="#DejaVuSerif-31"/>
       <use x="63.623047" xlink:href="#DejaVuSerif-38"/>
      </g>
     </g>
    </g>
    <g id="text_53">
     <!-- x -->
     <g style="fill:#d2d2d2;" transform="translate(324.275937 309.810625)scale(0.12 -0.12)">
      <use xlink:href="#DejaVuSerif-78"/>
     </g>
    </g>
   </g>
   <g id="matplotlib.axis_8">
    <g id="ytick_16">
     <g id="line2d_47">
      <g>
       <use style="fill:#d2d2d2;stroke:#d2d2d2;" x="253.86875" xlink:href="#mba06976492" y="283.45"/>
      </g>
     </g>
     <g id="text_54">
      <!-- 0 -->
      <g style="fill:#d2d2d2;" transform="translate(239.27875 286.489375)scale(0.08 -0.08)">
       <use xlink:href="#DejaVuSerif-30"/>
      </g>
     </g>
    </g>
    <g id="ytick_17">
     <g id="line2d_48">
      <g>
       <use style="fill:#d2d2d2;stroke:#d2d2d2;" x="253.86875" xlink:href="#mba06976492" y="259.546429"/>
      </g>
     </g>
     <g id="text_55">
      <!-- 3 -->
      <g style="fill:#d2d2d2;" transform="translate(239.27875 262.585804)scale(0.08 -0.08)">
       <use xlink:href="#DejaVuSerif-33"/>
      </g>
     </g>
    </g>
    <g id="ytick_18">
     <g id="line2d_49">
      <g>
       <use style="fill:#d2d2d2;stroke:#d2d2d2;" x="253.86875" xlink:href="#mba06976492" y="235.642857"/>
      </g>
     </g>
     <g id="text_56">
      <!-- 6 -->
      <g style="fill:#d2d2d2;" transform="translate(239.27875 238.682232)scale(0.08 -0.08)">
       <use xlink:href="#DejaVuSerif-36"/>
      </g>
     </g>
    </g>
    <g id="ytick_19">
     <g id="line2d_50">
      <g>
       <use style="fill:#d2d2d2;stroke:#d2d2d2;" x="253.86875" xlink:href="#mba06976492" y="211.739286"/>
      </g>
     </g>
     <g id="text_57">
      <!-- 9 -->
      <g style="fill:#d2d2d2;" transform="translate(239.27875 214.778661)scale(0.08 -0.08)">
       <use xlink:href="#DejaVuSerif-39"/>
      </g>
     </g>
    </g>
    <g id="ytick_20">
     <g id="line2d_51">
      <g>
       <use style="fill:#d2d2d2;stroke:#d2d2d2;" x="253.86875" xlink:href="#mba06976492" y="187.835714"/>
      </g>
     </g>
     <g id="text_58">
      <!-- 12 -->
      <g style="fill:#d2d2d2;" transform="translate(234.18875 190.875089)scale(0.08 -0.08)">
       <use xlink:href="#DejaVuSerif-31"/>
       <use x="63.623047" xlink:href="#DejaVuSerif-32"/>
      </g>
     </g>
    </g>
    <g id="text_59">
     <!-- y -->
     <g style="fill:#d2d2d2;" transform="translate(231.5225 231.065)rotate(-90)scale(0.12 -0.12)">
      <use xlink:href="#DejaVuSerif-79"/>
     </g>
    </g>
   </g>
   <g id="line2d_52">
    <path clip-path="url(#pc65535bb0b)" d="M 253.86875 259.532666 
L 261.247812 255.549462 
L 268.626875 251.566257 
L 276.005937 247.583053 
L 283.385 243.599849 
L 290.764062 239.616645 
L 298.143125 235.633441 
L 305.522187 231.650236 
L 312.90125 227.667032 
L 320.280312 223.683828 
L 327.659375 219.700624 
L 335.038437 215.717419 
L 342.4175 211.734215 
L 349.796562 207.751011 
L 357.175625 203.767807 
L 364.554687 199.784603 
L 371.93375 195.801398 
L 379.312812 191.818194 
L 386.691875 187.83499 
L 394.070937 183.851786 
" style="fill:none;stroke:#88c9c1;stroke-linecap:square;stroke-width:1.5;"/>
   </g>
   <g id="patch_12">
    <path d="M 253.86875 283.45 
L 253.86875 171.9 
" style="fill:none;stroke:#d2d2d2;stroke-linecap:square;stroke-linejoin:miter;stroke-width:0.8;"/>
   </g>
   <g id="patch_13">
    <path d="M 253.86875 283.45 
L 401.45 283.45 
" style="fill:none;stroke:#d2d2d2;stroke-linecap:square;stroke-linejoin:miter;stroke-width:0.8;"/>
   </g>
   <g id="text_60">
    <!-- Dataset #3 -->
    <g style="fill:#d2d2d2;" transform="translate(257.558281 183.851786)scale(0.1 -0.1)">
     <use xlink:href="#DejaVuSerif-44"/>
     <use x="80.175781" xlink:href="#DejaVuSerif-61"/>
     <use x="139.794922" xlink:href="#DejaVuSerif-74"/>
     <use x="179.980469" xlink:href="#DejaVuSerif-61"/>
     <use x="239.599609" xlink:href="#DejaVuSerif-73"/>
     <use x="290.917969" xlink:href="#DejaVuSerif-65"/>
     <use x="350.097656" xlink:href="#DejaVuSerif-74"/>
     <use x="390.283203" xlink:href="#DejaVuSerif-20"/>
     <use x="422.070312" xlink:href="#DejaVuSerif-23"/>
     <use x="505.859375" xlink:href="#DejaVuSerif-33"/>
    </g>
   </g>
  </g>
  <g id="axes_5">
   <g id="PathCollection_1">
    <defs>
     <path d="M 0 3 
C 0.795609 3 1.55874 2.683901 2.12132 2.12132 
C 2.683901 1.55874 3 0.795609 3 0 
C 3 -0.795609 2.683901 -1.55874 2.12132 -2.12132 
C 1.55874 -2.683901 0.795609 -3 0 -3 
C -0.795609 -3 -1.55874 -2.683901 -2.12132 -2.12132 
C -2.683901 -1.55874 -3 -0.795609 -3 0 
C -3 0.795609 -2.683901 1.55874 -2.12132 2.12132 
C -1.55874 2.683901 -0.795609 3 0 3 
z
" id="mbb283cba97" style="stroke:#f79a52;"/>
    </defs>
    <g clip-path="url(#pbefe11b5cb)">
     <use style="fill:#f79a52;stroke:#f79a52;" x="117.059375" xlink:href="#mbb283cba97" y="62.788429"/>
     <use style="fill:#f79a52;stroke:#f79a52;" x="102.30125" xlink:href="#mbb283cba97" y="71.473393"/>
     <use style="fill:#f79a52;stroke:#f79a52;" x="139.196563" xlink:href="#mbb283cba97" y="66.453643"/>
     <use style="fill:#f79a52;stroke:#f79a52;" x="109.680313" xlink:href="#mbb283cba97" y="56.653179"/>
     <use style="fill:#f79a52;stroke:#f79a52;" x="124.438438" xlink:href="#mbb283cba97" y="60.47775"/>
     <use style="fill:#f79a52;stroke:#f79a52;" x="146.575625" xlink:href="#mbb283cba97" y="47.490143"/>
     <use style="fill:#f79a52;stroke:#f79a52;" x="87.543125" xlink:href="#mbb283cba97" y="69.162714"/>
     <use style="fill:#f79a52;stroke:#f79a52;" x="72.785" xlink:href="#mbb283cba97" y="92.906929"/>
     <use style="fill:#f79a52;stroke:#f79a52;" x="131.8175" xlink:href="#mbb283cba97" y="40.478429"/>
     <use style="fill:#f79a52;stroke:#f79a52;" x="94.922188" xlink:href="#mbb283cba97" y="88.444929"/>
     <use style="fill:#f79a52;stroke:#f79a52;" x="80.164063" xlink:href="#mbb283cba97" y="81.592571"/>
    </g>
   </g>
  </g>
  <g id="axes_6">
   <g id="PathCollection_2">
    <g clip-path="url(#paf216f4cc2)">
     <use style="fill:#f79a52;stroke:#f79a52;" x="327.659375" xlink:href="#mbb283cba97" y="54.023786"/>
     <use style="fill:#f79a52;stroke:#f79a52;" x="312.90125" xlink:href="#mbb283cba97" y="61.991643"/>
     <use style="fill:#f79a52;stroke:#f79a52;" x="349.796562" xlink:href="#mbb283cba97" y="57.210929"/>
     <use style="fill:#f79a52;stroke:#f79a52;" x="320.280312" xlink:href="#mbb283cba97" y="56.971893"/>
     <use style="fill:#f79a52;stroke:#f79a52;" x="335.038437" xlink:href="#mbb283cba97" y="53.067643"/>
     <use style="fill:#f79a52;stroke:#f79a52;" x="357.175625" xlink:href="#mbb283cba97" y="62.310357"/>
     <use style="fill:#f79a52;stroke:#f79a52;" x="298.143125" xlink:href="#mbb283cba97" y="78.007036"/>
     <use style="fill:#f79a52;stroke:#f79a52;" x="283.385" xlink:href="#mbb283cba97" y="102.149643"/>
     <use style="fill:#f79a52;stroke:#f79a52;" x="342.4175" xlink:href="#mbb283cba97" y="54.103464"/>
     <use style="fill:#f79a52;stroke:#f79a52;" x="305.522187" xlink:href="#mbb283cba97" y="69.003357"/>
     <use style="fill:#f79a52;stroke:#f79a52;" x="290.764062" xlink:href="#mbb283cba97" y="89.082357"/>
    </g>
   </g>
  </g>
  <g id="axes_7">
   <g id="PathCollection_3">
    <g clip-path="url(#p7b9f34746e)">
     <use style="fill:#f79a52;stroke:#f79a52;" x="117.059375" xlink:href="#mbb283cba97" y="224.009786"/>
     <use style="fill:#f79a52;stroke:#f79a52;" x="102.30125" xlink:href="#mbb283cba97" y="229.507607"/>
     <use style="fill:#f79a52;stroke:#f79a52;" x="139.196563" xlink:href="#mbb283cba97" y="181.9395"/>
     <use style="fill:#f79a52;stroke:#f79a52;" x="109.680313" xlink:href="#mbb283cba97" y="226.798536"/>
     <use style="fill:#f79a52;stroke:#f79a52;" x="124.438438" xlink:href="#mbb283cba97" y="221.221036"/>
     <use style="fill:#f79a52;stroke:#f79a52;" x="146.575625" xlink:href="#mbb283cba97" y="213.014143"/>
     <use style="fill:#f79a52;stroke:#f79a52;" x="87.543125" xlink:href="#mbb283cba97" y="235.005429"/>
     <use style="fill:#f79a52;stroke:#f79a52;" x="72.785" xlink:href="#mbb283cba97" y="240.50325"/>
     <use style="fill:#f79a52;stroke:#f79a52;" x="131.8175" xlink:href="#mbb283cba97" y="218.511964"/>
     <use style="fill:#f79a52;stroke:#f79a52;" x="94.922188" xlink:href="#mbb283cba97" y="232.296357"/>
     <use style="fill:#f79a52;stroke:#f79a52;" x="80.164063" xlink:href="#mbb283cba97" y="237.794179"/>
    </g>
   </g>
  </g>
  <g id="axes_8">
   <g id="PathCollection_4">
    <g clip-path="url(#pc65535bb0b)">
     <use style="fill:#f79a52;stroke:#f79a52;" x="312.90125" xlink:href="#mbb283cba97" y="231.0215"/>
     <use style="fill:#f79a52;stroke:#f79a52;" x="312.90125" xlink:href="#mbb283cba97" y="237.555143"/>
     <use style="fill:#f79a52;stroke:#f79a52;" x="312.90125" xlink:href="#mbb283cba97" y="222.017821"/>
     <use style="fill:#f79a52;stroke:#f79a52;" x="312.90125" xlink:href="#mbb283cba97" y="213.014143"/>
     <use style="fill:#f79a52;stroke:#f79a52;" x="312.90125" xlink:href="#mbb283cba97" y="215.96225"/>
     <use style="fill:#f79a52;stroke:#f79a52;" x="312.90125" xlink:href="#mbb283cba97" y="227.356286"/>
     <use style="fill:#f79a52;stroke:#f79a52;" x="312.90125" xlink:href="#mbb283cba97" y="241.61875"/>
     <use style="fill:#f79a52;stroke:#f79a52;" x="394.070937" xlink:href="#mbb283cba97" y="183.851786"/>
     <use style="fill:#f79a52;stroke:#f79a52;" x="312.90125" xlink:href="#mbb283cba97" y="239.148714"/>
     <use style="fill:#f79a52;stroke:#f79a52;" x="312.90125" xlink:href="#mbb283cba97" y="220.42425"/>
     <use style="fill:#f79a52;stroke:#f79a52;" x="312.90125" xlink:href="#mbb283cba97" y="228.551464"/>
    </g>
   </g>
  </g>
 </g>
 <defs>
  <clipPath id="pbefe11b5cb">
   <rect height="111.55" width="147.58125" x="43.26875" y="15.3"/>
  </clipPath>
  <clipPath id="paf216f4cc2">
   <rect height="111.55" width="147.58125" x="253.86875" y="15.3"/>
  </clipPath>
  <clipPath id="p7b9f34746e">
   <rect height="111.55" width="147.58125" x="43.26875" y="171.9"/>
  </clipPath>
  <clipPath id="pc65535bb0b">
   <rect height="111.55" width="147.58125" x="253.86875" y="171.9"/>
  </clipPath>
 </defs>
</svg>
