<?xml version="1.0" encoding="utf-8" standalone="no"?>
<!DOCTYPE svg PUBLIC "-//W3C//DTD SVG 1.1//EN"
  "http://www.w3.org/Graphics/SVG/1.1/DTD/svg11.dtd">
<!-- Created with matplotlib (http://matplotlib.org/) -->
<svg height="432pt" version="1.1" viewBox="0 0 648 432" width="648pt" xmlns="http://www.w3.org/2000/svg" xmlns:xlink="http://www.w3.org/1999/xlink">
 <defs>
  <style type="text/css">
*{stroke-linecap:butt;stroke-linejoin:round;}
  </style>
 </defs>
 <g id="figure_1">
  <g id="patch_1">
   <path d="M 0 432 
L 648 432 
L 648 0 
L 0 0 
z
" style="fill:none;"/>
  </g>
  <g id="axes_1">
   <g id="patch_2">
    <path d="M 81 378 
L 583.2 378 
L 583.2 51.84 
L 81 51.84 
z
" style="fill:none;opacity:0;"/>
   </g>
   <g id="patch_3">
    <path clip-path="url(#pce4567e086)" d="M 107.1144 169.423896 
L 205.5456 169.423896 
L 205.5456 95.688831 
L 107.1144 95.688831 
L 107.1144 169.423896 
z
" style="fill:#e4ce7f;stroke:#525252;stroke-linejoin:miter;stroke-width:1.5;"/>
   </g>
   <g id="patch_4">
    <path clip-path="url(#pce4567e086)" d="M 207.5544 251.003117 
L 305.9856 251.003117 
L 305.9856 179.621299 
L 207.5544 179.621299 
L 207.5544 251.003117 
z
" style="fill:#78aa66;stroke:#525252;stroke-linejoin:miter;stroke-width:1.5;"/>
   </g>
   <g id="patch_5">
    <path clip-path="url(#pce4567e086)" d="M 358.2144 209.429091 
L 456.6456 209.429091 
L 456.6456 120.005714 
L 358.2144 120.005714 
L 358.2144 209.429091 
z
" style="fill:#e4ce7f;stroke:#525252;stroke-linejoin:miter;stroke-width:1.5;"/>
   </g>
   <g id="patch_6">
    <path clip-path="url(#pce4567e086)" d="M 458.6544 325.522597 
L 557.0856 325.522597 
L 557.0856 275.32 
L 458.6544 275.32 
L 458.6544 325.522597 
z
" style="fill:#78aa66;stroke:#525252;stroke-linejoin:miter;stroke-width:1.5;"/>
   </g>
   <g id="patch_7">
    <path clip-path="url(#pce4567e086)" d="M 206.55 423.574545 
L 206.55 423.574545 
L 206.55 423.574545 
L 206.55 423.574545 
z
" style="fill:#e4ce7f;stroke:#525252;stroke-linejoin:miter;stroke-width:0.75;"/>
   </g>
   <g id="patch_8">
    <path clip-path="url(#pce4567e086)" d="M 206.55 423.574545 
L 206.55 423.574545 
L 206.55 423.574545 
L 206.55 423.574545 
z
" style="fill:#78aa66;stroke:#525252;stroke-linejoin:miter;stroke-width:0.75;"/>
   </g>
   <g id="matplotlib.axis_1">
    <g id="xtick_1">
     <g id="line2d_1">
      <defs>
       <path d="M 0 0 
L 0 3.5 
" id="m2a70efd281" style="stroke:#d2d2d2;stroke-width:0.8;"/>
      </defs>
      <g>
       <use style="fill:#d2d2d2;stroke:#d2d2d2;stroke-width:0.8;" x="206.55" xlink:href="#m2a70efd281" y="378"/>
      </g>
     </g>
     <g id="text_1">
      <!-- nonchilled -->
      <defs>
       <path d="M 4.109375 0 
L 4.109375 5.171875 
L 12.203125 5.171875 
L 12.203125 46.6875 
L 3.609375 46.6875 
L 3.609375 51.90625 
L 21.1875 51.90625 
L 21.1875 42.671875 
Q 23.6875 47.953125 27.65625 50.640625 
Q 31.640625 53.328125 36.921875 53.328125 
Q 45.515625 53.328125 49.5625 48.390625 
Q 53.609375 43.453125 53.609375 33.015625 
L 53.609375 5.171875 
L 61.625 5.171875 
L 61.625 0 
L 36.8125 0 
L 36.8125 5.171875 
L 44.578125 5.171875 
L 44.578125 30.171875 
Q 44.578125 39.703125 42.234375 43.234375 
Q 39.890625 46.78125 33.984375 46.78125 
Q 27.734375 46.78125 24.453125 42.203125 
Q 21.1875 37.640625 21.1875 28.90625 
L 21.1875 5.171875 
L 29 5.171875 
L 29 0 
z
" id="DejaVuSerif-6e"/>
       <path d="M 30.078125 3.421875 
Q 37.3125 3.421875 40.984375 9.125 
Q 44.671875 14.84375 44.671875 25.984375 
Q 44.671875 37.109375 40.984375 42.796875 
Q 37.3125 48.484375 30.078125 48.484375 
Q 22.859375 48.484375 19.171875 42.796875 
Q 15.484375 37.109375 15.484375 25.984375 
Q 15.484375 14.84375 19.1875 9.125 
Q 22.90625 3.421875 30.078125 3.421875 
z
M 30.078125 -1.421875 
Q 18.75 -1.421875 11.859375 6.078125 
Q 4.984375 13.578125 4.984375 25.984375 
Q 4.984375 38.375 11.84375 45.84375 
Q 18.703125 53.328125 30.078125 53.328125 
Q 41.453125 53.328125 48.3125 45.84375 
Q 55.171875 38.375 55.171875 25.984375 
Q 55.171875 13.578125 48.3125 6.078125 
Q 41.453125 -1.421875 30.078125 -1.421875 
z
" id="DejaVuSerif-6f"/>
       <path d="M 51.421875 15.578125 
Q 49.515625 7.28125 44.09375 2.921875 
Q 38.671875 -1.421875 30.078125 -1.421875 
Q 18.75 -1.421875 11.859375 6.078125 
Q 4.984375 13.578125 4.984375 25.984375 
Q 4.984375 38.421875 11.859375 45.875 
Q 18.75 53.328125 30.078125 53.328125 
Q 35.015625 53.328125 39.890625 52.171875 
Q 44.78125 51.03125 49.703125 48.6875 
L 49.703125 35.40625 
L 44.484375 35.40625 
Q 43.453125 42.234375 40.015625 45.359375 
Q 36.578125 48.484375 30.171875 48.484375 
Q 22.90625 48.484375 19.1875 42.84375 
Q 15.484375 37.203125 15.484375 25.984375 
Q 15.484375 14.75 19.171875 9.078125 
Q 22.859375 3.421875 30.171875 3.421875 
Q 35.984375 3.421875 39.453125 6.4375 
Q 42.921875 9.46875 44.1875 15.578125 
z
" id="DejaVuSerif-63"/>
       <path d="M 4.109375 0 
L 4.109375 5.171875 
L 12.203125 5.171875 
L 12.203125 70.796875 
L 3.609375 70.796875 
L 3.609375 75.984375 
L 21.1875 75.984375 
L 21.1875 42.671875 
Q 23.6875 47.953125 27.65625 50.640625 
Q 31.640625 53.328125 36.921875 53.328125 
Q 45.515625 53.328125 49.5625 48.390625 
Q 53.609375 43.453125 53.609375 33.015625 
L 53.609375 5.171875 
L 61.625 5.171875 
L 61.625 0 
L 36.8125 0 
L 36.8125 5.171875 
L 44.578125 5.171875 
L 44.578125 30.171875 
Q 44.578125 39.703125 42.25 43.1875 
Q 39.9375 46.6875 33.984375 46.6875 
Q 27.734375 46.6875 24.453125 42.140625 
Q 21.1875 37.59375 21.1875 28.90625 
L 21.1875 5.171875 
L 29 5.171875 
L 29 0 
z
" id="DejaVuSerif-68"/>
       <path d="M 9.71875 68.015625 
Q 9.71875 70.265625 11.34375 71.921875 
Q 12.984375 73.578125 15.28125 73.578125 
Q 17.53125 73.578125 19.15625 71.921875 
Q 20.796875 70.265625 20.796875 68.015625 
Q 20.796875 65.71875 19.1875 64.109375 
Q 17.578125 62.5 15.28125 62.5 
Q 12.984375 62.5 11.34375 64.109375 
Q 9.71875 65.71875 9.71875 68.015625 
z
M 21.1875 5.171875 
L 29.6875 5.171875 
L 29.6875 0 
L 3.609375 0 
L 3.609375 5.171875 
L 12.203125 5.171875 
L 12.203125 46.6875 
L 3.609375 46.6875 
L 3.609375 51.90625 
L 21.1875 51.90625 
z
" id="DejaVuSerif-69"/>
       <path d="M 20.515625 5.171875 
L 29 5.171875 
L 29 0 
L 2.875 0 
L 2.875 5.171875 
L 11.53125 5.171875 
L 11.53125 70.796875 
L 2.875 70.796875 
L 2.875 75.984375 
L 20.515625 75.984375 
z
" id="DejaVuSerif-6c"/>
       <path d="M 54.203125 25 
L 15.484375 25 
L 15.484375 24.609375 
Q 15.484375 14.109375 19.4375 8.765625 
Q 23.390625 3.421875 31.109375 3.421875 
Q 37.015625 3.421875 40.796875 6.515625 
Q 44.578125 9.625 46.09375 15.71875 
L 53.328125 15.71875 
Q 51.171875 7.171875 45.375 2.875 
Q 39.59375 -1.421875 30.171875 -1.421875 
Q 18.796875 -1.421875 11.890625 6.078125 
Q 4.984375 13.578125 4.984375 25.984375 
Q 4.984375 38.28125 11.765625 45.796875 
Q 18.5625 53.328125 29.59375 53.328125 
Q 41.359375 53.328125 47.65625 46.0625 
Q 53.953125 38.8125 54.203125 25 
z
M 43.609375 30.171875 
Q 43.3125 39.265625 39.765625 43.875 
Q 36.234375 48.484375 29.59375 48.484375 
Q 23.390625 48.484375 19.828125 43.84375 
Q 16.265625 39.203125 15.484375 30.171875 
z
" id="DejaVuSerif-65"/>
       <path d="M 52.484375 5.171875 
L 61.078125 5.171875 
L 61.078125 0 
L 43.5 0 
L 43.5 8.109375 
Q 40.875 3.21875 36.796875 0.890625 
Q 32.71875 -1.421875 26.703125 -1.421875 
Q 17.140625 -1.421875 11.0625 6.171875 
Q 4.984375 13.765625 4.984375 25.984375 
Q 4.984375 38.1875 11.03125 45.75 
Q 17.09375 53.328125 26.703125 53.328125 
Q 32.71875 53.328125 36.796875 51 
Q 40.875 48.6875 43.5 43.796875 
L 43.5 70.796875 
L 35.015625 70.796875 
L 35.015625 75.984375 
L 52.484375 75.984375 
z
M 43.5 23.390625 
L 43.5 28.515625 
Q 43.5 37.84375 39.90625 42.765625 
Q 36.328125 47.703125 29.5 47.703125 
Q 22.5625 47.703125 19.015625 42.234375 
Q 15.484375 36.765625 15.484375 25.984375 
Q 15.484375 15.234375 19.015625 9.71875 
Q 22.5625 4.203125 29.5 4.203125 
Q 36.328125 4.203125 39.90625 9.109375 
Q 43.5 14.015625 43.5 23.390625 
z
" id="DejaVuSerif-64"/>
      </defs>
      <g style="fill:#d2d2d2;" transform="translate(172.192422 394.877969)scale(0.13 -0.13)">
       <use xlink:href="#DejaVuSerif-6e"/>
       <use x="64.404297" xlink:href="#DejaVuSerif-6f"/>
       <use x="124.609375" xlink:href="#DejaVuSerif-6e"/>
       <use x="189.013672" xlink:href="#DejaVuSerif-63"/>
       <use x="245.019531" xlink:href="#DejaVuSerif-68"/>
       <use x="309.423828" xlink:href="#DejaVuSerif-69"/>
       <use x="341.40625" xlink:href="#DejaVuSerif-6c"/>
       <use x="373.388672" xlink:href="#DejaVuSerif-6c"/>
       <use x="405.371094" xlink:href="#DejaVuSerif-65"/>
       <use x="464.550781" xlink:href="#DejaVuSerif-64"/>
      </g>
     </g>
    </g>
    <g id="xtick_2">
     <g id="line2d_2">
      <g>
       <use style="fill:#d2d2d2;stroke:#d2d2d2;stroke-width:0.8;" x="457.65" xlink:href="#m2a70efd281" y="378"/>
      </g>
     </g>
     <g id="text_2">
      <!-- chilled -->
      <g style="fill:#d2d2d2;" transform="translate(435.578438 394.877969)scale(0.13 -0.13)">
       <use xlink:href="#DejaVuSerif-63"/>
       <use x="56.005859" xlink:href="#DejaVuSerif-68"/>
       <use x="120.410156" xlink:href="#DejaVuSerif-69"/>
       <use x="152.392578" xlink:href="#DejaVuSerif-6c"/>
       <use x="184.375" xlink:href="#DejaVuSerif-6c"/>
       <use x="216.357422" xlink:href="#DejaVuSerif-65"/>
       <use x="275.537109" xlink:href="#DejaVuSerif-64"/>
      </g>
     </g>
    </g>
    <g id="text_3">
     <!-- Treatment -->
     <defs>
      <path d="M 19.09375 0 
L 19.09375 5.171875 
L 28.421875 5.171875 
L 28.421875 67.09375 
L 6.984375 67.09375 
L 6.984375 55.71875 
L 0.984375 55.71875 
L 0.984375 72.90625 
L 65.71875 72.90625 
L 65.71875 55.71875 
L 59.71875 55.71875 
L 59.71875 67.09375 
L 38.28125 67.09375 
L 38.28125 5.171875 
L 47.609375 5.171875 
L 47.609375 0 
z
" id="DejaVuSerif-54"/>
      <path d="M 47.796875 52 
L 47.796875 39.015625 
L 42.625 39.015625 
Q 42.390625 42.875 40.484375 44.78125 
Q 38.578125 46.6875 34.90625 46.6875 
Q 28.265625 46.6875 24.71875 42.09375 
Q 21.1875 37.5 21.1875 28.90625 
L 21.1875 5.171875 
L 31.59375 5.171875 
L 31.59375 0 
L 4.109375 0 
L 4.109375 5.171875 
L 12.203125 5.171875 
L 12.203125 46.78125 
L 3.609375 46.78125 
L 3.609375 51.90625 
L 21.1875 51.90625 
L 21.1875 42.671875 
Q 23.828125 48.09375 27.96875 50.703125 
Q 32.125 53.328125 38.09375 53.328125 
Q 40.28125 53.328125 42.703125 52.984375 
Q 45.125 52.640625 47.796875 52 
z
" id="DejaVuSerif-72"/>
      <path d="M 39.796875 16.3125 
L 39.796875 27.296875 
L 28.21875 27.296875 
Q 21.53125 27.296875 18.25 24.40625 
Q 14.984375 21.53125 14.984375 15.578125 
Q 14.984375 10.15625 18.296875 6.984375 
Q 21.625 3.8125 27.296875 3.8125 
Q 32.90625 3.8125 36.34375 7.28125 
Q 39.796875 10.75 39.796875 16.3125 
z
M 48.78125 32.421875 
L 48.78125 5.171875 
L 56.78125 5.171875 
L 56.78125 0 
L 39.796875 0 
L 39.796875 5.609375 
Q 36.8125 2 32.90625 0.28125 
Q 29 -1.421875 23.78125 -1.421875 
Q 15.140625 -1.421875 10.0625 3.171875 
Q 4.984375 7.765625 4.984375 15.578125 
Q 4.984375 23.640625 10.796875 28.078125 
Q 16.609375 32.515625 27.203125 32.515625 
L 39.796875 32.515625 
L 39.796875 36.078125 
Q 39.796875 42 36.203125 45.234375 
Q 32.625 48.484375 26.125 48.484375 
Q 20.75 48.484375 17.578125 46.046875 
Q 14.40625 43.609375 13.625 38.8125 
L 8.984375 38.8125 
L 8.984375 49.3125 
Q 13.671875 51.3125 18.09375 52.3125 
Q 22.515625 53.328125 26.703125 53.328125 
Q 37.5 53.328125 43.140625 47.96875 
Q 48.78125 42.625 48.78125 32.421875 
z
" id="DejaVuSerif-61"/>
      <path d="M 10.796875 46.6875 
L 2.875 46.6875 
L 2.875 51.90625 
L 10.796875 51.90625 
L 10.796875 68.015625 
L 19.828125 68.015625 
L 19.828125 51.90625 
L 36.71875 51.90625 
L 36.71875 46.6875 
L 19.828125 46.6875 
L 19.828125 13.71875 
Q 19.828125 7.125 21.09375 5.265625 
Q 22.359375 3.421875 25.78125 3.421875 
Q 29.296875 3.421875 30.90625 5.484375 
Q 32.515625 7.5625 32.625 12.203125 
L 39.40625 12.203125 
Q 39.015625 5.125 35.546875 1.84375 
Q 32.078125 -1.421875 25 -1.421875 
Q 17.234375 -1.421875 14.015625 2.015625 
Q 10.796875 5.46875 10.796875 13.71875 
z
" id="DejaVuSerif-74"/>
      <path d="M 51.8125 41.796875 
Q 54.390625 47.515625 58.421875 50.421875 
Q 62.453125 53.328125 67.828125 53.328125 
Q 75.984375 53.328125 79.984375 48.265625 
Q 83.984375 43.21875 83.984375 33.015625 
L 83.984375 5.171875 
L 92.09375 5.171875 
L 92.09375 0 
L 67.1875 0 
L 67.1875 5.171875 
L 75 5.171875 
L 75 31.984375 
Q 75 39.9375 72.65625 43.3125 
Q 70.3125 46.6875 64.890625 46.6875 
Q 58.890625 46.6875 55.734375 42.140625 
Q 52.59375 37.59375 52.59375 28.90625 
L 52.59375 5.171875 
L 60.40625 5.171875 
L 60.40625 0 
L 35.796875 0 
L 35.796875 5.171875 
L 43.609375 5.171875 
L 43.609375 32.328125 
Q 43.609375 40.09375 41.265625 43.390625 
Q 38.921875 46.6875 33.5 46.6875 
Q 27.484375 46.6875 24.328125 42.140625 
Q 21.1875 37.59375 21.1875 28.90625 
L 21.1875 5.171875 
L 29 5.171875 
L 29 0 
L 4.109375 0 
L 4.109375 5.171875 
L 12.203125 5.171875 
L 12.203125 46.78125 
L 3.609375 46.78125 
L 3.609375 51.90625 
L 21.1875 51.90625 
L 21.1875 42.671875 
Q 23.6875 47.859375 27.53125 50.59375 
Q 31.390625 53.328125 36.28125 53.328125 
Q 42.328125 53.328125 46.375 50.3125 
Q 50.4375 47.3125 51.8125 41.796875 
z
" id="DejaVuSerif-6d"/>
     </defs>
     <g style="fill:#d2d2d2;" transform="translate(284.210156 415.25875)scale(0.18 -0.18)">
      <use xlink:href="#DejaVuSerif-54"/>
      <use x="66.699219" xlink:href="#DejaVuSerif-72"/>
      <use x="114.501953" xlink:href="#DejaVuSerif-65"/>
      <use x="173.681641" xlink:href="#DejaVuSerif-61"/>
      <use x="233.300781" xlink:href="#DejaVuSerif-74"/>
      <use x="273.486328" xlink:href="#DejaVuSerif-6d"/>
      <use x="368.310547" xlink:href="#DejaVuSerif-65"/>
      <use x="427.490234" xlink:href="#DejaVuSerif-6e"/>
      <use x="491.894531" xlink:href="#DejaVuSerif-74"/>
     </g>
    </g>
   </g>
   <g id="matplotlib.axis_2">
    <g id="ytick_1">
     <g id="line2d_3">
      <defs>
       <path d="M 0 0 
L -3.5 0 
" id="m5be50a81d8" style="stroke:#d2d2d2;stroke-width:0.8;"/>
      </defs>
      <g>
       <use style="fill:#d2d2d2;stroke:#d2d2d2;stroke-width:0.8;" x="81" xlink:href="#m5be50a81d8" y="345.132987"/>
      </g>
     </g>
     <g id="text_4">
      <!-- $\mathdefault{10}$ -->
      <defs>
       <path d="M 14.203125 0 
L 14.203125 5.171875 
L 26.90625 5.171875 
L 26.90625 65.828125 
L 12.203125 56.296875 
L 12.203125 62.703125 
L 29.984375 74.21875 
L 36.71875 74.21875 
L 36.71875 5.171875 
L 49.421875 5.171875 
L 49.421875 0 
z
" id="DejaVuSerif-31"/>
       <path d="M 31.78125 3.421875 
Q 39.265625 3.421875 42.96875 11.625 
Q 46.6875 19.828125 46.6875 36.375 
Q 46.6875 52.984375 42.96875 61.1875 
Q 39.265625 69.390625 31.78125 69.390625 
Q 24.3125 69.390625 20.59375 61.1875 
Q 16.890625 52.984375 16.890625 36.375 
Q 16.890625 19.828125 20.59375 11.625 
Q 24.3125 3.421875 31.78125 3.421875 
z
M 31.78125 -1.421875 
Q 19.921875 -1.421875 13.25 8.53125 
Q 6.59375 18.5 6.59375 36.375 
Q 6.59375 54.296875 13.25 64.25 
Q 19.921875 74.21875 31.78125 74.21875 
Q 43.703125 74.21875 50.34375 64.25 
Q 56.984375 54.296875 56.984375 36.375 
Q 56.984375 18.5 50.34375 8.53125 
Q 43.703125 -1.421875 31.78125 -1.421875 
z
" id="DejaVuSerif-30"/>
      </defs>
      <g style="fill:#d2d2d2;" transform="translate(61.2 348.932206)scale(0.1 -0.1)">
       <use transform="translate(0 0.78125)" xlink:href="#DejaVuSerif-31"/>
       <use transform="translate(63.623047 0.78125)" xlink:href="#DejaVuSerif-30"/>
      </g>
     </g>
    </g>
    <g id="ytick_2">
     <g id="line2d_4">
      <g>
       <use style="fill:#d2d2d2;stroke:#d2d2d2;stroke-width:0.8;" x="81" xlink:href="#m5be50a81d8" y="305.912208"/>
      </g>
     </g>
     <g id="text_5">
      <!-- $\mathdefault{15}$ -->
      <defs>
       <path d="M 50.296875 72.90625 
L 50.296875 64.890625 
L 16.890625 64.890625 
L 16.890625 44 
Q 19.4375 45.75 22.828125 46.625 
Q 26.21875 47.515625 30.421875 47.515625 
Q 42.234375 47.515625 49.0625 40.96875 
Q 55.90625 34.421875 55.90625 23.09375 
Q 55.90625 11.53125 49 5.046875 
Q 42.09375 -1.421875 29.59375 -1.421875 
Q 24.5625 -1.421875 19.28125 -0.1875 
Q 14.015625 1.03125 8.5 3.515625 
L 8.5 17.671875 
L 14.015625 17.671875 
Q 14.453125 10.75 18.421875 7.078125 
Q 22.40625 3.421875 29.59375 3.421875 
Q 37.3125 3.421875 41.453125 8.5 
Q 45.609375 13.578125 45.609375 23.09375 
Q 45.609375 32.5625 41.484375 37.609375 
Q 37.359375 42.671875 29.59375 42.671875 
Q 25.203125 42.671875 21.84375 41.109375 
Q 18.5 39.546875 15.921875 36.28125 
L 11.71875 36.28125 
L 11.71875 72.90625 
z
" id="DejaVuSerif-35"/>
      </defs>
      <g style="fill:#d2d2d2;" transform="translate(61.2 309.711427)scale(0.1 -0.1)">
       <use transform="translate(0 0.78125)" xlink:href="#DejaVuSerif-31"/>
       <use transform="translate(63.623047 0.78125)" xlink:href="#DejaVuSerif-35"/>
      </g>
     </g>
    </g>
    <g id="ytick_3">
     <g id="line2d_5">
      <g>
       <use style="fill:#d2d2d2;stroke:#d2d2d2;stroke-width:0.8;" x="81" xlink:href="#m5be50a81d8" y="266.691429"/>
      </g>
     </g>
     <g id="text_6">
      <!-- $\mathdefault{20}$ -->
      <defs>
       <path d="M 12.796875 55.515625 
L 7.328125 55.515625 
L 7.328125 68.5 
Q 12.546875 71.296875 17.84375 72.75 
Q 23.140625 74.21875 28.21875 74.21875 
Q 39.59375 74.21875 46.1875 68.703125 
Q 52.78125 63.1875 52.78125 53.71875 
Q 52.78125 43.015625 37.84375 28.125 
Q 36.671875 27 36.078125 26.421875 
L 17.671875 8.015625 
L 48.09375 8.015625 
L 48.09375 17 
L 53.8125 17 
L 53.8125 0 
L 6.78125 0 
L 6.78125 5.328125 
L 28.90625 27.390625 
Q 36.234375 34.71875 39.359375 40.84375 
Q 42.484375 46.96875 42.484375 53.71875 
Q 42.484375 61.078125 38.640625 65.234375 
Q 34.8125 69.390625 28.078125 69.390625 
Q 21.09375 69.390625 17.28125 65.921875 
Q 13.484375 62.453125 12.796875 55.515625 
z
" id="DejaVuSerif-32"/>
      </defs>
      <g style="fill:#d2d2d2;" transform="translate(61.2 270.490647)scale(0.1 -0.1)">
       <use transform="translate(0 0.78125)" xlink:href="#DejaVuSerif-32"/>
       <use transform="translate(63.623047 0.78125)" xlink:href="#DejaVuSerif-30"/>
      </g>
     </g>
    </g>
    <g id="ytick_4">
     <g id="line2d_6">
      <g>
       <use style="fill:#d2d2d2;stroke:#d2d2d2;stroke-width:0.8;" x="81" xlink:href="#m5be50a81d8" y="227.470649"/>
      </g>
     </g>
     <g id="text_7">
      <!-- $\mathdefault{25}$ -->
      <g style="fill:#d2d2d2;" transform="translate(61.2 231.269868)scale(0.1 -0.1)">
       <use transform="translate(0 0.78125)" xlink:href="#DejaVuSerif-32"/>
       <use transform="translate(63.623047 0.78125)" xlink:href="#DejaVuSerif-35"/>
      </g>
     </g>
    </g>
    <g id="ytick_5">
     <g id="line2d_7">
      <g>
       <use style="fill:#d2d2d2;stroke:#d2d2d2;stroke-width:0.8;" x="81" xlink:href="#m5be50a81d8" y="188.24987"/>
      </g>
     </g>
     <g id="text_8">
      <!-- $\mathdefault{30}$ -->
      <defs>
       <path d="M 9.71875 69.828125 
Q 15.4375 71.96875 20.671875 73.09375 
Q 25.921875 74.21875 30.515625 74.21875 
Q 41.21875 74.21875 47.21875 69.59375 
Q 53.21875 64.984375 53.21875 56.78125 
Q 53.21875 50.203125 49.0625 45.78125 
Q 44.921875 41.359375 37.3125 39.796875 
Q 46.296875 38.53125 51.25 33.28125 
Q 56.203125 28.03125 56.203125 19.671875 
Q 56.203125 9.46875 49.34375 4.015625 
Q 42.484375 -1.421875 29.59375 -1.421875 
Q 23.875 -1.421875 18.421875 -0.1875 
Q 12.984375 1.03125 7.625 3.515625 
L 7.625 17.671875 
L 13.09375 17.671875 
Q 13.578125 10.640625 17.828125 7.03125 
Q 22.078125 3.421875 29.78125 3.421875 
Q 37.25 3.421875 41.578125 7.734375 
Q 45.90625 12.0625 45.90625 19.578125 
Q 45.90625 28.171875 41.453125 32.59375 
Q 37.015625 37.015625 28.421875 37.015625 
L 23.78125 37.015625 
L 23.78125 42 
L 26.21875 42 
Q 34.765625 42 39.03125 45.53125 
Q 43.3125 49.078125 43.3125 56.203125 
Q 43.3125 62.59375 39.796875 65.984375 
Q 36.28125 69.390625 29.6875 69.390625 
Q 23.09375 69.390625 19.453125 66.265625 
Q 15.828125 63.140625 15.1875 56.984375 
L 9.71875 56.984375 
z
" id="DejaVuSerif-33"/>
      </defs>
      <g style="fill:#d2d2d2;" transform="translate(61.2 192.049089)scale(0.1 -0.1)">
       <use transform="translate(0 0.78125)" xlink:href="#DejaVuSerif-33"/>
       <use transform="translate(63.623047 0.78125)" xlink:href="#DejaVuSerif-30"/>
      </g>
     </g>
    </g>
    <g id="ytick_6">
     <g id="line2d_8">
      <g>
       <use style="fill:#d2d2d2;stroke:#d2d2d2;stroke-width:0.8;" x="81" xlink:href="#m5be50a81d8" y="149.029091"/>
      </g>
     </g>
     <g id="text_9">
      <!-- $\mathdefault{35}$ -->
      <g style="fill:#d2d2d2;" transform="translate(61.2 152.82831)scale(0.1 -0.1)">
       <use transform="translate(0 0.78125)" xlink:href="#DejaVuSerif-33"/>
       <use transform="translate(63.623047 0.78125)" xlink:href="#DejaVuSerif-35"/>
      </g>
     </g>
    </g>
    <g id="ytick_7">
     <g id="line2d_9">
      <g>
       <use style="fill:#d2d2d2;stroke:#d2d2d2;stroke-width:0.8;" x="81" xlink:href="#m5be50a81d8" y="109.808312"/>
      </g>
     </g>
     <g id="text_10">
      <!-- $\mathdefault{40}$ -->
      <defs>
       <path d="M 34.90625 24.703125 
L 34.90625 63.484375 
L 10.015625 24.703125 
z
M 56.390625 0 
L 23.1875 0 
L 23.1875 5.171875 
L 34.90625 5.171875 
L 34.90625 19.484375 
L 3.078125 19.484375 
L 3.078125 24.8125 
L 35.015625 74.21875 
L 44.671875 74.21875 
L 44.671875 24.703125 
L 58.59375 24.703125 
L 58.59375 19.484375 
L 44.671875 19.484375 
L 44.671875 5.171875 
L 56.390625 5.171875 
z
" id="DejaVuSerif-34"/>
      </defs>
      <g style="fill:#d2d2d2;" transform="translate(61.2 113.60753)scale(0.1 -0.1)">
       <use transform="translate(0 0.78125)" xlink:href="#DejaVuSerif-34"/>
       <use transform="translate(63.623047 0.78125)" xlink:href="#DejaVuSerif-30"/>
      </g>
     </g>
    </g>
    <g id="ytick_8">
     <g id="line2d_10">
      <g>
       <use style="fill:#d2d2d2;stroke:#d2d2d2;stroke-width:0.8;" x="81" xlink:href="#m5be50a81d8" y="70.587532"/>
      </g>
     </g>
     <g id="text_11">
      <!-- $\mathdefault{45}$ -->
      <g style="fill:#d2d2d2;" transform="translate(61.2 74.386751)scale(0.1 -0.1)">
       <use transform="translate(0 0.78125)" xlink:href="#DejaVuSerif-34"/>
       <use transform="translate(63.623047 0.78125)" xlink:href="#DejaVuSerif-35"/>
      </g>
     </g>
    </g>
    <g id="text_12">
     <!-- uptake -->
     <defs>
      <path d="M 35.40625 51.90625 
L 52.203125 51.90625 
L 52.203125 5.171875 
L 60.6875 5.171875 
L 60.6875 0 
L 43.21875 0 
L 43.21875 9.1875 
Q 40.71875 4 36.765625 1.28125 
Q 32.8125 -1.421875 27.59375 -1.421875 
Q 18.953125 -1.421875 14.875 3.484375 
Q 10.796875 8.40625 10.796875 18.890625 
L 10.796875 46.6875 
L 2.6875 46.6875 
L 2.6875 51.90625 
L 19.828125 51.90625 
L 19.828125 21.6875 
Q 19.828125 12.203125 22.140625 8.6875 
Q 24.46875 5.171875 30.421875 5.171875 
Q 36.671875 5.171875 39.9375 9.765625 
Q 43.21875 14.359375 43.21875 23.09375 
L 43.21875 46.6875 
L 35.40625 46.6875 
z
" id="DejaVuSerif-75"/>
      <path d="M 20.515625 28.515625 
L 20.515625 23.390625 
Q 20.515625 14.015625 24.09375 9.109375 
Q 27.6875 4.203125 34.515625 4.203125 
Q 41.40625 4.203125 44.9375 9.71875 
Q 48.484375 15.234375 48.484375 25.984375 
Q 48.484375 36.765625 44.9375 42.234375 
Q 41.40625 47.703125 34.515625 47.703125 
Q 27.6875 47.703125 24.09375 42.765625 
Q 20.515625 37.84375 20.515625 28.515625 
z
M 11.53125 46.6875 
L 2.875 46.6875 
L 2.875 51.90625 
L 20.515625 51.90625 
L 20.515625 43.796875 
Q 23.140625 48.6875 27.21875 51 
Q 31.296875 53.328125 37.3125 53.328125 
Q 46.875 53.328125 52.921875 45.75 
Q 58.984375 38.1875 58.984375 25.984375 
Q 58.984375 13.765625 52.921875 6.171875 
Q 46.875 -1.421875 37.3125 -1.421875 
Q 31.296875 -1.421875 27.21875 0.890625 
Q 23.140625 3.21875 20.515625 8.109375 
L 20.515625 -15.578125 
L 29 -15.578125 
L 29 -20.796875 
L 2.875 -20.796875 
L 2.875 -15.578125 
L 11.53125 -15.578125 
z
" id="DejaVuSerif-70"/>
      <path d="M 28.609375 0 
L 3.421875 0 
L 3.421875 5.171875 
L 11.53125 5.171875 
L 11.53125 70.796875 
L 2.875 70.796875 
L 2.875 75.984375 
L 20.515625 75.984375 
L 20.515625 26.515625 
L 42.390625 46.6875 
L 34.90625 46.6875 
L 34.90625 51.90625 
L 58.40625 51.90625 
L 58.40625 46.6875 
L 49.515625 46.6875 
L 34.078125 32.421875 
L 53.8125 5.171875 
L 61.28125 5.171875 
L 61.28125 0 
L 35.6875 0 
L 35.6875 5.171875 
L 43.109375 5.171875 
L 27.59375 26.515625 
L 20.515625 19.921875 
L 20.515625 5.171875 
L 28.609375 5.171875 
z
" id="DejaVuSerif-6b"/>
     </defs>
     <g style="fill:#d2d2d2;" transform="translate(53.456563 246.241406)rotate(-90)scale(0.18 -0.18)">
      <use xlink:href="#DejaVuSerif-75"/>
      <use x="64.404297" xlink:href="#DejaVuSerif-70"/>
      <use x="128.417969" xlink:href="#DejaVuSerif-74"/>
      <use x="168.603516" xlink:href="#DejaVuSerif-61"/>
      <use x="228.222656" xlink:href="#DejaVuSerif-6b"/>
      <use x="288.818359" xlink:href="#DejaVuSerif-65"/>
     </g>
    </g>
   </g>
   <g id="line2d_11">
    <path clip-path="url(#pce4567e086)" d="M 156.33 169.423896 
L 156.33 209.429091 
" style="fill:none;stroke:#525252;stroke-linecap:square;stroke-width:1.5;"/>
   </g>
   <g id="line2d_12">
    <path clip-path="url(#pce4567e086)" d="M 156.33 95.688831 
L 156.33 66.665455 
" style="fill:none;stroke:#525252;stroke-linecap:square;stroke-width:1.5;"/>
   </g>
   <g id="line2d_13">
    <path clip-path="url(#pce4567e086)" d="M 131.7222 209.429091 
L 180.9378 209.429091 
" style="fill:none;stroke:#525252;stroke-linecap:square;stroke-width:1.5;"/>
   </g>
   <g id="line2d_14">
    <path clip-path="url(#pce4567e086)" d="M 131.7222 66.665455 
L 180.9378 66.665455 
" style="fill:none;stroke:#525252;stroke-linecap:square;stroke-width:1.5;"/>
   </g>
   <g id="line2d_15">
    <defs>
     <path d="M 0 3.535534 
L 2.12132 0 
L 0 -3.535534 
L -2.12132 0 
z
" id="m9a5b402349" style="stroke:#525252;stroke-linejoin:miter;"/>
    </defs>
    <g clip-path="url(#pce4567e086)">
     <use style="fill:#525252;stroke:#525252;stroke-linejoin:miter;" x="156.33" xlink:href="#m9a5b402349" y="298.068052"/>
     <use style="fill:#525252;stroke:#525252;stroke-linejoin:miter;" x="156.33" xlink:href="#m9a5b402349" y="316.894026"/>
     <use style="fill:#525252;stroke:#525252;stroke-linejoin:miter;" x="156.33" xlink:href="#m9a5b402349" y="296.499221"/>
    </g>
   </g>
   <g id="line2d_16">
    <path clip-path="url(#pce4567e086)" d="M 256.77 251.003117 
L 256.77 340.426494 
" style="fill:none;stroke:#525252;stroke-linecap:square;stroke-width:1.5;"/>
   </g>
   <g id="line2d_17">
    <path clip-path="url(#pce4567e086)" d="M 256.77 179.621299 
L 256.77 145.107013 
" style="fill:none;stroke:#525252;stroke-linecap:square;stroke-width:1.5;"/>
   </g>
   <g id="line2d_18">
    <path clip-path="url(#pce4567e086)" d="M 232.1622 340.426494 
L 281.3778 340.426494 
" style="fill:none;stroke:#525252;stroke-linecap:square;stroke-width:1.5;"/>
   </g>
   <g id="line2d_19">
    <path clip-path="url(#pce4567e086)" d="M 232.1622 145.107013 
L 281.3778 145.107013 
" style="fill:none;stroke:#525252;stroke-linecap:square;stroke-width:1.5;"/>
   </g>
   <g id="line2d_20"/>
   <g id="line2d_21">
    <path clip-path="url(#pce4567e086)" d="M 407.43 209.429091 
L 407.43 312.187532 
" style="fill:none;stroke:#525252;stroke-linecap:square;stroke-width:1.5;"/>
   </g>
   <g id="line2d_22">
    <path clip-path="url(#pce4567e086)" d="M 407.43 120.005714 
L 407.43 90.982338 
" style="fill:none;stroke:#525252;stroke-linecap:square;stroke-width:1.5;"/>
   </g>
   <g id="line2d_23">
    <path clip-path="url(#pce4567e086)" d="M 382.8222 312.187532 
L 432.0378 312.187532 
" style="fill:none;stroke:#525252;stroke-linecap:square;stroke-width:1.5;"/>
   </g>
   <g id="line2d_24">
    <path clip-path="url(#pce4567e086)" d="M 382.8222 90.982338 
L 432.0378 90.982338 
" style="fill:none;stroke:#525252;stroke-linecap:square;stroke-width:1.5;"/>
   </g>
   <g id="line2d_25">
    <g clip-path="url(#pce4567e086)">
     <use style="fill:#525252;stroke:#525252;stroke-linejoin:miter;" x="407.43" xlink:href="#m9a5b402349" y="350.623896"/>
    </g>
   </g>
   <g id="line2d_26">
    <path clip-path="url(#pce4567e086)" d="M 507.87 325.522597 
L 507.87 363.174545 
" style="fill:none;stroke:#525252;stroke-linecap:square;stroke-width:1.5;"/>
   </g>
   <g id="line2d_27">
    <path clip-path="url(#pce4567e086)" d="M 507.87 275.32 
L 507.87 249.434286 
" style="fill:none;stroke:#525252;stroke-linecap:square;stroke-width:1.5;"/>
   </g>
   <g id="line2d_28">
    <path clip-path="url(#pce4567e086)" d="M 483.2622 363.174545 
L 532.4778 363.174545 
" style="fill:none;stroke:#525252;stroke-linecap:square;stroke-width:1.5;"/>
   </g>
   <g id="line2d_29">
    <path clip-path="url(#pce4567e086)" d="M 483.2622 249.434286 
L 532.4778 249.434286 
" style="fill:none;stroke:#525252;stroke-linecap:square;stroke-width:1.5;"/>
   </g>
   <g id="line2d_30"/>
   <g id="line2d_31">
    <path clip-path="url(#pce4567e086)" d="M 107.1144 116.083636 
L 205.5456 116.083636 
" style="fill:none;stroke:#525252;stroke-linecap:square;stroke-width:1.5;"/>
   </g>
   <g id="line2d_32">
    <path clip-path="url(#pce4567e086)" d="M 207.5544 203.153766 
L 305.9856 203.153766 
" style="fill:none;stroke:#525252;stroke-linecap:square;stroke-width:1.5;"/>
   </g>
   <g id="line2d_33">
    <path clip-path="url(#pce4567e086)" d="M 358.2144 149.029091 
L 456.6456 149.029091 
" style="fill:none;stroke:#525252;stroke-linecap:square;stroke-width:1.5;"/>
   </g>
   <g id="line2d_34">
    <path clip-path="url(#pce4567e086)" d="M 458.6544 283.164156 
L 557.0856 283.164156 
" style="fill:none;stroke:#525252;stroke-linecap:square;stroke-width:1.5;"/>
   </g>
   <g id="patch_9">
    <path d="M 81 378 
L 81 51.84 
" style="fill:none;stroke:#d2d2d2;stroke-linecap:square;stroke-linejoin:miter;stroke-width:1.5;"/>
   </g>
   <g id="patch_10">
    <path d="M 81 378 
L 583.2 378 
" style="fill:none;stroke:#d2d2d2;stroke-linecap:square;stroke-linejoin:miter;stroke-width:1.5;"/>
   </g>
   <g id="legend_1">
    <g id="patch_11">
     <path d="M 487.839063 109.003781 
L 576.2 109.003781 
Q 578.2 109.003781 578.2 107.003781 
L 578.2 58.84 
Q 578.2 56.84 576.2 56.84 
L 487.839063 56.84 
Q 485.839063 56.84 485.839063 58.84 
L 485.839063 107.003781 
Q 485.839063 109.003781 487.839063 109.003781 
z
" style="fill:#ffffff;opacity:0.8;stroke:#cccccc;stroke-linejoin:miter;"/>
    </g>
    <g id="text_13">
     <!-- Factors -->
     <defs>
      <path d="M 5.515625 0 
L 5.515625 5.171875 
L 14.796875 5.171875 
L 14.796875 67.671875 
L 5.515625 67.671875 
L 5.515625 72.90625 
L 65.1875 72.90625 
L 65.1875 56.6875 
L 59.1875 56.6875 
L 59.1875 66.890625 
L 24.703125 66.890625 
L 24.703125 42.484375 
L 49.609375 42.484375 
L 49.609375 51.609375 
L 55.609375 51.609375 
L 55.609375 27.390625 
L 49.609375 27.390625 
L 49.609375 36.53125 
L 24.703125 36.53125 
L 24.703125 5.171875 
L 36.375 5.171875 
L 36.375 0 
z
" id="DejaVuSerif-46"/>
      <path d="M 5.609375 2.875 
L 5.609375 14.984375 
L 10.796875 14.984375 
Q 10.984375 9.1875 14.421875 6.296875 
Q 17.875 3.421875 24.609375 3.421875 
Q 30.671875 3.421875 33.84375 5.6875 
Q 37.015625 7.953125 37.015625 12.3125 
Q 37.015625 15.71875 34.6875 17.8125 
Q 32.375 19.921875 24.90625 22.3125 
L 18.40625 24.515625 
Q 11.71875 26.65625 8.71875 29.875 
Q 5.71875 33.109375 5.71875 38.09375 
Q 5.71875 45.21875 10.9375 49.265625 
Q 16.15625 53.328125 25.390625 53.328125 
Q 29.5 53.328125 34.03125 52.25 
Q 38.578125 51.171875 43.40625 49.125 
L 43.40625 37.796875 
L 38.234375 37.796875 
Q 38.03125 42.828125 34.703125 45.65625 
Q 31.390625 48.484375 25.6875 48.484375 
Q 20.015625 48.484375 17.109375 46.484375 
Q 14.203125 44.484375 14.203125 40.484375 
Q 14.203125 37.203125 16.40625 35.21875 
Q 18.609375 33.25 25.203125 31.203125 
L 32.328125 29 
Q 39.703125 26.703125 42.9375 23.265625 
Q 46.1875 19.828125 46.1875 14.40625 
Q 46.1875 7.03125 40.546875 2.796875 
Q 34.90625 -1.421875 25 -1.421875 
Q 19.96875 -1.421875 15.1875 -0.34375 
Q 10.40625 0.734375 5.609375 2.875 
z
" id="DejaVuSerif-73"/>
     </defs>
     <g style="fill:#202020;" transform="translate(502.611258 72.465609)scale(0.153 -0.153)">
      <use xlink:href="#DejaVuSerif-46"/>
      <use x="69.291016" xlink:href="#DejaVuSerif-61"/>
      <use x="128.910156" xlink:href="#DejaVuSerif-63"/>
      <use x="184.916016" xlink:href="#DejaVuSerif-74"/>
      <use x="225.101562" xlink:href="#DejaVuSerif-6f"/>
      <use x="285.306641" xlink:href="#DejaVuSerif-72"/>
      <use x="333.109375" xlink:href="#DejaVuSerif-73"/>
     </g>
    </g>
    <g id="patch_12">
     <path d="M 489.839063 88.245969 
L 509.839063 88.245969 
L 509.839063 81.245969 
L 489.839063 81.245969 
z
" style="fill:#e4ce7f;stroke:#525252;stroke-linejoin:miter;stroke-width:0.75;"/>
    </g>
    <g id="text_14">
     <!-- Quebec -->
     <defs>
      <path d="M 42.1875 -1.421875 
Q 25.4375 -1.421875 15.515625 8.859375 
Q 5.609375 19.140625 5.609375 36.375 
Q 5.609375 45.21875 8.265625 52.171875 
Q 10.9375 59.125 16.40625 64.59375 
Q 21.1875 69.390625 27.34375 71.796875 
Q 33.5 74.21875 41.015625 74.21875 
Q 56.890625 74.21875 66.65625 63.8125 
Q 76.421875 53.421875 76.421875 36.375 
Q 76.421875 21.921875 69.09375 12.078125 
Q 61.765625 2.25 48.875 -0.59375 
Q 51.515625 -3.859375 55.296875 -5.421875 
Q 59.078125 -6.984375 64.40625 -6.984375 
L 65.921875 -6.984375 
L 65.921875 -16.015625 
Q 57.671875 -15.625 51.78125 -11.984375 
Q 45.90625 -8.34375 42.1875 -1.421875 
z
M 41.015625 3.8125 
Q 52.984375 3.8125 59.078125 12.03125 
Q 65.1875 20.265625 65.1875 36.375 
Q 65.1875 52.546875 59.078125 60.765625 
Q 52.984375 69 41.015625 69 
Q 29 69 22.890625 60.765625 
Q 16.796875 52.546875 16.796875 36.375 
Q 16.796875 20.265625 22.890625 12.03125 
Q 29 3.8125 41.015625 3.8125 
z
" id="DejaVuSerif-51"/>
      <path d="M 11.53125 5.171875 
L 11.53125 70.796875 
L 2.875 70.796875 
L 2.875 75.984375 
L 20.515625 75.984375 
L 20.515625 43.796875 
Q 23.140625 48.6875 27.21875 51 
Q 31.296875 53.328125 37.3125 53.328125 
Q 46.875 53.328125 52.921875 45.75 
Q 58.984375 38.1875 58.984375 25.984375 
Q 58.984375 13.765625 52.921875 6.171875 
Q 46.875 -1.421875 37.3125 -1.421875 
Q 31.296875 -1.421875 27.21875 0.890625 
Q 23.140625 3.21875 20.515625 8.109375 
L 20.515625 0 
L 2.875 0 
L 2.875 5.171875 
z
M 20.515625 23.390625 
Q 20.515625 14.015625 24.09375 9.109375 
Q 27.6875 4.203125 34.515625 4.203125 
Q 41.40625 4.203125 44.9375 9.71875 
Q 48.484375 15.234375 48.484375 25.984375 
Q 48.484375 36.765625 44.9375 42.234375 
Q 41.40625 47.703125 34.515625 47.703125 
Q 27.6875 47.703125 24.09375 42.765625 
Q 20.515625 37.84375 20.515625 28.515625 
z
" id="DejaVuSerif-62"/>
     </defs>
     <g style="fill:#202020;" transform="translate(517.839063 88.245969)scale(0.1 -0.1)">
      <use xlink:href="#DejaVuSerif-51"/>
      <use x="81.982422" xlink:href="#DejaVuSerif-75"/>
      <use x="146.386719" xlink:href="#DejaVuSerif-65"/>
      <use x="205.566406" xlink:href="#DejaVuSerif-62"/>
      <use x="269.580078" xlink:href="#DejaVuSerif-65"/>
      <use x="328.759766" xlink:href="#DejaVuSerif-63"/>
     </g>
    </g>
    <g id="patch_13">
     <path d="M 489.839063 102.924094 
L 509.839063 102.924094 
L 509.839063 95.924094 
L 489.839063 95.924094 
z
" style="fill:#78aa66;stroke:#525252;stroke-linejoin:miter;stroke-width:0.75;"/>
    </g>
    <g id="text_15">
     <!-- Mississippi -->
     <defs>
      <path d="M 5.515625 0 
L 5.515625 5.171875 
L 14.796875 5.171875 
L 14.796875 67.671875 
L 4.984375 67.671875 
L 4.984375 72.90625 
L 26.21875 72.90625 
L 51.8125 21 
L 77.390625 72.90625 
L 97.3125 72.90625 
L 97.3125 67.671875 
L 87.59375 67.671875 
L 87.59375 5.171875 
L 96.921875 5.171875 
L 96.921875 0 
L 68.40625 0 
L 68.40625 5.171875 
L 77.6875 5.171875 
L 77.6875 61.53125 
L 52.6875 10.6875 
L 45.796875 10.6875 
L 20.796875 61.53125 
L 20.796875 5.171875 
L 30.078125 5.171875 
L 30.078125 0 
z
" id="DejaVuSerif-4d"/>
     </defs>
     <g style="fill:#202020;" transform="translate(517.839063 102.924094)scale(0.1 -0.1)">
      <use xlink:href="#DejaVuSerif-4d"/>
      <use x="102.392578" xlink:href="#DejaVuSerif-69"/>
      <use x="134.375" xlink:href="#DejaVuSerif-73"/>
      <use x="185.693359" xlink:href="#DejaVuSerif-73"/>
      <use x="237.011719" xlink:href="#DejaVuSerif-69"/>
      <use x="268.994141" xlink:href="#DejaVuSerif-73"/>
      <use x="320.3125" xlink:href="#DejaVuSerif-73"/>
      <use x="371.630859" xlink:href="#DejaVuSerif-69"/>
      <use x="403.613281" xlink:href="#DejaVuSerif-70"/>
      <use x="467.626953" xlink:href="#DejaVuSerif-70"/>
      <use x="531.640625" xlink:href="#DejaVuSerif-69"/>
     </g>
    </g>
   </g>
  </g>
  <g id="axes_2">
   <g id="PathCollection_1">
    <defs>
     <path d="M 0 6 
C 1.591219 6 3.117479 5.367802 4.242641 4.242641 
C 5.367802 3.117479 6 1.591219 6 0 
C 6 -1.591219 5.367802 -3.117479 4.242641 -4.242641 
C 3.117479 -5.367802 1.591219 -6 0 -6 
C -1.591219 -6 -3.117479 -5.367802 -4.242641 -4.242641 
C -5.367802 -3.117479 -6 -1.591219 -6 0 
C -6 1.591219 -5.367802 3.117479 -4.242641 4.242641 
C -3.117479 5.367802 -1.591219 6 0 6 
z
" id="C0_0_8a8e75e573"/>
    </defs>
    <g clip-path="url(#pce4567e086)">
     <use style="fill:#9469ad;fill-opacity:0.5;" x="206.55" xlink:href="#C0_0_8a8e75e573" y="340.426494"/>
    </g>
    <g clip-path="url(#pce4567e086)">
     <use style="fill:#9469ad;fill-opacity:0.5;" x="195.319541" xlink:href="#C0_0_8a8e75e573" y="334.935584"/>
    </g>
    <g clip-path="url(#pce4567e086)">
     <use style="fill:#9469ad;fill-opacity:0.5;" x="211.861575" xlink:href="#C0_0_8a8e75e573" y="329.444675"/>
    </g>
    <g clip-path="url(#pce4567e086)">
     <use style="fill:#9469ad;fill-opacity:0.5;" x="206.55" xlink:href="#C0_0_8a8e75e573" y="316.894026"/>
    </g>
    <g clip-path="url(#pce4567e086)">
     <use style="fill:#9469ad;fill-opacity:0.5;" x="206.55" xlink:href="#C0_0_8a8e75e573" y="298.068052"/>
    </g>
    <g clip-path="url(#pce4567e086)">
     <use style="fill:#9469ad;fill-opacity:0.5;" x="194.056171" xlink:href="#C0_0_8a8e75e573" y="296.499221"/>
    </g>
    <g clip-path="url(#pce4567e086)">
     <use style="fill:#9469ad;fill-opacity:0.5;" x="206.55" xlink:href="#C0_0_8a8e75e573" y="272.966753"/>
    </g>
    <g clip-path="url(#pce4567e086)">
     <use style="fill:#9469ad;fill-opacity:0.5;" x="194.056171" xlink:href="#C0_0_8a8e75e573" y="271.397922"/>
    </g>
    <g clip-path="url(#pce4567e086)">
     <use style="fill:#9469ad;fill-opacity:0.5;" x="206.55" xlink:href="#C0_0_8a8e75e573" y="251.003117"/>
    </g>
    <g clip-path="url(#pce4567e086)">
     <use style="fill:#9469ad;fill-opacity:0.5;" x="206.55" xlink:href="#C0_0_8a8e75e573" y="221.195325"/>
    </g>
    <g clip-path="url(#pce4567e086)">
     <use style="fill:#9469ad;fill-opacity:0.5;" x="194.380239" xlink:href="#C0_0_8a8e75e573" y="218.057662"/>
    </g>
    <g clip-path="url(#pce4567e086)">
     <use style="fill:#9469ad;fill-opacity:0.5;" x="203.567187" xlink:href="#C0_0_8a8e75e573" y="209.429091"/>
    </g>
    <g clip-path="url(#pce4567e086)">
     <use style="fill:#9469ad;fill-opacity:0.5;" x="215.488117" xlink:href="#C0_0_8a8e75e573" y="205.507013"/>
    </g>
    <g clip-path="url(#pce4567e086)">
     <use style="fill:#9469ad;fill-opacity:0.5;" x="191.957624" xlink:href="#C0_0_8a8e75e573" y="204.722597"/>
    </g>
    <g clip-path="url(#pce4567e086)">
     <use style="fill:#9469ad;fill-opacity:0.5;" x="227.84795" xlink:href="#C0_0_8a8e75e573" y="203.153766"/>
    </g>
    <g clip-path="url(#pce4567e086)">
     <use style="fill:#9469ad;fill-opacity:0.5;" x="180.348061" xlink:href="#C0_0_8a8e75e573" y="200.016104"/>
    </g>
    <g clip-path="url(#pce4567e086)">
     <use style="fill:#9469ad;fill-opacity:0.5;" x="206.55" xlink:href="#C0_0_8a8e75e573" y="188.24987"/>
    </g>
    <g clip-path="url(#pce4567e086)">
     <use style="fill:#9469ad;fill-opacity:0.5;" x="194.380239" xlink:href="#C0_0_8a8e75e573" y="185.112208"/>
    </g>
    <g clip-path="url(#pce4567e086)">
     <use style="fill:#9469ad;fill-opacity:0.5;" x="218.159563" xlink:href="#C0_0_8a8e75e573" y="183.543377"/>
    </g>
    <g clip-path="url(#pce4567e086)">
     <use style="fill:#9469ad;fill-opacity:0.5;" x="230.519396" xlink:href="#C0_0_8a8e75e573" y="181.19013"/>
    </g>
    <g clip-path="url(#pce4567e086)">
     <use style="fill:#9469ad;fill-opacity:0.5;" x="183.14978" xlink:href="#C0_0_8a8e75e573" y="179.621299"/>
    </g>
    <g clip-path="url(#pce4567e086)">
     <use style="fill:#9469ad;fill-opacity:0.5;" x="203.567187" xlink:href="#C0_0_8a8e75e573" y="176.483636"/>
    </g>
    <g clip-path="url(#pce4567e086)">
     <use style="fill:#9469ad;fill-opacity:0.5;" x="240.757042" xlink:href="#C0_0_8a8e75e573" y="174.13039"/>
    </g>
    <g clip-path="url(#pce4567e086)">
     <use style="fill:#9469ad;fill-opacity:0.5;" x="213.804832" xlink:href="#C0_0_8a8e75e573" y="169.423896"/>
    </g>
    <g clip-path="url(#pce4567e086)">
     <use style="fill:#9469ad;fill-opacity:0.5;" x="193.329541" xlink:href="#C0_0_8a8e75e573" y="169.423896"/>
    </g>
    <g clip-path="url(#pce4567e086)">
     <use style="fill:#9469ad;fill-opacity:0.5;" x="226.404832" xlink:href="#C0_0_8a8e75e573" y="169.423896"/>
    </g>
    <g clip-path="url(#pce4567e086)">
     <use style="fill:#9469ad;fill-opacity:0.5;" x="206.55" xlink:href="#C0_0_8a8e75e573" y="150.597922"/>
    </g>
    <g clip-path="url(#pce4567e086)">
     <use style="fill:#9469ad;fill-opacity:0.5;" x="194.62907" xlink:href="#C0_0_8a8e75e573" y="146.675844"/>
    </g>
    <g clip-path="url(#pce4567e086)">
     <use style="fill:#9469ad;fill-opacity:0.5;" x="217.780459" xlink:href="#C0_0_8a8e75e573" y="145.107013"/>
    </g>
    <g clip-path="url(#pce4567e086)">
     <use style="fill:#9469ad;fill-opacity:0.5;" x="206.55" xlink:href="#C0_0_8a8e75e573" y="132.556364"/>
    </g>
    <g clip-path="url(#pce4567e086)">
     <use style="fill:#9469ad;fill-opacity:0.5;" x="193.976459" xlink:href="#C0_0_8a8e75e573" y="131.771948"/>
    </g>
    <g clip-path="url(#pce4567e086)">
     <use style="fill:#9469ad;fill-opacity:0.5;" x="206.55" xlink:href="#C0_0_8a8e75e573" y="116.083636"/>
    </g>
    <g clip-path="url(#pce4567e086)">
     <use style="fill:#9469ad;fill-opacity:0.5;" x="194.62907" xlink:href="#C0_0_8a8e75e573" y="112.161558"/>
    </g>
    <g clip-path="url(#pce4567e086)">
     <use style="fill:#9469ad;fill-opacity:0.5;" x="215.391216" xlink:href="#C0_0_8a8e75e573" y="107.455065"/>
    </g>
    <g clip-path="url(#pce4567e086)">
     <use style="fill:#9469ad;fill-opacity:0.5;" x="227.75105" xlink:href="#C0_0_8a8e75e573" y="105.101818"/>
    </g>
    <g clip-path="url(#pce4567e086)">
     <use style="fill:#9469ad;fill-opacity:0.5;" x="206.55" xlink:href="#C0_0_8a8e75e573" y="98.826494"/>
    </g>
    <g clip-path="url(#pce4567e086)">
     <use style="fill:#9469ad;fill-opacity:0.5;" x="218.37403" xlink:href="#C0_0_8a8e75e573" y="95.688831"/>
    </g>
    <g clip-path="url(#pce4567e086)">
     <use style="fill:#9469ad;fill-opacity:0.5;" x="195.319541" xlink:href="#C0_0_8a8e75e573" y="93.335584"/>
    </g>
    <g clip-path="url(#pce4567e086)">
     <use style="fill:#9469ad;fill-opacity:0.5;" x="209.532813" xlink:href="#C0_0_8a8e75e573" y="87.06026"/>
    </g>
    <g clip-path="url(#pce4567e086)">
     <use style="fill:#9469ad;fill-opacity:0.5;" x="199.93311" xlink:href="#C0_0_8a8e75e573" y="79.216104"/>
    </g>
    <g clip-path="url(#pce4567e086)">
     <use style="fill:#9469ad;fill-opacity:0.5;" x="214.844388" xlink:href="#C0_0_8a8e75e573" y="76.078442"/>
    </g>
    <g clip-path="url(#pce4567e086)">
     <use style="fill:#9469ad;fill-opacity:0.5;" x="206.55" xlink:href="#C0_0_8a8e75e573" y="66.665455"/>
    </g>
   </g>
   <g id="PathCollection_2">
    <defs>
     <path d="M 0 6 
C 1.591219 6 3.117479 5.367802 4.242641 4.242641 
C 5.367802 3.117479 6 1.591219 6 0 
C 6 -1.591219 5.367802 -3.117479 4.242641 -4.242641 
C 3.117479 -5.367802 1.591219 -6 0 -6 
C -1.591219 -6 -3.117479 -5.367802 -4.242641 -4.242641 
C -5.367802 -3.117479 -6 -1.591219 -6 0 
C -6 1.591219 -5.367802 3.117479 -4.242641 4.242641 
C -3.117479 5.367802 -1.591219 6 0 6 
z
" id="C1_0_47b7378523"/>
    </defs>
    <g clip-path="url(#pce4567e086)">
     <use style="fill:#f79a52;fill-opacity:0.5;" x="457.65" xlink:href="#C1_0_47b7378523" y="363.174545"/>
    </g>
    <g clip-path="url(#pce4567e086)">
     <use style="fill:#f79a52;fill-opacity:0.5;" x="457.65" xlink:href="#C1_0_47b7378523" y="350.623896"/>
    </g>
    <g clip-path="url(#pce4567e086)">
     <use style="fill:#f79a52;fill-opacity:0.5;" x="449.72234" xlink:href="#C1_0_47b7378523" y="341.210909"/>
    </g>
    <g clip-path="url(#pce4567e086)">
     <use style="fill:#f79a52;fill-opacity:0.5;" x="464.446791" xlink:href="#C1_0_47b7378523" y="340.426494"/>
    </g>
    <g clip-path="url(#pce4567e086)">
     <use style="fill:#f79a52;fill-opacity:0.5;" x="475.223263" xlink:href="#C1_0_47b7378523" y="334.151169"/>
    </g>
    <g clip-path="url(#pce4567e086)">
     <use style="fill:#f79a52;fill-opacity:0.5;" x="457.65" xlink:href="#C1_0_47b7378523" y="327.091429"/>
    </g>
    <g clip-path="url(#pce4567e086)">
     <use style="fill:#f79a52;fill-opacity:0.5;" x="445.156171" xlink:href="#C1_0_47b7378523" y="325.522597"/>
    </g>
    <g clip-path="url(#pce4567e086)">
     <use style="fill:#f79a52;fill-opacity:0.5;" x="468.880459" xlink:href="#C1_0_47b7378523" y="321.600519"/>
    </g>
    <g clip-path="url(#pce4567e086)">
     <use style="fill:#f79a52;fill-opacity:0.5;" x="437.228511" xlink:href="#C1_0_47b7378523" y="316.10961"/>
    </g>
    <g clip-path="url(#pce4567e086)">
     <use style="fill:#f79a52;fill-opacity:0.5;" x="457.65" xlink:href="#C1_0_47b7378523" y="312.187532"/>
    </g>
    <g clip-path="url(#pce4567e086)">
     <use style="fill:#f79a52;fill-opacity:0.5;" x="474.192034" xlink:href="#C1_0_47b7378523" y="310.618701"/>
    </g>
    <g clip-path="url(#pce4567e086)">
     <use style="fill:#f79a52;fill-opacity:0.5;" x="446.419541" xlink:href="#C1_0_47b7378523" y="306.696623"/>
    </g>
    <g clip-path="url(#pce4567e086)">
     <use style="fill:#f79a52;fill-opacity:0.5;" x="431.916936" xlink:href="#C1_0_47b7378523" y="305.127792"/>
    </g>
    <g clip-path="url(#pce4567e086)">
     <use style="fill:#f79a52;fill-opacity:0.5;" x="457.65" xlink:href="#C1_0_47b7378523" y="283.164156"/>
    </g>
    <g clip-path="url(#pce4567e086)">
     <use style="fill:#f79a52;fill-opacity:0.5;" x="445.05" xlink:href="#C1_0_47b7378523" y="283.164156"/>
    </g>
    <g clip-path="url(#pce4567e086)">
     <use style="fill:#f79a52;fill-opacity:0.5;" x="470.25" xlink:href="#C1_0_47b7378523" y="283.164156"/>
    </g>
    <g clip-path="url(#pce4567e086)">
     <use style="fill:#f79a52;fill-opacity:0.5;" x="432.476459" xlink:href="#C1_0_47b7378523" y="282.37974"/>
    </g>
    <g clip-path="url(#pce4567e086)">
     <use style="fill:#f79a52;fill-opacity:0.5;" x="482.743829" xlink:href="#C1_0_47b7378523" y="281.595325"/>
    </g>
    <g clip-path="url(#pce4567e086)">
     <use style="fill:#f79a52;fill-opacity:0.5;" x="422.238813" xlink:href="#C1_0_47b7378523" y="275.32"/>
    </g>
    <g clip-path="url(#pce4567e086)">
     <use style="fill:#f79a52;fill-opacity:0.5;" x="493.520302" xlink:href="#C1_0_47b7378523" y="275.32"/>
    </g>
    <g clip-path="url(#pce4567e086)">
     <use style="fill:#f79a52;fill-opacity:0.5;" x="457.65" xlink:href="#C1_0_47b7378523" y="270.613506"/>
    </g>
    <g clip-path="url(#pce4567e086)">
     <use style="fill:#f79a52;fill-opacity:0.5;" x="445.480239" xlink:href="#C1_0_47b7378523" y="267.475844"/>
    </g>
    <g clip-path="url(#pce4567e086)">
     <use style="fill:#f79a52;fill-opacity:0.5;" x="454.667187" xlink:href="#C1_0_47b7378523" y="258.847273"/>
    </g>
    <g clip-path="url(#pce4567e086)">
     <use style="fill:#f79a52;fill-opacity:0.5;" x="464.904832" xlink:href="#C1_0_47b7378523" y="251.787532"/>
    </g>
    <g clip-path="url(#pce4567e086)">
     <use style="fill:#f79a52;fill-opacity:0.5;" x="446.739527" xlink:href="#C1_0_47b7378523" y="249.434286"/>
    </g>
    <g clip-path="url(#pce4567e086)">
     <use style="fill:#f79a52;fill-opacity:0.5;" x="457.65" xlink:href="#C1_0_47b7378523" y="234.53039"/>
    </g>
    <g clip-path="url(#pce4567e086)">
     <use style="fill:#f79a52;fill-opacity:0.5;" x="457.65" xlink:href="#C1_0_47b7378523" y="209.429091"/>
    </g>
    <g clip-path="url(#pce4567e086)">
     <use style="fill:#f79a52;fill-opacity:0.5;" x="457.65" xlink:href="#C1_0_47b7378523" y="185.896623"/>
    </g>
    <g clip-path="url(#pce4567e086)">
     <use style="fill:#f79a52;fill-opacity:0.5;" x="457.65" xlink:href="#C1_0_47b7378523" y="168.639481"/>
    </g>
    <g clip-path="url(#pce4567e086)">
     <use style="fill:#f79a52;fill-opacity:0.5;" x="454.667187" xlink:href="#C1_0_47b7378523" y="156.873247"/>
    </g>
    <g clip-path="url(#pce4567e086)">
     <use style="fill:#f79a52;fill-opacity:0.5;" x="466.276749" xlink:href="#C1_0_47b7378523" y="152.166753"/>
    </g>
    <g clip-path="url(#pce4567e086)">
     <use style="fill:#f79a52;fill-opacity:0.5;" x="445.067483" xlink:href="#C1_0_47b7378523" y="149.029091"/>
    </g>
    <g clip-path="url(#pce4567e086)">
     <use style="fill:#f79a52;fill-opacity:0.5;" x="477.053221" xlink:href="#C1_0_47b7378523" y="145.891429"/>
    </g>
    <g clip-path="url(#pce4567e086)">
     <use style="fill:#f79a52;fill-opacity:0.5;" x="457.65" xlink:href="#C1_0_47b7378523" y="129.418701"/>
    </g>
    <g clip-path="url(#pce4567e086)">
     <use style="fill:#f79a52;fill-opacity:0.5;" x="446.040437" xlink:href="#C1_0_47b7378523" y="124.712208"/>
    </g>
    <g clip-path="url(#pce4567e086)">
     <use style="fill:#f79a52;fill-opacity:0.5;" x="466.491216" xlink:href="#C1_0_47b7378523" y="120.79013"/>
    </g>
    <g clip-path="url(#pce4567e086)">
     <use style="fill:#f79a52;fill-opacity:0.5;" x="479.064758" xlink:href="#C1_0_47b7378523" y="120.005714"/>
    </g>
    <g clip-path="url(#pce4567e086)">
     <use style="fill:#f79a52;fill-opacity:0.5;" x="434.809978" xlink:href="#C1_0_47b7378523" y="119.221299"/>
    </g>
    <g clip-path="url(#pce4567e086)">
     <use style="fill:#f79a52;fill-opacity:0.5;" x="491.558587" xlink:href="#C1_0_47b7378523" y="118.436883"/>
    </g>
    <g clip-path="url(#pce4567e086)">
     <use style="fill:#f79a52;fill-opacity:0.5;" x="456.891513" xlink:href="#C1_0_47b7378523" y="112.945974"/>
    </g>
    <g clip-path="url(#pce4567e086)">
     <use style="fill:#f79a52;fill-opacity:0.5;" x="457.65" xlink:href="#C1_0_47b7378523" y="98.826494"/>
    </g>
    <g clip-path="url(#pce4567e086)">
     <use style="fill:#f79a52;fill-opacity:0.5;" x="448.050297" xlink:href="#C1_0_47b7378523" y="90.982338"/>
    </g>
   </g>
  </g>
 </g>
 <defs>
  <clipPath id="pce4567e086">
   <rect height="326.16" width="502.2" x="81" y="51.84"/>
  </clipPath>
 </defs>
</svg>
