<?xml version="1.0" encoding="utf-8" standalone="no"?>
<!DOCTYPE svg PUBLIC "-//W3C//DTD SVG 1.1//EN"
  "http://www.w3.org/Graphics/SVG/1.1/DTD/svg11.dtd">
<!-- Created with matplotlib (http://matplotlib.org/) -->
<svg height="288pt" version="1.1" viewBox="0 0 648 288" width="648pt" xmlns="http://www.w3.org/2000/svg" xmlns:xlink="http://www.w3.org/1999/xlink">
 <defs>
  <style type="text/css">
*{stroke-linecap:butt;stroke-linejoin:round;}
  </style>
 </defs>
 <g id="figure_1">
  <g id="patch_1">
   <path d="M 0 288 
L 648 288 
L 648 0 
L 0 0 
z
" style="fill:#ffffff;"/>
  </g>
  <g id="axes_1">
   <g id="patch_2">
    <path d="M 81 252 
L 583.2 252 
L 583.2 34.56 
L 81 34.56 
z
" style="fill:none;opacity:0;"/>
   </g>
   <g id="patch_3">
    <path clip-path="url(#p32af3b2d72)" d="M 81.004794 252 
L 88.666083 252 
L 88.666083 44.914286 
L 81.004794 44.914286 
z
" style="fill:#88c9c1;stroke:#a6a6a6;stroke-linejoin:miter;"/>
   </g>
   <g id="patch_4">
    <path clip-path="url(#p32af3b2d72)" d="M 88.666083 252 
L 96.327372 252 
L 96.327372 69.631638 
L 88.666083 69.631638 
z
" style="fill:#88c9c1;stroke:#a6a6a6;stroke-linejoin:miter;"/>
   </g>
   <g id="patch_5">
    <path clip-path="url(#p32af3b2d72)" d="M 96.327372 252 
L 103.988661 252 
L 103.988661 86.871472 
L 96.327372 86.871472 
z
" style="fill:#88c9c1;stroke:#a6a6a6;stroke-linejoin:miter;"/>
   </g>
   <g id="patch_6">
    <path clip-path="url(#p32af3b2d72)" d="M 103.988661 252 
L 111.64995 252 
L 111.64995 106.603811 
L 103.988661 106.603811 
z
" style="fill:#88c9c1;stroke:#a6a6a6;stroke-linejoin:miter;"/>
   </g>
   <g id="patch_7">
    <path clip-path="url(#p32af3b2d72)" d="M 111.64995 252 
L 119.311239 252 
L 119.311239 115.535292 
L 111.64995 115.535292 
z
" style="fill:#88c9c1;stroke:#a6a6a6;stroke-linejoin:miter;"/>
   </g>
   <g id="patch_8">
    <path clip-path="url(#p32af3b2d72)" d="M 119.311239 252 
L 126.972528 252 
L 126.972528 129.451784 
L 119.311239 129.451784 
z
" style="fill:#88c9c1;stroke:#a6a6a6;stroke-linejoin:miter;"/>
   </g>
   <g id="patch_9">
    <path clip-path="url(#p32af3b2d72)" d="M 126.972528 252 
L 134.633817 252 
L 134.633817 146.483909 
L 126.972528 146.483909 
z
" style="fill:#88c9c1;stroke:#a6a6a6;stroke-linejoin:miter;"/>
   </g>
   <g id="patch_10">
    <path clip-path="url(#p32af3b2d72)" d="M 134.633817 252 
L 142.295106 252 
L 142.295106 161.854363 
L 134.633817 161.854363 
z
" style="fill:#88c9c1;stroke:#a6a6a6;stroke-linejoin:miter;"/>
   </g>
   <g id="patch_11">
    <path clip-path="url(#p32af3b2d72)" d="M 142.295106 252 
L 149.956395 252 
L 149.956395 163.931451 
L 142.295106 163.931451 
z
" style="fill:#88c9c1;stroke:#a6a6a6;stroke-linejoin:miter;"/>
   </g>
   <g id="patch_12">
    <path clip-path="url(#p32af3b2d72)" d="M 149.956395 252 
L 157.617684 252 
L 157.617684 172.447514 
L 149.956395 172.447514 
z
" style="fill:#88c9c1;stroke:#a6a6a6;stroke-linejoin:miter;"/>
   </g>
   <g id="patch_13">
    <path clip-path="url(#p32af3b2d72)" d="M 157.617684 252 
L 165.278972 252 
L 165.278972 182.625247 
L 157.617684 182.625247 
z
" style="fill:#88c9c1;stroke:#a6a6a6;stroke-linejoin:miter;"/>
   </g>
   <g id="patch_14">
    <path clip-path="url(#p32af3b2d72)" d="M 165.278972 252 
L 172.940261 252 
L 172.940261 181.794412 
L 165.278972 181.794412 
z
" style="fill:#88c9c1;stroke:#a6a6a6;stroke-linejoin:miter;"/>
   </g>
   <g id="patch_15">
    <path clip-path="url(#p32af3b2d72)" d="M 172.940261 252 
L 180.60155 252 
L 180.60155 189.895057 
L 172.940261 189.895057 
z
" style="fill:#88c9c1;stroke:#a6a6a6;stroke-linejoin:miter;"/>
   </g>
   <g id="patch_16">
    <path clip-path="url(#p32af3b2d72)" d="M 180.60155 252 
L 188.262839 252 
L 188.262839 203.811549 
L 180.60155 203.811549 
z
" style="fill:#88c9c1;stroke:#a6a6a6;stroke-linejoin:miter;"/>
   </g>
   <g id="patch_17">
    <path clip-path="url(#p32af3b2d72)" d="M 188.262839 252 
L 195.924128 252 
L 195.924128 199.657372 
L 188.262839 199.657372 
z
" style="fill:#88c9c1;stroke:#a6a6a6;stroke-linejoin:miter;"/>
   </g>
   <g id="patch_18">
    <path clip-path="url(#p32af3b2d72)" d="M 195.924128 252 
L 203.585417 252 
L 203.585417 209.419688 
L 195.924128 209.419688 
z
" style="fill:#88c9c1;stroke:#a6a6a6;stroke-linejoin:miter;"/>
   </g>
   <g id="patch_19">
    <path clip-path="url(#p32af3b2d72)" d="M 203.585417 252 
L 211.246706 252 
L 211.246706 210.458232 
L 203.585417 210.458232 
z
" style="fill:#88c9c1;stroke:#a6a6a6;stroke-linejoin:miter;"/>
   </g>
   <g id="patch_20">
    <path clip-path="url(#p32af3b2d72)" d="M 211.246706 252 
L 218.907995 252 
L 218.907995 217.93575 
L 211.246706 217.93575 
z
" style="fill:#88c9c1;stroke:#a6a6a6;stroke-linejoin:miter;"/>
   </g>
   <g id="patch_21">
    <path clip-path="url(#p32af3b2d72)" d="M 218.907995 252 
L 226.569284 252 
L 226.569284 218.351168 
L 218.907995 218.351168 
z
" style="fill:#88c9c1;stroke:#a6a6a6;stroke-linejoin:miter;"/>
   </g>
   <g id="patch_22">
    <path clip-path="url(#p32af3b2d72)" d="M 226.569284 252 
L 234.230573 252 
L 234.230573 223.959306 
L 226.569284 223.959306 
z
" style="fill:#88c9c1;stroke:#a6a6a6;stroke-linejoin:miter;"/>
   </g>
   <g id="patch_23">
    <path clip-path="url(#p32af3b2d72)" d="M 234.230573 252 
L 241.891862 252 
L 241.891862 221.259092 
L 234.230573 221.259092 
z
" style="fill:#88c9c1;stroke:#a6a6a6;stroke-linejoin:miter;"/>
   </g>
   <g id="patch_24">
    <path clip-path="url(#p32af3b2d72)" d="M 241.891862 252 
L 249.553151 252 
L 249.553151 224.374724 
L 241.891862 224.374724 
z
" style="fill:#88c9c1;stroke:#a6a6a6;stroke-linejoin:miter;"/>
   </g>
   <g id="patch_25">
    <path clip-path="url(#p32af3b2d72)" d="M 249.553151 252 
L 257.21444 252 
L 257.21444 231.229116 
L 249.553151 231.229116 
z
" style="fill:#88c9c1;stroke:#a6a6a6;stroke-linejoin:miter;"/>
   </g>
   <g id="patch_26">
    <path clip-path="url(#p32af3b2d72)" d="M 257.21444 252 
L 264.875729 252 
L 264.875729 232.059951 
L 257.21444 232.059951 
z
" style="fill:#88c9c1;stroke:#a6a6a6;stroke-linejoin:miter;"/>
   </g>
   <g id="patch_27">
    <path clip-path="url(#p32af3b2d72)" d="M 264.875729 252 
L 272.537018 252 
L 272.537018 234.967875 
L 264.875729 234.967875 
z
" style="fill:#88c9c1;stroke:#a6a6a6;stroke-linejoin:miter;"/>
   </g>
   <g id="patch_28">
    <path clip-path="url(#p32af3b2d72)" d="M 272.537018 252 
L 280.198307 252 
L 280.198307 238.498925 
L 272.537018 238.498925 
z
" style="fill:#88c9c1;stroke:#a6a6a6;stroke-linejoin:miter;"/>
   </g>
   <g id="patch_29">
    <path clip-path="url(#p32af3b2d72)" d="M 280.198307 252 
L 287.859596 252 
L 287.859596 237.875799 
L 280.198307 237.875799 
z
" style="fill:#88c9c1;stroke:#a6a6a6;stroke-linejoin:miter;"/>
   </g>
   <g id="patch_30">
    <path clip-path="url(#p32af3b2d72)" d="M 287.859596 252 
L 295.520885 252 
L 295.520885 238.291217 
L 287.859596 238.291217 
z
" style="fill:#88c9c1;stroke:#a6a6a6;stroke-linejoin:miter;"/>
   </g>
   <g id="patch_31">
    <path clip-path="url(#p32af3b2d72)" d="M 295.520885 252 
L 303.182174 252 
L 303.182174 239.329761 
L 295.520885 239.329761 
z
" style="fill:#88c9c1;stroke:#a6a6a6;stroke-linejoin:miter;"/>
   </g>
   <g id="patch_32">
    <path clip-path="url(#p32af3b2d72)" d="M 303.182174 252 
L 310.843463 252 
L 310.843463 242.445393 
L 303.182174 242.445393 
z
" style="fill:#88c9c1;stroke:#a6a6a6;stroke-linejoin:miter;"/>
   </g>
   <g id="patch_33">
    <path clip-path="url(#p32af3b2d72)" d="M 310.843463 252 
L 318.504752 252 
L 318.504752 240.368305 
L 310.843463 240.368305 
z
" style="fill:#88c9c1;stroke:#a6a6a6;stroke-linejoin:miter;"/>
   </g>
   <g id="patch_34">
    <path clip-path="url(#p32af3b2d72)" d="M 318.504752 252 
L 326.166041 252 
L 326.166041 244.314773 
L 318.504752 244.314773 
z
" style="fill:#88c9c1;stroke:#a6a6a6;stroke-linejoin:miter;"/>
   </g>
   <g id="patch_35">
    <path clip-path="url(#p32af3b2d72)" d="M 326.166041 252 
L 333.82733 252 
L 333.82733 244.937899 
L 326.166041 244.937899 
z
" style="fill:#88c9c1;stroke:#a6a6a6;stroke-linejoin:miter;"/>
   </g>
   <g id="patch_36">
    <path clip-path="url(#p32af3b2d72)" d="M 333.82733 252 
L 341.488619 252 
L 341.488619 246.391861 
L 333.82733 246.391861 
z
" style="fill:#88c9c1;stroke:#a6a6a6;stroke-linejoin:miter;"/>
   </g>
   <g id="patch_37">
    <path clip-path="url(#p32af3b2d72)" d="M 341.488619 252 
L 349.149908 252 
L 349.149908 247.222697 
L 341.488619 247.222697 
z
" style="fill:#88c9c1;stroke:#a6a6a6;stroke-linejoin:miter;"/>
   </g>
   <g id="patch_38">
    <path clip-path="url(#p32af3b2d72)" d="M 349.149908 252 
L 356.811197 252 
L 356.811197 245.976444 
L 349.149908 245.976444 
z
" style="fill:#88c9c1;stroke:#a6a6a6;stroke-linejoin:miter;"/>
   </g>
   <g id="patch_39">
    <path clip-path="url(#p32af3b2d72)" d="M 356.811197 252 
L 364.472486 252 
L 364.472486 248.676659 
L 356.811197 248.676659 
z
" style="fill:#88c9c1;stroke:#a6a6a6;stroke-linejoin:miter;"/>
   </g>
   <g id="patch_40">
    <path clip-path="url(#p32af3b2d72)" d="M 364.472486 252 
L 372.133775 252 
L 372.133775 245.976444 
L 364.472486 245.976444 
z
" style="fill:#88c9c1;stroke:#a6a6a6;stroke-linejoin:miter;"/>
   </g>
   <g id="patch_41">
    <path clip-path="url(#p32af3b2d72)" d="M 372.133775 252 
L 379.795064 252 
L 379.795064 249.299785 
L 372.133775 249.299785 
z
" style="fill:#88c9c1;stroke:#a6a6a6;stroke-linejoin:miter;"/>
   </g>
   <g id="patch_42">
    <path clip-path="url(#p32af3b2d72)" d="M 379.795064 252 
L 387.456353 252 
L 387.456353 250.338329 
L 379.795064 250.338329 
z
" style="fill:#88c9c1;stroke:#a6a6a6;stroke-linejoin:miter;"/>
   </g>
   <g id="patch_43">
    <path clip-path="url(#p32af3b2d72)" d="M 387.456353 252 
L 395.117642 252 
L 395.117642 247.845823 
L 387.456353 247.845823 
z
" style="fill:#88c9c1;stroke:#a6a6a6;stroke-linejoin:miter;"/>
   </g>
   <g id="patch_44">
    <path clip-path="url(#p32af3b2d72)" d="M 395.117642 252 
L 402.778931 252 
L 402.778931 249.092076 
L 395.117642 249.092076 
z
" style="fill:#88c9c1;stroke:#a6a6a6;stroke-linejoin:miter;"/>
   </g>
   <g id="patch_45">
    <path clip-path="url(#p32af3b2d72)" d="M 402.778931 252 
L 410.44022 252 
L 410.44022 249.922912 
L 402.778931 249.922912 
z
" style="fill:#88c9c1;stroke:#a6a6a6;stroke-linejoin:miter;"/>
   </g>
   <g id="patch_46">
    <path clip-path="url(#p32af3b2d72)" d="M 410.44022 252 
L 418.101509 252 
L 418.101509 249.507494 
L 410.44022 249.507494 
z
" style="fill:#88c9c1;stroke:#a6a6a6;stroke-linejoin:miter;"/>
   </g>
   <g id="patch_47">
    <path clip-path="url(#p32af3b2d72)" d="M 418.101509 252 
L 425.762798 252 
L 425.762798 248.884367 
L 418.101509 248.884367 
z
" style="fill:#88c9c1;stroke:#a6a6a6;stroke-linejoin:miter;"/>
   </g>
   <g id="patch_48">
    <path clip-path="url(#p32af3b2d72)" d="M 425.762798 252 
L 433.424087 252 
L 433.424087 249.715203 
L 425.762798 249.715203 
z
" style="fill:#88c9c1;stroke:#a6a6a6;stroke-linejoin:miter;"/>
   </g>
   <g id="patch_49">
    <path clip-path="url(#p32af3b2d72)" d="M 433.424087 252 
L 441.085376 252 
L 441.085376 250.13062 
L 433.424087 250.13062 
z
" style="fill:#88c9c1;stroke:#a6a6a6;stroke-linejoin:miter;"/>
   </g>
   <g id="patch_50">
    <path clip-path="url(#p32af3b2d72)" d="M 441.085376 252 
L 448.746665 252 
L 448.746665 250.546038 
L 441.085376 250.546038 
z
" style="fill:#88c9c1;stroke:#a6a6a6;stroke-linejoin:miter;"/>
   </g>
   <g id="patch_51">
    <path clip-path="url(#p32af3b2d72)" d="M 448.746665 252 
L 456.407954 252 
L 456.407954 251.792291 
L 448.746665 251.792291 
z
" style="fill:#88c9c1;stroke:#a6a6a6;stroke-linejoin:miter;"/>
   </g>
   <g id="patch_52">
    <path clip-path="url(#p32af3b2d72)" d="M 456.407954 252 
L 464.069243 252 
L 464.069243 251.376873 
L 456.407954 251.376873 
z
" style="fill:#88c9c1;stroke:#a6a6a6;stroke-linejoin:miter;"/>
   </g>
   <g id="patch_53">
    <path clip-path="url(#p32af3b2d72)" d="M 464.069243 252 
L 471.730532 252 
L 471.730532 251.169165 
L 464.069243 251.169165 
z
" style="fill:#88c9c1;stroke:#a6a6a6;stroke-linejoin:miter;"/>
   </g>
   <g id="patch_54">
    <path clip-path="url(#p32af3b2d72)" d="M 471.730532 252 
L 479.391821 252 
L 479.391821 250.546038 
L 471.730532 250.546038 
z
" style="fill:#88c9c1;stroke:#a6a6a6;stroke-linejoin:miter;"/>
   </g>
   <g id="patch_55">
    <path clip-path="url(#p32af3b2d72)" d="M 479.391821 252 
L 487.05311 252 
L 487.05311 250.546038 
L 479.391821 250.546038 
z
" style="fill:#88c9c1;stroke:#a6a6a6;stroke-linejoin:miter;"/>
   </g>
   <g id="patch_56">
    <path clip-path="url(#p32af3b2d72)" d="M 487.05311 252 
L 494.714399 252 
L 494.714399 250.546038 
L 487.05311 250.546038 
z
" style="fill:#88c9c1;stroke:#a6a6a6;stroke-linejoin:miter;"/>
   </g>
   <g id="patch_57">
    <path clip-path="url(#p32af3b2d72)" d="M 494.714399 252 
L 502.375688 252 
L 502.375688 251.169165 
L 494.714399 251.169165 
z
" style="fill:#88c9c1;stroke:#a6a6a6;stroke-linejoin:miter;"/>
   </g>
   <g id="patch_58">
    <path clip-path="url(#p32af3b2d72)" d="M 502.375688 252 
L 510.036977 252 
L 510.036977 251.792291 
L 502.375688 251.792291 
z
" style="fill:#88c9c1;stroke:#a6a6a6;stroke-linejoin:miter;"/>
   </g>
   <g id="patch_59">
    <path clip-path="url(#p32af3b2d72)" d="M 510.036977 252 
L 517.698266 252 
L 517.698266 251.792291 
L 510.036977 251.792291 
z
" style="fill:#88c9c1;stroke:#a6a6a6;stroke-linejoin:miter;"/>
   </g>
   <g id="patch_60">
    <path clip-path="url(#p32af3b2d72)" d="M 517.698266 252 
L 525.359555 252 
L 525.359555 250.753747 
L 517.698266 250.753747 
z
" style="fill:#88c9c1;stroke:#a6a6a6;stroke-linejoin:miter;"/>
   </g>
   <g id="patch_61">
    <path clip-path="url(#p32af3b2d72)" d="M 525.359555 252 
L 533.020844 252 
L 533.020844 250.961456 
L 525.359555 250.961456 
z
" style="fill:#88c9c1;stroke:#a6a6a6;stroke-linejoin:miter;"/>
   </g>
   <g id="patch_62">
    <path clip-path="url(#p32af3b2d72)" d="M 533.020844 252 
L 540.682133 252 
L 540.682133 251.584582 
L 533.020844 251.584582 
z
" style="fill:#88c9c1;stroke:#a6a6a6;stroke-linejoin:miter;"/>
   </g>
   <g id="patch_63">
    <path clip-path="url(#p32af3b2d72)" d="M 540.682133 252 
L 548.343422 252 
L 548.343422 251.792291 
L 540.682133 251.792291 
z
" style="fill:#88c9c1;stroke:#a6a6a6;stroke-linejoin:miter;"/>
   </g>
   <g id="patch_64">
    <path clip-path="url(#p32af3b2d72)" d="M 548.343422 252 
L 556.004711 252 
L 556.004711 251.584582 
L 548.343422 251.584582 
z
" style="fill:#88c9c1;stroke:#a6a6a6;stroke-linejoin:miter;"/>
   </g>
   <g id="patch_65">
    <path clip-path="url(#p32af3b2d72)" d="M 556.004711 252 
L 563.666 252 
L 563.666 251.169165 
L 556.004711 251.169165 
z
" style="fill:#88c9c1;stroke:#a6a6a6;stroke-linejoin:miter;"/>
   </g>
   <g id="patch_66">
    <path clip-path="url(#p32af3b2d72)" d="M 563.666 252 
L 571.327289 252 
L 571.327289 251.792291 
L 563.666 251.792291 
z
" style="fill:#88c9c1;stroke:#a6a6a6;stroke-linejoin:miter;"/>
   </g>
   <g id="patch_67">
    <path clip-path="url(#p32af3b2d72)" d="M 571.327289 252 
L 578.988578 252 
L 578.988578 252 
L 571.327289 252 
z
" style="fill:#88c9c1;stroke:#a6a6a6;stroke-linejoin:miter;"/>
   </g>
   <g id="patch_68">
    <path clip-path="url(#p32af3b2d72)" d="M 578.988578 252 
L 586.649867 252 
L 586.649867 251.169165 
L 578.988578 251.169165 
z
" style="fill:#88c9c1;stroke:#a6a6a6;stroke-linejoin:miter;"/>
   </g>
   <g id="patch_69">
    <path clip-path="url(#p32af3b2d72)" d="M 586.649867 252 
L 594.311156 252 
L 594.311156 251.584582 
L 586.649867 251.584582 
z
" style="fill:#88c9c1;stroke:#a6a6a6;stroke-linejoin:miter;"/>
   </g>
   <g id="patch_70">
    <path clip-path="url(#p32af3b2d72)" d="M 594.311156 252 
L 601.972445 252 
L 601.972445 251.584582 
L 594.311156 251.584582 
z
" style="fill:#88c9c1;stroke:#a6a6a6;stroke-linejoin:miter;"/>
   </g>
   <g id="patch_71">
    <path clip-path="url(#p32af3b2d72)" d="M 601.972445 252 
L 609.633734 252 
L 609.633734 251.792291 
L 601.972445 251.792291 
z
" style="fill:#88c9c1;stroke:#a6a6a6;stroke-linejoin:miter;"/>
   </g>
   <g id="patch_72">
    <path clip-path="url(#p32af3b2d72)" d="M 609.633734 252 
L 617.295023 252 
L 617.295023 251.584582 
L 609.633734 251.584582 
z
" style="fill:#88c9c1;stroke:#a6a6a6;stroke-linejoin:miter;"/>
   </g>
   <g id="patch_73">
    <path clip-path="url(#p32af3b2d72)" d="M 617.295023 252 
L 624.956312 252 
L 624.956312 252 
L 617.295023 252 
z
" style="fill:#88c9c1;stroke:#a6a6a6;stroke-linejoin:miter;"/>
   </g>
   <g id="patch_74">
    <path clip-path="url(#p32af3b2d72)" d="M 624.956312 252 
L 632.617601 252 
L 632.617601 251.376873 
L 624.956312 251.376873 
z
" style="fill:#88c9c1;stroke:#a6a6a6;stroke-linejoin:miter;"/>
   </g>
   <g id="patch_75">
    <path clip-path="url(#p32af3b2d72)" d="M 632.617601 252 
L 640.27889 252 
L 640.27889 252 
L 632.617601 252 
z
" style="fill:#88c9c1;stroke:#a6a6a6;stroke-linejoin:miter;"/>
   </g>
   <g id="patch_76">
    <path clip-path="url(#p32af3b2d72)" d="M 640.27889 252 
L 647.940179 252 
L 647.940179 251.792291 
L 640.27889 251.792291 
z
" style="fill:#88c9c1;stroke:#a6a6a6;stroke-linejoin:miter;"/>
   </g>
   <g id="patch_77">
    <path clip-path="url(#p32af3b2d72)" d="M 647.940179 252 
L 655.601468 252 
L 655.601468 251.792291 
L 647.940179 251.792291 
z
" style="fill:#88c9c1;stroke:#a6a6a6;stroke-linejoin:miter;"/>
   </g>
   <g id="patch_78">
    <path clip-path="url(#p32af3b2d72)" d="M 655.601468 252 
L 663.262757 252 
L 663.262757 252 
L 655.601468 252 
z
" style="fill:#88c9c1;stroke:#a6a6a6;stroke-linejoin:miter;"/>
   </g>
   <g id="patch_79">
    <path clip-path="url(#p32af3b2d72)" d="M 663.262757 252 
L 670.924046 252 
L 670.924046 252 
L 663.262757 252 
z
" style="fill:#88c9c1;stroke:#a6a6a6;stroke-linejoin:miter;"/>
   </g>
   <g id="patch_80">
    <path clip-path="url(#p32af3b2d72)" d="M 670.924046 252 
L 678.585335 252 
L 678.585335 251.376873 
L 670.924046 251.376873 
z
" style="fill:#88c9c1;stroke:#a6a6a6;stroke-linejoin:miter;"/>
   </g>
   <g id="patch_81">
    <path clip-path="url(#p32af3b2d72)" d="M 678.585335 252 
L 686.246624 252 
L 686.246624 251.584582 
L 678.585335 251.584582 
z
" style="fill:#88c9c1;stroke:#a6a6a6;stroke-linejoin:miter;"/>
   </g>
   <g id="patch_82">
    <path clip-path="url(#p32af3b2d72)" d="M 686.246624 252 
L 693.907913 252 
L 693.907913 252 
L 686.246624 252 
z
" style="fill:#88c9c1;stroke:#a6a6a6;stroke-linejoin:miter;"/>
   </g>
   <g id="patch_83">
    <path clip-path="url(#p32af3b2d72)" d="M 693.907913 252 
L 701.569202 252 
L 701.569202 252 
L 693.907913 252 
z
" style="fill:#88c9c1;stroke:#a6a6a6;stroke-linejoin:miter;"/>
   </g>
   <g id="patch_84">
    <path clip-path="url(#p32af3b2d72)" d="M 701.569202 252 
L 709.230491 252 
L 709.230491 252 
L 701.569202 252 
z
" style="fill:#88c9c1;stroke:#a6a6a6;stroke-linejoin:miter;"/>
   </g>
   <g id="patch_85">
    <path clip-path="url(#p32af3b2d72)" d="M 709.230491 252 
L 716.89178 252 
L 716.89178 252 
L 709.230491 252 
z
" style="fill:#88c9c1;stroke:#a6a6a6;stroke-linejoin:miter;"/>
   </g>
   <g id="patch_86">
    <path clip-path="url(#p32af3b2d72)" d="M 716.89178 252 
L 724.553069 252 
L 724.553069 252 
L 716.89178 252 
z
" style="fill:#88c9c1;stroke:#a6a6a6;stroke-linejoin:miter;"/>
   </g>
   <g id="patch_87">
    <path clip-path="url(#p32af3b2d72)" d="M 724.553069 252 
L 732.214358 252 
L 732.214358 252 
L 724.553069 252 
z
" style="fill:#88c9c1;stroke:#a6a6a6;stroke-linejoin:miter;"/>
   </g>
   <g id="patch_88">
    <path clip-path="url(#p32af3b2d72)" d="M 732.214358 252 
L 739.875647 252 
L 739.875647 252 
L 732.214358 252 
z
" style="fill:#88c9c1;stroke:#a6a6a6;stroke-linejoin:miter;"/>
   </g>
   <g id="patch_89">
    <path clip-path="url(#p32af3b2d72)" d="M 739.875647 252 
L 747.536936 252 
L 747.536936 252 
L 739.875647 252 
z
" style="fill:#88c9c1;stroke:#a6a6a6;stroke-linejoin:miter;"/>
   </g>
   <g id="patch_90">
    <path clip-path="url(#p32af3b2d72)" d="M 747.536936 252 
L 755.198225 252 
L 755.198225 252 
L 747.536936 252 
z
" style="fill:#88c9c1;stroke:#a6a6a6;stroke-linejoin:miter;"/>
   </g>
   <g id="patch_91">
    <path clip-path="url(#p32af3b2d72)" d="M 755.198225 252 
L 762.859514 252 
L 762.859514 252 
L 755.198225 252 
z
" style="fill:#88c9c1;stroke:#a6a6a6;stroke-linejoin:miter;"/>
   </g>
   <g id="patch_92">
    <path clip-path="url(#p32af3b2d72)" d="M 762.859514 252 
L 770.520803 252 
L 770.520803 252 
L 762.859514 252 
z
" style="fill:#88c9c1;stroke:#a6a6a6;stroke-linejoin:miter;"/>
   </g>
   <g id="patch_93">
    <path clip-path="url(#p32af3b2d72)" d="M 770.520803 252 
L 778.182092 252 
L 778.182092 252 
L 770.520803 252 
z
" style="fill:#88c9c1;stroke:#a6a6a6;stroke-linejoin:miter;"/>
   </g>
   <g id="patch_94">
    <path clip-path="url(#p32af3b2d72)" d="M 778.182092 252 
L 785.843381 252 
L 785.843381 251.792291 
L 778.182092 251.792291 
z
" style="fill:#88c9c1;stroke:#a6a6a6;stroke-linejoin:miter;"/>
   </g>
   <g id="matplotlib.axis_1">
    <g id="xtick_1">
     <g id="line2d_1">
      <defs>
       <path d="M 0 0 
L 0 3.5 
" id="mcbd00a00de" style="stroke:#d2d2d2;stroke-width:0.8;"/>
      </defs>
      <g>
       <use style="fill:#d2d2d2;stroke:#d2d2d2;stroke-width:0.8;" x="81" xlink:href="#mcbd00a00de" y="252"/>
      </g>
     </g>
     <g id="text_1">
      <!-- $\mathdefault{0}$ -->
      <defs>
       <path d="M 31.78125 3.421875 
Q 39.265625 3.421875 42.96875 11.625 
Q 46.6875 19.828125 46.6875 36.375 
Q 46.6875 52.984375 42.96875 61.1875 
Q 39.265625 69.390625 31.78125 69.390625 
Q 24.3125 69.390625 20.59375 61.1875 
Q 16.890625 52.984375 16.890625 36.375 
Q 16.890625 19.828125 20.59375 11.625 
Q 24.3125 3.421875 31.78125 3.421875 
z
M 31.78125 -1.421875 
Q 19.921875 -1.421875 13.25 8.53125 
Q 6.59375 18.5 6.59375 36.375 
Q 6.59375 54.296875 13.25 64.25 
Q 19.921875 74.21875 31.78125 74.21875 
Q 43.703125 74.21875 50.34375 64.25 
Q 56.984375 54.296875 56.984375 36.375 
Q 56.984375 18.5 50.34375 8.53125 
Q 43.703125 -1.421875 31.78125 -1.421875 
z
" id="DejaVuSerif-30"/>
      </defs>
      <g style="fill:#d2d2d2;" transform="translate(76.84 268.877969)scale(0.13 -0.13)">
       <use transform="translate(0 0.78125)" xlink:href="#DejaVuSerif-30"/>
      </g>
     </g>
    </g>
    <g id="xtick_2">
     <g id="line2d_2">
      <g>
       <use style="fill:#d2d2d2;stroke:#d2d2d2;stroke-width:0.8;" x="152.742857" xlink:href="#mcbd00a00de" y="252"/>
      </g>
     </g>
     <g id="text_2">
      <!-- $\mathdefault{1}$ -->
      <defs>
       <path d="M 14.203125 0 
L 14.203125 5.171875 
L 26.90625 5.171875 
L 26.90625 65.828125 
L 12.203125 56.296875 
L 12.203125 62.703125 
L 29.984375 74.21875 
L 36.71875 74.21875 
L 36.71875 5.171875 
L 49.421875 5.171875 
L 49.421875 0 
z
" id="DejaVuSerif-31"/>
      </defs>
      <g style="fill:#d2d2d2;" transform="translate(148.582857 268.877969)scale(0.13 -0.13)">
       <use transform="translate(0 0.78125)" xlink:href="#DejaVuSerif-31"/>
      </g>
     </g>
    </g>
    <g id="xtick_3">
     <g id="line2d_3">
      <g>
       <use style="fill:#d2d2d2;stroke:#d2d2d2;stroke-width:0.8;" x="224.485714" xlink:href="#mcbd00a00de" y="252"/>
      </g>
     </g>
     <g id="text_3">
      <!-- $\mathdefault{2}$ -->
      <defs>
       <path d="M 12.796875 55.515625 
L 7.328125 55.515625 
L 7.328125 68.5 
Q 12.546875 71.296875 17.84375 72.75 
Q 23.140625 74.21875 28.21875 74.21875 
Q 39.59375 74.21875 46.1875 68.703125 
Q 52.78125 63.1875 52.78125 53.71875 
Q 52.78125 43.015625 37.84375 28.125 
Q 36.671875 27 36.078125 26.421875 
L 17.671875 8.015625 
L 48.09375 8.015625 
L 48.09375 17 
L 53.8125 17 
L 53.8125 0 
L 6.78125 0 
L 6.78125 5.328125 
L 28.90625 27.390625 
Q 36.234375 34.71875 39.359375 40.84375 
Q 42.484375 46.96875 42.484375 53.71875 
Q 42.484375 61.078125 38.640625 65.234375 
Q 34.8125 69.390625 28.078125 69.390625 
Q 21.09375 69.390625 17.28125 65.921875 
Q 13.484375 62.453125 12.796875 55.515625 
z
" id="DejaVuSerif-32"/>
      </defs>
      <g style="fill:#d2d2d2;" transform="translate(220.325714 268.877969)scale(0.13 -0.13)">
       <use transform="translate(0 0.78125)" xlink:href="#DejaVuSerif-32"/>
      </g>
     </g>
    </g>
    <g id="xtick_4">
     <g id="line2d_4">
      <g>
       <use style="fill:#d2d2d2;stroke:#d2d2d2;stroke-width:0.8;" x="296.228571" xlink:href="#mcbd00a00de" y="252"/>
      </g>
     </g>
     <g id="text_4">
      <!-- $\mathdefault{3}$ -->
      <defs>
       <path d="M 9.71875 69.828125 
Q 15.4375 71.96875 20.671875 73.09375 
Q 25.921875 74.21875 30.515625 74.21875 
Q 41.21875 74.21875 47.21875 69.59375 
Q 53.21875 64.984375 53.21875 56.78125 
Q 53.21875 50.203125 49.0625 45.78125 
Q 44.921875 41.359375 37.3125 39.796875 
Q 46.296875 38.53125 51.25 33.28125 
Q 56.203125 28.03125 56.203125 19.671875 
Q 56.203125 9.46875 49.34375 4.015625 
Q 42.484375 -1.421875 29.59375 -1.421875 
Q 23.875 -1.421875 18.421875 -0.1875 
Q 12.984375 1.03125 7.625 3.515625 
L 7.625 17.671875 
L 13.09375 17.671875 
Q 13.578125 10.640625 17.828125 7.03125 
Q 22.078125 3.421875 29.78125 3.421875 
Q 37.25 3.421875 41.578125 7.734375 
Q 45.90625 12.0625 45.90625 19.578125 
Q 45.90625 28.171875 41.453125 32.59375 
Q 37.015625 37.015625 28.421875 37.015625 
L 23.78125 37.015625 
L 23.78125 42 
L 26.21875 42 
Q 34.765625 42 39.03125 45.53125 
Q 43.3125 49.078125 43.3125 56.203125 
Q 43.3125 62.59375 39.796875 65.984375 
Q 36.28125 69.390625 29.6875 69.390625 
Q 23.09375 69.390625 19.453125 66.265625 
Q 15.828125 63.140625 15.1875 56.984375 
L 9.71875 56.984375 
z
" id="DejaVuSerif-33"/>
      </defs>
      <g style="fill:#d2d2d2;" transform="translate(292.068571 268.877969)scale(0.13 -0.13)">
       <use transform="translate(0 0.78125)" xlink:href="#DejaVuSerif-33"/>
      </g>
     </g>
    </g>
    <g id="xtick_5">
     <g id="line2d_5">
      <g>
       <use style="fill:#d2d2d2;stroke:#d2d2d2;stroke-width:0.8;" x="367.971429" xlink:href="#mcbd00a00de" y="252"/>
      </g>
     </g>
     <g id="text_5">
      <!-- $\mathdefault{4}$ -->
      <defs>
       <path d="M 34.90625 24.703125 
L 34.90625 63.484375 
L 10.015625 24.703125 
z
M 56.390625 0 
L 23.1875 0 
L 23.1875 5.171875 
L 34.90625 5.171875 
L 34.90625 19.484375 
L 3.078125 19.484375 
L 3.078125 24.8125 
L 35.015625 74.21875 
L 44.671875 74.21875 
L 44.671875 24.703125 
L 58.59375 24.703125 
L 58.59375 19.484375 
L 44.671875 19.484375 
L 44.671875 5.171875 
L 56.390625 5.171875 
z
" id="DejaVuSerif-34"/>
      </defs>
      <g style="fill:#d2d2d2;" transform="translate(363.811429 268.877969)scale(0.13 -0.13)">
       <use transform="translate(0 0.78125)" xlink:href="#DejaVuSerif-34"/>
      </g>
     </g>
    </g>
    <g id="xtick_6">
     <g id="line2d_6">
      <g>
       <use style="fill:#d2d2d2;stroke:#d2d2d2;stroke-width:0.8;" x="439.714286" xlink:href="#mcbd00a00de" y="252"/>
      </g>
     </g>
     <g id="text_6">
      <!-- $\mathdefault{5}$ -->
      <defs>
       <path d="M 50.296875 72.90625 
L 50.296875 64.890625 
L 16.890625 64.890625 
L 16.890625 44 
Q 19.4375 45.75 22.828125 46.625 
Q 26.21875 47.515625 30.421875 47.515625 
Q 42.234375 47.515625 49.0625 40.96875 
Q 55.90625 34.421875 55.90625 23.09375 
Q 55.90625 11.53125 49 5.046875 
Q 42.09375 -1.421875 29.59375 -1.421875 
Q 24.5625 -1.421875 19.28125 -0.1875 
Q 14.015625 1.03125 8.5 3.515625 
L 8.5 17.671875 
L 14.015625 17.671875 
Q 14.453125 10.75 18.421875 7.078125 
Q 22.40625 3.421875 29.59375 3.421875 
Q 37.3125 3.421875 41.453125 8.5 
Q 45.609375 13.578125 45.609375 23.09375 
Q 45.609375 32.5625 41.484375 37.609375 
Q 37.359375 42.671875 29.59375 42.671875 
Q 25.203125 42.671875 21.84375 41.109375 
Q 18.5 39.546875 15.921875 36.28125 
L 11.71875 36.28125 
L 11.71875 72.90625 
z
" id="DejaVuSerif-35"/>
      </defs>
      <g style="fill:#d2d2d2;" transform="translate(435.554286 268.877969)scale(0.13 -0.13)">
       <use transform="translate(0 0.09375)" xlink:href="#DejaVuSerif-35"/>
      </g>
     </g>
    </g>
    <g id="xtick_7">
     <g id="line2d_7">
      <g>
       <use style="fill:#d2d2d2;stroke:#d2d2d2;stroke-width:0.8;" x="511.457143" xlink:href="#mcbd00a00de" y="252"/>
      </g>
     </g>
     <g id="text_7">
      <!-- $\mathdefault{6}$ -->
      <defs>
       <path d="M 32.71875 3.421875 
Q 39.59375 3.421875 43.296875 8.46875 
Q 47.015625 13.53125 47.015625 23 
Q 47.015625 32.46875 43.296875 37.515625 
Q 39.59375 42.578125 32.71875 42.578125 
Q 25.734375 42.578125 22.0625 37.6875 
Q 18.40625 32.8125 18.40625 23.578125 
Q 18.40625 13.875 22.109375 8.640625 
Q 25.828125 3.421875 32.71875 3.421875 
z
M 16.796875 40.140625 
Q 20.125 43.796875 24.3125 45.59375 
Q 28.515625 47.40625 33.796875 47.40625 
Q 44.671875 47.40625 51 40.859375 
Q 57.328125 34.328125 57.328125 23 
Q 57.328125 11.921875 50.515625 5.25 
Q 43.703125 -1.421875 32.328125 -1.421875 
Q 19.96875 -1.421875 13.328125 7.78125 
Q 6.6875 17 6.6875 34.078125 
Q 6.6875 53.21875 14.546875 63.71875 
Q 22.40625 74.21875 36.71875 74.21875 
Q 40.578125 74.21875 44.828125 73.484375 
Q 49.078125 72.75 53.515625 71.296875 
L 53.515625 59.28125 
L 48 59.28125 
Q 47.40625 64.203125 44.234375 66.796875 
Q 41.0625 69.390625 35.6875 69.390625 
Q 26.21875 69.390625 21.578125 62.203125 
Q 16.9375 55.03125 16.796875 40.140625 
z
" id="DejaVuSerif-36"/>
      </defs>
      <g style="fill:#d2d2d2;" transform="translate(507.297143 268.877969)scale(0.13 -0.13)">
       <use transform="translate(0 0.78125)" xlink:href="#DejaVuSerif-36"/>
      </g>
     </g>
    </g>
    <g id="xtick_8">
     <g id="line2d_8">
      <g>
       <use style="fill:#d2d2d2;stroke:#d2d2d2;stroke-width:0.8;" x="583.2" xlink:href="#mcbd00a00de" y="252"/>
      </g>
     </g>
     <g id="text_8">
      <!-- $\mathdefault{7}$ -->
      <defs>
       <path d="M 56.390625 67.921875 
L 27.875 0 
L 20.609375 0 
L 47.796875 64.890625 
L 14.109375 64.890625 
L 14.109375 55.90625 
L 8.40625 55.90625 
L 8.40625 72.90625 
L 56.390625 72.90625 
z
" id="DejaVuSerif-37"/>
      </defs>
      <g style="fill:#d2d2d2;" transform="translate(579.04 268.877969)scale(0.13 -0.13)">
       <use transform="translate(0 0.09375)" xlink:href="#DejaVuSerif-37"/>
      </g>
     </g>
    </g>
    <g id="text_9">
     <!-- $\mathcal{F}$ (Simulated) -->
     <defs>
      <path d="M 5.90625 53.40625 
L 4.296875 55.203125 
Q 11.40625 61.796875 18.34375 64 
Q 25.296875 66.203125 33.796875 66.203125 
Q 42.40625 66.203125 48.59375 65.75 
Q 54.796875 65.296875 60.140625 64.046875 
Q 65.5 62.796875 68.25 60.4375 
Q 71 58.09375 71 54.5 
Q 71 51.09375 69.203125 48.796875 
Q 67.40625 46.5 64.203125 46.5 
Q 61.90625 46.5 60.203125 47.84375 
Q 58.5 49.203125 58.5 51.203125 
Q 58.5 53.09375 59.25 54.140625 
Q 60 55.203125 60.890625 55.453125 
Q 61.796875 55.703125 62.5 56.140625 
Q 63.203125 56.59375 63.203125 57.5 
Q 63.203125 59.5 57.75 60.84375 
Q 52.296875 62.203125 45.203125 62.203125 
Q 42.09375 62.203125 40.75 61.25 
Q 39.40625 60.296875 38.5 57.296875 
L 32.796875 37.703125 
L 54.59375 37.703125 
L 53.296875 33.703125 
L 31.703125 33.703125 
L 27.296875 18.796875 
Q 25.40625 12.296875 23.296875 8.390625 
Q 21.203125 4.5 18.34375 2.703125 
Q 15.5 0.90625 12.953125 0.453125 
Q 10.40625 0 6 0 
L 6.796875 2.40625 
Q 9.5 2.40625 11.34375 4.5 
Q 13.203125 6.59375 14.59375 11.59375 
L 26.40625 52.09375 
Q 27.40625 55.59375 27.40625 57.296875 
Q 27.40625 59 26.40625 59.796875 
Q 25.40625 60.59375 22.796875 60.59375 
Q 13.40625 60.59375 5.90625 53.40625 
z
" id="STIXNonUnicode-Italic-e232"/>
      <path id="DejaVuSerif-20"/>
      <path d="M 31.890625 -15.578125 
Q 20.015625 -10.25 13.953125 1.296875 
Q 7.90625 12.84375 7.90625 30.171875 
Q 7.90625 47.5625 13.953125 59.109375 
Q 20.015625 70.65625 31.890625 75.984375 
L 31.890625 71.1875 
Q 24.359375 66.015625 21.09375 56.609375 
Q 17.828125 47.21875 17.828125 30.171875 
Q 17.828125 13.1875 21.09375 3.78125 
Q 24.359375 -5.609375 31.890625 -10.796875 
z
" id="DejaVuSerif-28"/>
      <path d="M 9.28125 3.515625 
L 9.28125 20.125 
L 14.890625 20.0625 
Q 15.140625 11.765625 19.703125 7.78125 
Q 24.265625 3.8125 33.59375 3.8125 
Q 42.28125 3.8125 46.84375 7.25 
Q 51.421875 10.6875 51.421875 17.28125 
Q 51.421875 22.5625 48.65625 25.390625 
Q 45.90625 28.21875 37.015625 30.90625 
L 27.390625 33.796875 
Q 16.9375 36.96875 12.671875 41.703125 
Q 8.40625 46.4375 8.40625 54.6875 
Q 8.40625 63.96875 14.984375 69.09375 
Q 21.578125 74.21875 33.5 74.21875 
Q 38.578125 74.21875 44.625 73.109375 
Q 50.6875 72.015625 57.515625 69.921875 
L 57.515625 54.390625 
L 52 54.390625 
Q 51.171875 62.109375 46.84375 65.546875 
Q 42.53125 69 33.6875 69 
Q 25.984375 69 21.953125 65.84375 
Q 17.921875 62.703125 17.921875 56.6875 
Q 17.921875 51.46875 20.9375 48.484375 
Q 23.96875 45.515625 33.796875 42.578125 
L 42.828125 39.890625 
Q 52.734375 36.921875 56.953125 32.296875 
Q 61.1875 27.6875 61.1875 19.921875 
Q 61.1875 9.328125 54.390625 3.953125 
Q 47.609375 -1.421875 34.1875 -1.421875 
Q 28.171875 -1.421875 21.9375 -0.1875 
Q 15.71875 1.03125 9.28125 3.515625 
z
" id="DejaVuSerif-53"/>
      <path d="M 9.71875 68.015625 
Q 9.71875 70.265625 11.34375 71.921875 
Q 12.984375 73.578125 15.28125 73.578125 
Q 17.53125 73.578125 19.15625 71.921875 
Q 20.796875 70.265625 20.796875 68.015625 
Q 20.796875 65.71875 19.1875 64.109375 
Q 17.578125 62.5 15.28125 62.5 
Q 12.984375 62.5 11.34375 64.109375 
Q 9.71875 65.71875 9.71875 68.015625 
z
M 21.1875 5.171875 
L 29.6875 5.171875 
L 29.6875 0 
L 3.609375 0 
L 3.609375 5.171875 
L 12.203125 5.171875 
L 12.203125 46.6875 
L 3.609375 46.6875 
L 3.609375 51.90625 
L 21.1875 51.90625 
z
" id="DejaVuSerif-69"/>
      <path d="M 51.8125 41.796875 
Q 54.390625 47.515625 58.421875 50.421875 
Q 62.453125 53.328125 67.828125 53.328125 
Q 75.984375 53.328125 79.984375 48.265625 
Q 83.984375 43.21875 83.984375 33.015625 
L 83.984375 5.171875 
L 92.09375 5.171875 
L 92.09375 0 
L 67.1875 0 
L 67.1875 5.171875 
L 75 5.171875 
L 75 31.984375 
Q 75 39.9375 72.65625 43.3125 
Q 70.3125 46.6875 64.890625 46.6875 
Q 58.890625 46.6875 55.734375 42.140625 
Q 52.59375 37.59375 52.59375 28.90625 
L 52.59375 5.171875 
L 60.40625 5.171875 
L 60.40625 0 
L 35.796875 0 
L 35.796875 5.171875 
L 43.609375 5.171875 
L 43.609375 32.328125 
Q 43.609375 40.09375 41.265625 43.390625 
Q 38.921875 46.6875 33.5 46.6875 
Q 27.484375 46.6875 24.328125 42.140625 
Q 21.1875 37.59375 21.1875 28.90625 
L 21.1875 5.171875 
L 29 5.171875 
L 29 0 
L 4.109375 0 
L 4.109375 5.171875 
L 12.203125 5.171875 
L 12.203125 46.78125 
L 3.609375 46.78125 
L 3.609375 51.90625 
L 21.1875 51.90625 
L 21.1875 42.671875 
Q 23.6875 47.859375 27.53125 50.59375 
Q 31.390625 53.328125 36.28125 53.328125 
Q 42.328125 53.328125 46.375 50.3125 
Q 50.4375 47.3125 51.8125 41.796875 
z
" id="DejaVuSerif-6d"/>
      <path d="M 35.40625 51.90625 
L 52.203125 51.90625 
L 52.203125 5.171875 
L 60.6875 5.171875 
L 60.6875 0 
L 43.21875 0 
L 43.21875 9.1875 
Q 40.71875 4 36.765625 1.28125 
Q 32.8125 -1.421875 27.59375 -1.421875 
Q 18.953125 -1.421875 14.875 3.484375 
Q 10.796875 8.40625 10.796875 18.890625 
L 10.796875 46.6875 
L 2.6875 46.6875 
L 2.6875 51.90625 
L 19.828125 51.90625 
L 19.828125 21.6875 
Q 19.828125 12.203125 22.140625 8.6875 
Q 24.46875 5.171875 30.421875 5.171875 
Q 36.671875 5.171875 39.9375 9.765625 
Q 43.21875 14.359375 43.21875 23.09375 
L 43.21875 46.6875 
L 35.40625 46.6875 
z
" id="DejaVuSerif-75"/>
      <path d="M 20.515625 5.171875 
L 29 5.171875 
L 29 0 
L 2.875 0 
L 2.875 5.171875 
L 11.53125 5.171875 
L 11.53125 70.796875 
L 2.875 70.796875 
L 2.875 75.984375 
L 20.515625 75.984375 
z
" id="DejaVuSerif-6c"/>
      <path d="M 39.796875 16.3125 
L 39.796875 27.296875 
L 28.21875 27.296875 
Q 21.53125 27.296875 18.25 24.40625 
Q 14.984375 21.53125 14.984375 15.578125 
Q 14.984375 10.15625 18.296875 6.984375 
Q 21.625 3.8125 27.296875 3.8125 
Q 32.90625 3.8125 36.34375 7.28125 
Q 39.796875 10.75 39.796875 16.3125 
z
M 48.78125 32.421875 
L 48.78125 5.171875 
L 56.78125 5.171875 
L 56.78125 0 
L 39.796875 0 
L 39.796875 5.609375 
Q 36.8125 2 32.90625 0.28125 
Q 29 -1.421875 23.78125 -1.421875 
Q 15.140625 -1.421875 10.0625 3.171875 
Q 4.984375 7.765625 4.984375 15.578125 
Q 4.984375 23.640625 10.796875 28.078125 
Q 16.609375 32.515625 27.203125 32.515625 
L 39.796875 32.515625 
L 39.796875 36.078125 
Q 39.796875 42 36.203125 45.234375 
Q 32.625 48.484375 26.125 48.484375 
Q 20.75 48.484375 17.578125 46.046875 
Q 14.40625 43.609375 13.625 38.8125 
L 8.984375 38.8125 
L 8.984375 49.3125 
Q 13.671875 51.3125 18.09375 52.3125 
Q 22.515625 53.328125 26.703125 53.328125 
Q 37.5 53.328125 43.140625 47.96875 
Q 48.78125 42.625 48.78125 32.421875 
z
" id="DejaVuSerif-61"/>
      <path d="M 10.796875 46.6875 
L 2.875 46.6875 
L 2.875 51.90625 
L 10.796875 51.90625 
L 10.796875 68.015625 
L 19.828125 68.015625 
L 19.828125 51.90625 
L 36.71875 51.90625 
L 36.71875 46.6875 
L 19.828125 46.6875 
L 19.828125 13.71875 
Q 19.828125 7.125 21.09375 5.265625 
Q 22.359375 3.421875 25.78125 3.421875 
Q 29.296875 3.421875 30.90625 5.484375 
Q 32.515625 7.5625 32.625 12.203125 
L 39.40625 12.203125 
Q 39.015625 5.125 35.546875 1.84375 
Q 32.078125 -1.421875 25 -1.421875 
Q 17.234375 -1.421875 14.015625 2.015625 
Q 10.796875 5.46875 10.796875 13.71875 
z
" id="DejaVuSerif-74"/>
      <path d="M 54.203125 25 
L 15.484375 25 
L 15.484375 24.609375 
Q 15.484375 14.109375 19.4375 8.765625 
Q 23.390625 3.421875 31.109375 3.421875 
Q 37.015625 3.421875 40.796875 6.515625 
Q 44.578125 9.625 46.09375 15.71875 
L 53.328125 15.71875 
Q 51.171875 7.171875 45.375 2.875 
Q 39.59375 -1.421875 30.171875 -1.421875 
Q 18.796875 -1.421875 11.890625 6.078125 
Q 4.984375 13.578125 4.984375 25.984375 
Q 4.984375 38.28125 11.765625 45.796875 
Q 18.5625 53.328125 29.59375 53.328125 
Q 41.359375 53.328125 47.65625 46.0625 
Q 53.953125 38.8125 54.203125 25 
z
M 43.609375 30.171875 
Q 43.3125 39.265625 39.765625 43.875 
Q 36.234375 48.484375 29.59375 48.484375 
Q 23.390625 48.484375 19.828125 43.84375 
Q 16.265625 39.203125 15.484375 30.171875 
z
" id="DejaVuSerif-65"/>
      <path d="M 52.484375 5.171875 
L 61.078125 5.171875 
L 61.078125 0 
L 43.5 0 
L 43.5 8.109375 
Q 40.875 3.21875 36.796875 0.890625 
Q 32.71875 -1.421875 26.703125 -1.421875 
Q 17.140625 -1.421875 11.0625 6.171875 
Q 4.984375 13.765625 4.984375 25.984375 
Q 4.984375 38.1875 11.03125 45.75 
Q 17.09375 53.328125 26.703125 53.328125 
Q 32.71875 53.328125 36.796875 51 
Q 40.875 48.6875 43.5 43.796875 
L 43.5 70.796875 
L 35.015625 70.796875 
L 35.015625 75.984375 
L 52.484375 75.984375 
z
M 43.5 23.390625 
L 43.5 28.515625 
Q 43.5 37.84375 39.90625 42.765625 
Q 36.328125 47.703125 29.5 47.703125 
Q 22.5625 47.703125 19.015625 42.234375 
Q 15.484375 36.765625 15.484375 25.984375 
Q 15.484375 15.234375 19.015625 9.71875 
Q 22.5625 4.203125 29.5 4.203125 
Q 36.328125 4.203125 39.90625 9.109375 
Q 43.5 14.015625 43.5 23.390625 
z
" id="DejaVuSerif-64"/>
      <path d="M 7.078125 -15.578125 
L 7.078125 -10.796875 
Q 14.59375 -5.609375 17.890625 3.78125 
Q 21.1875 13.1875 21.1875 30.171875 
Q 21.1875 47.21875 17.890625 56.609375 
Q 14.59375 66.015625 7.078125 71.1875 
L 7.078125 75.984375 
Q 19 70.65625 25.046875 59.109375 
Q 31.109375 47.5625 31.109375 30.171875 
Q 31.109375 12.84375 25.046875 1.296875 
Q 19 -10.25 7.078125 -15.578125 
z
" id="DejaVuSerif-29"/>
     </defs>
     <g style="fill:#d2d2d2;" transform="translate(270 289.25875)scale(0.18 -0.18)">
      <use transform="translate(0 0.015625)" xlink:href="#STIXNonUnicode-Italic-e232"/>
      <use transform="translate(65.199997 0.015625)" xlink:href="#DejaVuSerif-20"/>
      <use transform="translate(96.987106 0.015625)" xlink:href="#DejaVuSerif-28"/>
      <use transform="translate(136.000778 0.015625)" xlink:href="#DejaVuSerif-53"/>
      <use transform="translate(204.506638 0.015625)" xlink:href="#DejaVuSerif-69"/>
      <use transform="translate(236.489059 0.015625)" xlink:href="#DejaVuSerif-6d"/>
      <use transform="translate(331.313278 0.015625)" xlink:href="#DejaVuSerif-75"/>
      <use transform="translate(395.717575 0.015625)" xlink:href="#DejaVuSerif-6c"/>
      <use transform="translate(427.699997 0.015625)" xlink:href="#DejaVuSerif-61"/>
      <use transform="translate(487.319138 0.015625)" xlink:href="#DejaVuSerif-74"/>
      <use transform="translate(527.504684 0.015625)" xlink:href="#DejaVuSerif-65"/>
      <use transform="translate(586.684372 0.015625)" xlink:href="#DejaVuSerif-64"/>
      <use transform="translate(650.698044 0.015625)" xlink:href="#DejaVuSerif-29"/>
     </g>
    </g>
   </g>
   <g id="matplotlib.axis_2">
    <g id="ytick_1">
     <g id="line2d_9">
      <defs>
       <path d="M 0 0 
L -3.5 0 
" id="mf15d7a2b88" style="stroke:#d2d2d2;stroke-width:0.8;"/>
      </defs>
      <g>
       <use style="fill:#d2d2d2;stroke:#d2d2d2;stroke-width:0.8;" x="81" xlink:href="#mf15d7a2b88" y="252"/>
      </g>
     </g>
     <g id="text_10">
      <!-- $\mathdefault{0.0}$ -->
      <defs>
       <path d="M 9.421875 5.078125 
Q 9.421875 7.8125 11.28125 9.71875 
Q 13.140625 11.625 15.921875 11.625 
Q 18.609375 11.625 20.5 9.71875 
Q 22.40625 7.8125 22.40625 5.078125 
Q 22.40625 2.390625 20.5 0.484375 
Q 18.609375 -1.421875 15.921875 -1.421875 
Q 13.140625 -1.421875 11.28125 0.453125 
Q 9.421875 2.34375 9.421875 5.078125 
z
" id="DejaVuSerif-2e"/>
      </defs>
      <g style="fill:#d2d2d2;" transform="translate(58 255.799219)scale(0.1 -0.1)">
       <use transform="translate(0 0.78125)" xlink:href="#DejaVuSerif-30"/>
       <use transform="translate(63.623047 0.78125)" xlink:href="#DejaVuSerif-2e"/>
       <use transform="translate(95.410156 0.78125)" xlink:href="#DejaVuSerif-30"/>
      </g>
     </g>
    </g>
    <g id="ytick_2">
     <g id="line2d_10">
      <g>
       <use style="fill:#d2d2d2;stroke:#d2d2d2;stroke-width:0.8;" x="81" xlink:href="#mf15d7a2b88" y="207.638303"/>
      </g>
     </g>
     <g id="text_11">
      <!-- $\mathdefault{0.2}$ -->
      <g style="fill:#d2d2d2;" transform="translate(58 211.437521)scale(0.1 -0.1)">
       <use transform="translate(0 0.78125)" xlink:href="#DejaVuSerif-30"/>
       <use transform="translate(63.623047 0.78125)" xlink:href="#DejaVuSerif-2e"/>
       <use transform="translate(95.378906 0.78125)" xlink:href="#DejaVuSerif-32"/>
      </g>
     </g>
    </g>
    <g id="ytick_3">
     <g id="line2d_11">
      <g>
       <use style="fill:#d2d2d2;stroke:#d2d2d2;stroke-width:0.8;" x="81" xlink:href="#mf15d7a2b88" y="163.276605"/>
      </g>
     </g>
     <g id="text_12">
      <!-- $\mathdefault{0.4}$ -->
      <g style="fill:#d2d2d2;" transform="translate(58 167.075824)scale(0.1 -0.1)">
       <use transform="translate(0 0.78125)" xlink:href="#DejaVuSerif-30"/>
       <use transform="translate(63.623047 0.78125)" xlink:href="#DejaVuSerif-2e"/>
       <use transform="translate(95.410156 0.78125)" xlink:href="#DejaVuSerif-34"/>
      </g>
     </g>
    </g>
    <g id="ytick_4">
     <g id="line2d_12">
      <g>
       <use style="fill:#d2d2d2;stroke:#d2d2d2;stroke-width:0.8;" x="81" xlink:href="#mf15d7a2b88" y="118.914908"/>
      </g>
     </g>
     <g id="text_13">
      <!-- $\mathdefault{0.6}$ -->
      <g style="fill:#d2d2d2;" transform="translate(58 122.714127)scale(0.1 -0.1)">
       <use transform="translate(0 0.78125)" xlink:href="#DejaVuSerif-30"/>
       <use transform="translate(63.623047 0.78125)" xlink:href="#DejaVuSerif-2e"/>
       <use transform="translate(95.410156 0.78125)" xlink:href="#DejaVuSerif-36"/>
      </g>
     </g>
    </g>
    <g id="ytick_5">
     <g id="line2d_13">
      <g>
       <use style="fill:#d2d2d2;stroke:#d2d2d2;stroke-width:0.8;" x="81" xlink:href="#mf15d7a2b88" y="74.553211"/>
      </g>
     </g>
     <g id="text_14">
      <!-- $\mathdefault{0.8}$ -->
      <defs>
       <path d="M 46.578125 19.921875 
Q 46.578125 27.734375 42.6875 32.046875 
Q 38.8125 36.375 31.78125 36.375 
Q 24.75 36.375 20.875 32.046875 
Q 17 27.734375 17 19.921875 
Q 17 12.0625 20.875 7.734375 
Q 24.75 3.421875 31.78125 3.421875 
Q 38.8125 3.421875 42.6875 7.734375 
Q 46.578125 12.0625 46.578125 19.921875 
z
M 44.578125 55.328125 
Q 44.578125 61.96875 41.203125 65.671875 
Q 37.84375 69.390625 31.78125 69.390625 
Q 25.78125 69.390625 22.390625 65.671875 
Q 19 61.96875 19 55.328125 
Q 19 48.640625 22.390625 44.921875 
Q 25.78125 41.21875 31.78125 41.21875 
Q 37.84375 41.21875 41.203125 44.921875 
Q 44.578125 48.640625 44.578125 55.328125 
z
M 39.3125 38.8125 
Q 47.609375 37.703125 52.25 32.6875 
Q 56.890625 27.6875 56.890625 19.921875 
Q 56.890625 9.671875 50.390625 4.125 
Q 43.890625 -1.421875 31.78125 -1.421875 
Q 19.734375 -1.421875 13.203125 4.125 
Q 6.6875 9.671875 6.6875 19.921875 
Q 6.6875 27.6875 11.328125 32.6875 
Q 15.96875 37.703125 24.3125 38.8125 
Q 16.9375 40.140625 13 44.40625 
Q 9.078125 48.6875 9.078125 55.328125 
Q 9.078125 64.109375 15.125 69.15625 
Q 21.1875 74.21875 31.78125 74.21875 
Q 42.390625 74.21875 48.4375 69.15625 
Q 54.5 64.109375 54.5 55.328125 
Q 54.5 48.6875 50.5625 44.40625 
Q 46.625 40.140625 39.3125 38.8125 
z
" id="DejaVuSerif-38"/>
      </defs>
      <g style="fill:#d2d2d2;" transform="translate(58.1 78.35243)scale(0.1 -0.1)">
       <use transform="translate(0 0.78125)" xlink:href="#DejaVuSerif-30"/>
       <use transform="translate(63.623047 0.78125)" xlink:href="#DejaVuSerif-2e"/>
       <use transform="translate(95.363281 0.78125)" xlink:href="#DejaVuSerif-38"/>
      </g>
     </g>
    </g>
    <g id="text_15">
     <!-- Density -->
     <defs>
      <path d="M 24.703125 5.171875 
L 33.796875 5.171875 
Q 48 5.171875 55.59375 13.28125 
Q 63.1875 21.390625 63.1875 36.53125 
Q 63.1875 51.65625 55.609375 59.65625 
Q 48.046875 67.671875 33.796875 67.671875 
L 24.703125 67.671875 
z
M 5.515625 0 
L 5.515625 5.171875 
L 14.796875 5.171875 
L 14.796875 67.671875 
L 5.515625 67.671875 
L 5.515625 72.90625 
L 34.515625 72.90625 
Q 53.375 72.90625 63.890625 63.28125 
Q 74.421875 53.65625 74.421875 36.53125 
Q 74.421875 19.34375 63.875 9.671875 
Q 53.328125 0 34.515625 0 
z
" id="DejaVuSerif-44"/>
      <path d="M 4.109375 0 
L 4.109375 5.171875 
L 12.203125 5.171875 
L 12.203125 46.6875 
L 3.609375 46.6875 
L 3.609375 51.90625 
L 21.1875 51.90625 
L 21.1875 42.671875 
Q 23.6875 47.953125 27.65625 50.640625 
Q 31.640625 53.328125 36.921875 53.328125 
Q 45.515625 53.328125 49.5625 48.390625 
Q 53.609375 43.453125 53.609375 33.015625 
L 53.609375 5.171875 
L 61.625 5.171875 
L 61.625 0 
L 36.8125 0 
L 36.8125 5.171875 
L 44.578125 5.171875 
L 44.578125 30.171875 
Q 44.578125 39.703125 42.234375 43.234375 
Q 39.890625 46.78125 33.984375 46.78125 
Q 27.734375 46.78125 24.453125 42.203125 
Q 21.1875 37.640625 21.1875 28.90625 
L 21.1875 5.171875 
L 29 5.171875 
L 29 0 
z
" id="DejaVuSerif-6e"/>
      <path d="M 5.609375 2.875 
L 5.609375 14.984375 
L 10.796875 14.984375 
Q 10.984375 9.1875 14.421875 6.296875 
Q 17.875 3.421875 24.609375 3.421875 
Q 30.671875 3.421875 33.84375 5.6875 
Q 37.015625 7.953125 37.015625 12.3125 
Q 37.015625 15.71875 34.6875 17.8125 
Q 32.375 19.921875 24.90625 22.3125 
L 18.40625 24.515625 
Q 11.71875 26.65625 8.71875 29.875 
Q 5.71875 33.109375 5.71875 38.09375 
Q 5.71875 45.21875 10.9375 49.265625 
Q 16.15625 53.328125 25.390625 53.328125 
Q 29.5 53.328125 34.03125 52.25 
Q 38.578125 51.171875 43.40625 49.125 
L 43.40625 37.796875 
L 38.234375 37.796875 
Q 38.03125 42.828125 34.703125 45.65625 
Q 31.390625 48.484375 25.6875 48.484375 
Q 20.015625 48.484375 17.109375 46.484375 
Q 14.203125 44.484375 14.203125 40.484375 
Q 14.203125 37.203125 16.40625 35.21875 
Q 18.609375 33.25 25.203125 31.203125 
L 32.328125 29 
Q 39.703125 26.703125 42.9375 23.265625 
Q 46.1875 19.828125 46.1875 14.40625 
Q 46.1875 7.03125 40.546875 2.796875 
Q 34.90625 -1.421875 25 -1.421875 
Q 19.96875 -1.421875 15.1875 -0.34375 
Q 10.40625 0.734375 5.609375 2.875 
z
" id="DejaVuSerif-73"/>
      <path d="M 21.578125 -9.515625 
L 25 -0.875 
L 5.609375 46.6875 
L -0.296875 46.6875 
L -0.296875 51.90625 
L 23.578125 51.90625 
L 23.578125 46.6875 
L 15.28125 46.6875 
L 29.890625 10.984375 
L 44.484375 46.6875 
L 36.71875 46.6875 
L 36.71875 51.90625 
L 56.203125 51.90625 
L 56.203125 46.6875 
L 50.390625 46.6875 
L 26.609375 -11.71875 
Q 24.171875 -17.78125 21.1875 -20 
Q 18.21875 -22.21875 12.796875 -22.21875 
Q 10.5 -22.21875 8.078125 -21.828125 
Q 5.671875 -21.4375 3.21875 -20.703125 
L 3.21875 -10.796875 
L 7.8125 -10.796875 
Q 8.109375 -14.109375 9.5 -15.546875 
Q 10.890625 -17 13.8125 -17 
Q 16.5 -17 18.140625 -15.5 
Q 19.78125 -14.015625 21.578125 -9.515625 
z
" id="DejaVuSerif-79"/>
     </defs>
     <g style="fill:#d2d2d2;" transform="translate(50.000625 177.8175)rotate(-90)scale(0.18 -0.18)">
      <use xlink:href="#DejaVuSerif-44"/>
      <use x="80.175781" xlink:href="#DejaVuSerif-65"/>
      <use x="139.355469" xlink:href="#DejaVuSerif-6e"/>
      <use x="203.759766" xlink:href="#DejaVuSerif-73"/>
      <use x="255.078125" xlink:href="#DejaVuSerif-69"/>
      <use x="287.060547" xlink:href="#DejaVuSerif-74"/>
      <use x="327.246094" xlink:href="#DejaVuSerif-79"/>
     </g>
    </g>
   </g>
   <g id="patch_95">
    <path d="M 81 252 
L 81 34.56 
" style="fill:none;stroke:#d2d2d2;stroke-linecap:square;stroke-linejoin:miter;stroke-width:1.5;"/>
   </g>
   <g id="patch_96">
    <path d="M 81 252 
L 583.2 252 
" style="fill:none;stroke:#d2d2d2;stroke-linecap:square;stroke-linejoin:miter;stroke-width:1.5;"/>
   </g>
   <g id="text_16">
    <!-- Bootstrap ANOVA of UCLA Salary Samples -->
    <defs>
     <path d="M 24.703125 5.171875 
L 39.3125 5.171875 
Q 48.09375 5.171875 52.140625 8.984375 
Q 56.203125 12.796875 56.203125 21.09375 
Q 56.203125 29.34375 52.171875 33.125 
Q 48.140625 36.921875 39.3125 36.921875 
L 24.703125 36.921875 
z
M 24.703125 42.09375 
L 37.109375 42.09375 
Q 45.125 42.09375 48.796875 45.171875 
Q 52.484375 48.25 52.484375 54.890625 
Q 52.484375 61.578125 48.796875 64.625 
Q 45.125 67.671875 37.109375 67.671875 
L 24.703125 67.671875 
z
M 5.515625 0 
L 5.515625 5.171875 
L 14.796875 5.171875 
L 14.796875 67.671875 
L 5.515625 67.671875 
L 5.515625 72.90625 
L 41.5 72.90625 
Q 52.546875 72.90625 58.125 68.390625 
Q 63.71875 63.875 63.71875 54.890625 
Q 63.71875 48.390625 59.828125 44.53125 
Q 55.953125 40.671875 48.484375 39.796875 
Q 57.765625 38.625 62.578125 33.859375 
Q 67.390625 29.109375 67.390625 21.09375 
Q 67.390625 10.25 60.546875 5.125 
Q 53.71875 0 39.203125 0 
z
" id="DejaVuSerif-42"/>
     <path d="M 30.078125 3.421875 
Q 37.3125 3.421875 40.984375 9.125 
Q 44.671875 14.84375 44.671875 25.984375 
Q 44.671875 37.109375 40.984375 42.796875 
Q 37.3125 48.484375 30.078125 48.484375 
Q 22.859375 48.484375 19.171875 42.796875 
Q 15.484375 37.109375 15.484375 25.984375 
Q 15.484375 14.84375 19.1875 9.125 
Q 22.90625 3.421875 30.078125 3.421875 
z
M 30.078125 -1.421875 
Q 18.75 -1.421875 11.859375 6.078125 
Q 4.984375 13.578125 4.984375 25.984375 
Q 4.984375 38.375 11.84375 45.84375 
Q 18.703125 53.328125 30.078125 53.328125 
Q 41.453125 53.328125 48.3125 45.84375 
Q 55.171875 38.375 55.171875 25.984375 
Q 55.171875 13.578125 48.3125 6.078125 
Q 41.453125 -1.421875 30.078125 -1.421875 
z
" id="DejaVuSerif-6f"/>
     <path d="M 47.796875 52 
L 47.796875 39.015625 
L 42.625 39.015625 
Q 42.390625 42.875 40.484375 44.78125 
Q 38.578125 46.6875 34.90625 46.6875 
Q 28.265625 46.6875 24.71875 42.09375 
Q 21.1875 37.5 21.1875 28.90625 
L 21.1875 5.171875 
L 31.59375 5.171875 
L 31.59375 0 
L 4.109375 0 
L 4.109375 5.171875 
L 12.203125 5.171875 
L 12.203125 46.78125 
L 3.609375 46.78125 
L 3.609375 51.90625 
L 21.1875 51.90625 
L 21.1875 42.671875 
Q 23.828125 48.09375 27.96875 50.703125 
Q 32.125 53.328125 38.09375 53.328125 
Q 40.28125 53.328125 42.703125 52.984375 
Q 45.125 52.640625 47.796875 52 
z
" id="DejaVuSerif-72"/>
     <path d="M 20.515625 28.515625 
L 20.515625 23.390625 
Q 20.515625 14.015625 24.09375 9.109375 
Q 27.6875 4.203125 34.515625 4.203125 
Q 41.40625 4.203125 44.9375 9.71875 
Q 48.484375 15.234375 48.484375 25.984375 
Q 48.484375 36.765625 44.9375 42.234375 
Q 41.40625 47.703125 34.515625 47.703125 
Q 27.6875 47.703125 24.09375 42.765625 
Q 20.515625 37.84375 20.515625 28.515625 
z
M 11.53125 46.6875 
L 2.875 46.6875 
L 2.875 51.90625 
L 20.515625 51.90625 
L 20.515625 43.796875 
Q 23.140625 48.6875 27.21875 51 
Q 31.296875 53.328125 37.3125 53.328125 
Q 46.875 53.328125 52.921875 45.75 
Q 58.984375 38.1875 58.984375 25.984375 
Q 58.984375 13.765625 52.921875 6.171875 
Q 46.875 -1.421875 37.3125 -1.421875 
Q 31.296875 -1.421875 27.21875 0.890625 
Q 23.140625 3.21875 20.515625 8.109375 
L 20.515625 -15.578125 
L 29 -15.578125 
L 29 -20.796875 
L 2.875 -20.796875 
L 2.875 -15.578125 
L 11.53125 -15.578125 
z
" id="DejaVuSerif-70"/>
     <path d="M 20.015625 26.421875 
L 46.78125 26.421875 
L 33.40625 61.078125 
z
M -0.59375 0 
L -0.59375 5.171875 
L 5.8125 5.171875 
L 31.78125 72.90625 
L 39.984375 72.90625 
L 66.015625 5.171875 
L 73.1875 5.171875 
L 73.1875 0 
L 46.6875 0 
L 46.6875 5.171875 
L 54.78125 5.171875 
L 48.6875 21.1875 
L 18.015625 21.1875 
L 11.921875 5.171875 
L 19.921875 5.171875 
L 19.921875 0 
z
" id="DejaVuSerif-41"/>
     <path d="M 4.890625 0 
L 4.890625 5.171875 
L 14.703125 5.171875 
L 14.703125 67.671875 
L 4.890625 67.671875 
L 4.890625 72.90625 
L 23.578125 72.90625 
L 67.28125 15.375 
L 67.28125 67.671875 
L 57.515625 67.671875 
L 57.515625 72.90625 
L 83.109375 72.90625 
L 83.109375 67.671875 
L 73.296875 67.671875 
L 73.296875 -1.421875 
L 67.390625 -1.421875 
L 20.703125 60.015625 
L 20.703125 5.171875 
L 30.515625 5.171875 
L 30.515625 0 
z
" id="DejaVuSerif-4e"/>
     <path d="M 41.015625 3.8125 
Q 52.984375 3.8125 59.078125 12.03125 
Q 65.1875 20.265625 65.1875 36.375 
Q 65.1875 52.546875 59.078125 60.765625 
Q 52.984375 69 41.015625 69 
Q 29 69 22.890625 60.765625 
Q 16.796875 52.546875 16.796875 36.375 
Q 16.796875 20.265625 22.890625 12.03125 
Q 29 3.8125 41.015625 3.8125 
z
M 41.015625 -1.421875 
Q 33.59375 -1.421875 27.359375 1.015625 
Q 21.140625 3.46875 16.40625 8.203125 
Q 10.9375 13.671875 8.265625 20.609375 
Q 5.609375 27.546875 5.609375 36.375 
Q 5.609375 45.21875 8.265625 52.171875 
Q 10.9375 59.125 16.40625 64.59375 
Q 21.1875 69.390625 27.34375 71.796875 
Q 33.5 74.21875 41.015625 74.21875 
Q 56.890625 74.21875 66.65625 63.8125 
Q 76.421875 53.421875 76.421875 36.375 
Q 76.421875 27.640625 73.734375 20.625 
Q 71.046875 13.625 65.578125 8.203125 
Q 60.796875 3.421875 54.640625 1 
Q 48.484375 -1.421875 41.015625 -1.421875 
z
" id="DejaVuSerif-4f"/>
     <path d="M 17.484375 67.671875 
L 39.015625 11.71875 
L 60.5 67.671875 
L 52.296875 67.671875 
L 52.296875 72.90625 
L 73.6875 72.90625 
L 73.6875 67.671875 
L 66.609375 67.671875 
L 40.578125 0 
L 32.171875 0 
L 6.296875 67.671875 
L -0.984375 67.671875 
L -0.984375 72.90625 
L 25.59375 72.90625 
L 25.59375 67.671875 
z
" id="DejaVuSerif-56"/>
     <path d="M 43.015625 63.71875 
L 38.28125 63.71875 
Q 38.234375 67.390625 36.203125 69.28125 
Q 34.1875 71.1875 30.328125 71.1875 
Q 25.296875 71.1875 23.234375 68.421875 
Q 21.1875 65.671875 21.1875 58.59375 
L 21.1875 51.90625 
L 35.6875 51.90625 
L 35.6875 46.6875 
L 21.1875 46.6875 
L 21.1875 5.171875 
L 32.71875 5.171875 
L 32.71875 0 
L 3.609375 0 
L 3.609375 5.171875 
L 12.203125 5.171875 
L 12.203125 46.6875 
L 3.609375 46.6875 
L 3.609375 51.90625 
L 12.203125 51.90625 
L 12.203125 58.40625 
Q 12.203125 67.09375 16.71875 71.53125 
Q 21.234375 75.984375 29.984375 75.984375 
Q 33.25 75.984375 36.515625 75.390625 
Q 39.796875 74.8125 43.015625 73.578125 
z
" id="DejaVuSerif-66"/>
     <path d="M 14.015625 67.671875 
L 4.6875 67.671875 
L 4.6875 72.90625 
L 33.203125 72.90625 
L 33.203125 67.671875 
L 23.875 67.671875 
L 23.875 29.984375 
Q 23.875 16.015625 28.4375 10.5 
Q 33.015625 4.984375 44.1875 4.984375 
Q 55.375 4.984375 59.9375 10.5 
Q 64.5 16.015625 64.5 29.984375 
L 64.5 67.671875 
L 55.171875 67.671875 
L 55.171875 72.90625 
L 79.78125 72.90625 
L 79.78125 67.671875 
L 70.515625 67.671875 
L 70.515625 29 
Q 70.515625 12.359375 64.109375 5.46875 
Q 57.71875 -1.421875 42.390625 -1.421875 
Q 27.046875 -1.421875 20.53125 5.515625 
Q 14.015625 12.453125 14.015625 29 
z
" id="DejaVuSerif-55"/>
     <path d="M 70.515625 19.28125 
Q 67.28125 9.078125 59.6875 3.828125 
Q 52.09375 -1.421875 40.484375 -1.421875 
Q 33.34375 -1.421875 27.234375 1.015625 
Q 21.140625 3.46875 16.40625 8.203125 
Q 10.9375 13.671875 8.265625 20.625 
Q 5.609375 27.59375 5.609375 36.375 
Q 5.609375 53.375 15.421875 63.796875 
Q 25.25 74.21875 41.3125 74.21875 
Q 47.265625 74.21875 54 72.65625 
Q 60.75 71.09375 68.5 67.921875 
L 68.5 51.125 
L 62.984375 51.125 
Q 61.1875 60.296875 55.734375 64.640625 
Q 50.296875 69 40.484375 69 
Q 28.8125 69 22.796875 60.71875 
Q 16.796875 52.4375 16.796875 36.375 
Q 16.796875 20.359375 22.796875 12.078125 
Q 28.8125 3.8125 40.484375 3.8125 
Q 48.640625 3.8125 53.90625 7.6875 
Q 59.1875 11.578125 61.53125 19.28125 
z
" id="DejaVuSerif-43"/>
     <path d="M 5.515625 0 
L 5.515625 5.171875 
L 14.796875 5.171875 
L 14.796875 67.671875 
L 5.515625 67.671875 
L 5.515625 72.90625 
L 33.984375 72.90625 
L 33.984375 67.671875 
L 24.703125 67.671875 
L 24.703125 6 
L 58.015625 6 
L 58.015625 18.21875 
L 64.015625 18.21875 
L 64.015625 0 
z
" id="DejaVuSerif-4c"/>
    </defs>
    <g style="fill:#d2d2d2;" transform="translate(200.575313 28.56)scale(0.12 -0.12)">
     <use xlink:href="#DejaVuSerif-42"/>
     <use x="73.486328" xlink:href="#DejaVuSerif-6f"/>
     <use x="133.691406" xlink:href="#DejaVuSerif-6f"/>
     <use x="193.896484" xlink:href="#DejaVuSerif-74"/>
     <use x="234.082031" xlink:href="#DejaVuSerif-73"/>
     <use x="285.400391" xlink:href="#DejaVuSerif-74"/>
     <use x="325.585938" xlink:href="#DejaVuSerif-72"/>
     <use x="373.388672" xlink:href="#DejaVuSerif-61"/>
     <use x="433.007812" xlink:href="#DejaVuSerif-70"/>
     <use x="497.021484" xlink:href="#DejaVuSerif-20"/>
     <use x="528.808594" xlink:href="#DejaVuSerif-41"/>
     <use x="601.025391" xlink:href="#DejaVuSerif-4e"/>
     <use x="688.525391" xlink:href="#DejaVuSerif-4f"/>
     <use x="770.492188" xlink:href="#DejaVuSerif-56"/>
     <use x="842.615234" xlink:href="#DejaVuSerif-41"/>
     <use x="914.832031" xlink:href="#DejaVuSerif-20"/>
     <use x="946.619141" xlink:href="#DejaVuSerif-6f"/>
     <use x="1006.824219" xlink:href="#DejaVuSerif-66"/>
     <use x="1043.835938" xlink:href="#DejaVuSerif-20"/>
     <use x="1075.623047" xlink:href="#DejaVuSerif-55"/>
     <use x="1159.900391" xlink:href="#DejaVuSerif-43"/>
     <use x="1236.414062" xlink:href="#DejaVuSerif-4c"/>
     <use x="1302.820312" xlink:href="#DejaVuSerif-41"/>
     <use x="1375.037109" xlink:href="#DejaVuSerif-20"/>
     <use x="1406.824219" xlink:href="#DejaVuSerif-53"/>
     <use x="1475.330078" xlink:href="#DejaVuSerif-61"/>
     <use x="1534.949219" xlink:href="#DejaVuSerif-6c"/>
     <use x="1566.931641" xlink:href="#DejaVuSerif-61"/>
     <use x="1626.550781" xlink:href="#DejaVuSerif-72"/>
     <use x="1674.353516" xlink:href="#DejaVuSerif-79"/>
     <use x="1730.847656" xlink:href="#DejaVuSerif-20"/>
     <use x="1762.634766" xlink:href="#DejaVuSerif-53"/>
     <use x="1831.140625" xlink:href="#DejaVuSerif-61"/>
     <use x="1890.759766" xlink:href="#DejaVuSerif-6d"/>
     <use x="1985.583984" xlink:href="#DejaVuSerif-70"/>
     <use x="2049.597656" xlink:href="#DejaVuSerif-6c"/>
     <use x="2081.580078" xlink:href="#DejaVuSerif-65"/>
     <use x="2140.759766" xlink:href="#DejaVuSerif-73"/>
    </g>
   </g>
  </g>
  <g id="axes_2">
   <g id="line2d_14">
    <path clip-path="url(#p32af3b2d72)" d="M 280.980723 252 
L 280.980723 34.56 
" style="fill:none;stroke:#73b55b;stroke-linecap:square;stroke-width:3;"/>
   </g>
   <g id="line2d_15">
    <path clip-path="url(#p32af3b2d72)" d="M 302.057361 252 
L 302.057361 34.56 
" style="fill:none;stroke:#e04b4b;stroke-dasharray:2,3.3;stroke-dashoffset:0;stroke-width:2;"/>
   </g>
   <g id="text_17">
    <!-- $Crit_{\alpha = 0.05}=$ -->
    <defs>
     <path d="M 69.484375 67.28125 
L 67.484375 56.890625 
Q 62.796875 61.625 57.546875 63.921875 
Q 52.296875 66.21875 46.1875 66.21875 
Q 37.84375 66.21875 31.515625 62.203125 
Q 25.203125 58.203125 20.609375 50 
Q 17.671875 44.734375 16.125 38.84375 
Q 14.59375 32.953125 14.59375 27 
Q 14.59375 17.046875 19.75 11.8125 
Q 24.90625 6.59375 34.71875 6.59375 
Q 41.5 6.59375 47.75 8.765625 
Q 54 10.9375 59.90625 15.28125 
L 57.625 3.609375 
Q 51.8125 1.125 45.875 -0.140625 
Q 39.9375 -1.421875 33.984375 -1.421875 
Q 19.96875 -1.421875 12.078125 6.1875 
Q 4.203125 13.8125 4.203125 27.390625 
Q 4.203125 36.078125 7.203125 44.46875 
Q 10.203125 52.875 15.828125 59.8125 
Q 21.78125 67.1875 29.421875 70.703125 
Q 37.0625 74.21875 47.21875 74.21875 
Q 53.46875 74.21875 59.0625 72.484375 
Q 64.65625 70.75 69.484375 67.28125 
z
" id="DejaVuSans-Oblique-43"/>
     <path d="M 44.578125 46.390625 
Q 43.21875 47.125 41.453125 47.515625 
Q 39.703125 47.90625 37.703125 47.90625 
Q 30.515625 47.90625 25.140625 42.453125 
Q 19.78125 37.015625 18.015625 27.875 
L 12.5 0 
L 3.515625 0 
L 14.203125 54.6875 
L 23.1875 54.6875 
L 21.484375 46.1875 
Q 25.046875 50.921875 30 53.453125 
Q 34.96875 56 40.578125 56 
Q 42.046875 56 43.453125 55.828125 
Q 44.875 55.671875 46.296875 55.28125 
z
" id="DejaVuSans-Oblique-72"/>
     <path d="M 18.3125 75.984375 
L 27.296875 75.984375 
L 25.09375 64.59375 
L 16.109375 64.59375 
z
M 14.203125 54.6875 
L 23.1875 54.6875 
L 12.5 0 
L 3.515625 0 
z
" id="DejaVuSans-Oblique-69"/>
     <path d="M 42.28125 54.6875 
L 40.921875 47.703125 
L 23 47.703125 
L 17.1875 18.015625 
Q 16.890625 16.359375 16.75 15.234375 
Q 16.609375 14.109375 16.609375 13.484375 
Q 16.609375 10.359375 18.484375 8.9375 
Q 20.359375 7.515625 24.515625 7.515625 
L 33.59375 7.515625 
L 32.078125 0 
L 23.484375 0 
Q 15.484375 0 11.546875 3.125 
Q 7.625 6.25 7.625 12.59375 
Q 7.625 13.71875 7.765625 15.0625 
Q 7.90625 16.40625 8.203125 18.015625 
L 14.015625 47.703125 
L 6.390625 47.703125 
L 7.8125 54.6875 
L 15.28125 54.6875 
L 18.3125 70.21875 
L 27.296875 70.21875 
L 24.3125 54.6875 
z
" id="DejaVuSans-Oblique-74"/>
     <path d="M 40.921875 25.4375 
L 40.96875 36.71875 
Q 41.015625 48.25 32.328125 48.296875 
Q 25.828125 48.34375 21.78125 42.921875 
Q 16.703125 36.234375 14.984375 27.296875 
Q 12.890625 16.546875 15.53125 11.421875 
Q 18.265625 6.203125 24.171875 6.203125 
Q 30.71875 6.203125 36.234375 16.609375 
z
M 33.84375 55.90625 
Q 49.078125 56.15625 48.875 40.375 
Q 48.875 40.375 56.5 54.6875 
L 64.5 54.6875 
L 48.734375 25.046875 
L 48.578125 14.359375 
Q 48.578125 11.96875 49.90625 9.96875 
Q 51.421875 7.625 52.984375 7.625 
L 57.328125 7.625 
L 55.859375 0 
L 50.4375 0 
Q 45.84375 0 42.53125 4.109375 
Q 40.96875 6.15625 40.921875 10.453125 
Q 37.75 5.21875 32.28125 0.78125 
Q 29.6875 -1.265625 22.703125 -1.21875 
Q 11.28125 -1.125 7.125 6.203125 
Q 2.875 13.8125 5.515625 27.296875 
Q 8.34375 41.796875 15.765625 48.390625 
Q 24.125 55.765625 33.84375 55.90625 
z
" id="DejaVuSans-Oblique-3b1"/>
     <path d="M 10.59375 45.40625 
L 73.1875 45.40625 
L 73.1875 37.203125 
L 10.59375 37.203125 
z
M 10.59375 25.484375 
L 73.1875 25.484375 
L 73.1875 17.1875 
L 10.59375 17.1875 
z
" id="DejaVuSans-3d"/>
     <path d="M 31.78125 66.40625 
Q 24.171875 66.40625 20.328125 58.90625 
Q 16.5 51.421875 16.5 36.375 
Q 16.5 21.390625 20.328125 13.890625 
Q 24.171875 6.390625 31.78125 6.390625 
Q 39.453125 6.390625 43.28125 13.890625 
Q 47.125 21.390625 47.125 36.375 
Q 47.125 51.421875 43.28125 58.90625 
Q 39.453125 66.40625 31.78125 66.40625 
z
M 31.78125 74.21875 
Q 44.046875 74.21875 50.515625 64.515625 
Q 56.984375 54.828125 56.984375 36.375 
Q 56.984375 17.96875 50.515625 8.265625 
Q 44.046875 -1.421875 31.78125 -1.421875 
Q 19.53125 -1.421875 13.0625 8.265625 
Q 6.59375 17.96875 6.59375 36.375 
Q 6.59375 54.828125 13.0625 64.515625 
Q 19.53125 74.21875 31.78125 74.21875 
z
" id="DejaVuSans-30"/>
     <path d="M 10.6875 12.40625 
L 21 12.40625 
L 21 0 
L 10.6875 0 
z
" id="DejaVuSans-2e"/>
     <path d="M 10.796875 72.90625 
L 49.515625 72.90625 
L 49.515625 64.59375 
L 19.828125 64.59375 
L 19.828125 46.734375 
Q 21.96875 47.46875 24.109375 47.828125 
Q 26.265625 48.1875 28.421875 48.1875 
Q 40.625 48.1875 47.75 41.5 
Q 54.890625 34.8125 54.890625 23.390625 
Q 54.890625 11.625 47.5625 5.09375 
Q 40.234375 -1.421875 26.90625 -1.421875 
Q 22.3125 -1.421875 17.546875 -0.640625 
Q 12.796875 0.140625 7.71875 1.703125 
L 7.71875 11.625 
Q 12.109375 9.234375 16.796875 8.0625 
Q 21.484375 6.890625 26.703125 6.890625 
Q 35.15625 6.890625 40.078125 11.328125 
Q 45.015625 15.765625 45.015625 23.390625 
Q 45.015625 31 40.078125 35.4375 
Q 35.15625 39.890625 26.703125 39.890625 
Q 22.75 39.890625 18.8125 39.015625 
Q 14.890625 38.140625 10.796875 36.28125 
z
" id="DejaVuSans-35"/>
    </defs>
    <g style="fill:#e04b4b;" transform="translate(313.110229 90.2055)scale(0.16 -0.16)">
     <use transform="translate(0 0.015625)" xlink:href="#DejaVuSans-Oblique-43"/>
     <use transform="translate(69.824219 0.015625)" xlink:href="#DejaVuSans-Oblique-72"/>
     <use transform="translate(110.9375 0.015625)" xlink:href="#DejaVuSans-Oblique-69"/>
     <use transform="translate(138.720703 0.015625)" xlink:href="#DejaVuSans-Oblique-74"/>
     <use transform="translate(177.929688 -16.390625)scale(0.7)" xlink:href="#DejaVuSans-Oblique-3b1"/>
     <use transform="translate(237.709961 -16.390625)scale(0.7)" xlink:href="#DejaVuSans-3d"/>
     <use transform="translate(310 -16.390625)scale(0.7)" xlink:href="#DejaVuSans-30"/>
     <use transform="translate(354.536133 -16.390625)scale(0.7)" xlink:href="#DejaVuSans-2e"/>
     <use transform="translate(376.787109 -16.390625)scale(0.7)" xlink:href="#DejaVuSans-30"/>
     <use transform="translate(421.323242 -16.390625)scale(0.7)" xlink:href="#DejaVuSans-35"/>
     <use transform="translate(488.076172 0.015625)" xlink:href="#DejaVuSans-3d"/>
    </g>
    <!-- 3.08 -->
    <g style="fill:#e04b4b;" transform="translate(313.110229 108.122)scale(0.16 -0.16)">
     <use xlink:href="#DejaVuSerif-33"/>
     <use x="63.623047" xlink:href="#DejaVuSerif-2e"/>
     <use x="95.410156" xlink:href="#DejaVuSerif-30"/>
     <use x="159.033203" xlink:href="#DejaVuSerif-38"/>
    </g>
   </g>
   <g id="text_18">
    <!-- $\mathcal{F}_{observed}=$2.79 -->
    <defs>
     <path d="M 25.390625 -1.421875 
Q 15.765625 -1.421875 10.171875 4.515625 
Q 4.59375 10.453125 4.59375 20.703125 
Q 4.59375 26.65625 6.515625 32.828125 
Q 8.453125 39.015625 11.53125 43.21875 
Q 16.359375 49.75 22.3125 52.875 
Q 28.265625 56 35.796875 56 
Q 45.125 56 50.859375 50.1875 
Q 56.59375 44.390625 56.59375 35.015625 
Q 56.59375 28.515625 54.6875 22.0625 
Q 52.78125 15.625 49.703125 11.375 
Q 44.921875 4.828125 38.96875 1.703125 
Q 33.015625 -1.421875 25.390625 -1.421875 
z
M 13.921875 21 
Q 13.921875 13.578125 17.015625 9.890625 
Q 20.125 6.203125 26.421875 6.203125 
Q 35.453125 6.203125 41.375 14.078125 
Q 47.3125 21.96875 47.3125 34.078125 
Q 47.3125 41.15625 44.140625 44.765625 
Q 40.96875 48.390625 34.8125 48.390625 
Q 29.734375 48.390625 25.78125 46.015625 
Q 21.828125 43.65625 18.703125 38.8125 
Q 16.40625 35.203125 15.15625 30.5625 
Q 13.921875 25.921875 13.921875 21 
z
" id="DejaVuSans-Oblique-6f"/>
     <path d="M 49.515625 33.40625 
Q 49.515625 40.484375 46.265625 44.484375 
Q 43.015625 48.484375 37.3125 48.484375 
Q 33.15625 48.484375 29.515625 46.453125 
Q 25.875 44.4375 23.1875 40.578125 
Q 20.359375 36.53125 18.71875 31.171875 
Q 17.09375 25.828125 17.09375 20.515625 
Q 17.09375 13.765625 20.28125 9.9375 
Q 23.484375 6.109375 29.109375 6.109375 
Q 33.34375 6.109375 36.953125 8.078125 
Q 40.578125 10.0625 43.3125 13.921875 
Q 46.09375 17.921875 47.796875 23.234375 
Q 49.515625 28.5625 49.515625 33.40625 
z
M 21.578125 46.390625 
Q 24.90625 50.875 29.90625 53.4375 
Q 34.90625 56 40.375 56 
Q 48.78125 56 53.734375 50.328125 
Q 58.6875 44.671875 58.6875 35.015625 
Q 58.6875 27.09375 55.78125 19.671875 
Q 52.875 12.25 47.515625 6.5 
Q 44 2.6875 39.40625 0.625 
Q 34.8125 -1.421875 29.78125 -1.421875 
Q 24.46875 -1.421875 20.5625 1.015625 
Q 16.65625 3.46875 14.203125 8.296875 
L 12.59375 0 
L 3.609375 0 
L 18.40625 75.984375 
L 27.390625 75.984375 
z
" id="DejaVuSans-Oblique-62"/>
     <path d="M 50 53.078125 
L 48.296875 44.578125 
Q 44.734375 46.53125 40.765625 47.5 
Q 36.8125 48.484375 32.625 48.484375 
Q 25.53125 48.484375 21.453125 46.0625 
Q 17.390625 43.65625 17.390625 39.5 
Q 17.390625 34.671875 26.859375 32.078125 
Q 27.59375 31.890625 27.9375 31.78125 
L 30.8125 30.90625 
Q 39.796875 28.421875 42.796875 25.6875 
Q 45.796875 22.953125 45.796875 18.21875 
Q 45.796875 9.515625 38.890625 4.046875 
Q 31.984375 -1.421875 20.796875 -1.421875 
Q 16.453125 -1.421875 11.671875 -0.578125 
Q 6.890625 0.25 1.125 2 
L 2.875 11.28125 
Q 7.8125 8.734375 12.59375 7.421875 
Q 17.390625 6.109375 21.78125 6.109375 
Q 28.375 6.109375 32.5 8.9375 
Q 36.625 11.765625 36.625 16.109375 
Q 36.625 20.796875 25.78125 23.6875 
L 24.859375 23.921875 
L 21.78125 24.703125 
Q 14.9375 26.515625 11.765625 29.46875 
Q 8.59375 32.421875 8.59375 37.015625 
Q 8.59375 45.75 15.15625 50.875 
Q 21.734375 56 33.015625 56 
Q 37.453125 56 41.671875 55.265625 
Q 45.90625 54.546875 50 53.078125 
z
" id="DejaVuSans-Oblique-73"/>
     <path d="M 48.09375 32.234375 
Q 48.25 33.015625 48.3125 33.84375 
Q 48.390625 34.671875 48.390625 35.5 
Q 48.390625 41.453125 44.890625 44.921875 
Q 41.40625 48.390625 35.40625 48.390625 
Q 28.71875 48.390625 23.578125 44.15625 
Q 18.453125 39.9375 15.828125 32.171875 
z
M 55.90625 25.203125 
L 14.109375 25.203125 
Q 13.8125 23.34375 13.71875 22.265625 
Q 13.625 21.1875 13.625 20.40625 
Q 13.625 13.625 17.796875 9.90625 
Q 21.96875 6.203125 29.59375 6.203125 
Q 35.453125 6.203125 40.671875 7.515625 
Q 45.90625 8.84375 50.390625 11.375 
L 48.6875 2.484375 
Q 43.84375 0.53125 38.6875 -0.4375 
Q 33.546875 -1.421875 28.21875 -1.421875 
Q 16.84375 -1.421875 10.71875 4.015625 
Q 4.59375 9.46875 4.59375 19.484375 
Q 4.59375 28.03125 7.640625 35.375 
Q 10.6875 42.71875 16.609375 48.484375 
Q 20.40625 52.09375 25.65625 54.046875 
Q 30.90625 56 36.8125 56 
Q 46.09375 56 51.578125 50.4375 
Q 57.078125 44.875 57.078125 35.5 
Q 57.078125 33.25 56.78125 30.6875 
Q 56.5 28.125 55.90625 25.203125 
z
" id="DejaVuSans-Oblique-65"/>
     <path d="M 7.171875 54.6875 
L 16.703125 54.6875 
L 24.703125 8.203125 
L 50.875 54.6875 
L 60.40625 54.6875 
L 29.296875 0 
L 17.1875 0 
z
" id="DejaVuSans-Oblique-76"/>
     <path d="M 41.796875 8.203125 
Q 38.1875 3.46875 33.25 1.015625 
Q 28.328125 -1.421875 22.3125 -1.421875 
Q 14.109375 -1.421875 9.34375 4.171875 
Q 4.59375 9.765625 4.59375 19.484375 
Q 4.59375 27.59375 7.46875 34.9375 
Q 10.359375 42.28125 15.828125 48.09375 
Q 19.4375 51.953125 23.96875 53.96875 
Q 28.515625 56 33.5 56 
Q 38.765625 56 42.796875 53.453125 
Q 46.828125 50.921875 49.03125 46.1875 
L 54.890625 75.984375 
L 63.921875 75.984375 
L 49.125 0 
L 40.09375 0 
z
M 13.921875 21.09375 
Q 13.921875 14.015625 17.109375 10.0625 
Q 20.3125 6.109375 25.984375 6.109375 
Q 30.171875 6.109375 33.765625 8.125 
Q 37.359375 10.15625 40.09375 14.109375 
Q 42.96875 18.21875 44.625 23.578125 
Q 46.296875 28.953125 46.296875 34.1875 
Q 46.296875 40.96875 43.09375 44.765625 
Q 39.890625 48.578125 34.28125 48.578125 
Q 30.03125 48.578125 26.359375 46.578125 
Q 22.703125 44.578125 20.125 40.828125 
Q 17.28125 36.765625 15.59375 31.390625 
Q 13.921875 26.03125 13.921875 21.09375 
z
" id="DejaVuSans-Oblique-64"/>
     <path d="M 46.78125 32.671875 
Q 43.5 29 39.25 27.1875 
Q 35.015625 25.390625 29.6875 25.390625 
Q 18.84375 25.390625 12.5625 31.9375 
Q 6.296875 38.484375 6.296875 49.8125 
Q 6.296875 60.890625 13.109375 67.546875 
Q 19.921875 74.21875 31.296875 74.21875 
Q 43.65625 74.21875 50.265625 65.015625 
Q 56.890625 55.8125 56.890625 38.71875 
Q 56.890625 19.578125 49.015625 9.078125 
Q 41.15625 -1.421875 26.90625 -1.421875 
Q 23.046875 -1.421875 18.796875 -0.6875 
Q 14.546875 0.046875 10.109375 1.515625 
L 10.109375 13.625 
L 15.578125 13.625 
Q 16.21875 8.6875 19.390625 6.046875 
Q 22.5625 3.421875 27.875 3.421875 
Q 37.359375 3.421875 41.984375 10.5625 
Q 46.625 17.71875 46.78125 32.671875 
z
M 30.90625 69.390625 
Q 23.96875 69.390625 20.28125 64.328125 
Q 16.609375 59.28125 16.609375 49.8125 
Q 16.609375 40.328125 20.28125 35.25 
Q 23.96875 30.171875 30.90625 30.171875 
Q 37.84375 30.171875 41.53125 35.078125 
Q 45.21875 39.984375 45.21875 49.21875 
Q 45.21875 58.9375 41.5 64.15625 
Q 37.796875 69.390625 30.90625 69.390625 
z
" id="DejaVuSerif-39"/>
    </defs>
    <g style="fill:#d2d2d2;" transform="translate(152.741687 57.5895)scale(0.16 -0.16)">
     <use transform="translate(0 0.78125)" xlink:href="#STIXNonUnicode-Italic-e232"/>
     <use transform="translate(66.157028 -15.625)scale(0.7)" xlink:href="#DejaVuSans-Oblique-6f"/>
     <use transform="translate(108.984177 -15.625)scale(0.7)" xlink:href="#DejaVuSans-Oblique-62"/>
     <use transform="translate(153.41777 -15.625)scale(0.7)" xlink:href="#DejaVuSans-Oblique-73"/>
     <use transform="translate(189.887497 -15.625)scale(0.7)" xlink:href="#DejaVuSans-Oblique-65"/>
     <use transform="translate(232.953903 -15.625)scale(0.7)" xlink:href="#DejaVuSans-Oblique-72"/>
     <use transform="translate(261.7332 -15.625)scale(0.7)" xlink:href="#DejaVuSans-Oblique-76"/>
     <use transform="translate(303.158981 -15.625)scale(0.7)" xlink:href="#DejaVuSans-Oblique-65"/>
     <use transform="translate(346.225388 -15.625)scale(0.7)" xlink:href="#DejaVuSans-Oblique-64"/>
     <use transform="translate(412.875778 0.78125)" xlink:href="#DejaVuSans-3d"/>
     <use transform="translate(516.147263 0.78125)" xlink:href="#DejaVuSerif-32"/>
     <use transform="translate(579.770309 0.78125)" xlink:href="#DejaVuSerif-2e"/>
     <use transform="translate(611.557419 0.78125)" xlink:href="#DejaVuSerif-37"/>
     <use transform="translate(675.180466 0.78125)" xlink:href="#DejaVuSerif-39"/>
    </g>
    <!-- p=0.0682 -->
    <defs>
     <path d="M 10.59375 45.21875 
L 73.1875 45.21875 
L 73.1875 37.40625 
L 10.59375 37.40625 
z
M 10.59375 25.296875 
L 73.1875 25.296875 
L 73.1875 17.484375 
L 10.59375 17.484375 
z
" id="DejaVuSerif-3d"/>
    </defs>
    <g style="fill:#d2d2d2;" transform="translate(191.346687 75.506)scale(0.16 -0.16)">
     <use xlink:href="#DejaVuSerif-70"/>
     <use x="64.013672" xlink:href="#DejaVuSerif-3d"/>
     <use x="147.802734" xlink:href="#DejaVuSerif-30"/>
     <use x="211.425781" xlink:href="#DejaVuSerif-2e"/>
     <use x="243.212891" xlink:href="#DejaVuSerif-30"/>
     <use x="306.835938" xlink:href="#DejaVuSerif-36"/>
     <use x="370.458984" xlink:href="#DejaVuSerif-38"/>
     <use x="434.082031" xlink:href="#DejaVuSerif-32"/>
    </g>
   </g>
  </g>
  <g id="axes_3">
   <g id="line2d_16">
    <path clip-path="url(#p32af3b2d72)" d="M 81.007174 30.214749 
L 85.456542 44.146373 
L 89.905909 57.165709 
L 94.355277 69.334917 
L 98.804644 80.711757 
L 103.254012 91.349913 
L 107.70338 101.299289 
L 112.152747 110.606289 
L 116.602115 119.31407 
L 121.051482 127.462776 
L 125.50085 135.089758 
L 129.950217 142.229774 
L 134.399585 148.915178 
L 138.848952 155.17609 
L 143.29832 161.040557 
L 147.747688 166.534702 
L 152.197055 171.682859 
L 156.646423 176.507701 
L 161.09579 181.030357 
L 165.545158 185.270524 
L 169.994525 189.246562 
L 174.443893 192.975594 
L 178.89326 196.473588 
L 184.82575 200.80379 
L 190.75824 204.782209 
L 196.690731 208.438559 
L 202.623221 211.799952 
L 208.555711 214.891128 
L 214.488201 217.734675 
L 220.420691 220.351221 
L 226.353181 222.759608 
L 233.768793 225.503461 
L 241.184406 227.979286 
L 248.600019 230.214285 
L 256.015631 232.2328 
L 264.914366 234.399772 
L 273.813101 236.319635 
L 282.711836 238.021646 
L 293.093694 239.76605 
L 303.475552 241.284165 
L 315.340532 242.780938 
L 327.205512 244.060534 
L 340.553615 245.280965 
L 355.38484 246.410043 
L 371.699187 247.426117 
L 389.496658 248.317534 
L 410.260373 249.132779 
L 433.990333 249.83851 
L 462.169661 250.447415 
L 496.281479 250.952997 
L 539.292032 251.356598 
L 597.13381 251.660155 
L 649 251.805294 
L 649 251.805294 
" style="fill:none;stroke:#ffa500;stroke-linecap:square;stroke-width:2;"/>
   </g>
   <g id="patch_97">
    <path d="M 400.696364 206.212146 
L 403.126488 207.603683 
Q 370.221134 224.748897 337.549876 242.313157 
L 339.200661 243.315334 
Q 336.756348 243.856098 333.843842 243.558771 
Q 335.117674 240.922781 336.859698 239.124881 
L 336.847588 241.056021 
Q 368.933605 222.444148 400.785525 203.41323 
L 400.696364 206.212146 
z
" style="fill:#ffa500;stroke:#ffa500;stroke-linecap:round;stroke-width:2;"/>
   </g>
   <g id="text_19">
    <!-- Theory: -->
    <defs>
     <path d="M 19.09375 0 
L 19.09375 5.171875 
L 28.421875 5.171875 
L 28.421875 67.09375 
L 6.984375 67.09375 
L 6.984375 55.71875 
L 0.984375 55.71875 
L 0.984375 72.90625 
L 65.71875 72.90625 
L 65.71875 55.71875 
L 59.71875 55.71875 
L 59.71875 67.09375 
L 38.28125 67.09375 
L 38.28125 5.171875 
L 47.609375 5.171875 
L 47.609375 0 
z
" id="DejaVuSerif-54"/>
     <path d="M 4.109375 0 
L 4.109375 5.171875 
L 12.203125 5.171875 
L 12.203125 70.796875 
L 3.609375 70.796875 
L 3.609375 75.984375 
L 21.1875 75.984375 
L 21.1875 42.671875 
Q 23.6875 47.953125 27.65625 50.640625 
Q 31.640625 53.328125 36.921875 53.328125 
Q 45.515625 53.328125 49.5625 48.390625 
Q 53.609375 43.453125 53.609375 33.015625 
L 53.609375 5.171875 
L 61.625 5.171875 
L 61.625 0 
L 36.8125 0 
L 36.8125 5.171875 
L 44.578125 5.171875 
L 44.578125 30.171875 
Q 44.578125 39.703125 42.25 43.1875 
Q 39.9375 46.6875 33.984375 46.6875 
Q 27.734375 46.6875 24.453125 42.140625 
Q 21.1875 37.59375 21.1875 28.90625 
L 21.1875 5.171875 
L 29 5.171875 
L 29 0 
z
" id="DejaVuSerif-68"/>
     <path d="M 10.40625 5.078125 
Q 10.40625 7.8125 12.28125 9.71875 
Q 14.15625 11.625 16.890625 11.625 
Q 19.625 11.625 21.5 9.71875 
Q 23.390625 7.8125 23.390625 5.078125 
Q 23.390625 2.34375 21.53125 0.453125 
Q 19.671875 -1.421875 16.890625 -1.421875 
Q 14.109375 -1.421875 12.25 0.453125 
Q 10.40625 2.34375 10.40625 5.078125 
z
M 10.40625 36.921875 
Q 10.40625 39.65625 12.28125 41.53125 
Q 14.15625 43.40625 16.890625 43.40625 
Q 19.671875 43.40625 21.53125 41.546875 
Q 23.390625 39.703125 23.390625 36.921875 
Q 23.390625 34.125 21.53125 32.265625 
Q 19.671875 30.421875 16.890625 30.421875 
Q 14.15625 30.421875 12.28125 32.296875 
Q 10.40625 34.1875 10.40625 36.921875 
z
" id="DejaVuSerif-3a"/>
    </defs>
    <g style="fill:#ffa500;" transform="translate(367.971429 186.428082)scale(0.12 -0.12)">
     <use xlink:href="#DejaVuSerif-54"/>
     <use x="66.699219" xlink:href="#DejaVuSerif-68"/>
     <use x="131.103516" xlink:href="#DejaVuSerif-65"/>
     <use x="190.283203" xlink:href="#DejaVuSerif-6f"/>
     <use x="250.488281" xlink:href="#DejaVuSerif-72"/>
     <use x="298.291016" xlink:href="#DejaVuSerif-79"/>
     <use x="354.785156" xlink:href="#DejaVuSerif-3a"/>
    </g>
    <!-- $\mathcal{F}(x,df_1=$2$, df_2=$42$)$ -->
    <defs>
     <path d="M 31 75.875 
Q 24.46875 64.65625 21.28125 53.65625 
Q 18.109375 42.671875 18.109375 31.390625 
Q 18.109375 20.125 21.3125 9.0625 
Q 24.515625 -2 31 -13.1875 
L 23.1875 -13.1875 
Q 15.875 -1.703125 12.234375 9.375 
Q 8.59375 20.453125 8.59375 31.390625 
Q 8.59375 42.28125 12.203125 53.3125 
Q 15.828125 64.359375 23.1875 75.875 
z
" id="DejaVuSans-28"/>
     <path d="M 60.015625 54.6875 
L 34.90625 27.875 
L 50.296875 0 
L 39.984375 0 
L 28.421875 21.6875 
L 8.296875 0 
L -2.59375 0 
L 24.3125 28.8125 
L 10.015625 54.6875 
L 20.3125 54.6875 
L 30.8125 34.90625 
L 49.125 54.6875 
z
" id="DejaVuSans-Oblique-78"/>
     <path d="M 11.71875 12.40625 
L 22.015625 12.40625 
L 22.015625 4 
L 14.015625 -11.625 
L 7.71875 -11.625 
L 11.71875 4 
z
" id="DejaVuSans-2c"/>
     <path d="M 47.796875 75.984375 
L 46.390625 68.5 
L 37.796875 68.5 
Q 32.90625 68.5 30.6875 66.578125 
Q 28.46875 64.65625 27.390625 59.515625 
L 26.421875 54.6875 
L 41.21875 54.6875 
L 39.890625 47.703125 
L 25.09375 47.703125 
L 15.828125 0 
L 6.78125 0 
L 16.109375 47.703125 
L 7.515625 47.703125 
L 8.796875 54.6875 
L 17.390625 54.6875 
L 18.109375 58.5 
Q 19.96875 68.171875 24.625 72.078125 
Q 29.296875 75.984375 39.3125 75.984375 
z
" id="DejaVuSans-Oblique-66"/>
     <path d="M 12.40625 8.296875 
L 28.515625 8.296875 
L 28.515625 63.921875 
L 10.984375 60.40625 
L 10.984375 69.390625 
L 28.421875 72.90625 
L 38.28125 72.90625 
L 38.28125 8.296875 
L 54.390625 8.296875 
L 54.390625 0 
L 12.40625 0 
z
" id="DejaVuSans-31"/>
     <path d="M 19.1875 8.296875 
L 53.609375 8.296875 
L 53.609375 0 
L 7.328125 0 
L 7.328125 8.296875 
Q 12.9375 14.109375 22.625 23.890625 
Q 32.328125 33.6875 34.8125 36.53125 
Q 39.546875 41.84375 41.421875 45.53125 
Q 43.3125 49.21875 43.3125 52.78125 
Q 43.3125 58.59375 39.234375 62.25 
Q 35.15625 65.921875 28.609375 65.921875 
Q 23.96875 65.921875 18.8125 64.3125 
Q 13.671875 62.703125 7.8125 59.421875 
L 7.8125 69.390625 
Q 13.765625 71.78125 18.9375 73 
Q 24.125 74.21875 28.421875 74.21875 
Q 39.75 74.21875 46.484375 68.546875 
Q 53.21875 62.890625 53.21875 53.421875 
Q 53.21875 48.921875 51.53125 44.890625 
Q 49.859375 40.875 45.40625 35.40625 
Q 44.1875 33.984375 37.640625 27.21875 
Q 31.109375 20.453125 19.1875 8.296875 
z
" id="DejaVuSans-32"/>
     <path d="M 8.015625 75.875 
L 15.828125 75.875 
Q 23.140625 64.359375 26.78125 53.3125 
Q 30.421875 42.28125 30.421875 31.390625 
Q 30.421875 20.453125 26.78125 9.375 
Q 23.140625 -1.703125 15.828125 -13.1875 
L 8.015625 -13.1875 
Q 14.5 -2 17.703125 9.0625 
Q 20.90625 20.125 20.90625 31.390625 
Q 20.90625 42.671875 17.703125 53.65625 
Q 14.5 64.65625 8.015625 75.875 
z
" id="DejaVuSans-29"/>
    </defs>
    <g style="fill:#ffa500;" transform="translate(367.971429 200.036082)scale(0.12 -0.12)">
     <use transform="translate(0 0.015625)" xlink:href="#STIXNonUnicode-Italic-e232"/>
     <use transform="translate(65.199997 0.015625)" xlink:href="#DejaVuSans-28"/>
     <use transform="translate(104.213669 0.015625)" xlink:href="#DejaVuSans-Oblique-78"/>
     <use transform="translate(163.393356 0.015625)" xlink:href="#DejaVuSans-2c"/>
     <use transform="translate(214.662888 0.015625)" xlink:href="#DejaVuSans-Oblique-64"/>
     <use transform="translate(278.13945 0.015625)" xlink:href="#DejaVuSans-Oblique-66"/>
     <use transform="translate(313.344528 -16.390625)scale(0.7)" xlink:href="#DejaVuSans-31"/>
     <use transform="translate(380.097458 0.015625)" xlink:href="#DejaVuSans-3d"/>
     <use transform="translate(483.368942 0.015625)" xlink:href="#DejaVuSerif-32"/>
     <use transform="translate(546.991989 0.015625)" xlink:href="#DejaVuSans-2c"/>
     <use transform="translate(598.26152 0.015625)" xlink:href="#DejaVuSans-Oblique-64"/>
     <use transform="translate(661.738083 0.015625)" xlink:href="#DejaVuSans-Oblique-66"/>
     <use transform="translate(696.943161 -16.390625)scale(0.7)" xlink:href="#DejaVuSans-32"/>
     <use transform="translate(763.696091 0.015625)" xlink:href="#DejaVuSans-3d"/>
     <use transform="translate(866.967575 0.015625)" xlink:href="#DejaVuSerif-34"/>
     <use transform="translate(930.590622 0.015625)" xlink:href="#DejaVuSerif-32"/>
     <use transform="translate(994.213669 0.015625)" xlink:href="#DejaVuSans-29"/>
    </g>
   </g>
  </g>
 </g>
 <defs>
  <clipPath id="p32af3b2d72">
   <rect height="217.44" width="502.2" x="81" y="34.56"/>
  </clipPath>
 </defs>
</svg>
