<?xml version="1.0" encoding="utf-8" standalone="no"?>
<!DOCTYPE svg PUBLIC "-//W3C//DTD SVG 1.1//EN"
  "http://www.w3.org/Graphics/SVG/1.1/DTD/svg11.dtd">
<!-- Created with matplotlib (http://matplotlib.org/) -->
<svg height="432pt" version="1.1" viewBox="0 0 648 432" width="648pt" xmlns="http://www.w3.org/2000/svg" xmlns:xlink="http://www.w3.org/1999/xlink">
 <defs>
  <style type="text/css">
*{stroke-linecap:butt;stroke-linejoin:round;}
  </style>
 </defs>
 <g id="figure_1">
  <g id="patch_1">
   <path d="M 0 432 
L 648 432 
L 648 0 
L 0 0 
z
" style="fill:none;"/>
  </g>
  <g id="axes_1">
   <g id="patch_2">
    <path d="M 61.7 401.24 
L 591.727512 401.24 
L 591.727512 12.48 
L 61.7 12.48 
z
" style="fill:none;opacity:0;"/>
   </g>
   <g id="matplotlib.axis_1">
    <g id="xtick_1">
     <g id="line2d_1">
      <defs>
       <path d="M 0 0 
L 0 3.5 
" id="m8f8ed79a66" style="stroke:#d2d2d2;stroke-width:0.8;"/>
      </defs>
      <g>
       <use style="fill:#d2d2d2;stroke:#d2d2d2;stroke-width:0.8;" x="150.037919" xlink:href="#m8f8ed79a66" y="401.24"/>
      </g>
     </g>
     <g id="text_1">
      <!-- Yours -->
      <defs>
       <path d="M 18.890625 0 
L 18.890625 5.171875 
L 28.21875 5.171875 
L 28.21875 31.390625 
L 5.71875 67.671875 
L -1.125 67.671875 
L -1.125 72.90625 
L 25.984375 72.90625 
L 25.984375 67.671875 
L 17.484375 67.671875 
L 35.6875 38.1875 
L 53.90625 67.671875 
L 45.703125 67.671875 
L 45.703125 72.90625 
L 66.890625 72.90625 
L 66.890625 67.671875 
L 60.015625 67.671875 
L 38.09375 32.328125 
L 38.09375 5.171875 
L 47.40625 5.171875 
L 47.40625 0 
z
" id="DejaVuSerif-59"/>
       <path d="M 30.078125 3.421875 
Q 37.3125 3.421875 40.984375 9.125 
Q 44.671875 14.84375 44.671875 25.984375 
Q 44.671875 37.109375 40.984375 42.796875 
Q 37.3125 48.484375 30.078125 48.484375 
Q 22.859375 48.484375 19.171875 42.796875 
Q 15.484375 37.109375 15.484375 25.984375 
Q 15.484375 14.84375 19.1875 9.125 
Q 22.90625 3.421875 30.078125 3.421875 
z
M 30.078125 -1.421875 
Q 18.75 -1.421875 11.859375 6.078125 
Q 4.984375 13.578125 4.984375 25.984375 
Q 4.984375 38.375 11.84375 45.84375 
Q 18.703125 53.328125 30.078125 53.328125 
Q 41.453125 53.328125 48.3125 45.84375 
Q 55.171875 38.375 55.171875 25.984375 
Q 55.171875 13.578125 48.3125 6.078125 
Q 41.453125 -1.421875 30.078125 -1.421875 
z
" id="DejaVuSerif-6f"/>
       <path d="M 35.40625 51.90625 
L 52.203125 51.90625 
L 52.203125 5.171875 
L 60.6875 5.171875 
L 60.6875 0 
L 43.21875 0 
L 43.21875 9.1875 
Q 40.71875 4 36.765625 1.28125 
Q 32.8125 -1.421875 27.59375 -1.421875 
Q 18.953125 -1.421875 14.875 3.484375 
Q 10.796875 8.40625 10.796875 18.890625 
L 10.796875 46.6875 
L 2.6875 46.6875 
L 2.6875 51.90625 
L 19.828125 51.90625 
L 19.828125 21.6875 
Q 19.828125 12.203125 22.140625 8.6875 
Q 24.46875 5.171875 30.421875 5.171875 
Q 36.671875 5.171875 39.9375 9.765625 
Q 43.21875 14.359375 43.21875 23.09375 
L 43.21875 46.6875 
L 35.40625 46.6875 
z
" id="DejaVuSerif-75"/>
       <path d="M 47.796875 52 
L 47.796875 39.015625 
L 42.625 39.015625 
Q 42.390625 42.875 40.484375 44.78125 
Q 38.578125 46.6875 34.90625 46.6875 
Q 28.265625 46.6875 24.71875 42.09375 
Q 21.1875 37.5 21.1875 28.90625 
L 21.1875 5.171875 
L 31.59375 5.171875 
L 31.59375 0 
L 4.109375 0 
L 4.109375 5.171875 
L 12.203125 5.171875 
L 12.203125 46.78125 
L 3.609375 46.78125 
L 3.609375 51.90625 
L 21.1875 51.90625 
L 21.1875 42.671875 
Q 23.828125 48.09375 27.96875 50.703125 
Q 32.125 53.328125 38.09375 53.328125 
Q 40.28125 53.328125 42.703125 52.984375 
Q 45.125 52.640625 47.796875 52 
z
" id="DejaVuSerif-72"/>
       <path d="M 5.609375 2.875 
L 5.609375 14.984375 
L 10.796875 14.984375 
Q 10.984375 9.1875 14.421875 6.296875 
Q 17.875 3.421875 24.609375 3.421875 
Q 30.671875 3.421875 33.84375 5.6875 
Q 37.015625 7.953125 37.015625 12.3125 
Q 37.015625 15.71875 34.6875 17.8125 
Q 32.375 19.921875 24.90625 22.3125 
L 18.40625 24.515625 
Q 11.71875 26.65625 8.71875 29.875 
Q 5.71875 33.109375 5.71875 38.09375 
Q 5.71875 45.21875 10.9375 49.265625 
Q 16.15625 53.328125 25.390625 53.328125 
Q 29.5 53.328125 34.03125 52.25 
Q 38.578125 51.171875 43.40625 49.125 
L 43.40625 37.796875 
L 38.234375 37.796875 
Q 38.03125 42.828125 34.703125 45.65625 
Q 31.390625 48.484375 25.6875 48.484375 
Q 20.015625 48.484375 17.109375 46.484375 
Q 14.203125 44.484375 14.203125 40.484375 
Q 14.203125 37.203125 16.40625 35.21875 
Q 18.609375 33.25 25.203125 31.203125 
L 32.328125 29 
Q 39.703125 26.703125 42.9375 23.265625 
Q 46.1875 19.828125 46.1875 14.40625 
Q 46.1875 7.03125 40.546875 2.796875 
Q 34.90625 -1.421875 25 -1.421875 
Q 19.96875 -1.421875 15.1875 -0.34375 
Q 10.40625 0.734375 5.609375 2.875 
z
" id="DejaVuSerif-73"/>
      </defs>
      <g style="fill:#d2d2d2;" transform="translate(131.213309 418.117969)scale(0.13 -0.13)">
       <use xlink:href="#DejaVuSerif-59"/>
       <use x="65.890625" xlink:href="#DejaVuSerif-6f"/>
       <use x="126.095703" xlink:href="#DejaVuSerif-75"/>
       <use x="190.5" xlink:href="#DejaVuSerif-72"/>
       <use x="238.302734" xlink:href="#DejaVuSerif-73"/>
      </g>
     </g>
    </g>
    <g id="xtick_2">
     <g id="line2d_2">
      <g>
       <use style="fill:#d2d2d2;stroke:#d2d2d2;stroke-width:0.8;" x="326.713756" xlink:href="#m8f8ed79a66" y="401.24"/>
      </g>
     </g>
     <g id="text_2">
      <!-- Friend 1 -->
      <defs>
       <path d="M 5.515625 0 
L 5.515625 5.171875 
L 14.796875 5.171875 
L 14.796875 67.671875 
L 5.515625 67.671875 
L 5.515625 72.90625 
L 65.1875 72.90625 
L 65.1875 56.6875 
L 59.1875 56.6875 
L 59.1875 66.890625 
L 24.703125 66.890625 
L 24.703125 42.484375 
L 49.609375 42.484375 
L 49.609375 51.609375 
L 55.609375 51.609375 
L 55.609375 27.390625 
L 49.609375 27.390625 
L 49.609375 36.53125 
L 24.703125 36.53125 
L 24.703125 5.171875 
L 36.375 5.171875 
L 36.375 0 
z
" id="DejaVuSerif-46"/>
       <path d="M 9.71875 68.015625 
Q 9.71875 70.265625 11.34375 71.921875 
Q 12.984375 73.578125 15.28125 73.578125 
Q 17.53125 73.578125 19.15625 71.921875 
Q 20.796875 70.265625 20.796875 68.015625 
Q 20.796875 65.71875 19.1875 64.109375 
Q 17.578125 62.5 15.28125 62.5 
Q 12.984375 62.5 11.34375 64.109375 
Q 9.71875 65.71875 9.71875 68.015625 
z
M 21.1875 5.171875 
L 29.6875 5.171875 
L 29.6875 0 
L 3.609375 0 
L 3.609375 5.171875 
L 12.203125 5.171875 
L 12.203125 46.6875 
L 3.609375 46.6875 
L 3.609375 51.90625 
L 21.1875 51.90625 
z
" id="DejaVuSerif-69"/>
       <path d="M 54.203125 25 
L 15.484375 25 
L 15.484375 24.609375 
Q 15.484375 14.109375 19.4375 8.765625 
Q 23.390625 3.421875 31.109375 3.421875 
Q 37.015625 3.421875 40.796875 6.515625 
Q 44.578125 9.625 46.09375 15.71875 
L 53.328125 15.71875 
Q 51.171875 7.171875 45.375 2.875 
Q 39.59375 -1.421875 30.171875 -1.421875 
Q 18.796875 -1.421875 11.890625 6.078125 
Q 4.984375 13.578125 4.984375 25.984375 
Q 4.984375 38.28125 11.765625 45.796875 
Q 18.5625 53.328125 29.59375 53.328125 
Q 41.359375 53.328125 47.65625 46.0625 
Q 53.953125 38.8125 54.203125 25 
z
M 43.609375 30.171875 
Q 43.3125 39.265625 39.765625 43.875 
Q 36.234375 48.484375 29.59375 48.484375 
Q 23.390625 48.484375 19.828125 43.84375 
Q 16.265625 39.203125 15.484375 30.171875 
z
" id="DejaVuSerif-65"/>
       <path d="M 4.109375 0 
L 4.109375 5.171875 
L 12.203125 5.171875 
L 12.203125 46.6875 
L 3.609375 46.6875 
L 3.609375 51.90625 
L 21.1875 51.90625 
L 21.1875 42.671875 
Q 23.6875 47.953125 27.65625 50.640625 
Q 31.640625 53.328125 36.921875 53.328125 
Q 45.515625 53.328125 49.5625 48.390625 
Q 53.609375 43.453125 53.609375 33.015625 
L 53.609375 5.171875 
L 61.625 5.171875 
L 61.625 0 
L 36.8125 0 
L 36.8125 5.171875 
L 44.578125 5.171875 
L 44.578125 30.171875 
Q 44.578125 39.703125 42.234375 43.234375 
Q 39.890625 46.78125 33.984375 46.78125 
Q 27.734375 46.78125 24.453125 42.203125 
Q 21.1875 37.640625 21.1875 28.90625 
L 21.1875 5.171875 
L 29 5.171875 
L 29 0 
z
" id="DejaVuSerif-6e"/>
       <path d="M 52.484375 5.171875 
L 61.078125 5.171875 
L 61.078125 0 
L 43.5 0 
L 43.5 8.109375 
Q 40.875 3.21875 36.796875 0.890625 
Q 32.71875 -1.421875 26.703125 -1.421875 
Q 17.140625 -1.421875 11.0625 6.171875 
Q 4.984375 13.765625 4.984375 25.984375 
Q 4.984375 38.1875 11.03125 45.75 
Q 17.09375 53.328125 26.703125 53.328125 
Q 32.71875 53.328125 36.796875 51 
Q 40.875 48.6875 43.5 43.796875 
L 43.5 70.796875 
L 35.015625 70.796875 
L 35.015625 75.984375 
L 52.484375 75.984375 
z
M 43.5 23.390625 
L 43.5 28.515625 
Q 43.5 37.84375 39.90625 42.765625 
Q 36.328125 47.703125 29.5 47.703125 
Q 22.5625 47.703125 19.015625 42.234375 
Q 15.484375 36.765625 15.484375 25.984375 
Q 15.484375 15.234375 19.015625 9.71875 
Q 22.5625 4.203125 29.5 4.203125 
Q 36.328125 4.203125 39.90625 9.109375 
Q 43.5 14.015625 43.5 23.390625 
z
" id="DejaVuSerif-64"/>
       <path id="DejaVuSerif-20"/>
       <path d="M 14.203125 0 
L 14.203125 5.171875 
L 26.90625 5.171875 
L 26.90625 65.828125 
L 12.203125 56.296875 
L 12.203125 62.703125 
L 29.984375 74.21875 
L 36.71875 74.21875 
L 36.71875 5.171875 
L 49.421875 5.171875 
L 49.421875 0 
z
" id="DejaVuSerif-31"/>
      </defs>
      <g style="fill:#d2d2d2;" transform="translate(298.621569 418.117969)scale(0.13 -0.13)">
       <use xlink:href="#DejaVuSerif-46"/>
       <use x="69.384766" xlink:href="#DejaVuSerif-72"/>
       <use x="117.1875" xlink:href="#DejaVuSerif-69"/>
       <use x="149.169922" xlink:href="#DejaVuSerif-65"/>
       <use x="208.349609" xlink:href="#DejaVuSerif-6e"/>
       <use x="272.753906" xlink:href="#DejaVuSerif-64"/>
       <use x="336.767578" xlink:href="#DejaVuSerif-20"/>
       <use x="368.554688" xlink:href="#DejaVuSerif-31"/>
      </g>
     </g>
    </g>
    <g id="xtick_3">
     <g id="line2d_3">
      <g>
       <use style="fill:#d2d2d2;stroke:#d2d2d2;stroke-width:0.8;" x="503.389594" xlink:href="#m8f8ed79a66" y="401.24"/>
      </g>
     </g>
     <g id="text_3">
      <!-- Friend 2 -->
      <defs>
       <path d="M 12.796875 55.515625 
L 7.328125 55.515625 
L 7.328125 68.5 
Q 12.546875 71.296875 17.84375 72.75 
Q 23.140625 74.21875 28.21875 74.21875 
Q 39.59375 74.21875 46.1875 68.703125 
Q 52.78125 63.1875 52.78125 53.71875 
Q 52.78125 43.015625 37.84375 28.125 
Q 36.671875 27 36.078125 26.421875 
L 17.671875 8.015625 
L 48.09375 8.015625 
L 48.09375 17 
L 53.8125 17 
L 53.8125 0 
L 6.78125 0 
L 6.78125 5.328125 
L 28.90625 27.390625 
Q 36.234375 34.71875 39.359375 40.84375 
Q 42.484375 46.96875 42.484375 53.71875 
Q 42.484375 61.078125 38.640625 65.234375 
Q 34.8125 69.390625 28.078125 69.390625 
Q 21.09375 69.390625 17.28125 65.921875 
Q 13.484375 62.453125 12.796875 55.515625 
z
" id="DejaVuSerif-32"/>
      </defs>
      <g style="fill:#d2d2d2;" transform="translate(475.297406 418.117969)scale(0.13 -0.13)">
       <use xlink:href="#DejaVuSerif-46"/>
       <use x="69.384766" xlink:href="#DejaVuSerif-72"/>
       <use x="117.1875" xlink:href="#DejaVuSerif-69"/>
       <use x="149.169922" xlink:href="#DejaVuSerif-65"/>
       <use x="208.349609" xlink:href="#DejaVuSerif-6e"/>
       <use x="272.753906" xlink:href="#DejaVuSerif-64"/>
       <use x="336.767578" xlink:href="#DejaVuSerif-20"/>
       <use x="368.554688" xlink:href="#DejaVuSerif-32"/>
      </g>
     </g>
    </g>
   </g>
   <g id="matplotlib.axis_2">
    <g id="ytick_1">
     <g id="line2d_4">
      <defs>
       <path d="M 0 0 
L -3.5 0 
" id="m16ff4e5924" style="stroke:#d2d2d2;stroke-width:0.8;"/>
      </defs>
      <g>
       <use style="fill:#d2d2d2;stroke:#d2d2d2;stroke-width:0.8;" x="61.7" xlink:href="#m16ff4e5924" y="327.917577"/>
      </g>
     </g>
     <g id="text_4">
      <!-- 0.05 -->
      <defs>
       <path d="M 31.78125 3.421875 
Q 39.265625 3.421875 42.96875 11.625 
Q 46.6875 19.828125 46.6875 36.375 
Q 46.6875 52.984375 42.96875 61.1875 
Q 39.265625 69.390625 31.78125 69.390625 
Q 24.3125 69.390625 20.59375 61.1875 
Q 16.890625 52.984375 16.890625 36.375 
Q 16.890625 19.828125 20.59375 11.625 
Q 24.3125 3.421875 31.78125 3.421875 
z
M 31.78125 -1.421875 
Q 19.921875 -1.421875 13.25 8.53125 
Q 6.59375 18.5 6.59375 36.375 
Q 6.59375 54.296875 13.25 64.25 
Q 19.921875 74.21875 31.78125 74.21875 
Q 43.703125 74.21875 50.34375 64.25 
Q 56.984375 54.296875 56.984375 36.375 
Q 56.984375 18.5 50.34375 8.53125 
Q 43.703125 -1.421875 31.78125 -1.421875 
z
" id="DejaVuSerif-30"/>
       <path d="M 9.421875 5.078125 
Q 9.421875 7.8125 11.28125 9.71875 
Q 13.140625 11.625 15.921875 11.625 
Q 18.609375 11.625 20.5 9.71875 
Q 22.40625 7.8125 22.40625 5.078125 
Q 22.40625 2.390625 20.5 0.484375 
Q 18.609375 -1.421875 15.921875 -1.421875 
Q 13.140625 -1.421875 11.28125 0.453125 
Q 9.421875 2.34375 9.421875 5.078125 
z
" id="DejaVuSerif-2e"/>
       <path d="M 50.296875 72.90625 
L 50.296875 64.890625 
L 16.890625 64.890625 
L 16.890625 44 
Q 19.4375 45.75 22.828125 46.625 
Q 26.21875 47.515625 30.421875 47.515625 
Q 42.234375 47.515625 49.0625 40.96875 
Q 55.90625 34.421875 55.90625 23.09375 
Q 55.90625 11.53125 49 5.046875 
Q 42.09375 -1.421875 29.59375 -1.421875 
Q 24.5625 -1.421875 19.28125 -0.1875 
Q 14.015625 1.03125 8.5 3.515625 
L 8.5 17.671875 
L 14.015625 17.671875 
Q 14.453125 10.75 18.421875 7.078125 
Q 22.40625 3.421875 29.59375 3.421875 
Q 37.3125 3.421875 41.453125 8.5 
Q 45.609375 13.578125 45.609375 23.09375 
Q 45.609375 32.5625 41.484375 37.609375 
Q 37.359375 42.671875 29.59375 42.671875 
Q 25.203125 42.671875 21.84375 41.109375 
Q 18.5 39.546875 15.921875 36.28125 
L 11.71875 36.28125 
L 11.71875 72.90625 
z
" id="DejaVuSerif-35"/>
      </defs>
      <g style="fill:#d2d2d2;" transform="translate(32.434375 331.716796)scale(0.1 -0.1)">
       <use xlink:href="#DejaVuSerif-30"/>
       <use x="63.623047" xlink:href="#DejaVuSerif-2e"/>
       <use x="95.410156" xlink:href="#DejaVuSerif-30"/>
       <use x="159.033203" xlink:href="#DejaVuSerif-35"/>
      </g>
     </g>
    </g>
    <g id="ytick_2">
     <g id="line2d_5">
      <g>
       <use style="fill:#d2d2d2;stroke:#d2d2d2;stroke-width:0.8;" x="61.7" xlink:href="#m16ff4e5924" y="252.972118"/>
      </g>
     </g>
     <g id="text_5">
      <!-- 0.10 -->
      <g style="fill:#d2d2d2;" transform="translate(32.434375 256.771337)scale(0.1 -0.1)">
       <use xlink:href="#DejaVuSerif-30"/>
       <use x="63.623047" xlink:href="#DejaVuSerif-2e"/>
       <use x="95.410156" xlink:href="#DejaVuSerif-31"/>
       <use x="159.033203" xlink:href="#DejaVuSerif-30"/>
      </g>
     </g>
    </g>
    <g id="ytick_3">
     <g id="line2d_6">
      <g>
       <use style="fill:#d2d2d2;stroke:#d2d2d2;stroke-width:0.8;" x="61.7" xlink:href="#m16ff4e5924" y="178.026659"/>
      </g>
     </g>
     <g id="text_6">
      <!-- 0.15 -->
      <g style="fill:#d2d2d2;" transform="translate(32.434375 181.825878)scale(0.1 -0.1)">
       <use xlink:href="#DejaVuSerif-30"/>
       <use x="63.623047" xlink:href="#DejaVuSerif-2e"/>
       <use x="95.410156" xlink:href="#DejaVuSerif-31"/>
       <use x="159.033203" xlink:href="#DejaVuSerif-35"/>
      </g>
     </g>
    </g>
    <g id="ytick_4">
     <g id="line2d_7">
      <g>
       <use style="fill:#d2d2d2;stroke:#d2d2d2;stroke-width:0.8;" x="61.7" xlink:href="#m16ff4e5924" y="103.081199"/>
      </g>
     </g>
     <g id="text_7">
      <!-- 0.20 -->
      <g style="fill:#d2d2d2;" transform="translate(32.434375 106.880418)scale(0.1 -0.1)">
       <use xlink:href="#DejaVuSerif-30"/>
       <use x="63.623047" xlink:href="#DejaVuSerif-2e"/>
       <use x="95.410156" xlink:href="#DejaVuSerif-32"/>
       <use x="159.033203" xlink:href="#DejaVuSerif-30"/>
      </g>
     </g>
    </g>
    <g id="ytick_5">
     <g id="line2d_8">
      <g>
       <use style="fill:#d2d2d2;stroke:#d2d2d2;stroke-width:0.8;" x="61.7" xlink:href="#m16ff4e5924" y="28.13574"/>
      </g>
     </g>
     <g id="text_8">
      <!-- 0.25 -->
      <g style="fill:#d2d2d2;" transform="translate(32.434375 31.934959)scale(0.1 -0.1)">
       <use xlink:href="#DejaVuSerif-30"/>
       <use x="63.623047" xlink:href="#DejaVuSerif-2e"/>
       <use x="95.410156" xlink:href="#DejaVuSerif-32"/>
       <use x="159.033203" xlink:href="#DejaVuSerif-35"/>
      </g>
     </g>
    </g>
    <g id="text_9">
     <!-- Salary in Millions of USD -->
     <defs>
      <path d="M 9.28125 3.515625 
L 9.28125 20.125 
L 14.890625 20.0625 
Q 15.140625 11.765625 19.703125 7.78125 
Q 24.265625 3.8125 33.59375 3.8125 
Q 42.28125 3.8125 46.84375 7.25 
Q 51.421875 10.6875 51.421875 17.28125 
Q 51.421875 22.5625 48.65625 25.390625 
Q 45.90625 28.21875 37.015625 30.90625 
L 27.390625 33.796875 
Q 16.9375 36.96875 12.671875 41.703125 
Q 8.40625 46.4375 8.40625 54.6875 
Q 8.40625 63.96875 14.984375 69.09375 
Q 21.578125 74.21875 33.5 74.21875 
Q 38.578125 74.21875 44.625 73.109375 
Q 50.6875 72.015625 57.515625 69.921875 
L 57.515625 54.390625 
L 52 54.390625 
Q 51.171875 62.109375 46.84375 65.546875 
Q 42.53125 69 33.6875 69 
Q 25.984375 69 21.953125 65.84375 
Q 17.921875 62.703125 17.921875 56.6875 
Q 17.921875 51.46875 20.9375 48.484375 
Q 23.96875 45.515625 33.796875 42.578125 
L 42.828125 39.890625 
Q 52.734375 36.921875 56.953125 32.296875 
Q 61.1875 27.6875 61.1875 19.921875 
Q 61.1875 9.328125 54.390625 3.953125 
Q 47.609375 -1.421875 34.1875 -1.421875 
Q 28.171875 -1.421875 21.9375 -0.1875 
Q 15.71875 1.03125 9.28125 3.515625 
z
" id="DejaVuSerif-53"/>
      <path d="M 39.796875 16.3125 
L 39.796875 27.296875 
L 28.21875 27.296875 
Q 21.53125 27.296875 18.25 24.40625 
Q 14.984375 21.53125 14.984375 15.578125 
Q 14.984375 10.15625 18.296875 6.984375 
Q 21.625 3.8125 27.296875 3.8125 
Q 32.90625 3.8125 36.34375 7.28125 
Q 39.796875 10.75 39.796875 16.3125 
z
M 48.78125 32.421875 
L 48.78125 5.171875 
L 56.78125 5.171875 
L 56.78125 0 
L 39.796875 0 
L 39.796875 5.609375 
Q 36.8125 2 32.90625 0.28125 
Q 29 -1.421875 23.78125 -1.421875 
Q 15.140625 -1.421875 10.0625 3.171875 
Q 4.984375 7.765625 4.984375 15.578125 
Q 4.984375 23.640625 10.796875 28.078125 
Q 16.609375 32.515625 27.203125 32.515625 
L 39.796875 32.515625 
L 39.796875 36.078125 
Q 39.796875 42 36.203125 45.234375 
Q 32.625 48.484375 26.125 48.484375 
Q 20.75 48.484375 17.578125 46.046875 
Q 14.40625 43.609375 13.625 38.8125 
L 8.984375 38.8125 
L 8.984375 49.3125 
Q 13.671875 51.3125 18.09375 52.3125 
Q 22.515625 53.328125 26.703125 53.328125 
Q 37.5 53.328125 43.140625 47.96875 
Q 48.78125 42.625 48.78125 32.421875 
z
" id="DejaVuSerif-61"/>
      <path d="M 20.515625 5.171875 
L 29 5.171875 
L 29 0 
L 2.875 0 
L 2.875 5.171875 
L 11.53125 5.171875 
L 11.53125 70.796875 
L 2.875 70.796875 
L 2.875 75.984375 
L 20.515625 75.984375 
z
" id="DejaVuSerif-6c"/>
      <path d="M 21.578125 -9.515625 
L 25 -0.875 
L 5.609375 46.6875 
L -0.296875 46.6875 
L -0.296875 51.90625 
L 23.578125 51.90625 
L 23.578125 46.6875 
L 15.28125 46.6875 
L 29.890625 10.984375 
L 44.484375 46.6875 
L 36.71875 46.6875 
L 36.71875 51.90625 
L 56.203125 51.90625 
L 56.203125 46.6875 
L 50.390625 46.6875 
L 26.609375 -11.71875 
Q 24.171875 -17.78125 21.1875 -20 
Q 18.21875 -22.21875 12.796875 -22.21875 
Q 10.5 -22.21875 8.078125 -21.828125 
Q 5.671875 -21.4375 3.21875 -20.703125 
L 3.21875 -10.796875 
L 7.8125 -10.796875 
Q 8.109375 -14.109375 9.5 -15.546875 
Q 10.890625 -17 13.8125 -17 
Q 16.5 -17 18.140625 -15.5 
Q 19.78125 -14.015625 21.578125 -9.515625 
z
" id="DejaVuSerif-79"/>
      <path d="M 5.515625 0 
L 5.515625 5.171875 
L 14.796875 5.171875 
L 14.796875 67.671875 
L 4.984375 67.671875 
L 4.984375 72.90625 
L 26.21875 72.90625 
L 51.8125 21 
L 77.390625 72.90625 
L 97.3125 72.90625 
L 97.3125 67.671875 
L 87.59375 67.671875 
L 87.59375 5.171875 
L 96.921875 5.171875 
L 96.921875 0 
L 68.40625 0 
L 68.40625 5.171875 
L 77.6875 5.171875 
L 77.6875 61.53125 
L 52.6875 10.6875 
L 45.796875 10.6875 
L 20.796875 61.53125 
L 20.796875 5.171875 
L 30.078125 5.171875 
L 30.078125 0 
z
" id="DejaVuSerif-4d"/>
      <path d="M 43.015625 63.71875 
L 38.28125 63.71875 
Q 38.234375 67.390625 36.203125 69.28125 
Q 34.1875 71.1875 30.328125 71.1875 
Q 25.296875 71.1875 23.234375 68.421875 
Q 21.1875 65.671875 21.1875 58.59375 
L 21.1875 51.90625 
L 35.6875 51.90625 
L 35.6875 46.6875 
L 21.1875 46.6875 
L 21.1875 5.171875 
L 32.71875 5.171875 
L 32.71875 0 
L 3.609375 0 
L 3.609375 5.171875 
L 12.203125 5.171875 
L 12.203125 46.6875 
L 3.609375 46.6875 
L 3.609375 51.90625 
L 12.203125 51.90625 
L 12.203125 58.40625 
Q 12.203125 67.09375 16.71875 71.53125 
Q 21.234375 75.984375 29.984375 75.984375 
Q 33.25 75.984375 36.515625 75.390625 
Q 39.796875 74.8125 43.015625 73.578125 
z
" id="DejaVuSerif-66"/>
      <path d="M 14.015625 67.671875 
L 4.6875 67.671875 
L 4.6875 72.90625 
L 33.203125 72.90625 
L 33.203125 67.671875 
L 23.875 67.671875 
L 23.875 29.984375 
Q 23.875 16.015625 28.4375 10.5 
Q 33.015625 4.984375 44.1875 4.984375 
Q 55.375 4.984375 59.9375 10.5 
Q 64.5 16.015625 64.5 29.984375 
L 64.5 67.671875 
L 55.171875 67.671875 
L 55.171875 72.90625 
L 79.78125 72.90625 
L 79.78125 67.671875 
L 70.515625 67.671875 
L 70.515625 29 
Q 70.515625 12.359375 64.109375 5.46875 
Q 57.71875 -1.421875 42.390625 -1.421875 
Q 27.046875 -1.421875 20.53125 5.515625 
Q 14.015625 12.453125 14.015625 29 
z
" id="DejaVuSerif-55"/>
      <path d="M 24.703125 5.171875 
L 33.796875 5.171875 
Q 48 5.171875 55.59375 13.28125 
Q 63.1875 21.390625 63.1875 36.53125 
Q 63.1875 51.65625 55.609375 59.65625 
Q 48.046875 67.671875 33.796875 67.671875 
L 24.703125 67.671875 
z
M 5.515625 0 
L 5.515625 5.171875 
L 14.796875 5.171875 
L 14.796875 67.671875 
L 5.515625 67.671875 
L 5.515625 72.90625 
L 34.515625 72.90625 
Q 53.375 72.90625 63.890625 63.28125 
Q 74.421875 53.65625 74.421875 36.53125 
Q 74.421875 19.34375 63.875 9.671875 
Q 53.328125 0 34.515625 0 
z
" id="DejaVuSerif-44"/>
     </defs>
     <g style="fill:#d2d2d2;" transform="translate(24.435 322.417187)rotate(-90)scale(0.18 -0.18)">
      <use xlink:href="#DejaVuSerif-53"/>
      <use x="68.505859" xlink:href="#DejaVuSerif-61"/>
      <use x="128.125" xlink:href="#DejaVuSerif-6c"/>
      <use x="160.107422" xlink:href="#DejaVuSerif-61"/>
      <use x="219.726562" xlink:href="#DejaVuSerif-72"/>
      <use x="267.529297" xlink:href="#DejaVuSerif-79"/>
      <use x="324.023438" xlink:href="#DejaVuSerif-20"/>
      <use x="355.810547" xlink:href="#DejaVuSerif-69"/>
      <use x="387.792969" xlink:href="#DejaVuSerif-6e"/>
      <use x="452.197266" xlink:href="#DejaVuSerif-20"/>
      <use x="483.984375" xlink:href="#DejaVuSerif-4d"/>
      <use x="586.376953" xlink:href="#DejaVuSerif-69"/>
      <use x="618.359375" xlink:href="#DejaVuSerif-6c"/>
      <use x="650.341797" xlink:href="#DejaVuSerif-6c"/>
      <use x="682.324219" xlink:href="#DejaVuSerif-69"/>
      <use x="714.306641" xlink:href="#DejaVuSerif-6f"/>
      <use x="774.511719" xlink:href="#DejaVuSerif-6e"/>
      <use x="838.916016" xlink:href="#DejaVuSerif-73"/>
      <use x="890.234375" xlink:href="#DejaVuSerif-20"/>
      <use x="922.021484" xlink:href="#DejaVuSerif-6f"/>
      <use x="982.226562" xlink:href="#DejaVuSerif-66"/>
      <use x="1019.238281" xlink:href="#DejaVuSerif-20"/>
      <use x="1051.025391" xlink:href="#DejaVuSerif-55"/>
      <use x="1135.302734" xlink:href="#DejaVuSerif-53"/>
      <use x="1203.808594" xlink:href="#DejaVuSerif-44"/>
     </g>
    </g>
   </g>
   <g id="patch_3">
    <path d="M 61.7 401.24 
L 61.7 12.48 
" style="fill:none;stroke:#d2d2d2;stroke-linecap:square;stroke-linejoin:miter;stroke-width:1.5;"/>
   </g>
   <g id="patch_4">
    <path d="M 61.7 401.24 
L 591.727512 401.24 
" style="fill:none;stroke:#d2d2d2;stroke-linecap:square;stroke-linejoin:miter;stroke-width:1.5;"/>
   </g>
   <g id="PathCollection_1">
    <defs>
     <path d="M 0 6 
C 1.591219 6 3.117479 5.367802 4.242641 4.242641 
C 5.367802 3.117479 6 1.591219 6 0 
C 6 -1.591219 5.367802 -3.117479 4.242641 -4.242641 
C 3.117479 -5.367802 1.591219 -6 0 -6 
C -1.591219 -6 -3.117479 -5.367802 -4.242641 -4.242641 
C -5.367802 -3.117479 -6 -1.591219 -6 0 
C -6 1.591219 -5.367802 3.117479 -4.242641 4.242641 
C -3.117479 5.367802 -1.591219 6 0 6 
z
" id="C0_0_7b3ea4ba00"/>
    </defs>
    <g clip-path="url(#pb8770cabf9)">
     <use style="fill:#f79a52;fill-opacity:0.5;" x="150.037919" xlink:href="#C0_0_7b3ea4ba00" y="383.569078"/>
    </g>
    <g clip-path="url(#pb8770cabf9)">
     <use style="fill:#f79a52;fill-opacity:0.5;" x="138.059166" xlink:href="#C0_0_7b3ea4ba00" y="377.357598"/>
    </g>
    <g clip-path="url(#pb8770cabf9)">
     <use style="fill:#f79a52;fill-opacity:0.5;" x="157.720202" xlink:href="#C0_0_7b3ea4ba00" y="371.894074"/>
    </g>
    <g clip-path="url(#pb8770cabf9)">
     <use style="fill:#f79a52;fill-opacity:0.5;" x="145.923274" xlink:href="#C0_0_7b3ea4ba00" y="365.823492"/>
    </g>
    <g clip-path="url(#pb8770cabf9)">
     <use style="fill:#f79a52;fill-opacity:0.5;" x="165.009723" xlink:href="#C0_0_7b3ea4ba00" y="359.93128"/>
    </g>
    <g clip-path="url(#pb8770cabf9)">
     <use style="fill:#f79a52;fill-opacity:0.5;" x="134.090786" xlink:href="#C0_0_7b3ea4ba00" y="359.295742"/>
    </g>
    <g clip-path="url(#pb8770cabf9)">
     <use style="fill:#f79a52;fill-opacity:0.5;" x="150.037919" xlink:href="#C0_0_7b3ea4ba00" y="332.295891"/>
    </g>
    <g clip-path="url(#pb8770cabf9)">
     <use style="fill:#f79a52;fill-opacity:0.5;" x="136.779676" xlink:href="#C0_0_7b3ea4ba00" y="331.188197"/>
    </g>
    <g clip-path="url(#pb8770cabf9)">
     <use style="fill:#f79a52;fill-opacity:0.5;" x="150.037919" xlink:href="#C0_0_7b3ea4ba00" y="317.236351"/>
    </g>
    <g clip-path="url(#pb8770cabf9)">
     <use style="fill:#f79a52;fill-opacity:0.5;" x="137.974793" xlink:href="#C0_0_7b3ea4ba00" y="311.216731"/>
    </g>
    <g clip-path="url(#pb8770cabf9)">
     <use style="fill:#f79a52;fill-opacity:0.5;" x="161.743611" xlink:href="#C0_0_7b3ea4ba00" y="310.44929"/>
    </g>
    <g clip-path="url(#pb8770cabf9)">
     <use style="fill:#f79a52;fill-opacity:0.5;" x="150.037919" xlink:href="#C0_0_7b3ea4ba00" y="271.611054"/>
    </g>
    <g clip-path="url(#pb8770cabf9)">
     <use style="fill:#f79a52;fill-opacity:0.5;" x="150.037919" xlink:href="#C0_0_7b3ea4ba00" y="256.756864"/>
    </g>
    <g clip-path="url(#pb8770cabf9)">
     <use style="fill:#f79a52;fill-opacity:0.5;" x="140.608997" xlink:href="#C0_0_7b3ea4ba00" y="246.670704"/>
    </g>
    <g clip-path="url(#pb8770cabf9)">
     <use style="fill:#f79a52;fill-opacity:0.5;" x="150.037919" xlink:href="#C0_0_7b3ea4ba00" y="219.438522"/>
    </g>
   </g>
   <g id="PathCollection_2">
    <defs>
     <path d="M 0 6 
C 1.591219 6 3.117479 5.367802 4.242641 4.242641 
C 5.367802 3.117479 6 1.591219 6 0 
C 6 -1.591219 5.367802 -3.117479 4.242641 -4.242641 
C 3.117479 -5.367802 1.591219 -6 0 -6 
C -1.591219 -6 -3.117479 -5.367802 -4.242641 -4.242641 
C -5.367802 -3.117479 -6 -1.591219 -6 0 
C -6 1.591219 -5.367802 3.117479 -4.242641 4.242641 
C -3.117479 5.367802 -1.591219 6 0 6 
z
" id="C1_0_831f1d196d"/>
    </defs>
    <g clip-path="url(#pb8770cabf9)">
     <use style="fill:#4682b4;fill-opacity:0.5;" x="326.713756" xlink:href="#C1_0_831f1d196d" y="377.75331"/>
    </g>
    <g clip-path="url(#pb8770cabf9)">
     <use style="fill:#4682b4;fill-opacity:0.5;" x="326.713756" xlink:href="#C1_0_831f1d196d" y="347.667205"/>
    </g>
    <g clip-path="url(#pb8770cabf9)">
     <use style="fill:#4682b4;fill-opacity:0.5;" x="315.490099" xlink:href="#C1_0_831f1d196d" y="339.995788"/>
    </g>
    <g clip-path="url(#pb8770cabf9)">
     <use style="fill:#4682b4;fill-opacity:0.5;" x="326.713756" xlink:href="#C1_0_831f1d196d" y="332.685608"/>
    </g>
    <g clip-path="url(#pb8770cabf9)">
     <use style="fill:#4682b4;fill-opacity:0.5;" x="339.658297" xlink:href="#C1_0_831f1d196d" y="329.408992"/>
    </g>
    <g clip-path="url(#pb8770cabf9)">
     <use style="fill:#4682b4;fill-opacity:0.5;" x="319.151002" xlink:href="#C1_0_831f1d196d" y="320.920669"/>
    </g>
    <g clip-path="url(#pb8770cabf9)">
     <use style="fill:#4682b4;fill-opacity:0.5;" x="326.713756" xlink:href="#C1_0_831f1d196d" y="307.124709"/>
    </g>
    <g clip-path="url(#pb8770cabf9)">
     <use style="fill:#4682b4;fill-opacity:0.5;" x="313.435948" xlink:href="#C1_0_831f1d196d" y="306.333285"/>
    </g>
    <g clip-path="url(#pb8770cabf9)">
     <use style="fill:#4682b4;fill-opacity:0.5;" x="326.713756" xlink:href="#C1_0_831f1d196d" y="267.393123"/>
    </g>
    <g clip-path="url(#pb8770cabf9)">
     <use style="fill:#4682b4;fill-opacity:0.5;" x="313.487482" xlink:href="#C1_0_831f1d196d" y="265.907704"/>
    </g>
    <g clip-path="url(#pb8770cabf9)">
     <use style="fill:#4682b4;fill-opacity:0.5;" x="326.713756" xlink:href="#C1_0_831f1d196d" y="249.801925"/>
    </g>
    <g clip-path="url(#pb8770cabf9)">
     <use style="fill:#4682b4;fill-opacity:0.5;" x="317.480084" xlink:href="#C1_0_831f1d196d" y="239.508916"/>
    </g>
    <g clip-path="url(#pb8770cabf9)">
     <use style="fill:#4682b4;fill-opacity:0.5;" x="326.713756" xlink:href="#C1_0_831f1d196d" y="117.586144"/>
    </g>
    <g clip-path="url(#pb8770cabf9)">
     <use style="fill:#4682b4;fill-opacity:0.5;" x="326.713756" xlink:href="#C1_0_831f1d196d" y="35.050208"/>
    </g>
    <g clip-path="url(#pb8770cabf9)">
     <use style="fill:#4682b4;fill-opacity:0.5;" x="313.775476" xlink:href="#C1_0_831f1d196d" y="31.745113"/>
    </g>
   </g>
   <g id="PathCollection_3">
    <defs>
     <path d="M 0 6 
C 1.591219 6 3.117479 5.367802 4.242641 4.242641 
C 5.367802 3.117479 6 1.591219 6 0 
C 6 -1.591219 5.367802 -3.117479 4.242641 -4.242641 
C 3.117479 -5.367802 1.591219 -6 0 -6 
C -1.591219 -6 -3.117479 -5.367802 -4.242641 -4.242641 
C -5.367802 -3.117479 -6 -1.591219 -6 0 
C -6 1.591219 -5.367802 3.117479 -4.242641 4.242641 
C -3.117479 5.367802 -1.591219 6 0 6 
z
" id="C2_0_13ef8f50c9"/>
    </defs>
    <g clip-path="url(#pb8770cabf9)">
     <use style="fill:#9469ad;fill-opacity:0.5;" x="503.389594" xlink:href="#C2_0_13ef8f50c9" y="378.775566"/>
    </g>
    <g clip-path="url(#pb8770cabf9)">
     <use style="fill:#9469ad;fill-opacity:0.5;" x="490.553262" xlink:href="#C2_0_13ef8f50c9" y="375.038785"/>
    </g>
    <g clip-path="url(#pb8770cabf9)">
     <use style="fill:#9469ad;fill-opacity:0.5;" x="514.839577" xlink:href="#C2_0_13ef8f50c9" y="371.50136"/>
    </g>
    <g clip-path="url(#pb8770cabf9)">
     <use style="fill:#9469ad;fill-opacity:0.5;" x="527.806371" xlink:href="#C2_0_13ef8f50c9" y="368.328169"/>
    </g>
    <g clip-path="url(#pb8770cabf9)">
     <use style="fill:#9469ad;fill-opacity:0.5;" x="503.389594" xlink:href="#C2_0_13ef8f50c9" y="351.198635"/>
    </g>
    <g clip-path="url(#pb8770cabf9)">
     <use style="fill:#9469ad;fill-opacity:0.5;" x="491.187699" xlink:href="#C2_0_13ef8f50c9" y="345.511773"/>
    </g>
    <g clip-path="url(#pb8770cabf9)">
     <use style="fill:#9469ad;fill-opacity:0.5;" x="503.389594" xlink:href="#C2_0_13ef8f50c9" y="327.030223"/>
    </g>
    <g clip-path="url(#pb8770cabf9)">
     <use style="fill:#9469ad;fill-opacity:0.5;" x="494.487704" xlink:href="#C2_0_13ef8f50c9" y="316.404456"/>
    </g>
    <g clip-path="url(#pb8770cabf9)">
     <use style="fill:#9469ad;fill-opacity:0.5;" x="506.48319" xlink:href="#C2_0_13ef8f50c9" y="310.230449"/>
    </g>
    <g clip-path="url(#pb8770cabf9)">
     <use style="fill:#9469ad;fill-opacity:0.5;" x="519.323285" xlink:href="#C2_0_13ef8f50c9" y="306.508657"/>
    </g>
    <g clip-path="url(#pb8770cabf9)">
     <use style="fill:#9469ad;fill-opacity:0.5;" x="502.780371" xlink:href="#C2_0_13ef8f50c9" y="296.492946"/>
    </g>
    <g clip-path="url(#pb8770cabf9)">
     <use style="fill:#9469ad;fill-opacity:0.5;" x="489.816755" xlink:href="#C2_0_13ef8f50c9" y="293.304766"/>
    </g>
    <g clip-path="url(#pb8770cabf9)">
     <use style="fill:#9469ad;fill-opacity:0.5;" x="503.389594" xlink:href="#C2_0_13ef8f50c9" y="267.318178"/>
    </g>
    <g clip-path="url(#pb8770cabf9)">
     <use style="fill:#9469ad;fill-opacity:0.5;" x="490.905264" xlink:href="#C2_0_13ef8f50c9" y="262.391263"/>
    </g>
    <g clip-path="url(#pb8770cabf9)">
     <use style="fill:#9469ad;fill-opacity:0.5;" x="503.389594" xlink:href="#C2_0_13ef8f50c9" y="123.103628"/>
    </g>
   </g>
  </g>
  <g id="axes_2">
   <g id="patch_5">
    <path clip-path="url(#pb8770cabf9)" d="M 79.367584 362.877386 
L 220.708254 362.877386 
L 220.708254 291.030172 
L 79.367584 291.030172 
L 79.367584 362.877386 
z
" style="fill:#e4ce7f;stroke:#525252;stroke-linejoin:miter;stroke-width:1.5;"/>
   </g>
   <g id="patch_6">
    <path clip-path="url(#pb8770cabf9)" d="M 256.043421 331.0473 
L 397.384091 331.0473 
L 397.384091 244.65542 
L 256.043421 244.65542 
L 256.043421 331.0473 
z
" style="fill:#90c1bb;stroke:#525252;stroke-linejoin:miter;stroke-width:1.5;"/>
   </g>
   <g id="patch_7">
    <path clip-path="url(#pb8770cabf9)" d="M 432.719259 359.763402 
L 574.059928 359.763402 
L 574.059928 294.898856 
L 432.719259 294.898856 
L 432.719259 359.763402 
z
" style="fill:#78aa66;stroke:#525252;stroke-linejoin:miter;stroke-width:1.5;"/>
   </g>
   <g id="line2d_9">
    <path clip-path="url(#pb8770cabf9)" d="M 150.037919 362.877386 
L 150.037919 383.569078 
" style="fill:none;stroke:#525252;stroke-linecap:square;stroke-width:1.5;"/>
   </g>
   <g id="line2d_10">
    <path clip-path="url(#pb8770cabf9)" d="M 150.037919 291.030172 
L 150.037919 219.438522 
" style="fill:none;stroke:#525252;stroke-linecap:square;stroke-width:1.5;"/>
   </g>
   <g id="line2d_11">
    <path clip-path="url(#pb8770cabf9)" d="M 114.702751 383.569078 
L 185.373086 383.569078 
" style="fill:none;stroke:#525252;stroke-linecap:square;stroke-width:1.5;"/>
   </g>
   <g id="line2d_12">
    <path clip-path="url(#pb8770cabf9)" d="M 114.702751 219.438522 
L 185.373086 219.438522 
" style="fill:none;stroke:#525252;stroke-linecap:square;stroke-width:1.5;"/>
   </g>
   <g id="line2d_13"/>
   <g id="line2d_14">
    <path clip-path="url(#pb8770cabf9)" d="M 326.713756 331.0473 
L 326.713756 377.75331 
" style="fill:none;stroke:#525252;stroke-linecap:square;stroke-width:1.5;"/>
   </g>
   <g id="line2d_15">
    <path clip-path="url(#pb8770cabf9)" d="M 326.713756 244.65542 
L 326.713756 117.586144 
" style="fill:none;stroke:#525252;stroke-linecap:square;stroke-width:1.5;"/>
   </g>
   <g id="line2d_16">
    <path clip-path="url(#pb8770cabf9)" d="M 291.378589 377.75331 
L 362.048924 377.75331 
" style="fill:none;stroke:#525252;stroke-linecap:square;stroke-width:1.5;"/>
   </g>
   <g id="line2d_17">
    <path clip-path="url(#pb8770cabf9)" d="M 291.378589 117.586144 
L 362.048924 117.586144 
" style="fill:none;stroke:#525252;stroke-linecap:square;stroke-width:1.5;"/>
   </g>
   <g id="line2d_18">
    <defs>
     <path d="M 0 3.535534 
L 2.12132 0 
L 0 -3.535534 
L -2.12132 0 
z
" id="mabd61eb861" style="stroke:#525252;stroke-linejoin:miter;"/>
    </defs>
    <g clip-path="url(#pb8770cabf9)">
     <use style="fill:#525252;stroke:#525252;stroke-linejoin:miter;" x="326.713756" xlink:href="#mabd61eb861" y="31.745113"/>
     <use style="fill:#525252;stroke:#525252;stroke-linejoin:miter;" x="326.713756" xlink:href="#mabd61eb861" y="35.050208"/>
    </g>
   </g>
   <g id="line2d_19">
    <path clip-path="url(#pb8770cabf9)" d="M 503.389594 359.763402 
L 503.389594 378.775566 
" style="fill:none;stroke:#525252;stroke-linecap:square;stroke-width:1.5;"/>
   </g>
   <g id="line2d_20">
    <path clip-path="url(#pb8770cabf9)" d="M 503.389594 294.898856 
L 503.389594 262.391263 
" style="fill:none;stroke:#525252;stroke-linecap:square;stroke-width:1.5;"/>
   </g>
   <g id="line2d_21">
    <path clip-path="url(#pb8770cabf9)" d="M 468.054426 378.775566 
L 538.724761 378.775566 
" style="fill:none;stroke:#525252;stroke-linecap:square;stroke-width:1.5;"/>
   </g>
   <g id="line2d_22">
    <path clip-path="url(#pb8770cabf9)" d="M 468.054426 262.391263 
L 538.724761 262.391263 
" style="fill:none;stroke:#525252;stroke-linecap:square;stroke-width:1.5;"/>
   </g>
   <g id="line2d_23">
    <g clip-path="url(#pb8770cabf9)">
     <use style="fill:#525252;stroke:#525252;stroke-linejoin:miter;" x="503.389594" xlink:href="#mabd61eb861" y="123.103628"/>
    </g>
   </g>
   <g id="line2d_24">
    <path clip-path="url(#pb8770cabf9)" d="M 79.367584 331.188197 
L 220.708254 331.188197 
" style="fill:none;stroke:#525252;stroke-linecap:square;stroke-width:1.5;"/>
   </g>
   <g id="line2d_25">
    <path clip-path="url(#pb8770cabf9)" d="M 256.043421 306.333285 
L 397.384091 306.333285 
" style="fill:none;stroke:#525252;stroke-linecap:square;stroke-width:1.5;"/>
   </g>
   <g id="line2d_26">
    <path clip-path="url(#pb8770cabf9)" d="M 432.719259 316.404456 
L 574.059928 316.404456 
" style="fill:none;stroke:#525252;stroke-linecap:square;stroke-width:1.5;"/>
   </g>
  </g>
  <g id="axes_3">
   <g id="line2d_27">
    <path clip-path="url(#pb8770cabf9)" d="M 61.7 297.261254 
L 591.727512 297.261254 
" style="fill:none;opacity:0.85;stroke:#a6a6a6;stroke-dasharray:2.5,4.125;stroke-dashoffset:0;stroke-width:2.5;"/>
   </g>
   <g id="text_10">
    <!-- $\mu_{grand}=$ -->
    <defs>
     <path d="M -1.3125 -20.796875 
L 13.375 54.6875 
L 22.40625 54.6875 
L 15.765625 20.65625 
Q 15.578125 19.625 15.421875 18.359375 
Q 15.28125 17.09375 15.28125 15.828125 
Q 15.28125 11.28125 18.140625 8.828125 
Q 21 6.390625 26.3125 6.390625 
Q 33.546875 6.390625 37.984375 10.484375 
Q 42.4375 14.59375 44 22.796875 
L 50.203125 54.6875 
L 59.1875 54.6875 
L 51.03125 12.640625 
Q 50.828125 11.71875 50.75 11.03125 
Q 50.6875 10.359375 50.6875 9.8125 
Q 50.6875 8.296875 51.296875 7.59375 
Q 51.90625 6.890625 53.21875 6.890625 
Q 53.71875 6.890625 54.5625 7.125 
Q 55.421875 7.375 56.984375 8.015625 
L 55.609375 0.78125 
Q 53.46875 -0.296875 51.515625 -0.859375 
Q 49.5625 -1.421875 47.703125 -1.421875 
Q 44.484375 -1.421875 42.65625 0.625 
Q 40.828125 2.6875 40.828125 6.296875 
Q 38.09375 2.390625 34.296875 0.484375 
Q 30.515625 -1.421875 25.390625 -1.421875 
Q 20.84375 -1.421875 17.453125 0.671875 
Q 14.0625 2.78125 12.984375 6.203125 
L 7.71875 -20.796875 
z
" id="DejaVuSans-Oblique-3bc"/>
     <path d="M 59.625 54.6875 
L 50.296875 6.78125 
Q 47.609375 -7.125 40.015625 -13.953125 
Q 32.421875 -20.796875 19.578125 -20.796875 
Q 14.84375 -20.796875 10.78125 -20.09375 
Q 6.734375 -19.390625 3.21875 -17.921875 
L 4.890625 -9.1875 
Q 8.203125 -11.328125 11.90625 -12.34375 
Q 15.625 -13.375 19.828125 -13.375 
Q 28.375 -13.375 33.859375 -8.703125 
Q 39.359375 -4.046875 41.109375 4.6875 
L 41.890625 8.796875 
Q 38.140625 4.5 33.15625 2.25 
Q 28.171875 0 22.40625 0 
Q 14.109375 0 9.34375 5.484375 
Q 4.59375 10.984375 4.59375 20.609375 
Q 4.59375 28.171875 7.46875 35.421875 
Q 10.359375 42.671875 15.578125 48.296875 
Q 19.046875 52 23.65625 54 
Q 28.265625 56 33.296875 56 
Q 38.8125 56 42.90625 53.4375 
Q 47.015625 50.875 49.03125 46.1875 
L 50.59375 54.6875 
z
M 46.09375 34.625 
Q 46.09375 41.265625 42.96875 44.875 
Q 39.84375 48.484375 34.078125 48.484375 
Q 30.515625 48.484375 27.296875 47.0625 
Q 24.078125 45.65625 21.78125 43.109375 
Q 18.0625 38.921875 15.984375 33.234375 
Q 13.921875 27.546875 13.921875 21.484375 
Q 13.921875 14.75 17.0625 11.125 
Q 20.21875 7.515625 26.125 7.515625 
Q 34.671875 7.515625 40.375 15.25 
Q 46.09375 23 46.09375 34.625 
z
" id="DejaVuSans-Oblique-67"/>
     <path d="M 44.578125 46.390625 
Q 43.21875 47.125 41.453125 47.515625 
Q 39.703125 47.90625 37.703125 47.90625 
Q 30.515625 47.90625 25.140625 42.453125 
Q 19.78125 37.015625 18.015625 27.875 
L 12.5 0 
L 3.515625 0 
L 14.203125 54.6875 
L 23.1875 54.6875 
L 21.484375 46.1875 
Q 25.046875 50.921875 30 53.453125 
Q 34.96875 56 40.578125 56 
Q 42.046875 56 43.453125 55.828125 
Q 44.875 55.671875 46.296875 55.28125 
z
" id="DejaVuSans-Oblique-72"/>
     <path d="M 53.71875 31.203125 
L 47.609375 0 
L 38.625 0 
L 40.28125 8.296875 
Q 36.328125 3.421875 31.265625 1 
Q 26.21875 -1.421875 20.015625 -1.421875 
Q 13.03125 -1.421875 8.5625 2.84375 
Q 4.109375 7.125 4.109375 13.8125 
Q 4.109375 23.390625 11.75 28.953125 
Q 19.390625 34.515625 32.8125 34.515625 
L 45.3125 34.515625 
L 45.796875 36.921875 
Q 45.90625 37.3125 45.953125 37.765625 
Q 46 38.234375 46 39.203125 
Q 46 43.5625 42.453125 45.96875 
Q 38.921875 48.390625 32.515625 48.390625 
Q 28.125 48.390625 23.5 47.265625 
Q 18.890625 46.140625 14.015625 43.890625 
L 15.578125 52.203125 
Q 20.65625 54.109375 25.515625 55.046875 
Q 30.375 56 34.90625 56 
Q 44.578125 56 49.625 51.796875 
Q 54.6875 47.609375 54.6875 39.59375 
Q 54.6875 37.984375 54.4375 35.8125 
Q 54.203125 33.640625 53.71875 31.203125 
z
M 44 27.484375 
L 35.015625 27.484375 
Q 23.96875 27.484375 18.671875 24.53125 
Q 13.375 21.578125 13.375 15.375 
Q 13.375 11.078125 16.078125 8.640625 
Q 18.796875 6.203125 23.578125 6.203125 
Q 30.90625 6.203125 36.375 11.453125 
Q 41.84375 16.703125 43.609375 25.484375 
z
" id="DejaVuSans-Oblique-61"/>
     <path d="M 55.71875 33.015625 
L 49.3125 0 
L 40.28125 0 
L 46.6875 32.671875 
Q 47.125 34.96875 47.359375 36.71875 
Q 47.609375 38.484375 47.609375 39.5 
Q 47.609375 43.609375 45.015625 45.890625 
Q 42.4375 48.1875 37.796875 48.1875 
Q 30.5625 48.1875 25.34375 43.375 
Q 20.125 38.578125 18.5 30.328125 
L 12.5 0 
L 3.515625 0 
L 14.109375 54.6875 
L 23.09375 54.6875 
L 21.296875 46.09375 
Q 25.046875 50.828125 30.3125 53.40625 
Q 35.59375 56 41.40625 56 
Q 48.640625 56 52.609375 52.09375 
Q 56.59375 48.1875 56.59375 41.109375 
Q 56.59375 39.359375 56.375 37.359375 
Q 56.15625 35.359375 55.71875 33.015625 
z
" id="DejaVuSans-Oblique-6e"/>
     <path d="M 41.796875 8.203125 
Q 38.1875 3.46875 33.25 1.015625 
Q 28.328125 -1.421875 22.3125 -1.421875 
Q 14.109375 -1.421875 9.34375 4.171875 
Q 4.59375 9.765625 4.59375 19.484375 
Q 4.59375 27.59375 7.46875 34.9375 
Q 10.359375 42.28125 15.828125 48.09375 
Q 19.4375 51.953125 23.96875 53.96875 
Q 28.515625 56 33.5 56 
Q 38.765625 56 42.796875 53.453125 
Q 46.828125 50.921875 49.03125 46.1875 
L 54.890625 75.984375 
L 63.921875 75.984375 
L 49.125 0 
L 40.09375 0 
z
M 13.921875 21.09375 
Q 13.921875 14.015625 17.109375 10.0625 
Q 20.3125 6.109375 25.984375 6.109375 
Q 30.171875 6.109375 33.765625 8.125 
Q 37.359375 10.15625 40.09375 14.109375 
Q 42.96875 18.21875 44.625 23.578125 
Q 46.296875 28.953125 46.296875 34.1875 
Q 46.296875 40.96875 43.09375 44.765625 
Q 39.890625 48.578125 34.28125 48.578125 
Q 30.03125 48.578125 26.359375 46.578125 
Q 22.703125 44.578125 20.125 40.828125 
Q 17.28125 36.765625 15.59375 31.390625 
Q 13.921875 26.03125 13.921875 21.09375 
z
" id="DejaVuSans-Oblique-64"/>
     <path d="M 10.59375 45.40625 
L 73.1875 45.40625 
L 73.1875 37.203125 
L 10.59375 37.203125 
z
M 10.59375 25.484375 
L 73.1875 25.484375 
L 73.1875 17.1875 
L 10.59375 17.1875 
z
" id="DejaVuSans-3d"/>
    </defs>
    <g style="fill:#a6a6a6;" transform="translate(534.093033 271.525191)scale(0.18 -0.18)">
     <use transform="translate(0 0.3125)" xlink:href="#DejaVuSans-Oblique-3bc"/>
     <use transform="translate(63.623047 -16.09375)scale(0.7)" xlink:href="#DejaVuSans-Oblique-67"/>
     <use transform="translate(108.056641 -16.09375)scale(0.7)" xlink:href="#DejaVuSans-Oblique-72"/>
     <use transform="translate(136.835938 -16.09375)scale(0.7)" xlink:href="#DejaVuSans-Oblique-61"/>
     <use transform="translate(179.731445 -16.09375)scale(0.7)" xlink:href="#DejaVuSans-Oblique-6e"/>
     <use transform="translate(224.09668 -16.09375)scale(0.7)" xlink:href="#DejaVuSans-Oblique-64"/>
     <use transform="translate(290.74707 0.3125)" xlink:href="#DejaVuSans-3d"/>
    </g>
    <!-- $70,452 -->
    <defs>
     <path d="M 33.6875 3.328125 
Q 39.203125 3.8125 42.109375 6.5 
Q 45.015625 9.1875 45.015625 13.8125 
Q 45.015625 18.015625 42.140625 20.9375 
Q 39.265625 23.875 33.6875 25.390625 
z
M 28.8125 57.953125 
Q 23.78125 57.625 21 55.046875 
Q 18.21875 52.484375 18.21875 48.1875 
Q 18.21875 44.28125 20.78125 41.6875 
Q 23.34375 39.109375 28.8125 37.5 
z
M 8.59375 3.515625 
L 8.59375 17 
L 13.875 17 
Q 14.0625 10.296875 17.765625 6.875 
Q 21.484375 3.46875 28.8125 3.328125 
L 28.8125 27 
Q 17.578125 30.125 13.03125 34.203125 
Q 8.5 38.28125 8.5 45.015625 
Q 8.5 52.828125 13.859375 57.5625 
Q 19.234375 62.3125 28.8125 62.890625 
L 28.8125 75.984375 
L 33.6875 75.984375 
L 33.6875 62.890625 
Q 38.625 62.5 43.1875 61.296875 
Q 47.75 60.109375 52.09375 58.109375 
L 52.09375 45.3125 
L 46.78125 45.3125 
Q 46.1875 50.984375 42.8125 54.25 
Q 39.453125 57.515625 33.6875 57.953125 
L 33.6875 35.890625 
Q 45.703125 32.625 50.515625 28.390625 
Q 55.328125 24.171875 55.328125 17.09375 
Q 55.328125 8.984375 49.65625 4.09375 
Q 44 -0.78125 33.6875 -1.515625 
L 33.6875 -14.703125 
L 28.8125 -14.703125 
L 28.8125 -1.515625 
Q 24.125 -1.421875 19.09375 -0.171875 
Q 14.0625 1.078125 8.59375 3.515625 
z
" id="DejaVuSerif-24"/>
     <path d="M 56.390625 67.921875 
L 27.875 0 
L 20.609375 0 
L 47.796875 64.890625 
L 14.109375 64.890625 
L 14.109375 55.90625 
L 8.40625 55.90625 
L 8.40625 72.90625 
L 56.390625 72.90625 
z
" id="DejaVuSerif-37"/>
     <path d="M 3.609375 -9.71875 
Q 8.203125 -6.34375 10.34375 -1.78125 
Q 12.5 2.78125 12.5 9.28125 
L 12.5 11.078125 
L 22.125 11.078125 
Q 21.734375 2.734375 18.1875 -3.25 
Q 14.65625 -9.234375 7.515625 -13.625 
z
" id="DejaVuSerif-2c"/>
     <path d="M 34.90625 24.703125 
L 34.90625 63.484375 
L 10.015625 24.703125 
z
M 56.390625 0 
L 23.1875 0 
L 23.1875 5.171875 
L 34.90625 5.171875 
L 34.90625 19.484375 
L 3.078125 19.484375 
L 3.078125 24.8125 
L 35.015625 74.21875 
L 44.671875 74.21875 
L 44.671875 24.703125 
L 58.59375 24.703125 
L 58.59375 19.484375 
L 44.671875 19.484375 
L 44.671875 5.171875 
L 56.390625 5.171875 
z
" id="DejaVuSerif-34"/>
    </defs>
    <g style="fill:#a6a6a6;" transform="translate(532.42522 293.517816)scale(0.18 -0.18)">
     <use xlink:href="#DejaVuSerif-24"/>
     <use x="63.623047" xlink:href="#DejaVuSerif-37"/>
     <use x="127.246094" xlink:href="#DejaVuSerif-30"/>
     <use x="190.869141" xlink:href="#DejaVuSerif-2c"/>
     <use x="222.65625" xlink:href="#DejaVuSerif-34"/>
     <use x="286.279297" xlink:href="#DejaVuSerif-35"/>
     <use x="349.902344" xlink:href="#DejaVuSerif-32"/>
    </g>
   </g>
  </g>
  <g id="axes_4">
   <g id="patch_8">
    <path d="M 148.041086 297.261254 
L 131.061062 297.261254 
L 131.061062 320.982324 
L 148.041086 320.982324 
" style="fill:none;stroke:#e04b4b;stroke-linecap:round;stroke-width:3;"/>
   </g>
   <g id="text_11">
    <!-- $\hat{y}=$ -->
    <defs>
     <path d="M -28.609375 79.984375 
L -21.390625 79.984375 
L -9.421875 61.625 
L -16.21875 61.625 
L -25 73.578125 
L -33.796875 61.625 
L -40.578125 61.625 
z
M -25 56 
z
" id="DejaVuSans-302"/>
     <path d="M 24.8125 -5.078125 
Q 18.5625 -15.578125 14.625 -18.1875 
Q 10.6875 -20.796875 4.59375 -20.796875 
L -2.484375 -20.796875 
L -0.984375 -13.28125 
L 4.203125 -13.28125 
Q 7.953125 -13.28125 10.59375 -11.234375 
Q 13.234375 -9.1875 16.5 -3.21875 
L 19.28125 2 
L 7.171875 54.6875 
L 16.703125 54.6875 
L 25.78125 12.796875 
L 50.875 54.6875 
L 60.296875 54.6875 
z
" id="DejaVuSans-Oblique-79"/>
    </defs>
    <g style="fill:#fff8d0;" transform="translate(89.648684 306.675289)scale(0.12 -0.12)">
     <use transform="translate(62.373047 12.015625)" xlink:href="#DejaVuSans-302"/>
     <use transform="translate(0 0.828125)" xlink:href="#DejaVuSans-Oblique-79"/>
     <use transform="translate(78.662109 0.828125)" xlink:href="#DejaVuSans-3d"/>
    </g>
    <!-- $54,627 -->
    <defs>
     <path d="M 32.71875 3.421875 
Q 39.59375 3.421875 43.296875 8.46875 
Q 47.015625 13.53125 47.015625 23 
Q 47.015625 32.46875 43.296875 37.515625 
Q 39.59375 42.578125 32.71875 42.578125 
Q 25.734375 42.578125 22.0625 37.6875 
Q 18.40625 32.8125 18.40625 23.578125 
Q 18.40625 13.875 22.109375 8.640625 
Q 25.828125 3.421875 32.71875 3.421875 
z
M 16.796875 40.140625 
Q 20.125 43.796875 24.3125 45.59375 
Q 28.515625 47.40625 33.796875 47.40625 
Q 44.671875 47.40625 51 40.859375 
Q 57.328125 34.328125 57.328125 23 
Q 57.328125 11.921875 50.515625 5.25 
Q 43.703125 -1.421875 32.328125 -1.421875 
Q 19.96875 -1.421875 13.328125 7.78125 
Q 6.6875 17 6.6875 34.078125 
Q 6.6875 53.21875 14.546875 63.71875 
Q 22.40625 74.21875 36.71875 74.21875 
Q 40.578125 74.21875 44.828125 73.484375 
Q 49.078125 72.75 53.515625 71.296875 
L 53.515625 59.28125 
L 48 59.28125 
Q 47.40625 64.203125 44.234375 66.796875 
Q 41.0625 69.390625 35.6875 69.390625 
Q 26.21875 69.390625 21.578125 62.203125 
Q 16.9375 55.03125 16.796875 40.140625 
z
" id="DejaVuSerif-36"/>
    </defs>
    <g style="fill:#fff8d0;" transform="translate(75.756809 320.137039)scale(0.12 -0.12)">
     <use xlink:href="#DejaVuSerif-24"/>
     <use x="63.623047" xlink:href="#DejaVuSerif-35"/>
     <use x="127.246094" xlink:href="#DejaVuSerif-34"/>
     <use x="190.869141" xlink:href="#DejaVuSerif-2c"/>
     <use x="222.65625" xlink:href="#DejaVuSerif-36"/>
     <use x="286.279297" xlink:href="#DejaVuSerif-32"/>
     <use x="349.902344" xlink:href="#DejaVuSerif-37"/>
    </g>
   </g>
   <g id="patch_9">
    <path d="M 324.712397 297.261254 
L 295.245164 297.261254 
L 295.245164 257.925513 
L 324.712397 257.925513 
" style="fill:none;stroke:#e04b4b;stroke-linecap:round;stroke-width:3;"/>
   </g>
   <g id="text_12">
    <!-- $\hat{y}=$ -->
    <g style="fill:#fff8d0;" transform="translate(266.324522 275.146884)scale(0.12 -0.12)">
     <use transform="translate(62.373047 12.015625)" xlink:href="#DejaVuSans-302"/>
     <use transform="translate(0 0.828125)" xlink:href="#DejaVuSans-Oblique-79"/>
     <use transform="translate(78.662109 0.828125)" xlink:href="#DejaVuSans-3d"/>
    </g>
    <!-- $96,695 -->
    <defs>
     <path d="M 46.78125 32.671875 
Q 43.5 29 39.25 27.1875 
Q 35.015625 25.390625 29.6875 25.390625 
Q 18.84375 25.390625 12.5625 31.9375 
Q 6.296875 38.484375 6.296875 49.8125 
Q 6.296875 60.890625 13.109375 67.546875 
Q 19.921875 74.21875 31.296875 74.21875 
Q 43.65625 74.21875 50.265625 65.015625 
Q 56.890625 55.8125 56.890625 38.71875 
Q 56.890625 19.578125 49.015625 9.078125 
Q 41.15625 -1.421875 26.90625 -1.421875 
Q 23.046875 -1.421875 18.796875 -0.6875 
Q 14.546875 0.046875 10.109375 1.515625 
L 10.109375 13.625 
L 15.578125 13.625 
Q 16.21875 8.6875 19.390625 6.046875 
Q 22.5625 3.421875 27.875 3.421875 
Q 37.359375 3.421875 41.984375 10.5625 
Q 46.625 17.71875 46.78125 32.671875 
z
M 30.90625 69.390625 
Q 23.96875 69.390625 20.28125 64.328125 
Q 16.609375 59.28125 16.609375 49.8125 
Q 16.609375 40.328125 20.28125 35.25 
Q 23.96875 30.171875 30.90625 30.171875 
Q 37.84375 30.171875 41.53125 35.078125 
Q 45.21875 39.984375 45.21875 49.21875 
Q 45.21875 58.9375 41.5 64.15625 
Q 37.796875 69.390625 30.90625 69.390625 
z
" id="DejaVuSerif-39"/>
    </defs>
    <g style="fill:#fff8d0;" transform="translate(252.432647 288.608634)scale(0.12 -0.12)">
     <use xlink:href="#DejaVuSerif-24"/>
     <use x="63.623047" xlink:href="#DejaVuSerif-39"/>
     <use x="127.246094" xlink:href="#DejaVuSerif-36"/>
     <use x="190.869141" xlink:href="#DejaVuSerif-2c"/>
     <use x="222.65625" xlink:href="#DejaVuSerif-36"/>
     <use x="286.279297" xlink:href="#DejaVuSerif-39"/>
     <use x="349.902344" xlink:href="#DejaVuSerif-35"/>
    </g>
   </g>
   <g id="patch_10">
    <path d="M 501.392014 297.261254 
L 490.897858 297.261254 
L 490.897858 312.875924 
L 501.392014 312.875924 
" style="fill:none;stroke:#e04b4b;stroke-linecap:round;stroke-width:3;"/>
   </g>
   <g id="text_13">
    <!-- $\hat{y}=$ -->
    <g style="fill:#fff8d0;" transform="translate(443.000359 302.622089)scale(0.12 -0.12)">
     <use transform="translate(62.373047 12.015625)" xlink:href="#DejaVuSans-302"/>
     <use transform="translate(0 0.828125)" xlink:href="#DejaVuSans-Oblique-79"/>
     <use transform="translate(78.662109 0.828125)" xlink:href="#DejaVuSans-3d"/>
    </g>
    <!-- $60,035 -->
    <defs>
     <path d="M 9.71875 69.828125 
Q 15.4375 71.96875 20.671875 73.09375 
Q 25.921875 74.21875 30.515625 74.21875 
Q 41.21875 74.21875 47.21875 69.59375 
Q 53.21875 64.984375 53.21875 56.78125 
Q 53.21875 50.203125 49.0625 45.78125 
Q 44.921875 41.359375 37.3125 39.796875 
Q 46.296875 38.53125 51.25 33.28125 
Q 56.203125 28.03125 56.203125 19.671875 
Q 56.203125 9.46875 49.34375 4.015625 
Q 42.484375 -1.421875 29.59375 -1.421875 
Q 23.875 -1.421875 18.421875 -0.1875 
Q 12.984375 1.03125 7.625 3.515625 
L 7.625 17.671875 
L 13.09375 17.671875 
Q 13.578125 10.640625 17.828125 7.03125 
Q 22.078125 3.421875 29.78125 3.421875 
Q 37.25 3.421875 41.578125 7.734375 
Q 45.90625 12.0625 45.90625 19.578125 
Q 45.90625 28.171875 41.453125 32.59375 
Q 37.015625 37.015625 28.421875 37.015625 
L 23.78125 37.015625 
L 23.78125 42 
L 26.21875 42 
Q 34.765625 42 39.03125 45.53125 
Q 43.3125 49.078125 43.3125 56.203125 
Q 43.3125 62.59375 39.796875 65.984375 
Q 36.28125 69.390625 29.6875 69.390625 
Q 23.09375 69.390625 19.453125 66.265625 
Q 15.828125 63.140625 15.1875 56.984375 
L 9.71875 56.984375 
z
" id="DejaVuSerif-33"/>
    </defs>
    <g style="fill:#fff8d0;" transform="translate(429.108484 316.083839)scale(0.12 -0.12)">
     <use xlink:href="#DejaVuSerif-24"/>
     <use x="63.623047" xlink:href="#DejaVuSerif-36"/>
     <use x="127.246094" xlink:href="#DejaVuSerif-30"/>
     <use x="190.869141" xlink:href="#DejaVuSerif-2c"/>
     <use x="222.65625" xlink:href="#DejaVuSerif-30"/>
     <use x="286.279297" xlink:href="#DejaVuSerif-33"/>
     <use x="349.902344" xlink:href="#DejaVuSerif-35"/>
    </g>
   </g>
  </g>
  <g id="axes_5">
   <g id="PathCollection_4">
    <defs>
     <path d="M 15 0 
L -15 -0 
" id="m5b50233d3d" style="stroke:#fff8d0;stroke-width:1.5;"/>
    </defs>
    <g clip-path="url(#pb8770cabf9)">
     <use style="fill:#fff8d0;stroke:#fff8d0;stroke-width:1.5;" x="150.037919" xlink:href="#m5b50233d3d" y="320.982324"/>
     <use style="fill:#fff8d0;stroke:#fff8d0;stroke-width:1.5;" x="326.713756" xlink:href="#m5b50233d3d" y="257.925513"/>
     <use style="fill:#fff8d0;stroke:#fff8d0;stroke-width:1.5;" x="503.389594" xlink:href="#m5b50233d3d" y="312.875924"/>
    </g>
   </g>
  </g>
  <g id="axes_6">
   <g id="LineCollection_1">
    <path clip-path="url(#pb8770cabf9)" d="M 150.037919 383.569078 
L 150.037919 320.983624 
" style="fill:none;stroke:#f79a52;stroke-opacity:0.5;stroke-width:2;"/>
    <path clip-path="url(#pb8770cabf9)" d="M 138.059166 377.357598 
L 138.059166 320.983624 
" style="fill:none;stroke:#f79a52;stroke-opacity:0.5;stroke-width:2;"/>
    <path clip-path="url(#pb8770cabf9)" d="M 157.720202 371.894074 
L 157.720202 320.983624 
" style="fill:none;stroke:#f79a52;stroke-opacity:0.5;stroke-width:2;"/>
    <path clip-path="url(#pb8770cabf9)" d="M 145.923274 365.823492 
L 145.923274 320.983624 
" style="fill:none;stroke:#f79a52;stroke-opacity:0.5;stroke-width:2;"/>
    <path clip-path="url(#pb8770cabf9)" d="M 165.009723 359.93128 
L 165.009723 320.983624 
" style="fill:none;stroke:#f79a52;stroke-opacity:0.5;stroke-width:2;"/>
    <path clip-path="url(#pb8770cabf9)" d="M 134.090786 359.295742 
L 134.090786 320.983624 
" style="fill:none;stroke:#f79a52;stroke-opacity:0.5;stroke-width:2;"/>
    <path clip-path="url(#pb8770cabf9)" d="M 150.037919 332.295891 
L 150.037919 320.983624 
" style="fill:none;stroke:#f79a52;stroke-opacity:0.5;stroke-width:2;"/>
    <path clip-path="url(#pb8770cabf9)" d="M 136.779676 331.188197 
L 136.779676 320.983624 
" style="fill:none;stroke:#f79a52;stroke-opacity:0.5;stroke-width:2;"/>
    <path clip-path="url(#pb8770cabf9)" d="M 150.037919 317.236351 
L 150.037919 320.983624 
" style="fill:none;stroke:#f79a52;stroke-opacity:0.5;stroke-width:2;"/>
    <path clip-path="url(#pb8770cabf9)" d="M 137.974793 311.216731 
L 137.974793 320.983624 
" style="fill:none;stroke:#f79a52;stroke-opacity:0.5;stroke-width:2;"/>
    <path clip-path="url(#pb8770cabf9)" d="M 161.743611 310.44929 
L 161.743611 320.983624 
" style="fill:none;stroke:#f79a52;stroke-opacity:0.5;stroke-width:2;"/>
    <path clip-path="url(#pb8770cabf9)" d="M 150.037919 271.611054 
L 150.037919 320.983624 
" style="fill:none;stroke:#f79a52;stroke-opacity:0.5;stroke-width:2;"/>
    <path clip-path="url(#pb8770cabf9)" d="M 150.037919 256.756864 
L 150.037919 320.983624 
" style="fill:none;stroke:#f79a52;stroke-opacity:0.5;stroke-width:2;"/>
    <path clip-path="url(#pb8770cabf9)" d="M 140.608997 246.670704 
L 140.608997 320.983624 
" style="fill:none;stroke:#f79a52;stroke-opacity:0.5;stroke-width:2;"/>
    <path clip-path="url(#pb8770cabf9)" d="M 150.037919 219.438522 
L 150.037919 320.983624 
" style="fill:none;stroke:#f79a52;stroke-opacity:0.5;stroke-width:2;"/>
    <path clip-path="url(#pb8770cabf9)" d="M 326.713756 377.75331 
L 326.713756 257.926013 
" style="fill:none;stroke:#4682b4;stroke-opacity:0.5;stroke-width:2;"/>
    <path clip-path="url(#pb8770cabf9)" d="M 326.713756 347.667205 
L 326.713756 257.926013 
" style="fill:none;stroke:#4682b4;stroke-opacity:0.5;stroke-width:2;"/>
    <path clip-path="url(#pb8770cabf9)" d="M 315.490099 339.995788 
L 315.490099 257.926013 
" style="fill:none;stroke:#4682b4;stroke-opacity:0.5;stroke-width:2;"/>
    <path clip-path="url(#pb8770cabf9)" d="M 326.713756 332.685608 
L 326.713756 257.926013 
" style="fill:none;stroke:#4682b4;stroke-opacity:0.5;stroke-width:2;"/>
    <path clip-path="url(#pb8770cabf9)" d="M 339.658297 329.408992 
L 339.658297 257.926013 
" style="fill:none;stroke:#4682b4;stroke-opacity:0.5;stroke-width:2;"/>
    <path clip-path="url(#pb8770cabf9)" d="M 319.151002 320.920669 
L 319.151002 257.926013 
" style="fill:none;stroke:#4682b4;stroke-opacity:0.5;stroke-width:2;"/>
    <path clip-path="url(#pb8770cabf9)" d="M 326.713756 307.124709 
L 326.713756 257.926013 
" style="fill:none;stroke:#4682b4;stroke-opacity:0.5;stroke-width:2;"/>
    <path clip-path="url(#pb8770cabf9)" d="M 313.435948 306.333285 
L 313.435948 257.926013 
" style="fill:none;stroke:#4682b4;stroke-opacity:0.5;stroke-width:2;"/>
    <path clip-path="url(#pb8770cabf9)" d="M 326.713756 267.393123 
L 326.713756 257.926013 
" style="fill:none;stroke:#4682b4;stroke-opacity:0.5;stroke-width:2;"/>
    <path clip-path="url(#pb8770cabf9)" d="M 313.487482 265.907704 
L 313.487482 257.926013 
" style="fill:none;stroke:#4682b4;stroke-opacity:0.5;stroke-width:2;"/>
    <path clip-path="url(#pb8770cabf9)" d="M 326.713756 249.801925 
L 326.713756 257.926013 
" style="fill:none;stroke:#4682b4;stroke-opacity:0.5;stroke-width:2;"/>
    <path clip-path="url(#pb8770cabf9)" d="M 317.480084 239.508916 
L 317.480084 257.926013 
" style="fill:none;stroke:#4682b4;stroke-opacity:0.5;stroke-width:2;"/>
    <path clip-path="url(#pb8770cabf9)" d="M 326.713756 117.586144 
L 326.713756 257.926013 
" style="fill:none;stroke:#4682b4;stroke-opacity:0.5;stroke-width:2;"/>
    <path clip-path="url(#pb8770cabf9)" d="M 326.713756 35.050208 
L 326.713756 257.926013 
" style="fill:none;stroke:#4682b4;stroke-opacity:0.5;stroke-width:2;"/>
    <path clip-path="url(#pb8770cabf9)" d="M 313.775476 31.745113 
L 313.775476 257.926013 
" style="fill:none;stroke:#4682b4;stroke-opacity:0.5;stroke-width:2;"/>
    <path clip-path="url(#pb8770cabf9)" d="M 503.389594 378.775566 
L 503.389594 312.876024 
" style="fill:none;stroke:#9469ad;stroke-opacity:0.5;stroke-width:2;"/>
    <path clip-path="url(#pb8770cabf9)" d="M 490.553262 375.038785 
L 490.553262 312.876024 
" style="fill:none;stroke:#9469ad;stroke-opacity:0.5;stroke-width:2;"/>
    <path clip-path="url(#pb8770cabf9)" d="M 514.839577 371.50136 
L 514.839577 312.876024 
" style="fill:none;stroke:#9469ad;stroke-opacity:0.5;stroke-width:2;"/>
    <path clip-path="url(#pb8770cabf9)" d="M 527.806371 368.328169 
L 527.806371 312.876024 
" style="fill:none;stroke:#9469ad;stroke-opacity:0.5;stroke-width:2;"/>
    <path clip-path="url(#pb8770cabf9)" d="M 503.389594 351.198635 
L 503.389594 312.876024 
" style="fill:none;stroke:#9469ad;stroke-opacity:0.5;stroke-width:2;"/>
    <path clip-path="url(#pb8770cabf9)" d="M 491.187699 345.511773 
L 491.187699 312.876024 
" style="fill:none;stroke:#9469ad;stroke-opacity:0.5;stroke-width:2;"/>
    <path clip-path="url(#pb8770cabf9)" d="M 503.389594 327.030223 
L 503.389594 312.876024 
" style="fill:none;stroke:#9469ad;stroke-opacity:0.5;stroke-width:2;"/>
    <path clip-path="url(#pb8770cabf9)" d="M 494.487704 316.404456 
L 494.487704 312.876024 
" style="fill:none;stroke:#9469ad;stroke-opacity:0.5;stroke-width:2;"/>
    <path clip-path="url(#pb8770cabf9)" d="M 506.48319 310.230449 
L 506.48319 312.876024 
" style="fill:none;stroke:#9469ad;stroke-opacity:0.5;stroke-width:2;"/>
    <path clip-path="url(#pb8770cabf9)" d="M 519.323285 306.508657 
L 519.323285 312.876024 
" style="fill:none;stroke:#9469ad;stroke-opacity:0.5;stroke-width:2;"/>
    <path clip-path="url(#pb8770cabf9)" d="M 502.780371 296.492946 
L 502.780371 312.876024 
" style="fill:none;stroke:#9469ad;stroke-opacity:0.5;stroke-width:2;"/>
    <path clip-path="url(#pb8770cabf9)" d="M 489.816755 293.304766 
L 489.816755 312.876024 
" style="fill:none;stroke:#9469ad;stroke-opacity:0.5;stroke-width:2;"/>
    <path clip-path="url(#pb8770cabf9)" d="M 503.389594 267.318178 
L 503.389594 312.876024 
" style="fill:none;stroke:#9469ad;stroke-opacity:0.5;stroke-width:2;"/>
    <path clip-path="url(#pb8770cabf9)" d="M 490.905264 262.391263 
L 490.905264 312.876024 
" style="fill:none;stroke:#9469ad;stroke-opacity:0.5;stroke-width:2;"/>
    <path clip-path="url(#pb8770cabf9)" d="M 503.389594 123.103628 
L 503.389594 312.876024 
" style="fill:none;stroke:#9469ad;stroke-opacity:0.5;stroke-width:2;"/>
   </g>
  </g>
 </g>
 <defs>
  <clipPath id="pb8770cabf9">
   <rect height="388.76" width="530.027512" x="61.7" y="12.48"/>
  </clipPath>
 </defs>
</svg>
