<?xml version="1.0" encoding="utf-8" standalone="no"?>
<!DOCTYPE svg PUBLIC "-//W3C//DTD SVG 1.1//EN"
  "http://www.w3.org/Graphics/SVG/1.1/DTD/svg11.dtd">
<!-- Created with matplotlib (http://matplotlib.org/) -->
<svg height="288pt" version="1.1" viewBox="0 0 576 288" width="576pt" xmlns="http://www.w3.org/2000/svg" xmlns:xlink="http://www.w3.org/1999/xlink">
 <defs>
  <style type="text/css">
*{stroke-linecap:butt;stroke-linejoin:round;}
  </style>
 </defs>
 <g id="figure_1">
  <g id="patch_1">
   <path d="M 0 288 
L 576 288 
L 576 0 
L 0 0 
z
" style="fill:none;"/>
  </g>
  <g id="axes_1">
   <g id="patch_2">
    <path d="M 72 252 
L 518.4 252 
L 518.4 34.56 
L 72 34.56 
z
" style="fill:none;opacity:0;"/>
   </g>
   <g id="matplotlib.axis_1">
    <g id="xtick_1">
     <g id="line2d_1">
      <defs>
       <path d="M 0 0 
L 0 3.5 
" id="m7c76c5d181" style="stroke:#d2d2d2;stroke-width:0.8;"/>
      </defs>
      <g>
       <use style="fill:#d2d2d2;stroke:#d2d2d2;stroke-width:0.8;" x="72" xlink:href="#m7c76c5d181" y="252"/>
      </g>
     </g>
     <g id="text_1">
      <!-- $\mathdefault{0.0}$ -->
      <defs>
       <path d="M 31.78125 3.421875 
Q 39.265625 3.421875 42.96875 11.625 
Q 46.6875 19.828125 46.6875 36.375 
Q 46.6875 52.984375 42.96875 61.1875 
Q 39.265625 69.390625 31.78125 69.390625 
Q 24.3125 69.390625 20.59375 61.1875 
Q 16.890625 52.984375 16.890625 36.375 
Q 16.890625 19.828125 20.59375 11.625 
Q 24.3125 3.421875 31.78125 3.421875 
z
M 31.78125 -1.421875 
Q 19.921875 -1.421875 13.25 8.53125 
Q 6.59375 18.5 6.59375 36.375 
Q 6.59375 54.296875 13.25 64.25 
Q 19.921875 74.21875 31.78125 74.21875 
Q 43.703125 74.21875 50.34375 64.25 
Q 56.984375 54.296875 56.984375 36.375 
Q 56.984375 18.5 50.34375 8.53125 
Q 43.703125 -1.421875 31.78125 -1.421875 
z
" id="DejaVuSerif-30"/>
       <path d="M 9.421875 5.078125 
Q 9.421875 7.8125 11.28125 9.71875 
Q 13.140625 11.625 15.921875 11.625 
Q 18.609375 11.625 20.5 9.71875 
Q 22.40625 7.8125 22.40625 5.078125 
Q 22.40625 2.390625 20.5 0.484375 
Q 18.609375 -1.421875 15.921875 -1.421875 
Q 13.140625 -1.421875 11.28125 0.453125 
Q 9.421875 2.34375 9.421875 5.078125 
z
" id="DejaVuSerif-2e"/>
      </defs>
      <g style="fill:#d2d2d2;" transform="translate(61.6 268.877969)scale(0.13 -0.13)">
       <use transform="translate(0 0.78125)" xlink:href="#DejaVuSerif-30"/>
       <use transform="translate(63.623047 0.78125)" xlink:href="#DejaVuSerif-2e"/>
       <use transform="translate(95.410156 0.78125)" xlink:href="#DejaVuSerif-30"/>
      </g>
     </g>
    </g>
    <g id="xtick_2">
     <g id="line2d_2">
      <g>
       <use style="fill:#d2d2d2;stroke:#d2d2d2;stroke-width:0.8;" x="146.4" xlink:href="#m7c76c5d181" y="252"/>
      </g>
     </g>
     <g id="text_2">
      <!-- $\mathdefault{0.5}$ -->
      <defs>
       <path d="M 50.296875 72.90625 
L 50.296875 64.890625 
L 16.890625 64.890625 
L 16.890625 44 
Q 19.4375 45.75 22.828125 46.625 
Q 26.21875 47.515625 30.421875 47.515625 
Q 42.234375 47.515625 49.0625 40.96875 
Q 55.90625 34.421875 55.90625 23.09375 
Q 55.90625 11.53125 49 5.046875 
Q 42.09375 -1.421875 29.59375 -1.421875 
Q 24.5625 -1.421875 19.28125 -0.1875 
Q 14.015625 1.03125 8.5 3.515625 
L 8.5 17.671875 
L 14.015625 17.671875 
Q 14.453125 10.75 18.421875 7.078125 
Q 22.40625 3.421875 29.59375 3.421875 
Q 37.3125 3.421875 41.453125 8.5 
Q 45.609375 13.578125 45.609375 23.09375 
Q 45.609375 32.5625 41.484375 37.609375 
Q 37.359375 42.671875 29.59375 42.671875 
Q 25.203125 42.671875 21.84375 41.109375 
Q 18.5 39.546875 15.921875 36.28125 
L 11.71875 36.28125 
L 11.71875 72.90625 
z
" id="DejaVuSerif-35"/>
      </defs>
      <g style="fill:#d2d2d2;" transform="translate(136 268.877969)scale(0.13 -0.13)">
       <use transform="translate(0 0.78125)" xlink:href="#DejaVuSerif-30"/>
       <use transform="translate(63.623047 0.78125)" xlink:href="#DejaVuSerif-2e"/>
       <use transform="translate(95.410156 0.78125)" xlink:href="#DejaVuSerif-35"/>
      </g>
     </g>
    </g>
    <g id="xtick_3">
     <g id="line2d_3">
      <g>
       <use style="fill:#d2d2d2;stroke:#d2d2d2;stroke-width:0.8;" x="220.8" xlink:href="#m7c76c5d181" y="252"/>
      </g>
     </g>
     <g id="text_3">
      <!-- $\mathdefault{1.0}$ -->
      <defs>
       <path d="M 14.203125 0 
L 14.203125 5.171875 
L 26.90625 5.171875 
L 26.90625 65.828125 
L 12.203125 56.296875 
L 12.203125 62.703125 
L 29.984375 74.21875 
L 36.71875 74.21875 
L 36.71875 5.171875 
L 49.421875 5.171875 
L 49.421875 0 
z
" id="DejaVuSerif-31"/>
      </defs>
      <g style="fill:#d2d2d2;" transform="translate(210.4 268.877969)scale(0.13 -0.13)">
       <use transform="translate(0 0.78125)" xlink:href="#DejaVuSerif-31"/>
       <use transform="translate(63.623047 0.78125)" xlink:href="#DejaVuSerif-2e"/>
       <use transform="translate(95.410156 0.78125)" xlink:href="#DejaVuSerif-30"/>
      </g>
     </g>
    </g>
    <g id="xtick_4">
     <g id="line2d_4">
      <g>
       <use style="fill:#d2d2d2;stroke:#d2d2d2;stroke-width:0.8;" x="295.2" xlink:href="#m7c76c5d181" y="252"/>
      </g>
     </g>
     <g id="text_4">
      <!-- $\mathdefault{1.5}$ -->
      <g style="fill:#d2d2d2;" transform="translate(284.8 268.877969)scale(0.13 -0.13)">
       <use transform="translate(0 0.78125)" xlink:href="#DejaVuSerif-31"/>
       <use transform="translate(63.623047 0.78125)" xlink:href="#DejaVuSerif-2e"/>
       <use transform="translate(95.410156 0.78125)" xlink:href="#DejaVuSerif-35"/>
      </g>
     </g>
    </g>
    <g id="xtick_5">
     <g id="line2d_5">
      <g>
       <use style="fill:#d2d2d2;stroke:#d2d2d2;stroke-width:0.8;" x="369.6" xlink:href="#m7c76c5d181" y="252"/>
      </g>
     </g>
     <g id="text_5">
      <!-- $\mathdefault{2.0}$ -->
      <defs>
       <path d="M 12.796875 55.515625 
L 7.328125 55.515625 
L 7.328125 68.5 
Q 12.546875 71.296875 17.84375 72.75 
Q 23.140625 74.21875 28.21875 74.21875 
Q 39.59375 74.21875 46.1875 68.703125 
Q 52.78125 63.1875 52.78125 53.71875 
Q 52.78125 43.015625 37.84375 28.125 
Q 36.671875 27 36.078125 26.421875 
L 17.671875 8.015625 
L 48.09375 8.015625 
L 48.09375 17 
L 53.8125 17 
L 53.8125 0 
L 6.78125 0 
L 6.78125 5.328125 
L 28.90625 27.390625 
Q 36.234375 34.71875 39.359375 40.84375 
Q 42.484375 46.96875 42.484375 53.71875 
Q 42.484375 61.078125 38.640625 65.234375 
Q 34.8125 69.390625 28.078125 69.390625 
Q 21.09375 69.390625 17.28125 65.921875 
Q 13.484375 62.453125 12.796875 55.515625 
z
" id="DejaVuSerif-32"/>
      </defs>
      <g style="fill:#d2d2d2;" transform="translate(359.2 268.877969)scale(0.13 -0.13)">
       <use transform="translate(0 0.78125)" xlink:href="#DejaVuSerif-32"/>
       <use transform="translate(63.623047 0.78125)" xlink:href="#DejaVuSerif-2e"/>
       <use transform="translate(95.410156 0.78125)" xlink:href="#DejaVuSerif-30"/>
      </g>
     </g>
    </g>
    <g id="xtick_6">
     <g id="line2d_6">
      <g>
       <use style="fill:#d2d2d2;stroke:#d2d2d2;stroke-width:0.8;" x="444" xlink:href="#m7c76c5d181" y="252"/>
      </g>
     </g>
     <g id="text_6">
      <!-- $\mathdefault{2.5}$ -->
      <g style="fill:#d2d2d2;" transform="translate(433.6 268.877969)scale(0.13 -0.13)">
       <use transform="translate(0 0.78125)" xlink:href="#DejaVuSerif-32"/>
       <use transform="translate(63.623047 0.78125)" xlink:href="#DejaVuSerif-2e"/>
       <use transform="translate(95.410156 0.78125)" xlink:href="#DejaVuSerif-35"/>
      </g>
     </g>
    </g>
    <g id="xtick_7">
     <g id="line2d_7">
      <g>
       <use style="fill:#d2d2d2;stroke:#d2d2d2;stroke-width:0.8;" x="518.4" xlink:href="#m7c76c5d181" y="252"/>
      </g>
     </g>
     <g id="text_7">
      <!-- $\mathdefault{3.0}$ -->
      <defs>
       <path d="M 9.71875 69.828125 
Q 15.4375 71.96875 20.671875 73.09375 
Q 25.921875 74.21875 30.515625 74.21875 
Q 41.21875 74.21875 47.21875 69.59375 
Q 53.21875 64.984375 53.21875 56.78125 
Q 53.21875 50.203125 49.0625 45.78125 
Q 44.921875 41.359375 37.3125 39.796875 
Q 46.296875 38.53125 51.25 33.28125 
Q 56.203125 28.03125 56.203125 19.671875 
Q 56.203125 9.46875 49.34375 4.015625 
Q 42.484375 -1.421875 29.59375 -1.421875 
Q 23.875 -1.421875 18.421875 -0.1875 
Q 12.984375 1.03125 7.625 3.515625 
L 7.625 17.671875 
L 13.09375 17.671875 
Q 13.578125 10.640625 17.828125 7.03125 
Q 22.078125 3.421875 29.78125 3.421875 
Q 37.25 3.421875 41.578125 7.734375 
Q 45.90625 12.0625 45.90625 19.578125 
Q 45.90625 28.171875 41.453125 32.59375 
Q 37.015625 37.015625 28.421875 37.015625 
L 23.78125 37.015625 
L 23.78125 42 
L 26.21875 42 
Q 34.765625 42 39.03125 45.53125 
Q 43.3125 49.078125 43.3125 56.203125 
Q 43.3125 62.59375 39.796875 65.984375 
Q 36.28125 69.390625 29.6875 69.390625 
Q 23.09375 69.390625 19.453125 66.265625 
Q 15.828125 63.140625 15.1875 56.984375 
L 9.71875 56.984375 
z
" id="DejaVuSerif-33"/>
      </defs>
      <g style="fill:#d2d2d2;" transform="translate(508 268.877969)scale(0.13 -0.13)">
       <use transform="translate(0 0.78125)" xlink:href="#DejaVuSerif-33"/>
       <use transform="translate(63.623047 0.78125)" xlink:href="#DejaVuSerif-2e"/>
       <use transform="translate(95.410156 0.78125)" xlink:href="#DejaVuSerif-30"/>
      </g>
     </g>
    </g>
    <g id="text_8">
     <!-- $\mathcal{F}$ -->
     <defs>
      <path d="M 5.90625 53.40625 
L 4.296875 55.203125 
Q 11.40625 61.796875 18.34375 64 
Q 25.296875 66.203125 33.796875 66.203125 
Q 42.40625 66.203125 48.59375 65.75 
Q 54.796875 65.296875 60.140625 64.046875 
Q 65.5 62.796875 68.25 60.4375 
Q 71 58.09375 71 54.5 
Q 71 51.09375 69.203125 48.796875 
Q 67.40625 46.5 64.203125 46.5 
Q 61.90625 46.5 60.203125 47.84375 
Q 58.5 49.203125 58.5 51.203125 
Q 58.5 53.09375 59.25 54.140625 
Q 60 55.203125 60.890625 55.453125 
Q 61.796875 55.703125 62.5 56.140625 
Q 63.203125 56.59375 63.203125 57.5 
Q 63.203125 59.5 57.75 60.84375 
Q 52.296875 62.203125 45.203125 62.203125 
Q 42.09375 62.203125 40.75 61.25 
Q 39.40625 60.296875 38.5 57.296875 
L 32.796875 37.703125 
L 54.59375 37.703125 
L 53.296875 33.703125 
L 31.703125 33.703125 
L 27.296875 18.796875 
Q 25.40625 12.296875 23.296875 8.390625 
Q 21.203125 4.5 18.34375 2.703125 
Q 15.5 0.90625 12.953125 0.453125 
Q 10.40625 0 6 0 
L 6.796875 2.40625 
Q 9.5 2.40625 11.34375 4.5 
Q 13.203125 6.59375 14.59375 11.59375 
L 26.40625 52.09375 
Q 27.40625 55.59375 27.40625 57.296875 
Q 27.40625 59 26.40625 59.796875 
Q 25.40625 60.59375 22.796875 60.59375 
Q 13.40625 60.59375 5.90625 53.40625 
z
" id="STIXNonUnicode-Italic-e232"/>
     </defs>
     <g style="fill:#d2d2d2;" transform="translate(289.26 289.25875)scale(0.18 -0.18)">
      <use transform="translate(0 0.796875)" xlink:href="#STIXNonUnicode-Italic-e232"/>
     </g>
    </g>
   </g>
   <g id="matplotlib.axis_2">
    <g id="ytick_1">
     <g id="line2d_8">
      <defs>
       <path d="M 0 0 
L -3.5 0 
" id="m706bb97d73" style="stroke:#d2d2d2;stroke-width:0.8;"/>
      </defs>
      <g>
       <use style="fill:#d2d2d2;stroke:#d2d2d2;stroke-width:0.8;" x="72" xlink:href="#m706bb97d73" y="252"/>
      </g>
     </g>
     <g id="text_9">
      <!-- $\mathdefault{0.0}$ -->
      <g style="fill:#d2d2d2;" transform="translate(49 255.799219)scale(0.1 -0.1)">
       <use transform="translate(0 0.78125)" xlink:href="#DejaVuSerif-30"/>
       <use transform="translate(63.623047 0.78125)" xlink:href="#DejaVuSerif-2e"/>
       <use transform="translate(95.410156 0.78125)" xlink:href="#DejaVuSerif-30"/>
      </g>
     </g>
    </g>
    <g id="ytick_2">
     <g id="line2d_9">
      <g>
       <use style="fill:#d2d2d2;stroke:#d2d2d2;stroke-width:0.8;" x="72" xlink:href="#m706bb97d73" y="215.76"/>
      </g>
     </g>
     <g id="text_10">
      <!-- $\mathdefault{0.5}$ -->
      <g style="fill:#d2d2d2;" transform="translate(49 219.559219)scale(0.1 -0.1)">
       <use transform="translate(0 0.78125)" xlink:href="#DejaVuSerif-30"/>
       <use transform="translate(63.623047 0.78125)" xlink:href="#DejaVuSerif-2e"/>
       <use transform="translate(95.410156 0.78125)" xlink:href="#DejaVuSerif-35"/>
      </g>
     </g>
    </g>
    <g id="ytick_3">
     <g id="line2d_10">
      <g>
       <use style="fill:#d2d2d2;stroke:#d2d2d2;stroke-width:0.8;" x="72" xlink:href="#m706bb97d73" y="179.52"/>
      </g>
     </g>
     <g id="text_11">
      <!-- $\mathdefault{1.0}$ -->
      <g style="fill:#d2d2d2;" transform="translate(49 183.319219)scale(0.1 -0.1)">
       <use transform="translate(0 0.78125)" xlink:href="#DejaVuSerif-31"/>
       <use transform="translate(63.623047 0.78125)" xlink:href="#DejaVuSerif-2e"/>
       <use transform="translate(95.410156 0.78125)" xlink:href="#DejaVuSerif-30"/>
      </g>
     </g>
    </g>
    <g id="ytick_4">
     <g id="line2d_11">
      <g>
       <use style="fill:#d2d2d2;stroke:#d2d2d2;stroke-width:0.8;" x="72" xlink:href="#m706bb97d73" y="143.28"/>
      </g>
     </g>
     <g id="text_12">
      <!-- $\mathdefault{1.5}$ -->
      <g style="fill:#d2d2d2;" transform="translate(49 147.079219)scale(0.1 -0.1)">
       <use transform="translate(0 0.78125)" xlink:href="#DejaVuSerif-31"/>
       <use transform="translate(63.623047 0.78125)" xlink:href="#DejaVuSerif-2e"/>
       <use transform="translate(95.410156 0.78125)" xlink:href="#DejaVuSerif-35"/>
      </g>
     </g>
    </g>
    <g id="ytick_5">
     <g id="line2d_12">
      <g>
       <use style="fill:#d2d2d2;stroke:#d2d2d2;stroke-width:0.8;" x="72" xlink:href="#m706bb97d73" y="107.04"/>
      </g>
     </g>
     <g id="text_13">
      <!-- $\mathdefault{2.0}$ -->
      <g style="fill:#d2d2d2;" transform="translate(49 110.839219)scale(0.1 -0.1)">
       <use transform="translate(0 0.78125)" xlink:href="#DejaVuSerif-32"/>
       <use transform="translate(63.623047 0.78125)" xlink:href="#DejaVuSerif-2e"/>
       <use transform="translate(95.410156 0.78125)" xlink:href="#DejaVuSerif-30"/>
      </g>
     </g>
    </g>
    <g id="ytick_6">
     <g id="line2d_13">
      <g>
       <use style="fill:#d2d2d2;stroke:#d2d2d2;stroke-width:0.8;" x="72" xlink:href="#m706bb97d73" y="70.8"/>
      </g>
     </g>
     <g id="text_14">
      <!-- $\mathdefault{2.5}$ -->
      <g style="fill:#d2d2d2;" transform="translate(49 74.599219)scale(0.1 -0.1)">
       <use transform="translate(0 0.78125)" xlink:href="#DejaVuSerif-32"/>
       <use transform="translate(63.623047 0.78125)" xlink:href="#DejaVuSerif-2e"/>
       <use transform="translate(95.410156 0.78125)" xlink:href="#DejaVuSerif-35"/>
      </g>
     </g>
    </g>
    <g id="ytick_7">
     <g id="line2d_14">
      <g>
       <use style="fill:#d2d2d2;stroke:#d2d2d2;stroke-width:0.8;" x="72" xlink:href="#m706bb97d73" y="34.56"/>
      </g>
     </g>
     <g id="text_15">
      <!-- $\mathdefault{3.0}$ -->
      <g style="fill:#d2d2d2;" transform="translate(49 38.359219)scale(0.1 -0.1)">
       <use transform="translate(0 0.78125)" xlink:href="#DejaVuSerif-33"/>
       <use transform="translate(63.623047 0.78125)" xlink:href="#DejaVuSerif-2e"/>
       <use transform="translate(95.410156 0.78125)" xlink:href="#DejaVuSerif-30"/>
      </g>
     </g>
    </g>
    <g id="text_16">
     <!-- Probability Density -->
     <defs>
      <path d="M 24.703125 37.109375 
L 37.59375 37.109375 
Q 44.875 37.109375 48.671875 41.03125 
Q 52.484375 44.96875 52.484375 52.390625 
Q 52.484375 59.859375 48.671875 63.765625 
Q 44.875 67.671875 37.59375 67.671875 
L 24.703125 67.671875 
z
M 5.515625 0 
L 5.515625 5.171875 
L 14.796875 5.171875 
L 14.796875 67.671875 
L 5.515625 67.671875 
L 5.515625 72.90625 
L 39.984375 72.90625 
Q 50.921875 72.90625 57.3125 67.359375 
Q 63.71875 61.8125 63.71875 52.390625 
Q 63.71875 43.015625 57.3125 37.453125 
Q 50.921875 31.890625 39.984375 31.890625 
L 24.703125 31.890625 
L 24.703125 5.171875 
L 35.984375 5.171875 
L 35.984375 0 
z
" id="DejaVuSerif-50"/>
      <path d="M 47.796875 52 
L 47.796875 39.015625 
L 42.625 39.015625 
Q 42.390625 42.875 40.484375 44.78125 
Q 38.578125 46.6875 34.90625 46.6875 
Q 28.265625 46.6875 24.71875 42.09375 
Q 21.1875 37.5 21.1875 28.90625 
L 21.1875 5.171875 
L 31.59375 5.171875 
L 31.59375 0 
L 4.109375 0 
L 4.109375 5.171875 
L 12.203125 5.171875 
L 12.203125 46.78125 
L 3.609375 46.78125 
L 3.609375 51.90625 
L 21.1875 51.90625 
L 21.1875 42.671875 
Q 23.828125 48.09375 27.96875 50.703125 
Q 32.125 53.328125 38.09375 53.328125 
Q 40.28125 53.328125 42.703125 52.984375 
Q 45.125 52.640625 47.796875 52 
z
" id="DejaVuSerif-72"/>
      <path d="M 30.078125 3.421875 
Q 37.3125 3.421875 40.984375 9.125 
Q 44.671875 14.84375 44.671875 25.984375 
Q 44.671875 37.109375 40.984375 42.796875 
Q 37.3125 48.484375 30.078125 48.484375 
Q 22.859375 48.484375 19.171875 42.796875 
Q 15.484375 37.109375 15.484375 25.984375 
Q 15.484375 14.84375 19.1875 9.125 
Q 22.90625 3.421875 30.078125 3.421875 
z
M 30.078125 -1.421875 
Q 18.75 -1.421875 11.859375 6.078125 
Q 4.984375 13.578125 4.984375 25.984375 
Q 4.984375 38.375 11.84375 45.84375 
Q 18.703125 53.328125 30.078125 53.328125 
Q 41.453125 53.328125 48.3125 45.84375 
Q 55.171875 38.375 55.171875 25.984375 
Q 55.171875 13.578125 48.3125 6.078125 
Q 41.453125 -1.421875 30.078125 -1.421875 
z
" id="DejaVuSerif-6f"/>
      <path d="M 11.53125 5.171875 
L 11.53125 70.796875 
L 2.875 70.796875 
L 2.875 75.984375 
L 20.515625 75.984375 
L 20.515625 43.796875 
Q 23.140625 48.6875 27.21875 51 
Q 31.296875 53.328125 37.3125 53.328125 
Q 46.875 53.328125 52.921875 45.75 
Q 58.984375 38.1875 58.984375 25.984375 
Q 58.984375 13.765625 52.921875 6.171875 
Q 46.875 -1.421875 37.3125 -1.421875 
Q 31.296875 -1.421875 27.21875 0.890625 
Q 23.140625 3.21875 20.515625 8.109375 
L 20.515625 0 
L 2.875 0 
L 2.875 5.171875 
z
M 20.515625 23.390625 
Q 20.515625 14.015625 24.09375 9.109375 
Q 27.6875 4.203125 34.515625 4.203125 
Q 41.40625 4.203125 44.9375 9.71875 
Q 48.484375 15.234375 48.484375 25.984375 
Q 48.484375 36.765625 44.9375 42.234375 
Q 41.40625 47.703125 34.515625 47.703125 
Q 27.6875 47.703125 24.09375 42.765625 
Q 20.515625 37.84375 20.515625 28.515625 
z
" id="DejaVuSerif-62"/>
      <path d="M 39.796875 16.3125 
L 39.796875 27.296875 
L 28.21875 27.296875 
Q 21.53125 27.296875 18.25 24.40625 
Q 14.984375 21.53125 14.984375 15.578125 
Q 14.984375 10.15625 18.296875 6.984375 
Q 21.625 3.8125 27.296875 3.8125 
Q 32.90625 3.8125 36.34375 7.28125 
Q 39.796875 10.75 39.796875 16.3125 
z
M 48.78125 32.421875 
L 48.78125 5.171875 
L 56.78125 5.171875 
L 56.78125 0 
L 39.796875 0 
L 39.796875 5.609375 
Q 36.8125 2 32.90625 0.28125 
Q 29 -1.421875 23.78125 -1.421875 
Q 15.140625 -1.421875 10.0625 3.171875 
Q 4.984375 7.765625 4.984375 15.578125 
Q 4.984375 23.640625 10.796875 28.078125 
Q 16.609375 32.515625 27.203125 32.515625 
L 39.796875 32.515625 
L 39.796875 36.078125 
Q 39.796875 42 36.203125 45.234375 
Q 32.625 48.484375 26.125 48.484375 
Q 20.75 48.484375 17.578125 46.046875 
Q 14.40625 43.609375 13.625 38.8125 
L 8.984375 38.8125 
L 8.984375 49.3125 
Q 13.671875 51.3125 18.09375 52.3125 
Q 22.515625 53.328125 26.703125 53.328125 
Q 37.5 53.328125 43.140625 47.96875 
Q 48.78125 42.625 48.78125 32.421875 
z
" id="DejaVuSerif-61"/>
      <path d="M 9.71875 68.015625 
Q 9.71875 70.265625 11.34375 71.921875 
Q 12.984375 73.578125 15.28125 73.578125 
Q 17.53125 73.578125 19.15625 71.921875 
Q 20.796875 70.265625 20.796875 68.015625 
Q 20.796875 65.71875 19.1875 64.109375 
Q 17.578125 62.5 15.28125 62.5 
Q 12.984375 62.5 11.34375 64.109375 
Q 9.71875 65.71875 9.71875 68.015625 
z
M 21.1875 5.171875 
L 29.6875 5.171875 
L 29.6875 0 
L 3.609375 0 
L 3.609375 5.171875 
L 12.203125 5.171875 
L 12.203125 46.6875 
L 3.609375 46.6875 
L 3.609375 51.90625 
L 21.1875 51.90625 
z
" id="DejaVuSerif-69"/>
      <path d="M 20.515625 5.171875 
L 29 5.171875 
L 29 0 
L 2.875 0 
L 2.875 5.171875 
L 11.53125 5.171875 
L 11.53125 70.796875 
L 2.875 70.796875 
L 2.875 75.984375 
L 20.515625 75.984375 
z
" id="DejaVuSerif-6c"/>
      <path d="M 10.796875 46.6875 
L 2.875 46.6875 
L 2.875 51.90625 
L 10.796875 51.90625 
L 10.796875 68.015625 
L 19.828125 68.015625 
L 19.828125 51.90625 
L 36.71875 51.90625 
L 36.71875 46.6875 
L 19.828125 46.6875 
L 19.828125 13.71875 
Q 19.828125 7.125 21.09375 5.265625 
Q 22.359375 3.421875 25.78125 3.421875 
Q 29.296875 3.421875 30.90625 5.484375 
Q 32.515625 7.5625 32.625 12.203125 
L 39.40625 12.203125 
Q 39.015625 5.125 35.546875 1.84375 
Q 32.078125 -1.421875 25 -1.421875 
Q 17.234375 -1.421875 14.015625 2.015625 
Q 10.796875 5.46875 10.796875 13.71875 
z
" id="DejaVuSerif-74"/>
      <path d="M 21.578125 -9.515625 
L 25 -0.875 
L 5.609375 46.6875 
L -0.296875 46.6875 
L -0.296875 51.90625 
L 23.578125 51.90625 
L 23.578125 46.6875 
L 15.28125 46.6875 
L 29.890625 10.984375 
L 44.484375 46.6875 
L 36.71875 46.6875 
L 36.71875 51.90625 
L 56.203125 51.90625 
L 56.203125 46.6875 
L 50.390625 46.6875 
L 26.609375 -11.71875 
Q 24.171875 -17.78125 21.1875 -20 
Q 18.21875 -22.21875 12.796875 -22.21875 
Q 10.5 -22.21875 8.078125 -21.828125 
Q 5.671875 -21.4375 3.21875 -20.703125 
L 3.21875 -10.796875 
L 7.8125 -10.796875 
Q 8.109375 -14.109375 9.5 -15.546875 
Q 10.890625 -17 13.8125 -17 
Q 16.5 -17 18.140625 -15.5 
Q 19.78125 -14.015625 21.578125 -9.515625 
z
" id="DejaVuSerif-79"/>
      <path id="DejaVuSerif-20"/>
      <path d="M 24.703125 5.171875 
L 33.796875 5.171875 
Q 48 5.171875 55.59375 13.28125 
Q 63.1875 21.390625 63.1875 36.53125 
Q 63.1875 51.65625 55.609375 59.65625 
Q 48.046875 67.671875 33.796875 67.671875 
L 24.703125 67.671875 
z
M 5.515625 0 
L 5.515625 5.171875 
L 14.796875 5.171875 
L 14.796875 67.671875 
L 5.515625 67.671875 
L 5.515625 72.90625 
L 34.515625 72.90625 
Q 53.375 72.90625 63.890625 63.28125 
Q 74.421875 53.65625 74.421875 36.53125 
Q 74.421875 19.34375 63.875 9.671875 
Q 53.328125 0 34.515625 0 
z
" id="DejaVuSerif-44"/>
      <path d="M 54.203125 25 
L 15.484375 25 
L 15.484375 24.609375 
Q 15.484375 14.109375 19.4375 8.765625 
Q 23.390625 3.421875 31.109375 3.421875 
Q 37.015625 3.421875 40.796875 6.515625 
Q 44.578125 9.625 46.09375 15.71875 
L 53.328125 15.71875 
Q 51.171875 7.171875 45.375 2.875 
Q 39.59375 -1.421875 30.171875 -1.421875 
Q 18.796875 -1.421875 11.890625 6.078125 
Q 4.984375 13.578125 4.984375 25.984375 
Q 4.984375 38.28125 11.765625 45.796875 
Q 18.5625 53.328125 29.59375 53.328125 
Q 41.359375 53.328125 47.65625 46.0625 
Q 53.953125 38.8125 54.203125 25 
z
M 43.609375 30.171875 
Q 43.3125 39.265625 39.765625 43.875 
Q 36.234375 48.484375 29.59375 48.484375 
Q 23.390625 48.484375 19.828125 43.84375 
Q 16.265625 39.203125 15.484375 30.171875 
z
" id="DejaVuSerif-65"/>
      <path d="M 4.109375 0 
L 4.109375 5.171875 
L 12.203125 5.171875 
L 12.203125 46.6875 
L 3.609375 46.6875 
L 3.609375 51.90625 
L 21.1875 51.90625 
L 21.1875 42.671875 
Q 23.6875 47.953125 27.65625 50.640625 
Q 31.640625 53.328125 36.921875 53.328125 
Q 45.515625 53.328125 49.5625 48.390625 
Q 53.609375 43.453125 53.609375 33.015625 
L 53.609375 5.171875 
L 61.625 5.171875 
L 61.625 0 
L 36.8125 0 
L 36.8125 5.171875 
L 44.578125 5.171875 
L 44.578125 30.171875 
Q 44.578125 39.703125 42.234375 43.234375 
Q 39.890625 46.78125 33.984375 46.78125 
Q 27.734375 46.78125 24.453125 42.203125 
Q 21.1875 37.640625 21.1875 28.90625 
L 21.1875 5.171875 
L 29 5.171875 
L 29 0 
z
" id="DejaVuSerif-6e"/>
      <path d="M 5.609375 2.875 
L 5.609375 14.984375 
L 10.796875 14.984375 
Q 10.984375 9.1875 14.421875 6.296875 
Q 17.875 3.421875 24.609375 3.421875 
Q 30.671875 3.421875 33.84375 5.6875 
Q 37.015625 7.953125 37.015625 12.3125 
Q 37.015625 15.71875 34.6875 17.8125 
Q 32.375 19.921875 24.90625 22.3125 
L 18.40625 24.515625 
Q 11.71875 26.65625 8.71875 29.875 
Q 5.71875 33.109375 5.71875 38.09375 
Q 5.71875 45.21875 10.9375 49.265625 
Q 16.15625 53.328125 25.390625 53.328125 
Q 29.5 53.328125 34.03125 52.25 
Q 38.578125 51.171875 43.40625 49.125 
L 43.40625 37.796875 
L 38.234375 37.796875 
Q 38.03125 42.828125 34.703125 45.65625 
Q 31.390625 48.484375 25.6875 48.484375 
Q 20.015625 48.484375 17.109375 46.484375 
Q 14.203125 44.484375 14.203125 40.484375 
Q 14.203125 37.203125 16.40625 35.21875 
Q 18.609375 33.25 25.203125 31.203125 
L 32.328125 29 
Q 39.703125 26.703125 42.9375 23.265625 
Q 46.1875 19.828125 46.1875 14.40625 
Q 46.1875 7.03125 40.546875 2.796875 
Q 34.90625 -1.421875 25 -1.421875 
Q 19.96875 -1.421875 15.1875 -0.34375 
Q 10.40625 0.734375 5.609375 2.875 
z
" id="DejaVuSerif-73"/>
     </defs>
     <g style="fill:#d2d2d2;" transform="translate(41.000625 230.679844)rotate(-90)scale(0.18 -0.18)">
      <use xlink:href="#DejaVuSerif-50"/>
      <use x="67.285156" xlink:href="#DejaVuSerif-72"/>
      <use x="115.087891" xlink:href="#DejaVuSerif-6f"/>
      <use x="175.292969" xlink:href="#DejaVuSerif-62"/>
      <use x="239.306641" xlink:href="#DejaVuSerif-61"/>
      <use x="298.925781" xlink:href="#DejaVuSerif-62"/>
      <use x="362.939453" xlink:href="#DejaVuSerif-69"/>
      <use x="394.921875" xlink:href="#DejaVuSerif-6c"/>
      <use x="426.904297" xlink:href="#DejaVuSerif-69"/>
      <use x="458.886719" xlink:href="#DejaVuSerif-74"/>
      <use x="499.072266" xlink:href="#DejaVuSerif-79"/>
      <use x="555.566406" xlink:href="#DejaVuSerif-20"/>
      <use x="587.353516" xlink:href="#DejaVuSerif-44"/>
      <use x="667.529297" xlink:href="#DejaVuSerif-65"/>
      <use x="726.708984" xlink:href="#DejaVuSerif-6e"/>
      <use x="791.113281" xlink:href="#DejaVuSerif-73"/>
      <use x="842.431641" xlink:href="#DejaVuSerif-69"/>
      <use x="874.414062" xlink:href="#DejaVuSerif-74"/>
      <use x="914.599609" xlink:href="#DejaVuSerif-79"/>
     </g>
    </g>
   </g>
   <g id="line2d_15">
    <path clip-path="url(#p7b28d97b94)" d="M 73.487225 -1 
L 73.505832 24.95675 
L 74.996784 92.638872 
L 76.487736 123.041009 
L 77.978689 141.348175 
L 79.469641 153.949855 
L 80.960593 163.324059 
L 82.451545 170.661004 
L 83.942497 176.613353 
L 85.433449 181.573106 
L 86.924401 185.791944 
L 88.415354 189.439936 
L 89.906306 192.636748 
L 91.397258 195.469396 
L 92.88821 198.002901 
L 94.379162 200.28698 
L 97.361066 204.253903 
L 100.342971 207.59559 
L 103.324875 210.461162 
L 106.306779 212.953842 
L 109.288684 215.147732 
L 112.270588 217.097644 
L 115.252492 218.84514 
L 119.725349 221.155369 
L 124.198205 223.162823 
L 128.671061 224.926689 
L 133.143918 226.491038 
L 139.107726 228.323459 
L 145.071535 229.920105 
L 152.526296 231.650676 
L 159.981057 233.144799 
L 168.926769 234.689948 
L 177.872482 236.019177 
L 188.309147 237.353257 
L 200.236764 238.651606 
L 213.655334 239.886298 
L 228.564855 241.040102 
L 246.456281 242.191955 
L 267.329611 243.293039 
L 291.184845 244.313343 
L 318.021984 245.237856 
L 350.822931 246.135277 
L 389.587687 246.961587 
L 435.807203 247.716958 
L 492.463385 248.412471 
L 562.538135 249.04263 
L 577 249.149748 
L 577 249.149748 
" style="fill:none;stroke:#88c9c1;stroke-linecap:square;stroke-width:3;"/>
   </g>
   <g id="line2d_16">
    <path clip-path="url(#p7b28d97b94)" d="M 72.01488 179.541739 
L 74.996784 183.688596 
L 77.978689 187.454464 
L 80.960593 190.886607 
L 83.942497 194.02501 
L 86.924401 196.903702 
L 89.906306 199.551807 
L 94.379162 203.145474 
L 98.852019 206.346713 
L 103.324875 209.213002 
L 107.797731 211.791432 
L 112.270588 214.120911 
L 116.743444 216.233836 
L 122.707253 218.760548 
L 128.671061 221.003164 
L 134.63487 223.004477 
L 140.598679 224.799333 
L 148.053439 226.795713 
L 155.5082 228.559301 
L 164.453913 230.418929 
L 173.399626 232.045049 
L 183.836291 233.698735 
L 194.272956 235.135999 
L 206.200573 236.561527 
L 219.619142 237.939785 
L 234.528664 239.24586 
L 250.929137 240.464143 
L 270.311515 241.671854 
L 292.675797 242.823497 
L 318.021984 243.890499 
L 346.350075 244.858226 
L 380.641974 245.795482 
L 420.897682 246.65917 
L 468.60815 247.449753 
L 526.755284 248.178773 
L 577 248.664884 
L 577 248.664884 
" style="fill:none;stroke:#f79a52;stroke-linecap:square;stroke-width:3;"/>
   </g>
   <g id="line2d_17">
    <path clip-path="url(#p7b28d97b94)" d="M 72.01488 252 
L 76.487736 251.92746 
L 79.469641 251.578482 
L 80.960593 251.237605 
L 82.451545 250.764586 
L 83.942497 250.15186 
L 85.433449 249.397807 
L 86.924401 248.505777 
L 89.906306 246.339855 
L 92.88821 243.742474 
L 95.870114 240.823756 
L 100.342971 236.089662 
L 109.288684 226.515375 
L 113.76154 222.133995 
L 116.743444 219.459041 
L 119.725349 217.006157 
L 122.707253 214.786502 
L 125.689157 212.80394 
L 128.671061 211.056677 
L 131.652966 209.538651 
L 134.63487 208.240701 
L 137.616774 207.15151 
L 140.598679 206.258369 
L 143.580583 205.547772 
L 146.562487 205.005881 
L 151.035344 204.479212 
L 155.5082 204.255847 
L 159.981057 204.293199 
L 164.453913 204.552095 
L 168.926769 204.997108 
L 174.890578 205.825858 
L 180.854387 206.864868 
L 188.309147 208.377768 
L 198.745812 210.748396 
L 221.110094 216.162439 
L 237.510568 220.013155 
L 250.929137 222.951446 
L 264.347707 225.659036 
L 277.766276 228.126467 
L 291.184845 230.358933 
L 304.603415 232.369601 
L 319.512936 234.36432 
L 334.422457 236.131531 
L 350.822931 237.842515 
L 368.714357 239.466138 
L 388.096735 240.979829 
L 408.970065 242.369275 
L 431.334347 243.6275 
L 456.680533 244.817542 
L 485.008624 245.909173 
L 516.318619 246.885207 
L 552.10147 247.772334 
L 577 248.277207 
L 577 248.277207 
" style="fill:none;stroke:#73b55b;stroke-linecap:square;stroke-width:3;"/>
   </g>
   <g id="line2d_18">
    <path clip-path="url(#p7b28d97b94)" d="M 72.01488 252 
L 74.996784 251.979604 
L 76.487736 251.809895 
L 77.978689 251.270368 
L 79.469641 250.209814 
L 80.960593 248.614587 
L 82.451545 246.574643 
L 85.433449 241.706697 
L 89.906306 234.194419 
L 92.88821 229.847826 
L 94.379162 227.956453 
L 95.870114 226.260041 
L 97.361066 224.754787 
L 98.852019 223.432539 
L 100.342971 222.282491 
L 101.833923 221.292397 
L 103.324875 220.449426 
L 106.306779 219.153847 
L 109.288684 218.298793 
L 112.270588 217.798679 
L 115.252492 217.581004 
L 118.234396 217.5858 
L 122.707253 217.905812 
L 127.180109 218.491568 
L 133.143918 219.532299 
L 142.089631 221.374784 
L 165.944865 226.429112 
L 177.872482 228.67951 
L 189.800099 230.688629 
L 201.727717 232.467576 
L 215.146286 234.222117 
L 228.564855 235.749776 
L 243.474377 237.221706 
L 259.87485 238.612368 
L 277.766276 239.905883 
L 298.639606 241.177916 
L 321.003888 242.316292 
L 346.350075 243.387441 
L 376.169117 244.41884 
L 410.461017 245.37494 
L 450.716725 246.266514 
L 498.427193 247.091331 
L 555.083375 247.842061 
L 577 248.082779 
L 577 248.082779 
" style="fill:none;stroke:#e04b4b;stroke-linecap:square;stroke-width:3;"/>
   </g>
   <g id="line2d_19">
    <path clip-path="url(#p7b28d97b94)" d="M 72.01488 252 
L 112.270588 251.921884 
L 116.743444 251.748302 
L 121.216301 251.333664 
L 124.198205 250.833843 
L 127.180109 250.07926 
L 130.162014 249.000139 
L 133.143918 247.528972 
L 136.125822 245.606747 
L 139.107726 243.188723 
L 142.089631 240.249056 
L 145.071535 236.783791 
L 148.053439 232.812009 
L 151.035344 228.37516 
L 154.017248 223.53481 
L 158.490104 215.692313 
L 165.944865 201.860315 
L 171.908674 191.007528 
L 174.890578 185.908805 
L 177.872482 181.134313 
L 180.854387 176.74885 
L 183.836291 172.804414 
L 186.818195 169.33998 
L 189.800099 166.381805 
L 192.782004 163.94414 
L 195.763908 162.030266 
L 197.25486 161.268079 
L 198.745812 160.633733 
L 200.236764 160.125126 
L 201.727717 159.739717 
L 203.218669 159.474577 
L 204.709621 159.326425 
L 207.691525 159.36648 
L 210.673429 159.828252 
L 213.655334 160.677077 
L 216.637238 161.876369 
L 219.619142 163.388595 
L 222.601047 165.176107 
L 225.582951 167.20185 
L 230.055807 170.609056 
L 234.528664 174.357893 
L 240.492472 179.710456 
L 253.911042 192.267763 
L 261.365802 199.065118 
L 267.329611 204.240863 
L 273.293419 209.11757 
L 279.257228 213.658562 
L 285.221037 217.845226 
L 289.693893 220.749489 
L 294.166749 223.453672 
L 300.130558 226.756286 
L 306.094367 229.727737 
L 312.058175 232.388179 
L 318.021984 234.760131 
L 323.985792 236.867179 
L 329.949601 238.733026 
L 335.91341 240.3808 
L 341.877218 241.83259 
L 349.331979 243.403183 
L 356.78674 244.73701 
L 364.2415 245.867331 
L 373.187213 246.996214 
L 383.623878 248.054227 
L 394.060543 248.887963 
L 405.98816 249.625749 
L 420.897682 250.304301 
L 437.298155 250.825638 
L 458.171485 251.260256 
L 485.008624 251.587437 
L 523.77338 251.818408 
L 577 251.938341 
L 577 251.938341 
" style="fill:none;stroke:#9469ad;stroke-linecap:square;stroke-width:3;"/>
   </g>
   <g id="line2d_20">
    <path clip-path="url(#p7b28d97b94)" d="M 72.01488 252 
L 121.216301 251.927422 
L 125.689157 251.75015 
L 128.671061 251.493479 
L 131.652966 251.051622 
L 134.63487 250.343427 
L 137.616774 249.277467 
L 139.107726 248.580787 
L 140.598679 247.759688 
L 142.089631 246.803527 
L 143.580583 245.702681 
L 145.071535 244.448828 
L 146.562487 243.035194 
L 148.053439 241.456773 
L 151.035344 237.795356 
L 154.017248 233.465156 
L 156.999152 228.500921 
L 159.981057 222.970094 
L 162.962961 216.968704 
L 167.435817 207.348063 
L 177.872482 184.431297 
L 180.854387 178.374875 
L 183.836291 172.752188 
L 186.818195 167.65336 
L 189.800099 163.148709 
L 192.782004 159.288449 
L 194.272956 157.610302 
L 195.763908 156.103331 
L 197.25486 154.768565 
L 198.745812 153.606015 
L 200.236764 152.614747 
L 201.727717 151.792949 
L 203.218669 151.138007 
L 204.709621 150.646579 
L 206.200573 150.314671 
L 207.691525 150.137711 
L 209.182477 150.110622 
L 210.673429 150.227891 
L 212.164382 150.483642 
L 213.655334 150.871695 
L 215.146286 151.385632 
L 218.12819 152.764633 
L 221.110094 154.56661 
L 224.091999 156.73699 
L 227.073903 159.221937 
L 230.055807 161.969382 
L 234.528664 166.475284 
L 239.00152 171.307777 
L 246.456281 179.730325 
L 256.892946 191.499724 
L 262.856754 197.895105 
L 268.820563 203.911966 
L 273.293419 208.137211 
L 277.766276 212.09892 
L 282.239132 215.79041 
L 286.711989 219.211379 
L 291.184845 222.366481 
L 295.657702 225.264106 
L 300.130558 227.915354 
L 304.603415 230.333176 
L 309.076271 232.531686 
L 313.549127 234.5256 
L 318.021984 236.329808 
L 323.985792 238.465724 
L 329.949601 240.324222 
L 335.91341 241.937028 
L 341.877218 243.333476 
L 349.331979 244.815275 
L 356.78674 246.047069 
L 364.2415 247.069118 
L 373.187213 248.066929 
L 383.623878 248.977775 
L 395.551495 249.761172 
L 408.970065 250.399432 
L 425.370538 250.934074 
L 444.752916 251.336579 
L 471.590055 251.65151 
L 510.35481 251.858489 
L 577 251.967355 
L 577 251.967355 
" style="fill:none;stroke:#a6a6a6;stroke-linecap:square;stroke-width:3;"/>
   </g>
   <g id="line2d_21">
    <path clip-path="url(#p7b28d97b94)" d="M 72.01488 252 
L 148.053439 251.92045 
L 152.526296 251.731428 
L 155.5082 251.443054 
L 158.490104 250.912212 
L 159.981057 250.511575 
L 161.472009 249.990576 
L 162.962961 249.322204 
L 164.453913 248.476009 
L 165.944865 247.418327 
L 167.435817 246.112681 
L 168.926769 244.520386 
L 170.417722 242.601347 
L 171.908674 240.315062 
L 173.399626 237.621807 
L 174.890578 234.483959 
L 176.38153 230.867446 
L 177.872482 226.74325 
L 179.363434 222.08891 
L 180.854387 216.889974 
L 182.345339 211.141319 
L 183.836291 204.848283 
L 186.818195 190.707729 
L 189.800099 174.746008 
L 192.782004 157.43058 
L 200.236764 112.679808 
L 203.218669 96.292487 
L 204.709621 88.827283 
L 206.200573 81.969471 
L 207.691525 75.799947 
L 209.182477 70.389318 
L 210.673429 65.796608 
L 212.164382 62.068287 
L 213.655334 59.237635 
L 215.146286 57.324446 
L 216.637238 56.335065 
L 218.12819 56.262739 
L 219.619142 57.088251 
L 221.110094 58.780814 
L 222.601047 61.299163 
L 224.091999 64.592826 
L 225.582951 68.603516 
L 227.073903 73.266589 
L 228.564855 78.512552 
L 231.546759 90.459802 
L 234.528664 103.847533 
L 239.00152 125.357029 
L 244.965329 154.039004 
L 247.947233 167.485506 
L 250.929137 179.969262 
L 253.911042 191.3249 
L 256.892946 201.464488 
L 259.87485 210.365359 
L 262.856754 218.056637 
L 265.838659 224.605796 
L 267.329611 227.480561 
L 268.820563 230.106225 
L 270.311515 232.496739 
L 271.802467 234.666428 
L 273.293419 236.629764 
L 274.784372 238.401169 
L 276.275324 239.994843 
L 279.257228 242.703903 
L 282.239132 244.86154 
L 285.221037 246.562493 
L 288.202941 247.89038 
L 291.184845 248.917378 
L 294.166749 249.704583 
L 297.148654 250.302823 
L 301.62151 250.934705 
L 306.094367 251.341096 
L 312.058175 251.660225 
L 321.003888 251.879542 
L 337.404362 251.984074 
L 404.497208 251.999999 
L 577 252 
L 577 252 
" style="fill:none;stroke:#f5d76e;stroke-linecap:square;stroke-width:3;"/>
   </g>
   <g id="patch_3">
    <path d="M 72 252 
L 72 34.56 
" style="fill:none;stroke:#d2d2d2;stroke-linecap:square;stroke-linejoin:miter;stroke-width:1.5;"/>
   </g>
   <g id="patch_4">
    <path d="M 72 252 
L 518.4 252 
" style="fill:none;stroke:#d2d2d2;stroke-linecap:square;stroke-linejoin:miter;stroke-width:1.5;"/>
   </g>
  </g>
  <g id="legend_1">
   <g id="patch_5">
    <path d="M 379.5 145.306875 
L 511.4 145.306875 
Q 513.4 145.306875 513.4 143.306875 
L 513.4 41.56 
Q 513.4 39.56 511.4 39.56 
L 379.5 39.56 
Q 377.5 39.56 377.5 41.56 
L 377.5 143.306875 
Q 377.5 145.306875 379.5 145.306875 
z
" style="fill:#ffffff;opacity:0.8;stroke:#cccccc;stroke-linejoin:miter;"/>
   </g>
   <g id="line2d_22">
    <path d="M 381.5 47.658437 
L 401.5 47.658437 
" style="fill:none;stroke:#88c9c1;stroke-linecap:square;stroke-width:3;"/>
   </g>
   <g id="line2d_23"/>
   <g id="text_17">
    <!-- dof1=1, dof2=1 -->
    <defs>
     <path d="M 52.484375 5.171875 
L 61.078125 5.171875 
L 61.078125 0 
L 43.5 0 
L 43.5 8.109375 
Q 40.875 3.21875 36.796875 0.890625 
Q 32.71875 -1.421875 26.703125 -1.421875 
Q 17.140625 -1.421875 11.0625 6.171875 
Q 4.984375 13.765625 4.984375 25.984375 
Q 4.984375 38.1875 11.03125 45.75 
Q 17.09375 53.328125 26.703125 53.328125 
Q 32.71875 53.328125 36.796875 51 
Q 40.875 48.6875 43.5 43.796875 
L 43.5 70.796875 
L 35.015625 70.796875 
L 35.015625 75.984375 
L 52.484375 75.984375 
z
M 43.5 23.390625 
L 43.5 28.515625 
Q 43.5 37.84375 39.90625 42.765625 
Q 36.328125 47.703125 29.5 47.703125 
Q 22.5625 47.703125 19.015625 42.234375 
Q 15.484375 36.765625 15.484375 25.984375 
Q 15.484375 15.234375 19.015625 9.71875 
Q 22.5625 4.203125 29.5 4.203125 
Q 36.328125 4.203125 39.90625 9.109375 
Q 43.5 14.015625 43.5 23.390625 
z
" id="DejaVuSerif-64"/>
     <path d="M 43.015625 63.71875 
L 38.28125 63.71875 
Q 38.234375 67.390625 36.203125 69.28125 
Q 34.1875 71.1875 30.328125 71.1875 
Q 25.296875 71.1875 23.234375 68.421875 
Q 21.1875 65.671875 21.1875 58.59375 
L 21.1875 51.90625 
L 35.6875 51.90625 
L 35.6875 46.6875 
L 21.1875 46.6875 
L 21.1875 5.171875 
L 32.71875 5.171875 
L 32.71875 0 
L 3.609375 0 
L 3.609375 5.171875 
L 12.203125 5.171875 
L 12.203125 46.6875 
L 3.609375 46.6875 
L 3.609375 51.90625 
L 12.203125 51.90625 
L 12.203125 58.40625 
Q 12.203125 67.09375 16.71875 71.53125 
Q 21.234375 75.984375 29.984375 75.984375 
Q 33.25 75.984375 36.515625 75.390625 
Q 39.796875 74.8125 43.015625 73.578125 
z
" id="DejaVuSerif-66"/>
     <path d="M 10.59375 45.21875 
L 73.1875 45.21875 
L 73.1875 37.40625 
L 10.59375 37.40625 
z
M 10.59375 25.296875 
L 73.1875 25.296875 
L 73.1875 17.484375 
L 10.59375 17.484375 
z
" id="DejaVuSerif-3d"/>
     <path d="M 3.609375 -9.71875 
Q 8.203125 -6.34375 10.34375 -1.78125 
Q 12.5 2.78125 12.5 9.28125 
L 12.5 11.078125 
L 22.125 11.078125 
Q 21.734375 2.734375 18.1875 -3.25 
Q 14.65625 -9.234375 7.515625 -13.625 
z
" id="DejaVuSerif-2c"/>
    </defs>
    <g style="fill:#202020;" transform="translate(409.5 51.158437)scale(0.1 -0.1)">
     <use xlink:href="#DejaVuSerif-64"/>
     <use x="64.013672" xlink:href="#DejaVuSerif-6f"/>
     <use x="124.21875" xlink:href="#DejaVuSerif-66"/>
     <use x="161.230469" xlink:href="#DejaVuSerif-31"/>
     <use x="224.853516" xlink:href="#DejaVuSerif-3d"/>
     <use x="308.642578" xlink:href="#DejaVuSerif-31"/>
     <use x="372.265625" xlink:href="#DejaVuSerif-2c"/>
     <use x="404.052734" xlink:href="#DejaVuSerif-20"/>
     <use x="435.839844" xlink:href="#DejaVuSerif-64"/>
     <use x="499.853516" xlink:href="#DejaVuSerif-6f"/>
     <use x="560.058594" xlink:href="#DejaVuSerif-66"/>
     <use x="597.070312" xlink:href="#DejaVuSerif-32"/>
     <use x="660.693359" xlink:href="#DejaVuSerif-3d"/>
     <use x="744.482422" xlink:href="#DejaVuSerif-31"/>
    </g>
   </g>
   <g id="line2d_24">
    <path d="M 381.5 62.336563 
L 401.5 62.336563 
" style="fill:none;stroke:#f79a52;stroke-linecap:square;stroke-width:3;"/>
   </g>
   <g id="line2d_25"/>
   <g id="text_18">
    <!-- dof1=2, dof2=1 -->
    <g style="fill:#202020;" transform="translate(409.5 65.836563)scale(0.1 -0.1)">
     <use xlink:href="#DejaVuSerif-64"/>
     <use x="64.013672" xlink:href="#DejaVuSerif-6f"/>
     <use x="124.21875" xlink:href="#DejaVuSerif-66"/>
     <use x="161.230469" xlink:href="#DejaVuSerif-31"/>
     <use x="224.853516" xlink:href="#DejaVuSerif-3d"/>
     <use x="308.642578" xlink:href="#DejaVuSerif-32"/>
     <use x="372.265625" xlink:href="#DejaVuSerif-2c"/>
     <use x="404.052734" xlink:href="#DejaVuSerif-20"/>
     <use x="435.839844" xlink:href="#DejaVuSerif-64"/>
     <use x="499.853516" xlink:href="#DejaVuSerif-6f"/>
     <use x="560.058594" xlink:href="#DejaVuSerif-66"/>
     <use x="597.070312" xlink:href="#DejaVuSerif-32"/>
     <use x="660.693359" xlink:href="#DejaVuSerif-3d"/>
     <use x="744.482422" xlink:href="#DejaVuSerif-31"/>
    </g>
   </g>
   <g id="line2d_26">
    <path d="M 381.5 77.014687 
L 401.5 77.014687 
" style="fill:none;stroke:#73b55b;stroke-linecap:square;stroke-width:3;"/>
   </g>
   <g id="line2d_27"/>
   <g id="text_19">
    <!-- dof1=10, dof2=5 -->
    <g style="fill:#202020;" transform="translate(409.5 80.514687)scale(0.1 -0.1)">
     <use xlink:href="#DejaVuSerif-64"/>
     <use x="64.013672" xlink:href="#DejaVuSerif-6f"/>
     <use x="124.21875" xlink:href="#DejaVuSerif-66"/>
     <use x="161.230469" xlink:href="#DejaVuSerif-31"/>
     <use x="224.853516" xlink:href="#DejaVuSerif-3d"/>
     <use x="308.642578" xlink:href="#DejaVuSerif-31"/>
     <use x="372.265625" xlink:href="#DejaVuSerif-30"/>
     <use x="435.888672" xlink:href="#DejaVuSerif-2c"/>
     <use x="467.675781" xlink:href="#DejaVuSerif-20"/>
     <use x="499.462891" xlink:href="#DejaVuSerif-64"/>
     <use x="563.476562" xlink:href="#DejaVuSerif-6f"/>
     <use x="623.681641" xlink:href="#DejaVuSerif-66"/>
     <use x="660.693359" xlink:href="#DejaVuSerif-32"/>
     <use x="724.316406" xlink:href="#DejaVuSerif-3d"/>
     <use x="808.105469" xlink:href="#DejaVuSerif-35"/>
    </g>
   </g>
   <g id="line2d_28">
    <path d="M 381.5 91.692813 
L 401.5 91.692813 
" style="fill:none;stroke:#e04b4b;stroke-linecap:square;stroke-width:3;"/>
   </g>
   <g id="line2d_29"/>
   <g id="text_20">
    <!-- dof1=20, dof2=1 -->
    <g style="fill:#202020;" transform="translate(409.5 95.192813)scale(0.1 -0.1)">
     <use xlink:href="#DejaVuSerif-64"/>
     <use x="64.013672" xlink:href="#DejaVuSerif-6f"/>
     <use x="124.21875" xlink:href="#DejaVuSerif-66"/>
     <use x="161.230469" xlink:href="#DejaVuSerif-31"/>
     <use x="224.853516" xlink:href="#DejaVuSerif-3d"/>
     <use x="308.642578" xlink:href="#DejaVuSerif-32"/>
     <use x="372.265625" xlink:href="#DejaVuSerif-30"/>
     <use x="435.888672" xlink:href="#DejaVuSerif-2c"/>
     <use x="467.675781" xlink:href="#DejaVuSerif-20"/>
     <use x="499.462891" xlink:href="#DejaVuSerif-64"/>
     <use x="563.476562" xlink:href="#DejaVuSerif-6f"/>
     <use x="623.681641" xlink:href="#DejaVuSerif-66"/>
     <use x="660.693359" xlink:href="#DejaVuSerif-32"/>
     <use x="724.316406" xlink:href="#DejaVuSerif-3d"/>
     <use x="808.105469" xlink:href="#DejaVuSerif-31"/>
    </g>
   </g>
   <g id="line2d_30">
    <path d="M 381.5 106.370937 
L 401.5 106.370937 
" style="fill:none;stroke:#9469ad;stroke-linecap:square;stroke-width:3;"/>
   </g>
   <g id="line2d_31"/>
   <g id="text_21">
    <!-- dof1=50, dof2=30 -->
    <g style="fill:#202020;" transform="translate(409.5 109.870937)scale(0.1 -0.1)">
     <use xlink:href="#DejaVuSerif-64"/>
     <use x="64.013672" xlink:href="#DejaVuSerif-6f"/>
     <use x="124.21875" xlink:href="#DejaVuSerif-66"/>
     <use x="161.230469" xlink:href="#DejaVuSerif-31"/>
     <use x="224.853516" xlink:href="#DejaVuSerif-3d"/>
     <use x="308.642578" xlink:href="#DejaVuSerif-35"/>
     <use x="372.265625" xlink:href="#DejaVuSerif-30"/>
     <use x="435.888672" xlink:href="#DejaVuSerif-2c"/>
     <use x="467.675781" xlink:href="#DejaVuSerif-20"/>
     <use x="499.462891" xlink:href="#DejaVuSerif-64"/>
     <use x="563.476562" xlink:href="#DejaVuSerif-6f"/>
     <use x="623.681641" xlink:href="#DejaVuSerif-66"/>
     <use x="660.693359" xlink:href="#DejaVuSerif-32"/>
     <use x="724.316406" xlink:href="#DejaVuSerif-3d"/>
     <use x="808.105469" xlink:href="#DejaVuSerif-33"/>
     <use x="871.728516" xlink:href="#DejaVuSerif-30"/>
    </g>
   </g>
   <g id="line2d_32">
    <path d="M 381.5 121.049062 
L 401.5 121.049062 
" style="fill:none;stroke:#a6a6a6;stroke-linecap:square;stroke-width:3;"/>
   </g>
   <g id="line2d_33"/>
   <g id="text_22">
    <!-- dof1=100, dof2=30 -->
    <g style="fill:#202020;" transform="translate(409.5 124.549062)scale(0.1 -0.1)">
     <use xlink:href="#DejaVuSerif-64"/>
     <use x="64.013672" xlink:href="#DejaVuSerif-6f"/>
     <use x="124.21875" xlink:href="#DejaVuSerif-66"/>
     <use x="161.230469" xlink:href="#DejaVuSerif-31"/>
     <use x="224.853516" xlink:href="#DejaVuSerif-3d"/>
     <use x="308.642578" xlink:href="#DejaVuSerif-31"/>
     <use x="372.265625" xlink:href="#DejaVuSerif-30"/>
     <use x="435.888672" xlink:href="#DejaVuSerif-30"/>
     <use x="499.511719" xlink:href="#DejaVuSerif-2c"/>
     <use x="531.298828" xlink:href="#DejaVuSerif-20"/>
     <use x="563.085938" xlink:href="#DejaVuSerif-64"/>
     <use x="627.099609" xlink:href="#DejaVuSerif-6f"/>
     <use x="687.304688" xlink:href="#DejaVuSerif-66"/>
     <use x="724.316406" xlink:href="#DejaVuSerif-32"/>
     <use x="787.939453" xlink:href="#DejaVuSerif-3d"/>
     <use x="871.728516" xlink:href="#DejaVuSerif-33"/>
     <use x="935.351562" xlink:href="#DejaVuSerif-30"/>
    </g>
   </g>
   <g id="line2d_34">
    <path d="M 381.5 135.727187 
L 401.5 135.727187 
" style="fill:none;stroke:#f5d76e;stroke-linecap:square;stroke-width:3;"/>
   </g>
   <g id="line2d_35"/>
   <g id="text_23">
    <!-- dof1=99, dof2=990 -->
    <defs>
     <path d="M 46.78125 32.671875 
Q 43.5 29 39.25 27.1875 
Q 35.015625 25.390625 29.6875 25.390625 
Q 18.84375 25.390625 12.5625 31.9375 
Q 6.296875 38.484375 6.296875 49.8125 
Q 6.296875 60.890625 13.109375 67.546875 
Q 19.921875 74.21875 31.296875 74.21875 
Q 43.65625 74.21875 50.265625 65.015625 
Q 56.890625 55.8125 56.890625 38.71875 
Q 56.890625 19.578125 49.015625 9.078125 
Q 41.15625 -1.421875 26.90625 -1.421875 
Q 23.046875 -1.421875 18.796875 -0.6875 
Q 14.546875 0.046875 10.109375 1.515625 
L 10.109375 13.625 
L 15.578125 13.625 
Q 16.21875 8.6875 19.390625 6.046875 
Q 22.5625 3.421875 27.875 3.421875 
Q 37.359375 3.421875 41.984375 10.5625 
Q 46.625 17.71875 46.78125 32.671875 
z
M 30.90625 69.390625 
Q 23.96875 69.390625 20.28125 64.328125 
Q 16.609375 59.28125 16.609375 49.8125 
Q 16.609375 40.328125 20.28125 35.25 
Q 23.96875 30.171875 30.90625 30.171875 
Q 37.84375 30.171875 41.53125 35.078125 
Q 45.21875 39.984375 45.21875 49.21875 
Q 45.21875 58.9375 41.5 64.15625 
Q 37.796875 69.390625 30.90625 69.390625 
z
" id="DejaVuSerif-39"/>
    </defs>
    <g style="fill:#202020;" transform="translate(409.5 139.227187)scale(0.1 -0.1)">
     <use xlink:href="#DejaVuSerif-64"/>
     <use x="64.013672" xlink:href="#DejaVuSerif-6f"/>
     <use x="124.21875" xlink:href="#DejaVuSerif-66"/>
     <use x="161.230469" xlink:href="#DejaVuSerif-31"/>
     <use x="224.853516" xlink:href="#DejaVuSerif-3d"/>
     <use x="308.642578" xlink:href="#DejaVuSerif-39"/>
     <use x="372.265625" xlink:href="#DejaVuSerif-39"/>
     <use x="435.888672" xlink:href="#DejaVuSerif-2c"/>
     <use x="467.675781" xlink:href="#DejaVuSerif-20"/>
     <use x="499.462891" xlink:href="#DejaVuSerif-64"/>
     <use x="563.476562" xlink:href="#DejaVuSerif-6f"/>
     <use x="623.681641" xlink:href="#DejaVuSerif-66"/>
     <use x="660.693359" xlink:href="#DejaVuSerif-32"/>
     <use x="724.316406" xlink:href="#DejaVuSerif-3d"/>
     <use x="808.105469" xlink:href="#DejaVuSerif-39"/>
     <use x="871.728516" xlink:href="#DejaVuSerif-39"/>
     <use x="935.351562" xlink:href="#DejaVuSerif-30"/>
    </g>
   </g>
  </g>
 </g>
 <defs>
  <clipPath id="p7b28d97b94">
   <rect height="217.44" width="446.4" x="72" y="34.56"/>
  </clipPath>
 </defs>
</svg>
