<?xml version="1.0" encoding="utf-8" standalone="no"?>
<!DOCTYPE svg PUBLIC "-//W3C//DTD SVG 1.1//EN"
  "http://www.w3.org/Graphics/SVG/1.1/DTD/svg11.dtd">
<!-- Created with matplotlib (http://matplotlib.org/) -->
<svg height="288pt" version="1.1" viewBox="0 0 648 288" width="648pt" xmlns="http://www.w3.org/2000/svg" xmlns:xlink="http://www.w3.org/1999/xlink">
 <defs>
  <style type="text/css">
*{stroke-linecap:butt;stroke-linejoin:round;}
  </style>
 </defs>
 <g id="figure_1">
  <g id="patch_1">
   <path d="M 0 288 
L 648 288 
L 648 0 
L 0 0 
z
" style="fill:#ffffff;"/>
  </g>
  <g id="axes_1">
   <g id="patch_2">
    <path d="M 81 252 
L 583.2 252 
L 583.2 34.56 
L 81 34.56 
z
" style="fill:none;opacity:0;"/>
   </g>
   <g id="patch_3">
    <path clip-path="url(#pf99086d254)" d="M 81 252 
L 81.814192 252 
L 81.814192 44.914286 
L 81 44.914286 
z
" style="fill:#88c9c1;"/>
   </g>
   <g id="patch_4">
    <path clip-path="url(#pf99086d254)" d="M 81.814192 252 
L 82.628384 252 
L 82.628384 85.591837 
L 81.814192 85.591837 
z
" style="fill:#88c9c1;"/>
   </g>
   <g id="patch_5">
    <path clip-path="url(#pf99086d254)" d="M 82.628384 252 
L 83.442577 252 
L 83.442577 98.094461 
L 82.628384 98.094461 
z
" style="fill:#88c9c1;"/>
   </g>
   <g id="patch_6">
    <path clip-path="url(#pf99086d254)" d="M 83.442577 252 
L 84.256769 252 
L 84.256769 128.558601 
L 83.442577 128.558601 
z
" style="fill:#88c9c1;"/>
   </g>
   <g id="patch_7">
    <path clip-path="url(#pf99086d254)" d="M 84.256769 252 
L 85.070961 252 
L 85.070961 136.130612 
L 84.256769 136.130612 
z
" style="fill:#88c9c1;"/>
   </g>
   <g id="patch_8">
    <path clip-path="url(#pf99086d254)" d="M 85.070961 252 
L 85.885153 252 
L 85.885153 153.563848 
L 85.070961 153.563848 
z
" style="fill:#88c9c1;"/>
   </g>
   <g id="patch_9">
    <path clip-path="url(#pf99086d254)" d="M 85.885153 252 
L 86.699345 252 
L 86.699345 164.129446 
L 85.885153 164.129446 
z
" style="fill:#88c9c1;"/>
   </g>
   <g id="patch_10">
    <path clip-path="url(#pf99086d254)" d="M 86.699345 252 
L 87.513537 252 
L 87.513537 161.488047 
L 86.699345 161.488047 
z
" style="fill:#88c9c1;"/>
   </g>
   <g id="patch_11">
    <path clip-path="url(#pf99086d254)" d="M 87.513537 252 
L 88.32773 252 
L 88.32773 192.832653 
L 87.513537 192.832653 
z
" style="fill:#88c9c1;"/>
   </g>
   <g id="patch_12">
    <path clip-path="url(#pf99086d254)" d="M 88.32773 252 
L 89.141922 252 
L 89.141922 186.669388 
L 88.32773 186.669388 
z
" style="fill:#88c9c1;"/>
   </g>
   <g id="patch_13">
    <path clip-path="url(#pf99086d254)" d="M 89.141922 252 
L 89.956114 252 
L 89.956114 199.700292 
L 89.141922 199.700292 
z
" style="fill:#88c9c1;"/>
   </g>
   <g id="patch_14">
    <path clip-path="url(#pf99086d254)" d="M 89.956114 252 
L 90.770306 252 
L 90.770306 204.278717 
L 89.956114 204.278717 
z
" style="fill:#88c9c1;"/>
   </g>
   <g id="patch_15">
    <path clip-path="url(#pf99086d254)" d="M 90.770306 252 
L 91.584498 252 
L 91.584498 206.744023 
L 90.770306 206.744023 
z
" style="fill:#88c9c1;"/>
   </g>
   <g id="patch_16">
    <path clip-path="url(#pf99086d254)" d="M 91.584498 252 
L 92.398691 252 
L 92.398691 210.441983 
L 91.584498 210.441983 
z
" style="fill:#88c9c1;"/>
   </g>
   <g id="patch_17">
    <path clip-path="url(#pf99086d254)" d="M 92.398691 252 
L 93.212883 252 
L 93.212883 213.083382 
L 92.398691 213.083382 
z
" style="fill:#88c9c1;"/>
   </g>
   <g id="patch_18">
    <path clip-path="url(#pf99086d254)" d="M 93.212883 252 
L 94.027075 252 
L 94.027075 218.190087 
L 93.212883 218.190087 
z
" style="fill:#88c9c1;"/>
   </g>
   <g id="patch_19">
    <path clip-path="url(#pf99086d254)" d="M 94.027075 252 
L 94.841267 252 
L 94.841267 228.403499 
L 94.027075 228.403499 
z
" style="fill:#88c9c1;"/>
   </g>
   <g id="patch_20">
    <path clip-path="url(#pf99086d254)" d="M 94.841267 252 
L 95.655459 252 
L 95.655459 228.579592 
L 94.841267 228.579592 
z
" style="fill:#88c9c1;"/>
   </g>
   <g id="patch_21">
    <path clip-path="url(#pf99086d254)" d="M 95.655459 252 
L 96.469651 252 
L 96.469651 228.403499 
L 95.655459 228.403499 
z
" style="fill:#88c9c1;"/>
   </g>
   <g id="patch_22">
    <path clip-path="url(#pf99086d254)" d="M 96.469651 252 
L 97.283844 252 
L 97.283844 229.107872 
L 96.469651 229.107872 
z
" style="fill:#88c9c1;"/>
   </g>
   <g id="patch_23">
    <path clip-path="url(#pf99086d254)" d="M 97.283844 252 
L 98.098036 252 
L 98.098036 230.340525 
L 97.283844 230.340525 
z
" style="fill:#88c9c1;"/>
   </g>
   <g id="patch_24">
    <path clip-path="url(#pf99086d254)" d="M 98.098036 252 
L 98.912228 252 
L 98.912228 238.440816 
L 98.098036 238.440816 
z
" style="fill:#88c9c1;"/>
   </g>
   <g id="patch_25">
    <path clip-path="url(#pf99086d254)" d="M 98.912228 252 
L 99.72642 252 
L 99.72642 237.736443 
L 98.912228 237.736443 
z
" style="fill:#88c9c1;"/>
   </g>
   <g id="patch_26">
    <path clip-path="url(#pf99086d254)" d="M 99.72642 252 
L 100.540612 252 
L 100.540612 238.264723 
L 99.72642 238.264723 
z
" style="fill:#88c9c1;"/>
   </g>
   <g id="patch_27">
    <path clip-path="url(#pf99086d254)" d="M 100.540612 252 
L 101.354805 252 
L 101.354805 238.969096 
L 100.540612 238.969096 
z
" style="fill:#88c9c1;"/>
   </g>
   <g id="patch_28">
    <path clip-path="url(#pf99086d254)" d="M 101.354805 252 
L 102.168997 252 
L 102.168997 240.730029 
L 101.354805 240.730029 
z
" style="fill:#88c9c1;"/>
   </g>
   <g id="patch_29">
    <path clip-path="url(#pf99086d254)" d="M 102.168997 252 
L 102.983189 252 
L 102.983189 240.377843 
L 102.168997 240.377843 
z
" style="fill:#88c9c1;"/>
   </g>
   <g id="patch_30">
    <path clip-path="url(#pf99086d254)" d="M 102.983189 252 
L 103.797381 252 
L 103.797381 242.314869 
L 102.983189 242.314869 
z
" style="fill:#88c9c1;"/>
   </g>
   <g id="patch_31">
    <path clip-path="url(#pf99086d254)" d="M 103.797381 252 
L 104.611573 252 
L 104.611573 243.195335 
L 103.797381 243.195335 
z
" style="fill:#88c9c1;"/>
   </g>
   <g id="patch_32">
    <path clip-path="url(#pf99086d254)" d="M 104.611573 252 
L 105.425765 252 
L 105.425765 244.427988 
L 104.611573 244.427988 
z
" style="fill:#88c9c1;"/>
   </g>
   <g id="patch_33">
    <path clip-path="url(#pf99086d254)" d="M 105.425765 252 
L 106.239958 252 
L 106.239958 242.490962 
L 105.425765 242.490962 
z
" style="fill:#88c9c1;"/>
   </g>
   <g id="patch_34">
    <path clip-path="url(#pf99086d254)" d="M 106.239958 252 
L 107.05415 252 
L 107.05415 246.012828 
L 106.239958 246.012828 
z
" style="fill:#88c9c1;"/>
   </g>
   <g id="patch_35">
    <path clip-path="url(#pf99086d254)" d="M 107.05415 252 
L 107.868342 252 
L 107.868342 246.188921 
L 107.05415 246.188921 
z
" style="fill:#88c9c1;"/>
   </g>
   <g id="patch_36">
    <path clip-path="url(#pf99086d254)" d="M 107.868342 252 
L 108.682534 252 
L 108.682534 246.717201 
L 107.868342 246.717201 
z
" style="fill:#88c9c1;"/>
   </g>
   <g id="patch_37">
    <path clip-path="url(#pf99086d254)" d="M 108.682534 252 
L 109.496726 252 
L 109.496726 247.597668 
L 108.682534 247.597668 
z
" style="fill:#88c9c1;"/>
   </g>
   <g id="patch_38">
    <path clip-path="url(#pf99086d254)" d="M 109.496726 252 
L 110.310919 252 
L 110.310919 248.125948 
L 109.496726 248.125948 
z
" style="fill:#88c9c1;"/>
   </g>
   <g id="patch_39">
    <path clip-path="url(#pf99086d254)" d="M 110.310919 252 
L 111.125111 252 
L 111.125111 248.302041 
L 110.310919 248.302041 
z
" style="fill:#88c9c1;"/>
   </g>
   <g id="patch_40">
    <path clip-path="url(#pf99086d254)" d="M 111.125111 252 
L 111.939303 252 
L 111.939303 248.302041 
L 111.125111 248.302041 
z
" style="fill:#88c9c1;"/>
   </g>
   <g id="patch_41">
    <path clip-path="url(#pf99086d254)" d="M 111.939303 252 
L 112.753495 252 
L 112.753495 248.302041 
L 111.939303 248.302041 
z
" style="fill:#88c9c1;"/>
   </g>
   <g id="patch_42">
    <path clip-path="url(#pf99086d254)" d="M 112.753495 252 
L 113.567687 252 
L 113.567687 247.597668 
L 112.753495 247.597668 
z
" style="fill:#88c9c1;"/>
   </g>
   <g id="patch_43">
    <path clip-path="url(#pf99086d254)" d="M 113.567687 252 
L 114.381879 252 
L 114.381879 248.830321 
L 113.567687 248.830321 
z
" style="fill:#88c9c1;"/>
   </g>
   <g id="patch_44">
    <path clip-path="url(#pf99086d254)" d="M 114.381879 252 
L 115.196072 252 
L 115.196072 247.949854 
L 114.381879 247.949854 
z
" style="fill:#88c9c1;"/>
   </g>
   <g id="patch_45">
    <path clip-path="url(#pf99086d254)" d="M 115.196072 252 
L 116.010264 252 
L 116.010264 249.710787 
L 115.196072 249.710787 
z
" style="fill:#88c9c1;"/>
   </g>
   <g id="patch_46">
    <path clip-path="url(#pf99086d254)" d="M 116.010264 252 
L 116.824456 252 
L 116.824456 249.534694 
L 116.010264 249.534694 
z
" style="fill:#88c9c1;"/>
   </g>
   <g id="patch_47">
    <path clip-path="url(#pf99086d254)" d="M 116.824456 252 
L 117.638648 252 
L 117.638648 248.478134 
L 116.824456 248.478134 
z
" style="fill:#88c9c1;"/>
   </g>
   <g id="patch_48">
    <path clip-path="url(#pf99086d254)" d="M 117.638648 252 
L 118.45284 252 
L 118.45284 248.654227 
L 117.638648 248.654227 
z
" style="fill:#88c9c1;"/>
   </g>
   <g id="patch_49">
    <path clip-path="url(#pf99086d254)" d="M 118.45284 252 
L 119.267032 252 
L 119.267032 249.710787 
L 118.45284 249.710787 
z
" style="fill:#88c9c1;"/>
   </g>
   <g id="patch_50">
    <path clip-path="url(#pf99086d254)" d="M 119.267032 252 
L 120.081225 252 
L 120.081225 250.239067 
L 119.267032 250.239067 
z
" style="fill:#88c9c1;"/>
   </g>
   <g id="patch_51">
    <path clip-path="url(#pf99086d254)" d="M 120.081225 252 
L 120.895417 252 
L 120.895417 249.88688 
L 120.081225 249.88688 
z
" style="fill:#88c9c1;"/>
   </g>
   <g id="patch_52">
    <path clip-path="url(#pf99086d254)" d="M 120.895417 252 
L 121.709609 252 
L 121.709609 249.358601 
L 120.895417 249.358601 
z
" style="fill:#88c9c1;"/>
   </g>
   <g id="patch_53">
    <path clip-path="url(#pf99086d254)" d="M 121.709609 252 
L 122.523801 252 
L 122.523801 250.591254 
L 121.709609 250.591254 
z
" style="fill:#88c9c1;"/>
   </g>
   <g id="patch_54">
    <path clip-path="url(#pf99086d254)" d="M 122.523801 252 
L 123.337993 252 
L 123.337993 250.062974 
L 122.523801 250.062974 
z
" style="fill:#88c9c1;"/>
   </g>
   <g id="patch_55">
    <path clip-path="url(#pf99086d254)" d="M 123.337993 252 
L 124.152186 252 
L 124.152186 250.591254 
L 123.337993 250.591254 
z
" style="fill:#88c9c1;"/>
   </g>
   <g id="patch_56">
    <path clip-path="url(#pf99086d254)" d="M 124.152186 252 
L 124.966378 252 
L 124.966378 250.767347 
L 124.152186 250.767347 
z
" style="fill:#88c9c1;"/>
   </g>
   <g id="patch_57">
    <path clip-path="url(#pf99086d254)" d="M 124.966378 252 
L 125.78057 252 
L 125.78057 249.88688 
L 124.966378 249.88688 
z
" style="fill:#88c9c1;"/>
   </g>
   <g id="patch_58">
    <path clip-path="url(#pf99086d254)" d="M 125.78057 252 
L 126.594762 252 
L 126.594762 250.591254 
L 125.78057 250.591254 
z
" style="fill:#88c9c1;"/>
   </g>
   <g id="patch_59">
    <path clip-path="url(#pf99086d254)" d="M 126.594762 252 
L 127.408954 252 
L 127.408954 250.591254 
L 126.594762 250.591254 
z
" style="fill:#88c9c1;"/>
   </g>
   <g id="patch_60">
    <path clip-path="url(#pf99086d254)" d="M 127.408954 252 
L 128.223146 252 
L 128.223146 250.591254 
L 127.408954 250.591254 
z
" style="fill:#88c9c1;"/>
   </g>
   <g id="patch_61">
    <path clip-path="url(#pf99086d254)" d="M 128.223146 252 
L 129.037339 252 
L 129.037339 250.591254 
L 128.223146 250.591254 
z
" style="fill:#88c9c1;"/>
   </g>
   <g id="patch_62">
    <path clip-path="url(#pf99086d254)" d="M 129.037339 252 
L 129.851531 252 
L 129.851531 251.47172 
L 129.037339 251.47172 
z
" style="fill:#88c9c1;"/>
   </g>
   <g id="patch_63">
    <path clip-path="url(#pf99086d254)" d="M 129.851531 252 
L 130.665723 252 
L 130.665723 251.295627 
L 129.851531 251.295627 
z
" style="fill:#88c9c1;"/>
   </g>
   <g id="patch_64">
    <path clip-path="url(#pf99086d254)" d="M 130.665723 252 
L 131.479915 252 
L 131.479915 250.41516 
L 130.665723 250.41516 
z
" style="fill:#88c9c1;"/>
   </g>
   <g id="patch_65">
    <path clip-path="url(#pf99086d254)" d="M 131.479915 252 
L 132.294107 252 
L 132.294107 250.94344 
L 131.479915 250.94344 
z
" style="fill:#88c9c1;"/>
   </g>
   <g id="patch_66">
    <path clip-path="url(#pf99086d254)" d="M 132.294107 252 
L 133.1083 252 
L 133.1083 250.062974 
L 132.294107 250.062974 
z
" style="fill:#88c9c1;"/>
   </g>
   <g id="patch_67">
    <path clip-path="url(#pf99086d254)" d="M 133.1083 252 
L 133.922492 252 
L 133.922492 251.295627 
L 133.1083 251.295627 
z
" style="fill:#88c9c1;"/>
   </g>
   <g id="patch_68">
    <path clip-path="url(#pf99086d254)" d="M 133.922492 252 
L 134.736684 252 
L 134.736684 251.647813 
L 133.922492 251.647813 
z
" style="fill:#88c9c1;"/>
   </g>
   <g id="patch_69">
    <path clip-path="url(#pf99086d254)" d="M 134.736684 252 
L 135.550876 252 
L 135.550876 250.767347 
L 134.736684 250.767347 
z
" style="fill:#88c9c1;"/>
   </g>
   <g id="patch_70">
    <path clip-path="url(#pf99086d254)" d="M 135.550876 252 
L 136.365068 252 
L 136.365068 250.591254 
L 135.550876 250.591254 
z
" style="fill:#88c9c1;"/>
   </g>
   <g id="patch_71">
    <path clip-path="url(#pf99086d254)" d="M 136.365068 252 
L 137.17926 252 
L 137.17926 251.647813 
L 136.365068 251.647813 
z
" style="fill:#88c9c1;"/>
   </g>
   <g id="patch_72">
    <path clip-path="url(#pf99086d254)" d="M 137.17926 252 
L 137.993453 252 
L 137.993453 251.47172 
L 137.17926 251.47172 
z
" style="fill:#88c9c1;"/>
   </g>
   <g id="patch_73">
    <path clip-path="url(#pf99086d254)" d="M 137.993453 252 
L 138.807645 252 
L 138.807645 251.647813 
L 137.993453 251.647813 
z
" style="fill:#88c9c1;"/>
   </g>
   <g id="patch_74">
    <path clip-path="url(#pf99086d254)" d="M 138.807645 252 
L 139.621837 252 
L 139.621837 251.823907 
L 138.807645 251.823907 
z
" style="fill:#88c9c1;"/>
   </g>
   <g id="patch_75">
    <path clip-path="url(#pf99086d254)" d="M 139.621837 252 
L 140.436029 252 
L 140.436029 251.47172 
L 139.621837 251.47172 
z
" style="fill:#88c9c1;"/>
   </g>
   <g id="patch_76">
    <path clip-path="url(#pf99086d254)" d="M 140.436029 252 
L 141.250221 252 
L 141.250221 251.295627 
L 140.436029 251.295627 
z
" style="fill:#88c9c1;"/>
   </g>
   <g id="patch_77">
    <path clip-path="url(#pf99086d254)" d="M 141.250221 252 
L 142.064414 252 
L 142.064414 251.47172 
L 141.250221 251.47172 
z
" style="fill:#88c9c1;"/>
   </g>
   <g id="patch_78">
    <path clip-path="url(#pf99086d254)" d="M 142.064414 252 
L 142.878606 252 
L 142.878606 251.823907 
L 142.064414 251.823907 
z
" style="fill:#88c9c1;"/>
   </g>
   <g id="patch_79">
    <path clip-path="url(#pf99086d254)" d="M 142.878606 252 
L 143.692798 252 
L 143.692798 251.47172 
L 142.878606 251.47172 
z
" style="fill:#88c9c1;"/>
   </g>
   <g id="patch_80">
    <path clip-path="url(#pf99086d254)" d="M 143.692798 252 
L 144.50699 252 
L 144.50699 251.823907 
L 143.692798 251.823907 
z
" style="fill:#88c9c1;"/>
   </g>
   <g id="patch_81">
    <path clip-path="url(#pf99086d254)" d="M 144.50699 252 
L 145.321182 252 
L 145.321182 251.47172 
L 144.50699 251.47172 
z
" style="fill:#88c9c1;"/>
   </g>
   <g id="patch_82">
    <path clip-path="url(#pf99086d254)" d="M 145.321182 252 
L 146.135374 252 
L 146.135374 251.823907 
L 145.321182 251.823907 
z
" style="fill:#88c9c1;"/>
   </g>
   <g id="patch_83">
    <path clip-path="url(#pf99086d254)" d="M 146.135374 252 
L 146.949567 252 
L 146.949567 251.647813 
L 146.135374 251.647813 
z
" style="fill:#88c9c1;"/>
   </g>
   <g id="patch_84">
    <path clip-path="url(#pf99086d254)" d="M 146.949567 252 
L 147.763759 252 
L 147.763759 251.647813 
L 146.949567 251.647813 
z
" style="fill:#88c9c1;"/>
   </g>
   <g id="patch_85">
    <path clip-path="url(#pf99086d254)" d="M 147.763759 252 
L 148.577951 252 
L 148.577951 251.647813 
L 147.763759 251.647813 
z
" style="fill:#88c9c1;"/>
   </g>
   <g id="patch_86">
    <path clip-path="url(#pf99086d254)" d="M 148.577951 252 
L 149.392143 252 
L 149.392143 252 
L 148.577951 252 
z
" style="fill:#88c9c1;"/>
   </g>
   <g id="patch_87">
    <path clip-path="url(#pf99086d254)" d="M 149.392143 252 
L 150.206335 252 
L 150.206335 251.295627 
L 149.392143 251.295627 
z
" style="fill:#88c9c1;"/>
   </g>
   <g id="patch_88">
    <path clip-path="url(#pf99086d254)" d="M 150.206335 252 
L 151.020528 252 
L 151.020528 251.823907 
L 150.206335 251.823907 
z
" style="fill:#88c9c1;"/>
   </g>
   <g id="patch_89">
    <path clip-path="url(#pf99086d254)" d="M 151.020528 252 
L 151.83472 252 
L 151.83472 251.295627 
L 151.020528 251.295627 
z
" style="fill:#88c9c1;"/>
   </g>
   <g id="patch_90">
    <path clip-path="url(#pf99086d254)" d="M 151.83472 252 
L 152.648912 252 
L 152.648912 251.823907 
L 151.83472 251.823907 
z
" style="fill:#88c9c1;"/>
   </g>
   <g id="patch_91">
    <path clip-path="url(#pf99086d254)" d="M 152.648912 252 
L 153.463104 252 
L 153.463104 251.823907 
L 152.648912 251.823907 
z
" style="fill:#88c9c1;"/>
   </g>
   <g id="patch_92">
    <path clip-path="url(#pf99086d254)" d="M 153.463104 252 
L 154.277296 252 
L 154.277296 251.647813 
L 153.463104 251.647813 
z
" style="fill:#88c9c1;"/>
   </g>
   <g id="patch_93">
    <path clip-path="url(#pf99086d254)" d="M 154.277296 252 
L 155.091488 252 
L 155.091488 251.647813 
L 154.277296 251.647813 
z
" style="fill:#88c9c1;"/>
   </g>
   <g id="patch_94">
    <path clip-path="url(#pf99086d254)" d="M 155.091488 252 
L 155.905681 252 
L 155.905681 251.647813 
L 155.091488 251.647813 
z
" style="fill:#88c9c1;"/>
   </g>
   <g id="patch_95">
    <path clip-path="url(#pf99086d254)" d="M 155.905681 252 
L 156.719873 252 
L 156.719873 252 
L 155.905681 252 
z
" style="fill:#88c9c1;"/>
   </g>
   <g id="patch_96">
    <path clip-path="url(#pf99086d254)" d="M 156.719873 252 
L 157.534065 252 
L 157.534065 252 
L 156.719873 252 
z
" style="fill:#88c9c1;"/>
   </g>
   <g id="patch_97">
    <path clip-path="url(#pf99086d254)" d="M 157.534065 252 
L 158.348257 252 
L 158.348257 251.47172 
L 157.534065 251.47172 
z
" style="fill:#88c9c1;"/>
   </g>
   <g id="patch_98">
    <path clip-path="url(#pf99086d254)" d="M 158.348257 252 
L 159.162449 252 
L 159.162449 251.647813 
L 158.348257 251.647813 
z
" style="fill:#88c9c1;"/>
   </g>
   <g id="patch_99">
    <path clip-path="url(#pf99086d254)" d="M 159.162449 252 
L 159.976642 252 
L 159.976642 252 
L 159.162449 252 
z
" style="fill:#88c9c1;"/>
   </g>
   <g id="patch_100">
    <path clip-path="url(#pf99086d254)" d="M 159.976642 252 
L 160.790834 252 
L 160.790834 251.823907 
L 159.976642 251.823907 
z
" style="fill:#88c9c1;"/>
   </g>
   <g id="patch_101">
    <path clip-path="url(#pf99086d254)" d="M 160.790834 252 
L 161.605026 252 
L 161.605026 252 
L 160.790834 252 
z
" style="fill:#88c9c1;"/>
   </g>
   <g id="patch_102">
    <path clip-path="url(#pf99086d254)" d="M 161.605026 252 
L 162.419218 252 
L 162.419218 252 
L 161.605026 252 
z
" style="fill:#88c9c1;"/>
   </g>
   <g id="patch_103">
    <path clip-path="url(#pf99086d254)" d="M 162.419218 252 
L 163.23341 252 
L 163.23341 252 
L 162.419218 252 
z
" style="fill:#88c9c1;"/>
   </g>
   <g id="patch_104">
    <path clip-path="url(#pf99086d254)" d="M 163.23341 252 
L 164.047602 252 
L 164.047602 251.647813 
L 163.23341 251.647813 
z
" style="fill:#88c9c1;"/>
   </g>
   <g id="patch_105">
    <path clip-path="url(#pf99086d254)" d="M 164.047602 252 
L 164.861795 252 
L 164.861795 252 
L 164.047602 252 
z
" style="fill:#88c9c1;"/>
   </g>
   <g id="patch_106">
    <path clip-path="url(#pf99086d254)" d="M 164.861795 252 
L 165.675987 252 
L 165.675987 252 
L 164.861795 252 
z
" style="fill:#88c9c1;"/>
   </g>
   <g id="patch_107">
    <path clip-path="url(#pf99086d254)" d="M 165.675987 252 
L 166.490179 252 
L 166.490179 252 
L 165.675987 252 
z
" style="fill:#88c9c1;"/>
   </g>
   <g id="patch_108">
    <path clip-path="url(#pf99086d254)" d="M 166.490179 252 
L 167.304371 252 
L 167.304371 252 
L 166.490179 252 
z
" style="fill:#88c9c1;"/>
   </g>
   <g id="patch_109">
    <path clip-path="url(#pf99086d254)" d="M 167.304371 252 
L 168.118563 252 
L 168.118563 251.823907 
L 167.304371 251.823907 
z
" style="fill:#88c9c1;"/>
   </g>
   <g id="patch_110">
    <path clip-path="url(#pf99086d254)" d="M 168.118563 252 
L 168.932756 252 
L 168.932756 252 
L 168.118563 252 
z
" style="fill:#88c9c1;"/>
   </g>
   <g id="patch_111">
    <path clip-path="url(#pf99086d254)" d="M 168.932756 252 
L 169.746948 252 
L 169.746948 252 
L 168.932756 252 
z
" style="fill:#88c9c1;"/>
   </g>
   <g id="patch_112">
    <path clip-path="url(#pf99086d254)" d="M 169.746948 252 
L 170.56114 252 
L 170.56114 252 
L 169.746948 252 
z
" style="fill:#88c9c1;"/>
   </g>
   <g id="patch_113">
    <path clip-path="url(#pf99086d254)" d="M 170.56114 252 
L 171.375332 252 
L 171.375332 252 
L 170.56114 252 
z
" style="fill:#88c9c1;"/>
   </g>
   <g id="patch_114">
    <path clip-path="url(#pf99086d254)" d="M 171.375332 252 
L 172.189524 252 
L 172.189524 251.823907 
L 171.375332 251.823907 
z
" style="fill:#88c9c1;"/>
   </g>
   <g id="patch_115">
    <path clip-path="url(#pf99086d254)" d="M 172.189524 252 
L 173.003716 252 
L 173.003716 251.823907 
L 172.189524 251.823907 
z
" style="fill:#88c9c1;"/>
   </g>
   <g id="patch_116">
    <path clip-path="url(#pf99086d254)" d="M 173.003716 252 
L 173.817909 252 
L 173.817909 252 
L 173.003716 252 
z
" style="fill:#88c9c1;"/>
   </g>
   <g id="patch_117">
    <path clip-path="url(#pf99086d254)" d="M 173.817909 252 
L 174.632101 252 
L 174.632101 252 
L 173.817909 252 
z
" style="fill:#88c9c1;"/>
   </g>
   <g id="patch_118">
    <path clip-path="url(#pf99086d254)" d="M 174.632101 252 
L 175.446293 252 
L 175.446293 251.823907 
L 174.632101 251.823907 
z
" style="fill:#88c9c1;"/>
   </g>
   <g id="patch_119">
    <path clip-path="url(#pf99086d254)" d="M 175.446293 252 
L 176.260485 252 
L 176.260485 251.823907 
L 175.446293 251.823907 
z
" style="fill:#88c9c1;"/>
   </g>
   <g id="patch_120">
    <path clip-path="url(#pf99086d254)" d="M 176.260485 252 
L 177.074677 252 
L 177.074677 252 
L 176.260485 252 
z
" style="fill:#88c9c1;"/>
   </g>
   <g id="patch_121">
    <path clip-path="url(#pf99086d254)" d="M 177.074677 252 
L 177.888869 252 
L 177.888869 252 
L 177.074677 252 
z
" style="fill:#88c9c1;"/>
   </g>
   <g id="patch_122">
    <path clip-path="url(#pf99086d254)" d="M 177.888869 252 
L 178.703062 252 
L 178.703062 252 
L 177.888869 252 
z
" style="fill:#88c9c1;"/>
   </g>
   <g id="patch_123">
    <path clip-path="url(#pf99086d254)" d="M 178.703062 252 
L 179.517254 252 
L 179.517254 252 
L 178.703062 252 
z
" style="fill:#88c9c1;"/>
   </g>
   <g id="patch_124">
    <path clip-path="url(#pf99086d254)" d="M 179.517254 252 
L 180.331446 252 
L 180.331446 252 
L 179.517254 252 
z
" style="fill:#88c9c1;"/>
   </g>
   <g id="patch_125">
    <path clip-path="url(#pf99086d254)" d="M 180.331446 252 
L 181.145638 252 
L 181.145638 252 
L 180.331446 252 
z
" style="fill:#88c9c1;"/>
   </g>
   <g id="patch_126">
    <path clip-path="url(#pf99086d254)" d="M 181.145638 252 
L 181.95983 252 
L 181.95983 251.647813 
L 181.145638 251.647813 
z
" style="fill:#88c9c1;"/>
   </g>
   <g id="patch_127">
    <path clip-path="url(#pf99086d254)" d="M 181.95983 252 
L 182.774023 252 
L 182.774023 252 
L 181.95983 252 
z
" style="fill:#88c9c1;"/>
   </g>
   <g id="patch_128">
    <path clip-path="url(#pf99086d254)" d="M 182.774023 252 
L 183.588215 252 
L 183.588215 252 
L 182.774023 252 
z
" style="fill:#88c9c1;"/>
   </g>
   <g id="patch_129">
    <path clip-path="url(#pf99086d254)" d="M 183.588215 252 
L 184.402407 252 
L 184.402407 252 
L 183.588215 252 
z
" style="fill:#88c9c1;"/>
   </g>
   <g id="patch_130">
    <path clip-path="url(#pf99086d254)" d="M 184.402407 252 
L 185.216599 252 
L 185.216599 252 
L 184.402407 252 
z
" style="fill:#88c9c1;"/>
   </g>
   <g id="patch_131">
    <path clip-path="url(#pf99086d254)" d="M 185.216599 252 
L 186.030791 252 
L 186.030791 251.823907 
L 185.216599 251.823907 
z
" style="fill:#88c9c1;"/>
   </g>
   <g id="patch_132">
    <path clip-path="url(#pf99086d254)" d="M 186.030791 252 
L 186.844983 252 
L 186.844983 252 
L 186.030791 252 
z
" style="fill:#88c9c1;"/>
   </g>
   <g id="patch_133">
    <path clip-path="url(#pf99086d254)" d="M 186.844983 252 
L 187.659176 252 
L 187.659176 252 
L 186.844983 252 
z
" style="fill:#88c9c1;"/>
   </g>
   <g id="patch_134">
    <path clip-path="url(#pf99086d254)" d="M 187.659176 252 
L 188.473368 252 
L 188.473368 252 
L 187.659176 252 
z
" style="fill:#88c9c1;"/>
   </g>
   <g id="patch_135">
    <path clip-path="url(#pf99086d254)" d="M 188.473368 252 
L 189.28756 252 
L 189.28756 251.823907 
L 188.473368 251.823907 
z
" style="fill:#88c9c1;"/>
   </g>
   <g id="patch_136">
    <path clip-path="url(#pf99086d254)" d="M 189.28756 252 
L 190.101752 252 
L 190.101752 252 
L 189.28756 252 
z
" style="fill:#88c9c1;"/>
   </g>
   <g id="patch_137">
    <path clip-path="url(#pf99086d254)" d="M 190.101752 252 
L 190.915944 252 
L 190.915944 252 
L 190.101752 252 
z
" style="fill:#88c9c1;"/>
   </g>
   <g id="patch_138">
    <path clip-path="url(#pf99086d254)" d="M 190.915944 252 
L 191.730137 252 
L 191.730137 251.823907 
L 190.915944 251.823907 
z
" style="fill:#88c9c1;"/>
   </g>
   <g id="patch_139">
    <path clip-path="url(#pf99086d254)" d="M 191.730137 252 
L 192.544329 252 
L 192.544329 251.823907 
L 191.730137 251.823907 
z
" style="fill:#88c9c1;"/>
   </g>
   <g id="patch_140">
    <path clip-path="url(#pf99086d254)" d="M 192.544329 252 
L 193.358521 252 
L 193.358521 251.823907 
L 192.544329 251.823907 
z
" style="fill:#88c9c1;"/>
   </g>
   <g id="patch_141">
    <path clip-path="url(#pf99086d254)" d="M 193.358521 252 
L 194.172713 252 
L 194.172713 252 
L 193.358521 252 
z
" style="fill:#88c9c1;"/>
   </g>
   <g id="patch_142">
    <path clip-path="url(#pf99086d254)" d="M 194.172713 252 
L 194.986905 252 
L 194.986905 251.823907 
L 194.172713 251.823907 
z
" style="fill:#88c9c1;"/>
   </g>
   <g id="patch_143">
    <path clip-path="url(#pf99086d254)" d="M 194.986905 252 
L 195.801097 252 
L 195.801097 252 
L 194.986905 252 
z
" style="fill:#88c9c1;"/>
   </g>
   <g id="patch_144">
    <path clip-path="url(#pf99086d254)" d="M 195.801097 252 
L 196.61529 252 
L 196.61529 252 
L 195.801097 252 
z
" style="fill:#88c9c1;"/>
   </g>
   <g id="patch_145">
    <path clip-path="url(#pf99086d254)" d="M 196.61529 252 
L 197.429482 252 
L 197.429482 252 
L 196.61529 252 
z
" style="fill:#88c9c1;"/>
   </g>
   <g id="patch_146">
    <path clip-path="url(#pf99086d254)" d="M 197.429482 252 
L 198.243674 252 
L 198.243674 252 
L 197.429482 252 
z
" style="fill:#88c9c1;"/>
   </g>
   <g id="patch_147">
    <path clip-path="url(#pf99086d254)" d="M 198.243674 252 
L 199.057866 252 
L 199.057866 252 
L 198.243674 252 
z
" style="fill:#88c9c1;"/>
   </g>
   <g id="patch_148">
    <path clip-path="url(#pf99086d254)" d="M 199.057866 252 
L 199.872058 252 
L 199.872058 252 
L 199.057866 252 
z
" style="fill:#88c9c1;"/>
   </g>
   <g id="patch_149">
    <path clip-path="url(#pf99086d254)" d="M 199.872058 252 
L 200.686251 252 
L 200.686251 252 
L 199.872058 252 
z
" style="fill:#88c9c1;"/>
   </g>
   <g id="patch_150">
    <path clip-path="url(#pf99086d254)" d="M 200.686251 252 
L 201.500443 252 
L 201.500443 252 
L 200.686251 252 
z
" style="fill:#88c9c1;"/>
   </g>
   <g id="patch_151">
    <path clip-path="url(#pf99086d254)" d="M 201.500443 252 
L 202.314635 252 
L 202.314635 251.647813 
L 201.500443 251.647813 
z
" style="fill:#88c9c1;"/>
   </g>
   <g id="patch_152">
    <path clip-path="url(#pf99086d254)" d="M 202.314635 252 
L 203.128827 252 
L 203.128827 252 
L 202.314635 252 
z
" style="fill:#88c9c1;"/>
   </g>
   <g id="patch_153">
    <path clip-path="url(#pf99086d254)" d="M 203.128827 252 
L 203.943019 252 
L 203.943019 252 
L 203.128827 252 
z
" style="fill:#88c9c1;"/>
   </g>
   <g id="patch_154">
    <path clip-path="url(#pf99086d254)" d="M 203.943019 252 
L 204.757211 252 
L 204.757211 252 
L 203.943019 252 
z
" style="fill:#88c9c1;"/>
   </g>
   <g id="patch_155">
    <path clip-path="url(#pf99086d254)" d="M 204.757211 252 
L 205.571404 252 
L 205.571404 252 
L 204.757211 252 
z
" style="fill:#88c9c1;"/>
   </g>
   <g id="patch_156">
    <path clip-path="url(#pf99086d254)" d="M 205.571404 252 
L 206.385596 252 
L 206.385596 252 
L 205.571404 252 
z
" style="fill:#88c9c1;"/>
   </g>
   <g id="patch_157">
    <path clip-path="url(#pf99086d254)" d="M 206.385596 252 
L 207.199788 252 
L 207.199788 252 
L 206.385596 252 
z
" style="fill:#88c9c1;"/>
   </g>
   <g id="patch_158">
    <path clip-path="url(#pf99086d254)" d="M 207.199788 252 
L 208.01398 252 
L 208.01398 252 
L 207.199788 252 
z
" style="fill:#88c9c1;"/>
   </g>
   <g id="patch_159">
    <path clip-path="url(#pf99086d254)" d="M 208.01398 252 
L 208.828172 252 
L 208.828172 252 
L 208.01398 252 
z
" style="fill:#88c9c1;"/>
   </g>
   <g id="patch_160">
    <path clip-path="url(#pf99086d254)" d="M 208.828172 252 
L 209.642365 252 
L 209.642365 252 
L 208.828172 252 
z
" style="fill:#88c9c1;"/>
   </g>
   <g id="patch_161">
    <path clip-path="url(#pf99086d254)" d="M 209.642365 252 
L 210.456557 252 
L 210.456557 252 
L 209.642365 252 
z
" style="fill:#88c9c1;"/>
   </g>
   <g id="patch_162">
    <path clip-path="url(#pf99086d254)" d="M 210.456557 252 
L 211.270749 252 
L 211.270749 252 
L 210.456557 252 
z
" style="fill:#88c9c1;"/>
   </g>
   <g id="patch_163">
    <path clip-path="url(#pf99086d254)" d="M 211.270749 252 
L 212.084941 252 
L 212.084941 252 
L 211.270749 252 
z
" style="fill:#88c9c1;"/>
   </g>
   <g id="patch_164">
    <path clip-path="url(#pf99086d254)" d="M 212.084941 252 
L 212.899133 252 
L 212.899133 252 
L 212.084941 252 
z
" style="fill:#88c9c1;"/>
   </g>
   <g id="patch_165">
    <path clip-path="url(#pf99086d254)" d="M 212.899133 252 
L 213.713325 252 
L 213.713325 252 
L 212.899133 252 
z
" style="fill:#88c9c1;"/>
   </g>
   <g id="patch_166">
    <path clip-path="url(#pf99086d254)" d="M 213.713325 252 
L 214.527518 252 
L 214.527518 252 
L 213.713325 252 
z
" style="fill:#88c9c1;"/>
   </g>
   <g id="patch_167">
    <path clip-path="url(#pf99086d254)" d="M 214.527518 252 
L 215.34171 252 
L 215.34171 252 
L 214.527518 252 
z
" style="fill:#88c9c1;"/>
   </g>
   <g id="patch_168">
    <path clip-path="url(#pf99086d254)" d="M 215.34171 252 
L 216.155902 252 
L 216.155902 252 
L 215.34171 252 
z
" style="fill:#88c9c1;"/>
   </g>
   <g id="patch_169">
    <path clip-path="url(#pf99086d254)" d="M 216.155902 252 
L 216.970094 252 
L 216.970094 251.823907 
L 216.155902 251.823907 
z
" style="fill:#88c9c1;"/>
   </g>
   <g id="patch_170">
    <path clip-path="url(#pf99086d254)" d="M 216.970094 252 
L 217.784286 252 
L 217.784286 252 
L 216.970094 252 
z
" style="fill:#88c9c1;"/>
   </g>
   <g id="patch_171">
    <path clip-path="url(#pf99086d254)" d="M 217.784286 252 
L 218.598479 252 
L 218.598479 252 
L 217.784286 252 
z
" style="fill:#88c9c1;"/>
   </g>
   <g id="patch_172">
    <path clip-path="url(#pf99086d254)" d="M 218.598479 252 
L 219.412671 252 
L 219.412671 252 
L 218.598479 252 
z
" style="fill:#88c9c1;"/>
   </g>
   <g id="patch_173">
    <path clip-path="url(#pf99086d254)" d="M 219.412671 252 
L 220.226863 252 
L 220.226863 252 
L 219.412671 252 
z
" style="fill:#88c9c1;"/>
   </g>
   <g id="patch_174">
    <path clip-path="url(#pf99086d254)" d="M 220.226863 252 
L 221.041055 252 
L 221.041055 252 
L 220.226863 252 
z
" style="fill:#88c9c1;"/>
   </g>
   <g id="patch_175">
    <path clip-path="url(#pf99086d254)" d="M 221.041055 252 
L 221.855247 252 
L 221.855247 252 
L 221.041055 252 
z
" style="fill:#88c9c1;"/>
   </g>
   <g id="patch_176">
    <path clip-path="url(#pf99086d254)" d="M 221.855247 252 
L 222.669439 252 
L 222.669439 252 
L 221.855247 252 
z
" style="fill:#88c9c1;"/>
   </g>
   <g id="patch_177">
    <path clip-path="url(#pf99086d254)" d="M 222.669439 252 
L 223.483632 252 
L 223.483632 252 
L 222.669439 252 
z
" style="fill:#88c9c1;"/>
   </g>
   <g id="patch_178">
    <path clip-path="url(#pf99086d254)" d="M 223.483632 252 
L 224.297824 252 
L 224.297824 252 
L 223.483632 252 
z
" style="fill:#88c9c1;"/>
   </g>
   <g id="patch_179">
    <path clip-path="url(#pf99086d254)" d="M 224.297824 252 
L 225.112016 252 
L 225.112016 252 
L 224.297824 252 
z
" style="fill:#88c9c1;"/>
   </g>
   <g id="patch_180">
    <path clip-path="url(#pf99086d254)" d="M 225.112016 252 
L 225.926208 252 
L 225.926208 252 
L 225.112016 252 
z
" style="fill:#88c9c1;"/>
   </g>
   <g id="patch_181">
    <path clip-path="url(#pf99086d254)" d="M 225.926208 252 
L 226.7404 252 
L 226.7404 252 
L 225.926208 252 
z
" style="fill:#88c9c1;"/>
   </g>
   <g id="patch_182">
    <path clip-path="url(#pf99086d254)" d="M 226.7404 252 
L 227.554593 252 
L 227.554593 252 
L 226.7404 252 
z
" style="fill:#88c9c1;"/>
   </g>
   <g id="patch_183">
    <path clip-path="url(#pf99086d254)" d="M 227.554593 252 
L 228.368785 252 
L 228.368785 252 
L 227.554593 252 
z
" style="fill:#88c9c1;"/>
   </g>
   <g id="patch_184">
    <path clip-path="url(#pf99086d254)" d="M 228.368785 252 
L 229.182977 252 
L 229.182977 252 
L 228.368785 252 
z
" style="fill:#88c9c1;"/>
   </g>
   <g id="patch_185">
    <path clip-path="url(#pf99086d254)" d="M 229.182977 252 
L 229.997169 252 
L 229.997169 252 
L 229.182977 252 
z
" style="fill:#88c9c1;"/>
   </g>
   <g id="patch_186">
    <path clip-path="url(#pf99086d254)" d="M 229.997169 252 
L 230.811361 252 
L 230.811361 252 
L 229.997169 252 
z
" style="fill:#88c9c1;"/>
   </g>
   <g id="patch_187">
    <path clip-path="url(#pf99086d254)" d="M 230.811361 252 
L 231.625553 252 
L 231.625553 252 
L 230.811361 252 
z
" style="fill:#88c9c1;"/>
   </g>
   <g id="patch_188">
    <path clip-path="url(#pf99086d254)" d="M 231.625553 252 
L 232.439746 252 
L 232.439746 251.823907 
L 231.625553 251.823907 
z
" style="fill:#88c9c1;"/>
   </g>
   <g id="patch_189">
    <path clip-path="url(#pf99086d254)" d="M 232.439746 252 
L 233.253938 252 
L 233.253938 252 
L 232.439746 252 
z
" style="fill:#88c9c1;"/>
   </g>
   <g id="patch_190">
    <path clip-path="url(#pf99086d254)" d="M 233.253938 252 
L 234.06813 252 
L 234.06813 252 
L 233.253938 252 
z
" style="fill:#88c9c1;"/>
   </g>
   <g id="patch_191">
    <path clip-path="url(#pf99086d254)" d="M 234.06813 252 
L 234.882322 252 
L 234.882322 252 
L 234.06813 252 
z
" style="fill:#88c9c1;"/>
   </g>
   <g id="patch_192">
    <path clip-path="url(#pf99086d254)" d="M 234.882322 252 
L 235.696514 252 
L 235.696514 252 
L 234.882322 252 
z
" style="fill:#88c9c1;"/>
   </g>
   <g id="patch_193">
    <path clip-path="url(#pf99086d254)" d="M 235.696514 252 
L 236.510706 252 
L 236.510706 252 
L 235.696514 252 
z
" style="fill:#88c9c1;"/>
   </g>
   <g id="patch_194">
    <path clip-path="url(#pf99086d254)" d="M 236.510706 252 
L 237.324899 252 
L 237.324899 252 
L 236.510706 252 
z
" style="fill:#88c9c1;"/>
   </g>
   <g id="patch_195">
    <path clip-path="url(#pf99086d254)" d="M 237.324899 252 
L 238.139091 252 
L 238.139091 252 
L 237.324899 252 
z
" style="fill:#88c9c1;"/>
   </g>
   <g id="patch_196">
    <path clip-path="url(#pf99086d254)" d="M 238.139091 252 
L 238.953283 252 
L 238.953283 252 
L 238.139091 252 
z
" style="fill:#88c9c1;"/>
   </g>
   <g id="patch_197">
    <path clip-path="url(#pf99086d254)" d="M 238.953283 252 
L 239.767475 252 
L 239.767475 252 
L 238.953283 252 
z
" style="fill:#88c9c1;"/>
   </g>
   <g id="patch_198">
    <path clip-path="url(#pf99086d254)" d="M 239.767475 252 
L 240.581667 252 
L 240.581667 252 
L 239.767475 252 
z
" style="fill:#88c9c1;"/>
   </g>
   <g id="patch_199">
    <path clip-path="url(#pf99086d254)" d="M 240.581667 252 
L 241.39586 252 
L 241.39586 252 
L 240.581667 252 
z
" style="fill:#88c9c1;"/>
   </g>
   <g id="patch_200">
    <path clip-path="url(#pf99086d254)" d="M 241.39586 252 
L 242.210052 252 
L 242.210052 252 
L 241.39586 252 
z
" style="fill:#88c9c1;"/>
   </g>
   <g id="patch_201">
    <path clip-path="url(#pf99086d254)" d="M 242.210052 252 
L 243.024244 252 
L 243.024244 252 
L 242.210052 252 
z
" style="fill:#88c9c1;"/>
   </g>
   <g id="patch_202">
    <path clip-path="url(#pf99086d254)" d="M 243.024244 252 
L 243.838436 252 
L 243.838436 252 
L 243.024244 252 
z
" style="fill:#88c9c1;"/>
   </g>
   <g id="patch_203">
    <path clip-path="url(#pf99086d254)" d="M 243.838436 252 
L 244.652628 252 
L 244.652628 252 
L 243.838436 252 
z
" style="fill:#88c9c1;"/>
   </g>
   <g id="patch_204">
    <path clip-path="url(#pf99086d254)" d="M 244.652628 252 
L 245.46682 252 
L 245.46682 252 
L 244.652628 252 
z
" style="fill:#88c9c1;"/>
   </g>
   <g id="patch_205">
    <path clip-path="url(#pf99086d254)" d="M 245.46682 252 
L 246.281013 252 
L 246.281013 251.823907 
L 245.46682 251.823907 
z
" style="fill:#88c9c1;"/>
   </g>
   <g id="matplotlib.axis_1">
    <g id="xtick_1">
     <g id="line2d_1">
      <defs>
       <path d="M 0 0 
L 0 3.5 
" id="mb575e2fee1" style="stroke:#d2d2d2;stroke-width:0.8;"/>
      </defs>
      <g>
       <use style="fill:#d2d2d2;stroke:#d2d2d2;stroke-width:0.8;" x="81" xlink:href="#mb575e2fee1" y="252"/>
      </g>
     </g>
     <g id="text_1">
      <!-- $\mathdefault{0}$ -->
      <defs>
       <path d="M 31.78125 3.421875 
Q 39.265625 3.421875 42.96875 11.625 
Q 46.6875 19.828125 46.6875 36.375 
Q 46.6875 52.984375 42.96875 61.1875 
Q 39.265625 69.390625 31.78125 69.390625 
Q 24.3125 69.390625 20.59375 61.1875 
Q 16.890625 52.984375 16.890625 36.375 
Q 16.890625 19.828125 20.59375 11.625 
Q 24.3125 3.421875 31.78125 3.421875 
z
M 31.78125 -1.421875 
Q 19.921875 -1.421875 13.25 8.53125 
Q 6.59375 18.5 6.59375 36.375 
Q 6.59375 54.296875 13.25 64.25 
Q 19.921875 74.21875 31.78125 74.21875 
Q 43.703125 74.21875 50.34375 64.25 
Q 56.984375 54.296875 56.984375 36.375 
Q 56.984375 18.5 50.34375 8.53125 
Q 43.703125 -1.421875 31.78125 -1.421875 
z
" id="DejaVuSerif-30"/>
      </defs>
      <g style="fill:#d2d2d2;" transform="translate(76.84 268.877969)scale(0.13 -0.13)">
       <use transform="translate(0 0.78125)" xlink:href="#DejaVuSerif-30"/>
      </g>
     </g>
    </g>
    <g id="xtick_2">
     <g id="line2d_2">
      <g>
       <use style="fill:#d2d2d2;stroke:#d2d2d2;stroke-width:0.8;" x="162" xlink:href="#mb575e2fee1" y="252"/>
      </g>
     </g>
     <g id="text_2">
      <!-- $\mathdefault{5}$ -->
      <defs>
       <path d="M 50.296875 72.90625 
L 50.296875 64.890625 
L 16.890625 64.890625 
L 16.890625 44 
Q 19.4375 45.75 22.828125 46.625 
Q 26.21875 47.515625 30.421875 47.515625 
Q 42.234375 47.515625 49.0625 40.96875 
Q 55.90625 34.421875 55.90625 23.09375 
Q 55.90625 11.53125 49 5.046875 
Q 42.09375 -1.421875 29.59375 -1.421875 
Q 24.5625 -1.421875 19.28125 -0.1875 
Q 14.015625 1.03125 8.5 3.515625 
L 8.5 17.671875 
L 14.015625 17.671875 
Q 14.453125 10.75 18.421875 7.078125 
Q 22.40625 3.421875 29.59375 3.421875 
Q 37.3125 3.421875 41.453125 8.5 
Q 45.609375 13.578125 45.609375 23.09375 
Q 45.609375 32.5625 41.484375 37.609375 
Q 37.359375 42.671875 29.59375 42.671875 
Q 25.203125 42.671875 21.84375 41.109375 
Q 18.5 39.546875 15.921875 36.28125 
L 11.71875 36.28125 
L 11.71875 72.90625 
z
" id="DejaVuSerif-35"/>
      </defs>
      <g style="fill:#d2d2d2;" transform="translate(157.84 268.877969)scale(0.13 -0.13)">
       <use transform="translate(0 0.09375)" xlink:href="#DejaVuSerif-35"/>
      </g>
     </g>
    </g>
    <g id="xtick_3">
     <g id="line2d_3">
      <g>
       <use style="fill:#d2d2d2;stroke:#d2d2d2;stroke-width:0.8;" x="243" xlink:href="#mb575e2fee1" y="252"/>
      </g>
     </g>
     <g id="text_3">
      <!-- $\mathdefault{10}$ -->
      <defs>
       <path d="M 14.203125 0 
L 14.203125 5.171875 
L 26.90625 5.171875 
L 26.90625 65.828125 
L 12.203125 56.296875 
L 12.203125 62.703125 
L 29.984375 74.21875 
L 36.71875 74.21875 
L 36.71875 5.171875 
L 49.421875 5.171875 
L 49.421875 0 
z
" id="DejaVuSerif-31"/>
      </defs>
      <g style="fill:#d2d2d2;" transform="translate(234.68 268.877969)scale(0.13 -0.13)">
       <use transform="translate(0 0.78125)" xlink:href="#DejaVuSerif-31"/>
       <use transform="translate(63.623047 0.78125)" xlink:href="#DejaVuSerif-30"/>
      </g>
     </g>
    </g>
    <g id="xtick_4">
     <g id="line2d_4">
      <g>
       <use style="fill:#d2d2d2;stroke:#d2d2d2;stroke-width:0.8;" x="324" xlink:href="#mb575e2fee1" y="252"/>
      </g>
     </g>
     <g id="text_4">
      <!-- $\mathdefault{15}$ -->
      <g style="fill:#d2d2d2;" transform="translate(315.68 268.877969)scale(0.13 -0.13)">
       <use transform="translate(0 0.78125)" xlink:href="#DejaVuSerif-31"/>
       <use transform="translate(63.623047 0.78125)" xlink:href="#DejaVuSerif-35"/>
      </g>
     </g>
    </g>
    <g id="xtick_5">
     <g id="line2d_5">
      <g>
       <use style="fill:#d2d2d2;stroke:#d2d2d2;stroke-width:0.8;" x="405" xlink:href="#mb575e2fee1" y="252"/>
      </g>
     </g>
     <g id="text_5">
      <!-- $\mathdefault{20}$ -->
      <defs>
       <path d="M 12.796875 55.515625 
L 7.328125 55.515625 
L 7.328125 68.5 
Q 12.546875 71.296875 17.84375 72.75 
Q 23.140625 74.21875 28.21875 74.21875 
Q 39.59375 74.21875 46.1875 68.703125 
Q 52.78125 63.1875 52.78125 53.71875 
Q 52.78125 43.015625 37.84375 28.125 
Q 36.671875 27 36.078125 26.421875 
L 17.671875 8.015625 
L 48.09375 8.015625 
L 48.09375 17 
L 53.8125 17 
L 53.8125 0 
L 6.78125 0 
L 6.78125 5.328125 
L 28.90625 27.390625 
Q 36.234375 34.71875 39.359375 40.84375 
Q 42.484375 46.96875 42.484375 53.71875 
Q 42.484375 61.078125 38.640625 65.234375 
Q 34.8125 69.390625 28.078125 69.390625 
Q 21.09375 69.390625 17.28125 65.921875 
Q 13.484375 62.453125 12.796875 55.515625 
z
" id="DejaVuSerif-32"/>
      </defs>
      <g style="fill:#d2d2d2;" transform="translate(396.68 268.877969)scale(0.13 -0.13)">
       <use transform="translate(0 0.78125)" xlink:href="#DejaVuSerif-32"/>
       <use transform="translate(63.623047 0.78125)" xlink:href="#DejaVuSerif-30"/>
      </g>
     </g>
    </g>
    <g id="xtick_6">
     <g id="line2d_6">
      <g>
       <use style="fill:#d2d2d2;stroke:#d2d2d2;stroke-width:0.8;" x="486" xlink:href="#mb575e2fee1" y="252"/>
      </g>
     </g>
     <g id="text_6">
      <!-- $\mathdefault{25}$ -->
      <g style="fill:#d2d2d2;" transform="translate(477.68 268.877969)scale(0.13 -0.13)">
       <use transform="translate(0 0.78125)" xlink:href="#DejaVuSerif-32"/>
       <use transform="translate(63.623047 0.78125)" xlink:href="#DejaVuSerif-35"/>
      </g>
     </g>
    </g>
    <g id="xtick_7">
     <g id="line2d_7">
      <g>
       <use style="fill:#d2d2d2;stroke:#d2d2d2;stroke-width:0.8;" x="567" xlink:href="#mb575e2fee1" y="252"/>
      </g>
     </g>
     <g id="text_7">
      <!-- $\mathdefault{30}$ -->
      <defs>
       <path d="M 9.71875 69.828125 
Q 15.4375 71.96875 20.671875 73.09375 
Q 25.921875 74.21875 30.515625 74.21875 
Q 41.21875 74.21875 47.21875 69.59375 
Q 53.21875 64.984375 53.21875 56.78125 
Q 53.21875 50.203125 49.0625 45.78125 
Q 44.921875 41.359375 37.3125 39.796875 
Q 46.296875 38.53125 51.25 33.28125 
Q 56.203125 28.03125 56.203125 19.671875 
Q 56.203125 9.46875 49.34375 4.015625 
Q 42.484375 -1.421875 29.59375 -1.421875 
Q 23.875 -1.421875 18.421875 -0.1875 
Q 12.984375 1.03125 7.625 3.515625 
L 7.625 17.671875 
L 13.09375 17.671875 
Q 13.578125 10.640625 17.828125 7.03125 
Q 22.078125 3.421875 29.78125 3.421875 
Q 37.25 3.421875 41.578125 7.734375 
Q 45.90625 12.0625 45.90625 19.578125 
Q 45.90625 28.171875 41.453125 32.59375 
Q 37.015625 37.015625 28.421875 37.015625 
L 23.78125 37.015625 
L 23.78125 42 
L 26.21875 42 
Q 34.765625 42 39.03125 45.53125 
Q 43.3125 49.078125 43.3125 56.203125 
Q 43.3125 62.59375 39.796875 65.984375 
Q 36.28125 69.390625 29.6875 69.390625 
Q 23.09375 69.390625 19.453125 66.265625 
Q 15.828125 63.140625 15.1875 56.984375 
L 9.71875 56.984375 
z
" id="DejaVuSerif-33"/>
      </defs>
      <g style="fill:#d2d2d2;" transform="translate(558.68 268.877969)scale(0.13 -0.13)">
       <use transform="translate(0 0.78125)" xlink:href="#DejaVuSerif-33"/>
       <use transform="translate(63.623047 0.78125)" xlink:href="#DejaVuSerif-30"/>
      </g>
     </g>
    </g>
    <g id="text_8">
     <!-- Bootstrap $\mathcal{F}-Distribution$ -->
     <defs>
      <path d="M 24.703125 5.171875 
L 39.3125 5.171875 
Q 48.09375 5.171875 52.140625 8.984375 
Q 56.203125 12.796875 56.203125 21.09375 
Q 56.203125 29.34375 52.171875 33.125 
Q 48.140625 36.921875 39.3125 36.921875 
L 24.703125 36.921875 
z
M 24.703125 42.09375 
L 37.109375 42.09375 
Q 45.125 42.09375 48.796875 45.171875 
Q 52.484375 48.25 52.484375 54.890625 
Q 52.484375 61.578125 48.796875 64.625 
Q 45.125 67.671875 37.109375 67.671875 
L 24.703125 67.671875 
z
M 5.515625 0 
L 5.515625 5.171875 
L 14.796875 5.171875 
L 14.796875 67.671875 
L 5.515625 67.671875 
L 5.515625 72.90625 
L 41.5 72.90625 
Q 52.546875 72.90625 58.125 68.390625 
Q 63.71875 63.875 63.71875 54.890625 
Q 63.71875 48.390625 59.828125 44.53125 
Q 55.953125 40.671875 48.484375 39.796875 
Q 57.765625 38.625 62.578125 33.859375 
Q 67.390625 29.109375 67.390625 21.09375 
Q 67.390625 10.25 60.546875 5.125 
Q 53.71875 0 39.203125 0 
z
" id="DejaVuSerif-42"/>
      <path d="M 30.078125 3.421875 
Q 37.3125 3.421875 40.984375 9.125 
Q 44.671875 14.84375 44.671875 25.984375 
Q 44.671875 37.109375 40.984375 42.796875 
Q 37.3125 48.484375 30.078125 48.484375 
Q 22.859375 48.484375 19.171875 42.796875 
Q 15.484375 37.109375 15.484375 25.984375 
Q 15.484375 14.84375 19.1875 9.125 
Q 22.90625 3.421875 30.078125 3.421875 
z
M 30.078125 -1.421875 
Q 18.75 -1.421875 11.859375 6.078125 
Q 4.984375 13.578125 4.984375 25.984375 
Q 4.984375 38.375 11.84375 45.84375 
Q 18.703125 53.328125 30.078125 53.328125 
Q 41.453125 53.328125 48.3125 45.84375 
Q 55.171875 38.375 55.171875 25.984375 
Q 55.171875 13.578125 48.3125 6.078125 
Q 41.453125 -1.421875 30.078125 -1.421875 
z
" id="DejaVuSerif-6f"/>
      <path d="M 10.796875 46.6875 
L 2.875 46.6875 
L 2.875 51.90625 
L 10.796875 51.90625 
L 10.796875 68.015625 
L 19.828125 68.015625 
L 19.828125 51.90625 
L 36.71875 51.90625 
L 36.71875 46.6875 
L 19.828125 46.6875 
L 19.828125 13.71875 
Q 19.828125 7.125 21.09375 5.265625 
Q 22.359375 3.421875 25.78125 3.421875 
Q 29.296875 3.421875 30.90625 5.484375 
Q 32.515625 7.5625 32.625 12.203125 
L 39.40625 12.203125 
Q 39.015625 5.125 35.546875 1.84375 
Q 32.078125 -1.421875 25 -1.421875 
Q 17.234375 -1.421875 14.015625 2.015625 
Q 10.796875 5.46875 10.796875 13.71875 
z
" id="DejaVuSerif-74"/>
      <path d="M 5.609375 2.875 
L 5.609375 14.984375 
L 10.796875 14.984375 
Q 10.984375 9.1875 14.421875 6.296875 
Q 17.875 3.421875 24.609375 3.421875 
Q 30.671875 3.421875 33.84375 5.6875 
Q 37.015625 7.953125 37.015625 12.3125 
Q 37.015625 15.71875 34.6875 17.8125 
Q 32.375 19.921875 24.90625 22.3125 
L 18.40625 24.515625 
Q 11.71875 26.65625 8.71875 29.875 
Q 5.71875 33.109375 5.71875 38.09375 
Q 5.71875 45.21875 10.9375 49.265625 
Q 16.15625 53.328125 25.390625 53.328125 
Q 29.5 53.328125 34.03125 52.25 
Q 38.578125 51.171875 43.40625 49.125 
L 43.40625 37.796875 
L 38.234375 37.796875 
Q 38.03125 42.828125 34.703125 45.65625 
Q 31.390625 48.484375 25.6875 48.484375 
Q 20.015625 48.484375 17.109375 46.484375 
Q 14.203125 44.484375 14.203125 40.484375 
Q 14.203125 37.203125 16.40625 35.21875 
Q 18.609375 33.25 25.203125 31.203125 
L 32.328125 29 
Q 39.703125 26.703125 42.9375 23.265625 
Q 46.1875 19.828125 46.1875 14.40625 
Q 46.1875 7.03125 40.546875 2.796875 
Q 34.90625 -1.421875 25 -1.421875 
Q 19.96875 -1.421875 15.1875 -0.34375 
Q 10.40625 0.734375 5.609375 2.875 
z
" id="DejaVuSerif-73"/>
      <path d="M 47.796875 52 
L 47.796875 39.015625 
L 42.625 39.015625 
Q 42.390625 42.875 40.484375 44.78125 
Q 38.578125 46.6875 34.90625 46.6875 
Q 28.265625 46.6875 24.71875 42.09375 
Q 21.1875 37.5 21.1875 28.90625 
L 21.1875 5.171875 
L 31.59375 5.171875 
L 31.59375 0 
L 4.109375 0 
L 4.109375 5.171875 
L 12.203125 5.171875 
L 12.203125 46.78125 
L 3.609375 46.78125 
L 3.609375 51.90625 
L 21.1875 51.90625 
L 21.1875 42.671875 
Q 23.828125 48.09375 27.96875 50.703125 
Q 32.125 53.328125 38.09375 53.328125 
Q 40.28125 53.328125 42.703125 52.984375 
Q 45.125 52.640625 47.796875 52 
z
" id="DejaVuSerif-72"/>
      <path d="M 39.796875 16.3125 
L 39.796875 27.296875 
L 28.21875 27.296875 
Q 21.53125 27.296875 18.25 24.40625 
Q 14.984375 21.53125 14.984375 15.578125 
Q 14.984375 10.15625 18.296875 6.984375 
Q 21.625 3.8125 27.296875 3.8125 
Q 32.90625 3.8125 36.34375 7.28125 
Q 39.796875 10.75 39.796875 16.3125 
z
M 48.78125 32.421875 
L 48.78125 5.171875 
L 56.78125 5.171875 
L 56.78125 0 
L 39.796875 0 
L 39.796875 5.609375 
Q 36.8125 2 32.90625 0.28125 
Q 29 -1.421875 23.78125 -1.421875 
Q 15.140625 -1.421875 10.0625 3.171875 
Q 4.984375 7.765625 4.984375 15.578125 
Q 4.984375 23.640625 10.796875 28.078125 
Q 16.609375 32.515625 27.203125 32.515625 
L 39.796875 32.515625 
L 39.796875 36.078125 
Q 39.796875 42 36.203125 45.234375 
Q 32.625 48.484375 26.125 48.484375 
Q 20.75 48.484375 17.578125 46.046875 
Q 14.40625 43.609375 13.625 38.8125 
L 8.984375 38.8125 
L 8.984375 49.3125 
Q 13.671875 51.3125 18.09375 52.3125 
Q 22.515625 53.328125 26.703125 53.328125 
Q 37.5 53.328125 43.140625 47.96875 
Q 48.78125 42.625 48.78125 32.421875 
z
" id="DejaVuSerif-61"/>
      <path d="M 20.515625 28.515625 
L 20.515625 23.390625 
Q 20.515625 14.015625 24.09375 9.109375 
Q 27.6875 4.203125 34.515625 4.203125 
Q 41.40625 4.203125 44.9375 9.71875 
Q 48.484375 15.234375 48.484375 25.984375 
Q 48.484375 36.765625 44.9375 42.234375 
Q 41.40625 47.703125 34.515625 47.703125 
Q 27.6875 47.703125 24.09375 42.765625 
Q 20.515625 37.84375 20.515625 28.515625 
z
M 11.53125 46.6875 
L 2.875 46.6875 
L 2.875 51.90625 
L 20.515625 51.90625 
L 20.515625 43.796875 
Q 23.140625 48.6875 27.21875 51 
Q 31.296875 53.328125 37.3125 53.328125 
Q 46.875 53.328125 52.921875 45.75 
Q 58.984375 38.1875 58.984375 25.984375 
Q 58.984375 13.765625 52.921875 6.171875 
Q 46.875 -1.421875 37.3125 -1.421875 
Q 31.296875 -1.421875 27.21875 0.890625 
Q 23.140625 3.21875 20.515625 8.109375 
L 20.515625 -15.578125 
L 29 -15.578125 
L 29 -20.796875 
L 2.875 -20.796875 
L 2.875 -15.578125 
L 11.53125 -15.578125 
z
" id="DejaVuSerif-70"/>
      <path id="DejaVuSerif-20"/>
      <path d="M 5.90625 53.40625 
L 4.296875 55.203125 
Q 11.40625 61.796875 18.34375 64 
Q 25.296875 66.203125 33.796875 66.203125 
Q 42.40625 66.203125 48.59375 65.75 
Q 54.796875 65.296875 60.140625 64.046875 
Q 65.5 62.796875 68.25 60.4375 
Q 71 58.09375 71 54.5 
Q 71 51.09375 69.203125 48.796875 
Q 67.40625 46.5 64.203125 46.5 
Q 61.90625 46.5 60.203125 47.84375 
Q 58.5 49.203125 58.5 51.203125 
Q 58.5 53.09375 59.25 54.140625 
Q 60 55.203125 60.890625 55.453125 
Q 61.796875 55.703125 62.5 56.140625 
Q 63.203125 56.59375 63.203125 57.5 
Q 63.203125 59.5 57.75 60.84375 
Q 52.296875 62.203125 45.203125 62.203125 
Q 42.09375 62.203125 40.75 61.25 
Q 39.40625 60.296875 38.5 57.296875 
L 32.796875 37.703125 
L 54.59375 37.703125 
L 53.296875 33.703125 
L 31.703125 33.703125 
L 27.296875 18.796875 
Q 25.40625 12.296875 23.296875 8.390625 
Q 21.203125 4.5 18.34375 2.703125 
Q 15.5 0.90625 12.953125 0.453125 
Q 10.40625 0 6 0 
L 6.796875 2.40625 
Q 9.5 2.40625 11.34375 4.5 
Q 13.203125 6.59375 14.59375 11.59375 
L 26.40625 52.09375 
Q 27.40625 55.59375 27.40625 57.296875 
Q 27.40625 59 26.40625 59.796875 
Q 25.40625 60.59375 22.796875 60.59375 
Q 13.40625 60.59375 5.90625 53.40625 
z
" id="STIXNonUnicode-Italic-e232"/>
      <path d="M 10.59375 35.5 
L 73.1875 35.5 
L 73.1875 27.203125 
L 10.59375 27.203125 
z
" id="DejaVuSans-2212"/>
      <path d="M 16.890625 72.90625 
L 38.09375 72.90625 
Q 54.984375 72.90625 63.59375 65.75 
Q 72.21875 58.59375 72.21875 44.484375 
Q 72.21875 35.15625 68.9375 26.53125 
Q 65.671875 17.921875 59.90625 12.015625 
Q 54.109375 5.953125 45.171875 2.96875 
Q 36.234375 0 24.03125 0 
L 2.6875 0 
z
M 25.203125 64.796875 
L 14.203125 8.109375 
L 27.09375 8.109375 
Q 43.65625 8.109375 52.734375 17.625 
Q 61.8125 27.15625 61.8125 44.484375 
Q 61.8125 54.984375 55.953125 59.890625 
Q 50.09375 64.796875 37.59375 64.796875 
z
" id="DejaVuSans-Oblique-44"/>
      <path d="M 18.3125 75.984375 
L 27.296875 75.984375 
L 25.09375 64.59375 
L 16.109375 64.59375 
z
M 14.203125 54.6875 
L 23.1875 54.6875 
L 12.5 0 
L 3.515625 0 
z
" id="DejaVuSans-Oblique-69"/>
      <path d="M 50 53.078125 
L 48.296875 44.578125 
Q 44.734375 46.53125 40.765625 47.5 
Q 36.8125 48.484375 32.625 48.484375 
Q 25.53125 48.484375 21.453125 46.0625 
Q 17.390625 43.65625 17.390625 39.5 
Q 17.390625 34.671875 26.859375 32.078125 
Q 27.59375 31.890625 27.9375 31.78125 
L 30.8125 30.90625 
Q 39.796875 28.421875 42.796875 25.6875 
Q 45.796875 22.953125 45.796875 18.21875 
Q 45.796875 9.515625 38.890625 4.046875 
Q 31.984375 -1.421875 20.796875 -1.421875 
Q 16.453125 -1.421875 11.671875 -0.578125 
Q 6.890625 0.25 1.125 2 
L 2.875 11.28125 
Q 7.8125 8.734375 12.59375 7.421875 
Q 17.390625 6.109375 21.78125 6.109375 
Q 28.375 6.109375 32.5 8.9375 
Q 36.625 11.765625 36.625 16.109375 
Q 36.625 20.796875 25.78125 23.6875 
L 24.859375 23.921875 
L 21.78125 24.703125 
Q 14.9375 26.515625 11.765625 29.46875 
Q 8.59375 32.421875 8.59375 37.015625 
Q 8.59375 45.75 15.15625 50.875 
Q 21.734375 56 33.015625 56 
Q 37.453125 56 41.671875 55.265625 
Q 45.90625 54.546875 50 53.078125 
z
" id="DejaVuSans-Oblique-73"/>
      <path d="M 42.28125 54.6875 
L 40.921875 47.703125 
L 23 47.703125 
L 17.1875 18.015625 
Q 16.890625 16.359375 16.75 15.234375 
Q 16.609375 14.109375 16.609375 13.484375 
Q 16.609375 10.359375 18.484375 8.9375 
Q 20.359375 7.515625 24.515625 7.515625 
L 33.59375 7.515625 
L 32.078125 0 
L 23.484375 0 
Q 15.484375 0 11.546875 3.125 
Q 7.625 6.25 7.625 12.59375 
Q 7.625 13.71875 7.765625 15.0625 
Q 7.90625 16.40625 8.203125 18.015625 
L 14.015625 47.703125 
L 6.390625 47.703125 
L 7.8125 54.6875 
L 15.28125 54.6875 
L 18.3125 70.21875 
L 27.296875 70.21875 
L 24.3125 54.6875 
z
" id="DejaVuSans-Oblique-74"/>
      <path d="M 44.578125 46.390625 
Q 43.21875 47.125 41.453125 47.515625 
Q 39.703125 47.90625 37.703125 47.90625 
Q 30.515625 47.90625 25.140625 42.453125 
Q 19.78125 37.015625 18.015625 27.875 
L 12.5 0 
L 3.515625 0 
L 14.203125 54.6875 
L 23.1875 54.6875 
L 21.484375 46.1875 
Q 25.046875 50.921875 30 53.453125 
Q 34.96875 56 40.578125 56 
Q 42.046875 56 43.453125 55.828125 
Q 44.875 55.671875 46.296875 55.28125 
z
" id="DejaVuSans-Oblique-72"/>
      <path d="M 49.515625 33.40625 
Q 49.515625 40.484375 46.265625 44.484375 
Q 43.015625 48.484375 37.3125 48.484375 
Q 33.15625 48.484375 29.515625 46.453125 
Q 25.875 44.4375 23.1875 40.578125 
Q 20.359375 36.53125 18.71875 31.171875 
Q 17.09375 25.828125 17.09375 20.515625 
Q 17.09375 13.765625 20.28125 9.9375 
Q 23.484375 6.109375 29.109375 6.109375 
Q 33.34375 6.109375 36.953125 8.078125 
Q 40.578125 10.0625 43.3125 13.921875 
Q 46.09375 17.921875 47.796875 23.234375 
Q 49.515625 28.5625 49.515625 33.40625 
z
M 21.578125 46.390625 
Q 24.90625 50.875 29.90625 53.4375 
Q 34.90625 56 40.375 56 
Q 48.78125 56 53.734375 50.328125 
Q 58.6875 44.671875 58.6875 35.015625 
Q 58.6875 27.09375 55.78125 19.671875 
Q 52.875 12.25 47.515625 6.5 
Q 44 2.6875 39.40625 0.625 
Q 34.8125 -1.421875 29.78125 -1.421875 
Q 24.46875 -1.421875 20.5625 1.015625 
Q 16.65625 3.46875 14.203125 8.296875 
L 12.59375 0 
L 3.609375 0 
L 18.40625 75.984375 
L 27.390625 75.984375 
z
" id="DejaVuSans-Oblique-62"/>
      <path d="M 6.6875 21.6875 
L 13.09375 54.6875 
L 22.125 54.6875 
L 15.71875 22.015625 
Q 15.234375 19.625 15.015625 17.921875 
Q 14.796875 16.21875 14.796875 15.09375 
Q 14.796875 10.9375 17.328125 8.65625 
Q 19.875 6.390625 24.515625 6.390625 
Q 31.734375 6.390625 37 11.265625 
Q 42.28125 16.15625 43.890625 24.421875 
L 49.90625 54.6875 
L 58.890625 54.6875 
L 48.296875 0 
L 39.3125 0 
L 41.109375 8.59375 
Q 37.3125 3.8125 32.0625 1.1875 
Q 26.8125 -1.421875 20.90625 -1.421875 
Q 13.71875 -1.421875 9.71875 2.515625 
Q 5.71875 6.453125 5.71875 13.484375 
Q 5.71875 14.9375 5.953125 17.140625 
Q 6.203125 19.34375 6.6875 21.6875 
z
" id="DejaVuSans-Oblique-75"/>
      <path d="M 25.390625 -1.421875 
Q 15.765625 -1.421875 10.171875 4.515625 
Q 4.59375 10.453125 4.59375 20.703125 
Q 4.59375 26.65625 6.515625 32.828125 
Q 8.453125 39.015625 11.53125 43.21875 
Q 16.359375 49.75 22.3125 52.875 
Q 28.265625 56 35.796875 56 
Q 45.125 56 50.859375 50.1875 
Q 56.59375 44.390625 56.59375 35.015625 
Q 56.59375 28.515625 54.6875 22.0625 
Q 52.78125 15.625 49.703125 11.375 
Q 44.921875 4.828125 38.96875 1.703125 
Q 33.015625 -1.421875 25.390625 -1.421875 
z
M 13.921875 21 
Q 13.921875 13.578125 17.015625 9.890625 
Q 20.125 6.203125 26.421875 6.203125 
Q 35.453125 6.203125 41.375 14.078125 
Q 47.3125 21.96875 47.3125 34.078125 
Q 47.3125 41.15625 44.140625 44.765625 
Q 40.96875 48.390625 34.8125 48.390625 
Q 29.734375 48.390625 25.78125 46.015625 
Q 21.828125 43.65625 18.703125 38.8125 
Q 16.40625 35.203125 15.15625 30.5625 
Q 13.921875 25.921875 13.921875 21 
z
" id="DejaVuSans-Oblique-6f"/>
      <path d="M 55.71875 33.015625 
L 49.3125 0 
L 40.28125 0 
L 46.6875 32.671875 
Q 47.125 34.96875 47.359375 36.71875 
Q 47.609375 38.484375 47.609375 39.5 
Q 47.609375 43.609375 45.015625 45.890625 
Q 42.4375 48.1875 37.796875 48.1875 
Q 30.5625 48.1875 25.34375 43.375 
Q 20.125 38.578125 18.5 30.328125 
L 12.5 0 
L 3.515625 0 
L 14.109375 54.6875 
L 23.09375 54.6875 
L 21.296875 46.09375 
Q 25.046875 50.828125 30.3125 53.40625 
Q 35.59375 56 41.40625 56 
Q 48.640625 56 52.609375 52.09375 
Q 56.59375 48.1875 56.59375 41.109375 
Q 56.59375 39.359375 56.375 37.359375 
Q 56.15625 35.359375 55.71875 33.015625 
z
" id="DejaVuSans-Oblique-6e"/>
     </defs>
     <g style="fill:#d2d2d2;" transform="translate(215.01 289.261563)scale(0.18 -0.18)">
      <use transform="translate(0 0.015625)" xlink:href="#DejaVuSerif-42"/>
      <use transform="translate(73.486328 0.015625)" xlink:href="#DejaVuSerif-6f"/>
      <use transform="translate(133.691406 0.015625)" xlink:href="#DejaVuSerif-6f"/>
      <use transform="translate(193.896484 0.015625)" xlink:href="#DejaVuSerif-74"/>
      <use transform="translate(234.082031 0.015625)" xlink:href="#DejaVuSerif-73"/>
      <use transform="translate(285.400391 0.015625)" xlink:href="#DejaVuSerif-74"/>
      <use transform="translate(325.585938 0.015625)" xlink:href="#DejaVuSerif-72"/>
      <use transform="translate(373.388672 0.015625)" xlink:href="#DejaVuSerif-61"/>
      <use transform="translate(433.007812 0.015625)" xlink:href="#DejaVuSerif-70"/>
      <use transform="translate(497.021484 0.015625)" xlink:href="#DejaVuSerif-20"/>
      <use transform="translate(528.808594 0.015625)" xlink:href="#STIXNonUnicode-Italic-e232"/>
      <use transform="translate(613.491013 0.015625)" xlink:href="#DejaVuSans-2212"/>
      <use transform="translate(716.762497 0.015625)" xlink:href="#DejaVuSans-Oblique-44"/>
      <use transform="translate(793.76445 0.015625)" xlink:href="#DejaVuSans-Oblique-69"/>
      <use transform="translate(821.547653 0.015625)" xlink:href="#DejaVuSans-Oblique-73"/>
      <use transform="translate(873.647263 0.015625)" xlink:href="#DejaVuSans-Oblique-74"/>
      <use transform="translate(912.856247 0.015625)" xlink:href="#DejaVuSans-Oblique-72"/>
      <use transform="translate(953.969528 0.015625)" xlink:href="#DejaVuSans-Oblique-69"/>
      <use transform="translate(981.752731 0.015625)" xlink:href="#DejaVuSans-Oblique-62"/>
      <use transform="translate(1045.229294 0.015625)" xlink:href="#DejaVuSans-Oblique-75"/>
      <use transform="translate(1108.6082 0.015625)" xlink:href="#DejaVuSans-Oblique-74"/>
      <use transform="translate(1147.817184 0.015625)" xlink:href="#DejaVuSans-Oblique-69"/>
      <use transform="translate(1175.600388 0.015625)" xlink:href="#DejaVuSans-Oblique-6f"/>
      <use transform="translate(1236.782028 0.015625)" xlink:href="#DejaVuSans-Oblique-6e"/>
     </g>
    </g>
   </g>
   <g id="matplotlib.axis_2">
    <g id="ytick_1">
     <g id="line2d_8">
      <defs>
       <path d="M 0 0 
L -3.5 0 
" id="m312349119c" style="stroke:#d2d2d2;stroke-width:0.8;"/>
      </defs>
      <g>
       <use style="fill:#d2d2d2;stroke:#d2d2d2;stroke-width:0.8;" x="81" xlink:href="#m312349119c" y="252"/>
      </g>
     </g>
     <g id="text_9">
      <!-- $\mathdefault{0.0}$ -->
      <defs>
       <path d="M 9.421875 5.078125 
Q 9.421875 7.8125 11.28125 9.71875 
Q 13.140625 11.625 15.921875 11.625 
Q 18.609375 11.625 20.5 9.71875 
Q 22.40625 7.8125 22.40625 5.078125 
Q 22.40625 2.390625 20.5 0.484375 
Q 18.609375 -1.421875 15.921875 -1.421875 
Q 13.140625 -1.421875 11.28125 0.453125 
Q 9.421875 2.34375 9.421875 5.078125 
z
" id="DejaVuSerif-2e"/>
      </defs>
      <g style="fill:#d2d2d2;" transform="translate(58 255.799219)scale(0.1 -0.1)">
       <use transform="translate(0 0.78125)" xlink:href="#DejaVuSerif-30"/>
       <use transform="translate(63.623047 0.78125)" xlink:href="#DejaVuSerif-2e"/>
       <use transform="translate(95.410156 0.78125)" xlink:href="#DejaVuSerif-30"/>
      </g>
     </g>
    </g>
    <g id="ytick_2">
     <g id="line2d_9">
      <g>
       <use style="fill:#d2d2d2;stroke:#d2d2d2;stroke-width:0.8;" x="81" xlink:href="#m312349119c" y="207.748832"/>
      </g>
     </g>
     <g id="text_10">
      <!-- $\mathdefault{0.5}$ -->
      <g style="fill:#d2d2d2;" transform="translate(58 211.548051)scale(0.1 -0.1)">
       <use transform="translate(0 0.78125)" xlink:href="#DejaVuSerif-30"/>
       <use transform="translate(63.623047 0.78125)" xlink:href="#DejaVuSerif-2e"/>
       <use transform="translate(95.410156 0.78125)" xlink:href="#DejaVuSerif-35"/>
      </g>
     </g>
    </g>
    <g id="ytick_3">
     <g id="line2d_10">
      <g>
       <use style="fill:#d2d2d2;stroke:#d2d2d2;stroke-width:0.8;" x="81" xlink:href="#m312349119c" y="163.497665"/>
      </g>
     </g>
     <g id="text_11">
      <!-- $\mathdefault{1.0}$ -->
      <g style="fill:#d2d2d2;" transform="translate(58 167.296883)scale(0.1 -0.1)">
       <use transform="translate(0 0.78125)" xlink:href="#DejaVuSerif-31"/>
       <use transform="translate(63.623047 0.78125)" xlink:href="#DejaVuSerif-2e"/>
       <use transform="translate(95.410156 0.78125)" xlink:href="#DejaVuSerif-30"/>
      </g>
     </g>
    </g>
    <g id="ytick_4">
     <g id="line2d_11">
      <g>
       <use style="fill:#d2d2d2;stroke:#d2d2d2;stroke-width:0.8;" x="81" xlink:href="#m312349119c" y="119.246497"/>
      </g>
     </g>
     <g id="text_12">
      <!-- $\mathdefault{1.5}$ -->
      <g style="fill:#d2d2d2;" transform="translate(58 123.045716)scale(0.1 -0.1)">
       <use transform="translate(0 0.78125)" xlink:href="#DejaVuSerif-31"/>
       <use transform="translate(63.623047 0.78125)" xlink:href="#DejaVuSerif-2e"/>
       <use transform="translate(95.410156 0.78125)" xlink:href="#DejaVuSerif-35"/>
      </g>
     </g>
    </g>
    <g id="ytick_5">
     <g id="line2d_12">
      <g>
       <use style="fill:#d2d2d2;stroke:#d2d2d2;stroke-width:0.8;" x="81" xlink:href="#m312349119c" y="74.995329"/>
      </g>
     </g>
     <g id="text_13">
      <!-- $\mathdefault{2.0}$ -->
      <g style="fill:#d2d2d2;" transform="translate(58 78.794548)scale(0.1 -0.1)">
       <use transform="translate(0 0.78125)" xlink:href="#DejaVuSerif-32"/>
       <use transform="translate(63.623047 0.78125)" xlink:href="#DejaVuSerif-2e"/>
       <use transform="translate(95.410156 0.78125)" xlink:href="#DejaVuSerif-30"/>
      </g>
     </g>
    </g>
    <g id="text_14">
     <!-- Density -->
     <defs>
      <path d="M 24.703125 5.171875 
L 33.796875 5.171875 
Q 48 5.171875 55.59375 13.28125 
Q 63.1875 21.390625 63.1875 36.53125 
Q 63.1875 51.65625 55.609375 59.65625 
Q 48.046875 67.671875 33.796875 67.671875 
L 24.703125 67.671875 
z
M 5.515625 0 
L 5.515625 5.171875 
L 14.796875 5.171875 
L 14.796875 67.671875 
L 5.515625 67.671875 
L 5.515625 72.90625 
L 34.515625 72.90625 
Q 53.375 72.90625 63.890625 63.28125 
Q 74.421875 53.65625 74.421875 36.53125 
Q 74.421875 19.34375 63.875 9.671875 
Q 53.328125 0 34.515625 0 
z
" id="DejaVuSerif-44"/>
      <path d="M 54.203125 25 
L 15.484375 25 
L 15.484375 24.609375 
Q 15.484375 14.109375 19.4375 8.765625 
Q 23.390625 3.421875 31.109375 3.421875 
Q 37.015625 3.421875 40.796875 6.515625 
Q 44.578125 9.625 46.09375 15.71875 
L 53.328125 15.71875 
Q 51.171875 7.171875 45.375 2.875 
Q 39.59375 -1.421875 30.171875 -1.421875 
Q 18.796875 -1.421875 11.890625 6.078125 
Q 4.984375 13.578125 4.984375 25.984375 
Q 4.984375 38.28125 11.765625 45.796875 
Q 18.5625 53.328125 29.59375 53.328125 
Q 41.359375 53.328125 47.65625 46.0625 
Q 53.953125 38.8125 54.203125 25 
z
M 43.609375 30.171875 
Q 43.3125 39.265625 39.765625 43.875 
Q 36.234375 48.484375 29.59375 48.484375 
Q 23.390625 48.484375 19.828125 43.84375 
Q 16.265625 39.203125 15.484375 30.171875 
z
" id="DejaVuSerif-65"/>
      <path d="M 4.109375 0 
L 4.109375 5.171875 
L 12.203125 5.171875 
L 12.203125 46.6875 
L 3.609375 46.6875 
L 3.609375 51.90625 
L 21.1875 51.90625 
L 21.1875 42.671875 
Q 23.6875 47.953125 27.65625 50.640625 
Q 31.640625 53.328125 36.921875 53.328125 
Q 45.515625 53.328125 49.5625 48.390625 
Q 53.609375 43.453125 53.609375 33.015625 
L 53.609375 5.171875 
L 61.625 5.171875 
L 61.625 0 
L 36.8125 0 
L 36.8125 5.171875 
L 44.578125 5.171875 
L 44.578125 30.171875 
Q 44.578125 39.703125 42.234375 43.234375 
Q 39.890625 46.78125 33.984375 46.78125 
Q 27.734375 46.78125 24.453125 42.203125 
Q 21.1875 37.640625 21.1875 28.90625 
L 21.1875 5.171875 
L 29 5.171875 
L 29 0 
z
" id="DejaVuSerif-6e"/>
      <path d="M 9.71875 68.015625 
Q 9.71875 70.265625 11.34375 71.921875 
Q 12.984375 73.578125 15.28125 73.578125 
Q 17.53125 73.578125 19.15625 71.921875 
Q 20.796875 70.265625 20.796875 68.015625 
Q 20.796875 65.71875 19.1875 64.109375 
Q 17.578125 62.5 15.28125 62.5 
Q 12.984375 62.5 11.34375 64.109375 
Q 9.71875 65.71875 9.71875 68.015625 
z
M 21.1875 5.171875 
L 29.6875 5.171875 
L 29.6875 0 
L 3.609375 0 
L 3.609375 5.171875 
L 12.203125 5.171875 
L 12.203125 46.6875 
L 3.609375 46.6875 
L 3.609375 51.90625 
L 21.1875 51.90625 
z
" id="DejaVuSerif-69"/>
      <path d="M 21.578125 -9.515625 
L 25 -0.875 
L 5.609375 46.6875 
L -0.296875 46.6875 
L -0.296875 51.90625 
L 23.578125 51.90625 
L 23.578125 46.6875 
L 15.28125 46.6875 
L 29.890625 10.984375 
L 44.484375 46.6875 
L 36.71875 46.6875 
L 36.71875 51.90625 
L 56.203125 51.90625 
L 56.203125 46.6875 
L 50.390625 46.6875 
L 26.609375 -11.71875 
Q 24.171875 -17.78125 21.1875 -20 
Q 18.21875 -22.21875 12.796875 -22.21875 
Q 10.5 -22.21875 8.078125 -21.828125 
Q 5.671875 -21.4375 3.21875 -20.703125 
L 3.21875 -10.796875 
L 7.8125 -10.796875 
Q 8.109375 -14.109375 9.5 -15.546875 
Q 10.890625 -17 13.8125 -17 
Q 16.5 -17 18.140625 -15.5 
Q 19.78125 -14.015625 21.578125 -9.515625 
z
" id="DejaVuSerif-79"/>
     </defs>
     <g style="fill:#d2d2d2;" transform="translate(50.000625 177.8175)rotate(-90)scale(0.18 -0.18)">
      <use xlink:href="#DejaVuSerif-44"/>
      <use x="80.175781" xlink:href="#DejaVuSerif-65"/>
      <use x="139.355469" xlink:href="#DejaVuSerif-6e"/>
      <use x="203.759766" xlink:href="#DejaVuSerif-73"/>
      <use x="255.078125" xlink:href="#DejaVuSerif-69"/>
      <use x="287.060547" xlink:href="#DejaVuSerif-74"/>
      <use x="327.246094" xlink:href="#DejaVuSerif-79"/>
     </g>
    </g>
   </g>
   <g id="line2d_13">
    <path clip-path="url(#pf99086d254)" d="M 568.048921 252 
L 568.048921 34.56 
" style="fill:none;stroke:#73b55b;stroke-linecap:square;stroke-width:3;"/>
   </g>
   <g id="line2d_14">
    <path clip-path="url(#pf99086d254)" d="M 108.681742 252 
L 108.681742 34.56 
" style="fill:none;stroke:#e04b4b;stroke-dasharray:2,3.3;stroke-dashoffset:0;stroke-width:2;"/>
   </g>
   <g id="patch_206">
    <path d="M 81 252 
L 81 34.56 
" style="fill:none;stroke:#d2d2d2;stroke-linecap:square;stroke-linejoin:miter;stroke-width:1.5;"/>
   </g>
   <g id="patch_207">
    <path d="M 81 252 
L 583.2 252 
" style="fill:none;stroke:#d2d2d2;stroke-linecap:square;stroke-linejoin:miter;stroke-width:1.5;"/>
   </g>
   <g id="text_15">
    <!-- $Crit_{\alpha = 0.05}=$ -->
    <defs>
     <path d="M 69.484375 67.28125 
L 67.484375 56.890625 
Q 62.796875 61.625 57.546875 63.921875 
Q 52.296875 66.21875 46.1875 66.21875 
Q 37.84375 66.21875 31.515625 62.203125 
Q 25.203125 58.203125 20.609375 50 
Q 17.671875 44.734375 16.125 38.84375 
Q 14.59375 32.953125 14.59375 27 
Q 14.59375 17.046875 19.75 11.8125 
Q 24.90625 6.59375 34.71875 6.59375 
Q 41.5 6.59375 47.75 8.765625 
Q 54 10.9375 59.90625 15.28125 
L 57.625 3.609375 
Q 51.8125 1.125 45.875 -0.140625 
Q 39.9375 -1.421875 33.984375 -1.421875 
Q 19.96875 -1.421875 12.078125 6.1875 
Q 4.203125 13.8125 4.203125 27.390625 
Q 4.203125 36.078125 7.203125 44.46875 
Q 10.203125 52.875 15.828125 59.8125 
Q 21.78125 67.1875 29.421875 70.703125 
Q 37.0625 74.21875 47.21875 74.21875 
Q 53.46875 74.21875 59.0625 72.484375 
Q 64.65625 70.75 69.484375 67.28125 
z
" id="DejaVuSans-Oblique-43"/>
     <path d="M 40.921875 25.4375 
L 40.96875 36.71875 
Q 41.015625 48.25 32.328125 48.296875 
Q 25.828125 48.34375 21.78125 42.921875 
Q 16.703125 36.234375 14.984375 27.296875 
Q 12.890625 16.546875 15.53125 11.421875 
Q 18.265625 6.203125 24.171875 6.203125 
Q 30.71875 6.203125 36.234375 16.609375 
z
M 33.84375 55.90625 
Q 49.078125 56.15625 48.875 40.375 
Q 48.875 40.375 56.5 54.6875 
L 64.5 54.6875 
L 48.734375 25.046875 
L 48.578125 14.359375 
Q 48.578125 11.96875 49.90625 9.96875 
Q 51.421875 7.625 52.984375 7.625 
L 57.328125 7.625 
L 55.859375 0 
L 50.4375 0 
Q 45.84375 0 42.53125 4.109375 
Q 40.96875 6.15625 40.921875 10.453125 
Q 37.75 5.21875 32.28125 0.78125 
Q 29.6875 -1.265625 22.703125 -1.21875 
Q 11.28125 -1.125 7.125 6.203125 
Q 2.875 13.8125 5.515625 27.296875 
Q 8.34375 41.796875 15.765625 48.390625 
Q 24.125 55.765625 33.84375 55.90625 
z
" id="DejaVuSans-Oblique-3b1"/>
     <path d="M 10.59375 45.40625 
L 73.1875 45.40625 
L 73.1875 37.203125 
L 10.59375 37.203125 
z
M 10.59375 25.484375 
L 73.1875 25.484375 
L 73.1875 17.1875 
L 10.59375 17.1875 
z
" id="DejaVuSans-3d"/>
     <path d="M 31.78125 66.40625 
Q 24.171875 66.40625 20.328125 58.90625 
Q 16.5 51.421875 16.5 36.375 
Q 16.5 21.390625 20.328125 13.890625 
Q 24.171875 6.390625 31.78125 6.390625 
Q 39.453125 6.390625 43.28125 13.890625 
Q 47.125 21.390625 47.125 36.375 
Q 47.125 51.421875 43.28125 58.90625 
Q 39.453125 66.40625 31.78125 66.40625 
z
M 31.78125 74.21875 
Q 44.046875 74.21875 50.515625 64.515625 
Q 56.984375 54.828125 56.984375 36.375 
Q 56.984375 17.96875 50.515625 8.265625 
Q 44.046875 -1.421875 31.78125 -1.421875 
Q 19.53125 -1.421875 13.0625 8.265625 
Q 6.59375 17.96875 6.59375 36.375 
Q 6.59375 54.828125 13.0625 64.515625 
Q 19.53125 74.21875 31.78125 74.21875 
z
" id="DejaVuSans-30"/>
     <path d="M 10.6875 12.40625 
L 21 12.40625 
L 21 0 
L 10.6875 0 
z
" id="DejaVuSans-2e"/>
     <path d="M 10.796875 72.90625 
L 49.515625 72.90625 
L 49.515625 64.59375 
L 19.828125 64.59375 
L 19.828125 46.734375 
Q 21.96875 47.46875 24.109375 47.828125 
Q 26.265625 48.1875 28.421875 48.1875 
Q 40.625 48.1875 47.75 41.5 
Q 54.890625 34.8125 54.890625 23.390625 
Q 54.890625 11.625 47.5625 5.09375 
Q 40.234375 -1.421875 26.90625 -1.421875 
Q 22.3125 -1.421875 17.546875 -0.640625 
Q 12.796875 0.140625 7.71875 1.703125 
L 7.71875 11.625 
Q 12.109375 9.234375 16.796875 8.0625 
Q 21.484375 6.890625 26.703125 6.890625 
Q 35.15625 6.890625 40.078125 11.328125 
Q 45.015625 15.765625 45.015625 23.390625 
Q 45.015625 31 40.078125 35.4375 
Q 35.15625 39.890625 26.703125 39.890625 
Q 22.75 39.890625 18.8125 39.015625 
Q 14.890625 38.140625 10.796875 36.28125 
z
" id="DejaVuSans-35"/>
    </defs>
    <g style="fill:#ff0000;" transform="translate(110.065829 90.2055)scale(0.16 -0.16)">
     <use transform="translate(0 0.015625)" xlink:href="#DejaVuSans-Oblique-43"/>
     <use transform="translate(69.824219 0.015625)" xlink:href="#DejaVuSans-Oblique-72"/>
     <use transform="translate(110.9375 0.015625)" xlink:href="#DejaVuSans-Oblique-69"/>
     <use transform="translate(138.720703 0.015625)" xlink:href="#DejaVuSans-Oblique-74"/>
     <use transform="translate(177.929688 -16.390625)scale(0.7)" xlink:href="#DejaVuSans-Oblique-3b1"/>
     <use transform="translate(237.709961 -16.390625)scale(0.7)" xlink:href="#DejaVuSans-3d"/>
     <use transform="translate(310 -16.390625)scale(0.7)" xlink:href="#DejaVuSans-30"/>
     <use transform="translate(354.536133 -16.390625)scale(0.7)" xlink:href="#DejaVuSans-2e"/>
     <use transform="translate(376.787109 -16.390625)scale(0.7)" xlink:href="#DejaVuSans-30"/>
     <use transform="translate(421.323242 -16.390625)scale(0.7)" xlink:href="#DejaVuSans-35"/>
     <use transform="translate(488.076172 0.015625)" xlink:href="#DejaVuSans-3d"/>
    </g>
    <!-- 1.71 -->
    <defs>
     <path d="M 56.390625 67.921875 
L 27.875 0 
L 20.609375 0 
L 47.796875 64.890625 
L 14.109375 64.890625 
L 14.109375 55.90625 
L 8.40625 55.90625 
L 8.40625 72.90625 
L 56.390625 72.90625 
z
" id="DejaVuSerif-37"/>
    </defs>
    <g style="fill:#ff0000;" transform="translate(110.065829 108.122)scale(0.16 -0.16)">
     <use xlink:href="#DejaVuSerif-31"/>
     <use x="63.623047" xlink:href="#DejaVuSerif-2e"/>
     <use x="95.410156" xlink:href="#DejaVuSerif-37"/>
     <use x="159.033203" xlink:href="#DejaVuSerif-31"/>
    </g>
   </g>
   <g id="text_16">
    <!-- $\mathcal{F}_{observed}=$30.06 -->
    <defs>
     <path d="M 48.09375 32.234375 
Q 48.25 33.015625 48.3125 33.84375 
Q 48.390625 34.671875 48.390625 35.5 
Q 48.390625 41.453125 44.890625 44.921875 
Q 41.40625 48.390625 35.40625 48.390625 
Q 28.71875 48.390625 23.578125 44.15625 
Q 18.453125 39.9375 15.828125 32.171875 
z
M 55.90625 25.203125 
L 14.109375 25.203125 
Q 13.8125 23.34375 13.71875 22.265625 
Q 13.625 21.1875 13.625 20.40625 
Q 13.625 13.625 17.796875 9.90625 
Q 21.96875 6.203125 29.59375 6.203125 
Q 35.453125 6.203125 40.671875 7.515625 
Q 45.90625 8.84375 50.390625 11.375 
L 48.6875 2.484375 
Q 43.84375 0.53125 38.6875 -0.4375 
Q 33.546875 -1.421875 28.21875 -1.421875 
Q 16.84375 -1.421875 10.71875 4.015625 
Q 4.59375 9.46875 4.59375 19.484375 
Q 4.59375 28.03125 7.640625 35.375 
Q 10.6875 42.71875 16.609375 48.484375 
Q 20.40625 52.09375 25.65625 54.046875 
Q 30.90625 56 36.8125 56 
Q 46.09375 56 51.578125 50.4375 
Q 57.078125 44.875 57.078125 35.5 
Q 57.078125 33.25 56.78125 30.6875 
Q 56.5 28.125 55.90625 25.203125 
z
" id="DejaVuSans-Oblique-65"/>
     <path d="M 7.171875 54.6875 
L 16.703125 54.6875 
L 24.703125 8.203125 
L 50.875 54.6875 
L 60.40625 54.6875 
L 29.296875 0 
L 17.1875 0 
z
" id="DejaVuSans-Oblique-76"/>
     <path d="M 41.796875 8.203125 
Q 38.1875 3.46875 33.25 1.015625 
Q 28.328125 -1.421875 22.3125 -1.421875 
Q 14.109375 -1.421875 9.34375 4.171875 
Q 4.59375 9.765625 4.59375 19.484375 
Q 4.59375 27.59375 7.46875 34.9375 
Q 10.359375 42.28125 15.828125 48.09375 
Q 19.4375 51.953125 23.96875 53.96875 
Q 28.515625 56 33.5 56 
Q 38.765625 56 42.796875 53.453125 
Q 46.828125 50.921875 49.03125 46.1875 
L 54.890625 75.984375 
L 63.921875 75.984375 
L 49.125 0 
L 40.09375 0 
z
M 13.921875 21.09375 
Q 13.921875 14.015625 17.109375 10.0625 
Q 20.3125 6.109375 25.984375 6.109375 
Q 30.171875 6.109375 33.765625 8.125 
Q 37.359375 10.15625 40.09375 14.109375 
Q 42.96875 18.21875 44.625 23.578125 
Q 46.296875 28.953125 46.296875 34.1875 
Q 46.296875 40.96875 43.09375 44.765625 
Q 39.890625 48.578125 34.28125 48.578125 
Q 30.03125 48.578125 26.359375 46.578125 
Q 22.703125 44.578125 20.125 40.828125 
Q 17.28125 36.765625 15.59375 31.390625 
Q 13.921875 26.03125 13.921875 21.09375 
z
" id="DejaVuSans-Oblique-64"/>
     <path d="M 32.71875 3.421875 
Q 39.59375 3.421875 43.296875 8.46875 
Q 47.015625 13.53125 47.015625 23 
Q 47.015625 32.46875 43.296875 37.515625 
Q 39.59375 42.578125 32.71875 42.578125 
Q 25.734375 42.578125 22.0625 37.6875 
Q 18.40625 32.8125 18.40625 23.578125 
Q 18.40625 13.875 22.109375 8.640625 
Q 25.828125 3.421875 32.71875 3.421875 
z
M 16.796875 40.140625 
Q 20.125 43.796875 24.3125 45.59375 
Q 28.515625 47.40625 33.796875 47.40625 
Q 44.671875 47.40625 51 40.859375 
Q 57.328125 34.328125 57.328125 23 
Q 57.328125 11.921875 50.515625 5.25 
Q 43.703125 -1.421875 32.328125 -1.421875 
Q 19.96875 -1.421875 13.328125 7.78125 
Q 6.6875 17 6.6875 34.078125 
Q 6.6875 53.21875 14.546875 63.71875 
Q 22.40625 74.21875 36.71875 74.21875 
Q 40.578125 74.21875 44.828125 73.484375 
Q 49.078125 72.75 53.515625 71.296875 
L 53.515625 59.28125 
L 48 59.28125 
Q 47.40625 64.203125 44.234375 66.796875 
Q 41.0625 69.390625 35.6875 69.390625 
Q 26.21875 69.390625 21.578125 62.203125 
Q 16.9375 55.03125 16.796875 40.140625 
z
" id="DejaVuSerif-36"/>
    </defs>
    <g style="fill:#d2d2d2;" transform="translate(415.216475 57.5895)scale(0.16 -0.16)">
     <use transform="translate(0 0.78125)" xlink:href="#STIXNonUnicode-Italic-e232"/>
     <use transform="translate(66.157028 -15.625)scale(0.7)" xlink:href="#DejaVuSans-Oblique-6f"/>
     <use transform="translate(108.984177 -15.625)scale(0.7)" xlink:href="#DejaVuSans-Oblique-62"/>
     <use transform="translate(153.41777 -15.625)scale(0.7)" xlink:href="#DejaVuSans-Oblique-73"/>
     <use transform="translate(189.887497 -15.625)scale(0.7)" xlink:href="#DejaVuSans-Oblique-65"/>
     <use transform="translate(232.953903 -15.625)scale(0.7)" xlink:href="#DejaVuSans-Oblique-72"/>
     <use transform="translate(261.7332 -15.625)scale(0.7)" xlink:href="#DejaVuSans-Oblique-76"/>
     <use transform="translate(303.158981 -15.625)scale(0.7)" xlink:href="#DejaVuSans-Oblique-65"/>
     <use transform="translate(346.225388 -15.625)scale(0.7)" xlink:href="#DejaVuSans-Oblique-64"/>
     <use transform="translate(412.875778 0.78125)" xlink:href="#DejaVuSans-3d"/>
     <use transform="translate(516.147263 0.78125)" xlink:href="#DejaVuSerif-33"/>
     <use transform="translate(579.770309 0.78125)" xlink:href="#DejaVuSerif-30"/>
     <use transform="translate(643.393356 0.78125)" xlink:href="#DejaVuSerif-2e"/>
     <use transform="translate(675.180466 0.78125)" xlink:href="#DejaVuSerif-30"/>
     <use transform="translate(738.803513 0.78125)" xlink:href="#DejaVuSerif-36"/>
    </g>
    <!-- p=0.0000 -->
    <defs>
     <path d="M 10.59375 45.21875 
L 73.1875 45.21875 
L 73.1875 37.40625 
L 10.59375 37.40625 
z
M 10.59375 25.296875 
L 73.1875 25.296875 
L 73.1875 17.484375 
L 10.59375 17.484375 
z
" id="DejaVuSerif-3d"/>
    </defs>
    <g style="fill:#d2d2d2;" transform="translate(464.061475 75.506)scale(0.16 -0.16)">
     <use xlink:href="#DejaVuSerif-70"/>
     <use x="64.013672" xlink:href="#DejaVuSerif-3d"/>
     <use x="147.802734" xlink:href="#DejaVuSerif-30"/>
     <use x="211.425781" xlink:href="#DejaVuSerif-2e"/>
     <use x="243.212891" xlink:href="#DejaVuSerif-30"/>
     <use x="306.835938" xlink:href="#DejaVuSerif-30"/>
     <use x="370.458984" xlink:href="#DejaVuSerif-30"/>
     <use x="434.082031" xlink:href="#DejaVuSerif-30"/>
    </g>
   </g>
  </g>
 </g>
 <defs>
  <clipPath id="pf99086d254">
   <rect height="217.44" width="502.2" x="81" y="34.56"/>
  </clipPath>
 </defs>
</svg>
