<?xml version="1.0" encoding="utf-8" standalone="no"?>
<!DOCTYPE svg PUBLIC "-//W3C//DTD SVG 1.1//EN"
  "http://www.w3.org/Graphics/SVG/1.1/DTD/svg11.dtd">
<!-- Created with matplotlib (http://matplotlib.org/) -->
<svg height="648pt" version="1.1" viewBox="0 0 1440 648" width="1440pt" xmlns="http://www.w3.org/2000/svg" xmlns:xlink="http://www.w3.org/1999/xlink">
 <defs>
  <style type="text/css">
*{stroke-linecap:butt;stroke-linejoin:round;}
  </style>
 </defs>
 <g id="figure_1">
  <g id="patch_1">
   <path d="M 0 648 
L 1440 648 
L 1440 0 
L 0 0 
z
" style="fill:none;"/>
  </g>
  <g id="axes_1">
   <g id="patch_2">
    <path d="M 180 567 
L 1296 567 
L 1296 77.76 
L 180 77.76 
z
" style="fill:none;opacity:0;"/>
   </g>
   <g id="patch_3">
    <path clip-path="url(#p2310c5383a)" d="M 180.000001 567 
L 233.719459 567 
L 233.719459 101.057143 
L 180.000001 101.057143 
z
" style="fill:#4682b4;stroke:#d2d2d2;stroke-linejoin:miter;"/>
   </g>
   <g id="patch_4">
    <path clip-path="url(#p2310c5383a)" d="M 233.719459 567 
L 287.438916 567 
L 287.438916 400.95739 
L 233.719459 400.95739 
z
" style="fill:#4682b4;stroke:#d2d2d2;stroke-linejoin:miter;"/>
   </g>
   <g id="patch_5">
    <path clip-path="url(#p2310c5383a)" d="M 287.438916 567 
L 341.158373 567 
L 341.158373 463.9626 
L 287.438916 463.9626 
z
" style="fill:#4682b4;stroke:#d2d2d2;stroke-linejoin:miter;"/>
   </g>
   <g id="patch_6">
    <path clip-path="url(#p2310c5383a)" d="M 341.158373 567 
L 394.877831 567 
L 394.877831 489.43763 
L 341.158373 489.43763 
z
" style="fill:#4682b4;stroke:#d2d2d2;stroke-linejoin:miter;"/>
   </g>
   <g id="patch_7">
    <path clip-path="url(#p2310c5383a)" d="M 394.877831 567 
L 448.597288 567 
L 448.597288 511.955738 
L 394.877831 511.955738 
z
" style="fill:#4682b4;stroke:#d2d2d2;stroke-linejoin:miter;"/>
   </g>
   <g id="patch_8">
    <path clip-path="url(#p2310c5383a)" d="M 448.597288 567 
L 502.316745 567 
L 502.316745 521.167691 
L 448.597288 521.167691 
z
" style="fill:#4682b4;stroke:#d2d2d2;stroke-linejoin:miter;"/>
   </g>
   <g id="patch_9">
    <path clip-path="url(#p2310c5383a)" d="M 502.316745 567 
L 556.036202 567 
L 556.036202 528.787454 
L 502.316745 528.787454 
z
" style="fill:#4682b4;stroke:#d2d2d2;stroke-linejoin:miter;"/>
   </g>
   <g id="patch_10">
    <path clip-path="url(#p2310c5383a)" d="M 556.036202 567 
L 609.75566 567 
L 609.75566 533.67775 
L 556.036202 533.67775 
z
" style="fill:#4682b4;stroke:#d2d2d2;stroke-linejoin:miter;"/>
   </g>
   <g id="patch_11">
    <path clip-path="url(#p2310c5383a)" d="M 609.75566 567 
L 663.475117 567 
L 663.475117 544.368165 
L 609.75566 544.368165 
z
" style="fill:#4682b4;stroke:#d2d2d2;stroke-linejoin:miter;"/>
   </g>
   <g id="patch_12">
    <path clip-path="url(#p2310c5383a)" d="M 663.475117 567 
L 717.194574 567 
L 717.194574 543.003431 
L 663.475117 543.003431 
z
" style="fill:#4682b4;stroke:#d2d2d2;stroke-linejoin:miter;"/>
   </g>
   <g id="patch_13">
    <path clip-path="url(#p2310c5383a)" d="M 717.194574 567 
L 770.914032 567 
L 770.914032 551.533017 
L 717.194574 551.533017 
z
" style="fill:#4682b4;stroke:#d2d2d2;stroke-linejoin:miter;"/>
   </g>
   <g id="patch_14">
    <path clip-path="url(#p2310c5383a)" d="M 770.914032 567 
L 824.633489 567 
L 824.633489 552.784023 
L 770.914032 552.784023 
z
" style="fill:#4682b4;stroke:#d2d2d2;stroke-linejoin:miter;"/>
   </g>
   <g id="patch_15">
    <path clip-path="url(#p2310c5383a)" d="M 824.633489 567 
L 878.352946 567 
L 878.352946 552.556568 
L 824.633489 552.556568 
z
" style="fill:#4682b4;stroke:#d2d2d2;stroke-linejoin:miter;"/>
   </g>
   <g id="patch_16">
    <path clip-path="url(#p2310c5383a)" d="M 878.352946 567 
L 932.072403 567 
L 932.072403 556.309585 
L 878.352946 556.309585 
z
" style="fill:#4682b4;stroke:#d2d2d2;stroke-linejoin:miter;"/>
   </g>
   <g id="patch_17">
    <path clip-path="url(#p2310c5383a)" d="M 932.072403 567 
L 985.791861 567 
L 985.791861 557.446864 
L 932.072403 557.446864 
z
" style="fill:#4682b4;stroke:#d2d2d2;stroke-linejoin:miter;"/>
   </g>
   <g id="patch_18">
    <path clip-path="url(#p2310c5383a)" d="M 985.791861 567 
L 1039.511318 567 
L 1039.511318 560.517515 
L 985.791861 560.517515 
z
" style="fill:#4682b4;stroke:#d2d2d2;stroke-linejoin:miter;"/>
   </g>
   <g id="patch_19">
    <path clip-path="url(#p2310c5383a)" d="M 1039.511318 567 
L 1093.230775 567 
L 1093.230775 562.109704 
L 1039.511318 562.109704 
z
" style="fill:#4682b4;stroke:#d2d2d2;stroke-linejoin:miter;"/>
   </g>
   <g id="patch_20">
    <path clip-path="url(#p2310c5383a)" d="M 1093.230775 567 
L 1146.950233 567 
L 1146.950233 563.36071 
L 1093.230775 563.36071 
z
" style="fill:#4682b4;stroke:#d2d2d2;stroke-linejoin:miter;"/>
   </g>
   <g id="patch_21">
    <path clip-path="url(#p2310c5383a)" d="M 1146.950233 567 
L 1200.66969 567 
L 1200.66969 563.133254 
L 1146.950233 563.133254 
z
" style="fill:#4682b4;stroke:#d2d2d2;stroke-linejoin:miter;"/>
   </g>
   <g id="patch_22">
    <path clip-path="url(#p2310c5383a)" d="M 1200.66969 567 
L 1254.389147 567 
L 1254.389147 563.701893 
L 1200.66969 563.701893 
z
" style="fill:#4682b4;stroke:#d2d2d2;stroke-linejoin:miter;"/>
   </g>
   <g id="patch_23">
    <path clip-path="url(#p2310c5383a)" d="M 1254.389147 567 
L 1308.108605 567 
L 1308.108605 564.38426 
L 1254.389147 564.38426 
z
" style="fill:#4682b4;stroke:#d2d2d2;stroke-linejoin:miter;"/>
   </g>
   <g id="patch_24">
    <path clip-path="url(#p2310c5383a)" d="M 1308.108605 567 
L 1361.828062 567 
L 1361.828062 564.156805 
L 1308.108605 564.156805 
z
" style="fill:#4682b4;stroke:#d2d2d2;stroke-linejoin:miter;"/>
   </g>
   <g id="patch_25">
    <path clip-path="url(#p2310c5383a)" d="M 1361.828062 567 
L 1415.547519 567 
L 1415.547519 564.839172 
L 1361.828062 564.839172 
z
" style="fill:#4682b4;stroke:#d2d2d2;stroke-linejoin:miter;"/>
   </g>
   <g id="patch_26">
    <path clip-path="url(#p2310c5383a)" d="M 1415.547519 567 
L 1469.266976 567 
L 1469.266976 565.521538 
L 1415.547519 565.521538 
z
" style="fill:#4682b4;stroke:#d2d2d2;stroke-linejoin:miter;"/>
   </g>
   <g id="patch_27">
    <path clip-path="url(#p2310c5383a)" d="M 1469.266976 567 
L 1522.986434 567 
L 1522.986434 565.97645 
L 1469.266976 565.97645 
z
" style="fill:#4682b4;stroke:#d2d2d2;stroke-linejoin:miter;"/>
   </g>
   <g id="patch_28">
    <path clip-path="url(#p2310c5383a)" d="M 1522.986434 567 
L 1576.705891 567 
L 1576.705891 565.748994 
L 1522.986434 565.748994 
z
" style="fill:#4682b4;stroke:#d2d2d2;stroke-linejoin:miter;"/>
   </g>
   <g id="patch_29">
    <path clip-path="url(#p2310c5383a)" d="M 1576.705891 567 
L 1630.425348 567 
L 1630.425348 565.521538 
L 1576.705891 565.521538 
z
" style="fill:#4682b4;stroke:#d2d2d2;stroke-linejoin:miter;"/>
   </g>
   <g id="patch_30">
    <path clip-path="url(#p2310c5383a)" d="M 1630.425348 567 
L 1684.144806 567 
L 1684.144806 565.97645 
L 1630.425348 565.97645 
z
" style="fill:#4682b4;stroke:#d2d2d2;stroke-linejoin:miter;"/>
   </g>
   <g id="patch_31">
    <path clip-path="url(#p2310c5383a)" d="M 1684.144806 567 
L 1737.864263 567 
L 1737.864263 566.545089 
L 1684.144806 566.545089 
z
" style="fill:#4682b4;stroke:#d2d2d2;stroke-linejoin:miter;"/>
   </g>
   <g id="patch_32">
    <path clip-path="url(#p2310c5383a)" d="M 1737.864263 567 
L 1791.58372 567 
L 1791.58372 566.090177 
L 1737.864263 566.090177 
z
" style="fill:#4682b4;stroke:#d2d2d2;stroke-linejoin:miter;"/>
   </g>
   <g id="patch_33">
    <path clip-path="url(#p2310c5383a)" d="M 1791.58372 567 
L 1845.303177 567 
L 1845.303177 566.317633 
L 1791.58372 566.317633 
z
" style="fill:#4682b4;stroke:#d2d2d2;stroke-linejoin:miter;"/>
   </g>
   <g id="patch_34">
    <path clip-path="url(#p2310c5383a)" d="M 1845.303177 567 
L 1899.022635 567 
L 1899.022635 566.431361 
L 1845.303177 566.431361 
z
" style="fill:#4682b4;stroke:#d2d2d2;stroke-linejoin:miter;"/>
   </g>
   <g id="patch_35">
    <path clip-path="url(#p2310c5383a)" d="M 1899.022635 567 
L 1952.742092 567 
L 1952.742092 566.772544 
L 1899.022635 566.772544 
z
" style="fill:#4682b4;stroke:#d2d2d2;stroke-linejoin:miter;"/>
   </g>
   <g id="patch_36">
    <path clip-path="url(#p2310c5383a)" d="M 1952.742092 567 
L 2006.461549 567 
L 2006.461549 566.658817 
L 1952.742092 566.658817 
z
" style="fill:#4682b4;stroke:#d2d2d2;stroke-linejoin:miter;"/>
   </g>
   <g id="patch_37">
    <path clip-path="url(#p2310c5383a)" d="M 2006.461549 567 
L 2060.181007 567 
L 2060.181007 566.658817 
L 2006.461549 566.658817 
z
" style="fill:#4682b4;stroke:#d2d2d2;stroke-linejoin:miter;"/>
   </g>
   <g id="patch_38">
    <path clip-path="url(#p2310c5383a)" d="M 2060.181007 567 
L 2113.900464 567 
L 2113.900464 566.545089 
L 2060.181007 566.545089 
z
" style="fill:#4682b4;stroke:#d2d2d2;stroke-linejoin:miter;"/>
   </g>
   <g id="patch_39">
    <path clip-path="url(#p2310c5383a)" d="M 2113.900464 567 
L 2167.619921 567 
L 2167.619921 566.658817 
L 2113.900464 566.658817 
z
" style="fill:#4682b4;stroke:#d2d2d2;stroke-linejoin:miter;"/>
   </g>
   <g id="patch_40">
    <path clip-path="url(#p2310c5383a)" d="M 2167.619921 567 
L 2221.339378 567 
L 2221.339378 567 
L 2167.619921 567 
z
" style="fill:#4682b4;stroke:#d2d2d2;stroke-linejoin:miter;"/>
   </g>
   <g id="patch_41">
    <path clip-path="url(#p2310c5383a)" d="M 2221.339378 567 
L 2275.058836 567 
L 2275.058836 566.772544 
L 2221.339378 566.772544 
z
" style="fill:#4682b4;stroke:#d2d2d2;stroke-linejoin:miter;"/>
   </g>
   <g id="patch_42">
    <path clip-path="url(#p2310c5383a)" d="M 2275.058836 567 
L 2328.778293 567 
L 2328.778293 567 
L 2275.058836 567 
z
" style="fill:#4682b4;stroke:#d2d2d2;stroke-linejoin:miter;"/>
   </g>
   <g id="patch_43">
    <path clip-path="url(#p2310c5383a)" d="M 2328.778293 567 
L 2382.49775 567 
L 2382.49775 566.886272 
L 2328.778293 566.886272 
z
" style="fill:#4682b4;stroke:#d2d2d2;stroke-linejoin:miter;"/>
   </g>
   <g id="patch_44">
    <path clip-path="url(#p2310c5383a)" d="M 2382.49775 567 
L 2436.217208 567 
L 2436.217208 567 
L 2382.49775 567 
z
" style="fill:#4682b4;stroke:#d2d2d2;stroke-linejoin:miter;"/>
   </g>
   <g id="patch_45">
    <path clip-path="url(#p2310c5383a)" d="M 2436.217208 567 
L 2489.936665 567 
L 2489.936665 566.772544 
L 2436.217208 566.772544 
z
" style="fill:#4682b4;stroke:#d2d2d2;stroke-linejoin:miter;"/>
   </g>
   <g id="patch_46">
    <path clip-path="url(#p2310c5383a)" d="M 2489.936665 567 
L 2543.656122 567 
L 2543.656122 566.886272 
L 2489.936665 566.886272 
z
" style="fill:#4682b4;stroke:#d2d2d2;stroke-linejoin:miter;"/>
   </g>
   <g id="patch_47">
    <path clip-path="url(#p2310c5383a)" d="M 2543.656122 567 
L 2597.375579 567 
L 2597.375579 567 
L 2543.656122 567 
z
" style="fill:#4682b4;stroke:#d2d2d2;stroke-linejoin:miter;"/>
   </g>
   <g id="patch_48">
    <path clip-path="url(#p2310c5383a)" d="M 2597.375579 567 
L 2651.095037 567 
L 2651.095037 567 
L 2597.375579 567 
z
" style="fill:#4682b4;stroke:#d2d2d2;stroke-linejoin:miter;"/>
   </g>
   <g id="patch_49">
    <path clip-path="url(#p2310c5383a)" d="M 2651.095037 567 
L 2704.814494 567 
L 2704.814494 567 
L 2651.095037 567 
z
" style="fill:#4682b4;stroke:#d2d2d2;stroke-linejoin:miter;"/>
   </g>
   <g id="patch_50">
    <path clip-path="url(#p2310c5383a)" d="M 2704.814494 567 
L 2758.533951 567 
L 2758.533951 566.886272 
L 2704.814494 566.886272 
z
" style="fill:#4682b4;stroke:#d2d2d2;stroke-linejoin:miter;"/>
   </g>
   <g id="patch_51">
    <path clip-path="url(#p2310c5383a)" d="M 2758.533951 567 
L 2812.253409 567 
L 2812.253409 567 
L 2758.533951 567 
z
" style="fill:#4682b4;stroke:#d2d2d2;stroke-linejoin:miter;"/>
   </g>
   <g id="patch_52">
    <path clip-path="url(#p2310c5383a)" d="M 2812.253409 567 
L 2865.972866 567 
L 2865.972866 567 
L 2812.253409 567 
z
" style="fill:#4682b4;stroke:#d2d2d2;stroke-linejoin:miter;"/>
   </g>
   <g id="patch_53">
    <path clip-path="url(#p2310c5383a)" d="M 2865.972866 567 
L 2919.692323 567 
L 2919.692323 567 
L 2865.972866 567 
z
" style="fill:#4682b4;stroke:#d2d2d2;stroke-linejoin:miter;"/>
   </g>
   <g id="patch_54">
    <path clip-path="url(#p2310c5383a)" d="M 2919.692323 567 
L 2973.41178 567 
L 2973.41178 567 
L 2919.692323 567 
z
" style="fill:#4682b4;stroke:#d2d2d2;stroke-linejoin:miter;"/>
   </g>
   <g id="patch_55">
    <path clip-path="url(#p2310c5383a)" d="M 2973.41178 567 
L 3027.131238 567 
L 3027.131238 567 
L 2973.41178 567 
z
" style="fill:#4682b4;stroke:#d2d2d2;stroke-linejoin:miter;"/>
   </g>
   <g id="patch_56">
    <path clip-path="url(#p2310c5383a)" d="M 3027.131238 567 
L 3080.850695 567 
L 3080.850695 567 
L 3027.131238 567 
z
" style="fill:#4682b4;stroke:#d2d2d2;stroke-linejoin:miter;"/>
   </g>
   <g id="patch_57">
    <path clip-path="url(#p2310c5383a)" d="M 3080.850695 567 
L 3134.570152 567 
L 3134.570152 567 
L 3080.850695 567 
z
" style="fill:#4682b4;stroke:#d2d2d2;stroke-linejoin:miter;"/>
   </g>
   <g id="patch_58">
    <path clip-path="url(#p2310c5383a)" d="M 3134.570152 567 
L 3188.28961 567 
L 3188.28961 567 
L 3134.570152 567 
z
" style="fill:#4682b4;stroke:#d2d2d2;stroke-linejoin:miter;"/>
   </g>
   <g id="patch_59">
    <path clip-path="url(#p2310c5383a)" d="M 3188.28961 567 
L 3242.009067 567 
L 3242.009067 567 
L 3188.28961 567 
z
" style="fill:#4682b4;stroke:#d2d2d2;stroke-linejoin:miter;"/>
   </g>
   <g id="patch_60">
    <path clip-path="url(#p2310c5383a)" d="M 3242.009067 567 
L 3295.728524 567 
L 3295.728524 567 
L 3242.009067 567 
z
" style="fill:#4682b4;stroke:#d2d2d2;stroke-linejoin:miter;"/>
   </g>
   <g id="patch_61">
    <path clip-path="url(#p2310c5383a)" d="M 3295.728524 567 
L 3349.447981 567 
L 3349.447981 567 
L 3295.728524 567 
z
" style="fill:#4682b4;stroke:#d2d2d2;stroke-linejoin:miter;"/>
   </g>
   <g id="patch_62">
    <path clip-path="url(#p2310c5383a)" d="M 3349.447981 567 
L 3403.167439 567 
L 3403.167439 566.886272 
L 3349.447981 566.886272 
z
" style="fill:#4682b4;stroke:#d2d2d2;stroke-linejoin:miter;"/>
   </g>
   <g id="matplotlib.axis_1">
    <g id="xtick_1">
     <g id="line2d_1">
      <defs>
       <path d="M 0 0 
L 0 3.5 
" id="m30e2c7a5d2" style="stroke:#d2d2d2;stroke-width:0.8;"/>
      </defs>
      <g>
       <use style="fill:#d2d2d2;stroke:#d2d2d2;stroke-width:0.8;" x="180" xlink:href="#m30e2c7a5d2" y="567"/>
      </g>
     </g>
     <g id="text_1">
      <!-- $\mathdefault{0}$ -->
      <defs>
       <path d="M 31.78125 3.421875 
Q 39.265625 3.421875 42.96875 11.625 
Q 46.6875 19.828125 46.6875 36.375 
Q 46.6875 52.984375 42.96875 61.1875 
Q 39.265625 69.390625 31.78125 69.390625 
Q 24.3125 69.390625 20.59375 61.1875 
Q 16.890625 52.984375 16.890625 36.375 
Q 16.890625 19.828125 20.59375 11.625 
Q 24.3125 3.421875 31.78125 3.421875 
z
M 31.78125 -1.421875 
Q 19.921875 -1.421875 13.25 8.53125 
Q 6.59375 18.5 6.59375 36.375 
Q 6.59375 54.296875 13.25 64.25 
Q 19.921875 74.21875 31.78125 74.21875 
Q 43.703125 74.21875 50.34375 64.25 
Q 56.984375 54.296875 56.984375 36.375 
Q 56.984375 18.5 50.34375 8.53125 
Q 43.703125 -1.421875 31.78125 -1.421875 
z
" id="DejaVuSerif-30"/>
      </defs>
      <g style="fill:#d2d2d2;" transform="translate(172.96 590.716563)scale(0.22 -0.22)">
       <use transform="translate(0 0.78125)" xlink:href="#DejaVuSerif-30"/>
      </g>
     </g>
    </g>
    <g id="xtick_2">
     <g id="line2d_2">
      <g>
       <use style="fill:#d2d2d2;stroke:#d2d2d2;stroke-width:0.8;" x="366" xlink:href="#m30e2c7a5d2" y="567"/>
      </g>
     </g>
     <g id="text_2">
      <!-- $\mathdefault{1}$ -->
      <defs>
       <path d="M 14.203125 0 
L 14.203125 5.171875 
L 26.90625 5.171875 
L 26.90625 65.828125 
L 12.203125 56.296875 
L 12.203125 62.703125 
L 29.984375 74.21875 
L 36.71875 74.21875 
L 36.71875 5.171875 
L 49.421875 5.171875 
L 49.421875 0 
z
" id="DejaVuSerif-31"/>
      </defs>
      <g style="fill:#d2d2d2;" transform="translate(358.96 590.716563)scale(0.22 -0.22)">
       <use transform="translate(0 0.78125)" xlink:href="#DejaVuSerif-31"/>
      </g>
     </g>
    </g>
    <g id="xtick_3">
     <g id="line2d_3">
      <g>
       <use style="fill:#d2d2d2;stroke:#d2d2d2;stroke-width:0.8;" x="552" xlink:href="#m30e2c7a5d2" y="567"/>
      </g>
     </g>
     <g id="text_3">
      <!-- $\mathdefault{2}$ -->
      <defs>
       <path d="M 12.796875 55.515625 
L 7.328125 55.515625 
L 7.328125 68.5 
Q 12.546875 71.296875 17.84375 72.75 
Q 23.140625 74.21875 28.21875 74.21875 
Q 39.59375 74.21875 46.1875 68.703125 
Q 52.78125 63.1875 52.78125 53.71875 
Q 52.78125 43.015625 37.84375 28.125 
Q 36.671875 27 36.078125 26.421875 
L 17.671875 8.015625 
L 48.09375 8.015625 
L 48.09375 17 
L 53.8125 17 
L 53.8125 0 
L 6.78125 0 
L 6.78125 5.328125 
L 28.90625 27.390625 
Q 36.234375 34.71875 39.359375 40.84375 
Q 42.484375 46.96875 42.484375 53.71875 
Q 42.484375 61.078125 38.640625 65.234375 
Q 34.8125 69.390625 28.078125 69.390625 
Q 21.09375 69.390625 17.28125 65.921875 
Q 13.484375 62.453125 12.796875 55.515625 
z
" id="DejaVuSerif-32"/>
      </defs>
      <g style="fill:#d2d2d2;" transform="translate(544.96 590.716563)scale(0.22 -0.22)">
       <use transform="translate(0 0.78125)" xlink:href="#DejaVuSerif-32"/>
      </g>
     </g>
    </g>
    <g id="xtick_4">
     <g id="line2d_4">
      <g>
       <use style="fill:#d2d2d2;stroke:#d2d2d2;stroke-width:0.8;" x="738" xlink:href="#m30e2c7a5d2" y="567"/>
      </g>
     </g>
     <g id="text_4">
      <!-- $\mathdefault{3}$ -->
      <defs>
       <path d="M 9.71875 69.828125 
Q 15.4375 71.96875 20.671875 73.09375 
Q 25.921875 74.21875 30.515625 74.21875 
Q 41.21875 74.21875 47.21875 69.59375 
Q 53.21875 64.984375 53.21875 56.78125 
Q 53.21875 50.203125 49.0625 45.78125 
Q 44.921875 41.359375 37.3125 39.796875 
Q 46.296875 38.53125 51.25 33.28125 
Q 56.203125 28.03125 56.203125 19.671875 
Q 56.203125 9.46875 49.34375 4.015625 
Q 42.484375 -1.421875 29.59375 -1.421875 
Q 23.875 -1.421875 18.421875 -0.1875 
Q 12.984375 1.03125 7.625 3.515625 
L 7.625 17.671875 
L 13.09375 17.671875 
Q 13.578125 10.640625 17.828125 7.03125 
Q 22.078125 3.421875 29.78125 3.421875 
Q 37.25 3.421875 41.578125 7.734375 
Q 45.90625 12.0625 45.90625 19.578125 
Q 45.90625 28.171875 41.453125 32.59375 
Q 37.015625 37.015625 28.421875 37.015625 
L 23.78125 37.015625 
L 23.78125 42 
L 26.21875 42 
Q 34.765625 42 39.03125 45.53125 
Q 43.3125 49.078125 43.3125 56.203125 
Q 43.3125 62.59375 39.796875 65.984375 
Q 36.28125 69.390625 29.6875 69.390625 
Q 23.09375 69.390625 19.453125 66.265625 
Q 15.828125 63.140625 15.1875 56.984375 
L 9.71875 56.984375 
z
" id="DejaVuSerif-33"/>
      </defs>
      <g style="fill:#d2d2d2;" transform="translate(730.96 590.716563)scale(0.22 -0.22)">
       <use transform="translate(0 0.78125)" xlink:href="#DejaVuSerif-33"/>
      </g>
     </g>
    </g>
    <g id="xtick_5">
     <g id="line2d_5">
      <g>
       <use style="fill:#d2d2d2;stroke:#d2d2d2;stroke-width:0.8;" x="924" xlink:href="#m30e2c7a5d2" y="567"/>
      </g>
     </g>
     <g id="text_5">
      <!-- $\mathdefault{4}$ -->
      <defs>
       <path d="M 34.90625 24.703125 
L 34.90625 63.484375 
L 10.015625 24.703125 
z
M 56.390625 0 
L 23.1875 0 
L 23.1875 5.171875 
L 34.90625 5.171875 
L 34.90625 19.484375 
L 3.078125 19.484375 
L 3.078125 24.8125 
L 35.015625 74.21875 
L 44.671875 74.21875 
L 44.671875 24.703125 
L 58.59375 24.703125 
L 58.59375 19.484375 
L 44.671875 19.484375 
L 44.671875 5.171875 
L 56.390625 5.171875 
z
" id="DejaVuSerif-34"/>
      </defs>
      <g style="fill:#d2d2d2;" transform="translate(916.96 590.716563)scale(0.22 -0.22)">
       <use transform="translate(0 0.78125)" xlink:href="#DejaVuSerif-34"/>
      </g>
     </g>
    </g>
    <g id="xtick_6">
     <g id="line2d_6">
      <g>
       <use style="fill:#d2d2d2;stroke:#d2d2d2;stroke-width:0.8;" x="1110" xlink:href="#m30e2c7a5d2" y="567"/>
      </g>
     </g>
     <g id="text_6">
      <!-- $\mathdefault{5}$ -->
      <defs>
       <path d="M 50.296875 72.90625 
L 50.296875 64.890625 
L 16.890625 64.890625 
L 16.890625 44 
Q 19.4375 45.75 22.828125 46.625 
Q 26.21875 47.515625 30.421875 47.515625 
Q 42.234375 47.515625 49.0625 40.96875 
Q 55.90625 34.421875 55.90625 23.09375 
Q 55.90625 11.53125 49 5.046875 
Q 42.09375 -1.421875 29.59375 -1.421875 
Q 24.5625 -1.421875 19.28125 -0.1875 
Q 14.015625 1.03125 8.5 3.515625 
L 8.5 17.671875 
L 14.015625 17.671875 
Q 14.453125 10.75 18.421875 7.078125 
Q 22.40625 3.421875 29.59375 3.421875 
Q 37.3125 3.421875 41.453125 8.5 
Q 45.609375 13.578125 45.609375 23.09375 
Q 45.609375 32.5625 41.484375 37.609375 
Q 37.359375 42.671875 29.59375 42.671875 
Q 25.203125 42.671875 21.84375 41.109375 
Q 18.5 39.546875 15.921875 36.28125 
L 11.71875 36.28125 
L 11.71875 72.90625 
z
" id="DejaVuSerif-35"/>
      </defs>
      <g style="fill:#d2d2d2;" transform="translate(1102.96 590.716563)scale(0.22 -0.22)">
       <use transform="translate(0 0.09375)" xlink:href="#DejaVuSerif-35"/>
      </g>
     </g>
    </g>
    <g id="xtick_7">
     <g id="line2d_7">
      <g>
       <use style="fill:#d2d2d2;stroke:#d2d2d2;stroke-width:0.8;" x="1296" xlink:href="#m30e2c7a5d2" y="567"/>
      </g>
     </g>
     <g id="text_7">
      <!-- $\mathdefault{6}$ -->
      <defs>
       <path d="M 32.71875 3.421875 
Q 39.59375 3.421875 43.296875 8.46875 
Q 47.015625 13.53125 47.015625 23 
Q 47.015625 32.46875 43.296875 37.515625 
Q 39.59375 42.578125 32.71875 42.578125 
Q 25.734375 42.578125 22.0625 37.6875 
Q 18.40625 32.8125 18.40625 23.578125 
Q 18.40625 13.875 22.109375 8.640625 
Q 25.828125 3.421875 32.71875 3.421875 
z
M 16.796875 40.140625 
Q 20.125 43.796875 24.3125 45.59375 
Q 28.515625 47.40625 33.796875 47.40625 
Q 44.671875 47.40625 51 40.859375 
Q 57.328125 34.328125 57.328125 23 
Q 57.328125 11.921875 50.515625 5.25 
Q 43.703125 -1.421875 32.328125 -1.421875 
Q 19.96875 -1.421875 13.328125 7.78125 
Q 6.6875 17 6.6875 34.078125 
Q 6.6875 53.21875 14.546875 63.71875 
Q 22.40625 74.21875 36.71875 74.21875 
Q 40.578125 74.21875 44.828125 73.484375 
Q 49.078125 72.75 53.515625 71.296875 
L 53.515625 59.28125 
L 48 59.28125 
Q 47.40625 64.203125 44.234375 66.796875 
Q 41.0625 69.390625 35.6875 69.390625 
Q 26.21875 69.390625 21.578125 62.203125 
Q 16.9375 55.03125 16.796875 40.140625 
z
" id="DejaVuSerif-36"/>
      </defs>
      <g style="fill:#d2d2d2;" transform="translate(1288.96 590.716563)scale(0.22 -0.22)">
       <use transform="translate(0 0.78125)" xlink:href="#DejaVuSerif-36"/>
      </g>
     </g>
    </g>
    <g id="text_8">
     <!-- $\chi^{2}_{Null}$ -->
     <defs>
      <path d="M 30.03125 -12.203125 
L 26.421875 6.5 
L 6.15625 -20.84375 
L -4.4375 -20.84375 
L 24.265625 17.828125 
L 19.828125 40.828125 
Q 18.65625 46.96875 11.140625 46.96875 
L 8.734375 46.96875 
L 10.203125 54.6875 
L 13.625 54.59375 
Q 26.171875 54.25 27.734375 46.09375 
L 31.34375 27.390625 
L 51.609375 54.734375 
L 62.203125 54.734375 
L 33.5 16.0625 
L 37.9375 -6.9375 
Q 39.109375 -13.09375 46.625 -13.09375 
L 49.03125 -13.09375 
L 47.5625 -20.796875 
L 44.140625 -20.703125 
Q 31.59375 -20.359375 30.03125 -12.203125 
z
" id="DejaVuSans-Oblique-3c7"/>
      <path d="M 19.1875 8.296875 
L 53.609375 8.296875 
L 53.609375 0 
L 7.328125 0 
L 7.328125 8.296875 
Q 12.9375 14.109375 22.625 23.890625 
Q 32.328125 33.6875 34.8125 36.53125 
Q 39.546875 41.84375 41.421875 45.53125 
Q 43.3125 49.21875 43.3125 52.78125 
Q 43.3125 58.59375 39.234375 62.25 
Q 35.15625 65.921875 28.609375 65.921875 
Q 23.96875 65.921875 18.8125 64.3125 
Q 13.671875 62.703125 7.8125 59.421875 
L 7.8125 69.390625 
Q 13.765625 71.78125 18.9375 73 
Q 24.125 74.21875 28.421875 74.21875 
Q 39.75 74.21875 46.484375 68.546875 
Q 53.21875 62.890625 53.21875 53.421875 
Q 53.21875 48.921875 51.53125 44.890625 
Q 49.859375 40.875 45.40625 35.40625 
Q 44.1875 33.984375 37.640625 27.21875 
Q 31.109375 20.453125 19.1875 8.296875 
z
" id="DejaVuSans-32"/>
      <path d="M 16.890625 72.90625 
L 30.171875 72.90625 
L 50.296875 10.40625 
L 62.5 72.90625 
L 72.125 72.90625 
L 57.90625 0 
L 44.578125 0 
L 24.515625 62.890625 
L 12.3125 0 
L 2.6875 0 
z
" id="DejaVuSans-Oblique-4e"/>
      <path d="M 6.6875 21.6875 
L 13.09375 54.6875 
L 22.125 54.6875 
L 15.71875 22.015625 
Q 15.234375 19.625 15.015625 17.921875 
Q 14.796875 16.21875 14.796875 15.09375 
Q 14.796875 10.9375 17.328125 8.65625 
Q 19.875 6.390625 24.515625 6.390625 
Q 31.734375 6.390625 37 11.265625 
Q 42.28125 16.15625 43.890625 24.421875 
L 49.90625 54.6875 
L 58.890625 54.6875 
L 48.296875 0 
L 39.3125 0 
L 41.109375 8.59375 
Q 37.3125 3.8125 32.0625 1.1875 
Q 26.8125 -1.421875 20.90625 -1.421875 
Q 13.71875 -1.421875 9.71875 2.515625 
Q 5.71875 6.453125 5.71875 13.484375 
Q 5.71875 14.9375 5.953125 17.140625 
Q 6.203125 19.34375 6.6875 21.6875 
z
" id="DejaVuSans-Oblique-75"/>
      <path d="M 18.3125 75.984375 
L 27.296875 75.984375 
L 12.5 0 
L 3.515625 0 
z
" id="DejaVuSans-Oblique-6c"/>
     </defs>
     <g style="fill:#d2d2d2;" transform="translate(706.32 628.411875)scale(0.32 -0.32)">
      <use transform="translate(0 0.701562)" xlink:href="#DejaVuSans-Oblique-3c7"/>
      <use transform="translate(63.652396 39.046875)scale(0.7)" xlink:href="#DejaVuSans-32"/>
      <use transform="translate(59.179688 -26.642188)scale(0.7)" xlink:href="#DejaVuSans-Oblique-4e"/>
      <use transform="translate(111.542969 -26.642188)scale(0.7)" xlink:href="#DejaVuSans-Oblique-75"/>
      <use transform="translate(155.908203 -26.642188)scale(0.7)" xlink:href="#DejaVuSans-Oblique-6c"/>
      <use transform="translate(175.356445 -26.642188)scale(0.7)" xlink:href="#DejaVuSans-Oblique-6c"/>
     </g>
    </g>
   </g>
   <g id="matplotlib.axis_2">
    <g id="ytick_1">
     <g id="line2d_8">
      <defs>
       <path d="M 0 0 
L -3.5 0 
" id="m5149d3403c" style="stroke:#d2d2d2;stroke-width:0.8;"/>
      </defs>
      <g>
       <use style="fill:#d2d2d2;stroke:#d2d2d2;stroke-width:0.8;" x="180" xlink:href="#m5149d3403c" y="567"/>
      </g>
     </g>
     <g id="text_9">
      <!-- $\mathdefault{0.0}$ -->
      <defs>
       <path d="M 9.421875 5.078125 
Q 9.421875 7.8125 11.28125 9.71875 
Q 13.140625 11.625 15.921875 11.625 
Q 18.609375 11.625 20.5 9.71875 
Q 22.40625 7.8125 22.40625 5.078125 
Q 22.40625 2.390625 20.5 0.484375 
Q 18.609375 -1.421875 15.921875 -1.421875 
Q 13.140625 -1.421875 11.28125 0.453125 
Q 9.421875 2.34375 9.421875 5.078125 
z
" id="DejaVuSerif-2e"/>
      </defs>
      <g style="fill:#d2d2d2;" transform="translate(137.8 575.358281)scale(0.22 -0.22)">
       <use transform="translate(0 0.78125)" xlink:href="#DejaVuSerif-30"/>
       <use transform="translate(63.623047 0.78125)" xlink:href="#DejaVuSerif-2e"/>
       <use transform="translate(95.410156 0.78125)" xlink:href="#DejaVuSerif-30"/>
      </g>
     </g>
    </g>
    <g id="ytick_2">
     <g id="line2d_9">
      <g>
       <use style="fill:#d2d2d2;stroke:#d2d2d2;stroke-width:0.8;" x="180" xlink:href="#m5149d3403c" y="501.307565"/>
      </g>
     </g>
     <g id="text_10">
      <!-- $\mathdefault{0.2}$ -->
      <g style="fill:#d2d2d2;" transform="translate(137.8 509.665846)scale(0.22 -0.22)">
       <use transform="translate(0 0.78125)" xlink:href="#DejaVuSerif-30"/>
       <use transform="translate(63.623047 0.78125)" xlink:href="#DejaVuSerif-2e"/>
       <use transform="translate(95.378906 0.78125)" xlink:href="#DejaVuSerif-32"/>
      </g>
     </g>
    </g>
    <g id="ytick_3">
     <g id="line2d_10">
      <g>
       <use style="fill:#d2d2d2;stroke:#d2d2d2;stroke-width:0.8;" x="180" xlink:href="#m5149d3403c" y="435.615129"/>
      </g>
     </g>
     <g id="text_11">
      <!-- $\mathdefault{0.4}$ -->
      <g style="fill:#d2d2d2;" transform="translate(137.8 443.973411)scale(0.22 -0.22)">
       <use transform="translate(0 0.78125)" xlink:href="#DejaVuSerif-30"/>
       <use transform="translate(63.623047 0.78125)" xlink:href="#DejaVuSerif-2e"/>
       <use transform="translate(95.410156 0.78125)" xlink:href="#DejaVuSerif-34"/>
      </g>
     </g>
    </g>
    <g id="ytick_4">
     <g id="line2d_11">
      <g>
       <use style="fill:#d2d2d2;stroke:#d2d2d2;stroke-width:0.8;" x="180" xlink:href="#m5149d3403c" y="369.922694"/>
      </g>
     </g>
     <g id="text_12">
      <!-- $\mathdefault{0.6}$ -->
      <g style="fill:#d2d2d2;" transform="translate(137.8 378.280975)scale(0.22 -0.22)">
       <use transform="translate(0 0.78125)" xlink:href="#DejaVuSerif-30"/>
       <use transform="translate(63.623047 0.78125)" xlink:href="#DejaVuSerif-2e"/>
       <use transform="translate(95.410156 0.78125)" xlink:href="#DejaVuSerif-36"/>
      </g>
     </g>
    </g>
    <g id="ytick_5">
     <g id="line2d_12">
      <g>
       <use style="fill:#d2d2d2;stroke:#d2d2d2;stroke-width:0.8;" x="180" xlink:href="#m5149d3403c" y="304.230259"/>
      </g>
     </g>
     <g id="text_13">
      <!-- $\mathdefault{0.8}$ -->
      <defs>
       <path d="M 46.578125 19.921875 
Q 46.578125 27.734375 42.6875 32.046875 
Q 38.8125 36.375 31.78125 36.375 
Q 24.75 36.375 20.875 32.046875 
Q 17 27.734375 17 19.921875 
Q 17 12.0625 20.875 7.734375 
Q 24.75 3.421875 31.78125 3.421875 
Q 38.8125 3.421875 42.6875 7.734375 
Q 46.578125 12.0625 46.578125 19.921875 
z
M 44.578125 55.328125 
Q 44.578125 61.96875 41.203125 65.671875 
Q 37.84375 69.390625 31.78125 69.390625 
Q 25.78125 69.390625 22.390625 65.671875 
Q 19 61.96875 19 55.328125 
Q 19 48.640625 22.390625 44.921875 
Q 25.78125 41.21875 31.78125 41.21875 
Q 37.84375 41.21875 41.203125 44.921875 
Q 44.578125 48.640625 44.578125 55.328125 
z
M 39.3125 38.8125 
Q 47.609375 37.703125 52.25 32.6875 
Q 56.890625 27.6875 56.890625 19.921875 
Q 56.890625 9.671875 50.390625 4.125 
Q 43.890625 -1.421875 31.78125 -1.421875 
Q 19.734375 -1.421875 13.203125 4.125 
Q 6.6875 9.671875 6.6875 19.921875 
Q 6.6875 27.6875 11.328125 32.6875 
Q 15.96875 37.703125 24.3125 38.8125 
Q 16.9375 40.140625 13 44.40625 
Q 9.078125 48.6875 9.078125 55.328125 
Q 9.078125 64.109375 15.125 69.15625 
Q 21.1875 74.21875 31.78125 74.21875 
Q 42.390625 74.21875 48.4375 69.15625 
Q 54.5 64.109375 54.5 55.328125 
Q 54.5 48.6875 50.5625 44.40625 
Q 46.625 40.140625 39.3125 38.8125 
z
" id="DejaVuSerif-38"/>
      </defs>
      <g style="fill:#d2d2d2;" transform="translate(138.02 312.58854)scale(0.22 -0.22)">
       <use transform="translate(0 0.78125)" xlink:href="#DejaVuSerif-30"/>
       <use transform="translate(63.623047 0.78125)" xlink:href="#DejaVuSerif-2e"/>
       <use transform="translate(95.363281 0.78125)" xlink:href="#DejaVuSerif-38"/>
      </g>
     </g>
    </g>
    <g id="ytick_6">
     <g id="line2d_13">
      <g>
       <use style="fill:#d2d2d2;stroke:#d2d2d2;stroke-width:0.8;" x="180" xlink:href="#m5149d3403c" y="238.537823"/>
      </g>
     </g>
     <g id="text_14">
      <!-- $\mathdefault{1.0}$ -->
      <g style="fill:#d2d2d2;" transform="translate(137.8 246.896104)scale(0.22 -0.22)">
       <use transform="translate(0 0.78125)" xlink:href="#DejaVuSerif-31"/>
       <use transform="translate(63.623047 0.78125)" xlink:href="#DejaVuSerif-2e"/>
       <use transform="translate(95.410156 0.78125)" xlink:href="#DejaVuSerif-30"/>
      </g>
     </g>
    </g>
    <g id="ytick_7">
     <g id="line2d_14">
      <g>
       <use style="fill:#d2d2d2;stroke:#d2d2d2;stroke-width:0.8;" x="180" xlink:href="#m5149d3403c" y="172.845388"/>
      </g>
     </g>
     <g id="text_15">
      <!-- $\mathdefault{1.2}$ -->
      <g style="fill:#d2d2d2;" transform="translate(137.8 181.203669)scale(0.22 -0.22)">
       <use transform="translate(0 0.78125)" xlink:href="#DejaVuSerif-31"/>
       <use transform="translate(63.623047 0.78125)" xlink:href="#DejaVuSerif-2e"/>
       <use transform="translate(95.378906 0.78125)" xlink:href="#DejaVuSerif-32"/>
      </g>
     </g>
    </g>
    <g id="ytick_8">
     <g id="line2d_15">
      <g>
       <use style="fill:#d2d2d2;stroke:#d2d2d2;stroke-width:0.8;" x="180" xlink:href="#m5149d3403c" y="107.152952"/>
      </g>
     </g>
     <g id="text_16">
      <!-- $\mathdefault{1.4}$ -->
      <g style="fill:#d2d2d2;" transform="translate(137.8 115.511234)scale(0.22 -0.22)">
       <use transform="translate(0 0.78125)" xlink:href="#DejaVuSerif-31"/>
       <use transform="translate(63.623047 0.78125)" xlink:href="#DejaVuSerif-2e"/>
       <use transform="translate(95.410156 0.78125)" xlink:href="#DejaVuSerif-34"/>
      </g>
     </g>
    </g>
    <g id="text_17">
     <!-- Density -->
     <defs>
      <path d="M 24.703125 5.171875 
L 33.796875 5.171875 
Q 48 5.171875 55.59375 13.28125 
Q 63.1875 21.390625 63.1875 36.53125 
Q 63.1875 51.65625 55.609375 59.65625 
Q 48.046875 67.671875 33.796875 67.671875 
L 24.703125 67.671875 
z
M 5.515625 0 
L 5.515625 5.171875 
L 14.796875 5.171875 
L 14.796875 67.671875 
L 5.515625 67.671875 
L 5.515625 72.90625 
L 34.515625 72.90625 
Q 53.375 72.90625 63.890625 63.28125 
Q 74.421875 53.65625 74.421875 36.53125 
Q 74.421875 19.34375 63.875 9.671875 
Q 53.328125 0 34.515625 0 
z
" id="DejaVuSerif-44"/>
      <path d="M 54.203125 25 
L 15.484375 25 
L 15.484375 24.609375 
Q 15.484375 14.109375 19.4375 8.765625 
Q 23.390625 3.421875 31.109375 3.421875 
Q 37.015625 3.421875 40.796875 6.515625 
Q 44.578125 9.625 46.09375 15.71875 
L 53.328125 15.71875 
Q 51.171875 7.171875 45.375 2.875 
Q 39.59375 -1.421875 30.171875 -1.421875 
Q 18.796875 -1.421875 11.890625 6.078125 
Q 4.984375 13.578125 4.984375 25.984375 
Q 4.984375 38.28125 11.765625 45.796875 
Q 18.5625 53.328125 29.59375 53.328125 
Q 41.359375 53.328125 47.65625 46.0625 
Q 53.953125 38.8125 54.203125 25 
z
M 43.609375 30.171875 
Q 43.3125 39.265625 39.765625 43.875 
Q 36.234375 48.484375 29.59375 48.484375 
Q 23.390625 48.484375 19.828125 43.84375 
Q 16.265625 39.203125 15.484375 30.171875 
z
" id="DejaVuSerif-65"/>
      <path d="M 4.109375 0 
L 4.109375 5.171875 
L 12.203125 5.171875 
L 12.203125 46.6875 
L 3.609375 46.6875 
L 3.609375 51.90625 
L 21.1875 51.90625 
L 21.1875 42.671875 
Q 23.6875 47.953125 27.65625 50.640625 
Q 31.640625 53.328125 36.921875 53.328125 
Q 45.515625 53.328125 49.5625 48.390625 
Q 53.609375 43.453125 53.609375 33.015625 
L 53.609375 5.171875 
L 61.625 5.171875 
L 61.625 0 
L 36.8125 0 
L 36.8125 5.171875 
L 44.578125 5.171875 
L 44.578125 30.171875 
Q 44.578125 39.703125 42.234375 43.234375 
Q 39.890625 46.78125 33.984375 46.78125 
Q 27.734375 46.78125 24.453125 42.203125 
Q 21.1875 37.640625 21.1875 28.90625 
L 21.1875 5.171875 
L 29 5.171875 
L 29 0 
z
" id="DejaVuSerif-6e"/>
      <path d="M 5.609375 2.875 
L 5.609375 14.984375 
L 10.796875 14.984375 
Q 10.984375 9.1875 14.421875 6.296875 
Q 17.875 3.421875 24.609375 3.421875 
Q 30.671875 3.421875 33.84375 5.6875 
Q 37.015625 7.953125 37.015625 12.3125 
Q 37.015625 15.71875 34.6875 17.8125 
Q 32.375 19.921875 24.90625 22.3125 
L 18.40625 24.515625 
Q 11.71875 26.65625 8.71875 29.875 
Q 5.71875 33.109375 5.71875 38.09375 
Q 5.71875 45.21875 10.9375 49.265625 
Q 16.15625 53.328125 25.390625 53.328125 
Q 29.5 53.328125 34.03125 52.25 
Q 38.578125 51.171875 43.40625 49.125 
L 43.40625 37.796875 
L 38.234375 37.796875 
Q 38.03125 42.828125 34.703125 45.65625 
Q 31.390625 48.484375 25.6875 48.484375 
Q 20.015625 48.484375 17.109375 46.484375 
Q 14.203125 44.484375 14.203125 40.484375 
Q 14.203125 37.203125 16.40625 35.21875 
Q 18.609375 33.25 25.203125 31.203125 
L 32.328125 29 
Q 39.703125 26.703125 42.9375 23.265625 
Q 46.1875 19.828125 46.1875 14.40625 
Q 46.1875 7.03125 40.546875 2.796875 
Q 34.90625 -1.421875 25 -1.421875 
Q 19.96875 -1.421875 15.1875 -0.34375 
Q 10.40625 0.734375 5.609375 2.875 
z
" id="DejaVuSerif-73"/>
      <path d="M 9.71875 68.015625 
Q 9.71875 70.265625 11.34375 71.921875 
Q 12.984375 73.578125 15.28125 73.578125 
Q 17.53125 73.578125 19.15625 71.921875 
Q 20.796875 70.265625 20.796875 68.015625 
Q 20.796875 65.71875 19.1875 64.109375 
Q 17.578125 62.5 15.28125 62.5 
Q 12.984375 62.5 11.34375 64.109375 
Q 9.71875 65.71875 9.71875 68.015625 
z
M 21.1875 5.171875 
L 29.6875 5.171875 
L 29.6875 0 
L 3.609375 0 
L 3.609375 5.171875 
L 12.203125 5.171875 
L 12.203125 46.6875 
L 3.609375 46.6875 
L 3.609375 51.90625 
L 21.1875 51.90625 
z
" id="DejaVuSerif-69"/>
      <path d="M 10.796875 46.6875 
L 2.875 46.6875 
L 2.875 51.90625 
L 10.796875 51.90625 
L 10.796875 68.015625 
L 19.828125 68.015625 
L 19.828125 51.90625 
L 36.71875 51.90625 
L 36.71875 46.6875 
L 19.828125 46.6875 
L 19.828125 13.71875 
Q 19.828125 7.125 21.09375 5.265625 
Q 22.359375 3.421875 25.78125 3.421875 
Q 29.296875 3.421875 30.90625 5.484375 
Q 32.515625 7.5625 32.625 12.203125 
L 39.40625 12.203125 
Q 39.015625 5.125 35.546875 1.84375 
Q 32.078125 -1.421875 25 -1.421875 
Q 17.234375 -1.421875 14.015625 2.015625 
Q 10.796875 5.46875 10.796875 13.71875 
z
" id="DejaVuSerif-74"/>
      <path d="M 21.578125 -9.515625 
L 25 -0.875 
L 5.609375 46.6875 
L -0.296875 46.6875 
L -0.296875 51.90625 
L 23.578125 51.90625 
L 23.578125 46.6875 
L 15.28125 46.6875 
L 29.890625 10.984375 
L 44.484375 46.6875 
L 36.71875 46.6875 
L 36.71875 51.90625 
L 56.203125 51.90625 
L 56.203125 46.6875 
L 50.390625 46.6875 
L 26.609375 -11.71875 
Q 24.171875 -17.78125 21.1875 -20 
Q 18.21875 -22.21875 12.796875 -22.21875 
Q 10.5 -22.21875 8.078125 -21.828125 
Q 5.671875 -21.4375 3.21875 -20.703125 
L 3.21875 -10.796875 
L 7.8125 -10.796875 
Q 8.109375 -14.109375 9.5 -15.546875 
Q 10.890625 -17 13.8125 -17 
Q 16.5 -17 18.140625 -15.5 
Q 19.78125 -14.015625 21.578125 -9.515625 
z
" id="DejaVuSerif-79"/>
     </defs>
     <g style="fill:#d2d2d2;" transform="translate(126.69 383.78)rotate(-90)scale(0.32 -0.32)">
      <use xlink:href="#DejaVuSerif-44"/>
      <use x="80.175781" xlink:href="#DejaVuSerif-65"/>
      <use x="139.355469" xlink:href="#DejaVuSerif-6e"/>
      <use x="203.759766" xlink:href="#DejaVuSerif-73"/>
      <use x="255.078125" xlink:href="#DejaVuSerif-69"/>
      <use x="287.060547" xlink:href="#DejaVuSerif-74"/>
      <use x="327.246094" xlink:href="#DejaVuSerif-79"/>
     </g>
    </g>
   </g>
   <g id="patch_63">
    <path d="M 180 567 
L 180 77.76 
" style="fill:none;stroke:#d2d2d2;stroke-linecap:square;stroke-linejoin:miter;stroke-width:1.5;"/>
   </g>
   <g id="patch_64">
    <path d="M 180 567 
L 1296 567 
" style="fill:none;stroke:#d2d2d2;stroke-linecap:square;stroke-linejoin:miter;stroke-width:1.5;"/>
   </g>
  </g>
  <g id="axes_2">
   <g id="matplotlib.axis_3"/>
   <g id="line2d_16">
    <path clip-path="url(#p2310c5383a)" d="M 256.266418 567 
L 256.266418 77.76 
" style="fill:none;stroke:#f79a52;stroke-linecap:square;stroke-width:6;"/>
   </g>
   <g id="patch_65">
    <path d="M 618.553433 518.076 
L 622.395554 524.476 
Q 445.448266 521.596 268.500979 519.996 
L 271.062393 524.476 
Q 264.663026 522.556 258.263659 518.076 
Q 264.663026 513.596 271.062393 511.676 
L 268.500979 516.156 
Q 445.448266 514.556 622.395554 511.676 
L 618.553433 518.076 
z
" style="fill:#f79a52;stroke:#f79a52;stroke-linecap:round;"/>
   </g>
   <g id="text_18">
    <!-- $\chi^{2}_{Bendectin}$ = 0.410, $p=$0.52 -->
    <defs>
     <path d="M 16.890625 72.90625 
L 42.09375 72.90625 
Q 52.34375 72.90625 57.421875 69.09375 
Q 62.5 65.28125 62.5 57.625 
Q 62.5 50.59375 58.125 45.484375 
Q 53.765625 40.375 46.6875 39.3125 
Q 52.734375 37.9375 55.765625 34.078125 
Q 58.796875 30.21875 58.796875 23.78125 
Q 58.796875 12.796875 50.65625 6.390625 
Q 42.53125 0 28.421875 0 
L 2.6875 0 
z
M 19.28125 34.8125 
L 14.109375 8.109375 
L 29.984375 8.109375 
Q 38.921875 8.109375 43.75 12.203125 
Q 48.578125 16.3125 48.578125 23.78125 
Q 48.578125 29.546875 45.375 32.171875 
Q 42.1875 34.8125 35.109375 34.8125 
z
M 25.09375 64.796875 
L 20.796875 42.828125 
L 35.5 42.828125 
Q 43.359375 42.828125 47.78125 46.234375 
Q 52.203125 49.65625 52.203125 55.71875 
Q 52.203125 60.453125 49.21875 62.625 
Q 46.234375 64.796875 39.703125 64.796875 
z
" id="DejaVuSans-Oblique-42"/>
     <path d="M 48.09375 32.234375 
Q 48.25 33.015625 48.3125 33.84375 
Q 48.390625 34.671875 48.390625 35.5 
Q 48.390625 41.453125 44.890625 44.921875 
Q 41.40625 48.390625 35.40625 48.390625 
Q 28.71875 48.390625 23.578125 44.15625 
Q 18.453125 39.9375 15.828125 32.171875 
z
M 55.90625 25.203125 
L 14.109375 25.203125 
Q 13.8125 23.34375 13.71875 22.265625 
Q 13.625 21.1875 13.625 20.40625 
Q 13.625 13.625 17.796875 9.90625 
Q 21.96875 6.203125 29.59375 6.203125 
Q 35.453125 6.203125 40.671875 7.515625 
Q 45.90625 8.84375 50.390625 11.375 
L 48.6875 2.484375 
Q 43.84375 0.53125 38.6875 -0.4375 
Q 33.546875 -1.421875 28.21875 -1.421875 
Q 16.84375 -1.421875 10.71875 4.015625 
Q 4.59375 9.46875 4.59375 19.484375 
Q 4.59375 28.03125 7.640625 35.375 
Q 10.6875 42.71875 16.609375 48.484375 
Q 20.40625 52.09375 25.65625 54.046875 
Q 30.90625 56 36.8125 56 
Q 46.09375 56 51.578125 50.4375 
Q 57.078125 44.875 57.078125 35.5 
Q 57.078125 33.25 56.78125 30.6875 
Q 56.5 28.125 55.90625 25.203125 
z
" id="DejaVuSans-Oblique-65"/>
     <path d="M 55.71875 33.015625 
L 49.3125 0 
L 40.28125 0 
L 46.6875 32.671875 
Q 47.125 34.96875 47.359375 36.71875 
Q 47.609375 38.484375 47.609375 39.5 
Q 47.609375 43.609375 45.015625 45.890625 
Q 42.4375 48.1875 37.796875 48.1875 
Q 30.5625 48.1875 25.34375 43.375 
Q 20.125 38.578125 18.5 30.328125 
L 12.5 0 
L 3.515625 0 
L 14.109375 54.6875 
L 23.09375 54.6875 
L 21.296875 46.09375 
Q 25.046875 50.828125 30.3125 53.40625 
Q 35.59375 56 41.40625 56 
Q 48.640625 56 52.609375 52.09375 
Q 56.59375 48.1875 56.59375 41.109375 
Q 56.59375 39.359375 56.375 37.359375 
Q 56.15625 35.359375 55.71875 33.015625 
z
" id="DejaVuSans-Oblique-6e"/>
     <path d="M 41.796875 8.203125 
Q 38.1875 3.46875 33.25 1.015625 
Q 28.328125 -1.421875 22.3125 -1.421875 
Q 14.109375 -1.421875 9.34375 4.171875 
Q 4.59375 9.765625 4.59375 19.484375 
Q 4.59375 27.59375 7.46875 34.9375 
Q 10.359375 42.28125 15.828125 48.09375 
Q 19.4375 51.953125 23.96875 53.96875 
Q 28.515625 56 33.5 56 
Q 38.765625 56 42.796875 53.453125 
Q 46.828125 50.921875 49.03125 46.1875 
L 54.890625 75.984375 
L 63.921875 75.984375 
L 49.125 0 
L 40.09375 0 
z
M 13.921875 21.09375 
Q 13.921875 14.015625 17.109375 10.0625 
Q 20.3125 6.109375 25.984375 6.109375 
Q 30.171875 6.109375 33.765625 8.125 
Q 37.359375 10.15625 40.09375 14.109375 
Q 42.96875 18.21875 44.625 23.578125 
Q 46.296875 28.953125 46.296875 34.1875 
Q 46.296875 40.96875 43.09375 44.765625 
Q 39.890625 48.578125 34.28125 48.578125 
Q 30.03125 48.578125 26.359375 46.578125 
Q 22.703125 44.578125 20.125 40.828125 
Q 17.28125 36.765625 15.59375 31.390625 
Q 13.921875 26.03125 13.921875 21.09375 
z
" id="DejaVuSans-Oblique-64"/>
     <path d="M 53.609375 52.59375 
L 51.8125 43.703125 
Q 48.578125 46.046875 44.9375 47.21875 
Q 41.3125 48.390625 37.40625 48.390625 
Q 33.109375 48.390625 29.21875 46.875 
Q 25.34375 45.359375 22.703125 42.578125 
Q 18.5 38.328125 16.203125 32.609375 
Q 13.921875 26.90625 13.921875 20.796875 
Q 13.921875 13.421875 17.609375 9.8125 
Q 21.296875 6.203125 28.8125 6.203125 
Q 32.515625 6.203125 36.6875 7.328125 
Q 40.875 8.453125 45.40625 10.6875 
L 43.703125 1.8125 
Q 39.796875 0.203125 35.671875 -0.609375 
Q 31.546875 -1.421875 27.203125 -1.421875 
Q 16.3125 -1.421875 10.453125 4.015625 
Q 4.59375 9.46875 4.59375 19.578125 
Q 4.59375 28.078125 7.640625 35.234375 
Q 10.6875 42.390625 16.703125 48.09375 
Q 20.796875 52 26.3125 54 
Q 31.84375 56 38.375 56 
Q 42.1875 56 45.9375 55.140625 
Q 49.703125 54.296875 53.609375 52.59375 
z
" id="DejaVuSans-Oblique-63"/>
     <path d="M 42.28125 54.6875 
L 40.921875 47.703125 
L 23 47.703125 
L 17.1875 18.015625 
Q 16.890625 16.359375 16.75 15.234375 
Q 16.609375 14.109375 16.609375 13.484375 
Q 16.609375 10.359375 18.484375 8.9375 
Q 20.359375 7.515625 24.515625 7.515625 
L 33.59375 7.515625 
L 32.078125 0 
L 23.484375 0 
Q 15.484375 0 11.546875 3.125 
Q 7.625 6.25 7.625 12.59375 
Q 7.625 13.71875 7.765625 15.0625 
Q 7.90625 16.40625 8.203125 18.015625 
L 14.015625 47.703125 
L 6.390625 47.703125 
L 7.8125 54.6875 
L 15.28125 54.6875 
L 18.3125 70.21875 
L 27.296875 70.21875 
L 24.3125 54.6875 
z
" id="DejaVuSans-Oblique-74"/>
     <path d="M 18.3125 75.984375 
L 27.296875 75.984375 
L 25.09375 64.59375 
L 16.109375 64.59375 
z
M 14.203125 54.6875 
L 23.1875 54.6875 
L 12.5 0 
L 3.515625 0 
z
" id="DejaVuSans-Oblique-69"/>
     <path id="DejaVuSerif-20"/>
     <path d="M 10.59375 45.21875 
L 73.1875 45.21875 
L 73.1875 37.40625 
L 10.59375 37.40625 
z
M 10.59375 25.296875 
L 73.1875 25.296875 
L 73.1875 17.484375 
L 10.59375 17.484375 
z
" id="DejaVuSerif-3d"/>
     <path d="M 3.609375 -9.71875 
Q 8.203125 -6.34375 10.34375 -1.78125 
Q 12.5 2.78125 12.5 9.28125 
L 12.5 11.078125 
L 22.125 11.078125 
Q 21.734375 2.734375 18.1875 -3.25 
Q 14.65625 -9.234375 7.515625 -13.625 
z
" id="DejaVuSerif-2c"/>
     <path d="M 49.609375 33.6875 
Q 49.609375 40.875 46.484375 44.671875 
Q 43.359375 48.484375 37.5 48.484375 
Q 33.5 48.484375 29.859375 46.4375 
Q 26.21875 44.390625 23.390625 40.484375 
Q 20.609375 36.625 18.9375 31.15625 
Q 17.28125 25.6875 17.28125 20.3125 
Q 17.28125 13.484375 20.40625 9.796875 
Q 23.53125 6.109375 29.296875 6.109375 
Q 33.546875 6.109375 37.1875 8.109375 
Q 40.828125 10.109375 43.40625 13.921875 
Q 46.1875 17.921875 47.890625 23.34375 
Q 49.609375 28.765625 49.609375 33.6875 
z
M 21.78125 46.390625 
Q 25.390625 51.125 30.296875 53.5625 
Q 35.203125 56 41.21875 56 
Q 49.609375 56 54.25 50.5 
Q 58.890625 45.015625 58.890625 35.109375 
Q 58.890625 27 56 19.65625 
Q 53.125 12.3125 47.703125 6.5 
Q 44.09375 2.640625 39.546875 0.609375 
Q 35.015625 -1.421875 29.984375 -1.421875 
Q 24.171875 -1.421875 20.21875 1 
Q 16.265625 3.421875 14.3125 8.203125 
L 8.6875 -20.796875 
L -0.296875 -20.796875 
L 14.40625 54.6875 
L 23.390625 54.6875 
z
" id="DejaVuSans-Oblique-70"/>
     <path d="M 10.59375 45.40625 
L 73.1875 45.40625 
L 73.1875 37.203125 
L 10.59375 37.203125 
z
M 10.59375 25.484375 
L 73.1875 25.484375 
L 73.1875 17.1875 
L 10.59375 17.1875 
z
" id="DejaVuSans-3d"/>
    </defs>
    <g style="fill:#f79a52;" transform="translate(626.4 527.996)scale(0.32 -0.32)">
     <use transform="translate(0 0.701562)" xlink:href="#DejaVuSans-Oblique-3c7"/>
     <use transform="translate(63.652396 39.046875)scale(0.7)" xlink:href="#DejaVuSans-32"/>
     <use transform="translate(59.179688 -26.642188)scale(0.7)" xlink:href="#DejaVuSans-Oblique-42"/>
     <use transform="translate(107.202148 -26.642188)scale(0.7)" xlink:href="#DejaVuSans-Oblique-65"/>
     <use transform="translate(150.268555 -26.642188)scale(0.7)" xlink:href="#DejaVuSans-Oblique-6e"/>
     <use transform="translate(194.633789 -26.642188)scale(0.7)" xlink:href="#DejaVuSans-Oblique-64"/>
     <use transform="translate(239.067383 -26.642188)scale(0.7)" xlink:href="#DejaVuSans-Oblique-65"/>
     <use transform="translate(282.133789 -26.642188)scale(0.7)" xlink:href="#DejaVuSans-Oblique-63"/>
     <use transform="translate(320.620117 -26.642188)scale(0.7)" xlink:href="#DejaVuSans-Oblique-74"/>
     <use transform="translate(348.066406 -26.642188)scale(0.7)" xlink:href="#DejaVuSans-Oblique-69"/>
     <use transform="translate(367.514648 -26.642188)scale(0.7)" xlink:href="#DejaVuSans-Oblique-6e"/>
     <use transform="translate(414.614258 0.701562)" xlink:href="#DejaVuSerif-20"/>
     <use transform="translate(446.401367 0.701562)" xlink:href="#DejaVuSerif-3d"/>
     <use transform="translate(530.19043 0.701562)" xlink:href="#DejaVuSerif-20"/>
     <use transform="translate(561.977539 0.701562)" xlink:href="#DejaVuSerif-30"/>
     <use transform="translate(625.600586 0.701562)" xlink:href="#DejaVuSerif-2e"/>
     <use transform="translate(657.387695 0.701562)" xlink:href="#DejaVuSerif-34"/>
     <use transform="translate(721.010742 0.701562)" xlink:href="#DejaVuSerif-31"/>
     <use transform="translate(784.633789 0.701562)" xlink:href="#DejaVuSerif-30"/>
     <use transform="translate(848.256836 0.701562)" xlink:href="#DejaVuSerif-2c"/>
     <use transform="translate(880.043945 0.701562)" xlink:href="#DejaVuSerif-20"/>
     <use transform="translate(911.831055 0.701562)" xlink:href="#DejaVuSans-Oblique-70"/>
     <use transform="translate(994.790039 0.701562)" xlink:href="#DejaVuSans-3d"/>
     <use transform="translate(1098.061523 0.701562)" xlink:href="#DejaVuSerif-30"/>
     <use transform="translate(1161.68457 0.701562)" xlink:href="#DejaVuSerif-2e"/>
     <use transform="translate(1193.47168 0.701562)" xlink:href="#DejaVuSerif-35"/>
     <use transform="translate(1257.094727 0.701562)" xlink:href="#DejaVuSerif-32"/>
    </g>
   </g>
  </g>
  <g id="axes_3">
   <g id="matplotlib.axis_4"/>
   <g id="line2d_17">
    <path clip-path="url(#p2310c5383a)" d="M 189.685444 -1 
L 191.197324 48.770221 
L 194.929766 122.680343 
L 198.662207 173.555888 
L 202.394649 211.421938 
L 206.12709 241.085192 
L 209.859532 265.178168 
L 213.591973 285.280493 
L 217.324415 302.405566 
L 221.056856 317.237696 
L 224.789298 330.258093 
L 228.521739 341.816472 
L 232.254181 352.174017 
L 235.986622 361.530329 
L 239.719064 370.040971 
L 243.451505 377.829263 
L 247.183946 384.994424 
L 250.916388 391.61733 
L 254.648829 397.764679 
L 258.381271 403.492044 
L 262.113712 408.846165 
L 265.846154 413.866686 
L 269.578595 418.587491 
L 273.311037 423.037741 
L 277.043478 427.242696 
L 280.77592 431.224367 
L 284.508361 435.002036 
L 288.240803 438.59268 
L 291.973244 442.01132 
L 299.438127 448.384517 
L 306.90301 454.21224 
L 314.367893 459.567609 
L 321.832776 464.51041 
L 329.297659 469.090098 
L 336.762542 473.348006 
L 344.227425 477.31901 
L 351.692308 481.032781 
L 359.157191 484.514761 
L 366.622074 487.786918 
L 374.086957 490.868339 
L 381.551839 493.775712 
L 392.749164 497.842036 
L 403.946488 501.591891 
L 415.143813 505.060951 
L 426.341137 508.279407 
L 437.538462 511.273028 
L 448.735786 514.063974 
L 459.93311 516.671436 
L 474.862876 519.891232 
L 489.792642 522.848408 
L 504.722408 525.571815 
L 519.652174 528.086082 
L 538.314381 530.966812 
L 556.976589 533.588939 
L 575.638796 535.982222 
L 594.301003 538.171983 
L 616.695652 540.561396 
L 639.090301 542.720817 
L 661.48495 544.677288 
L 687.61204 546.733905 
L 713.73913 548.576624 
L 743.598662 550.454153 
L 773.458194 552.119444 
L 807.050167 553.773472 
L 844.374582 555.377065 
L 885.431438 556.899038 
L 930.220736 558.316277 
L 978.742475 559.613308 
L 1030.996656 560.781511 
L 1090.715719 561.880378 
L 1157.899666 562.875724 
L 1232.548495 563.747447 
L 1296 564.3366 
L 1296 564.3366 
" style="fill:none;opacity:0.6;stroke:#fff8d0;stroke-linecap:square;stroke-width:8;"/>
   </g>
   <g id="legend_1">
    <g id="line2d_18">
     <path d="M 1153.66 106.576563 
L 1197.66 106.576563 
" style="fill:none;opacity:0.6;stroke:#fff8d0;stroke-linecap:square;stroke-width:8;"/>
    </g>
    <g id="line2d_19"/>
    <g id="text_19">
     <!-- $k=$ 1 -->
     <defs>
      <path d="M 18.3125 75.984375 
L 27.296875 75.984375 
L 18.703125 31.6875 
L 49.515625 54.6875 
L 61.1875 54.6875 
L 26.8125 28.515625 
L 51.90625 0 
L 41.015625 0 
L 17.671875 26.703125 
L 12.5 0 
L 3.515625 0 
z
" id="DejaVuSans-Oblique-6b"/>
     </defs>
     <g style="fill:#d2d2d2;" transform="translate(1215.26 114.276563)scale(0.22 -0.22)">
      <use transform="translate(0 0.015625)" xlink:href="#DejaVuSans-Oblique-6b"/>
      <use transform="translate(77.392578 0.015625)" xlink:href="#DejaVuSans-3d"/>
      <use transform="translate(180.664062 0.015625)" xlink:href="#DejaVuSerif-20"/>
      <use transform="translate(212.451172 0.015625)" xlink:href="#DejaVuSerif-31"/>
     </g>
    </g>
   </g>
  </g>
  <g id="axes_4">
   <g id="patch_66">
    <path d="M 720 388.8 
L 1224 388.8 
L 1224 129.6 
L 720 129.6 
z
" style="fill:none;opacity:0;"/>
   </g>
   <g id="patch_67">
    <path clip-path="url(#p778366dbd5)" d="M 720 388.8 
L 746.287504 388.8 
L 746.287504 141.942857 
L 720 141.942857 
z
" style="fill:#88c9c1;stroke:#d2d2d2;stroke-linejoin:miter;"/>
   </g>
   <g id="patch_68">
    <path clip-path="url(#p778366dbd5)" d="M 746.287504 388.8 
L 772.575008 388.8 
L 772.575008 297.950614 
L 746.287504 297.950614 
z
" style="fill:#88c9c1;stroke:#d2d2d2;stroke-linejoin:miter;"/>
   </g>
   <g id="patch_69">
    <path clip-path="url(#p778366dbd5)" d="M 772.575008 388.8 
L 798.862512 388.8 
L 798.862512 325.689463 
L 772.575008 325.689463 
z
" style="fill:#88c9c1;stroke:#d2d2d2;stroke-linejoin:miter;"/>
   </g>
   <g id="patch_70">
    <path clip-path="url(#p778366dbd5)" d="M 798.862512 388.8 
L 825.150016 388.8 
L 825.150016 344.926697 
L 798.862512 344.926697 
z
" style="fill:#88c9c1;stroke:#d2d2d2;stroke-linejoin:miter;"/>
   </g>
   <g id="patch_71">
    <path clip-path="url(#p778366dbd5)" d="M 825.150016 388.8 
L 851.43752 388.8 
L 851.43752 355.414092 
L 825.150016 355.414092 
z
" style="fill:#88c9c1;stroke:#d2d2d2;stroke-linejoin:miter;"/>
   </g>
   <g id="patch_72">
    <path clip-path="url(#p778366dbd5)" d="M 851.43752 388.8 
L 877.725024 388.8 
L 877.725024 362.860763 
L 851.43752 362.860763 
z
" style="fill:#88c9c1;stroke:#d2d2d2;stroke-linejoin:miter;"/>
   </g>
   <g id="patch_73">
    <path clip-path="url(#p778366dbd5)" d="M 877.725024 388.8 
L 904.012528 388.8 
L 904.012528 367.576988 
L 877.725024 367.576988 
z
" style="fill:#88c9c1;stroke:#d2d2d2;stroke-linejoin:miter;"/>
   </g>
   <g id="patch_74">
    <path clip-path="url(#p778366dbd5)" d="M 904.012528 388.8 
L 930.300032 388.8 
L 930.300032 372.355268 
L 904.012528 372.355268 
z
" style="fill:#88c9c1;stroke:#d2d2d2;stroke-linejoin:miter;"/>
   </g>
   <g id="patch_75">
    <path clip-path="url(#p778366dbd5)" d="M 930.300032 388.8 
L 956.587535 388.8 
L 956.587535 376.388882 
L 930.300032 376.388882 
z
" style="fill:#88c9c1;stroke:#d2d2d2;stroke-linejoin:miter;"/>
   </g>
   <g id="patch_76">
    <path clip-path="url(#p778366dbd5)" d="M 956.587535 388.8 
L 982.875039 388.8 
L 982.875039 376.761215 
L 956.587535 376.761215 
z
" style="fill:#88c9c1;stroke:#d2d2d2;stroke-linejoin:miter;"/>
   </g>
   <g id="patch_77">
    <path clip-path="url(#p778366dbd5)" d="M 982.875039 388.8 
L 1009.162543 388.8 
L 1009.162543 380.484551 
L 982.875039 380.484551 
z
" style="fill:#88c9c1;stroke:#d2d2d2;stroke-linejoin:miter;"/>
   </g>
   <g id="patch_78">
    <path clip-path="url(#p778366dbd5)" d="M 1009.162543 388.8 
L 1035.450047 388.8 
L 1035.450047 380.36044 
L 1009.162543 380.36044 
z
" style="fill:#88c9c1;stroke:#d2d2d2;stroke-linejoin:miter;"/>
   </g>
   <g id="patch_79">
    <path clip-path="url(#p778366dbd5)" d="M 1035.450047 388.8 
L 1061.737551 388.8 
L 1061.737551 382.656496 
L 1035.450047 382.656496 
z
" style="fill:#88c9c1;stroke:#d2d2d2;stroke-linejoin:miter;"/>
   </g>
   <g id="patch_80">
    <path clip-path="url(#p778366dbd5)" d="M 1061.737551 388.8 
L 1088.025055 388.8 
L 1088.025055 384.145831 
L 1061.737551 384.145831 
z
" style="fill:#88c9c1;stroke:#d2d2d2;stroke-linejoin:miter;"/>
   </g>
   <g id="patch_81">
    <path clip-path="url(#p778366dbd5)" d="M 1088.025055 388.8 
L 1114.312559 388.8 
L 1114.312559 385.573109 
L 1088.025055 385.573109 
z
" style="fill:#88c9c1;stroke:#d2d2d2;stroke-linejoin:miter;"/>
   </g>
   <g id="patch_82">
    <path clip-path="url(#p778366dbd5)" d="M 1114.312559 388.8 
L 1140.600063 388.8 
L 1140.600063 384.083775 
L 1114.312559 384.083775 
z
" style="fill:#88c9c1;stroke:#d2d2d2;stroke-linejoin:miter;"/>
   </g>
   <g id="patch_83">
    <path clip-path="url(#p778366dbd5)" d="M 1140.600063 388.8 
L 1166.887567 388.8 
L 1166.887567 385.883387 
L 1140.600063 385.883387 
z
" style="fill:#88c9c1;stroke:#d2d2d2;stroke-linejoin:miter;"/>
   </g>
   <g id="patch_84">
    <path clip-path="url(#p778366dbd5)" d="M 1166.887567 388.8 
L 1193.17507 388.8 
L 1193.17507 386.628054 
L 1166.887567 386.628054 
z
" style="fill:#88c9c1;stroke:#d2d2d2;stroke-linejoin:miter;"/>
   </g>
   <g id="patch_85">
    <path clip-path="url(#p778366dbd5)" d="M 1193.17507 388.8 
L 1219.462574 388.8 
L 1219.462574 386.938332 
L 1193.17507 386.938332 
z
" style="fill:#88c9c1;stroke:#d2d2d2;stroke-linejoin:miter;"/>
   </g>
   <g id="patch_86">
    <path clip-path="url(#p778366dbd5)" d="M 1219.462574 388.8 
L 1245.750078 388.8 
L 1245.750078 386.628054 
L 1219.462574 386.628054 
z
" style="fill:#88c9c1;stroke:#d2d2d2;stroke-linejoin:miter;"/>
   </g>
   <g id="patch_87">
    <path clip-path="url(#p778366dbd5)" d="M 1245.750078 388.8 
L 1272.037582 388.8 
L 1272.037582 387.124499 
L 1245.750078 387.124499 
z
" style="fill:#88c9c1;stroke:#d2d2d2;stroke-linejoin:miter;"/>
   </g>
   <g id="patch_88">
    <path clip-path="url(#p778366dbd5)" d="M 1272.037582 388.8 
L 1298.325086 388.8 
L 1298.325086 387.310666 
L 1272.037582 387.310666 
z
" style="fill:#88c9c1;stroke:#d2d2d2;stroke-linejoin:miter;"/>
   </g>
   <g id="patch_89">
    <path clip-path="url(#p778366dbd5)" d="M 1298.325086 388.8 
L 1324.61259 388.8 
L 1324.61259 387.434777 
L 1298.325086 387.434777 
z
" style="fill:#88c9c1;stroke:#d2d2d2;stroke-linejoin:miter;"/>
   </g>
   <g id="patch_90">
    <path clip-path="url(#p778366dbd5)" d="M 1324.61259 388.8 
L 1350.900094 388.8 
L 1350.900094 387.620944 
L 1324.61259 387.620944 
z
" style="fill:#88c9c1;stroke:#d2d2d2;stroke-linejoin:miter;"/>
   </g>
   <g id="patch_91">
    <path clip-path="url(#p778366dbd5)" d="M 1350.900094 388.8 
L 1377.187598 388.8 
L 1377.187598 388.2415 
L 1350.900094 388.2415 
z
" style="fill:#88c9c1;stroke:#d2d2d2;stroke-linejoin:miter;"/>
   </g>
   <g id="patch_92">
    <path clip-path="url(#p778366dbd5)" d="M 1377.187598 388.8 
L 1403.475101 388.8 
L 1403.475101 388.2415 
L 1377.187598 388.2415 
z
" style="fill:#88c9c1;stroke:#d2d2d2;stroke-linejoin:miter;"/>
   </g>
   <g id="patch_93">
    <path clip-path="url(#p778366dbd5)" d="M 1403.475101 388.8 
L 1429.762605 388.8 
L 1429.762605 388.489722 
L 1403.475101 388.489722 
z
" style="fill:#88c9c1;stroke:#d2d2d2;stroke-linejoin:miter;"/>
   </g>
   <g id="patch_94">
    <path clip-path="url(#p778366dbd5)" d="M 1429.762605 388.8 
L 1456.050109 388.8 
L 1456.050109 388.365611 
L 1429.762605 388.365611 
z
" style="fill:#88c9c1;stroke:#d2d2d2;stroke-linejoin:miter;"/>
   </g>
   <g id="patch_95">
    <path clip-path="url(#p778366dbd5)" d="M 1456.050109 388.8 
L 1482.337613 388.8 
L 1482.337613 388.489722 
L 1456.050109 388.489722 
z
" style="fill:#88c9c1;stroke:#d2d2d2;stroke-linejoin:miter;"/>
   </g>
   <g id="patch_96">
    <path clip-path="url(#p778366dbd5)" d="M 1482.337613 388.8 
L 1508.625117 388.8 
L 1508.625117 388.427666 
L 1482.337613 388.427666 
z
" style="fill:#88c9c1;stroke:#d2d2d2;stroke-linejoin:miter;"/>
   </g>
   <g id="patch_97">
    <path clip-path="url(#p778366dbd5)" d="M 1508.625117 388.8 
L 1534.912621 388.8 
L 1534.912621 388.551778 
L 1508.625117 388.551778 
z
" style="fill:#88c9c1;stroke:#d2d2d2;stroke-linejoin:miter;"/>
   </g>
   <g id="patch_98">
    <path clip-path="url(#p778366dbd5)" d="M 1534.912621 388.8 
L 1561.200125 388.8 
L 1561.200125 388.675889 
L 1534.912621 388.675889 
z
" style="fill:#88c9c1;stroke:#d2d2d2;stroke-linejoin:miter;"/>
   </g>
   <g id="patch_99">
    <path clip-path="url(#p778366dbd5)" d="M 1561.200125 388.8 
L 1587.487629 388.8 
L 1587.487629 388.675889 
L 1561.200125 388.675889 
z
" style="fill:#88c9c1;stroke:#d2d2d2;stroke-linejoin:miter;"/>
   </g>
   <g id="patch_100">
    <path clip-path="url(#p778366dbd5)" d="M 1587.487629 388.8 
L 1613.775133 388.8 
L 1613.775133 388.613833 
L 1587.487629 388.613833 
z
" style="fill:#88c9c1;stroke:#d2d2d2;stroke-linejoin:miter;"/>
   </g>
   <g id="patch_101">
    <path clip-path="url(#p778366dbd5)" d="M 1613.775133 388.8 
L 1640.062636 388.8 
L 1640.062636 388.551778 
L 1613.775133 388.551778 
z
" style="fill:#88c9c1;stroke:#d2d2d2;stroke-linejoin:miter;"/>
   </g>
   <g id="patch_102">
    <path clip-path="url(#p778366dbd5)" d="M 1640.062636 388.8 
L 1666.35014 388.8 
L 1666.35014 388.737944 
L 1640.062636 388.737944 
z
" style="fill:#88c9c1;stroke:#d2d2d2;stroke-linejoin:miter;"/>
   </g>
   <g id="patch_103">
    <path clip-path="url(#p778366dbd5)" d="M 1666.35014 388.8 
L 1692.637644 388.8 
L 1692.637644 388.675889 
L 1666.35014 388.675889 
z
" style="fill:#88c9c1;stroke:#d2d2d2;stroke-linejoin:miter;"/>
   </g>
   <g id="patch_104">
    <path clip-path="url(#p778366dbd5)" d="M 1692.637644 388.8 
L 1718.925148 388.8 
L 1718.925148 388.737944 
L 1692.637644 388.737944 
z
" style="fill:#88c9c1;stroke:#d2d2d2;stroke-linejoin:miter;"/>
   </g>
   <g id="patch_105">
    <path clip-path="url(#p778366dbd5)" d="M 1718.925148 388.8 
L 1745.212652 388.8 
L 1745.212652 388.737944 
L 1718.925148 388.737944 
z
" style="fill:#88c9c1;stroke:#d2d2d2;stroke-linejoin:miter;"/>
   </g>
   <g id="patch_106">
    <path clip-path="url(#p778366dbd5)" d="M 1745.212652 388.8 
L 1771.500156 388.8 
L 1771.500156 388.737944 
L 1745.212652 388.737944 
z
" style="fill:#88c9c1;stroke:#d2d2d2;stroke-linejoin:miter;"/>
   </g>
   <g id="patch_107">
    <path clip-path="url(#p778366dbd5)" d="M 1771.500156 388.8 
L 1797.78766 388.8 
L 1797.78766 388.8 
L 1771.500156 388.8 
z
" style="fill:#88c9c1;stroke:#d2d2d2;stroke-linejoin:miter;"/>
   </g>
   <g id="patch_108">
    <path clip-path="url(#p778366dbd5)" d="M 1797.78766 388.8 
L 1824.075164 388.8 
L 1824.075164 388.737944 
L 1797.78766 388.737944 
z
" style="fill:#88c9c1;stroke:#d2d2d2;stroke-linejoin:miter;"/>
   </g>
   <g id="patch_109">
    <path clip-path="url(#p778366dbd5)" d="M 1824.075164 388.8 
L 1850.362667 388.8 
L 1850.362667 388.8 
L 1824.075164 388.8 
z
" style="fill:#88c9c1;stroke:#d2d2d2;stroke-linejoin:miter;"/>
   </g>
   <g id="patch_110">
    <path clip-path="url(#p778366dbd5)" d="M 1850.362667 388.8 
L 1876.650171 388.8 
L 1876.650171 388.8 
L 1850.362667 388.8 
z
" style="fill:#88c9c1;stroke:#d2d2d2;stroke-linejoin:miter;"/>
   </g>
   <g id="patch_111">
    <path clip-path="url(#p778366dbd5)" d="M 1876.650171 388.8 
L 1902.937675 388.8 
L 1902.937675 388.8 
L 1876.650171 388.8 
z
" style="fill:#88c9c1;stroke:#d2d2d2;stroke-linejoin:miter;"/>
   </g>
   <g id="patch_112">
    <path clip-path="url(#p778366dbd5)" d="M 1902.937675 388.8 
L 1929.225179 388.8 
L 1929.225179 388.8 
L 1902.937675 388.8 
z
" style="fill:#88c9c1;stroke:#d2d2d2;stroke-linejoin:miter;"/>
   </g>
   <g id="patch_113">
    <path clip-path="url(#p778366dbd5)" d="M 1929.225179 388.8 
L 1955.512683 388.8 
L 1955.512683 388.8 
L 1929.225179 388.8 
z
" style="fill:#88c9c1;stroke:#d2d2d2;stroke-linejoin:miter;"/>
   </g>
   <g id="patch_114">
    <path clip-path="url(#p778366dbd5)" d="M 1955.512683 388.8 
L 1981.800187 388.8 
L 1981.800187 388.8 
L 1955.512683 388.8 
z
" style="fill:#88c9c1;stroke:#d2d2d2;stroke-linejoin:miter;"/>
   </g>
   <g id="patch_115">
    <path clip-path="url(#p778366dbd5)" d="M 1981.800187 388.8 
L 2008.087691 388.8 
L 2008.087691 388.8 
L 1981.800187 388.8 
z
" style="fill:#88c9c1;stroke:#d2d2d2;stroke-linejoin:miter;"/>
   </g>
   <g id="patch_116">
    <path clip-path="url(#p778366dbd5)" d="M 2008.087691 388.8 
L 2034.375195 388.8 
L 2034.375195 388.675889 
L 2008.087691 388.675889 
z
" style="fill:#88c9c1;stroke:#d2d2d2;stroke-linejoin:miter;"/>
   </g>
   <g id="patch_117">
    <path clip-path="url(#p778366dbd5)" d="M 2034.375195 388.8 
L 2060.662699 388.8 
L 2060.662699 388.8 
L 2034.375195 388.8 
z
" style="fill:#88c9c1;stroke:#d2d2d2;stroke-linejoin:miter;"/>
   </g>
   <g id="patch_118">
    <path clip-path="url(#p778366dbd5)" d="M 2060.662699 388.8 
L 2086.950202 388.8 
L 2086.950202 388.8 
L 2060.662699 388.8 
z
" style="fill:#88c9c1;stroke:#d2d2d2;stroke-linejoin:miter;"/>
   </g>
   <g id="patch_119">
    <path clip-path="url(#p778366dbd5)" d="M 2086.950202 388.8 
L 2113.237706 388.8 
L 2113.237706 388.8 
L 2086.950202 388.8 
z
" style="fill:#88c9c1;stroke:#d2d2d2;stroke-linejoin:miter;"/>
   </g>
   <g id="patch_120">
    <path clip-path="url(#p778366dbd5)" d="M 2113.237706 388.8 
L 2139.52521 388.8 
L 2139.52521 388.8 
L 2113.237706 388.8 
z
" style="fill:#88c9c1;stroke:#d2d2d2;stroke-linejoin:miter;"/>
   </g>
   <g id="patch_121">
    <path clip-path="url(#p778366dbd5)" d="M 2139.52521 388.8 
L 2165.812714 388.8 
L 2165.812714 388.8 
L 2139.52521 388.8 
z
" style="fill:#88c9c1;stroke:#d2d2d2;stroke-linejoin:miter;"/>
   </g>
   <g id="patch_122">
    <path clip-path="url(#p778366dbd5)" d="M 2165.812714 388.8 
L 2192.100218 388.8 
L 2192.100218 388.8 
L 2165.812714 388.8 
z
" style="fill:#88c9c1;stroke:#d2d2d2;stroke-linejoin:miter;"/>
   </g>
   <g id="patch_123">
    <path clip-path="url(#p778366dbd5)" d="M 2192.100218 388.8 
L 2218.387722 388.8 
L 2218.387722 388.8 
L 2192.100218 388.8 
z
" style="fill:#88c9c1;stroke:#d2d2d2;stroke-linejoin:miter;"/>
   </g>
   <g id="patch_124">
    <path clip-path="url(#p778366dbd5)" d="M 2218.387722 388.8 
L 2244.675226 388.8 
L 2244.675226 388.8 
L 2218.387722 388.8 
z
" style="fill:#88c9c1;stroke:#d2d2d2;stroke-linejoin:miter;"/>
   </g>
   <g id="patch_125">
    <path clip-path="url(#p778366dbd5)" d="M 2244.675226 388.8 
L 2270.96273 388.8 
L 2270.96273 388.8 
L 2244.675226 388.8 
z
" style="fill:#88c9c1;stroke:#d2d2d2;stroke-linejoin:miter;"/>
   </g>
   <g id="patch_126">
    <path clip-path="url(#p778366dbd5)" d="M 2270.96273 388.8 
L 2297.250233 388.8 
L 2297.250233 388.737944 
L 2270.96273 388.737944 
z
" style="fill:#88c9c1;stroke:#d2d2d2;stroke-linejoin:miter;"/>
   </g>
   <g id="matplotlib.axis_5">
    <g id="xtick_8">
     <g id="line2d_20">
      <g>
       <use style="fill:#d2d2d2;stroke:#d2d2d2;stroke-width:0.8;" x="720" xlink:href="#m30e2c7a5d2" y="388.8"/>
      </g>
     </g>
     <g id="text_20">
      <!-- $\mathdefault{0}$ -->
      <g style="fill:#d2d2d2;" transform="translate(712.96 412.516563)scale(0.22 -0.22)">
       <use transform="translate(0 0.78125)" xlink:href="#DejaVuSerif-30"/>
      </g>
     </g>
    </g>
    <g id="xtick_9">
     <g id="line2d_21">
      <g>
       <use style="fill:#d2d2d2;stroke:#d2d2d2;stroke-width:0.8;" x="846" xlink:href="#m30e2c7a5d2" y="388.8"/>
      </g>
     </g>
     <g id="text_21">
      <!-- $\mathdefault{2}$ -->
      <g style="fill:#d2d2d2;" transform="translate(838.96 412.516563)scale(0.22 -0.22)">
       <use transform="translate(0 0.78125)" xlink:href="#DejaVuSerif-32"/>
      </g>
     </g>
    </g>
    <g id="xtick_10">
     <g id="line2d_22">
      <g>
       <use style="fill:#d2d2d2;stroke:#d2d2d2;stroke-width:0.8;" x="972" xlink:href="#m30e2c7a5d2" y="388.8"/>
      </g>
     </g>
     <g id="text_22">
      <!-- $\mathdefault{4}$ -->
      <g style="fill:#d2d2d2;" transform="translate(964.96 412.516563)scale(0.22 -0.22)">
       <use transform="translate(0 0.78125)" xlink:href="#DejaVuSerif-34"/>
      </g>
     </g>
    </g>
    <g id="xtick_11">
     <g id="line2d_23">
      <g>
       <use style="fill:#d2d2d2;stroke:#d2d2d2;stroke-width:0.8;" x="1098" xlink:href="#m30e2c7a5d2" y="388.8"/>
      </g>
     </g>
     <g id="text_23">
      <!-- $\mathdefault{6}$ -->
      <g style="fill:#d2d2d2;" transform="translate(1090.96 412.516563)scale(0.22 -0.22)">
       <use transform="translate(0 0.78125)" xlink:href="#DejaVuSerif-36"/>
      </g>
     </g>
    </g>
    <g id="xtick_12">
     <g id="line2d_24">
      <g>
       <use style="fill:#d2d2d2;stroke:#d2d2d2;stroke-width:0.8;" x="1224" xlink:href="#m30e2c7a5d2" y="388.8"/>
      </g>
     </g>
     <g id="text_24">
      <!-- $\mathdefault{8}$ -->
      <g style="fill:#d2d2d2;" transform="translate(1216.96 412.516563)scale(0.22 -0.22)">
       <use transform="translate(0 0.78125)" xlink:href="#DejaVuSerif-38"/>
      </g>
     </g>
    </g>
    <g id="text_25">
     <!-- $\chi^{2}_{CI}$ -->
     <defs>
      <path d="M 69.484375 67.28125 
L 67.484375 56.890625 
Q 62.796875 61.625 57.546875 63.921875 
Q 52.296875 66.21875 46.1875 66.21875 
Q 37.84375 66.21875 31.515625 62.203125 
Q 25.203125 58.203125 20.609375 50 
Q 17.671875 44.734375 16.125 38.84375 
Q 14.59375 32.953125 14.59375 27 
Q 14.59375 17.046875 19.75 11.8125 
Q 24.90625 6.59375 34.71875 6.59375 
Q 41.5 6.59375 47.75 8.765625 
Q 54 10.9375 59.90625 15.28125 
L 57.625 3.609375 
Q 51.8125 1.125 45.875 -0.140625 
Q 39.9375 -1.421875 33.984375 -1.421875 
Q 19.96875 -1.421875 12.078125 6.1875 
Q 4.203125 13.8125 4.203125 27.390625 
Q 4.203125 36.078125 7.203125 44.46875 
Q 10.203125 52.875 15.828125 59.8125 
Q 21.78125 67.1875 29.421875 70.703125 
Q 37.0625 74.21875 47.21875 74.21875 
Q 53.46875 74.21875 59.0625 72.484375 
Q 64.65625 70.75 69.484375 67.28125 
z
" id="DejaVuSans-Oblique-43"/>
      <path d="M 16.890625 72.90625 
L 26.8125 72.90625 
L 12.59375 0 
L 2.6875 0 
z
" id="DejaVuSans-Oblique-49"/>
     </defs>
     <g style="fill:#d2d2d2;" transform="translate(952.2 448.391875)scale(0.3 -0.3)">
      <use transform="translate(0 0.765625)" xlink:href="#DejaVuSans-Oblique-3c7"/>
      <use transform="translate(63.652396 39.046875)scale(0.7)" xlink:href="#DejaVuSans-32"/>
      <use transform="translate(59.179688 -26.578125)scale(0.7)" xlink:href="#DejaVuSans-Oblique-43"/>
      <use transform="translate(108.056641 -26.578125)scale(0.7)" xlink:href="#DejaVuSans-Oblique-49"/>
     </g>
    </g>
   </g>
   <g id="matplotlib.axis_6">
    <g id="ytick_9">
     <g id="line2d_25">
      <g>
       <use style="fill:#d2d2d2;stroke:#d2d2d2;stroke-width:0.8;" x="720" xlink:href="#m5149d3403c" y="388.8"/>
      </g>
     </g>
     <g id="text_26">
      <!-- $\mathdefault{0.00}$ -->
      <g style="fill:#d2d2d2;" transform="translate(663.94 397.158281)scale(0.22 -0.22)">
       <use transform="translate(0 0.78125)" xlink:href="#DejaVuSerif-30"/>
       <use transform="translate(63.623047 0.78125)" xlink:href="#DejaVuSerif-2e"/>
       <use transform="translate(95.410156 0.78125)" xlink:href="#DejaVuSerif-30"/>
       <use transform="translate(159.033203 0.78125)" xlink:href="#DejaVuSerif-30"/>
      </g>
     </g>
    </g>
    <g id="ytick_10">
     <g id="line2d_26">
      <g>
       <use style="fill:#d2d2d2;stroke:#d2d2d2;stroke-width:0.8;" x="720" xlink:href="#m5149d3403c" y="324.066405"/>
      </g>
     </g>
     <g id="text_27">
      <!-- $\mathdefault{0.25}$ -->
      <g style="fill:#d2d2d2;" transform="translate(663.94 332.424686)scale(0.22 -0.22)">
       <use transform="translate(0 0.78125)" xlink:href="#DejaVuSerif-30"/>
       <use transform="translate(63.623047 0.78125)" xlink:href="#DejaVuSerif-2e"/>
       <use transform="translate(95.378906 0.78125)" xlink:href="#DejaVuSerif-32"/>
       <use transform="translate(159.001953 0.78125)" xlink:href="#DejaVuSerif-35"/>
      </g>
     </g>
    </g>
    <g id="ytick_11">
     <g id="line2d_27">
      <g>
       <use style="fill:#d2d2d2;stroke:#d2d2d2;stroke-width:0.8;" x="720" xlink:href="#m5149d3403c" y="259.332809"/>
      </g>
     </g>
     <g id="text_28">
      <!-- $\mathdefault{0.50}$ -->
      <g style="fill:#d2d2d2;" transform="translate(663.94 267.691091)scale(0.22 -0.22)">
       <use transform="translate(0 0.78125)" xlink:href="#DejaVuSerif-30"/>
       <use transform="translate(63.623047 0.78125)" xlink:href="#DejaVuSerif-2e"/>
       <use transform="translate(95.410156 0.78125)" xlink:href="#DejaVuSerif-35"/>
       <use transform="translate(159.033203 0.78125)" xlink:href="#DejaVuSerif-30"/>
      </g>
     </g>
    </g>
    <g id="ytick_12">
     <g id="line2d_28">
      <g>
       <use style="fill:#d2d2d2;stroke:#d2d2d2;stroke-width:0.8;" x="720" xlink:href="#m5149d3403c" y="194.599214"/>
      </g>
     </g>
     <g id="text_29">
      <!-- $\mathdefault{0.75}$ -->
      <defs>
       <path d="M 56.390625 67.921875 
L 27.875 0 
L 20.609375 0 
L 47.796875 64.890625 
L 14.109375 64.890625 
L 14.109375 55.90625 
L 8.40625 55.90625 
L 8.40625 72.90625 
L 56.390625 72.90625 
z
" id="DejaVuSerif-37"/>
      </defs>
      <g style="fill:#d2d2d2;" transform="translate(663.94 202.957495)scale(0.22 -0.22)">
       <use transform="translate(0 0.78125)" xlink:href="#DejaVuSerif-30"/>
       <use transform="translate(63.623047 0.78125)" xlink:href="#DejaVuSerif-2e"/>
       <use transform="translate(95.410156 0.78125)" xlink:href="#DejaVuSerif-37"/>
       <use transform="translate(159.033203 0.78125)" xlink:href="#DejaVuSerif-35"/>
      </g>
     </g>
    </g>
    <g id="ytick_13">
     <g id="line2d_29">
      <g>
       <use style="fill:#d2d2d2;stroke:#d2d2d2;stroke-width:0.8;" x="720" xlink:href="#m5149d3403c" y="129.865619"/>
      </g>
     </g>
     <g id="text_30">
      <!-- $\mathdefault{1.00}$ -->
      <g style="fill:#d2d2d2;" transform="translate(663.94 138.2239)scale(0.22 -0.22)">
       <use transform="translate(0 0.78125)" xlink:href="#DejaVuSerif-31"/>
       <use transform="translate(63.623047 0.78125)" xlink:href="#DejaVuSerif-2e"/>
       <use transform="translate(95.410156 0.78125)" xlink:href="#DejaVuSerif-30"/>
       <use transform="translate(159.033203 0.78125)" xlink:href="#DejaVuSerif-30"/>
      </g>
     </g>
    </g>
    <g id="text_31">
     <!-- Density -->
     <g style="fill:#d2d2d2;" transform="translate(653.274375 316.7625)rotate(-90)scale(0.3 -0.3)">
      <use xlink:href="#DejaVuSerif-44"/>
      <use x="80.175781" xlink:href="#DejaVuSerif-65"/>
      <use x="139.355469" xlink:href="#DejaVuSerif-6e"/>
      <use x="203.759766" xlink:href="#DejaVuSerif-73"/>
      <use x="255.078125" xlink:href="#DejaVuSerif-69"/>
      <use x="287.060547" xlink:href="#DejaVuSerif-74"/>
      <use x="327.246094" xlink:href="#DejaVuSerif-79"/>
     </g>
    </g>
   </g>
   <g id="patch_127">
    <path d="M 720 388.8 
L 720 129.6 
" style="fill:none;stroke:#d2d2d2;stroke-linecap:square;stroke-linejoin:miter;stroke-width:1.5;"/>
   </g>
   <g id="patch_128">
    <path d="M 720 388.8 
L 1224 388.8 
" style="fill:none;stroke:#d2d2d2;stroke-linecap:square;stroke-linejoin:miter;stroke-width:1.5;"/>
   </g>
  </g>
  <g id="axes_5">
   <g id="matplotlib.axis_7"/>
   <g id="line2d_30">
    <path clip-path="url(#p778366dbd5)" d="M 745.832174 388.8 
L 745.832174 129.6 
" style="fill:none;stroke:#f79a52;stroke-linecap:square;stroke-width:6;"/>
   </g>
   <g id="line2d_31">
    <path clip-path="url(#p778366dbd5)" d="M 720.092871 388.8 
L 720.092871 181.44 
" style="fill:none;stroke:#e04b4b;stroke-linecap:square;stroke-width:6;"/>
   </g>
   <g id="line2d_32">
    <path clip-path="url(#p778366dbd5)" d="M 1171.830644 388.8 
L 1171.830644 181.44 
" style="fill:none;stroke:#e04b4b;stroke-linecap:square;stroke-width:6;"/>
   </g>
   <g id="text_32">
    <!-- $CI_{95\%}$ -->
    <defs>
     <path d="M 10.984375 1.515625 
L 10.984375 10.5 
Q 14.703125 8.734375 18.5 7.8125 
Q 22.3125 6.890625 25.984375 6.890625 
Q 35.75 6.890625 40.890625 13.453125 
Q 46.046875 20.015625 46.78125 33.40625 
Q 43.953125 29.203125 39.59375 26.953125 
Q 35.25 24.703125 29.984375 24.703125 
Q 19.046875 24.703125 12.671875 31.3125 
Q 6.296875 37.9375 6.296875 49.421875 
Q 6.296875 60.640625 12.9375 67.421875 
Q 19.578125 74.21875 30.609375 74.21875 
Q 43.265625 74.21875 49.921875 64.515625 
Q 56.59375 54.828125 56.59375 36.375 
Q 56.59375 19.140625 48.40625 8.859375 
Q 40.234375 -1.421875 26.421875 -1.421875 
Q 22.703125 -1.421875 18.890625 -0.6875 
Q 15.09375 0.046875 10.984375 1.515625 
z
M 30.609375 32.421875 
Q 37.25 32.421875 41.125 36.953125 
Q 45.015625 41.5 45.015625 49.421875 
Q 45.015625 57.28125 41.125 61.84375 
Q 37.25 66.40625 30.609375 66.40625 
Q 23.96875 66.40625 20.09375 61.84375 
Q 16.21875 57.28125 16.21875 49.421875 
Q 16.21875 41.5 20.09375 36.953125 
Q 23.96875 32.421875 30.609375 32.421875 
z
" id="DejaVuSans-39"/>
     <path d="M 10.796875 72.90625 
L 49.515625 72.90625 
L 49.515625 64.59375 
L 19.828125 64.59375 
L 19.828125 46.734375 
Q 21.96875 47.46875 24.109375 47.828125 
Q 26.265625 48.1875 28.421875 48.1875 
Q 40.625 48.1875 47.75 41.5 
Q 54.890625 34.8125 54.890625 23.390625 
Q 54.890625 11.625 47.5625 5.09375 
Q 40.234375 -1.421875 26.90625 -1.421875 
Q 22.3125 -1.421875 17.546875 -0.640625 
Q 12.796875 0.140625 7.71875 1.703125 
L 7.71875 11.625 
Q 12.109375 9.234375 16.796875 8.0625 
Q 21.484375 6.890625 26.703125 6.890625 
Q 35.15625 6.890625 40.078125 11.328125 
Q 45.015625 15.765625 45.015625 23.390625 
Q 45.015625 31 40.078125 35.4375 
Q 35.15625 39.890625 26.703125 39.890625 
Q 22.75 39.890625 18.8125 39.015625 
Q 14.890625 38.140625 10.796875 36.28125 
z
" id="DejaVuSans-35"/>
     <path d="M 72.703125 32.078125 
Q 68.453125 32.078125 66.03125 28.46875 
Q 63.625 24.859375 63.625 18.40625 
Q 63.625 12.0625 66.03125 8.421875 
Q 68.453125 4.78125 72.703125 4.78125 
Q 76.859375 4.78125 79.265625 8.421875 
Q 81.6875 12.0625 81.6875 18.40625 
Q 81.6875 24.8125 79.265625 28.4375 
Q 76.859375 32.078125 72.703125 32.078125 
z
M 72.703125 38.28125 
Q 80.421875 38.28125 84.953125 32.90625 
Q 89.5 27.546875 89.5 18.40625 
Q 89.5 9.28125 84.9375 3.921875 
Q 80.375 -1.421875 72.703125 -1.421875 
Q 64.890625 -1.421875 60.34375 3.921875 
Q 55.8125 9.28125 55.8125 18.40625 
Q 55.8125 27.59375 60.375 32.9375 
Q 64.9375 38.28125 72.703125 38.28125 
z
M 22.3125 68.015625 
Q 18.109375 68.015625 15.6875 64.375 
Q 13.28125 60.75 13.28125 54.390625 
Q 13.28125 47.953125 15.671875 44.328125 
Q 18.0625 40.71875 22.3125 40.71875 
Q 26.5625 40.71875 28.96875 44.328125 
Q 31.390625 47.953125 31.390625 54.390625 
Q 31.390625 60.6875 28.953125 64.34375 
Q 26.515625 68.015625 22.3125 68.015625 
z
M 66.40625 74.21875 
L 74.21875 74.21875 
L 28.609375 -1.421875 
L 20.796875 -1.421875 
z
M 22.3125 74.21875 
Q 30.03125 74.21875 34.609375 68.875 
Q 39.203125 63.53125 39.203125 54.390625 
Q 39.203125 45.171875 34.640625 39.84375 
Q 30.078125 34.515625 22.3125 34.515625 
Q 14.546875 34.515625 10.03125 39.859375 
Q 5.515625 45.21875 5.515625 54.390625 
Q 5.515625 63.484375 10.046875 68.84375 
Q 14.59375 74.21875 22.3125 74.21875 
z
" id="DejaVuSans-25"/>
    </defs>
    <g style="fill:#e04b4b;" transform="translate(694.292871 141.925)scale(0.2 -0.2)">
     <use transform="translate(0 0.78125)" xlink:href="#DejaVuSans-Oblique-43"/>
     <use transform="translate(69.824219 0.78125)" xlink:href="#DejaVuSans-Oblique-49"/>
     <use transform="translate(99.316406 -15.625)scale(0.7)" xlink:href="#DejaVuSans-39"/>
     <use transform="translate(143.852539 -15.625)scale(0.7)" xlink:href="#DejaVuSans-35"/>
     <use transform="translate(188.388672 -15.625)scale(0.7)" xlink:href="#DejaVuSans-25"/>
    </g>
    <!-- 0.00 -->
    <g style="fill:#e04b4b;" transform="translate(697.827246 164.320625)scale(0.2 -0.2)">
     <use xlink:href="#DejaVuSerif-30"/>
     <use x="63.623047" xlink:href="#DejaVuSerif-2e"/>
     <use x="95.410156" xlink:href="#DejaVuSerif-30"/>
     <use x="159.033203" xlink:href="#DejaVuSerif-30"/>
    </g>
   </g>
   <g id="text_33">
    <!-- $CI_{95\%}$ -->
    <g style="fill:#e04b4b;" transform="translate(1146.030644 141.925)scale(0.2 -0.2)">
     <use transform="translate(0 0.78125)" xlink:href="#DejaVuSans-Oblique-43"/>
     <use transform="translate(69.824219 0.78125)" xlink:href="#DejaVuSans-Oblique-49"/>
     <use transform="translate(99.316406 -15.625)scale(0.7)" xlink:href="#DejaVuSans-39"/>
     <use transform="translate(143.852539 -15.625)scale(0.7)" xlink:href="#DejaVuSans-35"/>
     <use transform="translate(188.388672 -15.625)scale(0.7)" xlink:href="#DejaVuSans-25"/>
    </g>
    <!-- 7.17 -->
    <g style="fill:#e04b4b;" transform="translate(1149.565019 164.320625)scale(0.2 -0.2)">
     <use xlink:href="#DejaVuSerif-37"/>
     <use x="63.623047" xlink:href="#DejaVuSerif-2e"/>
     <use x="95.410156" xlink:href="#DejaVuSerif-31"/>
     <use x="159.033203" xlink:href="#DejaVuSerif-37"/>
    </g>
   </g>
  </g>
 </g>
 <defs>
  <clipPath id="p2310c5383a">
   <rect height="489.24" width="1116" x="180" y="77.76"/>
  </clipPath>
  <clipPath id="p778366dbd5">
   <rect height="259.2" width="504" x="720" y="129.6"/>
  </clipPath>
 </defs>
</svg>
