<?xml version="1.0" encoding="utf-8" standalone="no"?>
<!DOCTYPE svg PUBLIC "-//W3C//DTD SVG 1.1//EN"
  "http://www.w3.org/Graphics/SVG/1.1/DTD/svg11.dtd">
<!-- Created with matplotlib (http://matplotlib.org/) -->
<svg height="468pt" version="1.1" viewBox="0 0 648 468" width="648pt" xmlns="http://www.w3.org/2000/svg" xmlns:xlink="http://www.w3.org/1999/xlink">
 <defs>
  <style type="text/css">
*{stroke-linecap:butt;stroke-linejoin:round;}
  </style>
 </defs>
 <g id="figure_1">
  <g id="patch_1">
   <path d="M 0 468 
L 648 468 
L 648 0 
L 0 0 
z
" style="fill:none;"/>
  </g>
  <g id="axes_1">
   <g id="patch_2">
    <path d="M 12.48 415.72 
L 635.52 415.72 
L 635.52 34.08 
L 12.48 34.08 
z
" style="fill:none;opacity:0;"/>
   </g>
   <g id="patch_3">
    <path clip-path="url(#p0d10fb4684)" d="M 40.8 415.72 
L 57.622784 415.72 
L 57.622784 415.41273 
L 40.8 415.41273 
z
" style="fill:#88c9c1;opacity:0.7;"/>
   </g>
   <g id="patch_4">
    <path clip-path="url(#p0d10fb4684)" d="M 57.622784 415.72 
L 74.445567 415.72 
L 74.445567 414.644555 
L 57.622784 414.644555 
z
" style="fill:#88c9c1;opacity:0.7;"/>
   </g>
   <g id="patch_5">
    <path clip-path="url(#p0d10fb4684)" d="M 74.445567 415.72 
L 91.268351 415.72 
L 91.268351 411.418219 
L 74.445567 411.418219 
z
" style="fill:#88c9c1;opacity:0.7;"/>
   </g>
   <g id="patch_6">
    <path clip-path="url(#p0d10fb4684)" d="M 91.268351 415.72 
L 108.091135 415.72 
L 108.091135 406.962804 
L 91.268351 406.962804 
z
" style="fill:#88c9c1;opacity:0.7;"/>
   </g>
   <g id="patch_7">
    <path clip-path="url(#p0d10fb4684)" d="M 108.091135 415.72 
L 124.913919 415.72 
L 124.913919 398.051972 
L 108.091135 398.051972 
z
" style="fill:#88c9c1;opacity:0.7;"/>
   </g>
   <g id="patch_8">
    <path clip-path="url(#p0d10fb4684)" d="M 124.913919 415.72 
L 141.736702 415.72 
L 141.736702 381.613025 
L 124.913919 381.613025 
z
" style="fill:#88c9c1;opacity:0.7;"/>
   </g>
   <g id="patch_9">
    <path clip-path="url(#p0d10fb4684)" d="M 141.736702 415.72 
L 158.559486 415.72 
L 158.559486 359.335946 
L 141.736702 359.335946 
z
" style="fill:#88c9c1;opacity:0.7;"/>
   </g>
   <g id="patch_10">
    <path clip-path="url(#p0d10fb4684)" d="M 158.559486 415.72 
L 175.38227 415.72 
L 175.38227 334.293437 
L 158.559486 334.293437 
z
" style="fill:#88c9c1;opacity:0.7;"/>
   </g>
   <g id="patch_11">
    <path clip-path="url(#p0d10fb4684)" d="M 175.38227 415.72 
L 192.205054 415.72 
L 192.205054 309.558199 
L 175.38227 309.558199 
z
" style="fill:#88c9c1;opacity:0.7;"/>
   </g>
   <g id="patch_12">
    <path clip-path="url(#p0d10fb4684)" d="M 192.205054 415.72 
L 209.027837 415.72 
L 209.027837 282.672069 
L 192.205054 282.672069 
z
" style="fill:#88c9c1;opacity:0.7;"/>
   </g>
   <g id="patch_13">
    <path clip-path="url(#p0d10fb4684)" d="M 209.027837 415.72 
L 225.850621 415.72 
L 225.850621 255.1714 
L 209.027837 255.1714 
z
" style="fill:#88c9c1;opacity:0.7;"/>
   </g>
   <g id="patch_14">
    <path clip-path="url(#p0d10fb4684)" d="M 225.850621 415.72 
L 242.673405 415.72 
L 242.673405 250.255079 
L 225.850621 250.255079 
z
" style="fill:#88c9c1;opacity:0.7;"/>
   </g>
   <g id="patch_15">
    <path clip-path="url(#p0d10fb4684)" d="M 242.673405 415.72 
L 259.496189 415.72 
L 259.496189 250.715984 
L 242.673405 250.715984 
z
" style="fill:#88c9c1;opacity:0.7;"/>
   </g>
   <g id="patch_16">
    <path clip-path="url(#p0d10fb4684)" d="M 259.496189 415.72 
L 276.318972 415.72 
L 276.318972 255.1714 
L 259.496189 255.1714 
z
" style="fill:#88c9c1;opacity:0.7;"/>
   </g>
   <g id="patch_17">
    <path clip-path="url(#p0d10fb4684)" d="M 276.318972 415.72 
L 293.141756 415.72 
L 293.141756 287.28112 
L 276.318972 287.28112 
z
" style="fill:#88c9c1;opacity:0.7;"/>
   </g>
   <g id="patch_18">
    <path clip-path="url(#p0d10fb4684)" d="M 293.141756 415.72 
L 309.96454 415.72 
L 309.96454 321.695365 
L 293.141756 321.695365 
z
" style="fill:#88c9c1;opacity:0.7;"/>
   </g>
   <g id="patch_19">
    <path clip-path="url(#p0d10fb4684)" d="M 309.96454 415.72 
L 326.787324 415.72 
L 326.787324 336.905233 
L 309.96454 336.905233 
z
" style="fill:#88c9c1;opacity:0.7;"/>
   </g>
   <g id="patch_20">
    <path clip-path="url(#p0d10fb4684)" d="M 326.787324 415.72 
L 343.610107 415.72 
L 343.610107 363.484092 
L 326.787324 363.484092 
z
" style="fill:#88c9c1;opacity:0.7;"/>
   </g>
   <g id="patch_21">
    <path clip-path="url(#p0d10fb4684)" d="M 343.610107 415.72 
L 360.432891 415.72 
L 360.432891 380.230309 
L 343.610107 380.230309 
z
" style="fill:#88c9c1;opacity:0.7;"/>
   </g>
   <g id="patch_22">
    <path clip-path="url(#p0d10fb4684)" d="M 360.432891 415.72 
L 377.255675 415.72 
L 377.255675 388.987506 
L 360.432891 388.987506 
z
" style="fill:#88c9c1;opacity:0.7;"/>
   </g>
   <g id="patch_23">
    <path clip-path="url(#p0d10fb4684)" d="M 377.255675 415.72 
L 394.078459 415.72 
L 394.078459 404.504643 
L 377.255675 404.504643 
z
" style="fill:#88c9c1;opacity:0.7;"/>
   </g>
   <g id="patch_24">
    <path clip-path="url(#p0d10fb4684)" d="M 394.078459 415.72 
L 410.901242 415.72 
L 410.901242 407.116439 
L 394.078459 407.116439 
z
" style="fill:#88c9c1;opacity:0.7;"/>
   </g>
   <g id="patch_25">
    <path clip-path="url(#p0d10fb4684)" d="M 410.901242 415.72 
L 427.724026 415.72 
L 427.724026 411.879124 
L 410.901242 411.879124 
z
" style="fill:#88c9c1;opacity:0.7;"/>
   </g>
   <g id="patch_26">
    <path clip-path="url(#p0d10fb4684)" d="M 427.724026 415.72 
L 444.54681 415.72 
L 444.54681 414.030015 
L 427.724026 414.030015 
z
" style="fill:#88c9c1;opacity:0.7;"/>
   </g>
   <g id="patch_27">
    <path clip-path="url(#p0d10fb4684)" d="M 444.54681 415.72 
L 461.369594 415.72 
L 461.369594 415.72 
L 444.54681 415.72 
z
" style="fill:#88c9c1;opacity:0.7;"/>
   </g>
   <g id="patch_28">
    <path clip-path="url(#p0d10fb4684)" d="M 461.369594 415.72 
L 478.192377 415.72 
L 478.192377 415.259095 
L 461.369594 415.259095 
z
" style="fill:#88c9c1;opacity:0.7;"/>
   </g>
   <g id="matplotlib.axis_1">
    <g id="xtick_1">
     <g id="line2d_1">
      <defs>
       <path d="M 0 0 
L 0 3.5 
" id="m05ce702b67" style="stroke:#d2d2d2;stroke-width:0.8;"/>
      </defs>
      <g>
       <use style="fill:#d2d2d2;stroke:#d2d2d2;stroke-width:0.8;" x="74.208348" xlink:href="#m05ce702b67" y="415.72"/>
      </g>
     </g>
     <g id="text_1">
      <!-- $\mathdefault{4.0}$ -->
      <defs>
       <path d="M 34.90625 24.703125 
L 34.90625 63.484375 
L 10.015625 24.703125 
z
M 56.390625 0 
L 23.1875 0 
L 23.1875 5.171875 
L 34.90625 5.171875 
L 34.90625 19.484375 
L 3.078125 19.484375 
L 3.078125 24.8125 
L 35.015625 74.21875 
L 44.671875 74.21875 
L 44.671875 24.703125 
L 58.59375 24.703125 
L 58.59375 19.484375 
L 44.671875 19.484375 
L 44.671875 5.171875 
L 56.390625 5.171875 
z
" id="DejaVuSerif-34"/>
       <path d="M 9.421875 5.078125 
Q 9.421875 7.8125 11.28125 9.71875 
Q 13.140625 11.625 15.921875 11.625 
Q 18.609375 11.625 20.5 9.71875 
Q 22.40625 7.8125 22.40625 5.078125 
Q 22.40625 2.390625 20.5 0.484375 
Q 18.609375 -1.421875 15.921875 -1.421875 
Q 13.140625 -1.421875 11.28125 0.453125 
Q 9.421875 2.34375 9.421875 5.078125 
z
" id="DejaVuSerif-2e"/>
       <path d="M 31.78125 3.421875 
Q 39.265625 3.421875 42.96875 11.625 
Q 46.6875 19.828125 46.6875 36.375 
Q 46.6875 52.984375 42.96875 61.1875 
Q 39.265625 69.390625 31.78125 69.390625 
Q 24.3125 69.390625 20.59375 61.1875 
Q 16.890625 52.984375 16.890625 36.375 
Q 16.890625 19.828125 20.59375 11.625 
Q 24.3125 3.421875 31.78125 3.421875 
z
M 31.78125 -1.421875 
Q 19.921875 -1.421875 13.25 8.53125 
Q 6.59375 18.5 6.59375 36.375 
Q 6.59375 54.296875 13.25 64.25 
Q 19.921875 74.21875 31.78125 74.21875 
Q 43.703125 74.21875 50.34375 64.25 
Q 56.984375 54.296875 56.984375 36.375 
Q 56.984375 18.5 50.34375 8.53125 
Q 43.703125 -1.421875 31.78125 -1.421875 
z
" id="DejaVuSerif-30"/>
      </defs>
      <g style="fill:#d2d2d2;" transform="translate(63.808348 432.597969)scale(0.13 -0.13)">
       <use transform="translate(0 0.78125)" xlink:href="#DejaVuSerif-34"/>
       <use transform="translate(63.623047 0.78125)" xlink:href="#DejaVuSerif-2e"/>
       <use transform="translate(95.410156 0.78125)" xlink:href="#DejaVuSerif-30"/>
      </g>
     </g>
    </g>
    <g id="xtick_2">
     <g id="line2d_2">
      <g>
       <use style="fill:#d2d2d2;stroke:#d2d2d2;stroke-width:0.8;" x="202.701996" xlink:href="#m05ce702b67" y="415.72"/>
      </g>
     </g>
     <g id="text_2">
      <!-- $\mathdefault{4.5}$ -->
      <defs>
       <path d="M 50.296875 72.90625 
L 50.296875 64.890625 
L 16.890625 64.890625 
L 16.890625 44 
Q 19.4375 45.75 22.828125 46.625 
Q 26.21875 47.515625 30.421875 47.515625 
Q 42.234375 47.515625 49.0625 40.96875 
Q 55.90625 34.421875 55.90625 23.09375 
Q 55.90625 11.53125 49 5.046875 
Q 42.09375 -1.421875 29.59375 -1.421875 
Q 24.5625 -1.421875 19.28125 -0.1875 
Q 14.015625 1.03125 8.5 3.515625 
L 8.5 17.671875 
L 14.015625 17.671875 
Q 14.453125 10.75 18.421875 7.078125 
Q 22.40625 3.421875 29.59375 3.421875 
Q 37.3125 3.421875 41.453125 8.5 
Q 45.609375 13.578125 45.609375 23.09375 
Q 45.609375 32.5625 41.484375 37.609375 
Q 37.359375 42.671875 29.59375 42.671875 
Q 25.203125 42.671875 21.84375 41.109375 
Q 18.5 39.546875 15.921875 36.28125 
L 11.71875 36.28125 
L 11.71875 72.90625 
z
" id="DejaVuSerif-35"/>
      </defs>
      <g style="fill:#d2d2d2;" transform="translate(192.301996 432.597969)scale(0.13 -0.13)">
       <use transform="translate(0 0.78125)" xlink:href="#DejaVuSerif-34"/>
       <use transform="translate(63.623047 0.78125)" xlink:href="#DejaVuSerif-2e"/>
       <use transform="translate(95.410156 0.78125)" xlink:href="#DejaVuSerif-35"/>
      </g>
     </g>
    </g>
    <g id="xtick_3">
     <g id="line2d_3">
      <g>
       <use style="fill:#d2d2d2;stroke:#d2d2d2;stroke-width:0.8;" x="331.195644" xlink:href="#m05ce702b67" y="415.72"/>
      </g>
     </g>
     <g id="text_3">
      <!-- $\mathdefault{5.0}$ -->
      <g style="fill:#d2d2d2;" transform="translate(320.795644 432.597969)scale(0.13 -0.13)">
       <use transform="translate(0 0.78125)" xlink:href="#DejaVuSerif-35"/>
       <use transform="translate(63.623047 0.78125)" xlink:href="#DejaVuSerif-2e"/>
       <use transform="translate(95.410156 0.78125)" xlink:href="#DejaVuSerif-30"/>
      </g>
     </g>
    </g>
    <g id="xtick_4">
     <g id="line2d_4">
      <g>
       <use style="fill:#d2d2d2;stroke:#d2d2d2;stroke-width:0.8;" x="459.689292" xlink:href="#m05ce702b67" y="415.72"/>
      </g>
     </g>
     <g id="text_4">
      <!-- $\mathdefault{5.5}$ -->
      <g style="fill:#d2d2d2;" transform="translate(449.289292 432.597969)scale(0.13 -0.13)">
       <use transform="translate(0 0.09375)" xlink:href="#DejaVuSerif-35"/>
       <use transform="translate(63.623047 0.09375)" xlink:href="#DejaVuSerif-2e"/>
       <use transform="translate(95.410156 0.09375)" xlink:href="#DejaVuSerif-35"/>
      </g>
     </g>
    </g>
    <g id="xtick_5">
     <g id="line2d_5">
      <g>
       <use style="fill:#d2d2d2;stroke:#d2d2d2;stroke-width:0.8;" x="588.18294" xlink:href="#m05ce702b67" y="415.72"/>
      </g>
     </g>
     <g id="text_5">
      <!-- $\mathdefault{6.0}$ -->
      <defs>
       <path d="M 32.71875 3.421875 
Q 39.59375 3.421875 43.296875 8.46875 
Q 47.015625 13.53125 47.015625 23 
Q 47.015625 32.46875 43.296875 37.515625 
Q 39.59375 42.578125 32.71875 42.578125 
Q 25.734375 42.578125 22.0625 37.6875 
Q 18.40625 32.8125 18.40625 23.578125 
Q 18.40625 13.875 22.109375 8.640625 
Q 25.828125 3.421875 32.71875 3.421875 
z
M 16.796875 40.140625 
Q 20.125 43.796875 24.3125 45.59375 
Q 28.515625 47.40625 33.796875 47.40625 
Q 44.671875 47.40625 51 40.859375 
Q 57.328125 34.328125 57.328125 23 
Q 57.328125 11.921875 50.515625 5.25 
Q 43.703125 -1.421875 32.328125 -1.421875 
Q 19.96875 -1.421875 13.328125 7.78125 
Q 6.6875 17 6.6875 34.078125 
Q 6.6875 53.21875 14.546875 63.71875 
Q 22.40625 74.21875 36.71875 74.21875 
Q 40.578125 74.21875 44.828125 73.484375 
Q 49.078125 72.75 53.515625 71.296875 
L 53.515625 59.28125 
L 48 59.28125 
Q 47.40625 64.203125 44.234375 66.796875 
Q 41.0625 69.390625 35.6875 69.390625 
Q 26.21875 69.390625 21.578125 62.203125 
Q 16.9375 55.03125 16.796875 40.140625 
z
" id="DejaVuSerif-36"/>
      </defs>
      <g style="fill:#d2d2d2;" transform="translate(577.78294 432.597969)scale(0.13 -0.13)">
       <use transform="translate(0 0.78125)" xlink:href="#DejaVuSerif-36"/>
       <use transform="translate(63.623047 0.78125)" xlink:href="#DejaVuSerif-2e"/>
       <use transform="translate(95.410156 0.78125)" xlink:href="#DejaVuSerif-30"/>
      </g>
     </g>
    </g>
    <g id="text_6">
     <!-- Plant Weight [Kg] -->
     <defs>
      <path d="M 24.703125 37.109375 
L 37.59375 37.109375 
Q 44.875 37.109375 48.671875 41.03125 
Q 52.484375 44.96875 52.484375 52.390625 
Q 52.484375 59.859375 48.671875 63.765625 
Q 44.875 67.671875 37.59375 67.671875 
L 24.703125 67.671875 
z
M 5.515625 0 
L 5.515625 5.171875 
L 14.796875 5.171875 
L 14.796875 67.671875 
L 5.515625 67.671875 
L 5.515625 72.90625 
L 39.984375 72.90625 
Q 50.921875 72.90625 57.3125 67.359375 
Q 63.71875 61.8125 63.71875 52.390625 
Q 63.71875 43.015625 57.3125 37.453125 
Q 50.921875 31.890625 39.984375 31.890625 
L 24.703125 31.890625 
L 24.703125 5.171875 
L 35.984375 5.171875 
L 35.984375 0 
z
" id="DejaVuSerif-50"/>
      <path d="M 20.515625 5.171875 
L 29 5.171875 
L 29 0 
L 2.875 0 
L 2.875 5.171875 
L 11.53125 5.171875 
L 11.53125 70.796875 
L 2.875 70.796875 
L 2.875 75.984375 
L 20.515625 75.984375 
z
" id="DejaVuSerif-6c"/>
      <path d="M 39.796875 16.3125 
L 39.796875 27.296875 
L 28.21875 27.296875 
Q 21.53125 27.296875 18.25 24.40625 
Q 14.984375 21.53125 14.984375 15.578125 
Q 14.984375 10.15625 18.296875 6.984375 
Q 21.625 3.8125 27.296875 3.8125 
Q 32.90625 3.8125 36.34375 7.28125 
Q 39.796875 10.75 39.796875 16.3125 
z
M 48.78125 32.421875 
L 48.78125 5.171875 
L 56.78125 5.171875 
L 56.78125 0 
L 39.796875 0 
L 39.796875 5.609375 
Q 36.8125 2 32.90625 0.28125 
Q 29 -1.421875 23.78125 -1.421875 
Q 15.140625 -1.421875 10.0625 3.171875 
Q 4.984375 7.765625 4.984375 15.578125 
Q 4.984375 23.640625 10.796875 28.078125 
Q 16.609375 32.515625 27.203125 32.515625 
L 39.796875 32.515625 
L 39.796875 36.078125 
Q 39.796875 42 36.203125 45.234375 
Q 32.625 48.484375 26.125 48.484375 
Q 20.75 48.484375 17.578125 46.046875 
Q 14.40625 43.609375 13.625 38.8125 
L 8.984375 38.8125 
L 8.984375 49.3125 
Q 13.671875 51.3125 18.09375 52.3125 
Q 22.515625 53.328125 26.703125 53.328125 
Q 37.5 53.328125 43.140625 47.96875 
Q 48.78125 42.625 48.78125 32.421875 
z
" id="DejaVuSerif-61"/>
      <path d="M 4.109375 0 
L 4.109375 5.171875 
L 12.203125 5.171875 
L 12.203125 46.6875 
L 3.609375 46.6875 
L 3.609375 51.90625 
L 21.1875 51.90625 
L 21.1875 42.671875 
Q 23.6875 47.953125 27.65625 50.640625 
Q 31.640625 53.328125 36.921875 53.328125 
Q 45.515625 53.328125 49.5625 48.390625 
Q 53.609375 43.453125 53.609375 33.015625 
L 53.609375 5.171875 
L 61.625 5.171875 
L 61.625 0 
L 36.8125 0 
L 36.8125 5.171875 
L 44.578125 5.171875 
L 44.578125 30.171875 
Q 44.578125 39.703125 42.234375 43.234375 
Q 39.890625 46.78125 33.984375 46.78125 
Q 27.734375 46.78125 24.453125 42.203125 
Q 21.1875 37.640625 21.1875 28.90625 
L 21.1875 5.171875 
L 29 5.171875 
L 29 0 
z
" id="DejaVuSerif-6e"/>
      <path d="M 10.796875 46.6875 
L 2.875 46.6875 
L 2.875 51.90625 
L 10.796875 51.90625 
L 10.796875 68.015625 
L 19.828125 68.015625 
L 19.828125 51.90625 
L 36.71875 51.90625 
L 36.71875 46.6875 
L 19.828125 46.6875 
L 19.828125 13.71875 
Q 19.828125 7.125 21.09375 5.265625 
Q 22.359375 3.421875 25.78125 3.421875 
Q 29.296875 3.421875 30.90625 5.484375 
Q 32.515625 7.5625 32.625 12.203125 
L 39.40625 12.203125 
Q 39.015625 5.125 35.546875 1.84375 
Q 32.078125 -1.421875 25 -1.421875 
Q 17.234375 -1.421875 14.015625 2.015625 
Q 10.796875 5.46875 10.796875 13.71875 
z
" id="DejaVuSerif-74"/>
      <path id="DejaVuSerif-20"/>
      <path d="M 76.21875 0 
L 68.21875 0 
L 51.515625 59.28125 
L 34.8125 0 
L 26.8125 0 
L 7.71875 67.671875 
L 0.484375 67.671875 
L 0.484375 72.90625 
L 27.09375 72.90625 
L 27.09375 67.671875 
L 18.015625 67.671875 
L 33.203125 13.8125 
L 49.8125 72.90625 
L 57.71875 72.90625 
L 74.609375 13.1875 
L 89.890625 67.671875 
L 81.5 67.671875 
L 81.5 72.90625 
L 102.484375 72.90625 
L 102.484375 67.671875 
L 95.3125 67.671875 
z
" id="DejaVuSerif-57"/>
      <path d="M 54.203125 25 
L 15.484375 25 
L 15.484375 24.609375 
Q 15.484375 14.109375 19.4375 8.765625 
Q 23.390625 3.421875 31.109375 3.421875 
Q 37.015625 3.421875 40.796875 6.515625 
Q 44.578125 9.625 46.09375 15.71875 
L 53.328125 15.71875 
Q 51.171875 7.171875 45.375 2.875 
Q 39.59375 -1.421875 30.171875 -1.421875 
Q 18.796875 -1.421875 11.890625 6.078125 
Q 4.984375 13.578125 4.984375 25.984375 
Q 4.984375 38.28125 11.765625 45.796875 
Q 18.5625 53.328125 29.59375 53.328125 
Q 41.359375 53.328125 47.65625 46.0625 
Q 53.953125 38.8125 54.203125 25 
z
M 43.609375 30.171875 
Q 43.3125 39.265625 39.765625 43.875 
Q 36.234375 48.484375 29.59375 48.484375 
Q 23.390625 48.484375 19.828125 43.84375 
Q 16.265625 39.203125 15.484375 30.171875 
z
" id="DejaVuSerif-65"/>
      <path d="M 9.71875 68.015625 
Q 9.71875 70.265625 11.34375 71.921875 
Q 12.984375 73.578125 15.28125 73.578125 
Q 17.53125 73.578125 19.15625 71.921875 
Q 20.796875 70.265625 20.796875 68.015625 
Q 20.796875 65.71875 19.1875 64.109375 
Q 17.578125 62.5 15.28125 62.5 
Q 12.984375 62.5 11.34375 64.109375 
Q 9.71875 65.71875 9.71875 68.015625 
z
M 21.1875 5.171875 
L 29.6875 5.171875 
L 29.6875 0 
L 3.609375 0 
L 3.609375 5.171875 
L 12.203125 5.171875 
L 12.203125 46.6875 
L 3.609375 46.6875 
L 3.609375 51.90625 
L 21.1875 51.90625 
z
" id="DejaVuSerif-69"/>
      <path d="M 52.484375 46.6875 
L 52.484375 1.125 
Q 52.484375 -10.0625 46.328125 -16.140625 
Q 40.1875 -22.21875 28.8125 -22.21875 
Q 23.6875 -22.21875 19 -21.28125 
Q 14.3125 -20.359375 10.015625 -18.5 
L 10.015625 -7.625 
L 14.703125 -7.625 
Q 15.578125 -12.703125 18.84375 -15.046875 
Q 22.125 -17.390625 28.21875 -17.390625 
Q 36.140625 -17.390625 39.8125 -12.921875 
Q 43.5 -8.453125 43.5 1.125 
L 43.5 8.109375 
Q 40.875 3.21875 36.796875 0.890625 
Q 32.71875 -1.421875 26.703125 -1.421875 
Q 17.140625 -1.421875 11.0625 6.171875 
Q 4.984375 13.765625 4.984375 25.984375 
Q 4.984375 38.1875 11.03125 45.75 
Q 17.09375 53.328125 26.703125 53.328125 
Q 32.71875 53.328125 36.796875 51 
Q 40.875 48.6875 43.5 43.796875 
L 43.5 51.90625 
L 61.078125 51.90625 
L 61.078125 46.6875 
z
M 43.5 28.515625 
Q 43.5 37.84375 39.90625 42.765625 
Q 36.328125 47.703125 29.5 47.703125 
Q 22.5625 47.703125 19.015625 42.234375 
Q 15.484375 36.765625 15.484375 25.984375 
Q 15.484375 15.234375 19.015625 9.71875 
Q 22.5625 4.203125 29.5 4.203125 
Q 36.328125 4.203125 39.90625 9.109375 
Q 43.5 14.015625 43.5 23.390625 
z
" id="DejaVuSerif-67"/>
      <path d="M 4.109375 0 
L 4.109375 5.171875 
L 12.203125 5.171875 
L 12.203125 70.796875 
L 3.609375 70.796875 
L 3.609375 75.984375 
L 21.1875 75.984375 
L 21.1875 42.671875 
Q 23.6875 47.953125 27.65625 50.640625 
Q 31.640625 53.328125 36.921875 53.328125 
Q 45.515625 53.328125 49.5625 48.390625 
Q 53.609375 43.453125 53.609375 33.015625 
L 53.609375 5.171875 
L 61.625 5.171875 
L 61.625 0 
L 36.8125 0 
L 36.8125 5.171875 
L 44.578125 5.171875 
L 44.578125 30.171875 
Q 44.578125 39.703125 42.25 43.1875 
Q 39.9375 46.6875 33.984375 46.6875 
Q 27.734375 46.6875 24.453125 42.140625 
Q 21.1875 37.59375 21.1875 28.90625 
L 21.1875 5.171875 
L 29 5.171875 
L 29 0 
z
" id="DejaVuSerif-68"/>
      <path d="M 8.59375 75.984375 
L 31.296875 75.984375 
L 31.296875 70.796875 
L 17.921875 70.796875 
L 17.921875 -8.015625 
L 31.296875 -8.015625 
L 31.296875 -13.1875 
L 8.59375 -13.1875 
z
" id="DejaVuSerif-5b"/>
      <path d="M 5.515625 0 
L 5.515625 5.171875 
L 14.796875 5.171875 
L 14.796875 67.671875 
L 5.515625 67.671875 
L 5.515625 72.90625 
L 33.984375 72.90625 
L 33.984375 67.671875 
L 24.703125 67.671875 
L 24.703125 40.09375 
L 56.109375 67.671875 
L 48.1875 67.671875 
L 48.1875 72.90625 
L 72.40625 72.90625 
L 72.40625 67.671875 
L 64.203125 67.671875 
L 32.90625 40.1875 
L 67.921875 5.171875 
L 76.21875 5.171875 
L 76.21875 0 
L 59.28125 0 
L 24.703125 34.625 
L 24.703125 5.171875 
L 33.984375 5.171875 
L 33.984375 0 
z
" id="DejaVuSerif-4b"/>
      <path d="M 30.421875 75.984375 
L 30.421875 -13.1875 
L 7.71875 -13.1875 
L 7.71875 -8.015625 
L 21.09375 -8.015625 
L 21.09375 70.796875 
L 7.71875 70.796875 
L 7.71875 75.984375 
z
" id="DejaVuSerif-5d"/>
     </defs>
     <g style="fill:#d2d2d2;" transform="translate(242.438906 452.97875)scale(0.18 -0.18)">
      <use xlink:href="#DejaVuSerif-50"/>
      <use x="67.285156" xlink:href="#DejaVuSerif-6c"/>
      <use x="99.267578" xlink:href="#DejaVuSerif-61"/>
      <use x="158.886719" xlink:href="#DejaVuSerif-6e"/>
      <use x="223.291016" xlink:href="#DejaVuSerif-74"/>
      <use x="263.476562" xlink:href="#DejaVuSerif-20"/>
      <use x="295.263672" xlink:href="#DejaVuSerif-57"/>
      <use x="397.921875" xlink:href="#DejaVuSerif-65"/>
      <use x="457.101562" xlink:href="#DejaVuSerif-69"/>
      <use x="489.083984" xlink:href="#DejaVuSerif-67"/>
      <use x="553.097656" xlink:href="#DejaVuSerif-68"/>
      <use x="617.501953" xlink:href="#DejaVuSerif-74"/>
      <use x="657.6875" xlink:href="#DejaVuSerif-20"/>
      <use x="689.474609" xlink:href="#DejaVuSerif-5b"/>
      <use x="728.488281" xlink:href="#DejaVuSerif-4b"/>
      <use x="803.195312" xlink:href="#DejaVuSerif-67"/>
      <use x="867.208984" xlink:href="#DejaVuSerif-5d"/>
     </g>
    </g>
   </g>
   <g id="matplotlib.axis_2"/>
   <g id="patch_29">
    <path d="M 12.48 415.72 
L 635.52 415.72 
" style="fill:none;stroke:#d2d2d2;stroke-linecap:square;stroke-linejoin:miter;stroke-width:1.5;"/>
   </g>
   <g id="text_7">
    <!-- CI analysis of Treatment 1 vs. Treatment 2 -->
    <defs>
     <path d="M 70.515625 19.28125 
Q 67.28125 9.078125 59.6875 3.828125 
Q 52.09375 -1.421875 40.484375 -1.421875 
Q 33.34375 -1.421875 27.234375 1.015625 
Q 21.140625 3.46875 16.40625 8.203125 
Q 10.9375 13.671875 8.265625 20.625 
Q 5.609375 27.59375 5.609375 36.375 
Q 5.609375 53.375 15.421875 63.796875 
Q 25.25 74.21875 41.3125 74.21875 
Q 47.265625 74.21875 54 72.65625 
Q 60.75 71.09375 68.5 67.921875 
L 68.5 51.125 
L 62.984375 51.125 
Q 61.1875 60.296875 55.734375 64.640625 
Q 50.296875 69 40.484375 69 
Q 28.8125 69 22.796875 60.71875 
Q 16.796875 52.4375 16.796875 36.375 
Q 16.796875 20.359375 22.796875 12.078125 
Q 28.8125 3.8125 40.484375 3.8125 
Q 48.640625 3.8125 53.90625 7.6875 
Q 59.1875 11.578125 61.53125 19.28125 
z
" id="DejaVuSerif-43"/>
     <path d="M 24.703125 5.171875 
L 33.984375 5.171875 
L 33.984375 0 
L 5.515625 0 
L 5.515625 5.171875 
L 14.796875 5.171875 
L 14.796875 67.671875 
L 5.515625 67.671875 
L 5.515625 72.90625 
L 33.984375 72.90625 
L 33.984375 67.671875 
L 24.703125 67.671875 
z
" id="DejaVuSerif-49"/>
     <path d="M 21.578125 -9.515625 
L 25 -0.875 
L 5.609375 46.6875 
L -0.296875 46.6875 
L -0.296875 51.90625 
L 23.578125 51.90625 
L 23.578125 46.6875 
L 15.28125 46.6875 
L 29.890625 10.984375 
L 44.484375 46.6875 
L 36.71875 46.6875 
L 36.71875 51.90625 
L 56.203125 51.90625 
L 56.203125 46.6875 
L 50.390625 46.6875 
L 26.609375 -11.71875 
Q 24.171875 -17.78125 21.1875 -20 
Q 18.21875 -22.21875 12.796875 -22.21875 
Q 10.5 -22.21875 8.078125 -21.828125 
Q 5.671875 -21.4375 3.21875 -20.703125 
L 3.21875 -10.796875 
L 7.8125 -10.796875 
Q 8.109375 -14.109375 9.5 -15.546875 
Q 10.890625 -17 13.8125 -17 
Q 16.5 -17 18.140625 -15.5 
Q 19.78125 -14.015625 21.578125 -9.515625 
z
" id="DejaVuSerif-79"/>
     <path d="M 5.609375 2.875 
L 5.609375 14.984375 
L 10.796875 14.984375 
Q 10.984375 9.1875 14.421875 6.296875 
Q 17.875 3.421875 24.609375 3.421875 
Q 30.671875 3.421875 33.84375 5.6875 
Q 37.015625 7.953125 37.015625 12.3125 
Q 37.015625 15.71875 34.6875 17.8125 
Q 32.375 19.921875 24.90625 22.3125 
L 18.40625 24.515625 
Q 11.71875 26.65625 8.71875 29.875 
Q 5.71875 33.109375 5.71875 38.09375 
Q 5.71875 45.21875 10.9375 49.265625 
Q 16.15625 53.328125 25.390625 53.328125 
Q 29.5 53.328125 34.03125 52.25 
Q 38.578125 51.171875 43.40625 49.125 
L 43.40625 37.796875 
L 38.234375 37.796875 
Q 38.03125 42.828125 34.703125 45.65625 
Q 31.390625 48.484375 25.6875 48.484375 
Q 20.015625 48.484375 17.109375 46.484375 
Q 14.203125 44.484375 14.203125 40.484375 
Q 14.203125 37.203125 16.40625 35.21875 
Q 18.609375 33.25 25.203125 31.203125 
L 32.328125 29 
Q 39.703125 26.703125 42.9375 23.265625 
Q 46.1875 19.828125 46.1875 14.40625 
Q 46.1875 7.03125 40.546875 2.796875 
Q 34.90625 -1.421875 25 -1.421875 
Q 19.96875 -1.421875 15.1875 -0.34375 
Q 10.40625 0.734375 5.609375 2.875 
z
" id="DejaVuSerif-73"/>
     <path d="M 30.078125 3.421875 
Q 37.3125 3.421875 40.984375 9.125 
Q 44.671875 14.84375 44.671875 25.984375 
Q 44.671875 37.109375 40.984375 42.796875 
Q 37.3125 48.484375 30.078125 48.484375 
Q 22.859375 48.484375 19.171875 42.796875 
Q 15.484375 37.109375 15.484375 25.984375 
Q 15.484375 14.84375 19.1875 9.125 
Q 22.90625 3.421875 30.078125 3.421875 
z
M 30.078125 -1.421875 
Q 18.75 -1.421875 11.859375 6.078125 
Q 4.984375 13.578125 4.984375 25.984375 
Q 4.984375 38.375 11.84375 45.84375 
Q 18.703125 53.328125 30.078125 53.328125 
Q 41.453125 53.328125 48.3125 45.84375 
Q 55.171875 38.375 55.171875 25.984375 
Q 55.171875 13.578125 48.3125 6.078125 
Q 41.453125 -1.421875 30.078125 -1.421875 
z
" id="DejaVuSerif-6f"/>
     <path d="M 43.015625 63.71875 
L 38.28125 63.71875 
Q 38.234375 67.390625 36.203125 69.28125 
Q 34.1875 71.1875 30.328125 71.1875 
Q 25.296875 71.1875 23.234375 68.421875 
Q 21.1875 65.671875 21.1875 58.59375 
L 21.1875 51.90625 
L 35.6875 51.90625 
L 35.6875 46.6875 
L 21.1875 46.6875 
L 21.1875 5.171875 
L 32.71875 5.171875 
L 32.71875 0 
L 3.609375 0 
L 3.609375 5.171875 
L 12.203125 5.171875 
L 12.203125 46.6875 
L 3.609375 46.6875 
L 3.609375 51.90625 
L 12.203125 51.90625 
L 12.203125 58.40625 
Q 12.203125 67.09375 16.71875 71.53125 
Q 21.234375 75.984375 29.984375 75.984375 
Q 33.25 75.984375 36.515625 75.390625 
Q 39.796875 74.8125 43.015625 73.578125 
z
" id="DejaVuSerif-66"/>
     <path d="M 19.09375 0 
L 19.09375 5.171875 
L 28.421875 5.171875 
L 28.421875 67.09375 
L 6.984375 67.09375 
L 6.984375 55.71875 
L 0.984375 55.71875 
L 0.984375 72.90625 
L 65.71875 72.90625 
L 65.71875 55.71875 
L 59.71875 55.71875 
L 59.71875 67.09375 
L 38.28125 67.09375 
L 38.28125 5.171875 
L 47.609375 5.171875 
L 47.609375 0 
z
" id="DejaVuSerif-54"/>
     <path d="M 47.796875 52 
L 47.796875 39.015625 
L 42.625 39.015625 
Q 42.390625 42.875 40.484375 44.78125 
Q 38.578125 46.6875 34.90625 46.6875 
Q 28.265625 46.6875 24.71875 42.09375 
Q 21.1875 37.5 21.1875 28.90625 
L 21.1875 5.171875 
L 31.59375 5.171875 
L 31.59375 0 
L 4.109375 0 
L 4.109375 5.171875 
L 12.203125 5.171875 
L 12.203125 46.78125 
L 3.609375 46.78125 
L 3.609375 51.90625 
L 21.1875 51.90625 
L 21.1875 42.671875 
Q 23.828125 48.09375 27.96875 50.703125 
Q 32.125 53.328125 38.09375 53.328125 
Q 40.28125 53.328125 42.703125 52.984375 
Q 45.125 52.640625 47.796875 52 
z
" id="DejaVuSerif-72"/>
     <path d="M 51.8125 41.796875 
Q 54.390625 47.515625 58.421875 50.421875 
Q 62.453125 53.328125 67.828125 53.328125 
Q 75.984375 53.328125 79.984375 48.265625 
Q 83.984375 43.21875 83.984375 33.015625 
L 83.984375 5.171875 
L 92.09375 5.171875 
L 92.09375 0 
L 67.1875 0 
L 67.1875 5.171875 
L 75 5.171875 
L 75 31.984375 
Q 75 39.9375 72.65625 43.3125 
Q 70.3125 46.6875 64.890625 46.6875 
Q 58.890625 46.6875 55.734375 42.140625 
Q 52.59375 37.59375 52.59375 28.90625 
L 52.59375 5.171875 
L 60.40625 5.171875 
L 60.40625 0 
L 35.796875 0 
L 35.796875 5.171875 
L 43.609375 5.171875 
L 43.609375 32.328125 
Q 43.609375 40.09375 41.265625 43.390625 
Q 38.921875 46.6875 33.5 46.6875 
Q 27.484375 46.6875 24.328125 42.140625 
Q 21.1875 37.59375 21.1875 28.90625 
L 21.1875 5.171875 
L 29 5.171875 
L 29 0 
L 4.109375 0 
L 4.109375 5.171875 
L 12.203125 5.171875 
L 12.203125 46.78125 
L 3.609375 46.78125 
L 3.609375 51.90625 
L 21.1875 51.90625 
L 21.1875 42.671875 
Q 23.6875 47.859375 27.53125 50.59375 
Q 31.390625 53.328125 36.28125 53.328125 
Q 42.328125 53.328125 46.375 50.3125 
Q 50.4375 47.3125 51.8125 41.796875 
z
" id="DejaVuSerif-6d"/>
     <path d="M 14.203125 0 
L 14.203125 5.171875 
L 26.90625 5.171875 
L 26.90625 65.828125 
L 12.203125 56.296875 
L 12.203125 62.703125 
L 29.984375 74.21875 
L 36.71875 74.21875 
L 36.71875 5.171875 
L 49.421875 5.171875 
L 49.421875 0 
z
" id="DejaVuSerif-31"/>
     <path d="M 24.703125 0 
L 5.609375 46.6875 
L -0.296875 46.6875 
L -0.296875 51.90625 
L 23.578125 51.90625 
L 23.578125 46.6875 
L 15.28125 46.6875 
L 29.890625 10.984375 
L 44.484375 46.6875 
L 36.71875 46.6875 
L 36.71875 51.90625 
L 56.203125 51.90625 
L 56.203125 46.6875 
L 50.390625 46.6875 
L 31.296875 0 
z
" id="DejaVuSerif-76"/>
     <path d="M 12.796875 55.515625 
L 7.328125 55.515625 
L 7.328125 68.5 
Q 12.546875 71.296875 17.84375 72.75 
Q 23.140625 74.21875 28.21875 74.21875 
Q 39.59375 74.21875 46.1875 68.703125 
Q 52.78125 63.1875 52.78125 53.71875 
Q 52.78125 43.015625 37.84375 28.125 
Q 36.671875 27 36.078125 26.421875 
L 17.671875 8.015625 
L 48.09375 8.015625 
L 48.09375 17 
L 53.8125 17 
L 53.8125 0 
L 6.78125 0 
L 6.78125 5.328125 
L 28.90625 27.390625 
Q 36.234375 34.71875 39.359375 40.84375 
Q 42.484375 46.96875 42.484375 53.71875 
Q 42.484375 61.078125 38.640625 65.234375 
Q 34.8125 69.390625 28.078125 69.390625 
Q 21.09375 69.390625 17.28125 65.921875 
Q 13.484375 62.453125 12.796875 55.515625 
z
" id="DejaVuSerif-32"/>
    </defs>
    <g style="fill:#d2d2d2;" transform="translate(84.913281 28.08)scale(0.22 -0.22)">
     <use xlink:href="#DejaVuSerif-43"/>
     <use x="76.513672" xlink:href="#DejaVuSerif-49"/>
     <use x="116.015625" xlink:href="#DejaVuSerif-20"/>
     <use x="147.802734" xlink:href="#DejaVuSerif-61"/>
     <use x="207.421875" xlink:href="#DejaVuSerif-6e"/>
     <use x="271.826172" xlink:href="#DejaVuSerif-61"/>
     <use x="331.445312" xlink:href="#DejaVuSerif-6c"/>
     <use x="363.427734" xlink:href="#DejaVuSerif-79"/>
     <use x="419.921875" xlink:href="#DejaVuSerif-73"/>
     <use x="471.240234" xlink:href="#DejaVuSerif-69"/>
     <use x="503.222656" xlink:href="#DejaVuSerif-73"/>
     <use x="554.541016" xlink:href="#DejaVuSerif-20"/>
     <use x="586.328125" xlink:href="#DejaVuSerif-6f"/>
     <use x="646.533203" xlink:href="#DejaVuSerif-66"/>
     <use x="683.544922" xlink:href="#DejaVuSerif-20"/>
     <use x="715.332031" xlink:href="#DejaVuSerif-54"/>
     <use x="782.03125" xlink:href="#DejaVuSerif-72"/>
     <use x="829.833984" xlink:href="#DejaVuSerif-65"/>
     <use x="889.013672" xlink:href="#DejaVuSerif-61"/>
     <use x="948.632812" xlink:href="#DejaVuSerif-74"/>
     <use x="988.818359" xlink:href="#DejaVuSerif-6d"/>
     <use x="1083.642578" xlink:href="#DejaVuSerif-65"/>
     <use x="1142.822266" xlink:href="#DejaVuSerif-6e"/>
     <use x="1207.226562" xlink:href="#DejaVuSerif-74"/>
     <use x="1247.412109" xlink:href="#DejaVuSerif-20"/>
     <use x="1279.199219" xlink:href="#DejaVuSerif-31"/>
     <use x="1342.822266" xlink:href="#DejaVuSerif-20"/>
     <use x="1374.609375" xlink:href="#DejaVuSerif-76"/>
     <use x="1431.103516" xlink:href="#DejaVuSerif-73"/>
     <use x="1482.421875" xlink:href="#DejaVuSerif-2e"/>
     <use x="1514.208984" xlink:href="#DejaVuSerif-20"/>
     <use x="1545.996094" xlink:href="#DejaVuSerif-54"/>
     <use x="1612.695312" xlink:href="#DejaVuSerif-72"/>
     <use x="1660.498047" xlink:href="#DejaVuSerif-65"/>
     <use x="1719.677734" xlink:href="#DejaVuSerif-61"/>
     <use x="1779.296875" xlink:href="#DejaVuSerif-74"/>
     <use x="1819.482422" xlink:href="#DejaVuSerif-6d"/>
     <use x="1914.306641" xlink:href="#DejaVuSerif-65"/>
     <use x="1973.486328" xlink:href="#DejaVuSerif-6e"/>
     <use x="2037.890625" xlink:href="#DejaVuSerif-74"/>
     <use x="2078.076172" xlink:href="#DejaVuSerif-20"/>
     <use x="2109.863281" xlink:href="#DejaVuSerif-32"/>
    </g>
   </g>
  </g>
  <g id="axes_2">
   <g id="patch_30">
    <path clip-path="url(#p0d10fb4684)" d="M 358.436298 415.72 
L 368.004132 415.72 
L 368.004132 415.179738 
L 358.436298 415.179738 
z
" style="fill:#f5d76e;opacity:0.45;"/>
   </g>
   <g id="patch_31">
    <path clip-path="url(#p0d10fb4684)" d="M 368.004132 415.72 
L 377.571967 415.72 
L 377.571967 412.208297 
L 368.004132 412.208297 
z
" style="fill:#f5d76e;opacity:0.45;"/>
   </g>
   <g id="patch_32">
    <path clip-path="url(#p0d10fb4684)" d="M 377.571967 415.72 
L 387.139802 415.72 
L 387.139802 405.725153 
L 377.571967 405.725153 
z
" style="fill:#f5d76e;opacity:0.45;"/>
   </g>
   <g id="patch_33">
    <path clip-path="url(#p0d10fb4684)" d="M 387.139802 415.72 
L 396.707636 415.72 
L 396.707636 393.569258 
L 387.139802 393.569258 
z
" style="fill:#f5d76e;opacity:0.45;"/>
   </g>
   <g id="patch_34">
    <path clip-path="url(#p0d10fb4684)" d="M 396.707636 415.72 
L 406.275471 415.72 
L 406.275471 367.906813 
L 396.707636 367.906813 
z
" style="fill:#f5d76e;opacity:0.45;"/>
   </g>
   <g id="patch_35">
    <path clip-path="url(#p0d10fb4684)" d="M 406.275471 415.72 
L 415.843306 415.72 
L 415.843306 332.24952 
L 406.275471 332.24952 
z
" style="fill:#f5d76e;opacity:0.45;"/>
   </g>
   <g id="patch_36">
    <path clip-path="url(#p0d10fb4684)" d="M 415.843306 415.72 
L 425.411141 415.72 
L 425.411141 281.194761 
L 415.843306 281.194761 
z
" style="fill:#f5d76e;opacity:0.45;"/>
   </g>
   <g id="patch_37">
    <path clip-path="url(#p0d10fb4684)" d="M 425.411141 415.72 
L 434.978975 415.72 
L 434.978975 224.46725 
L 425.411141 224.46725 
z
" style="fill:#f5d76e;opacity:0.45;"/>
   </g>
   <g id="patch_38">
    <path clip-path="url(#p0d10fb4684)" d="M 434.978975 415.72 
L 444.54681 415.72 
L 444.54681 185.838517 
L 434.978975 185.838517 
z
" style="fill:#f5d76e;opacity:0.45;"/>
   </g>
   <g id="patch_39">
    <path clip-path="url(#p0d10fb4684)" d="M 444.54681 415.72 
L 454.114645 415.72 
L 454.114645 136.674674 
L 444.54681 136.674674 
z
" style="fill:#f5d76e;opacity:0.45;"/>
   </g>
   <g id="patch_40">
    <path clip-path="url(#p0d10fb4684)" d="M 454.114645 415.72 
L 463.682479 415.72 
L 463.682479 126.409696 
L 454.114645 126.409696 
z
" style="fill:#f5d76e;opacity:0.45;"/>
   </g>
   <g id="patch_41">
    <path clip-path="url(#p0d10fb4684)" d="M 463.682479 415.72 
L 473.250314 415.72 
L 473.250314 115.334325 
L 463.682479 115.334325 
z
" style="fill:#f5d76e;opacity:0.45;"/>
   </g>
   <g id="patch_42">
    <path clip-path="url(#p0d10fb4684)" d="M 473.250314 415.72 
L 482.818149 415.72 
L 482.818149 122.627862 
L 473.250314 122.627862 
z
" style="fill:#f5d76e;opacity:0.45;"/>
   </g>
   <g id="patch_43">
    <path clip-path="url(#p0d10fb4684)" d="M 482.818149 415.72 
L 492.385984 415.72 
L 492.385984 171.251443 
L 482.818149 171.251443 
z
" style="fill:#f5d76e;opacity:0.45;"/>
   </g>
   <g id="patch_44">
    <path clip-path="url(#p0d10fb4684)" d="M 492.385984 415.72 
L 501.953818 415.72 
L 501.953818 231.490656 
L 492.385984 231.490656 
z
" style="fill:#f5d76e;opacity:0.45;"/>
   </g>
   <g id="patch_45">
    <path clip-path="url(#p0d10fb4684)" d="M 501.953818 415.72 
L 511.521653 415.72 
L 511.521653 273.901224 
L 501.953818 273.901224 
z
" style="fill:#f5d76e;opacity:0.45;"/>
   </g>
   <g id="patch_46">
    <path clip-path="url(#p0d10fb4684)" d="M 511.521653 415.72 
L 521.089488 415.72 
L 521.089488 324.955983 
L 511.521653 324.955983 
z
" style="fill:#f5d76e;opacity:0.45;"/>
   </g>
   <g id="patch_47">
    <path clip-path="url(#p0d10fb4684)" d="M 521.089488 415.72 
L 530.657322 415.72 
L 530.657322 350.348297 
L 521.089488 350.348297 
z
" style="fill:#f5d76e;opacity:0.45;"/>
   </g>
   <g id="patch_48">
    <path clip-path="url(#p0d10fb4684)" d="M 530.657322 415.72 
L 540.225157 415.72 
L 540.225157 370.608123 
L 530.657322 370.608123 
z
" style="fill:#f5d76e;opacity:0.45;"/>
   </g>
   <g id="patch_49">
    <path clip-path="url(#p0d10fb4684)" d="M 540.225157 415.72 
L 549.792992 415.72 
L 549.792992 396.270568 
L 540.225157 396.270568 
z
" style="fill:#f5d76e;opacity:0.45;"/>
   </g>
   <g id="patch_50">
    <path clip-path="url(#p0d10fb4684)" d="M 549.792992 415.72 
L 559.360826 415.72 
L 559.360826 402.753712 
L 549.792992 402.753712 
z
" style="fill:#f5d76e;opacity:0.45;"/>
   </g>
   <g id="patch_51">
    <path clip-path="url(#p0d10fb4684)" d="M 559.360826 415.72 
L 568.928661 415.72 
L 568.928661 409.506987 
L 559.360826 409.506987 
z
" style="fill:#f5d76e;opacity:0.45;"/>
   </g>
   <g id="patch_52">
    <path clip-path="url(#p0d10fb4684)" d="M 568.928661 415.72 
L 578.496496 415.72 
L 578.496496 412.208297 
L 568.928661 412.208297 
z
" style="fill:#f5d76e;opacity:0.45;"/>
   </g>
   <g id="patch_53">
    <path clip-path="url(#p0d10fb4684)" d="M 578.496496 415.72 
L 588.064331 415.72 
L 588.064331 413.829083 
L 578.496496 413.829083 
z
" style="fill:#f5d76e;opacity:0.45;"/>
   </g>
   <g id="patch_54">
    <path clip-path="url(#p0d10fb4684)" d="M 588.064331 415.72 
L 597.632165 415.72 
L 597.632165 415.72 
L 588.064331 415.72 
z
" style="fill:#f5d76e;opacity:0.45;"/>
   </g>
   <g id="patch_55">
    <path clip-path="url(#p0d10fb4684)" d="M 597.632165 415.72 
L 607.2 415.72 
L 607.2 415.179738 
L 597.632165 415.179738 
z
" style="fill:#f5d76e;opacity:0.45;"/>
   </g>
  </g>
  <g id="axes_3">
   <g id="patch_56">
    <path d="M 364.965789 332.983221 
Q 366.840789 373.350477 368.715789 413.717734 
L 368.715789 413.717734 
Q 370.590789 373.350477 372.465789 332.983221 
z
" style="fill:#88c9c1;stroke:#d2d2d2;stroke-linecap:round;"/>
   </g>
   <g id="text_8">
    <!-- $CI_{95}^{*}$=5.15 -->
    <defs>
     <path d="M 69.484375 67.28125 
L 67.484375 56.890625 
Q 62.796875 61.625 57.546875 63.921875 
Q 52.296875 66.21875 46.1875 66.21875 
Q 37.84375 66.21875 31.515625 62.203125 
Q 25.203125 58.203125 20.609375 50 
Q 17.671875 44.734375 16.125 38.84375 
Q 14.59375 32.953125 14.59375 27 
Q 14.59375 17.046875 19.75 11.8125 
Q 24.90625 6.59375 34.71875 6.59375 
Q 41.5 6.59375 47.75 8.765625 
Q 54 10.9375 59.90625 15.28125 
L 57.625 3.609375 
Q 51.8125 1.125 45.875 -0.140625 
Q 39.9375 -1.421875 33.984375 -1.421875 
Q 19.96875 -1.421875 12.078125 6.1875 
Q 4.203125 13.8125 4.203125 27.390625 
Q 4.203125 36.078125 7.203125 44.46875 
Q 10.203125 52.875 15.828125 59.8125 
Q 21.78125 67.1875 29.421875 70.703125 
Q 37.0625 74.21875 47.21875 74.21875 
Q 53.46875 74.21875 59.0625 72.484375 
Q 64.65625 70.75 69.484375 67.28125 
z
" id="DejaVuSans-Oblique-43"/>
     <path d="M 16.890625 72.90625 
L 26.8125 72.90625 
L 12.59375 0 
L 2.6875 0 
z
" id="DejaVuSans-Oblique-49"/>
     <path d="M 47.015625 60.890625 
L 29.5 51.421875 
L 47.015625 41.890625 
L 44.1875 37.109375 
L 27.78125 47.015625 
L 27.78125 28.609375 
L 22.21875 28.609375 
L 22.21875 47.015625 
L 5.8125 37.109375 
L 2.984375 41.890625 
L 20.515625 51.421875 
L 2.984375 60.890625 
L 5.8125 65.71875 
L 22.21875 55.8125 
L 22.21875 74.21875 
L 27.78125 74.21875 
L 27.78125 55.8125 
L 44.1875 65.71875 
z
" id="DejaVuSans-2a"/>
     <path d="M 10.984375 1.515625 
L 10.984375 10.5 
Q 14.703125 8.734375 18.5 7.8125 
Q 22.3125 6.890625 25.984375 6.890625 
Q 35.75 6.890625 40.890625 13.453125 
Q 46.046875 20.015625 46.78125 33.40625 
Q 43.953125 29.203125 39.59375 26.953125 
Q 35.25 24.703125 29.984375 24.703125 
Q 19.046875 24.703125 12.671875 31.3125 
Q 6.296875 37.9375 6.296875 49.421875 
Q 6.296875 60.640625 12.9375 67.421875 
Q 19.578125 74.21875 30.609375 74.21875 
Q 43.265625 74.21875 49.921875 64.515625 
Q 56.59375 54.828125 56.59375 36.375 
Q 56.59375 19.140625 48.40625 8.859375 
Q 40.234375 -1.421875 26.421875 -1.421875 
Q 22.703125 -1.421875 18.890625 -0.6875 
Q 15.09375 0.046875 10.984375 1.515625 
z
M 30.609375 32.421875 
Q 37.25 32.421875 41.125 36.953125 
Q 45.015625 41.5 45.015625 49.421875 
Q 45.015625 57.28125 41.125 61.84375 
Q 37.25 66.40625 30.609375 66.40625 
Q 23.96875 66.40625 20.09375 61.84375 
Q 16.21875 57.28125 16.21875 49.421875 
Q 16.21875 41.5 20.09375 36.953125 
Q 23.96875 32.421875 30.609375 32.421875 
z
" id="DejaVuSans-39"/>
     <path d="M 10.796875 72.90625 
L 49.515625 72.90625 
L 49.515625 64.59375 
L 19.828125 64.59375 
L 19.828125 46.734375 
Q 21.96875 47.46875 24.109375 47.828125 
Q 26.265625 48.1875 28.421875 48.1875 
Q 40.625 48.1875 47.75 41.5 
Q 54.890625 34.8125 54.890625 23.390625 
Q 54.890625 11.625 47.5625 5.09375 
Q 40.234375 -1.421875 26.90625 -1.421875 
Q 22.3125 -1.421875 17.546875 -0.640625 
Q 12.796875 0.140625 7.71875 1.703125 
L 7.71875 11.625 
Q 12.109375 9.234375 16.796875 8.0625 
Q 21.484375 6.890625 26.703125 6.890625 
Q 35.15625 6.890625 40.078125 11.328125 
Q 45.015625 15.765625 45.015625 23.390625 
Q 45.015625 31 40.078125 35.4375 
Q 35.15625 39.890625 26.703125 39.890625 
Q 22.75 39.890625 18.8125 39.015625 
Q 14.890625 38.140625 10.796875 36.28125 
z
" id="DejaVuSans-35"/>
     <path d="M 10.59375 45.21875 
L 73.1875 45.21875 
L 73.1875 37.40625 
L 10.59375 37.40625 
z
M 10.59375 25.296875 
L 73.1875 25.296875 
L 73.1875 17.484375 
L 10.59375 17.484375 
z
" id="DejaVuSerif-3d"/>
    </defs>
    <g style="fill:#88c9c1;" transform="translate(343.815789 326.083636)scale(0.1 -0.1)">
     <use transform="translate(0 0.765625)" xlink:href="#DejaVuSans-Oblique-43"/>
     <use transform="translate(69.824219 0.765625)" xlink:href="#DejaVuSans-Oblique-49"/>
     <use transform="translate(106.333177 39.046875)scale(0.7)" xlink:href="#DejaVuSans-2a"/>
     <use transform="translate(99.316406 -26.578125)scale(0.7)" xlink:href="#DejaVuSans-39"/>
     <use transform="translate(143.852539 -26.578125)scale(0.7)" xlink:href="#DejaVuSans-35"/>
     <use transform="translate(191.123047 0.765625)" xlink:href="#DejaVuSerif-3d"/>
     <use transform="translate(274.912109 0.765625)" xlink:href="#DejaVuSerif-35"/>
     <use transform="translate(338.535156 0.765625)" xlink:href="#DejaVuSerif-2e"/>
     <use transform="translate(370.322266 0.765625)" xlink:href="#DejaVuSerif-31"/>
     <use transform="translate(433.945312 0.765625)" xlink:href="#DejaVuSerif-35"/>
    </g>
   </g>
   <g id="patch_57">
    <path d="M 124.676243 332.983221 
Q 126.551243 373.350477 128.426243 413.717734 
L 128.426243 413.717734 
Q 130.301243 373.350477 132.176243 332.983221 
z
" style="fill:#88c9c1;stroke:#d2d2d2;stroke-linecap:round;"/>
   </g>
   <g id="text_9">
    <!-- $CI_{95}^{*}$=4.21 -->
    <g style="fill:#88c9c1;" transform="translate(103.526243 326.083636)scale(0.1 -0.1)">
     <use transform="translate(0 0.765625)" xlink:href="#DejaVuSans-Oblique-43"/>
     <use transform="translate(69.824219 0.765625)" xlink:href="#DejaVuSans-Oblique-49"/>
     <use transform="translate(106.333177 39.046875)scale(0.7)" xlink:href="#DejaVuSans-2a"/>
     <use transform="translate(99.316406 -26.578125)scale(0.7)" xlink:href="#DejaVuSans-39"/>
     <use transform="translate(143.852539 -26.578125)scale(0.7)" xlink:href="#DejaVuSans-35"/>
     <use transform="translate(191.123047 0.765625)" xlink:href="#DejaVuSerif-3d"/>
     <use transform="translate(274.912109 0.765625)" xlink:href="#DejaVuSerif-34"/>
     <use transform="translate(338.535156 0.765625)" xlink:href="#DejaVuSerif-2e"/>
     <use transform="translate(370.291016 0.765625)" xlink:href="#DejaVuSerif-32"/>
     <use transform="translate(433.914062 0.765625)" xlink:href="#DejaVuSerif-31"/>
    </g>
   </g>
  </g>
  <g id="axes_4">
   <g id="patch_58">
    <path d="M 530.979583 332.983221 
Q 532.854583 373.350477 534.729583 413.717734 
L 534.729583 413.717734 
Q 536.604583 373.350477 538.479583 332.983221 
z
" style="fill:#f5d76e;stroke:#d2d2d2;stroke-linecap:round;"/>
   </g>
   <g id="text_10">
    <!-- $CI_{95}^{*}$=5.79 -->
    <defs>
     <path d="M 56.390625 67.921875 
L 27.875 0 
L 20.609375 0 
L 47.796875 64.890625 
L 14.109375 64.890625 
L 14.109375 55.90625 
L 8.40625 55.90625 
L 8.40625 72.90625 
L 56.390625 72.90625 
z
" id="DejaVuSerif-37"/>
     <path d="M 46.78125 32.671875 
Q 43.5 29 39.25 27.1875 
Q 35.015625 25.390625 29.6875 25.390625 
Q 18.84375 25.390625 12.5625 31.9375 
Q 6.296875 38.484375 6.296875 49.8125 
Q 6.296875 60.890625 13.109375 67.546875 
Q 19.921875 74.21875 31.296875 74.21875 
Q 43.65625 74.21875 50.265625 65.015625 
Q 56.890625 55.8125 56.890625 38.71875 
Q 56.890625 19.578125 49.015625 9.078125 
Q 41.15625 -1.421875 26.90625 -1.421875 
Q 23.046875 -1.421875 18.796875 -0.6875 
Q 14.546875 0.046875 10.109375 1.515625 
L 10.109375 13.625 
L 15.578125 13.625 
Q 16.21875 8.6875 19.390625 6.046875 
Q 22.5625 3.421875 27.875 3.421875 
Q 37.359375 3.421875 41.984375 10.5625 
Q 46.625 17.71875 46.78125 32.671875 
z
M 30.90625 69.390625 
Q 23.96875 69.390625 20.28125 64.328125 
Q 16.609375 59.28125 16.609375 49.8125 
Q 16.609375 40.328125 20.28125 35.25 
Q 23.96875 30.171875 30.90625 30.171875 
Q 37.84375 30.171875 41.53125 35.078125 
Q 45.21875 39.984375 45.21875 49.21875 
Q 45.21875 58.9375 41.5 64.15625 
Q 37.796875 69.390625 30.90625 69.390625 
z
" id="DejaVuSerif-39"/>
    </defs>
    <g style="fill:#f5d76e;" transform="translate(509.829583 326.083636)scale(0.1 -0.1)">
     <use transform="translate(0 0.765625)" xlink:href="#DejaVuSans-Oblique-43"/>
     <use transform="translate(69.824219 0.765625)" xlink:href="#DejaVuSans-Oblique-49"/>
     <use transform="translate(106.333177 39.046875)scale(0.7)" xlink:href="#DejaVuSans-2a"/>
     <use transform="translate(99.316406 -26.578125)scale(0.7)" xlink:href="#DejaVuSans-39"/>
     <use transform="translate(143.852539 -26.578125)scale(0.7)" xlink:href="#DejaVuSans-35"/>
     <use transform="translate(191.123047 0.765625)" xlink:href="#DejaVuSerif-3d"/>
     <use transform="translate(274.912109 0.765625)" xlink:href="#DejaVuSerif-35"/>
     <use transform="translate(338.535156 0.765625)" xlink:href="#DejaVuSerif-2e"/>
     <use transform="translate(370.322266 0.765625)" xlink:href="#DejaVuSerif-37"/>
     <use transform="translate(433.945312 0.765625)" xlink:href="#DejaVuSerif-39"/>
    </g>
   </g>
   <g id="patch_59">
    <path d="M 399.659074 332.983221 
Q 401.534074 373.350477 403.409074 413.717734 
L 403.409074 413.717734 
Q 405.284074 373.350477 407.159074 332.983221 
z
" style="fill:#f5d76e;stroke:#d2d2d2;stroke-linecap:round;"/>
   </g>
   <g id="text_11">
    <!-- $CI_{95}^{*}$=5.28 -->
    <defs>
     <path d="M 46.578125 19.921875 
Q 46.578125 27.734375 42.6875 32.046875 
Q 38.8125 36.375 31.78125 36.375 
Q 24.75 36.375 20.875 32.046875 
Q 17 27.734375 17 19.921875 
Q 17 12.0625 20.875 7.734375 
Q 24.75 3.421875 31.78125 3.421875 
Q 38.8125 3.421875 42.6875 7.734375 
Q 46.578125 12.0625 46.578125 19.921875 
z
M 44.578125 55.328125 
Q 44.578125 61.96875 41.203125 65.671875 
Q 37.84375 69.390625 31.78125 69.390625 
Q 25.78125 69.390625 22.390625 65.671875 
Q 19 61.96875 19 55.328125 
Q 19 48.640625 22.390625 44.921875 
Q 25.78125 41.21875 31.78125 41.21875 
Q 37.84375 41.21875 41.203125 44.921875 
Q 44.578125 48.640625 44.578125 55.328125 
z
M 39.3125 38.8125 
Q 47.609375 37.703125 52.25 32.6875 
Q 56.890625 27.6875 56.890625 19.921875 
Q 56.890625 9.671875 50.390625 4.125 
Q 43.890625 -1.421875 31.78125 -1.421875 
Q 19.734375 -1.421875 13.203125 4.125 
Q 6.6875 9.671875 6.6875 19.921875 
Q 6.6875 27.6875 11.328125 32.6875 
Q 15.96875 37.703125 24.3125 38.8125 
Q 16.9375 40.140625 13 44.40625 
Q 9.078125 48.6875 9.078125 55.328125 
Q 9.078125 64.109375 15.125 69.15625 
Q 21.1875 74.21875 31.78125 74.21875 
Q 42.390625 74.21875 48.4375 69.15625 
Q 54.5 64.109375 54.5 55.328125 
Q 54.5 48.6875 50.5625 44.40625 
Q 46.625 40.140625 39.3125 38.8125 
z
" id="DejaVuSerif-38"/>
    </defs>
    <g style="fill:#f5d76e;" transform="translate(378.509074 326.083636)scale(0.1 -0.1)">
     <use transform="translate(0 0.765625)" xlink:href="#DejaVuSans-Oblique-43"/>
     <use transform="translate(69.824219 0.765625)" xlink:href="#DejaVuSans-Oblique-49"/>
     <use transform="translate(106.333177 39.046875)scale(0.7)" xlink:href="#DejaVuSans-2a"/>
     <use transform="translate(99.316406 -26.578125)scale(0.7)" xlink:href="#DejaVuSans-39"/>
     <use transform="translate(143.852539 -26.578125)scale(0.7)" xlink:href="#DejaVuSans-35"/>
     <use transform="translate(191.123047 0.765625)" xlink:href="#DejaVuSerif-3d"/>
     <use transform="translate(274.912109 0.765625)" xlink:href="#DejaVuSerif-35"/>
     <use transform="translate(338.535156 0.765625)" xlink:href="#DejaVuSerif-2e"/>
     <use transform="translate(370.291016 0.765625)" xlink:href="#DejaVuSerif-32"/>
     <use transform="translate(433.914062 0.765625)" xlink:href="#DejaVuSerif-38"/>
    </g>
   </g>
  </g>
  <g id="axes_5">
   <g id="patch_60">
    <path d="M 468.466397 110.837516 
L 468.466397 83.322864 
L 251.084797 83.322864 
L 251.084797 246.216033 
" style="fill:none;stroke:#e04b4b;stroke-linecap:round;stroke-width:3;"/>
    <path d="M 471.466397 106.837516 
L 468.466397 110.837516 
L 465.466397 106.837516 
" style="fill:none;stroke:#e04b4b;stroke-linecap:round;stroke-width:3;"/>
    <path d="M 254.084797 242.216033 
L 251.084797 246.216033 
L 248.084797 242.216033 
" style="fill:none;stroke:#e04b4b;stroke-linecap:round;stroke-width:3;"/>
   </g>
   <g id="text_12">
    <!-- $\Delta_{\bar{x}}=$4.66$-$5.53 -->
    <defs>
     <path d="M 34.1875 63.1875 
L 14.15625 8.203125 
L 54.25 8.203125 
z
M 0.78125 0 
L 28.609375 72.90625 
L 39.796875 72.90625 
L 67.578125 0 
z
" id="DejaVuSans-394"/>
     <path d="M -39.34375 74.515625 
L -10.15625 74.515625 
L -10.15625 67.28125 
L -39.34375 67.28125 
z
" id="DejaVuSans-304"/>
     <path d="M 60.015625 54.6875 
L 34.90625 27.875 
L 50.296875 0 
L 39.984375 0 
L 28.421875 21.6875 
L 8.296875 0 
L -2.59375 0 
L 24.3125 28.8125 
L 10.015625 54.6875 
L 20.3125 54.6875 
L 30.8125 34.90625 
L 49.125 54.6875 
z
" id="DejaVuSans-Oblique-78"/>
     <path d="M 10.59375 45.40625 
L 73.1875 45.40625 
L 73.1875 37.203125 
L 10.59375 37.203125 
z
M 10.59375 25.484375 
L 73.1875 25.484375 
L 73.1875 17.1875 
L 10.59375 17.1875 
z
" id="DejaVuSans-3d"/>
     <path d="M 10.59375 35.5 
L 73.1875 35.5 
L 73.1875 27.203125 
L 10.59375 27.203125 
z
" id="DejaVuSans-2212"/>
     <path d="M 9.71875 69.828125 
Q 15.4375 71.96875 20.671875 73.09375 
Q 25.921875 74.21875 30.515625 74.21875 
Q 41.21875 74.21875 47.21875 69.59375 
Q 53.21875 64.984375 53.21875 56.78125 
Q 53.21875 50.203125 49.0625 45.78125 
Q 44.921875 41.359375 37.3125 39.796875 
Q 46.296875 38.53125 51.25 33.28125 
Q 56.203125 28.03125 56.203125 19.671875 
Q 56.203125 9.46875 49.34375 4.015625 
Q 42.484375 -1.421875 29.59375 -1.421875 
Q 23.875 -1.421875 18.421875 -0.1875 
Q 12.984375 1.03125 7.625 3.515625 
L 7.625 17.671875 
L 13.09375 17.671875 
Q 13.578125 10.640625 17.828125 7.03125 
Q 22.078125 3.421875 29.78125 3.421875 
Q 37.25 3.421875 41.578125 7.734375 
Q 45.90625 12.0625 45.90625 19.578125 
Q 45.90625 28.171875 41.453125 32.59375 
Q 37.015625 37.015625 28.421875 37.015625 
L 23.78125 37.015625 
L 23.78125 42 
L 26.21875 42 
Q 34.765625 42 39.03125 45.53125 
Q 43.3125 49.078125 43.3125 56.203125 
Q 43.3125 62.59375 39.796875 65.984375 
Q 36.28125 69.390625 29.6875 69.390625 
Q 23.09375 69.390625 19.453125 66.265625 
Q 15.828125 63.140625 15.1875 56.984375 
L 9.71875 56.984375 
z
" id="DejaVuSerif-33"/>
    </defs>
    <g style="fill:#e04b4b;" transform="translate(309.263956 46.99015)scale(0.12 -0.12)">
     <use transform="translate(0 0.78125)" xlink:href="#DejaVuSans-394"/>
     <use transform="translate(112.31543 -15.6875)scale(0.7)" xlink:href="#DejaVuSans-304"/>
     <use transform="translate(69.365234 -15.625)scale(0.7)" xlink:href="#DejaVuSans-Oblique-78"/>
     <use transform="translate(133.007812 0.78125)" xlink:href="#DejaVuSans-3d"/>
     <use transform="translate(236.279297 0.78125)" xlink:href="#DejaVuSerif-34"/>
     <use transform="translate(299.902344 0.78125)" xlink:href="#DejaVuSerif-2e"/>
     <use transform="translate(331.689453 0.78125)" xlink:href="#DejaVuSerif-36"/>
     <use transform="translate(395.296875 0.78125)" xlink:href="#DejaVuSerif-36"/>
     <use transform="translate(458.919922 0.78125)" xlink:href="#DejaVuSans-2212"/>
     <use transform="translate(542.708984 0.78125)" xlink:href="#DejaVuSerif-35"/>
     <use transform="translate(606.332031 0.78125)" xlink:href="#DejaVuSerif-2e"/>
     <use transform="translate(638.119141 0.78125)" xlink:href="#DejaVuSerif-35"/>
     <use transform="translate(701.742188 0.78125)" xlink:href="#DejaVuSerif-33"/>
    </g>
    <!-- $=$-0.87 (-1.39,-0.33) -->
    <defs>
     <path d="M 4.390625 30.609375 
L 29.390625 30.609375 
L 29.390625 23 
L 4.390625 23 
z
" id="DejaVuSerif-2d"/>
     <path d="M 31.890625 -15.578125 
Q 20.015625 -10.25 13.953125 1.296875 
Q 7.90625 12.84375 7.90625 30.171875 
Q 7.90625 47.5625 13.953125 59.109375 
Q 20.015625 70.65625 31.890625 75.984375 
L 31.890625 71.1875 
Q 24.359375 66.015625 21.09375 56.609375 
Q 17.828125 47.21875 17.828125 30.171875 
Q 17.828125 13.1875 21.09375 3.78125 
Q 24.359375 -5.609375 31.890625 -10.796875 
z
" id="DejaVuSerif-28"/>
     <path d="M 3.609375 -9.71875 
Q 8.203125 -6.34375 10.34375 -1.78125 
Q 12.5 2.78125 12.5 9.28125 
L 12.5 11.078125 
L 22.125 11.078125 
Q 21.734375 2.734375 18.1875 -3.25 
Q 14.65625 -9.234375 7.515625 -13.625 
z
" id="DejaVuSerif-2c"/>
     <path d="M 7.078125 -15.578125 
L 7.078125 -10.796875 
Q 14.59375 -5.609375 17.890625 3.78125 
Q 21.1875 13.1875 21.1875 30.171875 
Q 21.1875 47.21875 17.890625 56.609375 
Q 14.59375 66.015625 7.078125 71.1875 
L 7.078125 75.984375 
Q 19 70.65625 25.046875 59.109375 
Q 31.109375 47.5625 31.109375 30.171875 
Q 31.109375 12.84375 25.046875 1.296875 
Q 19 -10.25 7.078125 -15.578125 
z
" id="DejaVuSerif-29"/>
    </defs>
    <g style="fill:#e04b4b;" transform="translate(293.183956 60.427525)scale(0.12 -0.12)">
     <use transform="translate(19.482422 0.015625)" xlink:href="#DejaVuSans-3d"/>
     <use transform="translate(122.753906 0.015625)" xlink:href="#DejaVuSerif-2d"/>
     <use transform="translate(156.542969 0.015625)" xlink:href="#DejaVuSerif-30"/>
     <use transform="translate(220.166016 0.015625)" xlink:href="#DejaVuSerif-2e"/>
     <use transform="translate(251.90625 0.015625)" xlink:href="#DejaVuSerif-38"/>
     <use transform="translate(315.529297 0.015625)" xlink:href="#DejaVuSerif-37"/>
     <use transform="translate(379.152344 0.015625)" xlink:href="#DejaVuSerif-20"/>
     <use transform="translate(410.939453 0.015625)" xlink:href="#DejaVuSerif-28"/>
     <use transform="translate(449.953125 0.015625)" xlink:href="#DejaVuSerif-2d"/>
     <use transform="translate(483.742188 0.015625)" xlink:href="#DejaVuSerif-31"/>
     <use transform="translate(547.365234 0.015625)" xlink:href="#DejaVuSerif-2e"/>
     <use transform="translate(579.152344 0.015625)" xlink:href="#DejaVuSerif-33"/>
     <use transform="translate(642.775391 0.015625)" xlink:href="#DejaVuSerif-39"/>
     <use transform="translate(706.398438 0.015625)" xlink:href="#DejaVuSerif-2c"/>
     <use transform="translate(738.185547 0.015625)" xlink:href="#DejaVuSerif-2d"/>
     <use transform="translate(771.974609 0.015625)" xlink:href="#DejaVuSerif-30"/>
     <use transform="translate(835.597656 0.015625)" xlink:href="#DejaVuSerif-2e"/>
     <use transform="translate(867.384766 0.015625)" xlink:href="#DejaVuSerif-33"/>
     <use transform="translate(931.007812 0.015625)" xlink:href="#DejaVuSerif-33"/>
     <use transform="translate(994.630859 0.015625)" xlink:href="#DejaVuSerif-29"/>
    </g>
    <!-- $p=$0.0088 -->
    <defs>
     <path d="M 49.609375 33.6875 
Q 49.609375 40.875 46.484375 44.671875 
Q 43.359375 48.484375 37.5 48.484375 
Q 33.5 48.484375 29.859375 46.4375 
Q 26.21875 44.390625 23.390625 40.484375 
Q 20.609375 36.625 18.9375 31.15625 
Q 17.28125 25.6875 17.28125 20.3125 
Q 17.28125 13.484375 20.40625 9.796875 
Q 23.53125 6.109375 29.296875 6.109375 
Q 33.546875 6.109375 37.1875 8.109375 
Q 40.828125 10.109375 43.40625 13.921875 
Q 46.1875 17.921875 47.890625 23.34375 
Q 49.609375 28.765625 49.609375 33.6875 
z
M 21.78125 46.390625 
Q 25.390625 51.125 30.296875 53.5625 
Q 35.203125 56 41.21875 56 
Q 49.609375 56 54.25 50.5 
Q 58.890625 45.015625 58.890625 35.109375 
Q 58.890625 27 56 19.65625 
Q 53.125 12.3125 47.703125 6.5 
Q 44.09375 2.640625 39.546875 0.609375 
Q 35.015625 -1.421875 29.984375 -1.421875 
Q 24.171875 -1.421875 20.21875 1 
Q 16.265625 3.421875 14.3125 8.203125 
L 8.6875 -20.796875 
L -0.296875 -20.796875 
L 14.40625 54.6875 
L 23.390625 54.6875 
z
" id="DejaVuSans-Oblique-70"/>
    </defs>
    <g style="fill:#e04b4b;" transform="translate(323.003956 73.8649)scale(0.12 -0.12)">
     <use transform="translate(0 0.78125)" xlink:href="#DejaVuSans-Oblique-70"/>
     <use transform="translate(82.958984 0.78125)" xlink:href="#DejaVuSans-3d"/>
     <use transform="translate(186.230469 0.78125)" xlink:href="#DejaVuSerif-30"/>
     <use transform="translate(249.853516 0.78125)" xlink:href="#DejaVuSerif-2e"/>
     <use transform="translate(281.640625 0.78125)" xlink:href="#DejaVuSerif-30"/>
     <use transform="translate(345.263672 0.78125)" xlink:href="#DejaVuSerif-30"/>
     <use transform="translate(408.886719 0.78125)" xlink:href="#DejaVuSerif-38"/>
     <use transform="translate(472.509766 0.78125)" xlink:href="#DejaVuSerif-38"/>
    </g>
   </g>
  </g>
  <g id="legend_1">
   <g id="patch_61">
    <path d="M 533.768438 71.43625 
L 628.52 71.43625 
Q 630.52 71.43625 630.52 69.43625 
L 630.52 41.08 
Q 630.52 39.08 628.52 39.08 
L 533.768438 39.08 
Q 531.768438 39.08 531.768438 41.08 
L 531.768438 69.43625 
Q 531.768438 71.43625 533.768438 71.43625 
z
" style="fill:#ffffff;opacity:0.8;stroke:#cccccc;stroke-linejoin:miter;"/>
   </g>
   <g id="patch_62">
    <path d="M 535.768438 50.678437 
L 555.768438 50.678437 
L 555.768438 43.678437 
L 535.768438 43.678437 
z
" style="fill:#88c9c1;opacity:0.7;"/>
   </g>
   <g id="text_13">
    <!-- Treatment 1 -->
    <g style="fill:#202020;" transform="translate(563.768438 50.678437)scale(0.1 -0.1)">
     <use xlink:href="#DejaVuSerif-54"/>
     <use x="66.699219" xlink:href="#DejaVuSerif-72"/>
     <use x="114.501953" xlink:href="#DejaVuSerif-65"/>
     <use x="173.681641" xlink:href="#DejaVuSerif-61"/>
     <use x="233.300781" xlink:href="#DejaVuSerif-74"/>
     <use x="273.486328" xlink:href="#DejaVuSerif-6d"/>
     <use x="368.310547" xlink:href="#DejaVuSerif-65"/>
     <use x="427.490234" xlink:href="#DejaVuSerif-6e"/>
     <use x="491.894531" xlink:href="#DejaVuSerif-74"/>
     <use x="532.080078" xlink:href="#DejaVuSerif-20"/>
     <use x="563.867188" xlink:href="#DejaVuSerif-31"/>
    </g>
   </g>
   <g id="patch_63">
    <path d="M 535.768438 65.356562 
L 555.768438 65.356562 
L 555.768438 58.356562 
L 535.768438 58.356562 
z
" style="fill:#f5d76e;opacity:0.45;"/>
   </g>
   <g id="text_14">
    <!-- Treatment 2 -->
    <g style="fill:#202020;" transform="translate(563.768438 65.356562)scale(0.1 -0.1)">
     <use xlink:href="#DejaVuSerif-54"/>
     <use x="66.699219" xlink:href="#DejaVuSerif-72"/>
     <use x="114.501953" xlink:href="#DejaVuSerif-65"/>
     <use x="173.681641" xlink:href="#DejaVuSerif-61"/>
     <use x="233.300781" xlink:href="#DejaVuSerif-74"/>
     <use x="273.486328" xlink:href="#DejaVuSerif-6d"/>
     <use x="368.310547" xlink:href="#DejaVuSerif-65"/>
     <use x="427.490234" xlink:href="#DejaVuSerif-6e"/>
     <use x="491.894531" xlink:href="#DejaVuSerif-74"/>
     <use x="532.080078" xlink:href="#DejaVuSerif-20"/>
     <use x="563.867188" xlink:href="#DejaVuSerif-32"/>
    </g>
   </g>
  </g>
 </g>
 <defs>
  <clipPath id="p0d10fb4684">
   <rect height="381.64" width="623.04" x="12.48" y="34.08"/>
  </clipPath>
 </defs>
</svg>
