<?xml version="1.0" encoding="utf-8" standalone="no"?>
<!DOCTYPE svg PUBLIC "-//W3C//DTD SVG 1.1//EN"
  "http://www.w3.org/Graphics/SVG/1.1/DTD/svg11.dtd">
<!-- Created with matplotlib (http://matplotlib.org/) -->
<svg height="288pt" version="1.1" viewBox="0 0 720 288" width="720pt" xmlns="http://www.w3.org/2000/svg" xmlns:xlink="http://www.w3.org/1999/xlink">
 <defs>
  <style type="text/css">
*{stroke-linecap:butt;stroke-linejoin:round;}
  </style>
 </defs>
 <g id="figure_1">
  <g id="patch_1">
   <path d="M 0 288 
L 720 288 
L 720 0 
L 0 0 
z
" style="fill:none;"/>
  </g>
  <g id="axes_1">
   <g id="patch_2">
    <path d="M 90 252 
L 343.636364 252 
L 343.636364 34.56 
L 90 34.56 
z
" style="fill:none;"/>
   </g>
   <g id="PathCollection_1">
    <defs>
     <path d="M 0 3.162278 
C 0.838646 3.162278 1.643056 2.82908 2.236068 2.236068 
C 2.82908 1.643056 3.162278 0.838646 3.162278 0 
C 3.162278 -0.838646 2.82908 -1.643056 2.236068 -2.236068 
C 1.643056 -2.82908 0.838646 -3.162278 0 -3.162278 
C -0.838646 -3.162278 -1.643056 -2.82908 -2.236068 -2.236068 
C -2.82908 -1.643056 -3.162278 -0.838646 -3.162278 0 
C -3.162278 0.838646 -2.82908 1.643056 -2.236068 2.236068 
C -1.643056 2.82908 -0.838646 3.162278 0 3.162278 
z
" id="m1c0e5bf846" style="stroke:#f79a52;"/>
    </defs>
    <g clip-path="url(#pb13b8e1324)">
     <use style="fill:#f79a52;stroke:#f79a52;" x="132.319697" xlink:href="#m1c0e5bf846" y="241.128"/>
     <use style="fill:#f79a52;stroke:#f79a52;" x="138.839091" xlink:href="#m1c0e5bf846" y="241.128"/>
     <use style="fill:#f79a52;stroke:#f79a52;" x="145.358485" xlink:href="#m1c0e5bf846" y="241.128"/>
     <use style="fill:#f79a52;stroke:#f79a52;" x="145.358485" xlink:href="#m1c0e5bf846" y="219.384"/>
     <use style="fill:#f79a52;stroke:#f79a52;" x="145.358485" xlink:href="#m1c0e5bf846" y="197.64"/>
     <use style="fill:#f79a52;stroke:#f79a52;" x="151.877879" xlink:href="#m1c0e5bf846" y="241.128"/>
     <use style="fill:#f79a52;stroke:#f79a52;" x="151.877879" xlink:href="#m1c0e5bf846" y="219.384"/>
     <use style="fill:#f79a52;stroke:#f79a52;" x="158.397273" xlink:href="#m1c0e5bf846" y="241.128"/>
     <use style="fill:#f79a52;stroke:#f79a52;" x="158.397273" xlink:href="#m1c0e5bf846" y="219.384"/>
     <use style="fill:#f79a52;stroke:#f79a52;" x="164.916667" xlink:href="#m1c0e5bf846" y="241.128"/>
     <use style="fill:#f79a52;stroke:#f79a52;" x="164.916667" xlink:href="#m1c0e5bf846" y="219.384"/>
     <use style="fill:#f79a52;stroke:#f79a52;" x="164.916667" xlink:href="#m1c0e5bf846" y="197.64"/>
     <use style="fill:#f79a52;stroke:#f79a52;" x="164.916667" xlink:href="#m1c0e5bf846" y="175.896"/>
     <use style="fill:#f79a52;stroke:#f79a52;" x="177.955455" xlink:href="#m1c0e5bf846" y="241.128"/>
     <use style="fill:#f79a52;stroke:#f79a52;" x="177.955455" xlink:href="#m1c0e5bf846" y="219.384"/>
     <use style="fill:#f79a52;stroke:#f79a52;" x="177.955455" xlink:href="#m1c0e5bf846" y="197.64"/>
     <use style="fill:#f79a52;stroke:#f79a52;" x="184.474848" xlink:href="#m1c0e5bf846" y="241.128"/>
     <use style="fill:#f79a52;stroke:#f79a52;" x="184.474848" xlink:href="#m1c0e5bf846" y="219.384"/>
     <use style="fill:#f79a52;stroke:#f79a52;" x="184.474848" xlink:href="#m1c0e5bf846" y="197.64"/>
     <use style="fill:#f79a52;stroke:#f79a52;" x="184.474848" xlink:href="#m1c0e5bf846" y="175.896"/>
     <use style="fill:#f79a52;stroke:#f79a52;" x="190.994242" xlink:href="#m1c0e5bf846" y="241.128"/>
     <use style="fill:#f79a52;stroke:#f79a52;" x="190.994242" xlink:href="#m1c0e5bf846" y="219.384"/>
     <use style="fill:#f79a52;stroke:#f79a52;" x="197.513636" xlink:href="#m1c0e5bf846" y="241.128"/>
     <use style="fill:#f79a52;stroke:#f79a52;" x="204.03303" xlink:href="#m1c0e5bf846" y="241.128"/>
     <use style="fill:#f79a52;stroke:#f79a52;" x="204.03303" xlink:href="#m1c0e5bf846" y="219.384"/>
     <use style="fill:#f79a52;stroke:#f79a52;" x="210.552424" xlink:href="#m1c0e5bf846" y="241.128"/>
     <use style="fill:#f79a52;stroke:#f79a52;" x="230.110606" xlink:href="#m1c0e5bf846" y="241.128"/>
     <use style="fill:#f79a52;stroke:#f79a52;" x="243.149394" xlink:href="#m1c0e5bf846" y="241.128"/>
     <use style="fill:#f79a52;stroke:#f79a52;" x="256.188182" xlink:href="#m1c0e5bf846" y="241.128"/>
     <use style="fill:#f79a52;stroke:#f79a52;" x="262.707576" xlink:href="#m1c0e5bf846" y="241.128"/>
     <use style="fill:#f79a52;stroke:#f79a52;" x="262.707576" xlink:href="#m1c0e5bf846" y="219.384"/>
     <use style="fill:#f79a52;stroke:#f79a52;" x="269.22697" xlink:href="#m1c0e5bf846" y="241.128"/>
     <use style="fill:#f79a52;stroke:#f79a52;" x="269.22697" xlink:href="#m1c0e5bf846" y="219.384"/>
     <use style="fill:#f79a52;stroke:#f79a52;" x="282.265758" xlink:href="#m1c0e5bf846" y="241.128"/>
     <use style="fill:#f79a52;stroke:#f79a52;" x="282.265758" xlink:href="#m1c0e5bf846" y="219.384"/>
     <use style="fill:#f79a52;stroke:#f79a52;" x="288.785152" xlink:href="#m1c0e5bf846" y="241.128"/>
     <use style="fill:#f79a52;stroke:#f79a52;" x="288.785152" xlink:href="#m1c0e5bf846" y="219.384"/>
     <use style="fill:#f79a52;stroke:#f79a52;" x="288.785152" xlink:href="#m1c0e5bf846" y="197.64"/>
     <use style="fill:#f79a52;stroke:#f79a52;" x="288.785152" xlink:href="#m1c0e5bf846" y="175.896"/>
     <use style="fill:#f79a52;stroke:#f79a52;" x="288.785152" xlink:href="#m1c0e5bf846" y="154.152"/>
     <use style="fill:#f79a52;stroke:#f79a52;" x="301.823939" xlink:href="#m1c0e5bf846" y="241.128"/>
     <use style="fill:#f79a52;stroke:#f79a52;" x="301.823939" xlink:href="#m1c0e5bf846" y="219.384"/>
    </g>
   </g>
   <g id="matplotlib.axis_1">
    <g id="xtick_1">
     <g id="line2d_1">
      <defs>
       <path d="M 0 0 
L 0 3.5 
" id="ma4dcdc7111" style="stroke:#d2d2d2;stroke-width:0.8;"/>
      </defs>
      <g>
       <use style="fill:#d2d2d2;stroke:#d2d2d2;stroke-width:0.8;" x="90" xlink:href="#ma4dcdc7111" y="252"/>
      </g>
     </g>
     <g id="text_1">
      <!-- 0 -->
      <defs>
       <path d="M 31.78125 3.421875 
Q 39.265625 3.421875 42.96875 11.625 
Q 46.6875 19.828125 46.6875 36.375 
Q 46.6875 52.984375 42.96875 61.1875 
Q 39.265625 69.390625 31.78125 69.390625 
Q 24.3125 69.390625 20.59375 61.1875 
Q 16.890625 52.984375 16.890625 36.375 
Q 16.890625 19.828125 20.59375 11.625 
Q 24.3125 3.421875 31.78125 3.421875 
z
M 31.78125 -1.421875 
Q 19.921875 -1.421875 13.25 8.53125 
Q 6.59375 18.5 6.59375 36.375 
Q 6.59375 54.296875 13.25 64.25 
Q 19.921875 74.21875 31.78125 74.21875 
Q 43.703125 74.21875 50.34375 64.25 
Q 56.984375 54.296875 56.984375 36.375 
Q 56.984375 18.5 50.34375 8.53125 
Q 43.703125 -1.421875 31.78125 -1.421875 
z
" id="DejaVuSerif-30"/>
      </defs>
      <g style="fill:#d2d2d2;" transform="translate(86.81875 266.598437)scale(0.1 -0.1)">
       <use xlink:href="#DejaVuSerif-30"/>
      </g>
     </g>
    </g>
    <g id="xtick_2">
     <g id="line2d_2">
      <g>
       <use style="fill:#d2d2d2;stroke:#d2d2d2;stroke-width:0.8;" x="140.727273" xlink:href="#ma4dcdc7111" y="252"/>
      </g>
     </g>
     <g id="text_2">
      <!-- 10 -->
      <defs>
       <path d="M 14.203125 0 
L 14.203125 5.171875 
L 26.90625 5.171875 
L 26.90625 65.828125 
L 12.203125 56.296875 
L 12.203125 62.703125 
L 29.984375 74.21875 
L 36.71875 74.21875 
L 36.71875 5.171875 
L 49.421875 5.171875 
L 49.421875 0 
z
" id="DejaVuSerif-31"/>
      </defs>
      <g style="fill:#d2d2d2;" transform="translate(134.364773 266.598437)scale(0.1 -0.1)">
       <use xlink:href="#DejaVuSerif-31"/>
       <use x="63.623047" xlink:href="#DejaVuSerif-30"/>
      </g>
     </g>
    </g>
    <g id="xtick_3">
     <g id="line2d_3">
      <g>
       <use style="fill:#d2d2d2;stroke:#d2d2d2;stroke-width:0.8;" x="191.454545" xlink:href="#ma4dcdc7111" y="252"/>
      </g>
     </g>
     <g id="text_3">
      <!-- 20 -->
      <defs>
       <path d="M 12.796875 55.515625 
L 7.328125 55.515625 
L 7.328125 68.5 
Q 12.546875 71.296875 17.84375 72.75 
Q 23.140625 74.21875 28.21875 74.21875 
Q 39.59375 74.21875 46.1875 68.703125 
Q 52.78125 63.1875 52.78125 53.71875 
Q 52.78125 43.015625 37.84375 28.125 
Q 36.671875 27 36.078125 26.421875 
L 17.671875 8.015625 
L 48.09375 8.015625 
L 48.09375 17 
L 53.8125 17 
L 53.8125 0 
L 6.78125 0 
L 6.78125 5.328125 
L 28.90625 27.390625 
Q 36.234375 34.71875 39.359375 40.84375 
Q 42.484375 46.96875 42.484375 53.71875 
Q 42.484375 61.078125 38.640625 65.234375 
Q 34.8125 69.390625 28.078125 69.390625 
Q 21.09375 69.390625 17.28125 65.921875 
Q 13.484375 62.453125 12.796875 55.515625 
z
" id="DejaVuSerif-32"/>
      </defs>
      <g style="fill:#d2d2d2;" transform="translate(185.092045 266.598437)scale(0.1 -0.1)">
       <use xlink:href="#DejaVuSerif-32"/>
       <use x="63.623047" xlink:href="#DejaVuSerif-30"/>
      </g>
     </g>
    </g>
    <g id="xtick_4">
     <g id="line2d_4">
      <g>
       <use style="fill:#d2d2d2;stroke:#d2d2d2;stroke-width:0.8;" x="242.181818" xlink:href="#ma4dcdc7111" y="252"/>
      </g>
     </g>
     <g id="text_4">
      <!-- 30 -->
      <defs>
       <path d="M 9.71875 69.828125 
Q 15.4375 71.96875 20.671875 73.09375 
Q 25.921875 74.21875 30.515625 74.21875 
Q 41.21875 74.21875 47.21875 69.59375 
Q 53.21875 64.984375 53.21875 56.78125 
Q 53.21875 50.203125 49.0625 45.78125 
Q 44.921875 41.359375 37.3125 39.796875 
Q 46.296875 38.53125 51.25 33.28125 
Q 56.203125 28.03125 56.203125 19.671875 
Q 56.203125 9.46875 49.34375 4.015625 
Q 42.484375 -1.421875 29.59375 -1.421875 
Q 23.875 -1.421875 18.421875 -0.1875 
Q 12.984375 1.03125 7.625 3.515625 
L 7.625 17.671875 
L 13.09375 17.671875 
Q 13.578125 10.640625 17.828125 7.03125 
Q 22.078125 3.421875 29.78125 3.421875 
Q 37.25 3.421875 41.578125 7.734375 
Q 45.90625 12.0625 45.90625 19.578125 
Q 45.90625 28.171875 41.453125 32.59375 
Q 37.015625 37.015625 28.421875 37.015625 
L 23.78125 37.015625 
L 23.78125 42 
L 26.21875 42 
Q 34.765625 42 39.03125 45.53125 
Q 43.3125 49.078125 43.3125 56.203125 
Q 43.3125 62.59375 39.796875 65.984375 
Q 36.28125 69.390625 29.6875 69.390625 
Q 23.09375 69.390625 19.453125 66.265625 
Q 15.828125 63.140625 15.1875 56.984375 
L 9.71875 56.984375 
z
" id="DejaVuSerif-33"/>
      </defs>
      <g style="fill:#d2d2d2;" transform="translate(235.819318 266.598437)scale(0.1 -0.1)">
       <use xlink:href="#DejaVuSerif-33"/>
       <use x="63.623047" xlink:href="#DejaVuSerif-30"/>
      </g>
     </g>
    </g>
    <g id="xtick_5">
     <g id="line2d_5">
      <g>
       <use style="fill:#d2d2d2;stroke:#d2d2d2;stroke-width:0.8;" x="292.909091" xlink:href="#ma4dcdc7111" y="252"/>
      </g>
     </g>
     <g id="text_5">
      <!-- 40 -->
      <defs>
       <path d="M 34.90625 24.703125 
L 34.90625 63.484375 
L 10.015625 24.703125 
z
M 56.390625 0 
L 23.1875 0 
L 23.1875 5.171875 
L 34.90625 5.171875 
L 34.90625 19.484375 
L 3.078125 19.484375 
L 3.078125 24.8125 
L 35.015625 74.21875 
L 44.671875 74.21875 
L 44.671875 24.703125 
L 58.59375 24.703125 
L 58.59375 19.484375 
L 44.671875 19.484375 
L 44.671875 5.171875 
L 56.390625 5.171875 
z
" id="DejaVuSerif-34"/>
      </defs>
      <g style="fill:#d2d2d2;" transform="translate(286.546591 266.598437)scale(0.1 -0.1)">
       <use xlink:href="#DejaVuSerif-34"/>
       <use x="63.623047" xlink:href="#DejaVuSerif-30"/>
      </g>
     </g>
    </g>
    <g id="xtick_6">
     <g id="line2d_6">
      <g>
       <use style="fill:#d2d2d2;stroke:#d2d2d2;stroke-width:0.8;" x="343.636364" xlink:href="#ma4dcdc7111" y="252"/>
      </g>
     </g>
     <g id="text_6">
      <!-- 50 -->
      <defs>
       <path d="M 50.296875 72.90625 
L 50.296875 64.890625 
L 16.890625 64.890625 
L 16.890625 44 
Q 19.4375 45.75 22.828125 46.625 
Q 26.21875 47.515625 30.421875 47.515625 
Q 42.234375 47.515625 49.0625 40.96875 
Q 55.90625 34.421875 55.90625 23.09375 
Q 55.90625 11.53125 49 5.046875 
Q 42.09375 -1.421875 29.59375 -1.421875 
Q 24.5625 -1.421875 19.28125 -0.1875 
Q 14.015625 1.03125 8.5 3.515625 
L 8.5 17.671875 
L 14.015625 17.671875 
Q 14.453125 10.75 18.421875 7.078125 
Q 22.40625 3.421875 29.59375 3.421875 
Q 37.3125 3.421875 41.453125 8.5 
Q 45.609375 13.578125 45.609375 23.09375 
Q 45.609375 32.5625 41.484375 37.609375 
Q 37.359375 42.671875 29.59375 42.671875 
Q 25.203125 42.671875 21.84375 41.109375 
Q 18.5 39.546875 15.921875 36.28125 
L 11.71875 36.28125 
L 11.71875 72.90625 
z
" id="DejaVuSerif-35"/>
      </defs>
      <g style="fill:#d2d2d2;" transform="translate(337.273864 266.598437)scale(0.1 -0.1)">
       <use xlink:href="#DejaVuSerif-35"/>
       <use x="63.623047" xlink:href="#DejaVuSerif-30"/>
      </g>
     </g>
    </g>
    <g id="text_7">
     <!-- $CO_2$ uptake -->
     <defs>
      <path d="M 69.484375 67.28125 
L 67.484375 56.890625 
Q 62.796875 61.625 57.546875 63.921875 
Q 52.296875 66.21875 46.1875 66.21875 
Q 37.84375 66.21875 31.515625 62.203125 
Q 25.203125 58.203125 20.609375 50 
Q 17.671875 44.734375 16.125 38.84375 
Q 14.59375 32.953125 14.59375 27 
Q 14.59375 17.046875 19.75 11.8125 
Q 24.90625 6.59375 34.71875 6.59375 
Q 41.5 6.59375 47.75 8.765625 
Q 54 10.9375 59.90625 15.28125 
L 57.625 3.609375 
Q 51.8125 1.125 45.875 -0.140625 
Q 39.9375 -1.421875 33.984375 -1.421875 
Q 19.96875 -1.421875 12.078125 6.1875 
Q 4.203125 13.8125 4.203125 27.390625 
Q 4.203125 36.078125 7.203125 44.46875 
Q 10.203125 52.875 15.828125 59.8125 
Q 21.78125 67.1875 29.421875 70.703125 
Q 37.0625 74.21875 47.21875 74.21875 
Q 53.46875 74.21875 59.0625 72.484375 
Q 64.65625 70.75 69.484375 67.28125 
z
" id="DejaVuSans-Oblique-43"/>
      <path d="M 45.609375 66.21875 
Q 37.5 66.21875 31.296875 62.28125 
Q 25.09375 58.34375 20.515625 50.296875 
Q 17.578125 45.171875 16.03125 39.40625 
Q 14.5 33.640625 14.5 27.78125 
Q 14.5 17.625 19.359375 12.109375 
Q 24.21875 6.59375 33.109375 6.59375 
Q 41.109375 6.59375 47.375 10.5625 
Q 53.65625 14.546875 58.109375 22.40625 
Q 61.078125 27.6875 62.640625 33.46875 
Q 64.203125 39.265625 64.203125 45.015625 
Q 64.203125 55.125 59.3125 60.671875 
Q 54.4375 66.21875 45.609375 66.21875 
z
M 32.8125 -1.421875 
Q 19.390625 -1.421875 11.6875 6.53125 
Q 4 14.5 4 28.328125 
Q 4 36.234375 7 44.484375 
Q 10.015625 52.734375 15.28125 59.1875 
Q 21.484375 66.75 29.09375 70.484375 
Q 36.71875 74.21875 45.90625 74.21875 
Q 59.28125 74.21875 66.984375 66.328125 
Q 74.703125 58.453125 74.703125 44.828125 
Q 74.703125 36.421875 71.765625 28.3125 
Q 68.84375 20.21875 63.375 13.625 
Q 57.125 6 49.578125 2.28125 
Q 42.046875 -1.421875 32.8125 -1.421875 
z
" id="DejaVuSans-Oblique-4f"/>
      <path d="M 19.1875 8.296875 
L 53.609375 8.296875 
L 53.609375 0 
L 7.328125 0 
L 7.328125 8.296875 
Q 12.9375 14.109375 22.625 23.890625 
Q 32.328125 33.6875 34.8125 36.53125 
Q 39.546875 41.84375 41.421875 45.53125 
Q 43.3125 49.21875 43.3125 52.78125 
Q 43.3125 58.59375 39.234375 62.25 
Q 35.15625 65.921875 28.609375 65.921875 
Q 23.96875 65.921875 18.8125 64.3125 
Q 13.671875 62.703125 7.8125 59.421875 
L 7.8125 69.390625 
Q 13.765625 71.78125 18.9375 73 
Q 24.125 74.21875 28.421875 74.21875 
Q 39.75 74.21875 46.484375 68.546875 
Q 53.21875 62.890625 53.21875 53.421875 
Q 53.21875 48.921875 51.53125 44.890625 
Q 49.859375 40.875 45.40625 35.40625 
Q 44.1875 33.984375 37.640625 27.21875 
Q 31.109375 20.453125 19.1875 8.296875 
z
" id="DejaVuSans-32"/>
      <path id="DejaVuSerif-20"/>
      <path d="M 35.40625 51.90625 
L 52.203125 51.90625 
L 52.203125 5.171875 
L 60.6875 5.171875 
L 60.6875 0 
L 43.21875 0 
L 43.21875 9.1875 
Q 40.71875 4 36.765625 1.28125 
Q 32.8125 -1.421875 27.59375 -1.421875 
Q 18.953125 -1.421875 14.875 3.484375 
Q 10.796875 8.40625 10.796875 18.890625 
L 10.796875 46.6875 
L 2.6875 46.6875 
L 2.6875 51.90625 
L 19.828125 51.90625 
L 19.828125 21.6875 
Q 19.828125 12.203125 22.140625 8.6875 
Q 24.46875 5.171875 30.421875 5.171875 
Q 36.671875 5.171875 39.9375 9.765625 
Q 43.21875 14.359375 43.21875 23.09375 
L 43.21875 46.6875 
L 35.40625 46.6875 
z
" id="DejaVuSerif-75"/>
      <path d="M 20.515625 28.515625 
L 20.515625 23.390625 
Q 20.515625 14.015625 24.09375 9.109375 
Q 27.6875 4.203125 34.515625 4.203125 
Q 41.40625 4.203125 44.9375 9.71875 
Q 48.484375 15.234375 48.484375 25.984375 
Q 48.484375 36.765625 44.9375 42.234375 
Q 41.40625 47.703125 34.515625 47.703125 
Q 27.6875 47.703125 24.09375 42.765625 
Q 20.515625 37.84375 20.515625 28.515625 
z
M 11.53125 46.6875 
L 2.875 46.6875 
L 2.875 51.90625 
L 20.515625 51.90625 
L 20.515625 43.796875 
Q 23.140625 48.6875 27.21875 51 
Q 31.296875 53.328125 37.3125 53.328125 
Q 46.875 53.328125 52.921875 45.75 
Q 58.984375 38.1875 58.984375 25.984375 
Q 58.984375 13.765625 52.921875 6.171875 
Q 46.875 -1.421875 37.3125 -1.421875 
Q 31.296875 -1.421875 27.21875 0.890625 
Q 23.140625 3.21875 20.515625 8.109375 
L 20.515625 -15.578125 
L 29 -15.578125 
L 29 -20.796875 
L 2.875 -20.796875 
L 2.875 -15.578125 
L 11.53125 -15.578125 
z
" id="DejaVuSerif-70"/>
      <path d="M 10.796875 46.6875 
L 2.875 46.6875 
L 2.875 51.90625 
L 10.796875 51.90625 
L 10.796875 68.015625 
L 19.828125 68.015625 
L 19.828125 51.90625 
L 36.71875 51.90625 
L 36.71875 46.6875 
L 19.828125 46.6875 
L 19.828125 13.71875 
Q 19.828125 7.125 21.09375 5.265625 
Q 22.359375 3.421875 25.78125 3.421875 
Q 29.296875 3.421875 30.90625 5.484375 
Q 32.515625 7.5625 32.625 12.203125 
L 39.40625 12.203125 
Q 39.015625 5.125 35.546875 1.84375 
Q 32.078125 -1.421875 25 -1.421875 
Q 17.234375 -1.421875 14.015625 2.015625 
Q 10.796875 5.46875 10.796875 13.71875 
z
" id="DejaVuSerif-74"/>
      <path d="M 39.796875 16.3125 
L 39.796875 27.296875 
L 28.21875 27.296875 
Q 21.53125 27.296875 18.25 24.40625 
Q 14.984375 21.53125 14.984375 15.578125 
Q 14.984375 10.15625 18.296875 6.984375 
Q 21.625 3.8125 27.296875 3.8125 
Q 32.90625 3.8125 36.34375 7.28125 
Q 39.796875 10.75 39.796875 16.3125 
z
M 48.78125 32.421875 
L 48.78125 5.171875 
L 56.78125 5.171875 
L 56.78125 0 
L 39.796875 0 
L 39.796875 5.609375 
Q 36.8125 2 32.90625 0.28125 
Q 29 -1.421875 23.78125 -1.421875 
Q 15.140625 -1.421875 10.0625 3.171875 
Q 4.984375 7.765625 4.984375 15.578125 
Q 4.984375 23.640625 10.796875 28.078125 
Q 16.609375 32.515625 27.203125 32.515625 
L 39.796875 32.515625 
L 39.796875 36.078125 
Q 39.796875 42 36.203125 45.234375 
Q 32.625 48.484375 26.125 48.484375 
Q 20.75 48.484375 17.578125 46.046875 
Q 14.40625 43.609375 13.625 38.8125 
L 8.984375 38.8125 
L 8.984375 49.3125 
Q 13.671875 51.3125 18.09375 52.3125 
Q 22.515625 53.328125 26.703125 53.328125 
Q 37.5 53.328125 43.140625 47.96875 
Q 48.78125 42.625 48.78125 32.421875 
z
" id="DejaVuSerif-61"/>
      <path d="M 28.609375 0 
L 3.421875 0 
L 3.421875 5.171875 
L 11.53125 5.171875 
L 11.53125 70.796875 
L 2.875 70.796875 
L 2.875 75.984375 
L 20.515625 75.984375 
L 20.515625 26.515625 
L 42.390625 46.6875 
L 34.90625 46.6875 
L 34.90625 51.90625 
L 58.40625 51.90625 
L 58.40625 46.6875 
L 49.515625 46.6875 
L 34.078125 32.421875 
L 53.8125 5.171875 
L 61.28125 5.171875 
L 61.28125 0 
L 35.6875 0 
L 35.6875 5.171875 
L 43.109375 5.171875 
L 27.59375 26.515625 
L 20.515625 19.921875 
L 20.515625 5.171875 
L 28.609375 5.171875 
z
" id="DejaVuSerif-6b"/>
      <path d="M 54.203125 25 
L 15.484375 25 
L 15.484375 24.609375 
Q 15.484375 14.109375 19.4375 8.765625 
Q 23.390625 3.421875 31.109375 3.421875 
Q 37.015625 3.421875 40.796875 6.515625 
Q 44.578125 9.625 46.09375 15.71875 
L 53.328125 15.71875 
Q 51.171875 7.171875 45.375 2.875 
Q 39.59375 -1.421875 30.171875 -1.421875 
Q 18.796875 -1.421875 11.890625 6.078125 
Q 4.984375 13.578125 4.984375 25.984375 
Q 4.984375 38.28125 11.765625 45.796875 
Q 18.5625 53.328125 29.59375 53.328125 
Q 41.359375 53.328125 47.65625 46.0625 
Q 53.953125 38.8125 54.203125 25 
z
M 43.609375 30.171875 
Q 43.3125 39.265625 39.765625 43.875 
Q 36.234375 48.484375 29.59375 48.484375 
Q 23.390625 48.484375 19.828125 43.84375 
Q 16.265625 39.203125 15.484375 30.171875 
z
" id="DejaVuSerif-65"/>
     </defs>
     <g style="fill:#d2d2d2;" transform="translate(159.218182 287.878125)scale(0.2 -0.2)">
      <use transform="translate(0 0.015625)" xlink:href="#DejaVuSans-Oblique-43"/>
      <use transform="translate(69.824219 0.015625)" xlink:href="#DejaVuSans-Oblique-4f"/>
      <use transform="translate(148.535156 -16.390625)scale(0.7)" xlink:href="#DejaVuSans-32"/>
      <use transform="translate(195.805664 0.015625)" xlink:href="#DejaVuSerif-20"/>
      <use transform="translate(227.592773 0.015625)" xlink:href="#DejaVuSerif-75"/>
      <use transform="translate(291.99707 0.015625)" xlink:href="#DejaVuSerif-70"/>
      <use transform="translate(356.010742 0.015625)" xlink:href="#DejaVuSerif-74"/>
      <use transform="translate(396.196289 0.015625)" xlink:href="#DejaVuSerif-61"/>
      <use transform="translate(455.81543 0.015625)" xlink:href="#DejaVuSerif-6b"/>
      <use transform="translate(516.411133 0.015625)" xlink:href="#DejaVuSerif-65"/>
     </g>
    </g>
   </g>
   <g id="matplotlib.axis_2">
    <g id="ytick_1">
     <g id="line2d_7">
      <defs>
       <path d="M 0 0 
L -3.5 0 
" id="mebd69567f3" style="stroke:#d2d2d2;stroke-width:0.8;"/>
      </defs>
      <g>
       <use style="fill:#d2d2d2;stroke:#d2d2d2;stroke-width:0.8;" x="90" xlink:href="#mebd69567f3" y="252"/>
      </g>
     </g>
    </g>
    <g id="ytick_2">
     <g id="line2d_8">
      <g>
       <use style="fill:#d2d2d2;stroke:#d2d2d2;stroke-width:0.8;" x="90" xlink:href="#mebd69567f3" y="208.512"/>
      </g>
     </g>
    </g>
    <g id="ytick_3">
     <g id="line2d_9">
      <g>
       <use style="fill:#d2d2d2;stroke:#d2d2d2;stroke-width:0.8;" x="90" xlink:href="#mebd69567f3" y="165.024"/>
      </g>
     </g>
    </g>
    <g id="ytick_4">
     <g id="line2d_10">
      <g>
       <use style="fill:#d2d2d2;stroke:#d2d2d2;stroke-width:0.8;" x="90" xlink:href="#mebd69567f3" y="121.536"/>
      </g>
     </g>
    </g>
    <g id="ytick_5">
     <g id="line2d_11">
      <g>
       <use style="fill:#d2d2d2;stroke:#d2d2d2;stroke-width:0.8;" x="90" xlink:href="#mebd69567f3" y="78.048"/>
      </g>
     </g>
    </g>
    <g id="ytick_6">
     <g id="line2d_12">
      <g>
       <use style="fill:#d2d2d2;stroke:#d2d2d2;stroke-width:0.8;" x="90" xlink:href="#mebd69567f3" y="34.56"/>
      </g>
     </g>
    </g>
    <g id="text_8">
     <!-- Frequency -->
     <defs>
      <path d="M 5.515625 0 
L 5.515625 5.171875 
L 14.796875 5.171875 
L 14.796875 67.671875 
L 5.515625 67.671875 
L 5.515625 72.90625 
L 65.1875 72.90625 
L 65.1875 56.6875 
L 59.1875 56.6875 
L 59.1875 66.890625 
L 24.703125 66.890625 
L 24.703125 42.484375 
L 49.609375 42.484375 
L 49.609375 51.609375 
L 55.609375 51.609375 
L 55.609375 27.390625 
L 49.609375 27.390625 
L 49.609375 36.53125 
L 24.703125 36.53125 
L 24.703125 5.171875 
L 36.375 5.171875 
L 36.375 0 
z
" id="DejaVuSerif-46"/>
      <path d="M 47.796875 52 
L 47.796875 39.015625 
L 42.625 39.015625 
Q 42.390625 42.875 40.484375 44.78125 
Q 38.578125 46.6875 34.90625 46.6875 
Q 28.265625 46.6875 24.71875 42.09375 
Q 21.1875 37.5 21.1875 28.90625 
L 21.1875 5.171875 
L 31.59375 5.171875 
L 31.59375 0 
L 4.109375 0 
L 4.109375 5.171875 
L 12.203125 5.171875 
L 12.203125 46.78125 
L 3.609375 46.78125 
L 3.609375 51.90625 
L 21.1875 51.90625 
L 21.1875 42.671875 
Q 23.828125 48.09375 27.96875 50.703125 
Q 32.125 53.328125 38.09375 53.328125 
Q 40.28125 53.328125 42.703125 52.984375 
Q 45.125 52.640625 47.796875 52 
z
" id="DejaVuSerif-72"/>
      <path d="M 52.484375 46.6875 
L 52.484375 -15.578125 
L 61.078125 -15.578125 
L 61.078125 -20.796875 
L 35.015625 -20.796875 
L 35.015625 -15.578125 
L 43.5 -15.578125 
L 43.5 8.109375 
Q 40.875 3.21875 36.796875 0.890625 
Q 32.71875 -1.421875 26.703125 -1.421875 
Q 17.140625 -1.421875 11.0625 6.171875 
Q 4.984375 13.765625 4.984375 25.984375 
Q 4.984375 38.1875 11.03125 45.75 
Q 17.09375 53.328125 26.703125 53.328125 
Q 32.71875 53.328125 36.796875 51 
Q 40.875 48.6875 43.5 43.796875 
L 43.5 51.90625 
L 61.078125 51.90625 
L 61.078125 46.6875 
z
M 43.5 28.515625 
Q 43.5 37.84375 39.90625 42.765625 
Q 36.328125 47.703125 29.5 47.703125 
Q 22.5625 47.703125 19.015625 42.234375 
Q 15.484375 36.765625 15.484375 25.984375 
Q 15.484375 15.234375 19.015625 9.71875 
Q 22.5625 4.203125 29.5 4.203125 
Q 36.328125 4.203125 39.90625 9.109375 
Q 43.5 14.015625 43.5 23.390625 
z
" id="DejaVuSerif-71"/>
      <path d="M 4.109375 0 
L 4.109375 5.171875 
L 12.203125 5.171875 
L 12.203125 46.6875 
L 3.609375 46.6875 
L 3.609375 51.90625 
L 21.1875 51.90625 
L 21.1875 42.671875 
Q 23.6875 47.953125 27.65625 50.640625 
Q 31.640625 53.328125 36.921875 53.328125 
Q 45.515625 53.328125 49.5625 48.390625 
Q 53.609375 43.453125 53.609375 33.015625 
L 53.609375 5.171875 
L 61.625 5.171875 
L 61.625 0 
L 36.8125 0 
L 36.8125 5.171875 
L 44.578125 5.171875 
L 44.578125 30.171875 
Q 44.578125 39.703125 42.234375 43.234375 
Q 39.890625 46.78125 33.984375 46.78125 
Q 27.734375 46.78125 24.453125 42.203125 
Q 21.1875 37.640625 21.1875 28.90625 
L 21.1875 5.171875 
L 29 5.171875 
L 29 0 
z
" id="DejaVuSerif-6e"/>
      <path d="M 51.421875 15.578125 
Q 49.515625 7.28125 44.09375 2.921875 
Q 38.671875 -1.421875 30.078125 -1.421875 
Q 18.75 -1.421875 11.859375 6.078125 
Q 4.984375 13.578125 4.984375 25.984375 
Q 4.984375 38.421875 11.859375 45.875 
Q 18.75 53.328125 30.078125 53.328125 
Q 35.015625 53.328125 39.890625 52.171875 
Q 44.78125 51.03125 49.703125 48.6875 
L 49.703125 35.40625 
L 44.484375 35.40625 
Q 43.453125 42.234375 40.015625 45.359375 
Q 36.578125 48.484375 30.171875 48.484375 
Q 22.90625 48.484375 19.1875 42.84375 
Q 15.484375 37.203125 15.484375 25.984375 
Q 15.484375 14.75 19.171875 9.078125 
Q 22.859375 3.421875 30.171875 3.421875 
Q 35.984375 3.421875 39.453125 6.4375 
Q 42.921875 9.46875 44.1875 15.578125 
z
" id="DejaVuSerif-63"/>
      <path d="M 21.578125 -9.515625 
L 25 -0.875 
L 5.609375 46.6875 
L -0.296875 46.6875 
L -0.296875 51.90625 
L 23.578125 51.90625 
L 23.578125 46.6875 
L 15.28125 46.6875 
L 29.890625 10.984375 
L 44.484375 46.6875 
L 36.71875 46.6875 
L 36.71875 51.90625 
L 56.203125 51.90625 
L 56.203125 46.6875 
L 50.390625 46.6875 
L 26.609375 -11.71875 
Q 24.171875 -17.78125 21.1875 -20 
Q 18.21875 -22.21875 12.796875 -22.21875 
Q 10.5 -22.21875 8.078125 -21.828125 
Q 5.671875 -21.4375 3.21875 -20.703125 
L 3.21875 -10.796875 
L 7.8125 -10.796875 
Q 8.109375 -14.109375 9.5 -15.546875 
Q 10.890625 -17 13.8125 -17 
Q 16.5 -17 18.140625 -15.5 
Q 19.78125 -14.015625 21.578125 -9.515625 
z
" id="DejaVuSerif-79"/>
     </defs>
     <g style="fill:#d2d2d2;" transform="translate(75.889375 181.142344)rotate(-90)scale(0.14 -0.14)">
      <use xlink:href="#DejaVuSerif-46"/>
      <use x="69.384766" xlink:href="#DejaVuSerif-72"/>
      <use x="117.1875" xlink:href="#DejaVuSerif-65"/>
      <use x="176.367188" xlink:href="#DejaVuSerif-71"/>
      <use x="240.380859" xlink:href="#DejaVuSerif-75"/>
      <use x="304.785156" xlink:href="#DejaVuSerif-65"/>
      <use x="363.964844" xlink:href="#DejaVuSerif-6e"/>
      <use x="428.369141" xlink:href="#DejaVuSerif-63"/>
      <use x="484.375" xlink:href="#DejaVuSerif-79"/>
     </g>
    </g>
   </g>
   <g id="patch_3">
    <path d="M 90 252 
L 90 34.56 
" style="fill:none;stroke:#d2d2d2;stroke-linecap:square;stroke-linejoin:miter;stroke-width:0.8;"/>
   </g>
   <g id="patch_4">
    <path d="M 90 252 
L 343.636364 252 
" style="fill:none;stroke:#d2d2d2;stroke-linecap:square;stroke-linejoin:miter;stroke-width:0.8;"/>
   </g>
   <g id="text_9">
    <!-- chilled -->
    <defs>
     <path d="M 4.109375 0 
L 4.109375 5.171875 
L 12.203125 5.171875 
L 12.203125 70.796875 
L 3.609375 70.796875 
L 3.609375 75.984375 
L 21.1875 75.984375 
L 21.1875 42.671875 
Q 23.6875 47.953125 27.65625 50.640625 
Q 31.640625 53.328125 36.921875 53.328125 
Q 45.515625 53.328125 49.5625 48.390625 
Q 53.609375 43.453125 53.609375 33.015625 
L 53.609375 5.171875 
L 61.625 5.171875 
L 61.625 0 
L 36.8125 0 
L 36.8125 5.171875 
L 44.578125 5.171875 
L 44.578125 30.171875 
Q 44.578125 39.703125 42.25 43.1875 
Q 39.9375 46.6875 33.984375 46.6875 
Q 27.734375 46.6875 24.453125 42.140625 
Q 21.1875 37.59375 21.1875 28.90625 
L 21.1875 5.171875 
L 29 5.171875 
L 29 0 
z
" id="DejaVuSerif-68"/>
     <path d="M 9.71875 68.015625 
Q 9.71875 70.265625 11.34375 71.921875 
Q 12.984375 73.578125 15.28125 73.578125 
Q 17.53125 73.578125 19.15625 71.921875 
Q 20.796875 70.265625 20.796875 68.015625 
Q 20.796875 65.71875 19.1875 64.109375 
Q 17.578125 62.5 15.28125 62.5 
Q 12.984375 62.5 11.34375 64.109375 
Q 9.71875 65.71875 9.71875 68.015625 
z
M 21.1875 5.171875 
L 29.6875 5.171875 
L 29.6875 0 
L 3.609375 0 
L 3.609375 5.171875 
L 12.203125 5.171875 
L 12.203125 46.6875 
L 3.609375 46.6875 
L 3.609375 51.90625 
L 21.1875 51.90625 
z
" id="DejaVuSerif-69"/>
     <path d="M 20.515625 5.171875 
L 29 5.171875 
L 29 0 
L 2.875 0 
L 2.875 5.171875 
L 11.53125 5.171875 
L 11.53125 70.796875 
L 2.875 70.796875 
L 2.875 75.984375 
L 20.515625 75.984375 
z
" id="DejaVuSerif-6c"/>
     <path d="M 52.484375 5.171875 
L 61.078125 5.171875 
L 61.078125 0 
L 43.5 0 
L 43.5 8.109375 
Q 40.875 3.21875 36.796875 0.890625 
Q 32.71875 -1.421875 26.703125 -1.421875 
Q 17.140625 -1.421875 11.0625 6.171875 
Q 4.984375 13.765625 4.984375 25.984375 
Q 4.984375 38.1875 11.03125 45.75 
Q 17.09375 53.328125 26.703125 53.328125 
Q 32.71875 53.328125 36.796875 51 
Q 40.875 48.6875 43.5 43.796875 
L 43.5 70.796875 
L 35.015625 70.796875 
L 35.015625 75.984375 
L 52.484375 75.984375 
z
M 43.5 23.390625 
L 43.5 28.515625 
Q 43.5 37.84375 39.90625 42.765625 
Q 36.328125 47.703125 29.5 47.703125 
Q 22.5625 47.703125 19.015625 42.234375 
Q 15.484375 36.765625 15.484375 25.984375 
Q 15.484375 15.234375 19.015625 9.71875 
Q 22.5625 4.203125 29.5 4.203125 
Q 36.328125 4.203125 39.90625 9.109375 
Q 43.5 14.015625 43.5 23.390625 
z
" id="DejaVuSerif-64"/>
    </defs>
    <g style="fill:#d2d2d2;" transform="translate(176.070682 28.56)scale(0.24 -0.24)">
     <use xlink:href="#DejaVuSerif-63"/>
     <use x="56.005859" xlink:href="#DejaVuSerif-68"/>
     <use x="120.410156" xlink:href="#DejaVuSerif-69"/>
     <use x="152.392578" xlink:href="#DejaVuSerif-6c"/>
     <use x="184.375" xlink:href="#DejaVuSerif-6c"/>
     <use x="216.357422" xlink:href="#DejaVuSerif-65"/>
     <use x="275.537109" xlink:href="#DejaVuSerif-64"/>
    </g>
   </g>
  </g>
  <g id="axes_2">
   <g id="patch_5">
    <path d="M 394.363636 252 
L 648 252 
L 648 34.56 
L 394.363636 34.56 
z
" style="fill:none;"/>
   </g>
   <g id="PathCollection_2">
    <defs>
     <path d="M 0 3.162278 
C 0.838646 3.162278 1.643056 2.82908 2.236068 2.236068 
C 2.82908 1.643056 3.162278 0.838646 3.162278 0 
C 3.162278 -0.838646 2.82908 -1.643056 2.236068 -2.236068 
C 1.643056 -2.82908 0.838646 -3.162278 0 -3.162278 
C -0.838646 -3.162278 -1.643056 -2.82908 -2.236068 -2.236068 
C -2.82908 -1.643056 -3.162278 -0.838646 -3.162278 0 
C -3.162278 0.838646 -2.82908 1.643056 -2.236068 2.236068 
C -1.643056 2.82908 -0.838646 3.162278 0 3.162278 
z
" id="m6540cbf766" style="stroke:#88c9c1;"/>
    </defs>
    <g clip-path="url(#pd7e9c297ef)">
     <use style="fill:#88c9c1;stroke:#88c9c1;" x="451.41303" xlink:href="#m6540cbf766" y="241.128"/>
     <use style="fill:#88c9c1;stroke:#88c9c1;" x="451.41303" xlink:href="#m6540cbf766" y="219.384"/>
     <use style="fill:#88c9c1;stroke:#88c9c1;" x="457.97" xlink:href="#m6540cbf766" y="241.128"/>
     <use style="fill:#88c9c1;stroke:#88c9c1;" x="464.52697" xlink:href="#m6540cbf766" y="241.128"/>
     <use style="fill:#88c9c1;stroke:#88c9c1;" x="477.640909" xlink:href="#m6540cbf766" y="241.128"/>
     <use style="fill:#88c9c1;stroke:#88c9c1;" x="477.640909" xlink:href="#m6540cbf766" y="219.384"/>
     <use style="fill:#88c9c1;stroke:#88c9c1;" x="490.754848" xlink:href="#m6540cbf766" y="241.128"/>
     <use style="fill:#88c9c1;stroke:#88c9c1;" x="490.754848" xlink:href="#m6540cbf766" y="219.384"/>
     <use style="fill:#88c9c1;stroke:#88c9c1;" x="503.868788" xlink:href="#m6540cbf766" y="241.128"/>
     <use style="fill:#88c9c1;stroke:#88c9c1;" x="523.539697" xlink:href="#m6540cbf766" y="241.128"/>
     <use style="fill:#88c9c1;stroke:#88c9c1;" x="530.096667" xlink:href="#m6540cbf766" y="241.128"/>
     <use style="fill:#88c9c1;stroke:#88c9c1;" x="530.096667" xlink:href="#m6540cbf766" y="219.384"/>
     <use style="fill:#88c9c1;stroke:#88c9c1;" x="536.653636" xlink:href="#m6540cbf766" y="241.128"/>
     <use style="fill:#88c9c1;stroke:#88c9c1;" x="536.653636" xlink:href="#m6540cbf766" y="219.384"/>
     <use style="fill:#88c9c1;stroke:#88c9c1;" x="536.653636" xlink:href="#m6540cbf766" y="197.64"/>
     <use style="fill:#88c9c1;stroke:#88c9c1;" x="536.653636" xlink:href="#m6540cbf766" y="175.896"/>
     <use style="fill:#88c9c1;stroke:#88c9c1;" x="549.767576" xlink:href="#m6540cbf766" y="241.128"/>
     <use style="fill:#88c9c1;stroke:#88c9c1;" x="549.767576" xlink:href="#m6540cbf766" y="219.384"/>
     <use style="fill:#88c9c1;stroke:#88c9c1;" x="549.767576" xlink:href="#m6540cbf766" y="197.64"/>
     <use style="fill:#88c9c1;stroke:#88c9c1;" x="549.767576" xlink:href="#m6540cbf766" y="175.896"/>
     <use style="fill:#88c9c1;stroke:#88c9c1;" x="549.767576" xlink:href="#m6540cbf766" y="154.152"/>
     <use style="fill:#88c9c1;stroke:#88c9c1;" x="556.324545" xlink:href="#m6540cbf766" y="241.128"/>
     <use style="fill:#88c9c1;stroke:#88c9c1;" x="556.324545" xlink:href="#m6540cbf766" y="219.384"/>
     <use style="fill:#88c9c1;stroke:#88c9c1;" x="556.324545" xlink:href="#m6540cbf766" y="197.64"/>
     <use style="fill:#88c9c1;stroke:#88c9c1;" x="556.324545" xlink:href="#m6540cbf766" y="175.896"/>
     <use style="fill:#88c9c1;stroke:#88c9c1;" x="556.324545" xlink:href="#m6540cbf766" y="154.152"/>
     <use style="fill:#88c9c1;stroke:#88c9c1;" x="569.438485" xlink:href="#m6540cbf766" y="241.128"/>
     <use style="fill:#88c9c1;stroke:#88c9c1;" x="575.995455" xlink:href="#m6540cbf766" y="241.128"/>
     <use style="fill:#88c9c1;stroke:#88c9c1;" x="575.995455" xlink:href="#m6540cbf766" y="219.384"/>
     <use style="fill:#88c9c1;stroke:#88c9c1;" x="582.552424" xlink:href="#m6540cbf766" y="241.128"/>
     <use style="fill:#88c9c1;stroke:#88c9c1;" x="582.552424" xlink:href="#m6540cbf766" y="219.384"/>
     <use style="fill:#88c9c1;stroke:#88c9c1;" x="595.666364" xlink:href="#m6540cbf766" y="241.128"/>
     <use style="fill:#88c9c1;stroke:#88c9c1;" x="595.666364" xlink:href="#m6540cbf766" y="219.384"/>
     <use style="fill:#88c9c1;stroke:#88c9c1;" x="595.666364" xlink:href="#m6540cbf766" y="197.64"/>
     <use style="fill:#88c9c1;stroke:#88c9c1;" x="602.223333" xlink:href="#m6540cbf766" y="241.128"/>
     <use style="fill:#88c9c1;stroke:#88c9c1;" x="602.223333" xlink:href="#m6540cbf766" y="219.384"/>
     <use style="fill:#88c9c1;stroke:#88c9c1;" x="608.780303" xlink:href="#m6540cbf766" y="241.128"/>
     <use style="fill:#88c9c1;stroke:#88c9c1;" x="608.780303" xlink:href="#m6540cbf766" y="219.384"/>
     <use style="fill:#88c9c1;stroke:#88c9c1;" x="608.780303" xlink:href="#m6540cbf766" y="197.64"/>
     <use style="fill:#88c9c1;stroke:#88c9c1;" x="615.337273" xlink:href="#m6540cbf766" y="241.128"/>
     <use style="fill:#88c9c1;stroke:#88c9c1;" x="621.894242" xlink:href="#m6540cbf766" y="241.128"/>
     <use style="fill:#88c9c1;stroke:#88c9c1;" x="621.894242" xlink:href="#m6540cbf766" y="219.384"/>
    </g>
   </g>
   <g id="matplotlib.axis_3">
    <g id="xtick_7">
     <g id="line2d_13">
      <g>
       <use style="fill:#d2d2d2;stroke:#d2d2d2;stroke-width:0.8;" x="394.363636" xlink:href="#ma4dcdc7111" y="252"/>
      </g>
     </g>
     <g id="text_10">
      <!-- 0 -->
      <g style="fill:#d2d2d2;" transform="translate(391.182386 266.598437)scale(0.1 -0.1)">
       <use xlink:href="#DejaVuSerif-30"/>
      </g>
     </g>
    </g>
    <g id="xtick_8">
     <g id="line2d_14">
      <g>
       <use style="fill:#d2d2d2;stroke:#d2d2d2;stroke-width:0.8;" x="445.090909" xlink:href="#ma4dcdc7111" y="252"/>
      </g>
     </g>
     <g id="text_11">
      <!-- 10 -->
      <g style="fill:#d2d2d2;" transform="translate(438.728409 266.598437)scale(0.1 -0.1)">
       <use xlink:href="#DejaVuSerif-31"/>
       <use x="63.623047" xlink:href="#DejaVuSerif-30"/>
      </g>
     </g>
    </g>
    <g id="xtick_9">
     <g id="line2d_15">
      <g>
       <use style="fill:#d2d2d2;stroke:#d2d2d2;stroke-width:0.8;" x="495.818182" xlink:href="#ma4dcdc7111" y="252"/>
      </g>
     </g>
     <g id="text_12">
      <!-- 20 -->
      <g style="fill:#d2d2d2;" transform="translate(489.455682 266.598437)scale(0.1 -0.1)">
       <use xlink:href="#DejaVuSerif-32"/>
       <use x="63.623047" xlink:href="#DejaVuSerif-30"/>
      </g>
     </g>
    </g>
    <g id="xtick_10">
     <g id="line2d_16">
      <g>
       <use style="fill:#d2d2d2;stroke:#d2d2d2;stroke-width:0.8;" x="546.545455" xlink:href="#ma4dcdc7111" y="252"/>
      </g>
     </g>
     <g id="text_13">
      <!-- 30 -->
      <g style="fill:#d2d2d2;" transform="translate(540.182955 266.598437)scale(0.1 -0.1)">
       <use xlink:href="#DejaVuSerif-33"/>
       <use x="63.623047" xlink:href="#DejaVuSerif-30"/>
      </g>
     </g>
    </g>
    <g id="xtick_11">
     <g id="line2d_17">
      <g>
       <use style="fill:#d2d2d2;stroke:#d2d2d2;stroke-width:0.8;" x="597.272727" xlink:href="#ma4dcdc7111" y="252"/>
      </g>
     </g>
     <g id="text_14">
      <!-- 40 -->
      <g style="fill:#d2d2d2;" transform="translate(590.910227 266.598437)scale(0.1 -0.1)">
       <use xlink:href="#DejaVuSerif-34"/>
       <use x="63.623047" xlink:href="#DejaVuSerif-30"/>
      </g>
     </g>
    </g>
    <g id="xtick_12">
     <g id="line2d_18">
      <g>
       <use style="fill:#d2d2d2;stroke:#d2d2d2;stroke-width:0.8;" x="648" xlink:href="#ma4dcdc7111" y="252"/>
      </g>
     </g>
     <g id="text_15">
      <!-- 50 -->
      <g style="fill:#d2d2d2;" transform="translate(641.6375 266.598437)scale(0.1 -0.1)">
       <use xlink:href="#DejaVuSerif-35"/>
       <use x="63.623047" xlink:href="#DejaVuSerif-30"/>
      </g>
     </g>
    </g>
    <g id="text_16">
     <!-- $CO_2$ uptake -->
     <g style="fill:#d2d2d2;" transform="translate(463.581818 287.878125)scale(0.2 -0.2)">
      <use transform="translate(0 0.015625)" xlink:href="#DejaVuSans-Oblique-43"/>
      <use transform="translate(69.824219 0.015625)" xlink:href="#DejaVuSans-Oblique-4f"/>
      <use transform="translate(148.535156 -16.390625)scale(0.7)" xlink:href="#DejaVuSans-32"/>
      <use transform="translate(195.805664 0.015625)" xlink:href="#DejaVuSerif-20"/>
      <use transform="translate(227.592773 0.015625)" xlink:href="#DejaVuSerif-75"/>
      <use transform="translate(291.99707 0.015625)" xlink:href="#DejaVuSerif-70"/>
      <use transform="translate(356.010742 0.015625)" xlink:href="#DejaVuSerif-74"/>
      <use transform="translate(396.196289 0.015625)" xlink:href="#DejaVuSerif-61"/>
      <use transform="translate(455.81543 0.015625)" xlink:href="#DejaVuSerif-6b"/>
      <use transform="translate(516.411133 0.015625)" xlink:href="#DejaVuSerif-65"/>
     </g>
    </g>
   </g>
   <g id="matplotlib.axis_4">
    <g id="ytick_7">
     <g id="line2d_19">
      <g>
       <use style="fill:#d2d2d2;stroke:#d2d2d2;stroke-width:0.8;" x="394.363636" xlink:href="#mebd69567f3" y="252"/>
      </g>
     </g>
    </g>
    <g id="ytick_8">
     <g id="line2d_20">
      <g>
       <use style="fill:#d2d2d2;stroke:#d2d2d2;stroke-width:0.8;" x="394.363636" xlink:href="#mebd69567f3" y="208.512"/>
      </g>
     </g>
    </g>
    <g id="ytick_9">
     <g id="line2d_21">
      <g>
       <use style="fill:#d2d2d2;stroke:#d2d2d2;stroke-width:0.8;" x="394.363636" xlink:href="#mebd69567f3" y="165.024"/>
      </g>
     </g>
    </g>
    <g id="ytick_10">
     <g id="line2d_22">
      <g>
       <use style="fill:#d2d2d2;stroke:#d2d2d2;stroke-width:0.8;" x="394.363636" xlink:href="#mebd69567f3" y="121.536"/>
      </g>
     </g>
    </g>
    <g id="ytick_11">
     <g id="line2d_23">
      <g>
       <use style="fill:#d2d2d2;stroke:#d2d2d2;stroke-width:0.8;" x="394.363636" xlink:href="#mebd69567f3" y="78.048"/>
      </g>
     </g>
    </g>
    <g id="ytick_12">
     <g id="line2d_24">
      <g>
       <use style="fill:#d2d2d2;stroke:#d2d2d2;stroke-width:0.8;" x="394.363636" xlink:href="#mebd69567f3" y="34.56"/>
      </g>
     </g>
    </g>
    <g id="text_17">
     <!-- Frequency -->
     <g style="fill:#d2d2d2;" transform="translate(380.253011 181.142344)rotate(-90)scale(0.14 -0.14)">
      <use xlink:href="#DejaVuSerif-46"/>
      <use x="69.384766" xlink:href="#DejaVuSerif-72"/>
      <use x="117.1875" xlink:href="#DejaVuSerif-65"/>
      <use x="176.367188" xlink:href="#DejaVuSerif-71"/>
      <use x="240.380859" xlink:href="#DejaVuSerif-75"/>
      <use x="304.785156" xlink:href="#DejaVuSerif-65"/>
      <use x="363.964844" xlink:href="#DejaVuSerif-6e"/>
      <use x="428.369141" xlink:href="#DejaVuSerif-63"/>
      <use x="484.375" xlink:href="#DejaVuSerif-79"/>
     </g>
    </g>
   </g>
   <g id="patch_6">
    <path d="M 394.363636 252 
L 394.363636 34.56 
" style="fill:none;stroke:#d2d2d2;stroke-linecap:square;stroke-linejoin:miter;stroke-width:0.8;"/>
   </g>
   <g id="patch_7">
    <path d="M 394.363636 252 
L 648 252 
" style="fill:none;stroke:#d2d2d2;stroke-linecap:square;stroke-linejoin:miter;stroke-width:0.8;"/>
   </g>
   <g id="text_18">
    <!-- nonchilled -->
    <defs>
     <path d="M 30.078125 3.421875 
Q 37.3125 3.421875 40.984375 9.125 
Q 44.671875 14.84375 44.671875 25.984375 
Q 44.671875 37.109375 40.984375 42.796875 
Q 37.3125 48.484375 30.078125 48.484375 
Q 22.859375 48.484375 19.171875 42.796875 
Q 15.484375 37.109375 15.484375 25.984375 
Q 15.484375 14.84375 19.1875 9.125 
Q 22.90625 3.421875 30.078125 3.421875 
z
M 30.078125 -1.421875 
Q 18.75 -1.421875 11.859375 6.078125 
Q 4.984375 13.578125 4.984375 25.984375 
Q 4.984375 38.375 11.84375 45.84375 
Q 18.703125 53.328125 30.078125 53.328125 
Q 41.453125 53.328125 48.3125 45.84375 
Q 55.171875 38.375 55.171875 25.984375 
Q 55.171875 13.578125 48.3125 6.078125 
Q 41.453125 -1.421875 30.078125 -1.421875 
z
" id="DejaVuSerif-6f"/>
    </defs>
    <g style="fill:#d2d2d2;" transform="translate(457.752443 28.56)scale(0.24 -0.24)">
     <use xlink:href="#DejaVuSerif-6e"/>
     <use x="64.404297" xlink:href="#DejaVuSerif-6f"/>
     <use x="124.609375" xlink:href="#DejaVuSerif-6e"/>
     <use x="189.013672" xlink:href="#DejaVuSerif-63"/>
     <use x="245.019531" xlink:href="#DejaVuSerif-68"/>
     <use x="309.423828" xlink:href="#DejaVuSerif-69"/>
     <use x="341.40625" xlink:href="#DejaVuSerif-6c"/>
     <use x="373.388672" xlink:href="#DejaVuSerif-6c"/>
     <use x="405.371094" xlink:href="#DejaVuSerif-65"/>
     <use x="464.550781" xlink:href="#DejaVuSerif-64"/>
    </g>
   </g>
  </g>
  <g id="axes_3">
   <g id="line2d_25">
    <path clip-path="url(#pb13b8e1324)" d="M 90 251.992411 
L 93.049736 250.305797 
L 95.591182 248.657634 
L 98.132629 246.769574 
L 100.674075 244.625404 
L 103.215522 242.211437 
L 105.756968 239.517237 
L 108.298415 236.536301 
L 111.348151 232.578332 
L 114.397887 228.211455 
L 117.447623 223.453791 
L 121.005648 217.450415 
L 125.071962 210.079025 
L 129.646566 201.302277 
L 144.386956 172.57302 
L 147.944981 166.299349 
L 150.994717 161.34651 
L 153.536163 157.578917 
L 156.07761 154.182941 
L 158.619056 151.196049 
L 160.652214 149.123323 
L 162.685371 147.348052 
L 164.718528 145.882545 
L 166.751685 144.736776 
L 168.276553 144.091894 
L 169.801421 143.633365 
L 171.326289 143.362566 
L 172.851157 143.28 
L 174.376025 143.385272 
L 175.900893 143.677064 
L 177.425761 144.153118 
L 179.458918 145.068783 
L 181.492075 146.29587 
L 183.525232 147.82097 
L 185.55839 149.627595 
L 187.591547 151.696246 
L 190.132993 154.61614 
L 192.67444 157.860532 
L 195.724176 162.103372 
L 199.79049 168.178521 
L 211.481144 185.950167 
L 214.53088 190.090904 
L 217.072326 193.235661 
L 219.613773 196.050323 
L 222.15522 198.494165 
L 224.188377 200.160322 
L 226.221534 201.55611 
L 228.254691 202.673148 
L 230.287848 203.507025 
L 232.321006 204.057329 
L 234.354163 204.327621 
L 236.38732 204.325355 
L 238.420477 204.061764 
L 240.453635 203.551691 
L 242.486792 202.813385 
L 244.519949 201.868263 
L 247.061396 200.433303 
L 250.111131 198.410221 
L 253.669156 195.763819 
L 263.326653 188.386801 
L 266.376389 186.417397 
L 268.917836 185.044008 
L 270.950993 184.159445 
L 272.98415 183.491646 
L 275.017307 183.06155 
L 277.050465 182.88648 
L 279.083622 182.979838 
L 281.116779 183.350864 
L 283.149936 184.00449 
L 285.183093 184.941257 
L 287.216251 186.15734 
L 289.249408 187.64465 
L 291.282565 189.391034 
L 293.824012 191.913728 
L 296.365458 194.777552 
L 299.415194 198.599942 
L 302.973219 203.478303 
L 307.547823 210.177783 
L 318.221898 225.966776 
L 322.288213 231.480086 
L 325.846238 235.900492 
L 328.895974 239.343518 
L 331.94571 242.445422 
L 334.995445 245.198898 
L 338.045181 247.60788 
L 341.094917 249.685646 
L 343.636364 251.178766 
L 343.636364 251.178766 
" style="fill:none;stroke:#f5d76e;stroke-linecap:square;stroke-width:2;"/>
   </g>
   <g id="patch_8">
    <path d="M 186.332727 82.047287 
Q 188.132727 166.023937 189.932727 250.000587 
L 189.932727 250.000587 
Q 191.732727 166.023937 193.532727 82.047287 
z
" style="fill:#e04b4b;stroke:#e04b4b;stroke-linecap:round;"/>
   </g>
   <g id="text_19">
    <!-- $\tilde{x}$ = 19.7 -->
    <defs>
     <path d="M -25.328125 66.890625 
L -28.109375 69.578125 
Q -29.171875 70.5625 -29.984375 71.015625 
Q -30.796875 71.484375 -31.421875 71.484375 
Q -33.28125 71.484375 -34.15625 69.703125 
Q -35.03125 67.921875 -35.140625 63.921875 
L -41.234375 63.921875 
Q -41.140625 70.515625 -38.640625 74.09375 
Q -36.15625 77.6875 -31.71875 77.6875 
Q -29.859375 77.6875 -28.296875 77 
Q -26.734375 76.3125 -24.9375 74.703125 
L -22.140625 72.015625 
Q -21.078125 71.046875 -20.265625 70.578125 
Q -19.46875 70.125 -18.828125 70.125 
Q -16.96875 70.125 -16.09375 71.90625 
Q -15.21875 73.6875 -15.109375 77.6875 
L -9.015625 77.6875 
Q -9.109375 71.09375 -11.59375 67.5 
Q -14.09375 63.921875 -18.53125 63.921875 
Q -20.390625 63.921875 -21.953125 64.59375 
Q -23.515625 65.28125 -25.328125 66.890625 
z
" id="DejaVuSans-303"/>
     <path d="M 60.015625 54.6875 
L 34.90625 27.875 
L 50.296875 0 
L 39.984375 0 
L 28.421875 21.6875 
L 8.296875 0 
L -2.59375 0 
L 24.3125 28.8125 
L 10.015625 54.6875 
L 20.3125 54.6875 
L 30.8125 34.90625 
L 49.125 54.6875 
z
" id="DejaVuSans-Oblique-78"/>
     <path d="M 10.59375 45.21875 
L 73.1875 45.21875 
L 73.1875 37.40625 
L 10.59375 37.40625 
z
M 10.59375 25.296875 
L 73.1875 25.296875 
L 73.1875 17.484375 
L 10.59375 17.484375 
z
" id="DejaVuSerif-3d"/>
     <path d="M 46.78125 32.671875 
Q 43.5 29 39.25 27.1875 
Q 35.015625 25.390625 29.6875 25.390625 
Q 18.84375 25.390625 12.5625 31.9375 
Q 6.296875 38.484375 6.296875 49.8125 
Q 6.296875 60.890625 13.109375 67.546875 
Q 19.921875 74.21875 31.296875 74.21875 
Q 43.65625 74.21875 50.265625 65.015625 
Q 56.890625 55.8125 56.890625 38.71875 
Q 56.890625 19.578125 49.015625 9.078125 
Q 41.15625 -1.421875 26.90625 -1.421875 
Q 23.046875 -1.421875 18.796875 -0.6875 
Q 14.546875 0.046875 10.109375 1.515625 
L 10.109375 13.625 
L 15.578125 13.625 
Q 16.21875 8.6875 19.390625 6.046875 
Q 22.5625 3.421875 27.875 3.421875 
Q 37.359375 3.421875 41.984375 10.5625 
Q 46.625 17.71875 46.78125 32.671875 
z
M 30.90625 69.390625 
Q 23.96875 69.390625 20.28125 64.328125 
Q 16.609375 59.28125 16.609375 49.8125 
Q 16.609375 40.328125 20.28125 35.25 
Q 23.96875 30.171875 30.90625 30.171875 
Q 37.84375 30.171875 41.53125 35.078125 
Q 45.21875 39.984375 45.21875 49.21875 
Q 45.21875 58.9375 41.5 64.15625 
Q 37.796875 69.390625 30.90625 69.390625 
z
" id="DejaVuSerif-39"/>
     <path d="M 9.421875 5.078125 
Q 9.421875 7.8125 11.28125 9.71875 
Q 13.140625 11.625 15.921875 11.625 
Q 18.609375 11.625 20.5 9.71875 
Q 22.40625 7.8125 22.40625 5.078125 
Q 22.40625 2.390625 20.5 0.484375 
Q 18.609375 -1.421875 15.921875 -1.421875 
Q 13.140625 -1.421875 11.28125 0.453125 
Q 9.421875 2.34375 9.421875 5.078125 
z
" id="DejaVuSerif-2e"/>
     <path d="M 56.390625 67.921875 
L 27.875 0 
L 20.609375 0 
L 47.796875 64.890625 
L 14.109375 64.890625 
L 14.109375 55.90625 
L 8.40625 55.90625 
L 8.40625 72.90625 
L 56.390625 72.90625 
z
" id="DejaVuSerif-37"/>
    </defs>
    <g style="fill:#e04b4b;" transform="translate(138.332727 73.05675)scale(0.24 -0.24)">
     <use transform="translate(62.029297 3.3125)" xlink:href="#DejaVuSans-303"/>
     <use transform="translate(0 0.046875)" xlink:href="#DejaVuSans-Oblique-78"/>
     <use transform="translate(59.179688 0.046875)" xlink:href="#DejaVuSerif-20"/>
     <use transform="translate(90.966797 0.046875)" xlink:href="#DejaVuSerif-3d"/>
     <use transform="translate(174.755859 0.046875)" xlink:href="#DejaVuSerif-20"/>
     <use transform="translate(206.542969 0.046875)" xlink:href="#DejaVuSerif-31"/>
     <use transform="translate(270.166016 0.046875)" xlink:href="#DejaVuSerif-39"/>
     <use transform="translate(333.789062 0.046875)" xlink:href="#DejaVuSerif-2e"/>
     <use transform="translate(365.576172 0.046875)" xlink:href="#DejaVuSerif-37"/>
    </g>
   </g>
  </g>
  <g id="axes_4">
   <g id="line2d_26">
    <path clip-path="url(#pd7e9c297ef)" d="M 394.363636 251.992411 
L 398.93824 251.402377 
L 403.004555 250.655911 
L 406.56258 249.790466 
L 410.120605 248.693155 
L 413.67863 247.336468 
L 416.728366 245.952254 
L 420.286391 244.071711 
L 423.844416 241.910779 
L 427.402441 239.491849 
L 431.468756 236.463898 
L 437.059938 232.001011 
L 446.209146 224.681464 
L 450.27546 221.730119 
L 453.833485 219.421181 
L 456.883221 217.685707 
L 459.932957 216.19552 
L 462.982693 214.956888 
L 466.032428 213.963037 
L 469.082164 213.194253 
L 472.640189 212.538316 
L 477.214793 211.964396 
L 486.87229 210.863935 
L 489.922026 210.261854 
L 492.463472 209.5681 
L 495.004919 208.653199 
L 497.546365 207.476702 
L 500.087812 206.003034 
L 502.120969 204.590453 
L 504.154126 202.958075 
L 506.695573 200.598405 
L 509.237019 197.881438 
L 511.778466 194.816104 
L 514.319913 191.42446 
L 517.369648 186.974585 
L 520.927674 181.370408 
L 527.027145 171.241232 
L 532.110038 162.978506 
L 535.159774 158.400709 
L 537.701221 154.925241 
L 540.242667 151.830955 
L 542.275824 149.667655 
L 544.308982 147.805707 
L 546.342139 146.260228 
L 548.375296 145.039429 
L 550.408453 144.144516 
L 551.933321 143.684036 
L 553.458189 143.399006 
L 555.491346 143.28 
L 557.524504 143.440048 
L 559.557661 143.853851 
L 561.590818 144.492549 
L 564.132265 145.559428 
L 566.673711 146.86549 
L 570.231736 148.977834 
L 575.314629 152.299082 
L 595.137912 165.697222 
L 598.695937 168.524785 
L 601.745673 171.237208 
L 604.795409 174.273039 
L 607.845145 177.668257 
L 610.894881 181.437118 
L 613.944617 185.569873 
L 617.502642 190.804973 
L 621.568956 197.218608 
L 628.685006 208.985132 
L 634.276189 218.064015 
L 638.342503 224.232897 
L 641.392239 228.504188 
L 644.441975 232.413913 
L 647.491711 235.929519 
L 648 236.47581 
L 648 236.47581 
" style="fill:none;stroke:#4682b4;stroke-linecap:square;stroke-width:2;"/>
   </g>
   <g id="patch_9">
    <path d="M 549.54 82.047287 
Q 551.34 166.023937 553.14 250.000587 
L 553.14 250.000587 
Q 554.94 166.023937 556.74 82.047287 
z
" style="fill:#e04b4b;stroke:#e04b4b;stroke-linecap:round;"/>
   </g>
   <g id="text_20">
    <!-- $\tilde{x}$ = 31.3 -->
    <g style="fill:#e04b4b;" transform="translate(501.54 73.05675)scale(0.24 -0.24)">
     <use transform="translate(62.029297 3.3125)" xlink:href="#DejaVuSans-303"/>
     <use transform="translate(0 0.046875)" xlink:href="#DejaVuSans-Oblique-78"/>
     <use transform="translate(59.179688 0.046875)" xlink:href="#DejaVuSerif-20"/>
     <use transform="translate(90.966797 0.046875)" xlink:href="#DejaVuSerif-3d"/>
     <use transform="translate(174.755859 0.046875)" xlink:href="#DejaVuSerif-20"/>
     <use transform="translate(206.542969 0.046875)" xlink:href="#DejaVuSerif-33"/>
     <use transform="translate(270.166016 0.046875)" xlink:href="#DejaVuSerif-31"/>
     <use transform="translate(333.789062 0.046875)" xlink:href="#DejaVuSerif-2e"/>
     <use transform="translate(365.576172 0.046875)" xlink:href="#DejaVuSerif-33"/>
    </g>
   </g>
  </g>
 </g>
 <defs>
  <clipPath id="pb13b8e1324">
   <rect height="217.44" width="253.636364" x="90" y="34.56"/>
  </clipPath>
  <clipPath id="pd7e9c297ef">
   <rect height="217.44" width="253.636364" x="394.363636" y="34.56"/>
  </clipPath>
 </defs>
</svg>
