<?xml version="1.0" encoding="utf-8" standalone="no"?>
<!DOCTYPE svg PUBLIC "-//W3C//DTD SVG 1.1//EN"
  "http://www.w3.org/Graphics/SVG/1.1/DTD/svg11.dtd">
<!-- Created with matplotlib (http://matplotlib.org/) -->
<svg height="360pt" version="1.1" viewBox="0 0 288 360" width="288pt" xmlns="http://www.w3.org/2000/svg" xmlns:xlink="http://www.w3.org/1999/xlink">
 <defs>
  <style type="text/css">
*{stroke-linecap:butt;stroke-linejoin:round;}
  </style>
 </defs>
 <g id="figure_1">
  <g id="patch_1">
   <path d="M 0 360 
L 288 360 
L 288 0 
L 0 0 
z
" style="fill:none;"/>
  </g>
  <g id="axes_1">
   <g id="patch_2">
    <path d="M 38.175 325.2 
L 249.825 325.2 
L 249.825 30.8 
L 38.175 30.8 
z
" style="fill:none;"/>
   </g>
   <g id="matplotlib.axis_1">
    <g id="xtick_1">
     <g id="line2d_1">
      <defs>
       <path d="M 0 0 
L 0 3.5 
" id="m3ac4a4c9de" style="stroke:#d2d2d2;stroke-width:0.8;"/>
      </defs>
      <g>
       <use style="fill:#d2d2d2;stroke:#d2d2d2;stroke-width:0.8;" x="91.0875" xlink:href="#m3ac4a4c9de" y="325.2"/>
      </g>
     </g>
     <g id="text_1">
      <!-- chilled -->
      <defs>
       <path d="M 51.421875 15.578125 
Q 49.515625 7.28125 44.09375 2.921875 
Q 38.671875 -1.421875 30.078125 -1.421875 
Q 18.75 -1.421875 11.859375 6.078125 
Q 4.984375 13.578125 4.984375 25.984375 
Q 4.984375 38.421875 11.859375 45.875 
Q 18.75 53.328125 30.078125 53.328125 
Q 35.015625 53.328125 39.890625 52.171875 
Q 44.78125 51.03125 49.703125 48.6875 
L 49.703125 35.40625 
L 44.484375 35.40625 
Q 43.453125 42.234375 40.015625 45.359375 
Q 36.578125 48.484375 30.171875 48.484375 
Q 22.90625 48.484375 19.1875 42.84375 
Q 15.484375 37.203125 15.484375 25.984375 
Q 15.484375 14.75 19.171875 9.078125 
Q 22.859375 3.421875 30.171875 3.421875 
Q 35.984375 3.421875 39.453125 6.4375 
Q 42.921875 9.46875 44.1875 15.578125 
z
" id="DejaVuSerif-63"/>
       <path d="M 4.109375 0 
L 4.109375 5.171875 
L 12.203125 5.171875 
L 12.203125 70.796875 
L 3.609375 70.796875 
L 3.609375 75.984375 
L 21.1875 75.984375 
L 21.1875 42.671875 
Q 23.6875 47.953125 27.65625 50.640625 
Q 31.640625 53.328125 36.921875 53.328125 
Q 45.515625 53.328125 49.5625 48.390625 
Q 53.609375 43.453125 53.609375 33.015625 
L 53.609375 5.171875 
L 61.625 5.171875 
L 61.625 0 
L 36.8125 0 
L 36.8125 5.171875 
L 44.578125 5.171875 
L 44.578125 30.171875 
Q 44.578125 39.703125 42.25 43.1875 
Q 39.9375 46.6875 33.984375 46.6875 
Q 27.734375 46.6875 24.453125 42.140625 
Q 21.1875 37.59375 21.1875 28.90625 
L 21.1875 5.171875 
L 29 5.171875 
L 29 0 
z
" id="DejaVuSerif-68"/>
       <path d="M 9.71875 68.015625 
Q 9.71875 70.265625 11.34375 71.921875 
Q 12.984375 73.578125 15.28125 73.578125 
Q 17.53125 73.578125 19.15625 71.921875 
Q 20.796875 70.265625 20.796875 68.015625 
Q 20.796875 65.71875 19.1875 64.109375 
Q 17.578125 62.5 15.28125 62.5 
Q 12.984375 62.5 11.34375 64.109375 
Q 9.71875 65.71875 9.71875 68.015625 
z
M 21.1875 5.171875 
L 29.6875 5.171875 
L 29.6875 0 
L 3.609375 0 
L 3.609375 5.171875 
L 12.203125 5.171875 
L 12.203125 46.6875 
L 3.609375 46.6875 
L 3.609375 51.90625 
L 21.1875 51.90625 
z
" id="DejaVuSerif-69"/>
       <path d="M 20.515625 5.171875 
L 29 5.171875 
L 29 0 
L 2.875 0 
L 2.875 5.171875 
L 11.53125 5.171875 
L 11.53125 70.796875 
L 2.875 70.796875 
L 2.875 75.984375 
L 20.515625 75.984375 
z
" id="DejaVuSerif-6c"/>
       <path d="M 54.203125 25 
L 15.484375 25 
L 15.484375 24.609375 
Q 15.484375 14.109375 19.4375 8.765625 
Q 23.390625 3.421875 31.109375 3.421875 
Q 37.015625 3.421875 40.796875 6.515625 
Q 44.578125 9.625 46.09375 15.71875 
L 53.328125 15.71875 
Q 51.171875 7.171875 45.375 2.875 
Q 39.59375 -1.421875 30.171875 -1.421875 
Q 18.796875 -1.421875 11.890625 6.078125 
Q 4.984375 13.578125 4.984375 25.984375 
Q 4.984375 38.28125 11.765625 45.796875 
Q 18.5625 53.328125 29.59375 53.328125 
Q 41.359375 53.328125 47.65625 46.0625 
Q 53.953125 38.8125 54.203125 25 
z
M 43.609375 30.171875 
Q 43.3125 39.265625 39.765625 43.875 
Q 36.234375 48.484375 29.59375 48.484375 
Q 23.390625 48.484375 19.828125 43.84375 
Q 16.265625 39.203125 15.484375 30.171875 
z
" id="DejaVuSerif-65"/>
       <path d="M 52.484375 5.171875 
L 61.078125 5.171875 
L 61.078125 0 
L 43.5 0 
L 43.5 8.109375 
Q 40.875 3.21875 36.796875 0.890625 
Q 32.71875 -1.421875 26.703125 -1.421875 
Q 17.140625 -1.421875 11.0625 6.171875 
Q 4.984375 13.765625 4.984375 25.984375 
Q 4.984375 38.1875 11.03125 45.75 
Q 17.09375 53.328125 26.703125 53.328125 
Q 32.71875 53.328125 36.796875 51 
Q 40.875 48.6875 43.5 43.796875 
L 43.5 70.796875 
L 35.015625 70.796875 
L 35.015625 75.984375 
L 52.484375 75.984375 
z
M 43.5 23.390625 
L 43.5 28.515625 
Q 43.5 37.84375 39.90625 42.765625 
Q 36.328125 47.703125 29.5 47.703125 
Q 22.5625 47.703125 19.015625 42.234375 
Q 15.484375 36.765625 15.484375 25.984375 
Q 15.484375 15.234375 19.015625 9.71875 
Q 22.5625 4.203125 29.5 4.203125 
Q 36.328125 4.203125 39.90625 9.109375 
Q 43.5 14.015625 43.5 23.390625 
z
" id="DejaVuSerif-64"/>
      </defs>
      <g style="fill:#d2d2d2;" transform="translate(63.9225 344.3575)scale(0.16 -0.16)">
       <use xlink:href="#DejaVuSerif-63"/>
       <use x="56.005859" xlink:href="#DejaVuSerif-68"/>
       <use x="120.410156" xlink:href="#DejaVuSerif-69"/>
       <use x="152.392578" xlink:href="#DejaVuSerif-6c"/>
       <use x="184.375" xlink:href="#DejaVuSerif-6c"/>
       <use x="216.357422" xlink:href="#DejaVuSerif-65"/>
       <use x="275.537109" xlink:href="#DejaVuSerif-64"/>
      </g>
     </g>
    </g>
    <g id="xtick_2">
     <g id="line2d_2">
      <g>
       <use style="fill:#d2d2d2;stroke:#d2d2d2;stroke-width:0.8;" x="196.9125" xlink:href="#m3ac4a4c9de" y="325.2"/>
      </g>
     </g>
     <g id="text_2">
      <!-- nonchilled -->
      <defs>
       <path d="M 4.109375 0 
L 4.109375 5.171875 
L 12.203125 5.171875 
L 12.203125 46.6875 
L 3.609375 46.6875 
L 3.609375 51.90625 
L 21.1875 51.90625 
L 21.1875 42.671875 
Q 23.6875 47.953125 27.65625 50.640625 
Q 31.640625 53.328125 36.921875 53.328125 
Q 45.515625 53.328125 49.5625 48.390625 
Q 53.609375 43.453125 53.609375 33.015625 
L 53.609375 5.171875 
L 61.625 5.171875 
L 61.625 0 
L 36.8125 0 
L 36.8125 5.171875 
L 44.578125 5.171875 
L 44.578125 30.171875 
Q 44.578125 39.703125 42.234375 43.234375 
Q 39.890625 46.78125 33.984375 46.78125 
Q 27.734375 46.78125 24.453125 42.203125 
Q 21.1875 37.640625 21.1875 28.90625 
L 21.1875 5.171875 
L 29 5.171875 
L 29 0 
z
" id="DejaVuSerif-6e"/>
       <path d="M 30.078125 3.421875 
Q 37.3125 3.421875 40.984375 9.125 
Q 44.671875 14.84375 44.671875 25.984375 
Q 44.671875 37.109375 40.984375 42.796875 
Q 37.3125 48.484375 30.078125 48.484375 
Q 22.859375 48.484375 19.171875 42.796875 
Q 15.484375 37.109375 15.484375 25.984375 
Q 15.484375 14.84375 19.1875 9.125 
Q 22.90625 3.421875 30.078125 3.421875 
z
M 30.078125 -1.421875 
Q 18.75 -1.421875 11.859375 6.078125 
Q 4.984375 13.578125 4.984375 25.984375 
Q 4.984375 38.375 11.84375 45.84375 
Q 18.703125 53.328125 30.078125 53.328125 
Q 41.453125 53.328125 48.3125 45.84375 
Q 55.171875 38.375 55.171875 25.984375 
Q 55.171875 13.578125 48.3125 6.078125 
Q 41.453125 -1.421875 30.078125 -1.421875 
z
" id="DejaVuSerif-6f"/>
      </defs>
      <g style="fill:#d2d2d2;" transform="translate(154.62625 344.3575)scale(0.16 -0.16)">
       <use xlink:href="#DejaVuSerif-6e"/>
       <use x="64.404297" xlink:href="#DejaVuSerif-6f"/>
       <use x="124.609375" xlink:href="#DejaVuSerif-6e"/>
       <use x="189.013672" xlink:href="#DejaVuSerif-63"/>
       <use x="245.019531" xlink:href="#DejaVuSerif-68"/>
       <use x="309.423828" xlink:href="#DejaVuSerif-69"/>
       <use x="341.40625" xlink:href="#DejaVuSerif-6c"/>
       <use x="373.388672" xlink:href="#DejaVuSerif-6c"/>
       <use x="405.371094" xlink:href="#DejaVuSerif-65"/>
       <use x="464.550781" xlink:href="#DejaVuSerif-64"/>
      </g>
     </g>
    </g>
   </g>
   <g id="matplotlib.axis_2">
    <g id="ytick_1">
     <g id="line2d_3">
      <defs>
       <path d="M 0 0 
L -3.5 0 
" id="m25ed093996" style="stroke:#d2d2d2;stroke-width:0.8;"/>
      </defs>
      <g>
       <use style="fill:#d2d2d2;stroke:#d2d2d2;stroke-width:0.8;" x="38.175" xlink:href="#m25ed093996" y="325.2"/>
      </g>
     </g>
     <g id="text_3">
      <!-- 0 -->
      <defs>
       <path d="M 31.78125 3.421875 
Q 39.265625 3.421875 42.96875 11.625 
Q 46.6875 19.828125 46.6875 36.375 
Q 46.6875 52.984375 42.96875 61.1875 
Q 39.265625 69.390625 31.78125 69.390625 
Q 24.3125 69.390625 20.59375 61.1875 
Q 16.890625 52.984375 16.890625 36.375 
Q 16.890625 19.828125 20.59375 11.625 
Q 24.3125 3.421875 31.78125 3.421875 
z
M 31.78125 -1.421875 
Q 19.921875 -1.421875 13.25 8.53125 
Q 6.59375 18.5 6.59375 36.375 
Q 6.59375 54.296875 13.25 64.25 
Q 19.921875 74.21875 31.78125 74.21875 
Q 43.703125 74.21875 50.34375 64.25 
Q 56.984375 54.296875 56.984375 36.375 
Q 56.984375 18.5 50.34375 8.53125 
Q 43.703125 -1.421875 31.78125 -1.421875 
z
" id="DejaVuSerif-30"/>
      </defs>
      <g style="fill:#d2d2d2;" transform="translate(20.995 331.27875)scale(0.16 -0.16)">
       <use xlink:href="#DejaVuSerif-30"/>
      </g>
     </g>
    </g>
    <g id="ytick_2">
     <g id="line2d_4">
      <g>
       <use style="fill:#d2d2d2;stroke:#d2d2d2;stroke-width:0.8;" x="38.175" xlink:href="#m25ed093996" y="266.32"/>
      </g>
     </g>
     <g id="text_4">
      <!-- 10 -->
      <defs>
       <path d="M 14.203125 0 
L 14.203125 5.171875 
L 26.90625 5.171875 
L 26.90625 65.828125 
L 12.203125 56.296875 
L 12.203125 62.703125 
L 29.984375 74.21875 
L 36.71875 74.21875 
L 36.71875 5.171875 
L 49.421875 5.171875 
L 49.421875 0 
z
" id="DejaVuSerif-31"/>
      </defs>
      <g style="fill:#d2d2d2;" transform="translate(10.815 272.39875)scale(0.16 -0.16)">
       <use xlink:href="#DejaVuSerif-31"/>
       <use x="63.623047" xlink:href="#DejaVuSerif-30"/>
      </g>
     </g>
    </g>
    <g id="ytick_3">
     <g id="line2d_5">
      <g>
       <use style="fill:#d2d2d2;stroke:#d2d2d2;stroke-width:0.8;" x="38.175" xlink:href="#m25ed093996" y="207.44"/>
      </g>
     </g>
     <g id="text_5">
      <!-- 20 -->
      <defs>
       <path d="M 12.796875 55.515625 
L 7.328125 55.515625 
L 7.328125 68.5 
Q 12.546875 71.296875 17.84375 72.75 
Q 23.140625 74.21875 28.21875 74.21875 
Q 39.59375 74.21875 46.1875 68.703125 
Q 52.78125 63.1875 52.78125 53.71875 
Q 52.78125 43.015625 37.84375 28.125 
Q 36.671875 27 36.078125 26.421875 
L 17.671875 8.015625 
L 48.09375 8.015625 
L 48.09375 17 
L 53.8125 17 
L 53.8125 0 
L 6.78125 0 
L 6.78125 5.328125 
L 28.90625 27.390625 
Q 36.234375 34.71875 39.359375 40.84375 
Q 42.484375 46.96875 42.484375 53.71875 
Q 42.484375 61.078125 38.640625 65.234375 
Q 34.8125 69.390625 28.078125 69.390625 
Q 21.09375 69.390625 17.28125 65.921875 
Q 13.484375 62.453125 12.796875 55.515625 
z
" id="DejaVuSerif-32"/>
      </defs>
      <g style="fill:#d2d2d2;" transform="translate(10.815 213.51875)scale(0.16 -0.16)">
       <use xlink:href="#DejaVuSerif-32"/>
       <use x="63.623047" xlink:href="#DejaVuSerif-30"/>
      </g>
     </g>
    </g>
    <g id="ytick_4">
     <g id="line2d_6">
      <g>
       <use style="fill:#d2d2d2;stroke:#d2d2d2;stroke-width:0.8;" x="38.175" xlink:href="#m25ed093996" y="148.56"/>
      </g>
     </g>
     <g id="text_6">
      <!-- 30 -->
      <defs>
       <path d="M 9.71875 69.828125 
Q 15.4375 71.96875 20.671875 73.09375 
Q 25.921875 74.21875 30.515625 74.21875 
Q 41.21875 74.21875 47.21875 69.59375 
Q 53.21875 64.984375 53.21875 56.78125 
Q 53.21875 50.203125 49.0625 45.78125 
Q 44.921875 41.359375 37.3125 39.796875 
Q 46.296875 38.53125 51.25 33.28125 
Q 56.203125 28.03125 56.203125 19.671875 
Q 56.203125 9.46875 49.34375 4.015625 
Q 42.484375 -1.421875 29.59375 -1.421875 
Q 23.875 -1.421875 18.421875 -0.1875 
Q 12.984375 1.03125 7.625 3.515625 
L 7.625 17.671875 
L 13.09375 17.671875 
Q 13.578125 10.640625 17.828125 7.03125 
Q 22.078125 3.421875 29.78125 3.421875 
Q 37.25 3.421875 41.578125 7.734375 
Q 45.90625 12.0625 45.90625 19.578125 
Q 45.90625 28.171875 41.453125 32.59375 
Q 37.015625 37.015625 28.421875 37.015625 
L 23.78125 37.015625 
L 23.78125 42 
L 26.21875 42 
Q 34.765625 42 39.03125 45.53125 
Q 43.3125 49.078125 43.3125 56.203125 
Q 43.3125 62.59375 39.796875 65.984375 
Q 36.28125 69.390625 29.6875 69.390625 
Q 23.09375 69.390625 19.453125 66.265625 
Q 15.828125 63.140625 15.1875 56.984375 
L 9.71875 56.984375 
z
" id="DejaVuSerif-33"/>
      </defs>
      <g style="fill:#d2d2d2;" transform="translate(10.815 154.63875)scale(0.16 -0.16)">
       <use xlink:href="#DejaVuSerif-33"/>
       <use x="63.623047" xlink:href="#DejaVuSerif-30"/>
      </g>
     </g>
    </g>
    <g id="ytick_5">
     <g id="line2d_7">
      <g>
       <use style="fill:#d2d2d2;stroke:#d2d2d2;stroke-width:0.8;" x="38.175" xlink:href="#m25ed093996" y="89.68"/>
      </g>
     </g>
     <g id="text_7">
      <!-- 40 -->
      <defs>
       <path d="M 34.90625 24.703125 
L 34.90625 63.484375 
L 10.015625 24.703125 
z
M 56.390625 0 
L 23.1875 0 
L 23.1875 5.171875 
L 34.90625 5.171875 
L 34.90625 19.484375 
L 3.078125 19.484375 
L 3.078125 24.8125 
L 35.015625 74.21875 
L 44.671875 74.21875 
L 44.671875 24.703125 
L 58.59375 24.703125 
L 58.59375 19.484375 
L 44.671875 19.484375 
L 44.671875 5.171875 
L 56.390625 5.171875 
z
" id="DejaVuSerif-34"/>
      </defs>
      <g style="fill:#d2d2d2;" transform="translate(10.815 95.75875)scale(0.16 -0.16)">
       <use xlink:href="#DejaVuSerif-34"/>
       <use x="63.623047" xlink:href="#DejaVuSerif-30"/>
      </g>
     </g>
    </g>
    <g id="ytick_6">
     <g id="line2d_8">
      <g>
       <use style="fill:#d2d2d2;stroke:#d2d2d2;stroke-width:0.8;" x="38.175" xlink:href="#m25ed093996" y="30.8"/>
      </g>
     </g>
     <g id="text_8">
      <!-- 50 -->
      <defs>
       <path d="M 50.296875 72.90625 
L 50.296875 64.890625 
L 16.890625 64.890625 
L 16.890625 44 
Q 19.4375 45.75 22.828125 46.625 
Q 26.21875 47.515625 30.421875 47.515625 
Q 42.234375 47.515625 49.0625 40.96875 
Q 55.90625 34.421875 55.90625 23.09375 
Q 55.90625 11.53125 49 5.046875 
Q 42.09375 -1.421875 29.59375 -1.421875 
Q 24.5625 -1.421875 19.28125 -0.1875 
Q 14.015625 1.03125 8.5 3.515625 
L 8.5 17.671875 
L 14.015625 17.671875 
Q 14.453125 10.75 18.421875 7.078125 
Q 22.40625 3.421875 29.59375 3.421875 
Q 37.3125 3.421875 41.453125 8.5 
Q 45.609375 13.578125 45.609375 23.09375 
Q 45.609375 32.5625 41.484375 37.609375 
Q 37.359375 42.671875 29.59375 42.671875 
Q 25.203125 42.671875 21.84375 41.109375 
Q 18.5 39.546875 15.921875 36.28125 
L 11.71875 36.28125 
L 11.71875 72.90625 
z
" id="DejaVuSerif-35"/>
      </defs>
      <g style="fill:#d2d2d2;" transform="translate(10.815 36.87875)scale(0.16 -0.16)">
       <use xlink:href="#DejaVuSerif-35"/>
       <use x="63.623047" xlink:href="#DejaVuSerif-30"/>
      </g>
     </g>
    </g>
   </g>
   <g id="patch_3">
    <path d="M 38.175 325.2 
L 38.175 30.8 
" style="fill:none;stroke:#d2d2d2;stroke-linecap:square;stroke-linejoin:miter;stroke-width:0.8;"/>
   </g>
   <g id="patch_4">
    <path d="M 38.175 325.2 
L 249.825 325.2 
" style="fill:none;stroke:#d2d2d2;stroke-linecap:square;stroke-linejoin:miter;stroke-width:0.8;"/>
   </g>
  </g>
  <g id="axes_2">
   <g id="line2d_9">
    <path clip-path="url(#p5925d74435)" d="M 91.0875 239.6768 
L 91.0875 279.8624 
" style="fill:none;stroke:#d2d2d2;stroke-linecap:square;stroke-width:2;"/>
   </g>
   <g id="line2d_10">
    <path clip-path="url(#p5925d74435)" d="M 91.0875 119.7088 
L 91.0875 75.5488 
" style="fill:none;stroke:#d2d2d2;stroke-linecap:square;stroke-width:2;"/>
   </g>
   <g id="line2d_11">
    <path clip-path="url(#p5925d74435)" d="M 75.21375 279.8624 
L 106.96125 279.8624 
" style="fill:none;stroke:#d2d2d2;stroke-linecap:square;stroke-width:2;"/>
   </g>
   <g id="line2d_12">
    <path clip-path="url(#p5925d74435)" d="M 75.21375 75.5488 
L 106.96125 75.5488 
" style="fill:none;stroke:#d2d2d2;stroke-linecap:square;stroke-width:2;"/>
   </g>
   <g id="line2d_13"/>
   <g id="line2d_14">
    <path clip-path="url(#p5925d74435)" d="M 196.9125 169.3152 
L 196.9125 262.7872 
" style="fill:none;stroke:#d2d2d2;stroke-linecap:square;stroke-width:2;"/>
   </g>
   <g id="line2d_15">
    <path clip-path="url(#p5925d74435)" d="M 196.9125 97.3344 
L 196.9125 57.296 
" style="fill:none;stroke:#d2d2d2;stroke-linecap:square;stroke-width:2;"/>
   </g>
   <g id="line2d_16">
    <path clip-path="url(#p5925d74435)" d="M 181.03875 262.7872 
L 212.78625 262.7872 
" style="fill:none;stroke:#d2d2d2;stroke-linecap:square;stroke-width:2;"/>
   </g>
   <g id="line2d_17">
    <path clip-path="url(#p5925d74435)" d="M 181.03875 57.296 
L 212.78625 57.296 
" style="fill:none;stroke:#d2d2d2;stroke-linecap:square;stroke-width:2;"/>
   </g>
   <g id="line2d_18"/>
   <g id="patch_5">
    <path clip-path="url(#p5925d74435)" d="M 59.34 239.6768 
L 122.835 239.6768 
L 122.835 119.7088 
L 59.34 119.7088 
L 59.34 239.6768 
z
" style="fill:#f5d76e;stroke:#d2d2d2;stroke-linejoin:miter;stroke-width:2;"/>
   </g>
   <g id="patch_6">
    <path clip-path="url(#p5925d74435)" d="M 165.165 169.3152 
L 228.66 169.3152 
L 228.66 97.3344 
L 165.165 97.3344 
L 165.165 169.3152 
z
" style="fill:#88c9c1;stroke:#d2d2d2;stroke-linejoin:miter;stroke-width:2;"/>
   </g>
   <g id="line2d_19">
    <path clip-path="url(#p5925d74435)" d="M 59.34 209.2064 
L 122.835 209.2064 
" style="fill:none;stroke:#e04b4b;stroke-linecap:square;stroke-width:2;"/>
   </g>
   <g id="line2d_20">
    <path clip-path="url(#p5925d74435)" d="M 165.165 140.9056 
L 228.66 140.9056 
" style="fill:none;stroke:#e04b4b;stroke-linecap:square;stroke-width:2;"/>
   </g>
   <g id="text_9">
    <!-- Carbon Dioxide Uptake -->
    <defs>
     <path d="M 70.515625 19.28125 
Q 67.28125 9.078125 59.6875 3.828125 
Q 52.09375 -1.421875 40.484375 -1.421875 
Q 33.34375 -1.421875 27.234375 1.015625 
Q 21.140625 3.46875 16.40625 8.203125 
Q 10.9375 13.671875 8.265625 20.625 
Q 5.609375 27.59375 5.609375 36.375 
Q 5.609375 53.375 15.421875 63.796875 
Q 25.25 74.21875 41.3125 74.21875 
Q 47.265625 74.21875 54 72.65625 
Q 60.75 71.09375 68.5 67.921875 
L 68.5 51.125 
L 62.984375 51.125 
Q 61.1875 60.296875 55.734375 64.640625 
Q 50.296875 69 40.484375 69 
Q 28.8125 69 22.796875 60.71875 
Q 16.796875 52.4375 16.796875 36.375 
Q 16.796875 20.359375 22.796875 12.078125 
Q 28.8125 3.8125 40.484375 3.8125 
Q 48.640625 3.8125 53.90625 7.6875 
Q 59.1875 11.578125 61.53125 19.28125 
z
" id="DejaVuSerif-43"/>
     <path d="M 39.796875 16.3125 
L 39.796875 27.296875 
L 28.21875 27.296875 
Q 21.53125 27.296875 18.25 24.40625 
Q 14.984375 21.53125 14.984375 15.578125 
Q 14.984375 10.15625 18.296875 6.984375 
Q 21.625 3.8125 27.296875 3.8125 
Q 32.90625 3.8125 36.34375 7.28125 
Q 39.796875 10.75 39.796875 16.3125 
z
M 48.78125 32.421875 
L 48.78125 5.171875 
L 56.78125 5.171875 
L 56.78125 0 
L 39.796875 0 
L 39.796875 5.609375 
Q 36.8125 2 32.90625 0.28125 
Q 29 -1.421875 23.78125 -1.421875 
Q 15.140625 -1.421875 10.0625 3.171875 
Q 4.984375 7.765625 4.984375 15.578125 
Q 4.984375 23.640625 10.796875 28.078125 
Q 16.609375 32.515625 27.203125 32.515625 
L 39.796875 32.515625 
L 39.796875 36.078125 
Q 39.796875 42 36.203125 45.234375 
Q 32.625 48.484375 26.125 48.484375 
Q 20.75 48.484375 17.578125 46.046875 
Q 14.40625 43.609375 13.625 38.8125 
L 8.984375 38.8125 
L 8.984375 49.3125 
Q 13.671875 51.3125 18.09375 52.3125 
Q 22.515625 53.328125 26.703125 53.328125 
Q 37.5 53.328125 43.140625 47.96875 
Q 48.78125 42.625 48.78125 32.421875 
z
" id="DejaVuSerif-61"/>
     <path d="M 47.796875 52 
L 47.796875 39.015625 
L 42.625 39.015625 
Q 42.390625 42.875 40.484375 44.78125 
Q 38.578125 46.6875 34.90625 46.6875 
Q 28.265625 46.6875 24.71875 42.09375 
Q 21.1875 37.5 21.1875 28.90625 
L 21.1875 5.171875 
L 31.59375 5.171875 
L 31.59375 0 
L 4.109375 0 
L 4.109375 5.171875 
L 12.203125 5.171875 
L 12.203125 46.78125 
L 3.609375 46.78125 
L 3.609375 51.90625 
L 21.1875 51.90625 
L 21.1875 42.671875 
Q 23.828125 48.09375 27.96875 50.703125 
Q 32.125 53.328125 38.09375 53.328125 
Q 40.28125 53.328125 42.703125 52.984375 
Q 45.125 52.640625 47.796875 52 
z
" id="DejaVuSerif-72"/>
     <path d="M 11.53125 5.171875 
L 11.53125 70.796875 
L 2.875 70.796875 
L 2.875 75.984375 
L 20.515625 75.984375 
L 20.515625 43.796875 
Q 23.140625 48.6875 27.21875 51 
Q 31.296875 53.328125 37.3125 53.328125 
Q 46.875 53.328125 52.921875 45.75 
Q 58.984375 38.1875 58.984375 25.984375 
Q 58.984375 13.765625 52.921875 6.171875 
Q 46.875 -1.421875 37.3125 -1.421875 
Q 31.296875 -1.421875 27.21875 0.890625 
Q 23.140625 3.21875 20.515625 8.109375 
L 20.515625 0 
L 2.875 0 
L 2.875 5.171875 
z
M 20.515625 23.390625 
Q 20.515625 14.015625 24.09375 9.109375 
Q 27.6875 4.203125 34.515625 4.203125 
Q 41.40625 4.203125 44.9375 9.71875 
Q 48.484375 15.234375 48.484375 25.984375 
Q 48.484375 36.765625 44.9375 42.234375 
Q 41.40625 47.703125 34.515625 47.703125 
Q 27.6875 47.703125 24.09375 42.765625 
Q 20.515625 37.84375 20.515625 28.515625 
z
" id="DejaVuSerif-62"/>
     <path id="DejaVuSerif-20"/>
     <path d="M 24.703125 5.171875 
L 33.796875 5.171875 
Q 48 5.171875 55.59375 13.28125 
Q 63.1875 21.390625 63.1875 36.53125 
Q 63.1875 51.65625 55.609375 59.65625 
Q 48.046875 67.671875 33.796875 67.671875 
L 24.703125 67.671875 
z
M 5.515625 0 
L 5.515625 5.171875 
L 14.796875 5.171875 
L 14.796875 67.671875 
L 5.515625 67.671875 
L 5.515625 72.90625 
L 34.515625 72.90625 
Q 53.375 72.90625 63.890625 63.28125 
Q 74.421875 53.65625 74.421875 36.53125 
Q 74.421875 19.34375 63.875 9.671875 
Q 53.328125 0 34.515625 0 
z
" id="DejaVuSerif-44"/>
     <path d="M 29.109375 31.6875 
L 39.984375 46.6875 
L 33.015625 46.6875 
L 33.015625 51.90625 
L 52.984375 51.90625 
L 52.984375 46.6875 
L 46.09375 46.6875 
L 32.171875 27.484375 
L 48.390625 5.171875 
L 55.171875 5.171875 
L 55.171875 0 
L 31.203125 0 
L 31.203125 5.171875 
L 37.796875 5.171875 
L 26.515625 20.703125 
L 15.1875 5.171875 
L 21.921875 5.171875 
L 21.921875 0 
L 2.203125 0 
L 2.203125 5.171875 
L 9.078125 5.171875 
L 23.390625 24.90625 
L 7.625 46.6875 
L 1.21875 46.6875 
L 1.21875 51.90625 
L 24.421875 51.90625 
L 24.421875 46.6875 
L 18.21875 46.6875 
z
" id="DejaVuSerif-78"/>
     <path d="M 14.015625 67.671875 
L 4.6875 67.671875 
L 4.6875 72.90625 
L 33.203125 72.90625 
L 33.203125 67.671875 
L 23.875 67.671875 
L 23.875 29.984375 
Q 23.875 16.015625 28.4375 10.5 
Q 33.015625 4.984375 44.1875 4.984375 
Q 55.375 4.984375 59.9375 10.5 
Q 64.5 16.015625 64.5 29.984375 
L 64.5 67.671875 
L 55.171875 67.671875 
L 55.171875 72.90625 
L 79.78125 72.90625 
L 79.78125 67.671875 
L 70.515625 67.671875 
L 70.515625 29 
Q 70.515625 12.359375 64.109375 5.46875 
Q 57.71875 -1.421875 42.390625 -1.421875 
Q 27.046875 -1.421875 20.53125 5.515625 
Q 14.015625 12.453125 14.015625 29 
z
" id="DejaVuSerif-55"/>
     <path d="M 20.515625 28.515625 
L 20.515625 23.390625 
Q 20.515625 14.015625 24.09375 9.109375 
Q 27.6875 4.203125 34.515625 4.203125 
Q 41.40625 4.203125 44.9375 9.71875 
Q 48.484375 15.234375 48.484375 25.984375 
Q 48.484375 36.765625 44.9375 42.234375 
Q 41.40625 47.703125 34.515625 47.703125 
Q 27.6875 47.703125 24.09375 42.765625 
Q 20.515625 37.84375 20.515625 28.515625 
z
M 11.53125 46.6875 
L 2.875 46.6875 
L 2.875 51.90625 
L 20.515625 51.90625 
L 20.515625 43.796875 
Q 23.140625 48.6875 27.21875 51 
Q 31.296875 53.328125 37.3125 53.328125 
Q 46.875 53.328125 52.921875 45.75 
Q 58.984375 38.1875 58.984375 25.984375 
Q 58.984375 13.765625 52.921875 6.171875 
Q 46.875 -1.421875 37.3125 -1.421875 
Q 31.296875 -1.421875 27.21875 0.890625 
Q 23.140625 3.21875 20.515625 8.109375 
L 20.515625 -15.578125 
L 29 -15.578125 
L 29 -20.796875 
L 2.875 -20.796875 
L 2.875 -15.578125 
L 11.53125 -15.578125 
z
" id="DejaVuSerif-70"/>
     <path d="M 10.796875 46.6875 
L 2.875 46.6875 
L 2.875 51.90625 
L 10.796875 51.90625 
L 10.796875 68.015625 
L 19.828125 68.015625 
L 19.828125 51.90625 
L 36.71875 51.90625 
L 36.71875 46.6875 
L 19.828125 46.6875 
L 19.828125 13.71875 
Q 19.828125 7.125 21.09375 5.265625 
Q 22.359375 3.421875 25.78125 3.421875 
Q 29.296875 3.421875 30.90625 5.484375 
Q 32.515625 7.5625 32.625 12.203125 
L 39.40625 12.203125 
Q 39.015625 5.125 35.546875 1.84375 
Q 32.078125 -1.421875 25 -1.421875 
Q 17.234375 -1.421875 14.015625 2.015625 
Q 10.796875 5.46875 10.796875 13.71875 
z
" id="DejaVuSerif-74"/>
     <path d="M 28.609375 0 
L 3.421875 0 
L 3.421875 5.171875 
L 11.53125 5.171875 
L 11.53125 70.796875 
L 2.875 70.796875 
L 2.875 75.984375 
L 20.515625 75.984375 
L 20.515625 26.515625 
L 42.390625 46.6875 
L 34.90625 46.6875 
L 34.90625 51.90625 
L 58.40625 51.90625 
L 58.40625 46.6875 
L 49.515625 46.6875 
L 34.078125 32.421875 
L 53.8125 5.171875 
L 61.28125 5.171875 
L 61.28125 0 
L 35.6875 0 
L 35.6875 5.171875 
L 43.109375 5.171875 
L 27.59375 26.515625 
L 20.515625 19.921875 
L 20.515625 5.171875 
L 28.609375 5.171875 
z
" id="DejaVuSerif-6b"/>
    </defs>
    <g style="fill:#d2d2d2;" transform="translate(37.084219 24.8)scale(0.18 -0.18)">
     <use xlink:href="#DejaVuSerif-43"/>
     <use x="76.513672" xlink:href="#DejaVuSerif-61"/>
     <use x="136.132812" xlink:href="#DejaVuSerif-72"/>
     <use x="183.935547" xlink:href="#DejaVuSerif-62"/>
     <use x="247.949219" xlink:href="#DejaVuSerif-6f"/>
     <use x="308.154297" xlink:href="#DejaVuSerif-6e"/>
     <use x="372.558594" xlink:href="#DejaVuSerif-20"/>
     <use x="404.345703" xlink:href="#DejaVuSerif-44"/>
     <use x="484.521484" xlink:href="#DejaVuSerif-69"/>
     <use x="516.503906" xlink:href="#DejaVuSerif-6f"/>
     <use x="576.708984" xlink:href="#DejaVuSerif-78"/>
     <use x="633.105469" xlink:href="#DejaVuSerif-69"/>
     <use x="665.087891" xlink:href="#DejaVuSerif-64"/>
     <use x="729.101562" xlink:href="#DejaVuSerif-65"/>
     <use x="788.28125" xlink:href="#DejaVuSerif-20"/>
     <use x="820.068359" xlink:href="#DejaVuSerif-55"/>
     <use x="904.345703" xlink:href="#DejaVuSerif-70"/>
     <use x="968.359375" xlink:href="#DejaVuSerif-74"/>
     <use x="1008.544922" xlink:href="#DejaVuSerif-61"/>
     <use x="1068.164062" xlink:href="#DejaVuSerif-6b"/>
     <use x="1128.759766" xlink:href="#DejaVuSerif-65"/>
    </g>
   </g>
  </g>
  <g id="axes_3">
   <g id="PathCollection_1">
    <defs>
     <path d="M 0 2.236068 
C 0.593012 2.236068 1.161816 2.000462 1.581139 1.581139 
C 2.000462 1.161816 2.236068 0.593012 2.236068 0 
C 2.236068 -0.593012 2.000462 -1.161816 1.581139 -1.581139 
C 1.161816 -2.000462 0.593012 -2.236068 0 -2.236068 
C -0.593012 -2.236068 -1.161816 -2.000462 -1.581139 -1.581139 
C -2.000462 -1.161816 -2.236068 -0.593012 -2.236068 0 
C -2.236068 0.593012 -2.000462 1.161816 -1.581139 1.581139 
C -1.161816 2.000462 -0.593012 2.236068 0 2.236068 
z
" id="m0437a53631" style="stroke:#f79a52;stroke-opacity:0.5;"/>
    </defs>
    <g clip-path="url(#p5925d74435)">
     <use style="fill:#f79a52;fill-opacity:0.5;stroke:#f79a52;stroke-opacity:0.5;" x="77.481429" xlink:href="#m0437a53631" y="276.078815"/>
     <use style="fill:#f79a52;fill-opacity:0.5;stroke:#f79a52;stroke-opacity:0.5;" x="77.481429" xlink:href="#m0437a53631" y="268.511644"/>
     <use style="fill:#f79a52;fill-opacity:0.5;stroke:#f79a52;stroke-opacity:0.5;" x="77.481429" xlink:href="#m0437a53631" y="260.944474"/>
     <use style="fill:#f79a52;fill-opacity:0.5;stroke:#f79a52;stroke-opacity:0.5;" x="93.355179" xlink:href="#m0437a53631" y="260.944474"/>
     <use style="fill:#f79a52;fill-opacity:0.5;stroke:#f79a52;stroke-opacity:0.5;" x="109.228929" xlink:href="#m0437a53631" y="260.944474"/>
     <use style="fill:#f79a52;fill-opacity:0.5;stroke:#f79a52;stroke-opacity:0.5;" x="77.481429" xlink:href="#m0437a53631" y="253.377304"/>
     <use style="fill:#f79a52;fill-opacity:0.5;stroke:#f79a52;stroke-opacity:0.5;" x="93.355179" xlink:href="#m0437a53631" y="253.377304"/>
     <use style="fill:#f79a52;fill-opacity:0.5;stroke:#f79a52;stroke-opacity:0.5;" x="77.481429" xlink:href="#m0437a53631" y="245.810133"/>
     <use style="fill:#f79a52;fill-opacity:0.5;stroke:#f79a52;stroke-opacity:0.5;" x="93.355179" xlink:href="#m0437a53631" y="245.810133"/>
     <use style="fill:#f79a52;fill-opacity:0.5;stroke:#f79a52;stroke-opacity:0.5;" x="77.481429" xlink:href="#m0437a53631" y="238.242963"/>
     <use style="fill:#f79a52;fill-opacity:0.5;stroke:#f79a52;stroke-opacity:0.5;" x="93.355179" xlink:href="#m0437a53631" y="238.242963"/>
     <use style="fill:#f79a52;fill-opacity:0.5;stroke:#f79a52;stroke-opacity:0.5;" x="109.228929" xlink:href="#m0437a53631" y="238.242963"/>
     <use style="fill:#f79a52;fill-opacity:0.5;stroke:#f79a52;stroke-opacity:0.5;" x="125.102679" xlink:href="#m0437a53631" y="238.242963"/>
     <use style="fill:#f79a52;fill-opacity:0.5;stroke:#f79a52;stroke-opacity:0.5;" x="77.481429" xlink:href="#m0437a53631" y="223.108622"/>
     <use style="fill:#f79a52;fill-opacity:0.5;stroke:#f79a52;stroke-opacity:0.5;" x="93.355179" xlink:href="#m0437a53631" y="223.108622"/>
     <use style="fill:#f79a52;fill-opacity:0.5;stroke:#f79a52;stroke-opacity:0.5;" x="109.228929" xlink:href="#m0437a53631" y="223.108622"/>
     <use style="fill:#f79a52;fill-opacity:0.5;stroke:#f79a52;stroke-opacity:0.5;" x="77.481429" xlink:href="#m0437a53631" y="215.541452"/>
     <use style="fill:#f79a52;fill-opacity:0.5;stroke:#f79a52;stroke-opacity:0.5;" x="93.355179" xlink:href="#m0437a53631" y="215.541452"/>
     <use style="fill:#f79a52;fill-opacity:0.5;stroke:#f79a52;stroke-opacity:0.5;" x="109.228929" xlink:href="#m0437a53631" y="215.541452"/>
     <use style="fill:#f79a52;fill-opacity:0.5;stroke:#f79a52;stroke-opacity:0.5;" x="125.102679" xlink:href="#m0437a53631" y="215.541452"/>
     <use style="fill:#f79a52;fill-opacity:0.5;stroke:#f79a52;stroke-opacity:0.5;" x="77.481429" xlink:href="#m0437a53631" y="207.974281"/>
     <use style="fill:#f79a52;fill-opacity:0.5;stroke:#f79a52;stroke-opacity:0.5;" x="93.355179" xlink:href="#m0437a53631" y="207.974281"/>
     <use style="fill:#f79a52;fill-opacity:0.5;stroke:#f79a52;stroke-opacity:0.5;" x="77.481429" xlink:href="#m0437a53631" y="200.407111"/>
     <use style="fill:#f79a52;fill-opacity:0.5;stroke:#f79a52;stroke-opacity:0.5;" x="77.481429" xlink:href="#m0437a53631" y="192.839941"/>
     <use style="fill:#f79a52;fill-opacity:0.5;stroke:#f79a52;stroke-opacity:0.5;" x="93.355179" xlink:href="#m0437a53631" y="192.839941"/>
     <use style="fill:#f79a52;fill-opacity:0.5;stroke:#f79a52;stroke-opacity:0.5;" x="77.481429" xlink:href="#m0437a53631" y="185.27277"/>
     <use style="fill:#f79a52;fill-opacity:0.5;stroke:#f79a52;stroke-opacity:0.5;" x="77.481429" xlink:href="#m0437a53631" y="162.571259"/>
     <use style="fill:#f79a52;fill-opacity:0.5;stroke:#f79a52;stroke-opacity:0.5;" x="77.481429" xlink:href="#m0437a53631" y="147.436919"/>
     <use style="fill:#f79a52;fill-opacity:0.5;stroke:#f79a52;stroke-opacity:0.5;" x="77.481429" xlink:href="#m0437a53631" y="132.302578"/>
     <use style="fill:#f79a52;fill-opacity:0.5;stroke:#f79a52;stroke-opacity:0.5;" x="77.481429" xlink:href="#m0437a53631" y="124.735407"/>
     <use style="fill:#f79a52;fill-opacity:0.5;stroke:#f79a52;stroke-opacity:0.5;" x="93.355179" xlink:href="#m0437a53631" y="124.735407"/>
     <use style="fill:#f79a52;fill-opacity:0.5;stroke:#f79a52;stroke-opacity:0.5;" x="77.481429" xlink:href="#m0437a53631" y="117.168237"/>
     <use style="fill:#f79a52;fill-opacity:0.5;stroke:#f79a52;stroke-opacity:0.5;" x="93.355179" xlink:href="#m0437a53631" y="117.168237"/>
     <use style="fill:#f79a52;fill-opacity:0.5;stroke:#f79a52;stroke-opacity:0.5;" x="77.481429" xlink:href="#m0437a53631" y="102.033896"/>
     <use style="fill:#f79a52;fill-opacity:0.5;stroke:#f79a52;stroke-opacity:0.5;" x="93.355179" xlink:href="#m0437a53631" y="102.033896"/>
     <use style="fill:#f79a52;fill-opacity:0.5;stroke:#f79a52;stroke-opacity:0.5;" x="77.481429" xlink:href="#m0437a53631" y="94.466726"/>
     <use style="fill:#f79a52;fill-opacity:0.5;stroke:#f79a52;stroke-opacity:0.5;" x="93.355179" xlink:href="#m0437a53631" y="94.466726"/>
     <use style="fill:#f79a52;fill-opacity:0.5;stroke:#f79a52;stroke-opacity:0.5;" x="109.228929" xlink:href="#m0437a53631" y="94.466726"/>
     <use style="fill:#f79a52;fill-opacity:0.5;stroke:#f79a52;stroke-opacity:0.5;" x="125.102679" xlink:href="#m0437a53631" y="94.466726"/>
     <use style="fill:#f79a52;fill-opacity:0.5;stroke:#f79a52;stroke-opacity:0.5;" x="140.976429" xlink:href="#m0437a53631" y="94.466726"/>
     <use style="fill:#f79a52;fill-opacity:0.5;stroke:#f79a52;stroke-opacity:0.5;" x="77.481429" xlink:href="#m0437a53631" y="79.332385"/>
     <use style="fill:#f79a52;fill-opacity:0.5;stroke:#f79a52;stroke-opacity:0.5;" x="93.355179" xlink:href="#m0437a53631" y="79.332385"/>
    </g>
   </g>
   <g id="PathCollection_2">
    <defs>
     <path d="M 0 2.236068 
C 0.593012 2.236068 1.161816 2.000462 1.581139 1.581139 
C 2.000462 1.161816 2.236068 0.593012 2.236068 0 
C 2.236068 -0.593012 2.000462 -1.161816 1.581139 -1.581139 
C 1.161816 -2.000462 0.593012 -2.236068 0 -2.236068 
C -0.593012 -2.236068 -1.161816 -2.000462 -1.581139 -1.581139 
C -2.000462 -1.161816 -2.236068 -0.593012 -2.236068 0 
C -2.236068 0.593012 -2.000462 1.161816 -1.581139 1.581139 
C -1.161816 2.000462 -0.593012 2.236068 0 2.236068 
z
" id="m5ff38edef6" style="stroke:#4682b4;stroke-opacity:0.5;"/>
    </defs>
    <g clip-path="url(#p5925d74435)">
     <use style="fill:#4682b4;fill-opacity:0.5;stroke:#4682b4;stroke-opacity:0.5;" x="181.794643" xlink:href="#m5ff38edef6" y="258.981807"/>
     <use style="fill:#4682b4;fill-opacity:0.5;stroke:#4682b4;stroke-opacity:0.5;" x="197.668393" xlink:href="#m5ff38edef6" y="258.981807"/>
     <use style="fill:#4682b4;fill-opacity:0.5;stroke:#4682b4;stroke-opacity:0.5;" x="181.794643" xlink:href="#m5ff38edef6" y="251.371022"/>
     <use style="fill:#4682b4;fill-opacity:0.5;stroke:#4682b4;stroke-opacity:0.5;" x="181.794643" xlink:href="#m5ff38edef6" y="243.760237"/>
     <use style="fill:#4682b4;fill-opacity:0.5;stroke:#4682b4;stroke-opacity:0.5;" x="181.794643" xlink:href="#m5ff38edef6" y="228.538667"/>
     <use style="fill:#4682b4;fill-opacity:0.5;stroke:#4682b4;stroke-opacity:0.5;" x="197.668393" xlink:href="#m5ff38edef6" y="228.538667"/>
     <use style="fill:#4682b4;fill-opacity:0.5;stroke:#4682b4;stroke-opacity:0.5;" x="181.794643" xlink:href="#m5ff38edef6" y="213.317096"/>
     <use style="fill:#4682b4;fill-opacity:0.5;stroke:#4682b4;stroke-opacity:0.5;" x="197.668393" xlink:href="#m5ff38edef6" y="213.317096"/>
     <use style="fill:#4682b4;fill-opacity:0.5;stroke:#4682b4;stroke-opacity:0.5;" x="181.794643" xlink:href="#m5ff38edef6" y="198.095526"/>
     <use style="fill:#4682b4;fill-opacity:0.5;stroke:#4682b4;stroke-opacity:0.5;" x="181.794643" xlink:href="#m5ff38edef6" y="175.26317"/>
     <use style="fill:#4682b4;fill-opacity:0.5;stroke:#4682b4;stroke-opacity:0.5;" x="181.794643" xlink:href="#m5ff38edef6" y="167.652385"/>
     <use style="fill:#4682b4;fill-opacity:0.5;stroke:#4682b4;stroke-opacity:0.5;" x="197.668393" xlink:href="#m5ff38edef6" y="167.652385"/>
     <use style="fill:#4682b4;fill-opacity:0.5;stroke:#4682b4;stroke-opacity:0.5;" x="181.794643" xlink:href="#m5ff38edef6" y="160.0416"/>
     <use style="fill:#4682b4;fill-opacity:0.5;stroke:#4682b4;stroke-opacity:0.5;" x="197.668393" xlink:href="#m5ff38edef6" y="160.0416"/>
     <use style="fill:#4682b4;fill-opacity:0.5;stroke:#4682b4;stroke-opacity:0.5;" x="213.542143" xlink:href="#m5ff38edef6" y="160.0416"/>
     <use style="fill:#4682b4;fill-opacity:0.5;stroke:#4682b4;stroke-opacity:0.5;" x="229.415893" xlink:href="#m5ff38edef6" y="160.0416"/>
     <use style="fill:#4682b4;fill-opacity:0.5;stroke:#4682b4;stroke-opacity:0.5;" x="181.794643" xlink:href="#m5ff38edef6" y="144.82003"/>
     <use style="fill:#4682b4;fill-opacity:0.5;stroke:#4682b4;stroke-opacity:0.5;" x="197.668393" xlink:href="#m5ff38edef6" y="144.82003"/>
     <use style="fill:#4682b4;fill-opacity:0.5;stroke:#4682b4;stroke-opacity:0.5;" x="213.542143" xlink:href="#m5ff38edef6" y="144.82003"/>
     <use style="fill:#4682b4;fill-opacity:0.5;stroke:#4682b4;stroke-opacity:0.5;" x="229.415893" xlink:href="#m5ff38edef6" y="144.82003"/>
     <use style="fill:#4682b4;fill-opacity:0.5;stroke:#4682b4;stroke-opacity:0.5;" x="245.289643" xlink:href="#m5ff38edef6" y="144.82003"/>
     <use style="fill:#4682b4;fill-opacity:0.5;stroke:#4682b4;stroke-opacity:0.5;" x="181.794643" xlink:href="#m5ff38edef6" y="137.209244"/>
     <use style="fill:#4682b4;fill-opacity:0.5;stroke:#4682b4;stroke-opacity:0.5;" x="197.668393" xlink:href="#m5ff38edef6" y="137.209244"/>
     <use style="fill:#4682b4;fill-opacity:0.5;stroke:#4682b4;stroke-opacity:0.5;" x="213.542143" xlink:href="#m5ff38edef6" y="137.209244"/>
     <use style="fill:#4682b4;fill-opacity:0.5;stroke:#4682b4;stroke-opacity:0.5;" x="229.415893" xlink:href="#m5ff38edef6" y="137.209244"/>
     <use style="fill:#4682b4;fill-opacity:0.5;stroke:#4682b4;stroke-opacity:0.5;" x="245.289643" xlink:href="#m5ff38edef6" y="137.209244"/>
     <use style="fill:#4682b4;fill-opacity:0.5;stroke:#4682b4;stroke-opacity:0.5;" x="181.794643" xlink:href="#m5ff38edef6" y="121.987674"/>
     <use style="fill:#4682b4;fill-opacity:0.5;stroke:#4682b4;stroke-opacity:0.5;" x="181.794643" xlink:href="#m5ff38edef6" y="114.376889"/>
     <use style="fill:#4682b4;fill-opacity:0.5;stroke:#4682b4;stroke-opacity:0.5;" x="197.668393" xlink:href="#m5ff38edef6" y="114.376889"/>
     <use style="fill:#4682b4;fill-opacity:0.5;stroke:#4682b4;stroke-opacity:0.5;" x="181.794643" xlink:href="#m5ff38edef6" y="106.766104"/>
     <use style="fill:#4682b4;fill-opacity:0.5;stroke:#4682b4;stroke-opacity:0.5;" x="197.668393" xlink:href="#m5ff38edef6" y="106.766104"/>
     <use style="fill:#4682b4;fill-opacity:0.5;stroke:#4682b4;stroke-opacity:0.5;" x="181.794643" xlink:href="#m5ff38edef6" y="91.544533"/>
     <use style="fill:#4682b4;fill-opacity:0.5;stroke:#4682b4;stroke-opacity:0.5;" x="197.668393" xlink:href="#m5ff38edef6" y="91.544533"/>
     <use style="fill:#4682b4;fill-opacity:0.5;stroke:#4682b4;stroke-opacity:0.5;" x="213.542143" xlink:href="#m5ff38edef6" y="91.544533"/>
     <use style="fill:#4682b4;fill-opacity:0.5;stroke:#4682b4;stroke-opacity:0.5;" x="181.794643" xlink:href="#m5ff38edef6" y="83.933748"/>
     <use style="fill:#4682b4;fill-opacity:0.5;stroke:#4682b4;stroke-opacity:0.5;" x="197.668393" xlink:href="#m5ff38edef6" y="83.933748"/>
     <use style="fill:#4682b4;fill-opacity:0.5;stroke:#4682b4;stroke-opacity:0.5;" x="181.794643" xlink:href="#m5ff38edef6" y="76.322963"/>
     <use style="fill:#4682b4;fill-opacity:0.5;stroke:#4682b4;stroke-opacity:0.5;" x="197.668393" xlink:href="#m5ff38edef6" y="76.322963"/>
     <use style="fill:#4682b4;fill-opacity:0.5;stroke:#4682b4;stroke-opacity:0.5;" x="213.542143" xlink:href="#m5ff38edef6" y="76.322963"/>
     <use style="fill:#4682b4;fill-opacity:0.5;stroke:#4682b4;stroke-opacity:0.5;" x="181.794643" xlink:href="#m5ff38edef6" y="68.712178"/>
     <use style="fill:#4682b4;fill-opacity:0.5;stroke:#4682b4;stroke-opacity:0.5;" x="181.794643" xlink:href="#m5ff38edef6" y="61.101393"/>
     <use style="fill:#4682b4;fill-opacity:0.5;stroke:#4682b4;stroke-opacity:0.5;" x="197.668393" xlink:href="#m5ff38edef6" y="61.101393"/>
    </g>
   </g>
  </g>
 </g>
 <defs>
  <clipPath id="p5925d74435">
   <rect height="294.4" width="211.65" x="38.175" y="30.8"/>
  </clipPath>
 </defs>
</svg>
