<?xml version="1.0" encoding="utf-8" standalone="no"?>
<!DOCTYPE svg PUBLIC "-//W3C//DTD SVG 1.1//EN"
  "http://www.w3.org/Graphics/SVG/1.1/DTD/svg11.dtd">
<!-- Created with matplotlib (http://matplotlib.org/) -->
<svg height="288pt" version="1.1" viewBox="0 0 720 288" width="720pt" xmlns="http://www.w3.org/2000/svg" xmlns:xlink="http://www.w3.org/1999/xlink">
 <defs>
  <style type="text/css">
*{stroke-linecap:butt;stroke-linejoin:round;}
  </style>
 </defs>
 <g id="figure_1">
  <g id="patch_1">
   <path d="M 0 288 
L 720 288 
L 720 0 
L 0 0 
z
" style="fill:none;"/>
  </g>
  <g id="axes_1">
   <g id="patch_2">
    <path d="M 90 252 
L 343.636364 252 
L 343.636364 34.56 
L 90 34.56 
z
" style="fill:none;"/>
   </g>
   <g id="matplotlib.axis_1">
    <g id="xtick_1">
     <g id="line2d_1">
      <defs>
       <path d="M 0 0 
L 0 3.5 
" id="m81ff320231" style="stroke:#d2d2d2;stroke-width:0.8;"/>
      </defs>
      <g>
       <use style="fill:#d2d2d2;stroke:#d2d2d2;stroke-width:0.8;" x="90" xlink:href="#m81ff320231" y="252"/>
      </g>
     </g>
     <g id="text_1">
      <!-- 0 -->
      <defs>
       <path d="M 31.78125 3.421875 
Q 39.265625 3.421875 42.96875 11.625 
Q 46.6875 19.828125 46.6875 36.375 
Q 46.6875 52.984375 42.96875 61.1875 
Q 39.265625 69.390625 31.78125 69.390625 
Q 24.3125 69.390625 20.59375 61.1875 
Q 16.890625 52.984375 16.890625 36.375 
Q 16.890625 19.828125 20.59375 11.625 
Q 24.3125 3.421875 31.78125 3.421875 
z
M 31.78125 -1.421875 
Q 19.921875 -1.421875 13.25 8.53125 
Q 6.59375 18.5 6.59375 36.375 
Q 6.59375 54.296875 13.25 64.25 
Q 19.921875 74.21875 31.78125 74.21875 
Q 43.703125 74.21875 50.34375 64.25 
Q 56.984375 54.296875 56.984375 36.375 
Q 56.984375 18.5 50.34375 8.53125 
Q 43.703125 -1.421875 31.78125 -1.421875 
z
" id="DejaVuSerif-30"/>
      </defs>
      <g style="fill:#d2d2d2;" transform="translate(86.81875 266.598437)scale(0.1 -0.1)">
       <use xlink:href="#DejaVuSerif-30"/>
      </g>
     </g>
    </g>
    <g id="xtick_2">
     <g id="line2d_2">
      <g>
       <use style="fill:#d2d2d2;stroke:#d2d2d2;stroke-width:0.8;" x="140.727273" xlink:href="#m81ff320231" y="252"/>
      </g>
     </g>
     <g id="text_2">
      <!-- 10 -->
      <defs>
       <path d="M 14.203125 0 
L 14.203125 5.171875 
L 26.90625 5.171875 
L 26.90625 65.828125 
L 12.203125 56.296875 
L 12.203125 62.703125 
L 29.984375 74.21875 
L 36.71875 74.21875 
L 36.71875 5.171875 
L 49.421875 5.171875 
L 49.421875 0 
z
" id="DejaVuSerif-31"/>
      </defs>
      <g style="fill:#d2d2d2;" transform="translate(134.364773 266.598437)scale(0.1 -0.1)">
       <use xlink:href="#DejaVuSerif-31"/>
       <use x="63.623047" xlink:href="#DejaVuSerif-30"/>
      </g>
     </g>
    </g>
    <g id="xtick_3">
     <g id="line2d_3">
      <g>
       <use style="fill:#d2d2d2;stroke:#d2d2d2;stroke-width:0.8;" x="191.454545" xlink:href="#m81ff320231" y="252"/>
      </g>
     </g>
     <g id="text_3">
      <!-- 20 -->
      <defs>
       <path d="M 12.796875 55.515625 
L 7.328125 55.515625 
L 7.328125 68.5 
Q 12.546875 71.296875 17.84375 72.75 
Q 23.140625 74.21875 28.21875 74.21875 
Q 39.59375 74.21875 46.1875 68.703125 
Q 52.78125 63.1875 52.78125 53.71875 
Q 52.78125 43.015625 37.84375 28.125 
Q 36.671875 27 36.078125 26.421875 
L 17.671875 8.015625 
L 48.09375 8.015625 
L 48.09375 17 
L 53.8125 17 
L 53.8125 0 
L 6.78125 0 
L 6.78125 5.328125 
L 28.90625 27.390625 
Q 36.234375 34.71875 39.359375 40.84375 
Q 42.484375 46.96875 42.484375 53.71875 
Q 42.484375 61.078125 38.640625 65.234375 
Q 34.8125 69.390625 28.078125 69.390625 
Q 21.09375 69.390625 17.28125 65.921875 
Q 13.484375 62.453125 12.796875 55.515625 
z
" id="DejaVuSerif-32"/>
      </defs>
      <g style="fill:#d2d2d2;" transform="translate(185.092045 266.598437)scale(0.1 -0.1)">
       <use xlink:href="#DejaVuSerif-32"/>
       <use x="63.623047" xlink:href="#DejaVuSerif-30"/>
      </g>
     </g>
    </g>
    <g id="xtick_4">
     <g id="line2d_4">
      <g>
       <use style="fill:#d2d2d2;stroke:#d2d2d2;stroke-width:0.8;" x="242.181818" xlink:href="#m81ff320231" y="252"/>
      </g>
     </g>
     <g id="text_4">
      <!-- 30 -->
      <defs>
       <path d="M 9.71875 69.828125 
Q 15.4375 71.96875 20.671875 73.09375 
Q 25.921875 74.21875 30.515625 74.21875 
Q 41.21875 74.21875 47.21875 69.59375 
Q 53.21875 64.984375 53.21875 56.78125 
Q 53.21875 50.203125 49.0625 45.78125 
Q 44.921875 41.359375 37.3125 39.796875 
Q 46.296875 38.53125 51.25 33.28125 
Q 56.203125 28.03125 56.203125 19.671875 
Q 56.203125 9.46875 49.34375 4.015625 
Q 42.484375 -1.421875 29.59375 -1.421875 
Q 23.875 -1.421875 18.421875 -0.1875 
Q 12.984375 1.03125 7.625 3.515625 
L 7.625 17.671875 
L 13.09375 17.671875 
Q 13.578125 10.640625 17.828125 7.03125 
Q 22.078125 3.421875 29.78125 3.421875 
Q 37.25 3.421875 41.578125 7.734375 
Q 45.90625 12.0625 45.90625 19.578125 
Q 45.90625 28.171875 41.453125 32.59375 
Q 37.015625 37.015625 28.421875 37.015625 
L 23.78125 37.015625 
L 23.78125 42 
L 26.21875 42 
Q 34.765625 42 39.03125 45.53125 
Q 43.3125 49.078125 43.3125 56.203125 
Q 43.3125 62.59375 39.796875 65.984375 
Q 36.28125 69.390625 29.6875 69.390625 
Q 23.09375 69.390625 19.453125 66.265625 
Q 15.828125 63.140625 15.1875 56.984375 
L 9.71875 56.984375 
z
" id="DejaVuSerif-33"/>
      </defs>
      <g style="fill:#d2d2d2;" transform="translate(235.819318 266.598437)scale(0.1 -0.1)">
       <use xlink:href="#DejaVuSerif-33"/>
       <use x="63.623047" xlink:href="#DejaVuSerif-30"/>
      </g>
     </g>
    </g>
    <g id="xtick_5">
     <g id="line2d_5">
      <g>
       <use style="fill:#d2d2d2;stroke:#d2d2d2;stroke-width:0.8;" x="292.909091" xlink:href="#m81ff320231" y="252"/>
      </g>
     </g>
     <g id="text_5">
      <!-- 40 -->
      <defs>
       <path d="M 34.90625 24.703125 
L 34.90625 63.484375 
L 10.015625 24.703125 
z
M 56.390625 0 
L 23.1875 0 
L 23.1875 5.171875 
L 34.90625 5.171875 
L 34.90625 19.484375 
L 3.078125 19.484375 
L 3.078125 24.8125 
L 35.015625 74.21875 
L 44.671875 74.21875 
L 44.671875 24.703125 
L 58.59375 24.703125 
L 58.59375 19.484375 
L 44.671875 19.484375 
L 44.671875 5.171875 
L 56.390625 5.171875 
z
" id="DejaVuSerif-34"/>
      </defs>
      <g style="fill:#d2d2d2;" transform="translate(286.546591 266.598437)scale(0.1 -0.1)">
       <use xlink:href="#DejaVuSerif-34"/>
       <use x="63.623047" xlink:href="#DejaVuSerif-30"/>
      </g>
     </g>
    </g>
    <g id="xtick_6">
     <g id="line2d_6">
      <g>
       <use style="fill:#d2d2d2;stroke:#d2d2d2;stroke-width:0.8;" x="343.636364" xlink:href="#m81ff320231" y="252"/>
      </g>
     </g>
     <g id="text_6">
      <!-- 50 -->
      <defs>
       <path d="M 50.296875 72.90625 
L 50.296875 64.890625 
L 16.890625 64.890625 
L 16.890625 44 
Q 19.4375 45.75 22.828125 46.625 
Q 26.21875 47.515625 30.421875 47.515625 
Q 42.234375 47.515625 49.0625 40.96875 
Q 55.90625 34.421875 55.90625 23.09375 
Q 55.90625 11.53125 49 5.046875 
Q 42.09375 -1.421875 29.59375 -1.421875 
Q 24.5625 -1.421875 19.28125 -0.1875 
Q 14.015625 1.03125 8.5 3.515625 
L 8.5 17.671875 
L 14.015625 17.671875 
Q 14.453125 10.75 18.421875 7.078125 
Q 22.40625 3.421875 29.59375 3.421875 
Q 37.3125 3.421875 41.453125 8.5 
Q 45.609375 13.578125 45.609375 23.09375 
Q 45.609375 32.5625 41.484375 37.609375 
Q 37.359375 42.671875 29.59375 42.671875 
Q 25.203125 42.671875 21.84375 41.109375 
Q 18.5 39.546875 15.921875 36.28125 
L 11.71875 36.28125 
L 11.71875 72.90625 
z
" id="DejaVuSerif-35"/>
      </defs>
      <g style="fill:#d2d2d2;" transform="translate(337.273864 266.598437)scale(0.1 -0.1)">
       <use xlink:href="#DejaVuSerif-35"/>
       <use x="63.623047" xlink:href="#DejaVuSerif-30"/>
      </g>
     </g>
    </g>
    <g id="text_7">
     <!-- Theoretical Quantiles -->
     <defs>
      <path d="M 19.09375 0 
L 19.09375 5.171875 
L 28.421875 5.171875 
L 28.421875 67.09375 
L 6.984375 67.09375 
L 6.984375 55.71875 
L 0.984375 55.71875 
L 0.984375 72.90625 
L 65.71875 72.90625 
L 65.71875 55.71875 
L 59.71875 55.71875 
L 59.71875 67.09375 
L 38.28125 67.09375 
L 38.28125 5.171875 
L 47.609375 5.171875 
L 47.609375 0 
z
" id="DejaVuSerif-54"/>
      <path d="M 4.109375 0 
L 4.109375 5.171875 
L 12.203125 5.171875 
L 12.203125 70.796875 
L 3.609375 70.796875 
L 3.609375 75.984375 
L 21.1875 75.984375 
L 21.1875 42.671875 
Q 23.6875 47.953125 27.65625 50.640625 
Q 31.640625 53.328125 36.921875 53.328125 
Q 45.515625 53.328125 49.5625 48.390625 
Q 53.609375 43.453125 53.609375 33.015625 
L 53.609375 5.171875 
L 61.625 5.171875 
L 61.625 0 
L 36.8125 0 
L 36.8125 5.171875 
L 44.578125 5.171875 
L 44.578125 30.171875 
Q 44.578125 39.703125 42.25 43.1875 
Q 39.9375 46.6875 33.984375 46.6875 
Q 27.734375 46.6875 24.453125 42.140625 
Q 21.1875 37.59375 21.1875 28.90625 
L 21.1875 5.171875 
L 29 5.171875 
L 29 0 
z
" id="DejaVuSerif-68"/>
      <path d="M 54.203125 25 
L 15.484375 25 
L 15.484375 24.609375 
Q 15.484375 14.109375 19.4375 8.765625 
Q 23.390625 3.421875 31.109375 3.421875 
Q 37.015625 3.421875 40.796875 6.515625 
Q 44.578125 9.625 46.09375 15.71875 
L 53.328125 15.71875 
Q 51.171875 7.171875 45.375 2.875 
Q 39.59375 -1.421875 30.171875 -1.421875 
Q 18.796875 -1.421875 11.890625 6.078125 
Q 4.984375 13.578125 4.984375 25.984375 
Q 4.984375 38.28125 11.765625 45.796875 
Q 18.5625 53.328125 29.59375 53.328125 
Q 41.359375 53.328125 47.65625 46.0625 
Q 53.953125 38.8125 54.203125 25 
z
M 43.609375 30.171875 
Q 43.3125 39.265625 39.765625 43.875 
Q 36.234375 48.484375 29.59375 48.484375 
Q 23.390625 48.484375 19.828125 43.84375 
Q 16.265625 39.203125 15.484375 30.171875 
z
" id="DejaVuSerif-65"/>
      <path d="M 30.078125 3.421875 
Q 37.3125 3.421875 40.984375 9.125 
Q 44.671875 14.84375 44.671875 25.984375 
Q 44.671875 37.109375 40.984375 42.796875 
Q 37.3125 48.484375 30.078125 48.484375 
Q 22.859375 48.484375 19.171875 42.796875 
Q 15.484375 37.109375 15.484375 25.984375 
Q 15.484375 14.84375 19.1875 9.125 
Q 22.90625 3.421875 30.078125 3.421875 
z
M 30.078125 -1.421875 
Q 18.75 -1.421875 11.859375 6.078125 
Q 4.984375 13.578125 4.984375 25.984375 
Q 4.984375 38.375 11.84375 45.84375 
Q 18.703125 53.328125 30.078125 53.328125 
Q 41.453125 53.328125 48.3125 45.84375 
Q 55.171875 38.375 55.171875 25.984375 
Q 55.171875 13.578125 48.3125 6.078125 
Q 41.453125 -1.421875 30.078125 -1.421875 
z
" id="DejaVuSerif-6f"/>
      <path d="M 47.796875 52 
L 47.796875 39.015625 
L 42.625 39.015625 
Q 42.390625 42.875 40.484375 44.78125 
Q 38.578125 46.6875 34.90625 46.6875 
Q 28.265625 46.6875 24.71875 42.09375 
Q 21.1875 37.5 21.1875 28.90625 
L 21.1875 5.171875 
L 31.59375 5.171875 
L 31.59375 0 
L 4.109375 0 
L 4.109375 5.171875 
L 12.203125 5.171875 
L 12.203125 46.78125 
L 3.609375 46.78125 
L 3.609375 51.90625 
L 21.1875 51.90625 
L 21.1875 42.671875 
Q 23.828125 48.09375 27.96875 50.703125 
Q 32.125 53.328125 38.09375 53.328125 
Q 40.28125 53.328125 42.703125 52.984375 
Q 45.125 52.640625 47.796875 52 
z
" id="DejaVuSerif-72"/>
      <path d="M 10.796875 46.6875 
L 2.875 46.6875 
L 2.875 51.90625 
L 10.796875 51.90625 
L 10.796875 68.015625 
L 19.828125 68.015625 
L 19.828125 51.90625 
L 36.71875 51.90625 
L 36.71875 46.6875 
L 19.828125 46.6875 
L 19.828125 13.71875 
Q 19.828125 7.125 21.09375 5.265625 
Q 22.359375 3.421875 25.78125 3.421875 
Q 29.296875 3.421875 30.90625 5.484375 
Q 32.515625 7.5625 32.625 12.203125 
L 39.40625 12.203125 
Q 39.015625 5.125 35.546875 1.84375 
Q 32.078125 -1.421875 25 -1.421875 
Q 17.234375 -1.421875 14.015625 2.015625 
Q 10.796875 5.46875 10.796875 13.71875 
z
" id="DejaVuSerif-74"/>
      <path d="M 9.71875 68.015625 
Q 9.71875 70.265625 11.34375 71.921875 
Q 12.984375 73.578125 15.28125 73.578125 
Q 17.53125 73.578125 19.15625 71.921875 
Q 20.796875 70.265625 20.796875 68.015625 
Q 20.796875 65.71875 19.1875 64.109375 
Q 17.578125 62.5 15.28125 62.5 
Q 12.984375 62.5 11.34375 64.109375 
Q 9.71875 65.71875 9.71875 68.015625 
z
M 21.1875 5.171875 
L 29.6875 5.171875 
L 29.6875 0 
L 3.609375 0 
L 3.609375 5.171875 
L 12.203125 5.171875 
L 12.203125 46.6875 
L 3.609375 46.6875 
L 3.609375 51.90625 
L 21.1875 51.90625 
z
" id="DejaVuSerif-69"/>
      <path d="M 51.421875 15.578125 
Q 49.515625 7.28125 44.09375 2.921875 
Q 38.671875 -1.421875 30.078125 -1.421875 
Q 18.75 -1.421875 11.859375 6.078125 
Q 4.984375 13.578125 4.984375 25.984375 
Q 4.984375 38.421875 11.859375 45.875 
Q 18.75 53.328125 30.078125 53.328125 
Q 35.015625 53.328125 39.890625 52.171875 
Q 44.78125 51.03125 49.703125 48.6875 
L 49.703125 35.40625 
L 44.484375 35.40625 
Q 43.453125 42.234375 40.015625 45.359375 
Q 36.578125 48.484375 30.171875 48.484375 
Q 22.90625 48.484375 19.1875 42.84375 
Q 15.484375 37.203125 15.484375 25.984375 
Q 15.484375 14.75 19.171875 9.078125 
Q 22.859375 3.421875 30.171875 3.421875 
Q 35.984375 3.421875 39.453125 6.4375 
Q 42.921875 9.46875 44.1875 15.578125 
z
" id="DejaVuSerif-63"/>
      <path d="M 39.796875 16.3125 
L 39.796875 27.296875 
L 28.21875 27.296875 
Q 21.53125 27.296875 18.25 24.40625 
Q 14.984375 21.53125 14.984375 15.578125 
Q 14.984375 10.15625 18.296875 6.984375 
Q 21.625 3.8125 27.296875 3.8125 
Q 32.90625 3.8125 36.34375 7.28125 
Q 39.796875 10.75 39.796875 16.3125 
z
M 48.78125 32.421875 
L 48.78125 5.171875 
L 56.78125 5.171875 
L 56.78125 0 
L 39.796875 0 
L 39.796875 5.609375 
Q 36.8125 2 32.90625 0.28125 
Q 29 -1.421875 23.78125 -1.421875 
Q 15.140625 -1.421875 10.0625 3.171875 
Q 4.984375 7.765625 4.984375 15.578125 
Q 4.984375 23.640625 10.796875 28.078125 
Q 16.609375 32.515625 27.203125 32.515625 
L 39.796875 32.515625 
L 39.796875 36.078125 
Q 39.796875 42 36.203125 45.234375 
Q 32.625 48.484375 26.125 48.484375 
Q 20.75 48.484375 17.578125 46.046875 
Q 14.40625 43.609375 13.625 38.8125 
L 8.984375 38.8125 
L 8.984375 49.3125 
Q 13.671875 51.3125 18.09375 52.3125 
Q 22.515625 53.328125 26.703125 53.328125 
Q 37.5 53.328125 43.140625 47.96875 
Q 48.78125 42.625 48.78125 32.421875 
z
" id="DejaVuSerif-61"/>
      <path d="M 20.515625 5.171875 
L 29 5.171875 
L 29 0 
L 2.875 0 
L 2.875 5.171875 
L 11.53125 5.171875 
L 11.53125 70.796875 
L 2.875 70.796875 
L 2.875 75.984375 
L 20.515625 75.984375 
z
" id="DejaVuSerif-6c"/>
      <path id="DejaVuSerif-20"/>
      <path d="M 42.1875 -1.421875 
Q 25.4375 -1.421875 15.515625 8.859375 
Q 5.609375 19.140625 5.609375 36.375 
Q 5.609375 45.21875 8.265625 52.171875 
Q 10.9375 59.125 16.40625 64.59375 
Q 21.1875 69.390625 27.34375 71.796875 
Q 33.5 74.21875 41.015625 74.21875 
Q 56.890625 74.21875 66.65625 63.8125 
Q 76.421875 53.421875 76.421875 36.375 
Q 76.421875 21.921875 69.09375 12.078125 
Q 61.765625 2.25 48.875 -0.59375 
Q 51.515625 -3.859375 55.296875 -5.421875 
Q 59.078125 -6.984375 64.40625 -6.984375 
L 65.921875 -6.984375 
L 65.921875 -16.015625 
Q 57.671875 -15.625 51.78125 -11.984375 
Q 45.90625 -8.34375 42.1875 -1.421875 
z
M 41.015625 3.8125 
Q 52.984375 3.8125 59.078125 12.03125 
Q 65.1875 20.265625 65.1875 36.375 
Q 65.1875 52.546875 59.078125 60.765625 
Q 52.984375 69 41.015625 69 
Q 29 69 22.890625 60.765625 
Q 16.796875 52.546875 16.796875 36.375 
Q 16.796875 20.265625 22.890625 12.03125 
Q 29 3.8125 41.015625 3.8125 
z
" id="DejaVuSerif-51"/>
      <path d="M 35.40625 51.90625 
L 52.203125 51.90625 
L 52.203125 5.171875 
L 60.6875 5.171875 
L 60.6875 0 
L 43.21875 0 
L 43.21875 9.1875 
Q 40.71875 4 36.765625 1.28125 
Q 32.8125 -1.421875 27.59375 -1.421875 
Q 18.953125 -1.421875 14.875 3.484375 
Q 10.796875 8.40625 10.796875 18.890625 
L 10.796875 46.6875 
L 2.6875 46.6875 
L 2.6875 51.90625 
L 19.828125 51.90625 
L 19.828125 21.6875 
Q 19.828125 12.203125 22.140625 8.6875 
Q 24.46875 5.171875 30.421875 5.171875 
Q 36.671875 5.171875 39.9375 9.765625 
Q 43.21875 14.359375 43.21875 23.09375 
L 43.21875 46.6875 
L 35.40625 46.6875 
z
" id="DejaVuSerif-75"/>
      <path d="M 4.109375 0 
L 4.109375 5.171875 
L 12.203125 5.171875 
L 12.203125 46.6875 
L 3.609375 46.6875 
L 3.609375 51.90625 
L 21.1875 51.90625 
L 21.1875 42.671875 
Q 23.6875 47.953125 27.65625 50.640625 
Q 31.640625 53.328125 36.921875 53.328125 
Q 45.515625 53.328125 49.5625 48.390625 
Q 53.609375 43.453125 53.609375 33.015625 
L 53.609375 5.171875 
L 61.625 5.171875 
L 61.625 0 
L 36.8125 0 
L 36.8125 5.171875 
L 44.578125 5.171875 
L 44.578125 30.171875 
Q 44.578125 39.703125 42.234375 43.234375 
Q 39.890625 46.78125 33.984375 46.78125 
Q 27.734375 46.78125 24.453125 42.203125 
Q 21.1875 37.640625 21.1875 28.90625 
L 21.1875 5.171875 
L 29 5.171875 
L 29 0 
z
" id="DejaVuSerif-6e"/>
      <path d="M 5.609375 2.875 
L 5.609375 14.984375 
L 10.796875 14.984375 
Q 10.984375 9.1875 14.421875 6.296875 
Q 17.875 3.421875 24.609375 3.421875 
Q 30.671875 3.421875 33.84375 5.6875 
Q 37.015625 7.953125 37.015625 12.3125 
Q 37.015625 15.71875 34.6875 17.8125 
Q 32.375 19.921875 24.90625 22.3125 
L 18.40625 24.515625 
Q 11.71875 26.65625 8.71875 29.875 
Q 5.71875 33.109375 5.71875 38.09375 
Q 5.71875 45.21875 10.9375 49.265625 
Q 16.15625 53.328125 25.390625 53.328125 
Q 29.5 53.328125 34.03125 52.25 
Q 38.578125 51.171875 43.40625 49.125 
L 43.40625 37.796875 
L 38.234375 37.796875 
Q 38.03125 42.828125 34.703125 45.65625 
Q 31.390625 48.484375 25.6875 48.484375 
Q 20.015625 48.484375 17.109375 46.484375 
Q 14.203125 44.484375 14.203125 40.484375 
Q 14.203125 37.203125 16.40625 35.21875 
Q 18.609375 33.25 25.203125 31.203125 
L 32.328125 29 
Q 39.703125 26.703125 42.9375 23.265625 
Q 46.1875 19.828125 46.1875 14.40625 
Q 46.1875 7.03125 40.546875 2.796875 
Q 34.90625 -1.421875 25 -1.421875 
Q 19.96875 -1.421875 15.1875 -0.34375 
Q 10.40625 0.734375 5.609375 2.875 
z
" id="DejaVuSerif-73"/>
     </defs>
     <g style="fill:#d2d2d2;" transform="translate(140.229432 283.315938)scale(0.14 -0.14)">
      <use xlink:href="#DejaVuSerif-54"/>
      <use x="66.699219" xlink:href="#DejaVuSerif-68"/>
      <use x="131.103516" xlink:href="#DejaVuSerif-65"/>
      <use x="190.283203" xlink:href="#DejaVuSerif-6f"/>
      <use x="250.488281" xlink:href="#DejaVuSerif-72"/>
      <use x="298.291016" xlink:href="#DejaVuSerif-65"/>
      <use x="357.470703" xlink:href="#DejaVuSerif-74"/>
      <use x="397.65625" xlink:href="#DejaVuSerif-69"/>
      <use x="429.638672" xlink:href="#DejaVuSerif-63"/>
      <use x="485.644531" xlink:href="#DejaVuSerif-61"/>
      <use x="545.263672" xlink:href="#DejaVuSerif-6c"/>
      <use x="577.246094" xlink:href="#DejaVuSerif-20"/>
      <use x="609.033203" xlink:href="#DejaVuSerif-51"/>
      <use x="691.015625" xlink:href="#DejaVuSerif-75"/>
      <use x="755.419922" xlink:href="#DejaVuSerif-61"/>
      <use x="815.039062" xlink:href="#DejaVuSerif-6e"/>
      <use x="879.443359" xlink:href="#DejaVuSerif-74"/>
      <use x="919.628906" xlink:href="#DejaVuSerif-69"/>
      <use x="951.611328" xlink:href="#DejaVuSerif-6c"/>
      <use x="983.59375" xlink:href="#DejaVuSerif-65"/>
      <use x="1042.773438" xlink:href="#DejaVuSerif-73"/>
     </g>
    </g>
   </g>
   <g id="matplotlib.axis_2">
    <g id="ytick_1">
     <g id="line2d_7">
      <defs>
       <path d="M 0 0 
L -3.5 0 
" id="m57b19437e3" style="stroke:#d2d2d2;stroke-width:0.8;"/>
      </defs>
      <g>
       <use style="fill:#d2d2d2;stroke:#d2d2d2;stroke-width:0.8;" x="90" xlink:href="#m57b19437e3" y="244.734545"/>
      </g>
     </g>
     <g id="text_8">
      <!-- 5 -->
      <g style="fill:#d2d2d2;" transform="translate(76.6375 248.533764)scale(0.1 -0.1)">
       <use xlink:href="#DejaVuSerif-35"/>
      </g>
     </g>
    </g>
    <g id="ytick_2">
     <g id="line2d_8">
      <g>
       <use style="fill:#d2d2d2;stroke:#d2d2d2;stroke-width:0.8;" x="90" xlink:href="#m57b19437e3" y="219.370909"/>
      </g>
     </g>
     <g id="text_9">
      <!-- 10 -->
      <g style="fill:#d2d2d2;" transform="translate(70.275 223.170128)scale(0.1 -0.1)">
       <use xlink:href="#DejaVuSerif-31"/>
       <use x="63.623047" xlink:href="#DejaVuSerif-30"/>
      </g>
     </g>
    </g>
    <g id="ytick_3">
     <g id="line2d_9">
      <g>
       <use style="fill:#d2d2d2;stroke:#d2d2d2;stroke-width:0.8;" x="90" xlink:href="#m57b19437e3" y="194.007273"/>
      </g>
     </g>
     <g id="text_10">
      <!-- 15 -->
      <g style="fill:#d2d2d2;" transform="translate(70.275 197.806491)scale(0.1 -0.1)">
       <use xlink:href="#DejaVuSerif-31"/>
       <use x="63.623047" xlink:href="#DejaVuSerif-35"/>
      </g>
     </g>
    </g>
    <g id="ytick_4">
     <g id="line2d_10">
      <g>
       <use style="fill:#d2d2d2;stroke:#d2d2d2;stroke-width:0.8;" x="90" xlink:href="#m57b19437e3" y="168.643636"/>
      </g>
     </g>
     <g id="text_11">
      <!-- 20 -->
      <g style="fill:#d2d2d2;" transform="translate(70.275 172.442855)scale(0.1 -0.1)">
       <use xlink:href="#DejaVuSerif-32"/>
       <use x="63.623047" xlink:href="#DejaVuSerif-30"/>
      </g>
     </g>
    </g>
    <g id="ytick_5">
     <g id="line2d_11">
      <g>
       <use style="fill:#d2d2d2;stroke:#d2d2d2;stroke-width:0.8;" x="90" xlink:href="#m57b19437e3" y="143.28"/>
      </g>
     </g>
     <g id="text_12">
      <!-- 25 -->
      <g style="fill:#d2d2d2;" transform="translate(70.275 147.079219)scale(0.1 -0.1)">
       <use xlink:href="#DejaVuSerif-32"/>
       <use x="63.623047" xlink:href="#DejaVuSerif-35"/>
      </g>
     </g>
    </g>
    <g id="ytick_6">
     <g id="line2d_12">
      <g>
       <use style="fill:#d2d2d2;stroke:#d2d2d2;stroke-width:0.8;" x="90" xlink:href="#m57b19437e3" y="117.916364"/>
      </g>
     </g>
     <g id="text_13">
      <!-- 30 -->
      <g style="fill:#d2d2d2;" transform="translate(70.275 121.715582)scale(0.1 -0.1)">
       <use xlink:href="#DejaVuSerif-33"/>
       <use x="63.623047" xlink:href="#DejaVuSerif-30"/>
      </g>
     </g>
    </g>
    <g id="ytick_7">
     <g id="line2d_13">
      <g>
       <use style="fill:#d2d2d2;stroke:#d2d2d2;stroke-width:0.8;" x="90" xlink:href="#m57b19437e3" y="92.552727"/>
      </g>
     </g>
     <g id="text_14">
      <!-- 35 -->
      <g style="fill:#d2d2d2;" transform="translate(70.275 96.351946)scale(0.1 -0.1)">
       <use xlink:href="#DejaVuSerif-33"/>
       <use x="63.623047" xlink:href="#DejaVuSerif-35"/>
      </g>
     </g>
    </g>
    <g id="ytick_8">
     <g id="line2d_14">
      <g>
       <use style="fill:#d2d2d2;stroke:#d2d2d2;stroke-width:0.8;" x="90" xlink:href="#m57b19437e3" y="67.189091"/>
      </g>
     </g>
     <g id="text_15">
      <!-- 40 -->
      <g style="fill:#d2d2d2;" transform="translate(70.275 70.98831)scale(0.1 -0.1)">
       <use xlink:href="#DejaVuSerif-34"/>
       <use x="63.623047" xlink:href="#DejaVuSerif-30"/>
      </g>
     </g>
    </g>
    <g id="ytick_9">
     <g id="line2d_15">
      <g>
       <use style="fill:#d2d2d2;stroke:#d2d2d2;stroke-width:0.8;" x="90" xlink:href="#m57b19437e3" y="41.825455"/>
      </g>
     </g>
     <g id="text_16">
      <!-- 45 -->
      <g style="fill:#d2d2d2;" transform="translate(70.275 45.624673)scale(0.1 -0.1)">
       <use xlink:href="#DejaVuSerif-34"/>
       <use x="63.623047" xlink:href="#DejaVuSerif-35"/>
      </g>
     </g>
    </g>
    <g id="text_17">
     <!-- Sample -->
     <defs>
      <path d="M 9.28125 3.515625 
L 9.28125 20.125 
L 14.890625 20.0625 
Q 15.140625 11.765625 19.703125 7.78125 
Q 24.265625 3.8125 33.59375 3.8125 
Q 42.28125 3.8125 46.84375 7.25 
Q 51.421875 10.6875 51.421875 17.28125 
Q 51.421875 22.5625 48.65625 25.390625 
Q 45.90625 28.21875 37.015625 30.90625 
L 27.390625 33.796875 
Q 16.9375 36.96875 12.671875 41.703125 
Q 8.40625 46.4375 8.40625 54.6875 
Q 8.40625 63.96875 14.984375 69.09375 
Q 21.578125 74.21875 33.5 74.21875 
Q 38.578125 74.21875 44.625 73.109375 
Q 50.6875 72.015625 57.515625 69.921875 
L 57.515625 54.390625 
L 52 54.390625 
Q 51.171875 62.109375 46.84375 65.546875 
Q 42.53125 69 33.6875 69 
Q 25.984375 69 21.953125 65.84375 
Q 17.921875 62.703125 17.921875 56.6875 
Q 17.921875 51.46875 20.9375 48.484375 
Q 23.96875 45.515625 33.796875 42.578125 
L 42.828125 39.890625 
Q 52.734375 36.921875 56.953125 32.296875 
Q 61.1875 27.6875 61.1875 19.921875 
Q 61.1875 9.328125 54.390625 3.953125 
Q 47.609375 -1.421875 34.1875 -1.421875 
Q 28.171875 -1.421875 21.9375 -0.1875 
Q 15.71875 1.03125 9.28125 3.515625 
z
" id="DejaVuSerif-53"/>
      <path d="M 51.8125 41.796875 
Q 54.390625 47.515625 58.421875 50.421875 
Q 62.453125 53.328125 67.828125 53.328125 
Q 75.984375 53.328125 79.984375 48.265625 
Q 83.984375 43.21875 83.984375 33.015625 
L 83.984375 5.171875 
L 92.09375 5.171875 
L 92.09375 0 
L 67.1875 0 
L 67.1875 5.171875 
L 75 5.171875 
L 75 31.984375 
Q 75 39.9375 72.65625 43.3125 
Q 70.3125 46.6875 64.890625 46.6875 
Q 58.890625 46.6875 55.734375 42.140625 
Q 52.59375 37.59375 52.59375 28.90625 
L 52.59375 5.171875 
L 60.40625 5.171875 
L 60.40625 0 
L 35.796875 0 
L 35.796875 5.171875 
L 43.609375 5.171875 
L 43.609375 32.328125 
Q 43.609375 40.09375 41.265625 43.390625 
Q 38.921875 46.6875 33.5 46.6875 
Q 27.484375 46.6875 24.328125 42.140625 
Q 21.1875 37.59375 21.1875 28.90625 
L 21.1875 5.171875 
L 29 5.171875 
L 29 0 
L 4.109375 0 
L 4.109375 5.171875 
L 12.203125 5.171875 
L 12.203125 46.78125 
L 3.609375 46.78125 
L 3.609375 51.90625 
L 21.1875 51.90625 
L 21.1875 42.671875 
Q 23.6875 47.859375 27.53125 50.59375 
Q 31.390625 53.328125 36.28125 53.328125 
Q 42.328125 53.328125 46.375 50.3125 
Q 50.4375 47.3125 51.8125 41.796875 
z
" id="DejaVuSerif-6d"/>
      <path d="M 20.515625 28.515625 
L 20.515625 23.390625 
Q 20.515625 14.015625 24.09375 9.109375 
Q 27.6875 4.203125 34.515625 4.203125 
Q 41.40625 4.203125 44.9375 9.71875 
Q 48.484375 15.234375 48.484375 25.984375 
Q 48.484375 36.765625 44.9375 42.234375 
Q 41.40625 47.703125 34.515625 47.703125 
Q 27.6875 47.703125 24.09375 42.765625 
Q 20.515625 37.84375 20.515625 28.515625 
z
M 11.53125 46.6875 
L 2.875 46.6875 
L 2.875 51.90625 
L 20.515625 51.90625 
L 20.515625 43.796875 
Q 23.140625 48.6875 27.21875 51 
Q 31.296875 53.328125 37.3125 53.328125 
Q 46.875 53.328125 52.921875 45.75 
Q 58.984375 38.1875 58.984375 25.984375 
Q 58.984375 13.765625 52.921875 6.171875 
Q 46.875 -1.421875 37.3125 -1.421875 
Q 31.296875 -1.421875 27.21875 0.890625 
Q 23.140625 3.21875 20.515625 8.109375 
L 20.515625 -15.578125 
L 29 -15.578125 
L 29 -20.796875 
L 2.875 -20.796875 
L 2.875 -15.578125 
L 11.53125 -15.578125 
z
" id="DejaVuSerif-70"/>
     </defs>
     <g style="fill:#d2d2d2;" transform="translate(63.363438 169.749844)rotate(-90)scale(0.14 -0.14)">
      <use xlink:href="#DejaVuSerif-53"/>
      <use x="68.505859" xlink:href="#DejaVuSerif-61"/>
      <use x="128.125" xlink:href="#DejaVuSerif-6d"/>
      <use x="222.949219" xlink:href="#DejaVuSerif-70"/>
      <use x="286.962891" xlink:href="#DejaVuSerif-6c"/>
      <use x="318.945312" xlink:href="#DejaVuSerif-65"/>
     </g>
    </g>
   </g>
   <g id="patch_3">
    <path d="M 90 252 
L 90 34.56 
" style="fill:none;stroke:#d2d2d2;stroke-linecap:square;stroke-linejoin:miter;stroke-width:0.8;"/>
   </g>
   <g id="patch_4">
    <path d="M 90 252 
L 343.636364 252 
" style="fill:none;stroke:#d2d2d2;stroke-linecap:square;stroke-linejoin:miter;stroke-width:0.8;"/>
   </g>
   <g id="text_18">
    <!-- chilled -->
    <defs>
     <path d="M 52.484375 5.171875 
L 61.078125 5.171875 
L 61.078125 0 
L 43.5 0 
L 43.5 8.109375 
Q 40.875 3.21875 36.796875 0.890625 
Q 32.71875 -1.421875 26.703125 -1.421875 
Q 17.140625 -1.421875 11.0625 6.171875 
Q 4.984375 13.765625 4.984375 25.984375 
Q 4.984375 38.1875 11.03125 45.75 
Q 17.09375 53.328125 26.703125 53.328125 
Q 32.71875 53.328125 36.796875 51 
Q 40.875 48.6875 43.5 43.796875 
L 43.5 70.796875 
L 35.015625 70.796875 
L 35.015625 75.984375 
L 52.484375 75.984375 
z
M 43.5 23.390625 
L 43.5 28.515625 
Q 43.5 37.84375 39.90625 42.765625 
Q 36.328125 47.703125 29.5 47.703125 
Q 22.5625 47.703125 19.015625 42.234375 
Q 15.484375 36.765625 15.484375 25.984375 
Q 15.484375 15.234375 19.015625 9.71875 
Q 22.5625 4.203125 29.5 4.203125 
Q 36.328125 4.203125 39.90625 9.109375 
Q 43.5 14.015625 43.5 23.390625 
z
" id="DejaVuSerif-64"/>
    </defs>
    <g style="fill:#d2d2d2;" transform="translate(176.070682 28.56)scale(0.24 -0.24)">
     <use xlink:href="#DejaVuSerif-63"/>
     <use x="56.005859" xlink:href="#DejaVuSerif-68"/>
     <use x="120.410156" xlink:href="#DejaVuSerif-69"/>
     <use x="152.392578" xlink:href="#DejaVuSerif-6c"/>
     <use x="184.375" xlink:href="#DejaVuSerif-6c"/>
     <use x="216.357422" xlink:href="#DejaVuSerif-65"/>
     <use x="275.537109" xlink:href="#DejaVuSerif-64"/>
    </g>
   </g>
   <g id="PathCollection_1">
    <defs>
     <path d="M 0 2.236068 
C 0.593012 2.236068 1.161816 2.000462 1.581139 1.581139 
C 2.000462 1.161816 2.236068 0.593012 2.236068 0 
C 2.236068 -0.593012 2.000462 -1.161816 1.581139 -1.581139 
C 1.161816 -2.000462 0.593012 -2.236068 0 -2.236068 
C -0.593012 -2.236068 -1.161816 -2.000462 -1.581139 -1.581139 
C -2.000462 -1.161816 -2.236068 -0.593012 -2.236068 0 
C -2.236068 0.593012 -2.000462 1.161816 -1.581139 1.581139 
C -1.161816 2.000462 -0.593012 2.236068 0 2.236068 
z
" id="m6c2f90eb02" style="stroke:#f79a52;"/>
    </defs>
    <g clip-path="url(#p6a46600892)">
     <use style="fill:#f79a52;stroke:#f79a52;" x="171.310142" xlink:href="#m6c2f90eb02" y="198.065455"/>
     <use style="fill:#f79a52;stroke:#f79a52;" x="227.374868" xlink:href="#m6c2f90eb02" y="147.845455"/>
     <use style="fill:#f79a52;stroke:#f79a52;" x="234.428173" xlink:href="#m6c2f90eb02" y="116.394545"/>
     <use style="fill:#f79a52;stroke:#f79a52;" x="245.843871" xlink:href="#m6c2f90eb02" y="94.581818"/>
     <use style="fill:#f79a52;stroke:#f79a52;" x="238.098372" xlink:href="#m6c2f90eb02" y="105.234545"/>
     <use style="fill:#f79a52;stroke:#f79a52;" x="254.355223" xlink:href="#m6c2f90eb02" y="90.523636"/>
     <use style="fill:#f79a52;stroke:#f79a52;" x="275.784688" xlink:href="#m6c2f90eb02" y="73.783636"/>
     <use style="fill:#f79a52;stroke:#f79a52;" x="118.529235" xlink:href="#m6c2f90eb02" y="222.921818"/>
     <use style="fill:#f79a52;stroke:#f79a52;" x="230.860248" xlink:href="#m6c2f90eb02" y="131.612727"/>
     <use style="fill:#f79a52;stroke:#f79a52;" x="249.982586" xlink:href="#m6c2f90eb02" y="92.552727"/>
     <use style="fill:#f79a52;stroke:#f79a52;" x="282.929855" xlink:href="#m6c2f90eb02" y="73.276364"/>
     <use style="fill:#f79a52;stroke:#f79a52;" x="269.590292" xlink:href="#m6c2f90eb02" y="74.290909"/>
     <use style="fill:#f79a52;stroke:#f79a52;" x="259.020968" xlink:href="#m6c2f90eb02" y="79.870909"/>
     <use style="fill:#f79a52;stroke:#f79a52;" x="183.194355" xlink:href="#m6c2f90eb02" y="193.5"/>
     <use style="fill:#f79a52;stroke:#f79a52;" x="217.252513" xlink:href="#m6c2f90eb02" y="163.570909"/>
     <use style="fill:#f79a52;stroke:#f79a52;" x="264.060753" xlink:href="#m6c2f90eb02" y="76.827273"/>
     <use style="fill:#f79a52;stroke:#f79a52;" x="241.894179" xlink:href="#m6c2f90eb02" y="97.625455"/>
     <use style="fill:#f79a52;stroke:#f79a52;" x="291.546533" xlink:href="#m6c2f90eb02" y="72.769091"/>
     <use style="fill:#f79a52;stroke:#f79a52;" x="302.763492" xlink:href="#m6c2f90eb02" y="69.218182"/>
     <use style="fill:#f79a52;stroke:#f79a52;" x="320.009938" xlink:href="#m6c2f90eb02" y="60.087273"/>
     <use style="fill:#f79a52;stroke:#f79a52;" x="129.746194" xlink:href="#m6c2f90eb02" y="216.834545"/>
     <use style="fill:#f79a52;stroke:#f79a52;" x="179.398548" xlink:href="#m6c2f90eb02" y="194.514545"/>
     <use style="fill:#f79a52;stroke:#f79a52;" x="200.707314" xlink:href="#m6c2f90eb02" y="178.281818"/>
     <use style="fill:#f79a52;stroke:#f79a52;" x="207.349195" xlink:href="#m6c2f90eb02" y="174.223636"/>
     <use style="fill:#f79a52;stroke:#f79a52;" x="210.646364" xlink:href="#m6c2f90eb02" y="171.18"/>
     <use style="fill:#f79a52;stroke:#f79a52;" x="223.954962" xlink:href="#m6c2f90eb02" y="157.483636"/>
     <use style="fill:#f79a52;stroke:#f79a52;" x="220.585413" xlink:href="#m6c2f90eb02" y="159.005455"/>
     <use style="fill:#f79a52;stroke:#f79a52;" x="101.28279" xlink:href="#m6c2f90eb02" y="231.038182"/>
     <use style="fill:#f79a52;stroke:#f79a52;" x="145.508039" xlink:href="#m6c2f90eb02" y="212.269091"/>
     <use style="fill:#f79a52;stroke:#f79a52;" x="151.702435" xlink:href="#m6c2f90eb02" y="207.703636"/>
     <use style="fill:#f79a52;stroke:#f79a52;" x="162.271759" xlink:href="#m6c2f90eb02" y="204.152727"/>
     <use style="fill:#f79a52;stroke:#f79a52;" x="157.231974" xlink:href="#m6c2f90eb02" y="206.689091"/>
     <use style="fill:#f79a52;stroke:#f79a52;" x="166.937505" xlink:href="#m6c2f90eb02" y="200.601818"/>
     <use style="fill:#f79a52;stroke:#f79a52;" x="175.448857" xlink:href="#m6c2f90eb02" y="197.050909"/>
     <use style="fill:#f79a52;stroke:#f79a52;" x="138.362873" xlink:href="#m6c2f90eb02" y="216.327273"/>
     <use style="fill:#f79a52;stroke:#f79a52;" x="197.337765" xlink:href="#m6c2f90eb02" y="178.789091"/>
     <use style="fill:#f79a52;stroke:#f79a52;" x="193.91786" xlink:href="#m6c2f90eb02" y="179.296364"/>
     <use style="fill:#f79a52;stroke:#f79a52;" x="193.91786" xlink:href="#m6c2f90eb02" y="179.296364"/>
     <use style="fill:#f79a52;stroke:#f79a52;" x="193.91786" xlink:href="#m6c2f90eb02" y="179.296364"/>
     <use style="fill:#f79a52;stroke:#f79a52;" x="207.349195" xlink:href="#m6c2f90eb02" y="174.223636"/>
     <use style="fill:#f79a52;stroke:#f79a52;" x="213.943533" xlink:href="#m6c2f90eb02" y="169.150909"/>
    </g>
   </g>
  </g>
  <g id="axes_2">
   <g id="patch_5">
    <path d="M 394.363636 252 
L 648 252 
L 648 34.56 
L 394.363636 34.56 
z
" style="fill:none;"/>
   </g>
   <g id="matplotlib.axis_3">
    <g id="xtick_7">
     <g id="line2d_16">
      <g>
       <use style="fill:#d2d2d2;stroke:#d2d2d2;stroke-width:0.8;" x="394.363636" xlink:href="#m81ff320231" y="252"/>
      </g>
     </g>
     <g id="text_19">
      <!-- 0 -->
      <g style="fill:#d2d2d2;" transform="translate(391.182386 266.598437)scale(0.1 -0.1)">
       <use xlink:href="#DejaVuSerif-30"/>
      </g>
     </g>
    </g>
    <g id="xtick_8">
     <g id="line2d_17">
      <g>
       <use style="fill:#d2d2d2;stroke:#d2d2d2;stroke-width:0.8;" x="445.090909" xlink:href="#m81ff320231" y="252"/>
      </g>
     </g>
     <g id="text_20">
      <!-- 10 -->
      <g style="fill:#d2d2d2;" transform="translate(438.728409 266.598437)scale(0.1 -0.1)">
       <use xlink:href="#DejaVuSerif-31"/>
       <use x="63.623047" xlink:href="#DejaVuSerif-30"/>
      </g>
     </g>
    </g>
    <g id="xtick_9">
     <g id="line2d_18">
      <g>
       <use style="fill:#d2d2d2;stroke:#d2d2d2;stroke-width:0.8;" x="495.818182" xlink:href="#m81ff320231" y="252"/>
      </g>
     </g>
     <g id="text_21">
      <!-- 20 -->
      <g style="fill:#d2d2d2;" transform="translate(489.455682 266.598437)scale(0.1 -0.1)">
       <use xlink:href="#DejaVuSerif-32"/>
       <use x="63.623047" xlink:href="#DejaVuSerif-30"/>
      </g>
     </g>
    </g>
    <g id="xtick_10">
     <g id="line2d_19">
      <g>
       <use style="fill:#d2d2d2;stroke:#d2d2d2;stroke-width:0.8;" x="546.545455" xlink:href="#m81ff320231" y="252"/>
      </g>
     </g>
     <g id="text_22">
      <!-- 30 -->
      <g style="fill:#d2d2d2;" transform="translate(540.182955 266.598437)scale(0.1 -0.1)">
       <use xlink:href="#DejaVuSerif-33"/>
       <use x="63.623047" xlink:href="#DejaVuSerif-30"/>
      </g>
     </g>
    </g>
    <g id="xtick_11">
     <g id="line2d_20">
      <g>
       <use style="fill:#d2d2d2;stroke:#d2d2d2;stroke-width:0.8;" x="597.272727" xlink:href="#m81ff320231" y="252"/>
      </g>
     </g>
     <g id="text_23">
      <!-- 40 -->
      <g style="fill:#d2d2d2;" transform="translate(590.910227 266.598437)scale(0.1 -0.1)">
       <use xlink:href="#DejaVuSerif-34"/>
       <use x="63.623047" xlink:href="#DejaVuSerif-30"/>
      </g>
     </g>
    </g>
    <g id="xtick_12">
     <g id="line2d_21">
      <g>
       <use style="fill:#d2d2d2;stroke:#d2d2d2;stroke-width:0.8;" x="648" xlink:href="#m81ff320231" y="252"/>
      </g>
     </g>
     <g id="text_24">
      <!-- 50 -->
      <g style="fill:#d2d2d2;" transform="translate(641.6375 266.598437)scale(0.1 -0.1)">
       <use xlink:href="#DejaVuSerif-35"/>
       <use x="63.623047" xlink:href="#DejaVuSerif-30"/>
      </g>
     </g>
    </g>
    <g id="text_25">
     <!-- Theoretical Quantiles -->
     <g style="fill:#d2d2d2;" transform="translate(444.593068 283.315938)scale(0.14 -0.14)">
      <use xlink:href="#DejaVuSerif-54"/>
      <use x="66.699219" xlink:href="#DejaVuSerif-68"/>
      <use x="131.103516" xlink:href="#DejaVuSerif-65"/>
      <use x="190.283203" xlink:href="#DejaVuSerif-6f"/>
      <use x="250.488281" xlink:href="#DejaVuSerif-72"/>
      <use x="298.291016" xlink:href="#DejaVuSerif-65"/>
      <use x="357.470703" xlink:href="#DejaVuSerif-74"/>
      <use x="397.65625" xlink:href="#DejaVuSerif-69"/>
      <use x="429.638672" xlink:href="#DejaVuSerif-63"/>
      <use x="485.644531" xlink:href="#DejaVuSerif-61"/>
      <use x="545.263672" xlink:href="#DejaVuSerif-6c"/>
      <use x="577.246094" xlink:href="#DejaVuSerif-20"/>
      <use x="609.033203" xlink:href="#DejaVuSerif-51"/>
      <use x="691.015625" xlink:href="#DejaVuSerif-75"/>
      <use x="755.419922" xlink:href="#DejaVuSerif-61"/>
      <use x="815.039062" xlink:href="#DejaVuSerif-6e"/>
      <use x="879.443359" xlink:href="#DejaVuSerif-74"/>
      <use x="919.628906" xlink:href="#DejaVuSerif-69"/>
      <use x="951.611328" xlink:href="#DejaVuSerif-6c"/>
      <use x="983.59375" xlink:href="#DejaVuSerif-65"/>
      <use x="1042.773438" xlink:href="#DejaVuSerif-73"/>
     </g>
    </g>
   </g>
   <g id="matplotlib.axis_4">
    <g id="ytick_10">
     <g id="line2d_22">
      <g>
       <use style="fill:#d2d2d2;stroke:#d2d2d2;stroke-width:0.8;" x="394.363636" xlink:href="#m57b19437e3" y="244.734545"/>
      </g>
     </g>
     <g id="text_26">
      <!-- 5 -->
      <g style="fill:#d2d2d2;" transform="translate(381.001136 248.533764)scale(0.1 -0.1)">
       <use xlink:href="#DejaVuSerif-35"/>
      </g>
     </g>
    </g>
    <g id="ytick_11">
     <g id="line2d_23">
      <g>
       <use style="fill:#d2d2d2;stroke:#d2d2d2;stroke-width:0.8;" x="394.363636" xlink:href="#m57b19437e3" y="219.370909"/>
      </g>
     </g>
     <g id="text_27">
      <!-- 10 -->
      <g style="fill:#d2d2d2;" transform="translate(374.638636 223.170128)scale(0.1 -0.1)">
       <use xlink:href="#DejaVuSerif-31"/>
       <use x="63.623047" xlink:href="#DejaVuSerif-30"/>
      </g>
     </g>
    </g>
    <g id="ytick_12">
     <g id="line2d_24">
      <g>
       <use style="fill:#d2d2d2;stroke:#d2d2d2;stroke-width:0.8;" x="394.363636" xlink:href="#m57b19437e3" y="194.007273"/>
      </g>
     </g>
     <g id="text_28">
      <!-- 15 -->
      <g style="fill:#d2d2d2;" transform="translate(374.638636 197.806491)scale(0.1 -0.1)">
       <use xlink:href="#DejaVuSerif-31"/>
       <use x="63.623047" xlink:href="#DejaVuSerif-35"/>
      </g>
     </g>
    </g>
    <g id="ytick_13">
     <g id="line2d_25">
      <g>
       <use style="fill:#d2d2d2;stroke:#d2d2d2;stroke-width:0.8;" x="394.363636" xlink:href="#m57b19437e3" y="168.643636"/>
      </g>
     </g>
     <g id="text_29">
      <!-- 20 -->
      <g style="fill:#d2d2d2;" transform="translate(374.638636 172.442855)scale(0.1 -0.1)">
       <use xlink:href="#DejaVuSerif-32"/>
       <use x="63.623047" xlink:href="#DejaVuSerif-30"/>
      </g>
     </g>
    </g>
    <g id="ytick_14">
     <g id="line2d_26">
      <g>
       <use style="fill:#d2d2d2;stroke:#d2d2d2;stroke-width:0.8;" x="394.363636" xlink:href="#m57b19437e3" y="143.28"/>
      </g>
     </g>
     <g id="text_30">
      <!-- 25 -->
      <g style="fill:#d2d2d2;" transform="translate(374.638636 147.079219)scale(0.1 -0.1)">
       <use xlink:href="#DejaVuSerif-32"/>
       <use x="63.623047" xlink:href="#DejaVuSerif-35"/>
      </g>
     </g>
    </g>
    <g id="ytick_15">
     <g id="line2d_27">
      <g>
       <use style="fill:#d2d2d2;stroke:#d2d2d2;stroke-width:0.8;" x="394.363636" xlink:href="#m57b19437e3" y="117.916364"/>
      </g>
     </g>
     <g id="text_31">
      <!-- 30 -->
      <g style="fill:#d2d2d2;" transform="translate(374.638636 121.715582)scale(0.1 -0.1)">
       <use xlink:href="#DejaVuSerif-33"/>
       <use x="63.623047" xlink:href="#DejaVuSerif-30"/>
      </g>
     </g>
    </g>
    <g id="ytick_16">
     <g id="line2d_28">
      <g>
       <use style="fill:#d2d2d2;stroke:#d2d2d2;stroke-width:0.8;" x="394.363636" xlink:href="#m57b19437e3" y="92.552727"/>
      </g>
     </g>
     <g id="text_32">
      <!-- 35 -->
      <g style="fill:#d2d2d2;" transform="translate(374.638636 96.351946)scale(0.1 -0.1)">
       <use xlink:href="#DejaVuSerif-33"/>
       <use x="63.623047" xlink:href="#DejaVuSerif-35"/>
      </g>
     </g>
    </g>
    <g id="ytick_17">
     <g id="line2d_29">
      <g>
       <use style="fill:#d2d2d2;stroke:#d2d2d2;stroke-width:0.8;" x="394.363636" xlink:href="#m57b19437e3" y="67.189091"/>
      </g>
     </g>
     <g id="text_33">
      <!-- 40 -->
      <g style="fill:#d2d2d2;" transform="translate(374.638636 70.98831)scale(0.1 -0.1)">
       <use xlink:href="#DejaVuSerif-34"/>
       <use x="63.623047" xlink:href="#DejaVuSerif-30"/>
      </g>
     </g>
    </g>
    <g id="ytick_18">
     <g id="line2d_30">
      <g>
       <use style="fill:#d2d2d2;stroke:#d2d2d2;stroke-width:0.8;" x="394.363636" xlink:href="#m57b19437e3" y="41.825455"/>
      </g>
     </g>
     <g id="text_34">
      <!-- 45 -->
      <g style="fill:#d2d2d2;" transform="translate(374.638636 45.624673)scale(0.1 -0.1)">
       <use xlink:href="#DejaVuSerif-34"/>
       <use x="63.623047" xlink:href="#DejaVuSerif-35"/>
      </g>
     </g>
    </g>
    <g id="text_35">
     <!-- Sample -->
     <g style="fill:#d2d2d2;" transform="translate(367.727074 169.749844)rotate(-90)scale(0.14 -0.14)">
      <use xlink:href="#DejaVuSerif-53"/>
      <use x="68.505859" xlink:href="#DejaVuSerif-61"/>
      <use x="128.125" xlink:href="#DejaVuSerif-6d"/>
      <use x="222.949219" xlink:href="#DejaVuSerif-70"/>
      <use x="286.962891" xlink:href="#DejaVuSerif-6c"/>
      <use x="318.945312" xlink:href="#DejaVuSerif-65"/>
     </g>
    </g>
   </g>
   <g id="patch_6">
    <path d="M 394.363636 252 
L 394.363636 34.56 
" style="fill:none;stroke:#d2d2d2;stroke-linecap:square;stroke-linejoin:miter;stroke-width:0.8;"/>
   </g>
   <g id="patch_7">
    <path d="M 394.363636 252 
L 648 252 
" style="fill:none;stroke:#d2d2d2;stroke-linecap:square;stroke-linejoin:miter;stroke-width:0.8;"/>
   </g>
   <g id="text_36">
    <!-- nonchilled -->
    <g style="fill:#d2d2d2;" transform="translate(457.752443 28.56)scale(0.24 -0.24)">
     <use xlink:href="#DejaVuSerif-6e"/>
     <use x="64.404297" xlink:href="#DejaVuSerif-6f"/>
     <use x="124.609375" xlink:href="#DejaVuSerif-6e"/>
     <use x="189.013672" xlink:href="#DejaVuSerif-63"/>
     <use x="245.019531" xlink:href="#DejaVuSerif-68"/>
     <use x="309.423828" xlink:href="#DejaVuSerif-69"/>
     <use x="341.40625" xlink:href="#DejaVuSerif-6c"/>
     <use x="373.388672" xlink:href="#DejaVuSerif-6c"/>
     <use x="405.371094" xlink:href="#DejaVuSerif-65"/>
     <use x="464.550781" xlink:href="#DejaVuSerif-64"/>
    </g>
   </g>
   <g id="PathCollection_2">
    <defs>
     <path d="M 0 2.236068 
C 0.593012 2.236068 1.161816 2.000462 1.581139 1.581139 
C 2.000462 1.161816 2.236068 0.593012 2.236068 0 
C 2.236068 -0.593012 2.000462 -1.161816 1.581139 -1.581139 
C 1.161816 -2.000462 0.593012 -2.236068 0 -2.236068 
C -0.593012 -2.236068 -1.161816 -2.000462 -1.581139 -1.581139 
C -2.000462 -1.161816 -2.236068 -0.593012 -2.236068 0 
C -2.236068 0.593012 -2.000462 1.161816 -1.581139 1.581139 
C -1.161816 2.000462 -0.593012 2.236068 0 2.236068 
z
" id="me58db8a234" style="stroke:#88c9c1;"/>
    </defs>
    <g clip-path="url(#p2d2fc46328)">
     <use style="fill:#88c9c1;stroke:#88c9c1;" x="491.725927" xlink:href="#me58db8a234" y="188.934545"/>
     <use style="fill:#88c9c1;stroke:#88c9c1;" x="540.944343" xlink:href="#me58db8a234" y="115.887273"/>
     <use style="fill:#88c9c1;stroke:#88c9c1;" x="567.830197" xlink:href="#me58db8a234" y="93.567273"/>
     <use style="fill:#88c9c1;stroke:#88c9c1;" x="581.190339" xlink:href="#me58db8a234" y="81.392727"/>
     <use style="fill:#88c9c1;stroke:#88c9c1;" x="571.011537" xlink:href="#me58db8a234" y="91.030909"/>
     <use style="fill:#88c9c1;stroke:#88c9c1;" x="584.880623" xlink:href="#me58db8a234" y="71.247273"/>
     <use style="fill:#88c9c1;stroke:#88c9c1;" x="588.779484" xlink:href="#me58db8a234" y="68.710909"/>
     <use style="fill:#88c9c1;stroke:#88c9c1;" x="485.354942" xlink:href="#me58db8a234" y="201.109091"/>
     <use style="fill:#88c9c1;stroke:#88c9c1;" x="521.944389" xlink:href="#me58db8a234" y="131.612727"/>
     <use style="fill:#88c9c1;stroke:#88c9c1;" x="577.668598" xlink:href="#me58db8a234" y="81.9"/>
     <use style="fill:#88c9c1;stroke:#88c9c1;" x="607.88706" xlink:href="#me58db8a234" y="58.058182"/>
     <use style="fill:#88c9c1;stroke:#88c9c1;" x="597.433417" xlink:href="#me58db8a234" y="64.145455"/>
     <use style="fill:#88c9c1;stroke:#88c9c1;" x="602.363829" xlink:href="#me58db8a234" y="60.087273"/>
     <use style="fill:#88c9c1;stroke:#88c9c1;" x="647.320489" xlink:href="#me58db8a234" y="45.376364"/>
     <use style="fill:#88c9c1;stroke:#88c9c1;" x="497.249158" xlink:href="#me58db8a234" y="187.92"/>
     <use style="fill:#88c9c1;stroke:#88c9c1;" x="564.722459" xlink:href="#me58db8a234" y="105.741818"/>
     <use style="fill:#88c9c1;stroke:#88c9c1;" x="592.939694" xlink:href="#me58db8a234" y="65.667273"/>
     <use style="fill:#88c9c1;stroke:#88c9c1;" x="614.258045" xlink:href="#me58db8a234" y="56.536364"/>
     <use style="fill:#88c9c1;stroke:#88c9c1;" x="621.941104" xlink:href="#me58db8a234" y="52.478182"/>
     <use style="fill:#88c9c1;stroke:#88c9c1;" x="631.942702" xlink:href="#me58db8a234" y="47.405455"/>
     <use style="fill:#88c9c1;stroke:#88c9c1;" x="452.292498" xlink:href="#me58db8a234" y="216.327273"/>
     <use style="fill:#88c9c1;stroke:#88c9c1;" x="502.17957" xlink:href="#me58db8a234" y="172.701818"/>
     <use style="fill:#88c9c1;stroke:#88c9c1;" x="518.422648" xlink:href="#me58db8a234" y="137.192727"/>
     <use style="fill:#88c9c1;stroke:#88c9c1;" x="537.939886" xlink:href="#me58db8a234" y="117.916364"/>
     <use style="fill:#88c9c1;stroke:#88c9c1;" x="546.866574" xlink:href="#me58db8a234" y="113.350909"/>
     <use style="fill:#88c9c1;stroke:#88c9c1;" x="564.722459" xlink:href="#me58db8a234" y="105.741818"/>
     <use style="fill:#88c9c1;stroke:#88c9c1;" x="574.284068" xlink:href="#me58db8a234" y="90.016364"/>
     <use style="fill:#88c9c1;stroke:#88c9c1;" x="477.671883" xlink:href="#me58db8a234" y="209.225455"/>
     <use style="fill:#88c9c1;stroke:#88c9c1;" x="510.833503" xlink:href="#me58db8a234" y="158.498182"/>
     <use style="fill:#88c9c1;stroke:#88c9c1;" x="543.916123" xlink:href="#me58db8a234" y="114.872727"/>
     <use style="fill:#88c9c1;stroke:#88c9c1;" x="555.696864" xlink:href="#me58db8a234" y="108.785455"/>
     <use style="fill:#88c9c1;stroke:#88c9c1;" x="564.722459" xlink:href="#me58db8a234" y="105.741818"/>
     <use style="fill:#88c9c1;stroke:#88c9c1;" x="549.806494" xlink:href="#me58db8a234" y="112.336364"/>
     <use style="fill:#88c9c1;stroke:#88c9c1;" x="552.746413" xlink:href="#me58db8a234" y="110.307273"/>
     <use style="fill:#88c9c1;stroke:#88c9c1;" x="467.670285" xlink:href="#me58db8a234" y="212.776364"/>
     <use style="fill:#88c9c1;stroke:#88c9c1;" x="506.673293" xlink:href="#me58db8a234" y="171.687273"/>
     <use style="fill:#88c9c1;stroke:#88c9c1;" x="514.732364" xlink:href="#me58db8a234" y="139.221818"/>
     <use style="fill:#88c9c1;stroke:#88c9c1;" x="528.60145" xlink:href="#me58db8a234" y="128.569091"/>
     <use style="fill:#88c9c1;stroke:#88c9c1;" x="534.890528" xlink:href="#me58db8a234" y="125.525455"/>
     <use style="fill:#88c9c1;stroke:#88c9c1;" x="531.78279" xlink:href="#me58db8a234" y="127.554545"/>
     <use style="fill:#88c9c1;stroke:#88c9c1;" x="525.328919" xlink:href="#me58db8a234" y="129.076364"/>
    </g>
   </g>
  </g>
  <g id="axes_3">
   <g id="line2d_31">
    <path clip-path="url(#p6a46600892)" d="M 111.483069 289 
L 314.937203 -1 
" style="fill:none;stroke:#a6a6a6;stroke-linecap:square;stroke-width:2;"/>
   </g>
  </g>
  <g id="axes_4">
   <g id="line2d_32">
    <path clip-path="url(#p2d2fc46328)" d="M 394.363636 255.633933 
L 648 12.357528 
" style="fill:none;stroke:#a6a6a6;stroke-linecap:square;stroke-width:2;"/>
   </g>
  </g>
 </g>
 <defs>
  <clipPath id="p6a46600892">
   <rect height="217.44" width="253.636364" x="90" y="34.56"/>
  </clipPath>
  <clipPath id="p2d2fc46328">
   <rect height="217.44" width="253.636364" x="394.363636" y="34.56"/>
  </clipPath>
 </defs>
</svg>
