<?xml version="1.0" encoding="utf-8" standalone="no"?>
<!DOCTYPE svg PUBLIC "-//W3C//DTD SVG 1.1//EN"
  "http://www.w3.org/Graphics/SVG/1.1/DTD/svg11.dtd">
<!-- Created with matplotlib (http://matplotlib.org/) -->
<svg height="324pt" version="1.1" viewBox="0 0 720 324" width="720pt" xmlns="http://www.w3.org/2000/svg" xmlns:xlink="http://www.w3.org/1999/xlink">
 <defs>
  <style type="text/css">
*{stroke-linecap:butt;stroke-linejoin:round;}
  </style>
 </defs>
 <g id="figure_1">
  <g id="patch_1">
   <path d="M 0 324 
L 720 324 
L 720 0 
L 0 0 
z
" style="fill:none;"/>
  </g>
  <g id="axes_1">
   <g id="patch_2">
    <path d="M 90 283.5 
L 343.636364 283.5 
L 343.636364 38.88 
L 90 38.88 
z
" style="fill:none;opacity:0;"/>
   </g>
   <g id="patch_3">
    <path clip-path="url(#pedb0b6395a)" d="M 101.528926 283.5 
L 116.900826 283.5 
L 116.900826 281.201736 
L 101.528926 281.201736 
z
" style="fill:#88c9c1;"/>
   </g>
   <g id="patch_4">
    <path clip-path="url(#pedb0b6395a)" d="M 116.900826 283.5 
L 132.272727 283.5 
L 132.272727 258.702937 
L 116.900826 258.702937 
z
" style="fill:#88c9c1;"/>
   </g>
   <g id="patch_5">
    <path clip-path="url(#pedb0b6395a)" d="M 132.272727 283.5 
L 147.644628 283.5 
L 147.644628 192.9 
L 132.272727 192.9 
z
" style="fill:#88c9c1;"/>
   </g>
   <g id="patch_6">
    <path clip-path="url(#pedb0b6395a)" d="M 147.644628 283.5 
L 163.016529 283.5 
L 163.016529 114.517089 
L 147.644628 114.517089 
z
" style="fill:#88c9c1;"/>
   </g>
   <g id="patch_7">
    <path clip-path="url(#pedb0b6395a)" d="M 163.016529 283.5 
L 178.38843 283.5 
L 178.38843 55.1251 
L 163.016529 55.1251 
z
" style="fill:#88c9c1;"/>
   </g>
   <g id="patch_8">
    <path clip-path="url(#pedb0b6395a)" d="M 178.38843 283.5 
L 193.760331 283.5 
L 193.760331 50.528571 
L 178.38843 50.528571 
z
" style="fill:#88c9c1;"/>
   </g>
   <g id="patch_9">
    <path clip-path="url(#pedb0b6395a)" d="M 193.760331 283.5 
L 209.132231 283.5 
L 209.132231 89.478104 
L 193.760331 89.478104 
z
" style="fill:#88c9c1;"/>
   </g>
   <g id="patch_10">
    <path clip-path="url(#pedb0b6395a)" d="M 209.132231 283.5 
L 224.504132 283.5 
L 224.504132 153.950467 
L 209.132231 153.950467 
z
" style="fill:#88c9c1;"/>
   </g>
   <g id="patch_11">
    <path clip-path="url(#pedb0b6395a)" d="M 224.504132 283.5 
L 239.876033 283.5 
L 239.876033 208.866889 
L 224.504132 208.866889 
z
" style="fill:#88c9c1;"/>
   </g>
   <g id="patch_12">
    <path clip-path="url(#pedb0b6395a)" d="M 239.876033 283.5 
L 255.247934 283.5 
L 255.247934 246.606809 
L 239.876033 246.606809 
z
" style="fill:#88c9c1;"/>
   </g>
   <g id="patch_13">
    <path clip-path="url(#pedb0b6395a)" d="M 255.247934 283.5 
L 270.619835 283.5 
L 270.619835 264.992924 
L 255.247934 264.992924 
z
" style="fill:#88c9c1;"/>
   </g>
   <g id="patch_14">
    <path clip-path="url(#pedb0b6395a)" d="M 270.619835 283.5 
L 285.991736 283.5 
L 285.991736 278.298665 
L 270.619835 278.298665 
z
" style="fill:#88c9c1;"/>
   </g>
   <g id="patch_15">
    <path clip-path="url(#pedb0b6395a)" d="M 285.991736 283.5 
L 301.363636 283.5 
L 301.363636 281.322697 
L 285.991736 281.322697 
z
" style="fill:#88c9c1;"/>
   </g>
   <g id="patch_16">
    <path clip-path="url(#pedb0b6395a)" d="M 301.363636 283.5 
L 316.735537 283.5 
L 316.735537 283.016155 
L 301.363636 283.016155 
z
" style="fill:#88c9c1;"/>
   </g>
   <g id="patch_17">
    <path clip-path="url(#pedb0b6395a)" d="M 316.735537 283.5 
L 332.107438 283.5 
L 332.107438 283.379039 
L 316.735537 283.379039 
z
" style="fill:#88c9c1;"/>
   </g>
   <g id="matplotlib.axis_1">
    <g id="xtick_1">
     <g id="line2d_1">
      <defs>
       <path d="M 0 0 
L 0 3.5 
" id="m31501cb4db" style="stroke:#d2d2d2;stroke-width:0.8;"/>
      </defs>
      <g>
       <use style="fill:#d2d2d2;stroke:#d2d2d2;stroke-width:0.8;" x="115.082907" xlink:href="#m31501cb4db" y="283.5"/>
      </g>
     </g>
     <g id="text_1">
      <!-- 0.05 -->
      <defs>
       <path d="M 31.78125 66.40625 
Q 24.171875 66.40625 20.328125 58.90625 
Q 16.5 51.421875 16.5 36.375 
Q 16.5 21.390625 20.328125 13.890625 
Q 24.171875 6.390625 31.78125 6.390625 
Q 39.453125 6.390625 43.28125 13.890625 
Q 47.125 21.390625 47.125 36.375 
Q 47.125 51.421875 43.28125 58.90625 
Q 39.453125 66.40625 31.78125 66.40625 
z
M 31.78125 74.21875 
Q 44.046875 74.21875 50.515625 64.515625 
Q 56.984375 54.828125 56.984375 36.375 
Q 56.984375 17.96875 50.515625 8.265625 
Q 44.046875 -1.421875 31.78125 -1.421875 
Q 19.53125 -1.421875 13.0625 8.265625 
Q 6.59375 17.96875 6.59375 36.375 
Q 6.59375 54.828125 13.0625 64.515625 
Q 19.53125 74.21875 31.78125 74.21875 
z
" id="DejaVuSans-30"/>
       <path d="M 10.6875 12.40625 
L 21 12.40625 
L 21 0 
L 10.6875 0 
z
" id="DejaVuSans-2e"/>
       <path d="M 10.796875 72.90625 
L 49.515625 72.90625 
L 49.515625 64.59375 
L 19.828125 64.59375 
L 19.828125 46.734375 
Q 21.96875 47.46875 24.109375 47.828125 
Q 26.265625 48.1875 28.421875 48.1875 
Q 40.625 48.1875 47.75 41.5 
Q 54.890625 34.8125 54.890625 23.390625 
Q 54.890625 11.625 47.5625 5.09375 
Q 40.234375 -1.421875 26.90625 -1.421875 
Q 22.3125 -1.421875 17.546875 -0.640625 
Q 12.796875 0.140625 7.71875 1.703125 
L 7.71875 11.625 
Q 12.109375 9.234375 16.796875 8.0625 
Q 21.484375 6.890625 26.703125 6.890625 
Q 35.15625 6.890625 40.078125 11.328125 
Q 45.015625 15.765625 45.015625 23.390625 
Q 45.015625 31 40.078125 35.4375 
Q 35.15625 39.890625 26.703125 39.890625 
Q 22.75 39.890625 18.8125 39.015625 
Q 14.890625 38.140625 10.796875 36.28125 
z
" id="DejaVuSans-35"/>
      </defs>
      <g style="fill:#d2d2d2;" transform="translate(103.950095 298.098437)scale(0.1 -0.1)">
       <use xlink:href="#DejaVuSans-30"/>
       <use x="63.623047" xlink:href="#DejaVuSans-2e"/>
       <use x="95.410156" xlink:href="#DejaVuSans-30"/>
       <use x="159.033203" xlink:href="#DejaVuSans-35"/>
      </g>
     </g>
    </g>
    <g id="xtick_2">
     <g id="line2d_2">
      <g>
       <use style="fill:#d2d2d2;stroke:#d2d2d2;stroke-width:0.8;" x="173.994307" xlink:href="#m31501cb4db" y="283.5"/>
      </g>
     </g>
     <g id="text_2">
      <!-- 0.10 -->
      <defs>
       <path d="M 12.40625 8.296875 
L 28.515625 8.296875 
L 28.515625 63.921875 
L 10.984375 60.40625 
L 10.984375 69.390625 
L 28.421875 72.90625 
L 38.28125 72.90625 
L 38.28125 8.296875 
L 54.390625 8.296875 
L 54.390625 0 
L 12.40625 0 
z
" id="DejaVuSans-31"/>
      </defs>
      <g style="fill:#d2d2d2;" transform="translate(162.861494 298.098437)scale(0.1 -0.1)">
       <use xlink:href="#DejaVuSans-30"/>
       <use x="63.623047" xlink:href="#DejaVuSans-2e"/>
       <use x="95.410156" xlink:href="#DejaVuSans-31"/>
       <use x="159.033203" xlink:href="#DejaVuSans-30"/>
      </g>
     </g>
    </g>
    <g id="xtick_3">
     <g id="line2d_3">
      <g>
       <use style="fill:#d2d2d2;stroke:#d2d2d2;stroke-width:0.8;" x="232.905707" xlink:href="#m31501cb4db" y="283.5"/>
      </g>
     </g>
     <g id="text_3">
      <!-- 0.15 -->
      <g style="fill:#d2d2d2;" transform="translate(221.772894 298.098437)scale(0.1 -0.1)">
       <use xlink:href="#DejaVuSans-30"/>
       <use x="63.623047" xlink:href="#DejaVuSans-2e"/>
       <use x="95.410156" xlink:href="#DejaVuSans-31"/>
       <use x="159.033203" xlink:href="#DejaVuSans-35"/>
      </g>
     </g>
    </g>
    <g id="xtick_4">
     <g id="line2d_4">
      <g>
       <use style="fill:#d2d2d2;stroke:#d2d2d2;stroke-width:0.8;" x="291.817107" xlink:href="#m31501cb4db" y="283.5"/>
      </g>
     </g>
     <g id="text_4">
      <!-- 0.20 -->
      <defs>
       <path d="M 19.1875 8.296875 
L 53.609375 8.296875 
L 53.609375 0 
L 7.328125 0 
L 7.328125 8.296875 
Q 12.9375 14.109375 22.625 23.890625 
Q 32.328125 33.6875 34.8125 36.53125 
Q 39.546875 41.84375 41.421875 45.53125 
Q 43.3125 49.21875 43.3125 52.78125 
Q 43.3125 58.59375 39.234375 62.25 
Q 35.15625 65.921875 28.609375 65.921875 
Q 23.96875 65.921875 18.8125 64.3125 
Q 13.671875 62.703125 7.8125 59.421875 
L 7.8125 69.390625 
Q 13.765625 71.78125 18.9375 73 
Q 24.125 74.21875 28.421875 74.21875 
Q 39.75 74.21875 46.484375 68.546875 
Q 53.21875 62.890625 53.21875 53.421875 
Q 53.21875 48.921875 51.53125 44.890625 
Q 49.859375 40.875 45.40625 35.40625 
Q 44.1875 33.984375 37.640625 27.21875 
Q 31.109375 20.453125 19.1875 8.296875 
z
" id="DejaVuSans-32"/>
      </defs>
      <g style="fill:#d2d2d2;" transform="translate(280.684294 298.098437)scale(0.1 -0.1)">
       <use xlink:href="#DejaVuSans-30"/>
       <use x="63.623047" xlink:href="#DejaVuSans-2e"/>
       <use x="95.410156" xlink:href="#DejaVuSans-32"/>
       <use x="159.033203" xlink:href="#DejaVuSans-30"/>
      </g>
     </g>
    </g>
    <g id="text_5">
     <!-- Distribution of Your bootstrap means -->
     <defs>
      <path d="M 19.671875 64.796875 
L 19.671875 8.109375 
L 31.59375 8.109375 
Q 46.6875 8.109375 53.6875 14.9375 
Q 60.6875 21.78125 60.6875 36.53125 
Q 60.6875 51.171875 53.6875 57.984375 
Q 46.6875 64.796875 31.59375 64.796875 
z
M 9.8125 72.90625 
L 30.078125 72.90625 
Q 51.265625 72.90625 61.171875 64.09375 
Q 71.09375 55.28125 71.09375 36.53125 
Q 71.09375 17.671875 61.125 8.828125 
Q 51.171875 0 30.078125 0 
L 9.8125 0 
z
" id="DejaVuSans-44"/>
      <path d="M 9.421875 54.6875 
L 18.40625 54.6875 
L 18.40625 0 
L 9.421875 0 
z
M 9.421875 75.984375 
L 18.40625 75.984375 
L 18.40625 64.59375 
L 9.421875 64.59375 
z
" id="DejaVuSans-69"/>
      <path d="M 44.28125 53.078125 
L 44.28125 44.578125 
Q 40.484375 46.53125 36.375 47.5 
Q 32.28125 48.484375 27.875 48.484375 
Q 21.1875 48.484375 17.84375 46.4375 
Q 14.5 44.390625 14.5 40.28125 
Q 14.5 37.15625 16.890625 35.375 
Q 19.28125 33.59375 26.515625 31.984375 
L 29.59375 31.296875 
Q 39.15625 29.25 43.1875 25.515625 
Q 47.21875 21.78125 47.21875 15.09375 
Q 47.21875 7.46875 41.1875 3.015625 
Q 35.15625 -1.421875 24.609375 -1.421875 
Q 20.21875 -1.421875 15.453125 -0.5625 
Q 10.6875 0.296875 5.421875 2 
L 5.421875 11.28125 
Q 10.40625 8.6875 15.234375 7.390625 
Q 20.0625 6.109375 24.8125 6.109375 
Q 31.15625 6.109375 34.5625 8.28125 
Q 37.984375 10.453125 37.984375 14.40625 
Q 37.984375 18.0625 35.515625 20.015625 
Q 33.0625 21.96875 24.703125 23.78125 
L 21.578125 24.515625 
Q 13.234375 26.265625 9.515625 29.90625 
Q 5.8125 33.546875 5.8125 39.890625 
Q 5.8125 47.609375 11.28125 51.796875 
Q 16.75 56 26.8125 56 
Q 31.78125 56 36.171875 55.265625 
Q 40.578125 54.546875 44.28125 53.078125 
z
" id="DejaVuSans-73"/>
      <path d="M 18.3125 70.21875 
L 18.3125 54.6875 
L 36.8125 54.6875 
L 36.8125 47.703125 
L 18.3125 47.703125 
L 18.3125 18.015625 
Q 18.3125 11.328125 20.140625 9.421875 
Q 21.96875 7.515625 27.59375 7.515625 
L 36.8125 7.515625 
L 36.8125 0 
L 27.59375 0 
Q 17.1875 0 13.234375 3.875 
Q 9.28125 7.765625 9.28125 18.015625 
L 9.28125 47.703125 
L 2.6875 47.703125 
L 2.6875 54.6875 
L 9.28125 54.6875 
L 9.28125 70.21875 
z
" id="DejaVuSans-74"/>
      <path d="M 41.109375 46.296875 
Q 39.59375 47.171875 37.8125 47.578125 
Q 36.03125 48 33.890625 48 
Q 26.265625 48 22.1875 43.046875 
Q 18.109375 38.09375 18.109375 28.8125 
L 18.109375 0 
L 9.078125 0 
L 9.078125 54.6875 
L 18.109375 54.6875 
L 18.109375 46.1875 
Q 20.953125 51.171875 25.484375 53.578125 
Q 30.03125 56 36.53125 56 
Q 37.453125 56 38.578125 55.875 
Q 39.703125 55.765625 41.0625 55.515625 
z
" id="DejaVuSans-72"/>
      <path d="M 48.6875 27.296875 
Q 48.6875 37.203125 44.609375 42.84375 
Q 40.53125 48.484375 33.40625 48.484375 
Q 26.265625 48.484375 22.1875 42.84375 
Q 18.109375 37.203125 18.109375 27.296875 
Q 18.109375 17.390625 22.1875 11.75 
Q 26.265625 6.109375 33.40625 6.109375 
Q 40.53125 6.109375 44.609375 11.75 
Q 48.6875 17.390625 48.6875 27.296875 
z
M 18.109375 46.390625 
Q 20.953125 51.265625 25.265625 53.625 
Q 29.59375 56 35.59375 56 
Q 45.5625 56 51.78125 48.09375 
Q 58.015625 40.1875 58.015625 27.296875 
Q 58.015625 14.40625 51.78125 6.484375 
Q 45.5625 -1.421875 35.59375 -1.421875 
Q 29.59375 -1.421875 25.265625 0.953125 
Q 20.953125 3.328125 18.109375 8.203125 
L 18.109375 0 
L 9.078125 0 
L 9.078125 75.984375 
L 18.109375 75.984375 
z
" id="DejaVuSans-62"/>
      <path d="M 8.5 21.578125 
L 8.5 54.6875 
L 17.484375 54.6875 
L 17.484375 21.921875 
Q 17.484375 14.15625 20.5 10.265625 
Q 23.53125 6.390625 29.59375 6.390625 
Q 36.859375 6.390625 41.078125 11.03125 
Q 45.3125 15.671875 45.3125 23.6875 
L 45.3125 54.6875 
L 54.296875 54.6875 
L 54.296875 0 
L 45.3125 0 
L 45.3125 8.40625 
Q 42.046875 3.421875 37.71875 1 
Q 33.40625 -1.421875 27.6875 -1.421875 
Q 18.265625 -1.421875 13.375 4.4375 
Q 8.5 10.296875 8.5 21.578125 
z
M 31.109375 56 
z
" id="DejaVuSans-75"/>
      <path d="M 30.609375 48.390625 
Q 23.390625 48.390625 19.1875 42.75 
Q 14.984375 37.109375 14.984375 27.296875 
Q 14.984375 17.484375 19.15625 11.84375 
Q 23.34375 6.203125 30.609375 6.203125 
Q 37.796875 6.203125 41.984375 11.859375 
Q 46.1875 17.53125 46.1875 27.296875 
Q 46.1875 37.015625 41.984375 42.703125 
Q 37.796875 48.390625 30.609375 48.390625 
z
M 30.609375 56 
Q 42.328125 56 49.015625 48.375 
Q 55.71875 40.765625 55.71875 27.296875 
Q 55.71875 13.875 49.015625 6.21875 
Q 42.328125 -1.421875 30.609375 -1.421875 
Q 18.84375 -1.421875 12.171875 6.21875 
Q 5.515625 13.875 5.515625 27.296875 
Q 5.515625 40.765625 12.171875 48.375 
Q 18.84375 56 30.609375 56 
z
" id="DejaVuSans-6f"/>
      <path d="M 54.890625 33.015625 
L 54.890625 0 
L 45.90625 0 
L 45.90625 32.71875 
Q 45.90625 40.484375 42.875 44.328125 
Q 39.84375 48.1875 33.796875 48.1875 
Q 26.515625 48.1875 22.3125 43.546875 
Q 18.109375 38.921875 18.109375 30.90625 
L 18.109375 0 
L 9.078125 0 
L 9.078125 54.6875 
L 18.109375 54.6875 
L 18.109375 46.1875 
Q 21.34375 51.125 25.703125 53.5625 
Q 30.078125 56 35.796875 56 
Q 45.21875 56 50.046875 50.171875 
Q 54.890625 44.34375 54.890625 33.015625 
z
" id="DejaVuSans-6e"/>
      <path id="DejaVuSans-20"/>
      <path d="M 37.109375 75.984375 
L 37.109375 68.5 
L 28.515625 68.5 
Q 23.6875 68.5 21.796875 66.546875 
Q 19.921875 64.59375 19.921875 59.515625 
L 19.921875 54.6875 
L 34.71875 54.6875 
L 34.71875 47.703125 
L 19.921875 47.703125 
L 19.921875 0 
L 10.890625 0 
L 10.890625 47.703125 
L 2.296875 47.703125 
L 2.296875 54.6875 
L 10.890625 54.6875 
L 10.890625 58.5 
Q 10.890625 67.625 15.140625 71.796875 
Q 19.390625 75.984375 28.609375 75.984375 
z
" id="DejaVuSans-66"/>
      <path d="M -0.203125 72.90625 
L 10.40625 72.90625 
L 30.609375 42.921875 
L 50.6875 72.90625 
L 61.28125 72.90625 
L 35.5 34.71875 
L 35.5 0 
L 25.59375 0 
L 25.59375 34.71875 
z
" id="DejaVuSans-59"/>
      <path d="M 34.28125 27.484375 
Q 23.390625 27.484375 19.1875 25 
Q 14.984375 22.515625 14.984375 16.5 
Q 14.984375 11.71875 18.140625 8.90625 
Q 21.296875 6.109375 26.703125 6.109375 
Q 34.1875 6.109375 38.703125 11.40625 
Q 43.21875 16.703125 43.21875 25.484375 
L 43.21875 27.484375 
z
M 52.203125 31.203125 
L 52.203125 0 
L 43.21875 0 
L 43.21875 8.296875 
Q 40.140625 3.328125 35.546875 0.953125 
Q 30.953125 -1.421875 24.3125 -1.421875 
Q 15.921875 -1.421875 10.953125 3.296875 
Q 6 8.015625 6 15.921875 
Q 6 25.140625 12.171875 29.828125 
Q 18.359375 34.515625 30.609375 34.515625 
L 43.21875 34.515625 
L 43.21875 35.40625 
Q 43.21875 41.609375 39.140625 45 
Q 35.0625 48.390625 27.6875 48.390625 
Q 23 48.390625 18.546875 47.265625 
Q 14.109375 46.140625 10.015625 43.890625 
L 10.015625 52.203125 
Q 14.9375 54.109375 19.578125 55.046875 
Q 24.21875 56 28.609375 56 
Q 40.484375 56 46.34375 49.84375 
Q 52.203125 43.703125 52.203125 31.203125 
z
" id="DejaVuSans-61"/>
      <path d="M 18.109375 8.203125 
L 18.109375 -20.796875 
L 9.078125 -20.796875 
L 9.078125 54.6875 
L 18.109375 54.6875 
L 18.109375 46.390625 
Q 20.953125 51.265625 25.265625 53.625 
Q 29.59375 56 35.59375 56 
Q 45.5625 56 51.78125 48.09375 
Q 58.015625 40.1875 58.015625 27.296875 
Q 58.015625 14.40625 51.78125 6.484375 
Q 45.5625 -1.421875 35.59375 -1.421875 
Q 29.59375 -1.421875 25.265625 0.953125 
Q 20.953125 3.328125 18.109375 8.203125 
z
M 48.6875 27.296875 
Q 48.6875 37.203125 44.609375 42.84375 
Q 40.53125 48.484375 33.40625 48.484375 
Q 26.265625 48.484375 22.1875 42.84375 
Q 18.109375 37.203125 18.109375 27.296875 
Q 18.109375 17.390625 22.1875 11.75 
Q 26.265625 6.109375 33.40625 6.109375 
Q 40.53125 6.109375 44.609375 11.75 
Q 48.6875 17.390625 48.6875 27.296875 
z
" id="DejaVuSans-70"/>
      <path d="M 52 44.1875 
Q 55.375 50.25 60.0625 53.125 
Q 64.75 56 71.09375 56 
Q 79.640625 56 84.28125 50.015625 
Q 88.921875 44.046875 88.921875 33.015625 
L 88.921875 0 
L 79.890625 0 
L 79.890625 32.71875 
Q 79.890625 40.578125 77.09375 44.375 
Q 74.3125 48.1875 68.609375 48.1875 
Q 61.625 48.1875 57.5625 43.546875 
Q 53.515625 38.921875 53.515625 30.90625 
L 53.515625 0 
L 44.484375 0 
L 44.484375 32.71875 
Q 44.484375 40.625 41.703125 44.40625 
Q 38.921875 48.1875 33.109375 48.1875 
Q 26.21875 48.1875 22.15625 43.53125 
Q 18.109375 38.875 18.109375 30.90625 
L 18.109375 0 
L 9.078125 0 
L 9.078125 54.6875 
L 18.109375 54.6875 
L 18.109375 46.1875 
Q 21.1875 51.21875 25.484375 53.609375 
Q 29.78125 56 35.6875 56 
Q 41.65625 56 45.828125 52.96875 
Q 50 49.953125 52 44.1875 
z
" id="DejaVuSans-6d"/>
      <path d="M 56.203125 29.59375 
L 56.203125 25.203125 
L 14.890625 25.203125 
Q 15.484375 15.921875 20.484375 11.0625 
Q 25.484375 6.203125 34.421875 6.203125 
Q 39.59375 6.203125 44.453125 7.46875 
Q 49.3125 8.734375 54.109375 11.28125 
L 54.109375 2.78125 
Q 49.265625 0.734375 44.1875 -0.34375 
Q 39.109375 -1.421875 33.890625 -1.421875 
Q 20.796875 -1.421875 13.15625 6.1875 
Q 5.515625 13.8125 5.515625 26.8125 
Q 5.515625 40.234375 12.765625 48.109375 
Q 20.015625 56 32.328125 56 
Q 43.359375 56 49.78125 48.890625 
Q 56.203125 41.796875 56.203125 29.59375 
z
M 47.21875 32.234375 
Q 47.125 39.59375 43.09375 43.984375 
Q 39.0625 48.390625 32.421875 48.390625 
Q 24.90625 48.390625 20.390625 44.140625 
Q 15.875 39.890625 15.1875 32.171875 
z
" id="DejaVuSans-65"/>
     </defs>
     <g style="fill:#d2d2d2;" transform="translate(124.250213 311.776563)scale(0.1 -0.1)">
      <use xlink:href="#DejaVuSans-44"/>
      <use x="77.001953" xlink:href="#DejaVuSans-69"/>
      <use x="104.785156" xlink:href="#DejaVuSans-73"/>
      <use x="156.884766" xlink:href="#DejaVuSans-74"/>
      <use x="196.09375" xlink:href="#DejaVuSans-72"/>
      <use x="237.207031" xlink:href="#DejaVuSans-69"/>
      <use x="264.990234" xlink:href="#DejaVuSans-62"/>
      <use x="328.466797" xlink:href="#DejaVuSans-75"/>
      <use x="391.845703" xlink:href="#DejaVuSans-74"/>
      <use x="431.054688" xlink:href="#DejaVuSans-69"/>
      <use x="458.837891" xlink:href="#DejaVuSans-6f"/>
      <use x="520.019531" xlink:href="#DejaVuSans-6e"/>
      <use x="583.398438" xlink:href="#DejaVuSans-20"/>
      <use x="615.185547" xlink:href="#DejaVuSans-6f"/>
      <use x="676.367188" xlink:href="#DejaVuSans-66"/>
      <use x="711.572266" xlink:href="#DejaVuSans-20"/>
      <use x="743.359375" xlink:href="#DejaVuSans-59"/>
      <use x="804.240234" xlink:href="#DejaVuSans-6f"/>
      <use x="865.421875" xlink:href="#DejaVuSans-75"/>
      <use x="928.800781" xlink:href="#DejaVuSans-72"/>
      <use x="969.914062" xlink:href="#DejaVuSans-20"/>
      <use x="1001.701172" xlink:href="#DejaVuSans-62"/>
      <use x="1065.177734" xlink:href="#DejaVuSans-6f"/>
      <use x="1126.359375" xlink:href="#DejaVuSans-6f"/>
      <use x="1187.541016" xlink:href="#DejaVuSans-74"/>
      <use x="1226.75" xlink:href="#DejaVuSans-73"/>
      <use x="1278.849609" xlink:href="#DejaVuSans-74"/>
      <use x="1318.058594" xlink:href="#DejaVuSans-72"/>
      <use x="1359.171875" xlink:href="#DejaVuSans-61"/>
      <use x="1420.451172" xlink:href="#DejaVuSans-70"/>
      <use x="1483.927734" xlink:href="#DejaVuSans-20"/>
      <use x="1515.714844" xlink:href="#DejaVuSans-6d"/>
      <use x="1613.126953" xlink:href="#DejaVuSans-65"/>
      <use x="1674.650391" xlink:href="#DejaVuSans-61"/>
      <use x="1735.929688" xlink:href="#DejaVuSans-6e"/>
      <use x="1799.308594" xlink:href="#DejaVuSans-73"/>
     </g>
    </g>
   </g>
   <g id="matplotlib.axis_2"/>
   <g id="line2d_5">
    <path clip-path="url(#pedb0b6395a)" d="M 186.272267 283.5 
L 186.272267 38.88 
" style="fill:none;stroke:#9469ad;stroke-linecap:square;stroke-width:4;"/>
   </g>
   <g id="line2d_6">
    <path clip-path="url(#pedb0b6395a)" d="M 133.134185 283.5 
L 133.134185 38.88 
" style="fill:none;stroke:#e04b4b;stroke-linecap:square;stroke-width:1.5;"/>
   </g>
   <g id="line2d_7">
    <path clip-path="url(#pedb0b6395a)" d="M 253.150374 283.5 
L 253.150374 38.88 
" style="fill:none;stroke:#e04b4b;stroke-linecap:square;stroke-width:1.5;"/>
   </g>
   <g id="patch_18">
    <path d="M 276.229693 55.884678 
Q 232.248891 59.530614 189.3823 63.084183 
" style="fill:none;stroke:#9469ad;stroke-linecap:round;"/>
    <path d="M 196.855101 66.077049 
L 189.3823 63.084183 
L 196.260273 58.901662 
L 196.855101 66.077049 
z
" style="fill:#9469ad;stroke:#9469ad;stroke-linecap:round;"/>
   </g>
   <g id="text_6">
    <!-- $\bar{x}$ = \$110,421 -->
    <defs>
     <path d="M -39.34375 74.515625 
L -10.15625 74.515625 
L -10.15625 67.28125 
L -39.34375 67.28125 
z
" id="DejaVuSans-304"/>
     <path d="M 60.015625 54.6875 
L 34.90625 27.875 
L 50.296875 0 
L 39.984375 0 
L 28.421875 21.6875 
L 8.296875 0 
L -2.59375 0 
L 24.3125 28.8125 
L 10.015625 54.6875 
L 20.3125 54.6875 
L 30.8125 34.90625 
L 49.125 54.6875 
z
" id="DejaVuSans-Oblique-78"/>
     <path d="M 10.59375 45.40625 
L 73.1875 45.40625 
L 73.1875 37.203125 
L 10.59375 37.203125 
z
M 10.59375 25.484375 
L 73.1875 25.484375 
L 73.1875 17.1875 
L 10.59375 17.1875 
z
" id="DejaVuSans-3d"/>
     <path d="M 33.796875 -14.703125 
L 28.90625 -14.703125 
L 28.859375 0 
Q 23.734375 0.09375 18.609375 1.1875 
Q 13.484375 2.296875 8.296875 4.5 
L 8.296875 13.28125 
Q 13.28125 10.15625 18.375 8.5625 
Q 23.484375 6.984375 28.90625 6.9375 
L 28.90625 29.203125 
Q 18.109375 30.953125 13.203125 35.15625 
Q 8.296875 39.359375 8.296875 46.6875 
Q 8.296875 54.640625 13.625 59.21875 
Q 18.953125 63.8125 28.90625 64.5 
L 28.90625 75.984375 
L 33.796875 75.984375 
L 33.796875 64.65625 
Q 38.328125 64.453125 42.578125 63.6875 
Q 46.828125 62.9375 50.875 61.625 
L 50.875 53.078125 
Q 46.828125 55.125 42.546875 56.25 
Q 38.28125 57.375 33.796875 57.5625 
L 33.796875 36.71875 
Q 44.875 35.015625 50.09375 30.609375 
Q 55.328125 26.21875 55.328125 18.609375 
Q 55.328125 10.359375 49.78125 5.59375 
Q 44.234375 0.828125 33.796875 0.09375 
z
M 28.90625 37.59375 
L 28.90625 57.625 
Q 23.25 56.984375 20.265625 54.390625 
Q 17.28125 51.8125 17.28125 47.515625 
Q 17.28125 43.3125 20.03125 40.96875 
Q 22.796875 38.625 28.90625 37.59375 
z
M 33.796875 28.21875 
L 33.796875 7.078125 
Q 39.984375 7.90625 43.140625 10.59375 
Q 46.296875 13.28125 46.296875 17.671875 
Q 46.296875 21.96875 43.28125 24.5 
Q 40.28125 27.046875 33.796875 28.21875 
z
" id="DejaVuSans-24"/>
     <path d="M 11.71875 12.40625 
L 22.015625 12.40625 
L 22.015625 4 
L 14.015625 -11.625 
L 7.71875 -11.625 
L 11.71875 4 
z
" id="DejaVuSans-2c"/>
     <path d="M 37.796875 64.3125 
L 12.890625 25.390625 
L 37.796875 25.390625 
z
M 35.203125 72.90625 
L 47.609375 72.90625 
L 47.609375 25.390625 
L 58.015625 25.390625 
L 58.015625 17.1875 
L 47.609375 17.1875 
L 47.609375 0 
L 37.796875 0 
L 37.796875 17.1875 
L 4.890625 17.1875 
L 4.890625 26.703125 
z
" id="DejaVuSans-34"/>
    </defs>
    <g style="fill:#9469ad;" transform="translate(280.227273 35.260875)scale(0.18 -0.18)">
     <use transform="translate(62.138672 -0.078125)" xlink:href="#DejaVuSans-304"/>
     <use transform="translate(0 0.015625)" xlink:href="#DejaVuSans-Oblique-78"/>
     <use transform="translate(59.179688 0.015625)" xlink:href="#DejaVuSans-20"/>
     <use transform="translate(90.966797 0.015625)" xlink:href="#DejaVuSans-3d"/>
     <use transform="translate(174.755859 0.015625)" xlink:href="#DejaVuSans-20"/>
     <use transform="translate(206.542969 0.015625)" xlink:href="#DejaVuSans-24"/>
     <use transform="translate(270.166016 0.015625)" xlink:href="#DejaVuSans-31"/>
     <use transform="translate(333.789062 0.015625)" xlink:href="#DejaVuSans-31"/>
     <use transform="translate(397.412109 0.015625)" xlink:href="#DejaVuSans-30"/>
     <use transform="translate(461.035156 0.015625)" xlink:href="#DejaVuSans-2c"/>
     <use transform="translate(492.822266 0.015625)" xlink:href="#DejaVuSans-34"/>
     <use transform="translate(556.445312 0.015625)" xlink:href="#DejaVuSans-32"/>
     <use transform="translate(620.068359 0.015625)" xlink:href="#DejaVuSans-31"/>
    </g>
    <!-- N = 10 -->
    <defs>
     <path d="M 9.8125 72.90625 
L 23.09375 72.90625 
L 55.421875 11.921875 
L 55.421875 72.90625 
L 64.984375 72.90625 
L 64.984375 0 
L 51.703125 0 
L 19.390625 60.984375 
L 19.390625 0 
L 9.8125 0 
z
" id="DejaVuSans-4e"/>
    </defs>
    <g style="fill:#9469ad;" transform="translate(280.227273 55.416938)scale(0.18 -0.18)">
     <use xlink:href="#DejaVuSans-4e"/>
     <use x="74.804688" xlink:href="#DejaVuSans-20"/>
     <use x="106.591797" xlink:href="#DejaVuSans-3d"/>
     <use x="190.380859" xlink:href="#DejaVuSans-20"/>
     <use x="222.167969" xlink:href="#DejaVuSans-31"/>
     <use x="285.791016" xlink:href="#DejaVuSans-30"/>
    </g>
    <!-- B = 10,000 -->
    <defs>
     <path d="M 19.671875 34.8125 
L 19.671875 8.109375 
L 35.5 8.109375 
Q 43.453125 8.109375 47.28125 11.40625 
Q 51.125 14.703125 51.125 21.484375 
Q 51.125 28.328125 47.28125 31.5625 
Q 43.453125 34.8125 35.5 34.8125 
z
M 19.671875 64.796875 
L 19.671875 42.828125 
L 34.28125 42.828125 
Q 41.5 42.828125 45.03125 45.53125 
Q 48.578125 48.25 48.578125 53.8125 
Q 48.578125 59.328125 45.03125 62.0625 
Q 41.5 64.796875 34.28125 64.796875 
z
M 9.8125 72.90625 
L 35.015625 72.90625 
Q 46.296875 72.90625 52.390625 68.21875 
Q 58.5 63.53125 58.5 54.890625 
Q 58.5 48.1875 55.375 44.234375 
Q 52.25 40.28125 46.1875 39.3125 
Q 53.46875 37.75 57.5 32.78125 
Q 61.53125 27.828125 61.53125 20.40625 
Q 61.53125 10.640625 54.890625 5.3125 
Q 48.25 0 35.984375 0 
L 9.8125 0 
z
" id="DejaVuSans-42"/>
    </defs>
    <g style="fill:#9469ad;" transform="translate(280.227273 75.573)scale(0.18 -0.18)">
     <use xlink:href="#DejaVuSans-42"/>
     <use x="68.603516" xlink:href="#DejaVuSans-20"/>
     <use x="100.390625" xlink:href="#DejaVuSans-3d"/>
     <use x="184.179688" xlink:href="#DejaVuSans-20"/>
     <use x="215.966797" xlink:href="#DejaVuSans-31"/>
     <use x="279.589844" xlink:href="#DejaVuSans-30"/>
     <use x="343.212891" xlink:href="#DejaVuSans-2c"/>
     <use x="375" xlink:href="#DejaVuSans-30"/>
     <use x="438.623047" xlink:href="#DejaVuSans-30"/>
     <use x="502.246094" xlink:href="#DejaVuSans-30"/>
    </g>
   </g>
   <g id="patch_19">
    <path d="M 273.829729 191.48417 
Q 264.233468 200.129348 255.467868 208.026192 
" style="fill:none;stroke:#e04b4b;stroke-linecap:round;"/>
    <path d="M 260.640493 206.596524 
L 255.467868 208.026192 
L 257.427708 203.030291 
L 260.640493 206.596524 
z
" style="fill:#e04b4b;stroke:#e04b4b;stroke-linecap:round;"/>
   </g>
   <g id="text_7">
    <!-- 95%CI = -->
    <defs>
     <path d="M 10.984375 1.515625 
L 10.984375 10.5 
Q 14.703125 8.734375 18.5 7.8125 
Q 22.3125 6.890625 25.984375 6.890625 
Q 35.75 6.890625 40.890625 13.453125 
Q 46.046875 20.015625 46.78125 33.40625 
Q 43.953125 29.203125 39.59375 26.953125 
Q 35.25 24.703125 29.984375 24.703125 
Q 19.046875 24.703125 12.671875 31.3125 
Q 6.296875 37.9375 6.296875 49.421875 
Q 6.296875 60.640625 12.9375 67.421875 
Q 19.578125 74.21875 30.609375 74.21875 
Q 43.265625 74.21875 49.921875 64.515625 
Q 56.59375 54.828125 56.59375 36.375 
Q 56.59375 19.140625 48.40625 8.859375 
Q 40.234375 -1.421875 26.421875 -1.421875 
Q 22.703125 -1.421875 18.890625 -0.6875 
Q 15.09375 0.046875 10.984375 1.515625 
z
M 30.609375 32.421875 
Q 37.25 32.421875 41.125 36.953125 
Q 45.015625 41.5 45.015625 49.421875 
Q 45.015625 57.28125 41.125 61.84375 
Q 37.25 66.40625 30.609375 66.40625 
Q 23.96875 66.40625 20.09375 61.84375 
Q 16.21875 57.28125 16.21875 49.421875 
Q 16.21875 41.5 20.09375 36.953125 
Q 23.96875 32.421875 30.609375 32.421875 
z
" id="DejaVuSans-39"/>
     <path d="M 72.703125 32.078125 
Q 68.453125 32.078125 66.03125 28.46875 
Q 63.625 24.859375 63.625 18.40625 
Q 63.625 12.0625 66.03125 8.421875 
Q 68.453125 4.78125 72.703125 4.78125 
Q 76.859375 4.78125 79.265625 8.421875 
Q 81.6875 12.0625 81.6875 18.40625 
Q 81.6875 24.8125 79.265625 28.4375 
Q 76.859375 32.078125 72.703125 32.078125 
z
M 72.703125 38.28125 
Q 80.421875 38.28125 84.953125 32.90625 
Q 89.5 27.546875 89.5 18.40625 
Q 89.5 9.28125 84.9375 3.921875 
Q 80.375 -1.421875 72.703125 -1.421875 
Q 64.890625 -1.421875 60.34375 3.921875 
Q 55.8125 9.28125 55.8125 18.40625 
Q 55.8125 27.59375 60.375 32.9375 
Q 64.9375 38.28125 72.703125 38.28125 
z
M 22.3125 68.015625 
Q 18.109375 68.015625 15.6875 64.375 
Q 13.28125 60.75 13.28125 54.390625 
Q 13.28125 47.953125 15.671875 44.328125 
Q 18.0625 40.71875 22.3125 40.71875 
Q 26.5625 40.71875 28.96875 44.328125 
Q 31.390625 47.953125 31.390625 54.390625 
Q 31.390625 60.6875 28.953125 64.34375 
Q 26.515625 68.015625 22.3125 68.015625 
z
M 66.40625 74.21875 
L 74.21875 74.21875 
L 28.609375 -1.421875 
L 20.796875 -1.421875 
z
M 22.3125 74.21875 
Q 30.03125 74.21875 34.609375 68.875 
Q 39.203125 63.53125 39.203125 54.390625 
Q 39.203125 45.171875 34.640625 39.84375 
Q 30.078125 34.515625 22.3125 34.515625 
Q 14.546875 34.515625 10.03125 39.859375 
Q 5.515625 45.21875 5.515625 54.390625 
Q 5.515625 63.484375 10.046875 68.84375 
Q 14.59375 74.21875 22.3125 74.21875 
z
" id="DejaVuSans-25"/>
     <path d="M 64.40625 67.28125 
L 64.40625 56.890625 
Q 59.421875 61.53125 53.78125 63.8125 
Q 48.140625 66.109375 41.796875 66.109375 
Q 29.296875 66.109375 22.65625 58.46875 
Q 16.015625 50.828125 16.015625 36.375 
Q 16.015625 21.96875 22.65625 14.328125 
Q 29.296875 6.6875 41.796875 6.6875 
Q 48.140625 6.6875 53.78125 8.984375 
Q 59.421875 11.28125 64.40625 15.921875 
L 64.40625 5.609375 
Q 59.234375 2.09375 53.4375 0.328125 
Q 47.65625 -1.421875 41.21875 -1.421875 
Q 24.65625 -1.421875 15.125 8.703125 
Q 5.609375 18.84375 5.609375 36.375 
Q 5.609375 53.953125 15.125 64.078125 
Q 24.65625 74.21875 41.21875 74.21875 
Q 47.75 74.21875 53.53125 72.484375 
Q 59.328125 70.75 64.40625 67.28125 
z
" id="DejaVuSans-43"/>
     <path d="M 9.8125 72.90625 
L 19.671875 72.90625 
L 19.671875 0 
L 9.8125 0 
z
" id="DejaVuSans-49"/>
    </defs>
    <g style="fill:#d2d2d2;" transform="translate(229.5 172.214625)scale(0.12 -0.12)">
     <use xlink:href="#DejaVuSans-39"/>
     <use x="63.623047" xlink:href="#DejaVuSans-35"/>
     <use x="127.246094" xlink:href="#DejaVuSans-25"/>
     <use x="222.265625" xlink:href="#DejaVuSans-43"/>
     <use x="292.089844" xlink:href="#DejaVuSans-49"/>
     <use x="321.582031" xlink:href="#DejaVuSans-20"/>
     <use x="353.369141" xlink:href="#DejaVuSans-3d"/>
    </g>
    <!-- ($65,321, $167,182) -->
    <defs>
     <path d="M 31 75.875 
Q 24.46875 64.65625 21.28125 53.65625 
Q 18.109375 42.671875 18.109375 31.390625 
Q 18.109375 20.125 21.3125 9.0625 
Q 24.515625 -2 31 -13.1875 
L 23.1875 -13.1875 
Q 15.875 -1.703125 12.234375 9.375 
Q 8.59375 20.453125 8.59375 31.390625 
Q 8.59375 42.28125 12.203125 53.3125 
Q 15.828125 64.359375 23.1875 75.875 
z
" id="DejaVuSans-28"/>
     <path d="M 33.015625 40.375 
Q 26.375 40.375 22.484375 35.828125 
Q 18.609375 31.296875 18.609375 23.390625 
Q 18.609375 15.53125 22.484375 10.953125 
Q 26.375 6.390625 33.015625 6.390625 
Q 39.65625 6.390625 43.53125 10.953125 
Q 47.40625 15.53125 47.40625 23.390625 
Q 47.40625 31.296875 43.53125 35.828125 
Q 39.65625 40.375 33.015625 40.375 
z
M 52.59375 71.296875 
L 52.59375 62.3125 
Q 48.875 64.0625 45.09375 64.984375 
Q 41.3125 65.921875 37.59375 65.921875 
Q 27.828125 65.921875 22.671875 59.328125 
Q 17.53125 52.734375 16.796875 39.40625 
Q 19.671875 43.65625 24.015625 45.921875 
Q 28.375 48.1875 33.59375 48.1875 
Q 44.578125 48.1875 50.953125 41.515625 
Q 57.328125 34.859375 57.328125 23.390625 
Q 57.328125 12.15625 50.6875 5.359375 
Q 44.046875 -1.421875 33.015625 -1.421875 
Q 20.359375 -1.421875 13.671875 8.265625 
Q 6.984375 17.96875 6.984375 36.375 
Q 6.984375 53.65625 15.1875 63.9375 
Q 23.390625 74.21875 37.203125 74.21875 
Q 40.921875 74.21875 44.703125 73.484375 
Q 48.484375 72.75 52.59375 71.296875 
z
" id="DejaVuSans-36"/>
     <path d="M 40.578125 39.3125 
Q 47.65625 37.796875 51.625 33 
Q 55.609375 28.21875 55.609375 21.1875 
Q 55.609375 10.40625 48.1875 4.484375 
Q 40.765625 -1.421875 27.09375 -1.421875 
Q 22.515625 -1.421875 17.65625 -0.515625 
Q 12.796875 0.390625 7.625 2.203125 
L 7.625 11.71875 
Q 11.71875 9.328125 16.59375 8.109375 
Q 21.484375 6.890625 26.8125 6.890625 
Q 36.078125 6.890625 40.9375 10.546875 
Q 45.796875 14.203125 45.796875 21.1875 
Q 45.796875 27.640625 41.28125 31.265625 
Q 36.765625 34.90625 28.71875 34.90625 
L 20.21875 34.90625 
L 20.21875 43.015625 
L 29.109375 43.015625 
Q 36.375 43.015625 40.234375 45.921875 
Q 44.09375 48.828125 44.09375 54.296875 
Q 44.09375 59.90625 40.109375 62.90625 
Q 36.140625 65.921875 28.71875 65.921875 
Q 24.65625 65.921875 20.015625 65.03125 
Q 15.375 64.15625 9.8125 62.3125 
L 9.8125 71.09375 
Q 15.4375 72.65625 20.34375 73.4375 
Q 25.25 74.21875 29.59375 74.21875 
Q 40.828125 74.21875 47.359375 69.109375 
Q 53.90625 64.015625 53.90625 55.328125 
Q 53.90625 49.265625 50.4375 45.09375 
Q 46.96875 40.921875 40.578125 39.3125 
z
" id="DejaVuSans-33"/>
     <path d="M 8.203125 72.90625 
L 55.078125 72.90625 
L 55.078125 68.703125 
L 28.609375 0 
L 18.3125 0 
L 43.21875 64.59375 
L 8.203125 64.59375 
z
" id="DejaVuSans-37"/>
     <path d="M 31.78125 34.625 
Q 24.75 34.625 20.71875 30.859375 
Q 16.703125 27.09375 16.703125 20.515625 
Q 16.703125 13.921875 20.71875 10.15625 
Q 24.75 6.390625 31.78125 6.390625 
Q 38.8125 6.390625 42.859375 10.171875 
Q 46.921875 13.96875 46.921875 20.515625 
Q 46.921875 27.09375 42.890625 30.859375 
Q 38.875 34.625 31.78125 34.625 
z
M 21.921875 38.8125 
Q 15.578125 40.375 12.03125 44.71875 
Q 8.5 49.078125 8.5 55.328125 
Q 8.5 64.0625 14.71875 69.140625 
Q 20.953125 74.21875 31.78125 74.21875 
Q 42.671875 74.21875 48.875 69.140625 
Q 55.078125 64.0625 55.078125 55.328125 
Q 55.078125 49.078125 51.53125 44.71875 
Q 48 40.375 41.703125 38.8125 
Q 48.828125 37.15625 52.796875 32.3125 
Q 56.78125 27.484375 56.78125 20.515625 
Q 56.78125 9.90625 50.3125 4.234375 
Q 43.84375 -1.421875 31.78125 -1.421875 
Q 19.734375 -1.421875 13.25 4.234375 
Q 6.78125 9.90625 6.78125 20.515625 
Q 6.78125 27.484375 10.78125 32.3125 
Q 14.796875 37.15625 21.921875 38.8125 
z
M 18.3125 54.390625 
Q 18.3125 48.734375 21.84375 45.5625 
Q 25.390625 42.390625 31.78125 42.390625 
Q 38.140625 42.390625 41.71875 45.5625 
Q 45.3125 48.734375 45.3125 54.390625 
Q 45.3125 60.0625 41.71875 63.234375 
Q 38.140625 66.40625 31.78125 66.40625 
Q 25.390625 66.40625 21.84375 63.234375 
Q 18.3125 60.0625 18.3125 54.390625 
z
" id="DejaVuSans-38"/>
     <path d="M 8.015625 75.875 
L 15.828125 75.875 
Q 23.140625 64.359375 26.78125 53.3125 
Q 30.421875 42.28125 30.421875 31.390625 
Q 30.421875 20.453125 26.78125 9.375 
Q 23.140625 -1.703125 15.828125 -13.1875 
L 8.015625 -13.1875 
Q 14.5 -2 17.703125 9.0625 
Q 20.90625 20.125 20.90625 31.390625 
Q 20.90625 42.671875 17.703125 53.65625 
Q 14.5 64.65625 8.015625 75.875 
z
" id="DejaVuSans-29"/>
    </defs>
    <g style="fill:#d2d2d2;" transform="translate(229.5 185.652)scale(0.12 -0.12)">
     <use xlink:href="#DejaVuSans-28"/>
     <use x="39.013672" xlink:href="#DejaVuSans-24"/>
     <use x="102.636719" xlink:href="#DejaVuSans-36"/>
     <use x="166.259766" xlink:href="#DejaVuSans-35"/>
     <use x="229.882812" xlink:href="#DejaVuSans-2c"/>
     <use x="261.669922" xlink:href="#DejaVuSans-33"/>
     <use x="325.292969" xlink:href="#DejaVuSans-32"/>
     <use x="388.916016" xlink:href="#DejaVuSans-31"/>
     <use x="452.539062" xlink:href="#DejaVuSans-2c"/>
     <use x="484.326172" xlink:href="#DejaVuSans-20"/>
     <use x="516.113281" xlink:href="#DejaVuSans-24"/>
     <use x="579.736328" xlink:href="#DejaVuSans-31"/>
     <use x="643.359375" xlink:href="#DejaVuSans-36"/>
     <use x="706.982422" xlink:href="#DejaVuSans-37"/>
     <use x="770.605469" xlink:href="#DejaVuSans-2c"/>
     <use x="802.392578" xlink:href="#DejaVuSans-31"/>
     <use x="866.015625" xlink:href="#DejaVuSans-38"/>
     <use x="929.638672" xlink:href="#DejaVuSans-32"/>
     <use x="993.261719" xlink:href="#DejaVuSans-29"/>
    </g>
   </g>
  </g>
  <g id="axes_2">
   <g id="patch_20">
    <path d="M 394.363636 283.5 
L 648 283.5 
L 648 38.88 
L 394.363636 38.88 
z
" style="fill:none;opacity:0;"/>
   </g>
   <g id="patch_21">
    <path clip-path="url(#pb338dd7efa)" d="M 405.892562 283.5 
L 421.264463 283.5 
L 421.264463 276.600149 
L 405.892562 276.600149 
z
" style="fill:#73b55b;"/>
   </g>
   <g id="patch_22">
    <path clip-path="url(#pb338dd7efa)" d="M 421.264463 283.5 
L 436.636364 283.5 
L 436.636364 249.947785 
L 421.264463 249.947785 
z
" style="fill:#73b55b;"/>
   </g>
   <g id="patch_23">
    <path clip-path="url(#pb338dd7efa)" d="M 436.636364 283.5 
L 452.008264 283.5 
L 452.008264 187.037382 
L 436.636364 187.037382 
z
" style="fill:#73b55b;"/>
   </g>
   <g id="patch_24">
    <path clip-path="url(#pb338dd7efa)" d="M 452.008264 283.5 
L 467.380165 283.5 
L 467.380165 116.28009 
L 452.008264 116.28009 
z
" style="fill:#73b55b;"/>
   </g>
   <g id="patch_25">
    <path clip-path="url(#pb338dd7efa)" d="M 467.380165 283.5 
L 482.752066 283.5 
L 482.752066 58.781334 
L 467.380165 58.781334 
z
" style="fill:#73b55b;"/>
   </g>
   <g id="patch_26">
    <path clip-path="url(#pb338dd7efa)" d="M 482.752066 283.5 
L 498.123967 283.5 
L 498.123967 50.528571 
L 482.752066 50.528571 
z
" style="fill:#73b55b;"/>
   </g>
   <g id="patch_27">
    <path clip-path="url(#pb338dd7efa)" d="M 498.123967 283.5 
L 513.495868 283.5 
L 513.495868 76.910353 
L 498.123967 76.910353 
z
" style="fill:#73b55b;"/>
   </g>
   <g id="patch_28">
    <path clip-path="url(#pb338dd7efa)" d="M 513.495868 283.5 
L 528.867769 283.5 
L 528.867769 115.19776 
L 513.495868 115.19776 
z
" style="fill:#73b55b;"/>
   </g>
   <g id="patch_29">
    <path clip-path="url(#pb338dd7efa)" d="M 528.867769 283.5 
L 544.239669 283.5 
L 544.239669 182.166899 
L 528.867769 182.166899 
z
" style="fill:#73b55b;"/>
   </g>
   <g id="patch_30">
    <path clip-path="url(#pb338dd7efa)" d="M 544.239669 283.5 
L 559.61157 283.5 
L 559.61157 220.454306 
L 544.239669 220.454306 
z
" style="fill:#73b55b;"/>
   </g>
   <g id="patch_31">
    <path clip-path="url(#pb338dd7efa)" d="M 559.61157 283.5 
L 574.983471 283.5 
L 574.983471 253.465356 
L 559.61157 253.465356 
z
" style="fill:#73b55b;"/>
   </g>
   <g id="patch_32">
    <path clip-path="url(#pb338dd7efa)" d="M 574.983471 283.5 
L 590.355372 283.5 
L 590.355372 269.700299 
L 574.983471 269.700299 
z
" style="fill:#73b55b;"/>
   </g>
   <g id="patch_33">
    <path clip-path="url(#pb338dd7efa)" d="M 590.355372 283.5 
L 605.727273 283.5 
L 605.727273 278.223644 
L 590.355372 278.223644 
z
" style="fill:#73b55b;"/>
   </g>
   <g id="patch_34">
    <path clip-path="url(#pb338dd7efa)" d="M 605.727273 283.5 
L 621.099174 283.5 
L 621.099174 281.335341 
L 605.727273 281.335341 
z
" style="fill:#73b55b;"/>
   </g>
   <g id="patch_35">
    <path clip-path="url(#pb338dd7efa)" d="M 621.099174 283.5 
L 636.471074 283.5 
L 636.471074 282.958835 
L 621.099174 282.958835 
z
" style="fill:#73b55b;"/>
   </g>
   <g id="matplotlib.axis_3">
    <g id="xtick_5">
     <g id="line2d_8">
      <g>
       <use style="fill:#d2d2d2;stroke:#d2d2d2;stroke-width:0.8;" x="435.011597" xlink:href="#m31501cb4db" y="283.5"/>
      </g>
     </g>
     <g id="text_8">
      <!-- 0.04 -->
      <g style="fill:#d2d2d2;" transform="translate(423.878785 298.098437)scale(0.1 -0.1)">
       <use xlink:href="#DejaVuSans-30"/>
       <use x="63.623047" xlink:href="#DejaVuSans-2e"/>
       <use x="95.410156" xlink:href="#DejaVuSans-30"/>
       <use x="159.033203" xlink:href="#DejaVuSans-34"/>
      </g>
     </g>
    </g>
    <g id="xtick_6">
     <g id="line2d_9">
      <g>
       <use style="fill:#d2d2d2;stroke:#d2d2d2;stroke-width:0.8;" x="495.807345" xlink:href="#m31501cb4db" y="283.5"/>
      </g>
     </g>
     <g id="text_9">
      <!-- 0.06 -->
      <g style="fill:#d2d2d2;" transform="translate(484.674532 298.098437)scale(0.1 -0.1)">
       <use xlink:href="#DejaVuSans-30"/>
       <use x="63.623047" xlink:href="#DejaVuSans-2e"/>
       <use x="95.410156" xlink:href="#DejaVuSans-30"/>
       <use x="159.033203" xlink:href="#DejaVuSans-36"/>
      </g>
     </g>
    </g>
    <g id="xtick_7">
     <g id="line2d_10">
      <g>
       <use style="fill:#d2d2d2;stroke:#d2d2d2;stroke-width:0.8;" x="556.603093" xlink:href="#m31501cb4db" y="283.5"/>
      </g>
     </g>
     <g id="text_10">
      <!-- 0.08 -->
      <g style="fill:#d2d2d2;" transform="translate(545.47028 298.098437)scale(0.1 -0.1)">
       <use xlink:href="#DejaVuSans-30"/>
       <use x="63.623047" xlink:href="#DejaVuSans-2e"/>
       <use x="95.410156" xlink:href="#DejaVuSans-30"/>
       <use x="159.033203" xlink:href="#DejaVuSans-38"/>
      </g>
     </g>
    </g>
    <g id="xtick_8">
     <g id="line2d_11">
      <g>
       <use style="fill:#d2d2d2;stroke:#d2d2d2;stroke-width:0.8;" x="617.39884" xlink:href="#m31501cb4db" y="283.5"/>
      </g>
     </g>
     <g id="text_11">
      <!-- 0.10 -->
      <g style="fill:#d2d2d2;" transform="translate(606.266028 298.098437)scale(0.1 -0.1)">
       <use xlink:href="#DejaVuSans-30"/>
       <use x="63.623047" xlink:href="#DejaVuSans-2e"/>
       <use x="95.410156" xlink:href="#DejaVuSans-31"/>
       <use x="159.033203" xlink:href="#DejaVuSans-30"/>
      </g>
     </g>
    </g>
    <g id="text_12">
     <!-- Distribution of Your Friend's bootstrap means -->
     <defs>
      <path d="M 9.8125 72.90625 
L 51.703125 72.90625 
L 51.703125 64.59375 
L 19.671875 64.59375 
L 19.671875 43.109375 
L 48.578125 43.109375 
L 48.578125 34.8125 
L 19.671875 34.8125 
L 19.671875 0 
L 9.8125 0 
z
" id="DejaVuSans-46"/>
      <path d="M 45.40625 46.390625 
L 45.40625 75.984375 
L 54.390625 75.984375 
L 54.390625 0 
L 45.40625 0 
L 45.40625 8.203125 
Q 42.578125 3.328125 38.25 0.953125 
Q 33.9375 -1.421875 27.875 -1.421875 
Q 17.96875 -1.421875 11.734375 6.484375 
Q 5.515625 14.40625 5.515625 27.296875 
Q 5.515625 40.1875 11.734375 48.09375 
Q 17.96875 56 27.875 56 
Q 33.9375 56 38.25 53.625 
Q 42.578125 51.265625 45.40625 46.390625 
z
M 14.796875 27.296875 
Q 14.796875 17.390625 18.875 11.75 
Q 22.953125 6.109375 30.078125 6.109375 
Q 37.203125 6.109375 41.296875 11.75 
Q 45.40625 17.390625 45.40625 27.296875 
Q 45.40625 37.203125 41.296875 42.84375 
Q 37.203125 48.484375 30.078125 48.484375 
Q 22.953125 48.484375 18.875 42.84375 
Q 14.796875 37.203125 14.796875 27.296875 
z
" id="DejaVuSans-64"/>
      <path d="M 17.921875 72.90625 
L 17.921875 45.796875 
L 9.625 45.796875 
L 9.625 72.90625 
z
" id="DejaVuSans-27"/>
     </defs>
     <g style="fill:#d2d2d2;" transform="translate(407.311506 311.776563)scale(0.1 -0.1)">
      <use xlink:href="#DejaVuSans-44"/>
      <use x="77.001953" xlink:href="#DejaVuSans-69"/>
      <use x="104.785156" xlink:href="#DejaVuSans-73"/>
      <use x="156.884766" xlink:href="#DejaVuSans-74"/>
      <use x="196.09375" xlink:href="#DejaVuSans-72"/>
      <use x="237.207031" xlink:href="#DejaVuSans-69"/>
      <use x="264.990234" xlink:href="#DejaVuSans-62"/>
      <use x="328.466797" xlink:href="#DejaVuSans-75"/>
      <use x="391.845703" xlink:href="#DejaVuSans-74"/>
      <use x="431.054688" xlink:href="#DejaVuSans-69"/>
      <use x="458.837891" xlink:href="#DejaVuSans-6f"/>
      <use x="520.019531" xlink:href="#DejaVuSans-6e"/>
      <use x="583.398438" xlink:href="#DejaVuSans-20"/>
      <use x="615.185547" xlink:href="#DejaVuSans-6f"/>
      <use x="676.367188" xlink:href="#DejaVuSans-66"/>
      <use x="711.572266" xlink:href="#DejaVuSans-20"/>
      <use x="743.359375" xlink:href="#DejaVuSans-59"/>
      <use x="804.240234" xlink:href="#DejaVuSans-6f"/>
      <use x="865.421875" xlink:href="#DejaVuSans-75"/>
      <use x="928.800781" xlink:href="#DejaVuSans-72"/>
      <use x="969.914062" xlink:href="#DejaVuSans-20"/>
      <use x="1001.701172" xlink:href="#DejaVuSans-46"/>
      <use x="1059.111328" xlink:href="#DejaVuSans-72"/>
      <use x="1100.224609" xlink:href="#DejaVuSans-69"/>
      <use x="1128.007812" xlink:href="#DejaVuSans-65"/>
      <use x="1189.53125" xlink:href="#DejaVuSans-6e"/>
      <use x="1252.910156" xlink:href="#DejaVuSans-64"/>
      <use x="1316.386719" xlink:href="#DejaVuSans-27"/>
      <use x="1343.876953" xlink:href="#DejaVuSans-73"/>
      <use x="1395.976562" xlink:href="#DejaVuSans-20"/>
      <use x="1427.763672" xlink:href="#DejaVuSans-62"/>
      <use x="1491.240234" xlink:href="#DejaVuSans-6f"/>
      <use x="1552.421875" xlink:href="#DejaVuSans-6f"/>
      <use x="1613.603516" xlink:href="#DejaVuSans-74"/>
      <use x="1652.8125" xlink:href="#DejaVuSans-73"/>
      <use x="1704.912109" xlink:href="#DejaVuSans-74"/>
      <use x="1744.121094" xlink:href="#DejaVuSans-72"/>
      <use x="1785.234375" xlink:href="#DejaVuSans-61"/>
      <use x="1846.513672" xlink:href="#DejaVuSans-70"/>
      <use x="1909.990234" xlink:href="#DejaVuSans-20"/>
      <use x="1941.777344" xlink:href="#DejaVuSans-6d"/>
      <use x="2039.189453" xlink:href="#DejaVuSans-65"/>
      <use x="2100.712891" xlink:href="#DejaVuSans-61"/>
      <use x="2161.992188" xlink:href="#DejaVuSans-6e"/>
      <use x="2225.371094" xlink:href="#DejaVuSans-73"/>
     </g>
    </g>
   </g>
   <g id="matplotlib.axis_4"/>
   <g id="line2d_12">
    <path clip-path="url(#pb338dd7efa)" d="M 494.383813 283.5 
L 494.383813 38.88 
" style="fill:none;stroke:#4682b4;stroke-linecap:square;stroke-width:4;"/>
   </g>
   <g id="line2d_13">
    <path clip-path="url(#pb338dd7efa)" d="M 434.869031 283.5 
L 434.869031 38.88 
" style="fill:none;stroke:#e04b4b;stroke-linecap:square;stroke-width:1.5;"/>
   </g>
   <g id="line2d_14">
    <path clip-path="url(#pb338dd7efa)" d="M 567.642689 283.5 
L 567.642689 38.88 
" style="fill:none;stroke:#e04b4b;stroke-linecap:square;stroke-width:1.5;"/>
   </g>
   <g id="patch_36">
    <path d="M 580.600183 55.729383 
Q 538.487875 59.447759 497.489268 63.067799 
" style="fill:none;stroke:#4682b4;stroke-linecap:round;"/>
    <path d="M 504.978 66.020575 
L 497.489268 63.067799 
L 504.344728 58.848478 
L 504.978 66.020575 
z
" style="fill:#4682b4;stroke:#4682b4;stroke-linecap:round;"/>
   </g>
   <g id="text_13">
    <!-- $\bar{x}$ = \$59,532 -->
    <g style="fill:#9469ad;" transform="translate(584.590909 35.260875)scale(0.18 -0.18)">
     <use transform="translate(62.138672 -0.078125)" xlink:href="#DejaVuSans-304"/>
     <use transform="translate(0 0.015625)" xlink:href="#DejaVuSans-Oblique-78"/>
     <use transform="translate(59.179688 0.015625)" xlink:href="#DejaVuSans-20"/>
     <use transform="translate(90.966797 0.015625)" xlink:href="#DejaVuSans-3d"/>
     <use transform="translate(174.755859 0.015625)" xlink:href="#DejaVuSans-20"/>
     <use transform="translate(206.542969 0.015625)" xlink:href="#DejaVuSans-24"/>
     <use transform="translate(270.166016 0.015625)" xlink:href="#DejaVuSans-35"/>
     <use transform="translate(333.710938 0.015625)" xlink:href="#DejaVuSans-39"/>
     <use transform="translate(397.333984 0.015625)" xlink:href="#DejaVuSans-2c"/>
     <use transform="translate(429.121094 0.015625)" xlink:href="#DejaVuSans-35"/>
     <use transform="translate(492.744141 0.015625)" xlink:href="#DejaVuSans-33"/>
     <use transform="translate(556.367188 0.015625)" xlink:href="#DejaVuSans-32"/>
    </g>
    <!-- N = 10 -->
    <g style="fill:#9469ad;" transform="translate(584.590909 55.416938)scale(0.18 -0.18)">
     <use xlink:href="#DejaVuSans-4e"/>
     <use x="74.804688" xlink:href="#DejaVuSans-20"/>
     <use x="106.591797" xlink:href="#DejaVuSans-3d"/>
     <use x="190.380859" xlink:href="#DejaVuSans-20"/>
     <use x="222.167969" xlink:href="#DejaVuSans-31"/>
     <use x="285.791016" xlink:href="#DejaVuSans-30"/>
    </g>
    <!-- B = 10,000 -->
    <g style="fill:#9469ad;" transform="translate(584.590909 75.573)scale(0.18 -0.18)">
     <use xlink:href="#DejaVuSans-42"/>
     <use x="68.603516" xlink:href="#DejaVuSans-20"/>
     <use x="100.390625" xlink:href="#DejaVuSans-3d"/>
     <use x="184.179688" xlink:href="#DejaVuSans-20"/>
     <use x="215.966797" xlink:href="#DejaVuSans-31"/>
     <use x="279.589844" xlink:href="#DejaVuSans-30"/>
     <use x="343.212891" xlink:href="#DejaVuSans-2c"/>
     <use x="375" xlink:href="#DejaVuSans-30"/>
     <use x="438.623047" xlink:href="#DejaVuSans-30"/>
     <use x="502.246094" xlink:href="#DejaVuSans-30"/>
    </g>
   </g>
   <g id="patch_37">
    <path d="M 580.579563 191.781545 
Q 574.688327 200.129839 569.441719 207.564648 
" style="fill:none;stroke:#e04b4b;stroke-linecap:round;"/>
    <path d="M 574.170181 205.026608 
L 569.441719 207.564648 
L 570.248364 202.259055 
L 574.170181 205.026608 
z
" style="fill:#e04b4b;stroke:#e04b4b;stroke-linecap:round;"/>
   </g>
   <g id="text_14">
    <!-- 95%CI = -->
    <g style="fill:#d2d2d2;" transform="translate(533.863636 172.214625)scale(0.12 -0.12)">
     <use xlink:href="#DejaVuSans-39"/>
     <use x="63.623047" xlink:href="#DejaVuSans-35"/>
     <use x="127.246094" xlink:href="#DejaVuSans-25"/>
     <use x="222.265625" xlink:href="#DejaVuSans-43"/>
     <use x="292.089844" xlink:href="#DejaVuSans-49"/>
     <use x="321.582031" xlink:href="#DejaVuSans-20"/>
     <use x="353.369141" xlink:href="#DejaVuSans-3d"/>
    </g>
    <!-- ($39,953, $83,632) -->
    <g style="fill:#d2d2d2;" transform="translate(533.863636 185.652)scale(0.12 -0.12)">
     <use xlink:href="#DejaVuSans-28"/>
     <use x="39.013672" xlink:href="#DejaVuSans-24"/>
     <use x="102.636719" xlink:href="#DejaVuSans-33"/>
     <use x="166.259766" xlink:href="#DejaVuSans-39"/>
     <use x="229.882812" xlink:href="#DejaVuSans-2c"/>
     <use x="261.669922" xlink:href="#DejaVuSans-39"/>
     <use x="325.292969" xlink:href="#DejaVuSans-35"/>
     <use x="388.916016" xlink:href="#DejaVuSans-33"/>
     <use x="452.539062" xlink:href="#DejaVuSans-2c"/>
     <use x="484.326172" xlink:href="#DejaVuSans-20"/>
     <use x="516.113281" xlink:href="#DejaVuSans-24"/>
     <use x="579.736328" xlink:href="#DejaVuSans-38"/>
     <use x="643.359375" xlink:href="#DejaVuSans-33"/>
     <use x="706.982422" xlink:href="#DejaVuSans-2c"/>
     <use x="738.769531" xlink:href="#DejaVuSans-36"/>
     <use x="802.392578" xlink:href="#DejaVuSans-33"/>
     <use x="866.015625" xlink:href="#DejaVuSans-32"/>
     <use x="929.638672" xlink:href="#DejaVuSans-29"/>
    </g>
   </g>
  </g>
 </g>
 <defs>
  <clipPath id="pedb0b6395a">
   <rect height="244.62" width="253.636364" x="90" y="38.88"/>
  </clipPath>
  <clipPath id="pb338dd7efa">
   <rect height="244.62" width="253.636364" x="394.363636" y="38.88"/>
  </clipPath>
 </defs>
</svg>
