<?xml version="1.0" encoding="utf-8" standalone="no"?>
<!DOCTYPE svg PUBLIC "-//W3C//DTD SVG 1.1//EN"
  "http://www.w3.org/Graphics/SVG/1.1/DTD/svg11.dtd">
<!-- Created with matplotlib (http://matplotlib.org/) -->
<svg height="360pt" version="1.1" viewBox="0 0 1008 360" width="1008pt" xmlns="http://www.w3.org/2000/svg" xmlns:xlink="http://www.w3.org/1999/xlink">
 <defs>
  <style type="text/css">
*{stroke-linecap:butt;stroke-linejoin:round;}
  </style>
 </defs>
 <g id="figure_1">
  <g id="patch_1">
   <path d="M 0 360 
L 1008 360 
L 1008 0 
L 0 0 
z
" style="fill:none;"/>
  </g>
  <g id="axes_1">
   <g id="patch_2">
    <path d="M 126 315 
L 765.163636 315 
L 765.163636 43.2 
L 126 43.2 
z
" style="fill:none;"/>
   </g>
   <g id="LineCollection_1">
    <path clip-path="url(#p6180ae5683)" d="M 445.581818 315 
L 445.581818 30.250139 
" style="fill:none;stroke:#a6a6a6;stroke-width:4;"/>
   </g>
   <g id="matplotlib.axis_1">
    <g id="xtick_1">
     <g id="line2d_1">
      <defs>
       <path d="M 0 0 
L 0 3.5 
" id="m3dafaddae8" style="stroke:#d2d2d2;stroke-width:0.8;"/>
      </defs>
      <g>
       <use style="fill:#d2d2d2;stroke:#d2d2d2;stroke-width:0.8;" x="171.654545" xlink:href="#m3dafaddae8" y="315"/>
      </g>
     </g>
     <g id="text_1">
      <!-- -3$\sigma$ -->
      <defs>
       <path d="M 4.890625 31.390625 
L 31.203125 31.390625 
L 31.203125 23.390625 
L 4.890625 23.390625 
z
" id="DejaVuSans-2d"/>
       <path d="M 40.578125 39.3125 
Q 47.65625 37.796875 51.625 33 
Q 55.609375 28.21875 55.609375 21.1875 
Q 55.609375 10.40625 48.1875 4.484375 
Q 40.765625 -1.421875 27.09375 -1.421875 
Q 22.515625 -1.421875 17.65625 -0.515625 
Q 12.796875 0.390625 7.625 2.203125 
L 7.625 11.71875 
Q 11.71875 9.328125 16.59375 8.109375 
Q 21.484375 6.890625 26.8125 6.890625 
Q 36.078125 6.890625 40.9375 10.546875 
Q 45.796875 14.203125 45.796875 21.1875 
Q 45.796875 27.640625 41.28125 31.265625 
Q 36.765625 34.90625 28.71875 34.90625 
L 20.21875 34.90625 
L 20.21875 43.015625 
L 29.109375 43.015625 
Q 36.375 43.015625 40.234375 45.921875 
Q 44.09375 48.828125 44.09375 54.296875 
Q 44.09375 59.90625 40.109375 62.90625 
Q 36.140625 65.921875 28.71875 65.921875 
Q 24.65625 65.921875 20.015625 65.03125 
Q 15.375 64.15625 9.8125 62.3125 
L 9.8125 71.09375 
Q 15.4375 72.65625 20.34375 73.4375 
Q 25.25 74.21875 29.59375 74.21875 
Q 40.828125 74.21875 47.359375 69.109375 
Q 53.90625 64.015625 53.90625 55.328125 
Q 53.90625 49.265625 50.4375 45.09375 
Q 46.96875 40.921875 40.578125 39.3125 
z
" id="DejaVuSans-33"/>
       <path d="M 34.671875 47.5625 
Q 27.25 47.5625 22.21875 42.1875 
Q 16.890625 36.578125 15.140625 27.296875 
Q 13.1875 17.484375 16.3125 11.8125 
Q 19.390625 6.203125 26.65625 6.203125 
Q 33.84375 6.203125 39.109375 11.859375 
Q 44.4375 17.53125 46.34375 27.296875 
Q 48.046875 36.234375 45.015625 42.1875 
Q 42.1875 47.5625 34.671875 47.5625 
z
M 36.078125 54.734375 
L 65.921875 54.6875 
L 64.15625 45.703125 
L 54.109375 45.703125 
Q 57.90625 38.09375 55.859375 27.296875 
Q 53.21875 13.875 45.0625 6.25 
Q 36.859375 -1.421875 25.140625 -1.421875 
Q 13.375 -1.421875 8.203125 6.25 
Q 3.03125 13.875 5.671875 27.296875 
Q 8.25 40.765625 16.40625 48.390625 
Q 23.1875 54.734375 36.078125 54.734375 
z
" id="DejaVuSans-Oblique-3c3"/>
      </defs>
      <g style="fill:#d2d2d2;" transform="translate(155.254545 337.196875)scale(0.2 -0.2)">
       <use transform="translate(0 0.78125)" xlink:href="#DejaVuSans-2d"/>
       <use transform="translate(36.083984 0.78125)" xlink:href="#DejaVuSans-33"/>
       <use transform="translate(99.707031 0.78125)" xlink:href="#DejaVuSans-Oblique-3c3"/>
      </g>
     </g>
    </g>
    <g id="xtick_2">
     <g id="line2d_2">
      <g>
       <use style="fill:#d2d2d2;stroke:#d2d2d2;stroke-width:0.8;" x="262.963636" xlink:href="#m3dafaddae8" y="315"/>
      </g>
     </g>
     <g id="text_2">
      <!-- -2$\sigma$ -->
      <defs>
       <path d="M 19.1875 8.296875 
L 53.609375 8.296875 
L 53.609375 0 
L 7.328125 0 
L 7.328125 8.296875 
Q 12.9375 14.109375 22.625 23.890625 
Q 32.328125 33.6875 34.8125 36.53125 
Q 39.546875 41.84375 41.421875 45.53125 
Q 43.3125 49.21875 43.3125 52.78125 
Q 43.3125 58.59375 39.234375 62.25 
Q 35.15625 65.921875 28.609375 65.921875 
Q 23.96875 65.921875 18.8125 64.3125 
Q 13.671875 62.703125 7.8125 59.421875 
L 7.8125 69.390625 
Q 13.765625 71.78125 18.9375 73 
Q 24.125 74.21875 28.421875 74.21875 
Q 39.75 74.21875 46.484375 68.546875 
Q 53.21875 62.890625 53.21875 53.421875 
Q 53.21875 48.921875 51.53125 44.890625 
Q 49.859375 40.875 45.40625 35.40625 
Q 44.1875 33.984375 37.640625 27.21875 
Q 31.109375 20.453125 19.1875 8.296875 
z
" id="DejaVuSans-32"/>
      </defs>
      <g style="fill:#d2d2d2;" transform="translate(246.563636 337.196875)scale(0.2 -0.2)">
       <use transform="translate(0 0.78125)" xlink:href="#DejaVuSans-2d"/>
       <use transform="translate(36.083984 0.78125)" xlink:href="#DejaVuSans-32"/>
       <use transform="translate(99.707031 0.78125)" xlink:href="#DejaVuSans-Oblique-3c3"/>
      </g>
     </g>
    </g>
    <g id="xtick_3">
     <g id="line2d_3">
      <g>
       <use style="fill:#d2d2d2;stroke:#d2d2d2;stroke-width:0.8;" x="354.272727" xlink:href="#m3dafaddae8" y="315"/>
      </g>
     </g>
     <g id="text_3">
      <!-- -1$\sigma$ -->
      <defs>
       <path d="M 12.40625 8.296875 
L 28.515625 8.296875 
L 28.515625 63.921875 
L 10.984375 60.40625 
L 10.984375 69.390625 
L 28.421875 72.90625 
L 38.28125 72.90625 
L 38.28125 8.296875 
L 54.390625 8.296875 
L 54.390625 0 
L 12.40625 0 
z
" id="DejaVuSans-31"/>
      </defs>
      <g style="fill:#d2d2d2;" transform="translate(337.872727 337.196875)scale(0.2 -0.2)">
       <use transform="translate(0 0.09375)" xlink:href="#DejaVuSans-2d"/>
       <use transform="translate(36.083984 0.09375)" xlink:href="#DejaVuSans-31"/>
       <use transform="translate(99.707031 0.09375)" xlink:href="#DejaVuSans-Oblique-3c3"/>
      </g>
     </g>
    </g>
    <g id="xtick_4">
     <g id="line2d_4">
      <g>
       <use style="fill:#d2d2d2;stroke:#d2d2d2;stroke-width:0.8;" x="445.581818" xlink:href="#m3dafaddae8" y="315"/>
      </g>
     </g>
     <g id="text_4">
      <!-- $\mu$ -->
      <defs>
       <path d="M -1.3125 -20.796875 
L 13.375 54.6875 
L 22.40625 54.6875 
L 15.765625 20.65625 
Q 15.578125 19.625 15.421875 18.359375 
Q 15.28125 17.09375 15.28125 15.828125 
Q 15.28125 11.28125 18.140625 8.828125 
Q 21 6.390625 26.3125 6.390625 
Q 33.546875 6.390625 37.984375 10.484375 
Q 42.4375 14.59375 44 22.796875 
L 50.203125 54.6875 
L 59.1875 54.6875 
L 51.03125 12.640625 
Q 50.828125 11.71875 50.75 11.03125 
Q 50.6875 10.359375 50.6875 9.8125 
Q 50.6875 8.296875 51.296875 7.59375 
Q 51.90625 6.890625 53.21875 6.890625 
Q 53.71875 6.890625 54.5625 7.125 
Q 55.421875 7.375 56.984375 8.015625 
L 55.609375 0.78125 
Q 53.46875 -0.296875 51.515625 -0.859375 
Q 49.5625 -1.421875 47.703125 -1.421875 
Q 44.484375 -1.421875 42.65625 0.625 
Q 40.828125 2.6875 40.828125 6.296875 
Q 38.09375 2.390625 34.296875 0.484375 
Q 30.515625 -1.421875 25.390625 -1.421875 
Q 20.84375 -1.421875 17.453125 0.671875 
Q 14.0625 2.78125 12.984375 6.203125 
L 7.71875 -20.796875 
z
" id="DejaVuSans-Oblique-3bc"/>
      </defs>
      <g style="fill:#d2d2d2;" transform="translate(439.181818 337.15625)scale(0.2 -0.2)">
       <use transform="translate(0 0.3125)" xlink:href="#DejaVuSans-Oblique-3bc"/>
      </g>
     </g>
    </g>
    <g id="xtick_5">
     <g id="line2d_5">
      <g>
       <use style="fill:#d2d2d2;stroke:#d2d2d2;stroke-width:0.8;" x="536.890909" xlink:href="#m3dafaddae8" y="315"/>
      </g>
     </g>
     <g id="text_5">
      <!-- 1$\sigma$ -->
      <g style="fill:#d2d2d2;" transform="translate(524.090909 337.196875)scale(0.2 -0.2)">
       <use transform="translate(0 0.09375)" xlink:href="#DejaVuSans-31"/>
       <use transform="translate(63.623047 0.09375)" xlink:href="#DejaVuSans-Oblique-3c3"/>
      </g>
     </g>
    </g>
    <g id="xtick_6">
     <g id="line2d_6">
      <g>
       <use style="fill:#d2d2d2;stroke:#d2d2d2;stroke-width:0.8;" x="628.2" xlink:href="#m3dafaddae8" y="315"/>
      </g>
     </g>
     <g id="text_6">
      <!-- 2$\sigma$ -->
      <g style="fill:#d2d2d2;" transform="translate(615.4 337.196875)scale(0.2 -0.2)">
       <use transform="translate(0 0.78125)" xlink:href="#DejaVuSans-32"/>
       <use transform="translate(63.623047 0.78125)" xlink:href="#DejaVuSans-Oblique-3c3"/>
      </g>
     </g>
    </g>
    <g id="xtick_7">
     <g id="line2d_7">
      <g>
       <use style="fill:#d2d2d2;stroke:#d2d2d2;stroke-width:0.8;" x="719.509091" xlink:href="#m3dafaddae8" y="315"/>
      </g>
     </g>
     <g id="text_7">
      <!-- 3$\sigma$ -->
      <g style="fill:#d2d2d2;" transform="translate(706.709091 337.196875)scale(0.2 -0.2)">
       <use transform="translate(0 0.78125)" xlink:href="#DejaVuSans-33"/>
       <use transform="translate(63.623047 0.78125)" xlink:href="#DejaVuSans-Oblique-3c3"/>
      </g>
     </g>
    </g>
   </g>
   <g id="matplotlib.axis_2"/>
   <g id="patch_3">
    <path d="M 126 315 
L 765.163636 315 
" style="fill:none;stroke:#d2d2d2;stroke-linecap:square;stroke-linejoin:miter;stroke-width:0.8;"/>
   </g>
   <g id="text_8">
    <!-- $\mu$ -->
    <g style="fill:#d2d2d2;" transform="translate(437.901818 17.306963)scale(0.24 -0.24)">
     <use transform="translate(0 0.3125)" xlink:href="#DejaVuSans-Oblique-3bc"/>
    </g>
   </g>
   <g id="text_9">
    <!-- Population: -->
    <defs>
     <path d="M 19.671875 64.796875 
L 19.671875 37.40625 
L 32.078125 37.40625 
Q 38.96875 37.40625 42.71875 40.96875 
Q 46.484375 44.53125 46.484375 51.125 
Q 46.484375 57.671875 42.71875 61.234375 
Q 38.96875 64.796875 32.078125 64.796875 
z
M 9.8125 72.90625 
L 32.078125 72.90625 
Q 44.34375 72.90625 50.609375 67.359375 
Q 56.890625 61.8125 56.890625 51.125 
Q 56.890625 40.328125 50.609375 34.8125 
Q 44.34375 29.296875 32.078125 29.296875 
L 19.671875 29.296875 
L 19.671875 0 
L 9.8125 0 
z
" id="DejaVuSans-50"/>
     <path d="M 30.609375 48.390625 
Q 23.390625 48.390625 19.1875 42.75 
Q 14.984375 37.109375 14.984375 27.296875 
Q 14.984375 17.484375 19.15625 11.84375 
Q 23.34375 6.203125 30.609375 6.203125 
Q 37.796875 6.203125 41.984375 11.859375 
Q 46.1875 17.53125 46.1875 27.296875 
Q 46.1875 37.015625 41.984375 42.703125 
Q 37.796875 48.390625 30.609375 48.390625 
z
M 30.609375 56 
Q 42.328125 56 49.015625 48.375 
Q 55.71875 40.765625 55.71875 27.296875 
Q 55.71875 13.875 49.015625 6.21875 
Q 42.328125 -1.421875 30.609375 -1.421875 
Q 18.84375 -1.421875 12.171875 6.21875 
Q 5.515625 13.875 5.515625 27.296875 
Q 5.515625 40.765625 12.171875 48.375 
Q 18.84375 56 30.609375 56 
z
" id="DejaVuSans-6f"/>
     <path d="M 18.109375 8.203125 
L 18.109375 -20.796875 
L 9.078125 -20.796875 
L 9.078125 54.6875 
L 18.109375 54.6875 
L 18.109375 46.390625 
Q 20.953125 51.265625 25.265625 53.625 
Q 29.59375 56 35.59375 56 
Q 45.5625 56 51.78125 48.09375 
Q 58.015625 40.1875 58.015625 27.296875 
Q 58.015625 14.40625 51.78125 6.484375 
Q 45.5625 -1.421875 35.59375 -1.421875 
Q 29.59375 -1.421875 25.265625 0.953125 
Q 20.953125 3.328125 18.109375 8.203125 
z
M 48.6875 27.296875 
Q 48.6875 37.203125 44.609375 42.84375 
Q 40.53125 48.484375 33.40625 48.484375 
Q 26.265625 48.484375 22.1875 42.84375 
Q 18.109375 37.203125 18.109375 27.296875 
Q 18.109375 17.390625 22.1875 11.75 
Q 26.265625 6.109375 33.40625 6.109375 
Q 40.53125 6.109375 44.609375 11.75 
Q 48.6875 17.390625 48.6875 27.296875 
z
" id="DejaVuSans-70"/>
     <path d="M 8.5 21.578125 
L 8.5 54.6875 
L 17.484375 54.6875 
L 17.484375 21.921875 
Q 17.484375 14.15625 20.5 10.265625 
Q 23.53125 6.390625 29.59375 6.390625 
Q 36.859375 6.390625 41.078125 11.03125 
Q 45.3125 15.671875 45.3125 23.6875 
L 45.3125 54.6875 
L 54.296875 54.6875 
L 54.296875 0 
L 45.3125 0 
L 45.3125 8.40625 
Q 42.046875 3.421875 37.71875 1 
Q 33.40625 -1.421875 27.6875 -1.421875 
Q 18.265625 -1.421875 13.375 4.4375 
Q 8.5 10.296875 8.5 21.578125 
z
M 31.109375 56 
z
" id="DejaVuSans-75"/>
     <path d="M 9.421875 75.984375 
L 18.40625 75.984375 
L 18.40625 0 
L 9.421875 0 
z
" id="DejaVuSans-6c"/>
     <path d="M 34.28125 27.484375 
Q 23.390625 27.484375 19.1875 25 
Q 14.984375 22.515625 14.984375 16.5 
Q 14.984375 11.71875 18.140625 8.90625 
Q 21.296875 6.109375 26.703125 6.109375 
Q 34.1875 6.109375 38.703125 11.40625 
Q 43.21875 16.703125 43.21875 25.484375 
L 43.21875 27.484375 
z
M 52.203125 31.203125 
L 52.203125 0 
L 43.21875 0 
L 43.21875 8.296875 
Q 40.140625 3.328125 35.546875 0.953125 
Q 30.953125 -1.421875 24.3125 -1.421875 
Q 15.921875 -1.421875 10.953125 3.296875 
Q 6 8.015625 6 15.921875 
Q 6 25.140625 12.171875 29.828125 
Q 18.359375 34.515625 30.609375 34.515625 
L 43.21875 34.515625 
L 43.21875 35.40625 
Q 43.21875 41.609375 39.140625 45 
Q 35.0625 48.390625 27.6875 48.390625 
Q 23 48.390625 18.546875 47.265625 
Q 14.109375 46.140625 10.015625 43.890625 
L 10.015625 52.203125 
Q 14.9375 54.109375 19.578125 55.046875 
Q 24.21875 56 28.609375 56 
Q 40.484375 56 46.34375 49.84375 
Q 52.203125 43.703125 52.203125 31.203125 
z
" id="DejaVuSans-61"/>
     <path d="M 18.3125 70.21875 
L 18.3125 54.6875 
L 36.8125 54.6875 
L 36.8125 47.703125 
L 18.3125 47.703125 
L 18.3125 18.015625 
Q 18.3125 11.328125 20.140625 9.421875 
Q 21.96875 7.515625 27.59375 7.515625 
L 36.8125 7.515625 
L 36.8125 0 
L 27.59375 0 
Q 17.1875 0 13.234375 3.875 
Q 9.28125 7.765625 9.28125 18.015625 
L 9.28125 47.703125 
L 2.6875 47.703125 
L 2.6875 54.6875 
L 9.28125 54.6875 
L 9.28125 70.21875 
z
" id="DejaVuSans-74"/>
     <path d="M 9.421875 54.6875 
L 18.40625 54.6875 
L 18.40625 0 
L 9.421875 0 
z
M 9.421875 75.984375 
L 18.40625 75.984375 
L 18.40625 64.59375 
L 9.421875 64.59375 
z
" id="DejaVuSans-69"/>
     <path d="M 54.890625 33.015625 
L 54.890625 0 
L 45.90625 0 
L 45.90625 32.71875 
Q 45.90625 40.484375 42.875 44.328125 
Q 39.84375 48.1875 33.796875 48.1875 
Q 26.515625 48.1875 22.3125 43.546875 
Q 18.109375 38.921875 18.109375 30.90625 
L 18.109375 0 
L 9.078125 0 
L 9.078125 54.6875 
L 18.109375 54.6875 
L 18.109375 46.1875 
Q 21.34375 51.125 25.703125 53.5625 
Q 30.078125 56 35.796875 56 
Q 45.21875 56 50.046875 50.171875 
Q 54.890625 44.34375 54.890625 33.015625 
z
" id="DejaVuSans-6e"/>
     <path d="M 11.71875 12.40625 
L 22.015625 12.40625 
L 22.015625 0 
L 11.71875 0 
z
M 11.71875 51.703125 
L 22.015625 51.703125 
L 22.015625 39.3125 
L 11.71875 39.3125 
z
" id="DejaVuSans-3a"/>
    </defs>
    <g style="fill:#88c9c1;" transform="translate(171.654545 129.996813)scale(0.25 -0.25)">
     <use xlink:href="#DejaVuSans-50"/>
     <use x="60.255859" xlink:href="#DejaVuSans-6f"/>
     <use x="121.4375" xlink:href="#DejaVuSans-70"/>
     <use x="184.914062" xlink:href="#DejaVuSans-75"/>
     <use x="248.292969" xlink:href="#DejaVuSans-6c"/>
     <use x="276.076172" xlink:href="#DejaVuSans-61"/>
     <use x="337.355469" xlink:href="#DejaVuSans-74"/>
     <use x="376.564453" xlink:href="#DejaVuSans-69"/>
     <use x="404.347656" xlink:href="#DejaVuSans-6f"/>
     <use x="465.529297" xlink:href="#DejaVuSans-6e"/>
     <use x="528.908203" xlink:href="#DejaVuSans-3a"/>
    </g>
    <!-- $\mu=$0, $\sigma=$1 -->
    <defs>
     <path d="M 10.59375 45.40625 
L 73.1875 45.40625 
L 73.1875 37.203125 
L 10.59375 37.203125 
z
M 10.59375 25.484375 
L 73.1875 25.484375 
L 73.1875 17.1875 
L 10.59375 17.1875 
z
" id="DejaVuSans-3d"/>
     <path d="M 31.78125 66.40625 
Q 24.171875 66.40625 20.328125 58.90625 
Q 16.5 51.421875 16.5 36.375 
Q 16.5 21.390625 20.328125 13.890625 
Q 24.171875 6.390625 31.78125 6.390625 
Q 39.453125 6.390625 43.28125 13.890625 
Q 47.125 21.390625 47.125 36.375 
Q 47.125 51.421875 43.28125 58.90625 
Q 39.453125 66.40625 31.78125 66.40625 
z
M 31.78125 74.21875 
Q 44.046875 74.21875 50.515625 64.515625 
Q 56.984375 54.828125 56.984375 36.375 
Q 56.984375 17.96875 50.515625 8.265625 
Q 44.046875 -1.421875 31.78125 -1.421875 
Q 19.53125 -1.421875 13.0625 8.265625 
Q 6.59375 17.96875 6.59375 36.375 
Q 6.59375 54.828125 13.0625 64.515625 
Q 19.53125 74.21875 31.78125 74.21875 
z
" id="DejaVuSans-30"/>
     <path d="M 11.71875 12.40625 
L 22.015625 12.40625 
L 22.015625 4 
L 14.015625 -11.625 
L 7.71875 -11.625 
L 11.71875 4 
z
" id="DejaVuSans-2c"/>
     <path id="DejaVuSans-20"/>
    </defs>
    <g style="fill:#88c9c1;" transform="translate(171.654545 157.991344)scale(0.25 -0.25)">
     <use transform="translate(0 0.78125)" xlink:href="#DejaVuSans-Oblique-3bc"/>
     <use transform="translate(83.105469 0.78125)" xlink:href="#DejaVuSans-3d"/>
     <use transform="translate(186.376953 0.78125)" xlink:href="#DejaVuSans-30"/>
     <use transform="translate(250 0.78125)" xlink:href="#DejaVuSans-2c"/>
     <use transform="translate(281.787109 0.78125)" xlink:href="#DejaVuSans-20"/>
     <use transform="translate(313.574219 0.78125)" xlink:href="#DejaVuSans-Oblique-3c3"/>
     <use transform="translate(396.435547 0.78125)" xlink:href="#DejaVuSans-3d"/>
     <use transform="translate(499.707031 0.78125)" xlink:href="#DejaVuSans-31"/>
    </g>
   </g>
   <g id="PolyCollection_1">
    <defs>
     <path d="M 126 -45 
L 126 -45.566262 
L 127.280889 -45.594699 
L 128.561778 -45.624442 
L 129.842667 -45.655544 
L 131.123556 -45.688059 
L 132.404445 -45.722045 
L 133.685334 -45.75756 
L 134.966223 -45.794666 
L 136.247112 -45.833426 
L 137.528001 -45.873904 
L 138.808891 -45.916167 
L 140.08978 -45.960286 
L 141.370669 -46.006331 
L 142.651558 -46.054376 
L 143.932447 -46.104498 
L 145.213336 -46.156774 
L 146.494225 -46.211287 
L 147.775114 -46.268119 
L 149.056003 -46.327356 
L 150.336892 -46.389087 
L 151.617781 -46.453403 
L 152.89867 -46.520397 
L 154.179559 -46.590167 
L 155.460448 -46.662811 
L 156.741337 -46.738431 
L 158.022226 -46.817133 
L 159.303115 -46.899024 
L 160.584004 -46.984215 
L 161.864893 -47.07282 
L 163.145782 -47.164956 
L 164.426672 -47.260742 
L 165.707561 -47.360301 
L 166.98845 -47.46376 
L 168.269339 -47.571248 
L 169.550228 -47.682897 
L 170.831117 -47.798843 
L 172.112006 -47.919226 
L 173.392895 -48.044187 
L 174.673784 -48.173873 
L 175.954673 -48.308433 
L 177.235562 -48.448018 
L 178.516451 -48.592786 
L 179.79734 -48.742896 
L 181.078229 -48.89851 
L 182.359118 -49.059795 
L 183.640007 -49.22692 
L 184.920896 -49.400059 
L 186.201785 -49.579389 
L 187.482674 -49.76509 
L 188.763563 -49.957346 
L 190.044453 -50.156344 
L 191.325342 -50.362275 
L 192.606231 -50.575333 
L 193.88712 -50.795715 
L 195.168009 -51.023624 
L 196.448898 -51.259263 
L 197.729787 -51.502839 
L 199.010676 -51.754566 
L 200.291565 -52.014656 
L 201.572454 -52.283328 
L 202.853343 -52.560802 
L 204.134232 -52.847303 
L 205.415121 -53.143058 
L 206.69601 -53.448296 
L 207.976899 -53.763252 
L 209.257788 -54.08816 
L 210.538677 -54.423261 
L 211.819566 -54.768795 
L 213.100455 -55.125006 
L 214.381345 -55.492142 
L 215.662234 -55.87045 
L 216.943123 -56.260183 
L 218.224012 -56.661594 
L 219.504901 -57.074937 
L 220.78579 -57.500472 
L 222.066679 -57.938457 
L 223.347568 -58.389152 
L 224.628457 -58.852821 
L 225.909346 -59.329726 
L 227.190235 -59.820133 
L 228.471124 -60.324308 
L 229.752013 -60.842516 
L 231.032902 -61.375025 
L 232.313791 -61.922103 
L 233.59468 -62.484017 
L 234.875569 -63.061036 
L 236.156458 -63.653427 
L 237.437347 -64.261457 
L 238.718236 -64.885393 
L 239.999126 -65.525501 
L 241.280015 -66.182044 
L 242.560904 -66.855288 
L 243.841793 -67.545492 
L 245.122682 -68.252917 
L 246.403571 -68.977821 
L 247.68446 -69.720458 
L 248.965349 -70.481081 
L 250.246238 -71.259939 
L 251.527127 -72.05728 
L 252.808016 -72.873344 
L 254.088905 -73.708372 
L 255.369794 -74.562597 
L 256.650683 -75.43625 
L 257.931572 -76.329556 
L 259.212461 -77.242735 
L 260.49335 -78.176001 
L 261.774239 -79.129564 
L 263.055128 -80.103626 
L 264.336017 -81.098384 
L 265.616907 -82.114027 
L 266.897796 -83.150737 
L 268.178685 -84.208689 
L 269.459574 -85.28805 
L 270.740463 -86.388978 
L 272.021352 -87.511625 
L 273.302241 -88.656131 
L 274.58313 -89.822628 
L 275.864019 -91.011239 
L 277.144908 -92.222075 
L 278.425797 -93.455241 
L 279.706686 -94.710825 
L 280.987575 -95.98891 
L 282.268464 -97.289564 
L 283.549353 -98.612845 
L 284.830242 -99.958797 
L 286.111131 -101.327454 
L 287.39202 -102.718836 
L 288.672909 -104.13295 
L 289.953799 -105.569788 
L 291.234688 -107.029332 
L 292.515577 -108.511547 
L 293.796466 -110.016385 
L 295.077355 -111.543782 
L 296.358244 -113.09366 
L 297.639133 -114.665926 
L 298.920022 -116.26047 
L 300.200911 -117.877169 
L 301.4818 -119.51588 
L 302.762689 -121.176448 
L 304.043578 -122.858698 
L 305.324467 -124.56244 
L 306.605356 -126.287466 
L 307.886245 -128.033551 
L 309.167134 -129.800454 
L 310.448023 -131.587915 
L 311.728912 -133.395655 
L 313.009801 -135.223381 
L 314.29069 -137.070777 
L 315.57158 -138.937513 
L 316.852469 -140.823238 
L 318.133358 -142.727585 
L 319.414247 -144.650166 
L 320.695136 -146.590576 
L 321.976025 -148.548391 
L 323.256914 -150.523169 
L 324.537803 -152.514449 
L 325.818692 -154.521751 
L 327.099581 -156.544576 
L 328.38047 -158.582409 
L 329.661359 -160.634713 
L 330.942248 -162.700937 
L 332.223137 -164.780507 
L 333.504026 -166.872834 
L 334.784915 -168.977311 
L 336.065804 -171.093311 
L 337.346693 -173.220192 
L 338.627582 -175.357294 
L 339.908471 -177.503937 
L 341.189361 -179.659429 
L 342.47025 -181.823057 
L 343.751139 -183.994094 
L 345.032028 -186.171797 
L 346.312917 -188.355406 
L 347.593806 -190.544147 
L 348.874695 -192.737229 
L 350.155584 -194.933849 
L 351.436473 -197.133189 
L 352.717362 -199.334417 
L 353.998251 -201.536687 
L 355.27914 -203.739142 
L 356.560029 -205.940911 
L 357.840918 -208.141111 
L 359.121807 -210.338851 
L 360.402696 -212.533227 
L 361.683585 -214.723323 
L 362.964474 -216.908217 
L 364.245363 -219.086976 
L 365.526253 -221.258661 
L 366.807142 -223.422322 
L 368.088031 -225.577004 
L 369.36892 -227.721746 
L 370.649809 -229.855581 
L 371.930698 -231.977537 
L 373.211587 -234.086638 
L 374.492476 -236.181903 
L 375.773365 -238.262351 
L 377.054254 -240.326996 
L 378.335143 -242.374855 
L 379.616032 -244.404939 
L 380.896921 -246.416264 
L 382.17781 -248.407844 
L 383.458699 -250.378698 
L 384.739588 -252.327843 
L 386.020477 -254.254305 
L 387.301366 -256.157111 
L 388.582255 -258.035292 
L 389.863144 -259.887888 
L 391.144034 -261.713945 
L 392.424923 -263.512514 
L 393.705812 -265.282656 
L 394.986701 -267.023444 
L 396.26759 -268.733955 
L 397.548479 -270.413282 
L 398.829368 -272.060528 
L 400.110257 -273.674806 
L 401.391146 -275.255245 
L 402.672035 -276.800987 
L 403.952924 -278.31119 
L 405.233813 -279.785024 
L 406.514702 -281.221679 
L 407.795591 -282.620359 
L 409.07648 -283.980289 
L 410.357369 -285.300709 
L 411.638258 -286.58088 
L 412.919147 -287.820083 
L 414.200036 -289.017619 
L 415.480925 -290.172808 
L 416.761815 -291.284997 
L 418.042704 -292.35355 
L 419.323593 -293.377857 
L 420.604482 -294.35733 
L 421.885371 -295.291408 
L 423.16626 -296.179551 
L 424.447149 -297.021246 
L 425.728038 -297.816006 
L 427.008927 -298.563369 
L 428.289816 -299.262902 
L 429.570705 -299.914196 
L 430.851594 -300.516871 
L 432.132483 -301.070574 
L 433.413372 -301.574983 
L 434.694261 -302.029799 
L 435.97515 -302.434758 
L 437.256039 -302.78962 
L 438.536928 -303.094176 
L 439.817817 -303.348248 
L 441.098707 -303.551686 
L 442.379596 -303.704369 
L 443.660485 -303.806208 
L 444.941374 -303.857143 
L 446.222263 -303.857143 
L 447.503152 -303.806208 
L 448.784041 -303.704369 
L 450.06493 -303.551686 
L 451.345819 -303.348248 
L 452.626708 -303.094176 
L 453.907597 -302.78962 
L 455.188486 -302.434758 
L 456.469375 -302.029799 
L 457.750264 -301.574983 
L 459.031153 -301.070574 
L 460.312042 -300.516871 
L 461.592931 -299.914196 
L 462.87382 -299.262902 
L 464.154709 -298.563369 
L 465.435598 -297.816006 
L 466.716488 -297.021246 
L 467.997377 -296.179551 
L 469.278266 -295.291408 
L 470.559155 -294.35733 
L 471.840044 -293.377857 
L 473.120933 -292.35355 
L 474.401822 -291.284997 
L 475.682711 -290.172808 
L 476.9636 -289.017619 
L 478.244489 -287.820083 
L 479.525378 -286.58088 
L 480.806267 -285.300709 
L 482.087156 -283.980289 
L 483.368045 -282.620359 
L 484.648934 -281.221679 
L 485.929823 -279.785024 
L 487.210712 -278.31119 
L 488.491601 -276.800987 
L 489.77249 -275.255245 
L 491.053379 -273.674806 
L 492.334269 -272.060528 
L 493.615158 -270.413282 
L 494.896047 -268.733955 
L 496.176936 -267.023444 
L 497.457825 -265.282656 
L 498.738714 -263.512514 
L 500.019603 -261.713945 
L 501.300492 -259.887888 
L 502.581381 -258.035292 
L 503.86227 -256.157111 
L 505.143159 -254.254305 
L 506.424048 -252.327843 
L 507.704937 -250.378698 
L 508.985826 -248.407844 
L 510.266715 -246.416264 
L 511.547604 -244.404939 
L 512.828493 -242.374855 
L 514.109382 -240.326996 
L 515.390271 -238.262351 
L 516.671161 -236.181903 
L 517.95205 -234.086638 
L 519.232939 -231.977537 
L 520.513828 -229.855581 
L 521.794717 -227.721746 
L 523.075606 -225.577004 
L 524.356495 -223.422322 
L 525.637384 -221.258661 
L 526.918273 -219.086976 
L 528.199162 -216.908217 
L 529.480051 -214.723323 
L 530.76094 -212.533227 
L 532.041829 -210.338851 
L 533.322718 -208.141111 
L 534.603607 -205.940911 
L 535.884496 -203.739142 
L 537.165385 -201.536687 
L 538.446274 -199.334417 
L 539.727163 -197.133189 
L 541.008052 -194.933849 
L 542.288942 -192.737229 
L 543.569831 -190.544147 
L 544.85072 -188.355406 
L 546.131609 -186.171797 
L 547.412498 -183.994094 
L 548.693387 -181.823057 
L 549.974276 -179.659429 
L 551.255165 -177.503937 
L 552.536054 -175.357294 
L 553.816943 -173.220192 
L 555.097832 -171.093311 
L 556.378721 -168.977311 
L 557.65961 -166.872834 
L 558.940499 -164.780507 
L 560.221388 -162.700937 
L 561.502277 -160.634713 
L 562.783166 -158.582409 
L 564.064055 -156.544576 
L 565.344944 -154.521751 
L 566.625833 -152.514449 
L 567.906723 -150.523169 
L 569.187612 -148.548391 
L 570.468501 -146.590576 
L 571.74939 -144.650166 
L 573.030279 -142.727585 
L 574.311168 -140.823238 
L 575.592057 -138.937513 
L 576.872946 -137.070777 
L 578.153835 -135.223381 
L 579.434724 -133.395655 
L 580.715613 -131.587915 
L 581.996502 -129.800454 
L 583.277391 -128.033551 
L 584.55828 -126.287466 
L 585.839169 -124.56244 
L 587.120058 -122.858698 
L 588.400947 -121.176448 
L 589.681836 -119.51588 
L 590.962725 -117.877169 
L 592.243615 -116.26047 
L 593.524504 -114.665926 
L 594.805393 -113.09366 
L 596.086282 -111.543782 
L 597.367171 -110.016385 
L 598.64806 -108.511547 
L 599.928949 -107.029332 
L 601.209838 -105.569788 
L 602.490727 -104.13295 
L 603.771616 -102.718836 
L 605.052505 -101.327454 
L 606.333394 -99.958797 
L 607.614283 -98.612845 
L 608.895172 -97.289564 
L 610.176061 -95.98891 
L 611.45695 -94.710825 
L 612.737839 -93.455241 
L 614.018728 -92.222075 
L 615.299617 -91.011239 
L 616.580506 -89.822628 
L 617.861396 -88.656131 
L 619.142285 -87.511625 
L 620.423174 -86.388978 
L 621.704063 -85.28805 
L 622.984952 -84.208689 
L 624.265841 -83.150737 
L 625.54673 -82.114027 
L 626.827619 -81.098384 
L 628.108508 -80.103626 
L 629.389397 -79.129564 
L 630.670286 -78.176001 
L 631.951175 -77.242735 
L 633.232064 -76.329556 
L 634.512953 -75.43625 
L 635.793842 -74.562597 
L 637.074731 -73.708372 
L 638.35562 -72.873344 
L 639.636509 -72.05728 
L 640.917398 -71.259939 
L 642.198287 -70.481081 
L 643.479177 -69.720458 
L 644.760066 -68.977821 
L 646.040955 -68.252917 
L 647.321844 -67.545492 
L 648.602733 -66.855288 
L 649.883622 -66.182044 
L 651.164511 -65.525501 
L 652.4454 -64.885393 
L 653.726289 -64.261457 
L 655.007178 -63.653427 
L 656.288067 -63.061036 
L 657.568956 -62.484017 
L 658.849845 -61.922103 
L 660.130734 -61.375025 
L 661.411623 -60.842516 
L 662.692512 -60.324308 
L 663.973401 -59.820133 
L 665.25429 -59.329726 
L 666.535179 -58.852821 
L 667.816069 -58.389152 
L 669.096958 -57.938457 
L 670.377847 -57.500472 
L 671.658736 -57.074937 
L 672.939625 -56.661594 
L 674.220514 -56.260183 
L 675.501403 -55.87045 
L 676.782292 -55.492142 
L 678.063181 -55.125006 
L 679.34407 -54.768795 
L 680.624959 -54.423261 
L 681.905848 -54.08816 
L 683.186737 -53.763252 
L 684.467626 -53.448296 
L 685.748515 -53.143058 
L 687.029404 -52.847303 
L 688.310293 -52.560802 
L 689.591182 -52.283328 
L 690.872071 -52.014656 
L 692.15296 -51.754566 
L 693.43385 -51.502839 
L 694.714739 -51.259263 
L 695.995628 -51.023624 
L 697.276517 -50.795715 
L 698.557406 -50.575333 
L 699.838295 -50.362275 
L 701.119184 -50.156344 
L 702.400073 -49.957346 
L 703.680962 -49.76509 
L 704.961851 -49.579389 
L 706.24274 -49.400059 
L 707.523629 -49.22692 
L 708.804518 -49.059795 
L 710.085407 -48.89851 
L 711.366296 -48.742896 
L 712.647185 -48.592786 
L 713.928074 -48.448018 
L 715.208963 -48.308433 
L 716.489852 -48.173873 
L 717.770741 -48.044187 
L 719.051631 -47.919226 
L 720.33252 -47.798843 
L 721.613409 -47.682897 
L 722.894298 -47.571248 
L 724.175187 -47.46376 
L 725.456076 -47.360301 
L 726.736965 -47.260742 
L 728.017854 -47.164956 
L 729.298743 -47.07282 
L 730.579632 -46.984215 
L 731.860521 -46.899024 
L 733.14141 -46.817133 
L 734.422299 -46.738431 
L 735.703188 -46.662811 
L 736.984077 -46.590167 
L 738.264966 -46.520397 
L 739.545855 -46.453403 
L 740.826744 -46.389087 
L 742.107633 -46.327356 
L 743.388522 -46.268119 
L 744.669412 -46.211287 
L 745.950301 -46.156774 
L 747.23119 -46.104498 
L 748.512079 -46.054376 
L 749.792968 -46.006331 
L 751.073857 -45.960286 
L 752.354746 -45.916167 
L 753.635635 -45.873904 
L 754.916524 -45.833426 
L 756.197413 -45.794666 
L 757.478302 -45.75756 
L 758.759191 -45.722045 
L 760.04008 -45.688059 
L 761.320969 -45.655544 
L 762.601858 -45.624442 
L 763.882747 -45.594699 
L 765.163636 -45.566262 
L 765.163636 -45 
L 765.163636 -45 
L 763.882747 -45 
L 762.601858 -45 
L 761.320969 -45 
L 760.04008 -45 
L 758.759191 -45 
L 757.478302 -45 
L 756.197413 -45 
L 754.916524 -45 
L 753.635635 -45 
L 752.354746 -45 
L 751.073857 -45 
L 749.792968 -45 
L 748.512079 -45 
L 747.23119 -45 
L 745.950301 -45 
L 744.669412 -45 
L 743.388522 -45 
L 742.107633 -45 
L 740.826744 -45 
L 739.545855 -45 
L 738.264966 -45 
L 736.984077 -45 
L 735.703188 -45 
L 734.422299 -45 
L 733.14141 -45 
L 731.860521 -45 
L 730.579632 -45 
L 729.298743 -45 
L 728.017854 -45 
L 726.736965 -45 
L 725.456076 -45 
L 724.175187 -45 
L 722.894298 -45 
L 721.613409 -45 
L 720.33252 -45 
L 719.051631 -45 
L 717.770741 -45 
L 716.489852 -45 
L 715.208963 -45 
L 713.928074 -45 
L 712.647185 -45 
L 711.366296 -45 
L 710.085407 -45 
L 708.804518 -45 
L 707.523629 -45 
L 706.24274 -45 
L 704.961851 -45 
L 703.680962 -45 
L 702.400073 -45 
L 701.119184 -45 
L 699.838295 -45 
L 698.557406 -45 
L 697.276517 -45 
L 695.995628 -45 
L 694.714739 -45 
L 693.43385 -45 
L 692.15296 -45 
L 690.872071 -45 
L 689.591182 -45 
L 688.310293 -45 
L 687.029404 -45 
L 685.748515 -45 
L 684.467626 -45 
L 683.186737 -45 
L 681.905848 -45 
L 680.624959 -45 
L 679.34407 -45 
L 678.063181 -45 
L 676.782292 -45 
L 675.501403 -45 
L 674.220514 -45 
L 672.939625 -45 
L 671.658736 -45 
L 670.377847 -45 
L 669.096958 -45 
L 667.816069 -45 
L 666.535179 -45 
L 665.25429 -45 
L 663.973401 -45 
L 662.692512 -45 
L 661.411623 -45 
L 660.130734 -45 
L 658.849845 -45 
L 657.568956 -45 
L 656.288067 -45 
L 655.007178 -45 
L 653.726289 -45 
L 652.4454 -45 
L 651.164511 -45 
L 649.883622 -45 
L 648.602733 -45 
L 647.321844 -45 
L 646.040955 -45 
L 644.760066 -45 
L 643.479177 -45 
L 642.198287 -45 
L 640.917398 -45 
L 639.636509 -45 
L 638.35562 -45 
L 637.074731 -45 
L 635.793842 -45 
L 634.512953 -45 
L 633.232064 -45 
L 631.951175 -45 
L 630.670286 -45 
L 629.389397 -45 
L 628.108508 -45 
L 626.827619 -45 
L 625.54673 -45 
L 624.265841 -45 
L 622.984952 -45 
L 621.704063 -45 
L 620.423174 -45 
L 619.142285 -45 
L 617.861396 -45 
L 616.580506 -45 
L 615.299617 -45 
L 614.018728 -45 
L 612.737839 -45 
L 611.45695 -45 
L 610.176061 -45 
L 608.895172 -45 
L 607.614283 -45 
L 606.333394 -45 
L 605.052505 -45 
L 603.771616 -45 
L 602.490727 -45 
L 601.209838 -45 
L 599.928949 -45 
L 598.64806 -45 
L 597.367171 -45 
L 596.086282 -45 
L 594.805393 -45 
L 593.524504 -45 
L 592.243615 -45 
L 590.962725 -45 
L 589.681836 -45 
L 588.400947 -45 
L 587.120058 -45 
L 585.839169 -45 
L 584.55828 -45 
L 583.277391 -45 
L 581.996502 -45 
L 580.715613 -45 
L 579.434724 -45 
L 578.153835 -45 
L 576.872946 -45 
L 575.592057 -45 
L 574.311168 -45 
L 573.030279 -45 
L 571.74939 -45 
L 570.468501 -45 
L 569.187612 -45 
L 567.906723 -45 
L 566.625833 -45 
L 565.344944 -45 
L 564.064055 -45 
L 562.783166 -45 
L 561.502277 -45 
L 560.221388 -45 
L 558.940499 -45 
L 557.65961 -45 
L 556.378721 -45 
L 555.097832 -45 
L 553.816943 -45 
L 552.536054 -45 
L 551.255165 -45 
L 549.974276 -45 
L 548.693387 -45 
L 547.412498 -45 
L 546.131609 -45 
L 544.85072 -45 
L 543.569831 -45 
L 542.288942 -45 
L 541.008052 -45 
L 539.727163 -45 
L 538.446274 -45 
L 537.165385 -45 
L 535.884496 -45 
L 534.603607 -45 
L 533.322718 -45 
L 532.041829 -45 
L 530.76094 -45 
L 529.480051 -45 
L 528.199162 -45 
L 526.918273 -45 
L 525.637384 -45 
L 524.356495 -45 
L 523.075606 -45 
L 521.794717 -45 
L 520.513828 -45 
L 519.232939 -45 
L 517.95205 -45 
L 516.671161 -45 
L 515.390271 -45 
L 514.109382 -45 
L 512.828493 -45 
L 511.547604 -45 
L 510.266715 -45 
L 508.985826 -45 
L 507.704937 -45 
L 506.424048 -45 
L 505.143159 -45 
L 503.86227 -45 
L 502.581381 -45 
L 501.300492 -45 
L 500.019603 -45 
L 498.738714 -45 
L 497.457825 -45 
L 496.176936 -45 
L 494.896047 -45 
L 493.615158 -45 
L 492.334269 -45 
L 491.053379 -45 
L 489.77249 -45 
L 488.491601 -45 
L 487.210712 -45 
L 485.929823 -45 
L 484.648934 -45 
L 483.368045 -45 
L 482.087156 -45 
L 480.806267 -45 
L 479.525378 -45 
L 478.244489 -45 
L 476.9636 -45 
L 475.682711 -45 
L 474.401822 -45 
L 473.120933 -45 
L 471.840044 -45 
L 470.559155 -45 
L 469.278266 -45 
L 467.997377 -45 
L 466.716488 -45 
L 465.435598 -45 
L 464.154709 -45 
L 462.87382 -45 
L 461.592931 -45 
L 460.312042 -45 
L 459.031153 -45 
L 457.750264 -45 
L 456.469375 -45 
L 455.188486 -45 
L 453.907597 -45 
L 452.626708 -45 
L 451.345819 -45 
L 450.06493 -45 
L 448.784041 -45 
L 447.503152 -45 
L 446.222263 -45 
L 444.941374 -45 
L 443.660485 -45 
L 442.379596 -45 
L 441.098707 -45 
L 439.817817 -45 
L 438.536928 -45 
L 437.256039 -45 
L 435.97515 -45 
L 434.694261 -45 
L 433.413372 -45 
L 432.132483 -45 
L 430.851594 -45 
L 429.570705 -45 
L 428.289816 -45 
L 427.008927 -45 
L 425.728038 -45 
L 424.447149 -45 
L 423.16626 -45 
L 421.885371 -45 
L 420.604482 -45 
L 419.323593 -45 
L 418.042704 -45 
L 416.761815 -45 
L 415.480925 -45 
L 414.200036 -45 
L 412.919147 -45 
L 411.638258 -45 
L 410.357369 -45 
L 409.07648 -45 
L 407.795591 -45 
L 406.514702 -45 
L 405.233813 -45 
L 403.952924 -45 
L 402.672035 -45 
L 401.391146 -45 
L 400.110257 -45 
L 398.829368 -45 
L 397.548479 -45 
L 396.26759 -45 
L 394.986701 -45 
L 393.705812 -45 
L 392.424923 -45 
L 391.144034 -45 
L 389.863144 -45 
L 388.582255 -45 
L 387.301366 -45 
L 386.020477 -45 
L 384.739588 -45 
L 383.458699 -45 
L 382.17781 -45 
L 380.896921 -45 
L 379.616032 -45 
L 378.335143 -45 
L 377.054254 -45 
L 375.773365 -45 
L 374.492476 -45 
L 373.211587 -45 
L 371.930698 -45 
L 370.649809 -45 
L 369.36892 -45 
L 368.088031 -45 
L 366.807142 -45 
L 365.526253 -45 
L 364.245363 -45 
L 362.964474 -45 
L 361.683585 -45 
L 360.402696 -45 
L 359.121807 -45 
L 357.840918 -45 
L 356.560029 -45 
L 355.27914 -45 
L 353.998251 -45 
L 352.717362 -45 
L 351.436473 -45 
L 350.155584 -45 
L 348.874695 -45 
L 347.593806 -45 
L 346.312917 -45 
L 345.032028 -45 
L 343.751139 -45 
L 342.47025 -45 
L 341.189361 -45 
L 339.908471 -45 
L 338.627582 -45 
L 337.346693 -45 
L 336.065804 -45 
L 334.784915 -45 
L 333.504026 -45 
L 332.223137 -45 
L 330.942248 -45 
L 329.661359 -45 
L 328.38047 -45 
L 327.099581 -45 
L 325.818692 -45 
L 324.537803 -45 
L 323.256914 -45 
L 321.976025 -45 
L 320.695136 -45 
L 319.414247 -45 
L 318.133358 -45 
L 316.852469 -45 
L 315.57158 -45 
L 314.29069 -45 
L 313.009801 -45 
L 311.728912 -45 
L 310.448023 -45 
L 309.167134 -45 
L 307.886245 -45 
L 306.605356 -45 
L 305.324467 -45 
L 304.043578 -45 
L 302.762689 -45 
L 301.4818 -45 
L 300.200911 -45 
L 298.920022 -45 
L 297.639133 -45 
L 296.358244 -45 
L 295.077355 -45 
L 293.796466 -45 
L 292.515577 -45 
L 291.234688 -45 
L 289.953799 -45 
L 288.672909 -45 
L 287.39202 -45 
L 286.111131 -45 
L 284.830242 -45 
L 283.549353 -45 
L 282.268464 -45 
L 280.987575 -45 
L 279.706686 -45 
L 278.425797 -45 
L 277.144908 -45 
L 275.864019 -45 
L 274.58313 -45 
L 273.302241 -45 
L 272.021352 -45 
L 270.740463 -45 
L 269.459574 -45 
L 268.178685 -45 
L 266.897796 -45 
L 265.616907 -45 
L 264.336017 -45 
L 263.055128 -45 
L 261.774239 -45 
L 260.49335 -45 
L 259.212461 -45 
L 257.931572 -45 
L 256.650683 -45 
L 255.369794 -45 
L 254.088905 -45 
L 252.808016 -45 
L 251.527127 -45 
L 250.246238 -45 
L 248.965349 -45 
L 247.68446 -45 
L 246.403571 -45 
L 245.122682 -45 
L 243.841793 -45 
L 242.560904 -45 
L 241.280015 -45 
L 239.999126 -45 
L 238.718236 -45 
L 237.437347 -45 
L 236.156458 -45 
L 234.875569 -45 
L 233.59468 -45 
L 232.313791 -45 
L 231.032902 -45 
L 229.752013 -45 
L 228.471124 -45 
L 227.190235 -45 
L 225.909346 -45 
L 224.628457 -45 
L 223.347568 -45 
L 222.066679 -45 
L 220.78579 -45 
L 219.504901 -45 
L 218.224012 -45 
L 216.943123 -45 
L 215.662234 -45 
L 214.381345 -45 
L 213.100455 -45 
L 211.819566 -45 
L 210.538677 -45 
L 209.257788 -45 
L 207.976899 -45 
L 206.69601 -45 
L 205.415121 -45 
L 204.134232 -45 
L 202.853343 -45 
L 201.572454 -45 
L 200.291565 -45 
L 199.010676 -45 
L 197.729787 -45 
L 196.448898 -45 
L 195.168009 -45 
L 193.88712 -45 
L 192.606231 -45 
L 191.325342 -45 
L 190.044453 -45 
L 188.763563 -45 
L 187.482674 -45 
L 186.201785 -45 
L 184.920896 -45 
L 183.640007 -45 
L 182.359118 -45 
L 181.078229 -45 
L 179.79734 -45 
L 178.516451 -45 
L 177.235562 -45 
L 175.954673 -45 
L 174.673784 -45 
L 173.392895 -45 
L 172.112006 -45 
L 170.831117 -45 
L 169.550228 -45 
L 168.269339 -45 
L 166.98845 -45 
L 165.707561 -45 
L 164.426672 -45 
L 163.145782 -45 
L 161.864893 -45 
L 160.584004 -45 
L 159.303115 -45 
L 158.022226 -45 
L 156.741337 -45 
L 155.460448 -45 
L 154.179559 -45 
L 152.89867 -45 
L 151.617781 -45 
L 150.336892 -45 
L 149.056003 -45 
L 147.775114 -45 
L 146.494225 -45 
L 145.213336 -45 
L 143.932447 -45 
L 142.651558 -45 
L 141.370669 -45 
L 140.08978 -45 
L 138.808891 -45 
L 137.528001 -45 
L 136.247112 -45 
L 134.966223 -45 
L 133.685334 -45 
L 132.404445 -45 
L 131.123556 -45 
L 129.842667 -45 
L 128.561778 -45 
L 127.280889 -45 
L 126 -45 
z
" id="m946d82e332" style="stroke:#88c9c1;stroke-width:4;"/>
    </defs>
    <g clip-path="url(#p6180ae5683)">
     <use style="fill:#88c9c1;stroke:#88c9c1;stroke-width:4;" x="0" xlink:href="#m946d82e332" y="360"/>
    </g>
   </g>
  </g>
  <g id="axes_2">
   <g id="patch_4">
    <path d="M 836.181818 315 
L 907.2 315 
L 907.2 43.2 
L 836.181818 43.2 
z
" style="fill:none;"/>
   </g>
   <g id="patch_5">
    <path clip-path="url(#p0d95c31cd4)" d="M 853.936364 315 
L 889.445455 315 
L 889.445455 179.1 
L 853.936364 179.1 
z
" style="fill:#88c9c1;"/>
   </g>
   <g id="matplotlib.axis_3">
    <g id="xtick_8">
     <g id="line2d_8">
      <g>
       <use style="fill:#d2d2d2;stroke:#d2d2d2;stroke-width:0.8;" x="871.690909" xlink:href="#m3dafaddae8" y="315"/>
      </g>
     </g>
    </g>
   </g>
   <g id="matplotlib.axis_4">
    <g id="ytick_1">
     <g id="line2d_9">
      <defs>
       <path d="M 0 0 
L -3.5 0 
" id="m717d2d4e78" style="stroke:#d2d2d2;stroke-width:0.8;"/>
      </defs>
      <g>
       <use style="fill:#d2d2d2;stroke:#d2d2d2;stroke-width:0.8;" x="836.181818" xlink:href="#m717d2d4e78" y="315"/>
      </g>
     </g>
     <g id="text_10">
      <!-- $-1\sigma$ -->
      <defs>
       <path d="M 10.59375 35.5 
L 73.1875 35.5 
L 73.1875 27.203125 
L 10.59375 27.203125 
z
" id="DejaVuSans-2212"/>
      </defs>
      <g style="fill:#d2d2d2;" transform="translate(795.421818 321.07875)scale(0.16 -0.16)">
       <use transform="translate(0 0.09375)" xlink:href="#DejaVuSans-2212"/>
       <use transform="translate(83.789062 0.09375)" xlink:href="#DejaVuSans-31"/>
       <use transform="translate(147.412109 0.09375)" xlink:href="#DejaVuSans-Oblique-3c3"/>
      </g>
     </g>
    </g>
    <g id="ytick_2">
     <g id="line2d_10">
      <g>
       <use style="fill:#d2d2d2;stroke:#d2d2d2;stroke-width:0.8;" x="836.181818" xlink:href="#m717d2d4e78" y="179.1"/>
      </g>
     </g>
     <g id="text_11">
      <!-- $\mu$ -->
      <g style="fill:#d2d2d2;" transform="translate(818.941818 185.1625)scale(0.16 -0.16)">
       <use transform="translate(0 0.3125)" xlink:href="#DejaVuSans-Oblique-3bc"/>
      </g>
     </g>
    </g>
    <g id="ytick_3">
     <g id="line2d_11">
      <g>
       <use style="fill:#d2d2d2;stroke:#d2d2d2;stroke-width:0.8;" x="836.181818" xlink:href="#m717d2d4e78" y="43.2"/>
      </g>
     </g>
     <g id="text_12">
      <!-- $1\sigma$ -->
      <g style="fill:#d2d2d2;" transform="translate(808.701818 49.27875)scale(0.16 -0.16)">
       <use transform="translate(0 0.09375)" xlink:href="#DejaVuSans-31"/>
       <use transform="translate(63.623047 0.09375)" xlink:href="#DejaVuSans-Oblique-3c3"/>
      </g>
     </g>
    </g>
   </g>
   <g id="patch_6">
    <path d="M 836.181818 315 
L 836.181818 43.2 
" style="fill:none;stroke:#d2d2d2;stroke-linecap:square;stroke-linejoin:miter;stroke-width:0.8;"/>
   </g>
   <g id="patch_7">
    <path d="M 836.181818 315 
L 907.2 315 
" style="fill:none;stroke:#d2d2d2;stroke-linecap:square;stroke-linejoin:miter;stroke-width:0.8;"/>
   </g>
  </g>
  <g id="axes_3">
   <g id="patch_8">
    <path clip-path="url(#p0d95c31cd4)" d="M 881.690909 119.392299 
L 881.690909 119.392299 
L 861.690909 119.392299 
L 861.690909 119.392299 
M 871.690909 119.392299 
Q 871.690909 179.101383 871.690909 238.810467 
M 861.690909 238.810467 
L 861.690909 238.810467 
L 881.690909 238.810467 
L 881.690909 238.810467 
" style="fill:none;stroke:#e04b4b;stroke-linecap:round;"/>
   </g>
  </g>
  <g id="axes_4">
   <g id="patch_9">
    <path clip-path="url(#p0d95c31cd4)" d="M 881.690909 168.756139 
L 881.690909 168.756139 
L 861.690909 168.756139 
L 861.690909 168.756139 
M 871.690909 168.756139 
Q 871.690909 179.097762 871.690909 189.439384 
M 861.690909 189.439384 
L 861.690909 189.439384 
L 881.690909 189.439384 
L 881.690909 189.439384 
" style="fill:none;stroke:#9469ad;stroke-linecap:round;"/>
   </g>
  </g>
  <g id="axes_5">
   <g id="text_13">
    <!-- Sample Means: -->
    <defs>
     <path d="M 53.515625 70.515625 
L 53.515625 60.890625 
Q 47.90625 63.578125 42.921875 64.890625 
Q 37.9375 66.21875 33.296875 66.21875 
Q 25.25 66.21875 20.875 63.09375 
Q 16.5 59.96875 16.5 54.203125 
Q 16.5 49.359375 19.40625 46.890625 
Q 22.3125 44.4375 30.421875 42.921875 
L 36.375 41.703125 
Q 47.40625 39.59375 52.65625 34.296875 
Q 57.90625 29 57.90625 20.125 
Q 57.90625 9.515625 50.796875 4.046875 
Q 43.703125 -1.421875 29.984375 -1.421875 
Q 24.8125 -1.421875 18.96875 -0.25 
Q 13.140625 0.921875 6.890625 3.21875 
L 6.890625 13.375 
Q 12.890625 10.015625 18.65625 8.296875 
Q 24.421875 6.59375 29.984375 6.59375 
Q 38.421875 6.59375 43.015625 9.90625 
Q 47.609375 13.234375 47.609375 19.390625 
Q 47.609375 24.75 44.3125 27.78125 
Q 41.015625 30.8125 33.5 32.328125 
L 27.484375 33.5 
Q 16.453125 35.6875 11.515625 40.375 
Q 6.59375 45.0625 6.59375 53.421875 
Q 6.59375 63.09375 13.40625 68.65625 
Q 20.21875 74.21875 32.171875 74.21875 
Q 37.3125 74.21875 42.625 73.28125 
Q 47.953125 72.359375 53.515625 70.515625 
z
" id="DejaVuSans-53"/>
     <path d="M 52 44.1875 
Q 55.375 50.25 60.0625 53.125 
Q 64.75 56 71.09375 56 
Q 79.640625 56 84.28125 50.015625 
Q 88.921875 44.046875 88.921875 33.015625 
L 88.921875 0 
L 79.890625 0 
L 79.890625 32.71875 
Q 79.890625 40.578125 77.09375 44.375 
Q 74.3125 48.1875 68.609375 48.1875 
Q 61.625 48.1875 57.5625 43.546875 
Q 53.515625 38.921875 53.515625 30.90625 
L 53.515625 0 
L 44.484375 0 
L 44.484375 32.71875 
Q 44.484375 40.625 41.703125 44.40625 
Q 38.921875 48.1875 33.109375 48.1875 
Q 26.21875 48.1875 22.15625 43.53125 
Q 18.109375 38.875 18.109375 30.90625 
L 18.109375 0 
L 9.078125 0 
L 9.078125 54.6875 
L 18.109375 54.6875 
L 18.109375 46.1875 
Q 21.1875 51.21875 25.484375 53.609375 
Q 29.78125 56 35.6875 56 
Q 41.65625 56 45.828125 52.96875 
Q 50 49.953125 52 44.1875 
z
" id="DejaVuSans-6d"/>
     <path d="M 56.203125 29.59375 
L 56.203125 25.203125 
L 14.890625 25.203125 
Q 15.484375 15.921875 20.484375 11.0625 
Q 25.484375 6.203125 34.421875 6.203125 
Q 39.59375 6.203125 44.453125 7.46875 
Q 49.3125 8.734375 54.109375 11.28125 
L 54.109375 2.78125 
Q 49.265625 0.734375 44.1875 -0.34375 
Q 39.109375 -1.421875 33.890625 -1.421875 
Q 20.796875 -1.421875 13.15625 6.1875 
Q 5.515625 13.8125 5.515625 26.8125 
Q 5.515625 40.234375 12.765625 48.109375 
Q 20.015625 56 32.328125 56 
Q 43.359375 56 49.78125 48.890625 
Q 56.203125 41.796875 56.203125 29.59375 
z
M 47.21875 32.234375 
Q 47.125 39.59375 43.09375 43.984375 
Q 39.0625 48.390625 32.421875 48.390625 
Q 24.90625 48.390625 20.390625 44.140625 
Q 15.875 39.890625 15.1875 32.171875 
z
" id="DejaVuSans-65"/>
     <path d="M 9.8125 72.90625 
L 24.515625 72.90625 
L 43.109375 23.296875 
L 61.8125 72.90625 
L 76.515625 72.90625 
L 76.515625 0 
L 66.890625 0 
L 66.890625 64.015625 
L 48.09375 14.015625 
L 38.1875 14.015625 
L 19.390625 64.015625 
L 19.390625 0 
L 9.8125 0 
z
" id="DejaVuSans-4d"/>
     <path d="M 44.28125 53.078125 
L 44.28125 44.578125 
Q 40.484375 46.53125 36.375 47.5 
Q 32.28125 48.484375 27.875 48.484375 
Q 21.1875 48.484375 17.84375 46.4375 
Q 14.5 44.390625 14.5 40.28125 
Q 14.5 37.15625 16.890625 35.375 
Q 19.28125 33.59375 26.515625 31.984375 
L 29.59375 31.296875 
Q 39.15625 29.25 43.1875 25.515625 
Q 47.21875 21.78125 47.21875 15.09375 
Q 47.21875 7.46875 41.1875 3.015625 
Q 35.15625 -1.421875 24.609375 -1.421875 
Q 20.21875 -1.421875 15.453125 -0.5625 
Q 10.6875 0.296875 5.421875 2 
L 5.421875 11.28125 
Q 10.40625 8.6875 15.234375 7.390625 
Q 20.0625 6.109375 24.8125 6.109375 
Q 31.15625 6.109375 34.5625 8.28125 
Q 37.984375 10.453125 37.984375 14.40625 
Q 37.984375 18.0625 35.515625 20.015625 
Q 33.0625 21.96875 24.703125 23.78125 
L 21.578125 24.515625 
Q 13.234375 26.265625 9.515625 29.90625 
Q 5.8125 33.546875 5.8125 39.890625 
Q 5.8125 47.609375 11.28125 51.796875 
Q 16.75 56 26.8125 56 
Q 31.78125 56 36.171875 55.265625 
Q 40.578125 54.546875 44.28125 53.078125 
z
" id="DejaVuSans-73"/>
    </defs>
    <g style="fill:#e04b4b;" transform="translate(528.259091 191.373879)scale(0.25 -0.25)">
     <use xlink:href="#DejaVuSans-53"/>
     <use x="63.476562" xlink:href="#DejaVuSans-61"/>
     <use x="124.755859" xlink:href="#DejaVuSans-6d"/>
     <use x="222.167969" xlink:href="#DejaVuSans-70"/>
     <use x="285.644531" xlink:href="#DejaVuSans-6c"/>
     <use x="313.427734" xlink:href="#DejaVuSans-65"/>
     <use x="374.951172" xlink:href="#DejaVuSans-20"/>
     <use x="406.738281" xlink:href="#DejaVuSans-4d"/>
     <use x="493.017578" xlink:href="#DejaVuSans-65"/>
     <use x="554.541016" xlink:href="#DejaVuSans-61"/>
     <use x="615.820312" xlink:href="#DejaVuSans-6e"/>
     <use x="679.199219" xlink:href="#DejaVuSans-73"/>
     <use x="731.298828" xlink:href="#DejaVuSans-3a"/>
    </g>
    <!-- $\bar{x}=\mu$, $s=\frac{\sigma}{\sqrt{n}}$ -->
    <defs>
     <path d="M -39.34375 74.515625 
L -10.15625 74.515625 
L -10.15625 67.28125 
L -39.34375 67.28125 
z
" id="DejaVuSans-304"/>
     <path d="M 60.015625 54.6875 
L 34.90625 27.875 
L 50.296875 0 
L 39.984375 0 
L 28.421875 21.6875 
L 8.296875 0 
L -2.59375 0 
L 24.3125 28.8125 
L 10.015625 54.6875 
L 20.3125 54.6875 
L 30.8125 34.90625 
L 49.125 54.6875 
z
" id="DejaVuSans-Oblique-78"/>
     <path d="M 50 53.078125 
L 48.296875 44.578125 
Q 44.734375 46.53125 40.765625 47.5 
Q 36.8125 48.484375 32.625 48.484375 
Q 25.53125 48.484375 21.453125 46.0625 
Q 17.390625 43.65625 17.390625 39.5 
Q 17.390625 34.671875 26.859375 32.078125 
Q 27.59375 31.890625 27.9375 31.78125 
L 30.8125 30.90625 
Q 39.796875 28.421875 42.796875 25.6875 
Q 45.796875 22.953125 45.796875 18.21875 
Q 45.796875 9.515625 38.890625 4.046875 
Q 31.984375 -1.421875 20.796875 -1.421875 
Q 16.453125 -1.421875 11.671875 -0.578125 
Q 6.890625 0.25 1.125 2 
L 2.875 11.28125 
Q 7.8125 8.734375 12.59375 7.421875 
Q 17.390625 6.109375 21.78125 6.109375 
Q 28.375 6.109375 32.5 8.9375 
Q 36.625 11.765625 36.625 16.109375 
Q 36.625 20.796875 25.78125 23.6875 
L 24.859375 23.921875 
L 21.78125 24.703125 
Q 14.9375 26.515625 11.765625 29.46875 
Q 8.59375 32.421875 8.59375 37.015625 
Q 8.59375 45.75 15.15625 50.875 
Q 21.734375 56 33.015625 56 
Q 37.453125 56 41.671875 55.265625 
Q 45.90625 54.546875 50 53.078125 
z
" id="DejaVuSans-Oblique-73"/>
     <path d="M 54.5 81.109375 
L 63.71875 81.109375 
L 63.71875 76.421875 
L 58.109375 76.421875 
L 29.109375 -2 
L 25.875 -2 
L 10.296875 41.109375 
L 4.203125 38.921875 
L 2.984375 42.828125 
L 16.796875 47.609375 
L 29.296875 12.984375 
z
" id="DejaVuSans-221a"/>
     <path d="M 55.71875 33.015625 
L 49.3125 0 
L 40.28125 0 
L 46.6875 32.671875 
Q 47.125 34.96875 47.359375 36.71875 
Q 47.609375 38.484375 47.609375 39.5 
Q 47.609375 43.609375 45.015625 45.890625 
Q 42.4375 48.1875 37.796875 48.1875 
Q 30.5625 48.1875 25.34375 43.375 
Q 20.125 38.578125 18.5 30.328125 
L 12.5 0 
L 3.515625 0 
L 14.109375 54.6875 
L 23.09375 54.6875 
L 21.296875 46.09375 
Q 25.046875 50.828125 30.3125 53.40625 
Q 35.59375 56 41.40625 56 
Q 48.640625 56 52.609375 52.09375 
Q 56.59375 48.1875 56.59375 41.109375 
Q 56.59375 39.359375 56.375 37.359375 
Q 56.15625 35.359375 55.71875 33.015625 
z
" id="DejaVuSans-Oblique-6e"/>
    </defs>
    <g style="fill:#e04b4b;" transform="translate(568.759091 221.773098)scale(0.25 -0.25)">
     <use transform="translate(62.138672 0.8)" xlink:href="#DejaVuSans-304"/>
     <use transform="translate(0 0.89375)" xlink:href="#DejaVuSans-Oblique-78"/>
     <use transform="translate(78.662109 0.89375)" xlink:href="#DejaVuSans-3d"/>
     <use transform="translate(181.933594 0.89375)" xlink:href="#DejaVuSans-Oblique-3bc"/>
     <use transform="translate(245.556641 0.89375)" xlink:href="#DejaVuSans-2c"/>
     <use transform="translate(277.34375 0.89375)" xlink:href="#DejaVuSans-20"/>
     <use transform="translate(309.130859 0.89375)" xlink:href="#DejaVuSans-Oblique-73"/>
     <use transform="translate(380.712891 0.89375)" xlink:href="#DejaVuSans-3d"/>
     <use transform="translate(514.984375 45.685938)scale(0.7)" xlink:href="#DejaVuSans-Oblique-3c3"/>
     <use transform="translate(483.984375 -47.535937)scale(0.7)" xlink:href="#DejaVuSans-221a"/>
     <use transform="translate(537.338867 -47.134375)scale(0.7)" xlink:href="#DejaVuSans-Oblique-6e"/>
     <path d="M 483.984375 19.690625 
L 483.984375 25.940625 
L 590.454102 25.940625 
L 590.454102 19.690625 
L 483.984375 19.690625 
z
"/>
     <path d="M 528.588867 4.690625 
L 528.588867 9.065625 
L 590.454102 9.065625 
L 590.454102 4.690625 
L 528.588867 4.690625 
z
"/>
    </g>
   </g>
   <g id="PolyCollection_2">
    <defs>
     <path d="M 126 -45 
L 126 -45 
L 127.280889 -45 
L 128.561778 -45 
L 129.842667 -45 
L 131.123556 -45 
L 132.404445 -45 
L 133.685334 -45 
L 134.966223 -45 
L 136.247112 -45 
L 137.528001 -45 
L 138.808891 -45 
L 140.08978 -45 
L 141.370669 -45 
L 142.651558 -45 
L 143.932447 -45 
L 145.213336 -45 
L 146.494225 -45 
L 147.775114 -45 
L 149.056003 -45 
L 150.336892 -45 
L 151.617781 -45 
L 152.89867 -45 
L 154.179559 -45 
L 155.460448 -45 
L 156.741337 -45 
L 158.022226 -45 
L 159.303115 -45 
L 160.584004 -45 
L 161.864893 -45 
L 163.145782 -45 
L 164.426672 -45 
L 165.707561 -45 
L 166.98845 -45 
L 168.269339 -45 
L 169.550228 -45 
L 170.831117 -45 
L 172.112006 -45 
L 173.392895 -45 
L 174.673784 -45 
L 175.954673 -45 
L 177.235562 -45 
L 178.516451 -45 
L 179.79734 -45 
L 181.078229 -45 
L 182.359118 -45 
L 183.640007 -45 
L 184.920896 -45 
L 186.201785 -45 
L 187.482674 -45 
L 188.763563 -45 
L 190.044453 -45 
L 191.325342 -45 
L 192.606231 -45 
L 193.88712 -45 
L 195.168009 -45 
L 196.448898 -45 
L 197.729787 -45 
L 199.010676 -45 
L 200.291565 -45 
L 201.572454 -45 
L 202.853343 -45 
L 204.134232 -45 
L 205.415121 -45 
L 206.69601 -45 
L 207.976899 -45 
L 209.257788 -45 
L 210.538677 -45 
L 211.819566 -45 
L 213.100455 -45 
L 214.381345 -45 
L 215.662234 -45 
L 216.943123 -45 
L 218.224012 -45 
L 219.504901 -45 
L 220.78579 -45 
L 222.066679 -45 
L 223.347568 -45 
L 224.628457 -45 
L 225.909346 -45 
L 227.190235 -45 
L 228.471124 -45 
L 229.752013 -45 
L 231.032902 -45 
L 232.313791 -45 
L 233.59468 -45 
L 234.875569 -45 
L 236.156458 -45 
L 237.437347 -45 
L 238.718236 -45 
L 239.999126 -45 
L 241.280015 -45 
L 242.560904 -45 
L 243.841793 -45 
L 245.122682 -45 
L 246.403571 -45 
L 247.68446 -45 
L 248.965349 -45 
L 250.246238 -45 
L 251.527127 -45 
L 252.808016 -45 
L 254.088905 -45 
L 255.369794 -45 
L 256.650683 -45 
L 257.931572 -45 
L 259.212461 -45 
L 260.49335 -45 
L 261.774239 -45 
L 263.055128 -45 
L 264.336017 -45 
L 265.616907 -45 
L 266.897796 -45 
L 268.178685 -45 
L 269.459574 -45 
L 270.740463 -45 
L 272.021352 -45 
L 273.302241 -45 
L 274.58313 -45 
L 275.864019 -45 
L 277.144908 -45 
L 278.425797 -45 
L 279.706686 -45 
L 280.987575 -45 
L 282.268464 -45 
L 283.549353 -45 
L 284.830242 -45 
L 286.111131 -45 
L 287.39202 -45 
L 288.672909 -45 
L 289.953799 -45 
L 291.234688 -45 
L 292.515577 -45 
L 293.796466 -45 
L 295.077355 -45 
L 296.358244 -45 
L 297.639133 -45 
L 298.920022 -45 
L 300.200911 -45 
L 301.4818 -45 
L 302.762689 -45 
L 304.043578 -45 
L 305.324467 -45 
L 306.605356 -45 
L 307.886245 -45 
L 309.167134 -45 
L 310.448023 -45 
L 311.728912 -45 
L 313.009801 -45 
L 314.29069 -45.000001 
L 315.57158 -45.000001 
L 316.852469 -45.000001 
L 318.133358 -45.000002 
L 319.414247 -45.000002 
L 320.695136 -45.000003 
L 321.976025 -45.000005 
L 323.256914 -45.000007 
L 324.537803 -45.00001 
L 325.818692 -45.000015 
L 327.099581 -45.000021 
L 328.38047 -45.00003 
L 329.661359 -45.000042 
L 330.942248 -45.000059 
L 332.223137 -45.000083 
L 333.504026 -45.000116 
L 334.784915 -45.000162 
L 336.065804 -45.000225 
L 337.346693 -45.000312 
L 338.627582 -45.00043 
L 339.908471 -45.00059 
L 341.189361 -45.000807 
L 342.47025 -45.001099 
L 343.751139 -45.001491 
L 345.032028 -45.002016 
L 346.312917 -45.002716 
L 347.593806 -45.003644 
L 348.874695 -45.004871 
L 350.155584 -45.006485 
L 351.436473 -45.008603 
L 352.717362 -45.011368 
L 353.998251 -45.014964 
L 355.27914 -45.019624 
L 356.560029 -45.025636 
L 357.840918 -45.033362 
L 359.121807 -45.043251 
L 360.402696 -45.055858 
L 361.683585 -45.071865 
L 362.964474 -45.092107 
L 364.245363 -45.1176 
L 365.526253 -45.149578 
L 366.807142 -45.189525 
L 368.088031 -45.239226 
L 369.36892 -45.30081 
L 370.649809 -45.376806 
L 371.930698 -45.470203 
L 373.211587 -45.584513 
L 374.492476 -45.723846 
L 375.773365 -45.892975 
L 377.054254 -46.097424 
L 378.335143 -46.343544 
L 379.616032 -46.638593 
L 380.896921 -46.990821 
L 382.17781 -47.409546 
L 383.458699 -47.905228 
L 384.739588 -48.489532 
L 386.020477 -49.17538 
L 387.301366 -49.976991 
L 388.582255 -50.909892 
L 389.863144 -51.990919 
L 391.144034 -53.238173 
L 392.424923 -54.670957 
L 393.705812 -56.309671 
L 394.986701 -58.175662 
L 396.26759 -60.291033 
L 397.548479 -62.678407 
L 398.829368 -65.360639 
L 400.110257 -68.360472 
L 401.391146 -71.700153 
L 402.672035 -75.400997 
L 403.952924 -79.482905 
L 405.233813 -83.963845 
L 406.514702 -88.859301 
L 407.795591 -94.1817 
L 409.07648 -99.93983 
L 410.357369 -106.138253 
L 411.638258 -112.77674 
L 412.919147 -119.849735 
L 414.200036 -127.345865 
L 415.480925 -135.247518 
L 416.761815 -143.530497 
L 418.042704 -152.163779 
L 419.323593 -161.10938 
L 420.604482 -170.322349 
L 421.885371 -179.750905 
L 423.16626 -189.336707 
L 424.447149 -199.015288 
L 425.728038 -208.716636 
L 427.008927 -218.36592 
L 428.289816 -227.884368 
L 429.570705 -237.190263 
L 430.851594 -246.200064 
L 432.132483 -254.829617 
L 433.413372 -262.995435 
L 434.694261 -270.616029 
L 435.97515 -277.613245 
L 437.256039 -283.913598 
L 438.536928 -289.449546 
L 439.817817 -294.1607 
L 441.098707 -297.994911 
L 442.379596 -300.909242 
L 443.660485 -302.870755 
L 444.941374 -303.857143 
L 446.222263 -303.857143 
L 447.503152 -302.870755 
L 448.784041 -300.909242 
L 450.06493 -297.994911 
L 451.345819 -294.1607 
L 452.626708 -289.449546 
L 453.907597 -283.913598 
L 455.188486 -277.613245 
L 456.469375 -270.616029 
L 457.750264 -262.995435 
L 459.031153 -254.829617 
L 460.312042 -246.200064 
L 461.592931 -237.190263 
L 462.87382 -227.884368 
L 464.154709 -218.36592 
L 465.435598 -208.716636 
L 466.716488 -199.015288 
L 467.997377 -189.336707 
L 469.278266 -179.750905 
L 470.559155 -170.322349 
L 471.840044 -161.10938 
L 473.120933 -152.163779 
L 474.401822 -143.530497 
L 475.682711 -135.247518 
L 476.9636 -127.345865 
L 478.244489 -119.849735 
L 479.525378 -112.77674 
L 480.806267 -106.138253 
L 482.087156 -99.93983 
L 483.368045 -94.1817 
L 484.648934 -88.859301 
L 485.929823 -83.963845 
L 487.210712 -79.482905 
L 488.491601 -75.400997 
L 489.77249 -71.700153 
L 491.053379 -68.360472 
L 492.334269 -65.360639 
L 493.615158 -62.678407 
L 494.896047 -60.291033 
L 496.176936 -58.175662 
L 497.457825 -56.309671 
L 498.738714 -54.670957 
L 500.019603 -53.238173 
L 501.300492 -51.990919 
L 502.581381 -50.909892 
L 503.86227 -49.976991 
L 505.143159 -49.17538 
L 506.424048 -48.489532 
L 507.704937 -47.905228 
L 508.985826 -47.409546 
L 510.266715 -46.990821 
L 511.547604 -46.638593 
L 512.828493 -46.343544 
L 514.109382 -46.097424 
L 515.390271 -45.892975 
L 516.671161 -45.723846 
L 517.95205 -45.584513 
L 519.232939 -45.470203 
L 520.513828 -45.376806 
L 521.794717 -45.30081 
L 523.075606 -45.239226 
L 524.356495 -45.189525 
L 525.637384 -45.149578 
L 526.918273 -45.1176 
L 528.199162 -45.092107 
L 529.480051 -45.071865 
L 530.76094 -45.055858 
L 532.041829 -45.043251 
L 533.322718 -45.033362 
L 534.603607 -45.025636 
L 535.884496 -45.019624 
L 537.165385 -45.014964 
L 538.446274 -45.011368 
L 539.727163 -45.008603 
L 541.008052 -45.006485 
L 542.288942 -45.004871 
L 543.569831 -45.003644 
L 544.85072 -45.002716 
L 546.131609 -45.002016 
L 547.412498 -45.001491 
L 548.693387 -45.001099 
L 549.974276 -45.000807 
L 551.255165 -45.00059 
L 552.536054 -45.00043 
L 553.816943 -45.000312 
L 555.097832 -45.000225 
L 556.378721 -45.000162 
L 557.65961 -45.000116 
L 558.940499 -45.000083 
L 560.221388 -45.000059 
L 561.502277 -45.000042 
L 562.783166 -45.00003 
L 564.064055 -45.000021 
L 565.344944 -45.000015 
L 566.625833 -45.00001 
L 567.906723 -45.000007 
L 569.187612 -45.000005 
L 570.468501 -45.000003 
L 571.74939 -45.000002 
L 573.030279 -45.000002 
L 574.311168 -45.000001 
L 575.592057 -45.000001 
L 576.872946 -45.000001 
L 578.153835 -45 
L 579.434724 -45 
L 580.715613 -45 
L 581.996502 -45 
L 583.277391 -45 
L 584.55828 -45 
L 585.839169 -45 
L 587.120058 -45 
L 588.400947 -45 
L 589.681836 -45 
L 590.962725 -45 
L 592.243615 -45 
L 593.524504 -45 
L 594.805393 -45 
L 596.086282 -45 
L 597.367171 -45 
L 598.64806 -45 
L 599.928949 -45 
L 601.209838 -45 
L 602.490727 -45 
L 603.771616 -45 
L 605.052505 -45 
L 606.333394 -45 
L 607.614283 -45 
L 608.895172 -45 
L 610.176061 -45 
L 611.45695 -45 
L 612.737839 -45 
L 614.018728 -45 
L 615.299617 -45 
L 616.580506 -45 
L 617.861396 -45 
L 619.142285 -45 
L 620.423174 -45 
L 621.704063 -45 
L 622.984952 -45 
L 624.265841 -45 
L 625.54673 -45 
L 626.827619 -45 
L 628.108508 -45 
L 629.389397 -45 
L 630.670286 -45 
L 631.951175 -45 
L 633.232064 -45 
L 634.512953 -45 
L 635.793842 -45 
L 637.074731 -45 
L 638.35562 -45 
L 639.636509 -45 
L 640.917398 -45 
L 642.198287 -45 
L 643.479177 -45 
L 644.760066 -45 
L 646.040955 -45 
L 647.321844 -45 
L 648.602733 -45 
L 649.883622 -45 
L 651.164511 -45 
L 652.4454 -45 
L 653.726289 -45 
L 655.007178 -45 
L 656.288067 -45 
L 657.568956 -45 
L 658.849845 -45 
L 660.130734 -45 
L 661.411623 -45 
L 662.692512 -45 
L 663.973401 -45 
L 665.25429 -45 
L 666.535179 -45 
L 667.816069 -45 
L 669.096958 -45 
L 670.377847 -45 
L 671.658736 -45 
L 672.939625 -45 
L 674.220514 -45 
L 675.501403 -45 
L 676.782292 -45 
L 678.063181 -45 
L 679.34407 -45 
L 680.624959 -45 
L 681.905848 -45 
L 683.186737 -45 
L 684.467626 -45 
L 685.748515 -45 
L 687.029404 -45 
L 688.310293 -45 
L 689.591182 -45 
L 690.872071 -45 
L 692.15296 -45 
L 693.43385 -45 
L 694.714739 -45 
L 695.995628 -45 
L 697.276517 -45 
L 698.557406 -45 
L 699.838295 -45 
L 701.119184 -45 
L 702.400073 -45 
L 703.680962 -45 
L 704.961851 -45 
L 706.24274 -45 
L 707.523629 -45 
L 708.804518 -45 
L 710.085407 -45 
L 711.366296 -45 
L 712.647185 -45 
L 713.928074 -45 
L 715.208963 -45 
L 716.489852 -45 
L 717.770741 -45 
L 719.051631 -45 
L 720.33252 -45 
L 721.613409 -45 
L 722.894298 -45 
L 724.175187 -45 
L 725.456076 -45 
L 726.736965 -45 
L 728.017854 -45 
L 729.298743 -45 
L 730.579632 -45 
L 731.860521 -45 
L 733.14141 -45 
L 734.422299 -45 
L 735.703188 -45 
L 736.984077 -45 
L 738.264966 -45 
L 739.545855 -45 
L 740.826744 -45 
L 742.107633 -45 
L 743.388522 -45 
L 744.669412 -45 
L 745.950301 -45 
L 747.23119 -45 
L 748.512079 -45 
L 749.792968 -45 
L 751.073857 -45 
L 752.354746 -45 
L 753.635635 -45 
L 754.916524 -45 
L 756.197413 -45 
L 757.478302 -45 
L 758.759191 -45 
L 760.04008 -45 
L 761.320969 -45 
L 762.601858 -45 
L 763.882747 -45 
L 765.163636 -45 
L 765.163636 -45 
L 765.163636 -45 
L 763.882747 -45 
L 762.601858 -45 
L 761.320969 -45 
L 760.04008 -45 
L 758.759191 -45 
L 757.478302 -45 
L 756.197413 -45 
L 754.916524 -45 
L 753.635635 -45 
L 752.354746 -45 
L 751.073857 -45 
L 749.792968 -45 
L 748.512079 -45 
L 747.23119 -45 
L 745.950301 -45 
L 744.669412 -45 
L 743.388522 -45 
L 742.107633 -45 
L 740.826744 -45 
L 739.545855 -45 
L 738.264966 -45 
L 736.984077 -45 
L 735.703188 -45 
L 734.422299 -45 
L 733.14141 -45 
L 731.860521 -45 
L 730.579632 -45 
L 729.298743 -45 
L 728.017854 -45 
L 726.736965 -45 
L 725.456076 -45 
L 724.175187 -45 
L 722.894298 -45 
L 721.613409 -45 
L 720.33252 -45 
L 719.051631 -45 
L 717.770741 -45 
L 716.489852 -45 
L 715.208963 -45 
L 713.928074 -45 
L 712.647185 -45 
L 711.366296 -45 
L 710.085407 -45 
L 708.804518 -45 
L 707.523629 -45 
L 706.24274 -45 
L 704.961851 -45 
L 703.680962 -45 
L 702.400073 -45 
L 701.119184 -45 
L 699.838295 -45 
L 698.557406 -45 
L 697.276517 -45 
L 695.995628 -45 
L 694.714739 -45 
L 693.43385 -45 
L 692.15296 -45 
L 690.872071 -45 
L 689.591182 -45 
L 688.310293 -45 
L 687.029404 -45 
L 685.748515 -45 
L 684.467626 -45 
L 683.186737 -45 
L 681.905848 -45 
L 680.624959 -45 
L 679.34407 -45 
L 678.063181 -45 
L 676.782292 -45 
L 675.501403 -45 
L 674.220514 -45 
L 672.939625 -45 
L 671.658736 -45 
L 670.377847 -45 
L 669.096958 -45 
L 667.816069 -45 
L 666.535179 -45 
L 665.25429 -45 
L 663.973401 -45 
L 662.692512 -45 
L 661.411623 -45 
L 660.130734 -45 
L 658.849845 -45 
L 657.568956 -45 
L 656.288067 -45 
L 655.007178 -45 
L 653.726289 -45 
L 652.4454 -45 
L 651.164511 -45 
L 649.883622 -45 
L 648.602733 -45 
L 647.321844 -45 
L 646.040955 -45 
L 644.760066 -45 
L 643.479177 -45 
L 642.198287 -45 
L 640.917398 -45 
L 639.636509 -45 
L 638.35562 -45 
L 637.074731 -45 
L 635.793842 -45 
L 634.512953 -45 
L 633.232064 -45 
L 631.951175 -45 
L 630.670286 -45 
L 629.389397 -45 
L 628.108508 -45 
L 626.827619 -45 
L 625.54673 -45 
L 624.265841 -45 
L 622.984952 -45 
L 621.704063 -45 
L 620.423174 -45 
L 619.142285 -45 
L 617.861396 -45 
L 616.580506 -45 
L 615.299617 -45 
L 614.018728 -45 
L 612.737839 -45 
L 611.45695 -45 
L 610.176061 -45 
L 608.895172 -45 
L 607.614283 -45 
L 606.333394 -45 
L 605.052505 -45 
L 603.771616 -45 
L 602.490727 -45 
L 601.209838 -45 
L 599.928949 -45 
L 598.64806 -45 
L 597.367171 -45 
L 596.086282 -45 
L 594.805393 -45 
L 593.524504 -45 
L 592.243615 -45 
L 590.962725 -45 
L 589.681836 -45 
L 588.400947 -45 
L 587.120058 -45 
L 585.839169 -45 
L 584.55828 -45 
L 583.277391 -45 
L 581.996502 -45 
L 580.715613 -45 
L 579.434724 -45 
L 578.153835 -45 
L 576.872946 -45 
L 575.592057 -45 
L 574.311168 -45 
L 573.030279 -45 
L 571.74939 -45 
L 570.468501 -45 
L 569.187612 -45 
L 567.906723 -45 
L 566.625833 -45 
L 565.344944 -45 
L 564.064055 -45 
L 562.783166 -45 
L 561.502277 -45 
L 560.221388 -45 
L 558.940499 -45 
L 557.65961 -45 
L 556.378721 -45 
L 555.097832 -45 
L 553.816943 -45 
L 552.536054 -45 
L 551.255165 -45 
L 549.974276 -45 
L 548.693387 -45 
L 547.412498 -45 
L 546.131609 -45 
L 544.85072 -45 
L 543.569831 -45 
L 542.288942 -45 
L 541.008052 -45 
L 539.727163 -45 
L 538.446274 -45 
L 537.165385 -45 
L 535.884496 -45 
L 534.603607 -45 
L 533.322718 -45 
L 532.041829 -45 
L 530.76094 -45 
L 529.480051 -45 
L 528.199162 -45 
L 526.918273 -45 
L 525.637384 -45 
L 524.356495 -45 
L 523.075606 -45 
L 521.794717 -45 
L 520.513828 -45 
L 519.232939 -45 
L 517.95205 -45 
L 516.671161 -45 
L 515.390271 -45 
L 514.109382 -45 
L 512.828493 -45 
L 511.547604 -45 
L 510.266715 -45 
L 508.985826 -45 
L 507.704937 -45 
L 506.424048 -45 
L 505.143159 -45 
L 503.86227 -45 
L 502.581381 -45 
L 501.300492 -45 
L 500.019603 -45 
L 498.738714 -45 
L 497.457825 -45 
L 496.176936 -45 
L 494.896047 -45 
L 493.615158 -45 
L 492.334269 -45 
L 491.053379 -45 
L 489.77249 -45 
L 488.491601 -45 
L 487.210712 -45 
L 485.929823 -45 
L 484.648934 -45 
L 483.368045 -45 
L 482.087156 -45 
L 480.806267 -45 
L 479.525378 -45 
L 478.244489 -45 
L 476.9636 -45 
L 475.682711 -45 
L 474.401822 -45 
L 473.120933 -45 
L 471.840044 -45 
L 470.559155 -45 
L 469.278266 -45 
L 467.997377 -45 
L 466.716488 -45 
L 465.435598 -45 
L 464.154709 -45 
L 462.87382 -45 
L 461.592931 -45 
L 460.312042 -45 
L 459.031153 -45 
L 457.750264 -45 
L 456.469375 -45 
L 455.188486 -45 
L 453.907597 -45 
L 452.626708 -45 
L 451.345819 -45 
L 450.06493 -45 
L 448.784041 -45 
L 447.503152 -45 
L 446.222263 -45 
L 444.941374 -45 
L 443.660485 -45 
L 442.379596 -45 
L 441.098707 -45 
L 439.817817 -45 
L 438.536928 -45 
L 437.256039 -45 
L 435.97515 -45 
L 434.694261 -45 
L 433.413372 -45 
L 432.132483 -45 
L 430.851594 -45 
L 429.570705 -45 
L 428.289816 -45 
L 427.008927 -45 
L 425.728038 -45 
L 424.447149 -45 
L 423.16626 -45 
L 421.885371 -45 
L 420.604482 -45 
L 419.323593 -45 
L 418.042704 -45 
L 416.761815 -45 
L 415.480925 -45 
L 414.200036 -45 
L 412.919147 -45 
L 411.638258 -45 
L 410.357369 -45 
L 409.07648 -45 
L 407.795591 -45 
L 406.514702 -45 
L 405.233813 -45 
L 403.952924 -45 
L 402.672035 -45 
L 401.391146 -45 
L 400.110257 -45 
L 398.829368 -45 
L 397.548479 -45 
L 396.26759 -45 
L 394.986701 -45 
L 393.705812 -45 
L 392.424923 -45 
L 391.144034 -45 
L 389.863144 -45 
L 388.582255 -45 
L 387.301366 -45 
L 386.020477 -45 
L 384.739588 -45 
L 383.458699 -45 
L 382.17781 -45 
L 380.896921 -45 
L 379.616032 -45 
L 378.335143 -45 
L 377.054254 -45 
L 375.773365 -45 
L 374.492476 -45 
L 373.211587 -45 
L 371.930698 -45 
L 370.649809 -45 
L 369.36892 -45 
L 368.088031 -45 
L 366.807142 -45 
L 365.526253 -45 
L 364.245363 -45 
L 362.964474 -45 
L 361.683585 -45 
L 360.402696 -45 
L 359.121807 -45 
L 357.840918 -45 
L 356.560029 -45 
L 355.27914 -45 
L 353.998251 -45 
L 352.717362 -45 
L 351.436473 -45 
L 350.155584 -45 
L 348.874695 -45 
L 347.593806 -45 
L 346.312917 -45 
L 345.032028 -45 
L 343.751139 -45 
L 342.47025 -45 
L 341.189361 -45 
L 339.908471 -45 
L 338.627582 -45 
L 337.346693 -45 
L 336.065804 -45 
L 334.784915 -45 
L 333.504026 -45 
L 332.223137 -45 
L 330.942248 -45 
L 329.661359 -45 
L 328.38047 -45 
L 327.099581 -45 
L 325.818692 -45 
L 324.537803 -45 
L 323.256914 -45 
L 321.976025 -45 
L 320.695136 -45 
L 319.414247 -45 
L 318.133358 -45 
L 316.852469 -45 
L 315.57158 -45 
L 314.29069 -45 
L 313.009801 -45 
L 311.728912 -45 
L 310.448023 -45 
L 309.167134 -45 
L 307.886245 -45 
L 306.605356 -45 
L 305.324467 -45 
L 304.043578 -45 
L 302.762689 -45 
L 301.4818 -45 
L 300.200911 -45 
L 298.920022 -45 
L 297.639133 -45 
L 296.358244 -45 
L 295.077355 -45 
L 293.796466 -45 
L 292.515577 -45 
L 291.234688 -45 
L 289.953799 -45 
L 288.672909 -45 
L 287.39202 -45 
L 286.111131 -45 
L 284.830242 -45 
L 283.549353 -45 
L 282.268464 -45 
L 280.987575 -45 
L 279.706686 -45 
L 278.425797 -45 
L 277.144908 -45 
L 275.864019 -45 
L 274.58313 -45 
L 273.302241 -45 
L 272.021352 -45 
L 270.740463 -45 
L 269.459574 -45 
L 268.178685 -45 
L 266.897796 -45 
L 265.616907 -45 
L 264.336017 -45 
L 263.055128 -45 
L 261.774239 -45 
L 260.49335 -45 
L 259.212461 -45 
L 257.931572 -45 
L 256.650683 -45 
L 255.369794 -45 
L 254.088905 -45 
L 252.808016 -45 
L 251.527127 -45 
L 250.246238 -45 
L 248.965349 -45 
L 247.68446 -45 
L 246.403571 -45 
L 245.122682 -45 
L 243.841793 -45 
L 242.560904 -45 
L 241.280015 -45 
L 239.999126 -45 
L 238.718236 -45 
L 237.437347 -45 
L 236.156458 -45 
L 234.875569 -45 
L 233.59468 -45 
L 232.313791 -45 
L 231.032902 -45 
L 229.752013 -45 
L 228.471124 -45 
L 227.190235 -45 
L 225.909346 -45 
L 224.628457 -45 
L 223.347568 -45 
L 222.066679 -45 
L 220.78579 -45 
L 219.504901 -45 
L 218.224012 -45 
L 216.943123 -45 
L 215.662234 -45 
L 214.381345 -45 
L 213.100455 -45 
L 211.819566 -45 
L 210.538677 -45 
L 209.257788 -45 
L 207.976899 -45 
L 206.69601 -45 
L 205.415121 -45 
L 204.134232 -45 
L 202.853343 -45 
L 201.572454 -45 
L 200.291565 -45 
L 199.010676 -45 
L 197.729787 -45 
L 196.448898 -45 
L 195.168009 -45 
L 193.88712 -45 
L 192.606231 -45 
L 191.325342 -45 
L 190.044453 -45 
L 188.763563 -45 
L 187.482674 -45 
L 186.201785 -45 
L 184.920896 -45 
L 183.640007 -45 
L 182.359118 -45 
L 181.078229 -45 
L 179.79734 -45 
L 178.516451 -45 
L 177.235562 -45 
L 175.954673 -45 
L 174.673784 -45 
L 173.392895 -45 
L 172.112006 -45 
L 170.831117 -45 
L 169.550228 -45 
L 168.269339 -45 
L 166.98845 -45 
L 165.707561 -45 
L 164.426672 -45 
L 163.145782 -45 
L 161.864893 -45 
L 160.584004 -45 
L 159.303115 -45 
L 158.022226 -45 
L 156.741337 -45 
L 155.460448 -45 
L 154.179559 -45 
L 152.89867 -45 
L 151.617781 -45 
L 150.336892 -45 
L 149.056003 -45 
L 147.775114 -45 
L 146.494225 -45 
L 145.213336 -45 
L 143.932447 -45 
L 142.651558 -45 
L 141.370669 -45 
L 140.08978 -45 
L 138.808891 -45 
L 137.528001 -45 
L 136.247112 -45 
L 134.966223 -45 
L 133.685334 -45 
L 132.404445 -45 
L 131.123556 -45 
L 129.842667 -45 
L 128.561778 -45 
L 127.280889 -45 
L 126 -45 
z
" id="m71a28bec86" style="stroke:#e04b4b;stroke-opacity:0.6;stroke-width:4;"/>
    </defs>
    <g clip-path="url(#p6180ae5683)">
     <use style="fill:#e04b4b;fill-opacity:0.6;stroke:#e04b4b;stroke-opacity:0.6;stroke-width:4;" x="0" xlink:href="#m71a28bec86" y="360"/>
    </g>
   </g>
  </g>
  <g id="axes_6">
   <g id="text_14">
    <!-- Sample Means: -->
    <g style="fill:#9469ad;" transform="translate(528.259091 103.058122)scale(0.25 -0.25)">
     <use xlink:href="#DejaVuSans-53"/>
     <use x="63.476562" xlink:href="#DejaVuSans-61"/>
     <use x="124.755859" xlink:href="#DejaVuSans-6d"/>
     <use x="222.167969" xlink:href="#DejaVuSans-70"/>
     <use x="285.644531" xlink:href="#DejaVuSans-6c"/>
     <use x="313.427734" xlink:href="#DejaVuSans-65"/>
     <use x="374.951172" xlink:href="#DejaVuSans-20"/>
     <use x="406.738281" xlink:href="#DejaVuSans-4d"/>
     <use x="493.017578" xlink:href="#DejaVuSans-65"/>
     <use x="554.541016" xlink:href="#DejaVuSans-61"/>
     <use x="615.820312" xlink:href="#DejaVuSans-6e"/>
     <use x="679.199219" xlink:href="#DejaVuSans-73"/>
     <use x="731.298828" xlink:href="#DejaVuSans-3a"/>
    </g>
    <!-- $\bar{x}=\mu$, $s=\frac{\sigma}{\sqrt{n}}$ -->
    <g style="fill:#9469ad;" transform="translate(568.759091 133.457341)scale(0.25 -0.25)">
     <use transform="translate(62.138672 0.8)" xlink:href="#DejaVuSans-304"/>
     <use transform="translate(0 0.89375)" xlink:href="#DejaVuSans-Oblique-78"/>
     <use transform="translate(78.662109 0.89375)" xlink:href="#DejaVuSans-3d"/>
     <use transform="translate(181.933594 0.89375)" xlink:href="#DejaVuSans-Oblique-3bc"/>
     <use transform="translate(245.556641 0.89375)" xlink:href="#DejaVuSans-2c"/>
     <use transform="translate(277.34375 0.89375)" xlink:href="#DejaVuSans-20"/>
     <use transform="translate(309.130859 0.89375)" xlink:href="#DejaVuSans-Oblique-73"/>
     <use transform="translate(380.712891 0.89375)" xlink:href="#DejaVuSans-3d"/>
     <use transform="translate(514.984375 45.685938)scale(0.7)" xlink:href="#DejaVuSans-Oblique-3c3"/>
     <use transform="translate(483.984375 -47.535937)scale(0.7)" xlink:href="#DejaVuSans-221a"/>
     <use transform="translate(537.338867 -47.134375)scale(0.7)" xlink:href="#DejaVuSans-Oblique-6e"/>
     <path d="M 483.984375 19.690625 
L 483.984375 25.940625 
L 590.454102 25.940625 
L 590.454102 19.690625 
L 483.984375 19.690625 
z
"/>
     <path d="M 528.588867 4.690625 
L 528.588867 9.065625 
L 590.454102 9.065625 
L 590.454102 4.690625 
L 528.588867 4.690625 
z
"/>
    </g>
   </g>
   <g id="PolyCollection_3">
    <defs>
     <path d="M 126 -45 
L 126 -45 
L 127.280889 -45 
L 128.561778 -45 
L 129.842667 -45 
L 131.123556 -45 
L 132.404445 -45 
L 133.685334 -45 
L 134.966223 -45 
L 136.247112 -45 
L 137.528001 -45 
L 138.808891 -45 
L 140.08978 -45 
L 141.370669 -45 
L 142.651558 -45 
L 143.932447 -45 
L 145.213336 -45 
L 146.494225 -45 
L 147.775114 -45 
L 149.056003 -45 
L 150.336892 -45 
L 151.617781 -45 
L 152.89867 -45 
L 154.179559 -45 
L 155.460448 -45 
L 156.741337 -45 
L 158.022226 -45 
L 159.303115 -45 
L 160.584004 -45 
L 161.864893 -45 
L 163.145782 -45 
L 164.426672 -45 
L 165.707561 -45 
L 166.98845 -45 
L 168.269339 -45 
L 169.550228 -45 
L 170.831117 -45 
L 172.112006 -45 
L 173.392895 -45 
L 174.673784 -45 
L 175.954673 -45 
L 177.235562 -45 
L 178.516451 -45 
L 179.79734 -45 
L 181.078229 -45 
L 182.359118 -45 
L 183.640007 -45 
L 184.920896 -45 
L 186.201785 -45 
L 187.482674 -45 
L 188.763563 -45 
L 190.044453 -45 
L 191.325342 -45 
L 192.606231 -45 
L 193.88712 -45 
L 195.168009 -45 
L 196.448898 -45 
L 197.729787 -45 
L 199.010676 -45 
L 200.291565 -45 
L 201.572454 -45 
L 202.853343 -45 
L 204.134232 -45 
L 205.415121 -45 
L 206.69601 -45 
L 207.976899 -45 
L 209.257788 -45 
L 210.538677 -45 
L 211.819566 -45 
L 213.100455 -45 
L 214.381345 -45 
L 215.662234 -45 
L 216.943123 -45 
L 218.224012 -45 
L 219.504901 -45 
L 220.78579 -45 
L 222.066679 -45 
L 223.347568 -45 
L 224.628457 -45 
L 225.909346 -45 
L 227.190235 -45 
L 228.471124 -45 
L 229.752013 -45 
L 231.032902 -45 
L 232.313791 -45 
L 233.59468 -45 
L 234.875569 -45 
L 236.156458 -45 
L 237.437347 -45 
L 238.718236 -45 
L 239.999126 -45 
L 241.280015 -45 
L 242.560904 -45 
L 243.841793 -45 
L 245.122682 -45 
L 246.403571 -45 
L 247.68446 -45 
L 248.965349 -45 
L 250.246238 -45 
L 251.527127 -45 
L 252.808016 -45 
L 254.088905 -45 
L 255.369794 -45 
L 256.650683 -45 
L 257.931572 -45 
L 259.212461 -45 
L 260.49335 -45 
L 261.774239 -45 
L 263.055128 -45 
L 264.336017 -45 
L 265.616907 -45 
L 266.897796 -45 
L 268.178685 -45 
L 269.459574 -45 
L 270.740463 -45 
L 272.021352 -45 
L 273.302241 -45 
L 274.58313 -45 
L 275.864019 -45 
L 277.144908 -45 
L 278.425797 -45 
L 279.706686 -45 
L 280.987575 -45 
L 282.268464 -45 
L 283.549353 -45 
L 284.830242 -45 
L 286.111131 -45 
L 287.39202 -45 
L 288.672909 -45 
L 289.953799 -45 
L 291.234688 -45 
L 292.515577 -45 
L 293.796466 -45 
L 295.077355 -45 
L 296.358244 -45 
L 297.639133 -45 
L 298.920022 -45 
L 300.200911 -45 
L 301.4818 -45 
L 302.762689 -45 
L 304.043578 -45 
L 305.324467 -45 
L 306.605356 -45 
L 307.886245 -45 
L 309.167134 -45 
L 310.448023 -45 
L 311.728912 -45 
L 313.009801 -45 
L 314.29069 -45 
L 315.57158 -45 
L 316.852469 -45 
L 318.133358 -45 
L 319.414247 -45 
L 320.695136 -45 
L 321.976025 -45 
L 323.256914 -45 
L 324.537803 -45 
L 325.818692 -45 
L 327.099581 -45 
L 328.38047 -45 
L 329.661359 -45 
L 330.942248 -45 
L 332.223137 -45 
L 333.504026 -45 
L 334.784915 -45 
L 336.065804 -45 
L 337.346693 -45 
L 338.627582 -45 
L 339.908471 -45 
L 341.189361 -45 
L 342.47025 -45 
L 343.751139 -45 
L 345.032028 -45 
L 346.312917 -45 
L 347.593806 -45 
L 348.874695 -45 
L 350.155584 -45 
L 351.436473 -45 
L 352.717362 -45 
L 353.998251 -45 
L 355.27914 -45 
L 356.560029 -45 
L 357.840918 -45 
L 359.121807 -45 
L 360.402696 -45 
L 361.683585 -45 
L 362.964474 -45 
L 364.245363 -45 
L 365.526253 -45 
L 366.807142 -45 
L 368.088031 -45 
L 369.36892 -45 
L 370.649809 -45 
L 371.930698 -45 
L 373.211587 -45 
L 374.492476 -45 
L 375.773365 -45 
L 377.054254 -45 
L 378.335143 -45 
L 379.616032 -45 
L 380.896921 -45 
L 382.17781 -45 
L 383.458699 -45 
L 384.739588 -45 
L 386.020477 -45 
L 387.301366 -45 
L 388.582255 -45 
L 389.863144 -45 
L 391.144034 -45 
L 392.424923 -45 
L 393.705812 -45 
L 394.986701 -45 
L 396.26759 -45 
L 397.548479 -45 
L 398.829368 -45 
L 400.110257 -45 
L 401.391146 -45 
L 402.672035 -45 
L 403.952924 -45 
L 405.233813 -45 
L 406.514702 -45 
L 407.795591 -45 
L 409.07648 -45 
L 410.357369 -45 
L 411.638258 -45 
L 412.919147 -45 
L 414.200036 -45 
L 415.480925 -45 
L 416.761815 -45 
L 418.042704 -45 
L 419.323593 -45.000001 
L 420.604482 -45.000003 
L 421.885371 -45.000021 
L 423.16626 -45.000118 
L 424.447149 -45.000597 
L 425.728038 -45.002747 
L 427.008927 -45.011499 
L 428.289816 -45.043749 
L 429.570705 -45.151301 
L 430.851594 -45.475619 
L 432.132483 -46.359021 
L 433.413372 -48.529729 
L 434.694261 -53.333071 
L 435.97515 -62.882051 
L 437.256039 -79.880125 
L 438.536928 -106.842524 
L 439.817817 -144.665502 
L 441.098707 -190.999368 
L 442.379596 -239.404165 
L 443.660485 -280.292792 
L 444.941374 -303.857143 
L 446.222263 -303.857143 
L 447.503152 -280.292792 
L 448.784041 -239.404165 
L 450.06493 -190.999368 
L 451.345819 -144.665502 
L 452.626708 -106.842524 
L 453.907597 -79.880125 
L 455.188486 -62.882051 
L 456.469375 -53.333071 
L 457.750264 -48.529729 
L 459.031153 -46.359021 
L 460.312042 -45.475619 
L 461.592931 -45.151301 
L 462.87382 -45.043749 
L 464.154709 -45.011499 
L 465.435598 -45.002747 
L 466.716488 -45.000597 
L 467.997377 -45.000118 
L 469.278266 -45.000021 
L 470.559155 -45.000003 
L 471.840044 -45.000001 
L 473.120933 -45 
L 474.401822 -45 
L 475.682711 -45 
L 476.9636 -45 
L 478.244489 -45 
L 479.525378 -45 
L 480.806267 -45 
L 482.087156 -45 
L 483.368045 -45 
L 484.648934 -45 
L 485.929823 -45 
L 487.210712 -45 
L 488.491601 -45 
L 489.77249 -45 
L 491.053379 -45 
L 492.334269 -45 
L 493.615158 -45 
L 494.896047 -45 
L 496.176936 -45 
L 497.457825 -45 
L 498.738714 -45 
L 500.019603 -45 
L 501.300492 -45 
L 502.581381 -45 
L 503.86227 -45 
L 505.143159 -45 
L 506.424048 -45 
L 507.704937 -45 
L 508.985826 -45 
L 510.266715 -45 
L 511.547604 -45 
L 512.828493 -45 
L 514.109382 -45 
L 515.390271 -45 
L 516.671161 -45 
L 517.95205 -45 
L 519.232939 -45 
L 520.513828 -45 
L 521.794717 -45 
L 523.075606 -45 
L 524.356495 -45 
L 525.637384 -45 
L 526.918273 -45 
L 528.199162 -45 
L 529.480051 -45 
L 530.76094 -45 
L 532.041829 -45 
L 533.322718 -45 
L 534.603607 -45 
L 535.884496 -45 
L 537.165385 -45 
L 538.446274 -45 
L 539.727163 -45 
L 541.008052 -45 
L 542.288942 -45 
L 543.569831 -45 
L 544.85072 -45 
L 546.131609 -45 
L 547.412498 -45 
L 548.693387 -45 
L 549.974276 -45 
L 551.255165 -45 
L 552.536054 -45 
L 553.816943 -45 
L 555.097832 -45 
L 556.378721 -45 
L 557.65961 -45 
L 558.940499 -45 
L 560.221388 -45 
L 561.502277 -45 
L 562.783166 -45 
L 564.064055 -45 
L 565.344944 -45 
L 566.625833 -45 
L 567.906723 -45 
L 569.187612 -45 
L 570.468501 -45 
L 571.74939 -45 
L 573.030279 -45 
L 574.311168 -45 
L 575.592057 -45 
L 576.872946 -45 
L 578.153835 -45 
L 579.434724 -45 
L 580.715613 -45 
L 581.996502 -45 
L 583.277391 -45 
L 584.55828 -45 
L 585.839169 -45 
L 587.120058 -45 
L 588.400947 -45 
L 589.681836 -45 
L 590.962725 -45 
L 592.243615 -45 
L 593.524504 -45 
L 594.805393 -45 
L 596.086282 -45 
L 597.367171 -45 
L 598.64806 -45 
L 599.928949 -45 
L 601.209838 -45 
L 602.490727 -45 
L 603.771616 -45 
L 605.052505 -45 
L 606.333394 -45 
L 607.614283 -45 
L 608.895172 -45 
L 610.176061 -45 
L 611.45695 -45 
L 612.737839 -45 
L 614.018728 -45 
L 615.299617 -45 
L 616.580506 -45 
L 617.861396 -45 
L 619.142285 -45 
L 620.423174 -45 
L 621.704063 -45 
L 622.984952 -45 
L 624.265841 -45 
L 625.54673 -45 
L 626.827619 -45 
L 628.108508 -45 
L 629.389397 -45 
L 630.670286 -45 
L 631.951175 -45 
L 633.232064 -45 
L 634.512953 -45 
L 635.793842 -45 
L 637.074731 -45 
L 638.35562 -45 
L 639.636509 -45 
L 640.917398 -45 
L 642.198287 -45 
L 643.479177 -45 
L 644.760066 -45 
L 646.040955 -45 
L 647.321844 -45 
L 648.602733 -45 
L 649.883622 -45 
L 651.164511 -45 
L 652.4454 -45 
L 653.726289 -45 
L 655.007178 -45 
L 656.288067 -45 
L 657.568956 -45 
L 658.849845 -45 
L 660.130734 -45 
L 661.411623 -45 
L 662.692512 -45 
L 663.973401 -45 
L 665.25429 -45 
L 666.535179 -45 
L 667.816069 -45 
L 669.096958 -45 
L 670.377847 -45 
L 671.658736 -45 
L 672.939625 -45 
L 674.220514 -45 
L 675.501403 -45 
L 676.782292 -45 
L 678.063181 -45 
L 679.34407 -45 
L 680.624959 -45 
L 681.905848 -45 
L 683.186737 -45 
L 684.467626 -45 
L 685.748515 -45 
L 687.029404 -45 
L 688.310293 -45 
L 689.591182 -45 
L 690.872071 -45 
L 692.15296 -45 
L 693.43385 -45 
L 694.714739 -45 
L 695.995628 -45 
L 697.276517 -45 
L 698.557406 -45 
L 699.838295 -45 
L 701.119184 -45 
L 702.400073 -45 
L 703.680962 -45 
L 704.961851 -45 
L 706.24274 -45 
L 707.523629 -45 
L 708.804518 -45 
L 710.085407 -45 
L 711.366296 -45 
L 712.647185 -45 
L 713.928074 -45 
L 715.208963 -45 
L 716.489852 -45 
L 717.770741 -45 
L 719.051631 -45 
L 720.33252 -45 
L 721.613409 -45 
L 722.894298 -45 
L 724.175187 -45 
L 725.456076 -45 
L 726.736965 -45 
L 728.017854 -45 
L 729.298743 -45 
L 730.579632 -45 
L 731.860521 -45 
L 733.14141 -45 
L 734.422299 -45 
L 735.703188 -45 
L 736.984077 -45 
L 738.264966 -45 
L 739.545855 -45 
L 740.826744 -45 
L 742.107633 -45 
L 743.388522 -45 
L 744.669412 -45 
L 745.950301 -45 
L 747.23119 -45 
L 748.512079 -45 
L 749.792968 -45 
L 751.073857 -45 
L 752.354746 -45 
L 753.635635 -45 
L 754.916524 -45 
L 756.197413 -45 
L 757.478302 -45 
L 758.759191 -45 
L 760.04008 -45 
L 761.320969 -45 
L 762.601858 -45 
L 763.882747 -45 
L 765.163636 -45 
L 765.163636 -45 
L 765.163636 -45 
L 763.882747 -45 
L 762.601858 -45 
L 761.320969 -45 
L 760.04008 -45 
L 758.759191 -45 
L 757.478302 -45 
L 756.197413 -45 
L 754.916524 -45 
L 753.635635 -45 
L 752.354746 -45 
L 751.073857 -45 
L 749.792968 -45 
L 748.512079 -45 
L 747.23119 -45 
L 745.950301 -45 
L 744.669412 -45 
L 743.388522 -45 
L 742.107633 -45 
L 740.826744 -45 
L 739.545855 -45 
L 738.264966 -45 
L 736.984077 -45 
L 735.703188 -45 
L 734.422299 -45 
L 733.14141 -45 
L 731.860521 -45 
L 730.579632 -45 
L 729.298743 -45 
L 728.017854 -45 
L 726.736965 -45 
L 725.456076 -45 
L 724.175187 -45 
L 722.894298 -45 
L 721.613409 -45 
L 720.33252 -45 
L 719.051631 -45 
L 717.770741 -45 
L 716.489852 -45 
L 715.208963 -45 
L 713.928074 -45 
L 712.647185 -45 
L 711.366296 -45 
L 710.085407 -45 
L 708.804518 -45 
L 707.523629 -45 
L 706.24274 -45 
L 704.961851 -45 
L 703.680962 -45 
L 702.400073 -45 
L 701.119184 -45 
L 699.838295 -45 
L 698.557406 -45 
L 697.276517 -45 
L 695.995628 -45 
L 694.714739 -45 
L 693.43385 -45 
L 692.15296 -45 
L 690.872071 -45 
L 689.591182 -45 
L 688.310293 -45 
L 687.029404 -45 
L 685.748515 -45 
L 684.467626 -45 
L 683.186737 -45 
L 681.905848 -45 
L 680.624959 -45 
L 679.34407 -45 
L 678.063181 -45 
L 676.782292 -45 
L 675.501403 -45 
L 674.220514 -45 
L 672.939625 -45 
L 671.658736 -45 
L 670.377847 -45 
L 669.096958 -45 
L 667.816069 -45 
L 666.535179 -45 
L 665.25429 -45 
L 663.973401 -45 
L 662.692512 -45 
L 661.411623 -45 
L 660.130734 -45 
L 658.849845 -45 
L 657.568956 -45 
L 656.288067 -45 
L 655.007178 -45 
L 653.726289 -45 
L 652.4454 -45 
L 651.164511 -45 
L 649.883622 -45 
L 648.602733 -45 
L 647.321844 -45 
L 646.040955 -45 
L 644.760066 -45 
L 643.479177 -45 
L 642.198287 -45 
L 640.917398 -45 
L 639.636509 -45 
L 638.35562 -45 
L 637.074731 -45 
L 635.793842 -45 
L 634.512953 -45 
L 633.232064 -45 
L 631.951175 -45 
L 630.670286 -45 
L 629.389397 -45 
L 628.108508 -45 
L 626.827619 -45 
L 625.54673 -45 
L 624.265841 -45 
L 622.984952 -45 
L 621.704063 -45 
L 620.423174 -45 
L 619.142285 -45 
L 617.861396 -45 
L 616.580506 -45 
L 615.299617 -45 
L 614.018728 -45 
L 612.737839 -45 
L 611.45695 -45 
L 610.176061 -45 
L 608.895172 -45 
L 607.614283 -45 
L 606.333394 -45 
L 605.052505 -45 
L 603.771616 -45 
L 602.490727 -45 
L 601.209838 -45 
L 599.928949 -45 
L 598.64806 -45 
L 597.367171 -45 
L 596.086282 -45 
L 594.805393 -45 
L 593.524504 -45 
L 592.243615 -45 
L 590.962725 -45 
L 589.681836 -45 
L 588.400947 -45 
L 587.120058 -45 
L 585.839169 -45 
L 584.55828 -45 
L 583.277391 -45 
L 581.996502 -45 
L 580.715613 -45 
L 579.434724 -45 
L 578.153835 -45 
L 576.872946 -45 
L 575.592057 -45 
L 574.311168 -45 
L 573.030279 -45 
L 571.74939 -45 
L 570.468501 -45 
L 569.187612 -45 
L 567.906723 -45 
L 566.625833 -45 
L 565.344944 -45 
L 564.064055 -45 
L 562.783166 -45 
L 561.502277 -45 
L 560.221388 -45 
L 558.940499 -45 
L 557.65961 -45 
L 556.378721 -45 
L 555.097832 -45 
L 553.816943 -45 
L 552.536054 -45 
L 551.255165 -45 
L 549.974276 -45 
L 548.693387 -45 
L 547.412498 -45 
L 546.131609 -45 
L 544.85072 -45 
L 543.569831 -45 
L 542.288942 -45 
L 541.008052 -45 
L 539.727163 -45 
L 538.446274 -45 
L 537.165385 -45 
L 535.884496 -45 
L 534.603607 -45 
L 533.322718 -45 
L 532.041829 -45 
L 530.76094 -45 
L 529.480051 -45 
L 528.199162 -45 
L 526.918273 -45 
L 525.637384 -45 
L 524.356495 -45 
L 523.075606 -45 
L 521.794717 -45 
L 520.513828 -45 
L 519.232939 -45 
L 517.95205 -45 
L 516.671161 -45 
L 515.390271 -45 
L 514.109382 -45 
L 512.828493 -45 
L 511.547604 -45 
L 510.266715 -45 
L 508.985826 -45 
L 507.704937 -45 
L 506.424048 -45 
L 505.143159 -45 
L 503.86227 -45 
L 502.581381 -45 
L 501.300492 -45 
L 500.019603 -45 
L 498.738714 -45 
L 497.457825 -45 
L 496.176936 -45 
L 494.896047 -45 
L 493.615158 -45 
L 492.334269 -45 
L 491.053379 -45 
L 489.77249 -45 
L 488.491601 -45 
L 487.210712 -45 
L 485.929823 -45 
L 484.648934 -45 
L 483.368045 -45 
L 482.087156 -45 
L 480.806267 -45 
L 479.525378 -45 
L 478.244489 -45 
L 476.9636 -45 
L 475.682711 -45 
L 474.401822 -45 
L 473.120933 -45 
L 471.840044 -45 
L 470.559155 -45 
L 469.278266 -45 
L 467.997377 -45 
L 466.716488 -45 
L 465.435598 -45 
L 464.154709 -45 
L 462.87382 -45 
L 461.592931 -45 
L 460.312042 -45 
L 459.031153 -45 
L 457.750264 -45 
L 456.469375 -45 
L 455.188486 -45 
L 453.907597 -45 
L 452.626708 -45 
L 451.345819 -45 
L 450.06493 -45 
L 448.784041 -45 
L 447.503152 -45 
L 446.222263 -45 
L 444.941374 -45 
L 443.660485 -45 
L 442.379596 -45 
L 441.098707 -45 
L 439.817817 -45 
L 438.536928 -45 
L 437.256039 -45 
L 435.97515 -45 
L 434.694261 -45 
L 433.413372 -45 
L 432.132483 -45 
L 430.851594 -45 
L 429.570705 -45 
L 428.289816 -45 
L 427.008927 -45 
L 425.728038 -45 
L 424.447149 -45 
L 423.16626 -45 
L 421.885371 -45 
L 420.604482 -45 
L 419.323593 -45 
L 418.042704 -45 
L 416.761815 -45 
L 415.480925 -45 
L 414.200036 -45 
L 412.919147 -45 
L 411.638258 -45 
L 410.357369 -45 
L 409.07648 -45 
L 407.795591 -45 
L 406.514702 -45 
L 405.233813 -45 
L 403.952924 -45 
L 402.672035 -45 
L 401.391146 -45 
L 400.110257 -45 
L 398.829368 -45 
L 397.548479 -45 
L 396.26759 -45 
L 394.986701 -45 
L 393.705812 -45 
L 392.424923 -45 
L 391.144034 -45 
L 389.863144 -45 
L 388.582255 -45 
L 387.301366 -45 
L 386.020477 -45 
L 384.739588 -45 
L 383.458699 -45 
L 382.17781 -45 
L 380.896921 -45 
L 379.616032 -45 
L 378.335143 -45 
L 377.054254 -45 
L 375.773365 -45 
L 374.492476 -45 
L 373.211587 -45 
L 371.930698 -45 
L 370.649809 -45 
L 369.36892 -45 
L 368.088031 -45 
L 366.807142 -45 
L 365.526253 -45 
L 364.245363 -45 
L 362.964474 -45 
L 361.683585 -45 
L 360.402696 -45 
L 359.121807 -45 
L 357.840918 -45 
L 356.560029 -45 
L 355.27914 -45 
L 353.998251 -45 
L 352.717362 -45 
L 351.436473 -45 
L 350.155584 -45 
L 348.874695 -45 
L 347.593806 -45 
L 346.312917 -45 
L 345.032028 -45 
L 343.751139 -45 
L 342.47025 -45 
L 341.189361 -45 
L 339.908471 -45 
L 338.627582 -45 
L 337.346693 -45 
L 336.065804 -45 
L 334.784915 -45 
L 333.504026 -45 
L 332.223137 -45 
L 330.942248 -45 
L 329.661359 -45 
L 328.38047 -45 
L 327.099581 -45 
L 325.818692 -45 
L 324.537803 -45 
L 323.256914 -45 
L 321.976025 -45 
L 320.695136 -45 
L 319.414247 -45 
L 318.133358 -45 
L 316.852469 -45 
L 315.57158 -45 
L 314.29069 -45 
L 313.009801 -45 
L 311.728912 -45 
L 310.448023 -45 
L 309.167134 -45 
L 307.886245 -45 
L 306.605356 -45 
L 305.324467 -45 
L 304.043578 -45 
L 302.762689 -45 
L 301.4818 -45 
L 300.200911 -45 
L 298.920022 -45 
L 297.639133 -45 
L 296.358244 -45 
L 295.077355 -45 
L 293.796466 -45 
L 292.515577 -45 
L 291.234688 -45 
L 289.953799 -45 
L 288.672909 -45 
L 287.39202 -45 
L 286.111131 -45 
L 284.830242 -45 
L 283.549353 -45 
L 282.268464 -45 
L 280.987575 -45 
L 279.706686 -45 
L 278.425797 -45 
L 277.144908 -45 
L 275.864019 -45 
L 274.58313 -45 
L 273.302241 -45 
L 272.021352 -45 
L 270.740463 -45 
L 269.459574 -45 
L 268.178685 -45 
L 266.897796 -45 
L 265.616907 -45 
L 264.336017 -45 
L 263.055128 -45 
L 261.774239 -45 
L 260.49335 -45 
L 259.212461 -45 
L 257.931572 -45 
L 256.650683 -45 
L 255.369794 -45 
L 254.088905 -45 
L 252.808016 -45 
L 251.527127 -45 
L 250.246238 -45 
L 248.965349 -45 
L 247.68446 -45 
L 246.403571 -45 
L 245.122682 -45 
L 243.841793 -45 
L 242.560904 -45 
L 241.280015 -45 
L 239.999126 -45 
L 238.718236 -45 
L 237.437347 -45 
L 236.156458 -45 
L 234.875569 -45 
L 233.59468 -45 
L 232.313791 -45 
L 231.032902 -45 
L 229.752013 -45 
L 228.471124 -45 
L 227.190235 -45 
L 225.909346 -45 
L 224.628457 -45 
L 223.347568 -45 
L 222.066679 -45 
L 220.78579 -45 
L 219.504901 -45 
L 218.224012 -45 
L 216.943123 -45 
L 215.662234 -45 
L 214.381345 -45 
L 213.100455 -45 
L 211.819566 -45 
L 210.538677 -45 
L 209.257788 -45 
L 207.976899 -45 
L 206.69601 -45 
L 205.415121 -45 
L 204.134232 -45 
L 202.853343 -45 
L 201.572454 -45 
L 200.291565 -45 
L 199.010676 -45 
L 197.729787 -45 
L 196.448898 -45 
L 195.168009 -45 
L 193.88712 -45 
L 192.606231 -45 
L 191.325342 -45 
L 190.044453 -45 
L 188.763563 -45 
L 187.482674 -45 
L 186.201785 -45 
L 184.920896 -45 
L 183.640007 -45 
L 182.359118 -45 
L 181.078229 -45 
L 179.79734 -45 
L 178.516451 -45 
L 177.235562 -45 
L 175.954673 -45 
L 174.673784 -45 
L 173.392895 -45 
L 172.112006 -45 
L 170.831117 -45 
L 169.550228 -45 
L 168.269339 -45 
L 166.98845 -45 
L 165.707561 -45 
L 164.426672 -45 
L 163.145782 -45 
L 161.864893 -45 
L 160.584004 -45 
L 159.303115 -45 
L 158.022226 -45 
L 156.741337 -45 
L 155.460448 -45 
L 154.179559 -45 
L 152.89867 -45 
L 151.617781 -45 
L 150.336892 -45 
L 149.056003 -45 
L 147.775114 -45 
L 146.494225 -45 
L 145.213336 -45 
L 143.932447 -45 
L 142.651558 -45 
L 141.370669 -45 
L 140.08978 -45 
L 138.808891 -45 
L 137.528001 -45 
L 136.247112 -45 
L 134.966223 -45 
L 133.685334 -45 
L 132.404445 -45 
L 131.123556 -45 
L 129.842667 -45 
L 128.561778 -45 
L 127.280889 -45 
L 126 -45 
z
" id="md9bc23c5b9" style="stroke:#9469ad;stroke-opacity:0.6;stroke-width:4;"/>
    </defs>
    <g clip-path="url(#p6180ae5683)">
     <use style="fill:#9469ad;fill-opacity:0.6;stroke:#9469ad;stroke-opacity:0.6;stroke-width:4;" x="0" xlink:href="#md9bc23c5b9" y="360"/>
    </g>
   </g>
  </g>
 </g>
 <defs>
  <clipPath id="p6180ae5683">
   <rect height="271.8" width="639.163636" x="126" y="43.2"/>
  </clipPath>
  <clipPath id="p0d95c31cd4">
   <rect height="271.8" width="71.018182" x="836.181818" y="43.2"/>
  </clipPath>
 </defs>
</svg>
