<?xml version="1.0" encoding="utf-8" standalone="no"?>
<!DOCTYPE svg PUBLIC "-//W3C//DTD SVG 1.1//EN"
  "http://www.w3.org/Graphics/SVG/1.1/DTD/svg11.dtd">
<!-- Created with matplotlib (http://matplotlib.org/) -->
<svg height="648pt" version="1.1" viewBox="0 0 1440 648" width="1440pt" xmlns="http://www.w3.org/2000/svg" xmlns:xlink="http://www.w3.org/1999/xlink">
 <defs>
  <style type="text/css">
*{stroke-linecap:butt;stroke-linejoin:round;}
  </style>
 </defs>
 <g id="figure_1">
  <g id="patch_1">
   <path d="M 0 648 
L 1440 648 
L 1440 0 
L 0 0 
z
" style="fill:none;"/>
  </g>
  <g id="axes_1">
   <g id="patch_2">
    <path d="M 180 567 
L 1296 567 
L 1296 77.76 
L 180 77.76 
z
" style="fill:none;opacity:0;"/>
   </g>
   <g id="patch_3">
    <path clip-path="url(#pf9f53a5c2d)" d="M 230.727273 567 
L 284.124402 567 
L 284.124402 550.984141 
L 230.727273 550.984141 
z
" style="fill:#4682b4;stroke:#d2d2d2;stroke-linejoin:miter;"/>
   </g>
   <g id="patch_4">
    <path clip-path="url(#pf9f53a5c2d)" d="M 284.124402 567 
L 337.521531 567 
L 337.521531 502.343385 
L 284.124402 502.343385 
z
" style="fill:#4682b4;stroke:#d2d2d2;stroke-linejoin:miter;"/>
   </g>
   <g id="patch_5">
    <path clip-path="url(#pf9f53a5c2d)" d="M 337.521531 567 
L 390.91866 567 
L 390.91866 413.959571 
L 337.521531 413.959571 
z
" style="fill:#4682b4;stroke:#d2d2d2;stroke-linejoin:miter;"/>
   </g>
   <g id="patch_6">
    <path clip-path="url(#pf9f53a5c2d)" d="M 390.91866 567 
L 444.315789 567 
L 444.315789 310.153078 
L 390.91866 310.153078 
z
" style="fill:#4682b4;stroke:#d2d2d2;stroke-linejoin:miter;"/>
   </g>
   <g id="patch_7">
    <path clip-path="url(#pf9f53a5c2d)" d="M 444.315789 567 
L 497.712919 567 
L 497.712919 179.356897 
L 444.315789 179.356897 
z
" style="fill:#4682b4;stroke:#d2d2d2;stroke-linejoin:miter;"/>
   </g>
   <g id="patch_8">
    <path clip-path="url(#pf9f53a5c2d)" d="M 497.712919 567 
L 551.110048 567 
L 551.110048 134.57181 
L 497.712919 134.57181 
z
" style="fill:#4682b4;stroke:#d2d2d2;stroke-linejoin:miter;"/>
   </g>
   <g id="patch_9">
    <path clip-path="url(#pf9f53a5c2d)" d="M 551.110048 567 
L 604.507177 567 
L 604.507177 101.057143 
L 551.110048 101.057143 
z
" style="fill:#4682b4;stroke:#d2d2d2;stroke-linejoin:miter;"/>
   </g>
   <g id="patch_10">
    <path clip-path="url(#pf9f53a5c2d)" d="M 604.507177 567 
L 657.904306 567 
L 657.904306 166.900118 
L 604.507177 166.900118 
z
" style="fill:#4682b4;stroke:#d2d2d2;stroke-linejoin:miter;"/>
   </g>
   <g id="patch_11">
    <path clip-path="url(#pf9f53a5c2d)" d="M 657.904306 567 
L 711.301435 567 
L 711.301435 269.223661 
L 657.904306 269.223661 
z
" style="fill:#4682b4;stroke:#d2d2d2;stroke-linejoin:miter;"/>
   </g>
   <g id="patch_12">
    <path clip-path="url(#pf9f53a5c2d)" d="M 711.301435 567 
L 764.698565 567 
L 764.698565 356.717705 
L 711.301435 356.717705 
z
" style="fill:#4682b4;stroke:#d2d2d2;stroke-linejoin:miter;"/>
   </g>
   <g id="patch_13">
    <path clip-path="url(#pf9f53a5c2d)" d="M 764.698565 567 
L 818.095694 567 
L 818.095694 435.610639 
L 764.698565 435.610639 
z
" style="fill:#4682b4;stroke:#d2d2d2;stroke-linejoin:miter;"/>
   </g>
   <g id="patch_14">
    <path clip-path="url(#pf9f53a5c2d)" d="M 818.095694 567 
L 871.492823 567 
L 871.492823 494.928635 
L 818.095694 494.928635 
z
" style="fill:#4682b4;stroke:#d2d2d2;stroke-linejoin:miter;"/>
   </g>
   <g id="patch_15">
    <path clip-path="url(#pf9f53a5c2d)" d="M 871.492823 567 
L 924.889952 567 
L 924.889952 520.731963 
L 871.492823 520.731963 
z
" style="fill:#4682b4;stroke:#d2d2d2;stroke-linejoin:miter;"/>
   </g>
   <g id="patch_16">
    <path clip-path="url(#pf9f53a5c2d)" d="M 924.889952 567 
L 978.287081 567 
L 978.287081 550.094371 
L 924.889952 550.094371 
z
" style="fill:#4682b4;stroke:#d2d2d2;stroke-linejoin:miter;"/>
   </g>
   <g id="patch_17">
    <path clip-path="url(#pf9f53a5c2d)" d="M 978.287081 567 
L 1031.684211 567 
L 1031.684211 558.992071 
L 978.287081 558.992071 
z
" style="fill:#4682b4;stroke:#d2d2d2;stroke-linejoin:miter;"/>
   </g>
   <g id="patch_18">
    <path clip-path="url(#pf9f53a5c2d)" d="M 1031.684211 567 
L 1085.08134 567 
L 1085.08134 562.55115 
L 1031.684211 562.55115 
z
" style="fill:#4682b4;stroke:#d2d2d2;stroke-linejoin:miter;"/>
   </g>
   <g id="patch_19">
    <path clip-path="url(#pf9f53a5c2d)" d="M 1085.08134 567 
L 1138.478469 567 
L 1138.478469 565.22046 
L 1085.08134 565.22046 
z
" style="fill:#4682b4;stroke:#d2d2d2;stroke-linejoin:miter;"/>
   </g>
   <g id="patch_20">
    <path clip-path="url(#pf9f53a5c2d)" d="M 1138.478469 567 
L 1191.875598 567 
L 1191.875598 567 
L 1138.478469 567 
z
" style="fill:#4682b4;stroke:#d2d2d2;stroke-linejoin:miter;"/>
   </g>
   <g id="patch_21">
    <path clip-path="url(#pf9f53a5c2d)" d="M 1191.875598 567 
L 1245.272727 567 
L 1245.272727 566.70341 
L 1191.875598 566.70341 
z
" style="fill:#4682b4;stroke:#d2d2d2;stroke-linejoin:miter;"/>
   </g>
   <g id="matplotlib.axis_1">
    <g id="xtick_1">
     <g id="line2d_1">
      <defs>
       <path d="M 0 0 
L 0 3.5 
" id="m8b8a93ee7a" style="stroke:#d2d2d2;stroke-width:0.8;"/>
      </defs>
      <g>
       <use style="fill:#d2d2d2;stroke:#d2d2d2;stroke-width:0.8;" x="230.727273" xlink:href="#m8b8a93ee7a" y="567"/>
      </g>
     </g>
     <g id="text_1">
      <!-- $\mathdefault{0.0}$ -->
      <defs>
       <path d="M 31.78125 3.421875 
Q 39.265625 3.421875 42.96875 11.625 
Q 46.6875 19.828125 46.6875 36.375 
Q 46.6875 52.984375 42.96875 61.1875 
Q 39.265625 69.390625 31.78125 69.390625 
Q 24.3125 69.390625 20.59375 61.1875 
Q 16.890625 52.984375 16.890625 36.375 
Q 16.890625 19.828125 20.59375 11.625 
Q 24.3125 3.421875 31.78125 3.421875 
z
M 31.78125 -1.421875 
Q 19.921875 -1.421875 13.25 8.53125 
Q 6.59375 18.5 6.59375 36.375 
Q 6.59375 54.296875 13.25 64.25 
Q 19.921875 74.21875 31.78125 74.21875 
Q 43.703125 74.21875 50.34375 64.25 
Q 56.984375 54.296875 56.984375 36.375 
Q 56.984375 18.5 50.34375 8.53125 
Q 43.703125 -1.421875 31.78125 -1.421875 
z
" id="DejaVuSerif-30"/>
       <path d="M 9.421875 5.078125 
Q 9.421875 7.8125 11.28125 9.71875 
Q 13.140625 11.625 15.921875 11.625 
Q 18.609375 11.625 20.5 9.71875 
Q 22.40625 7.8125 22.40625 5.078125 
Q 22.40625 2.390625 20.5 0.484375 
Q 18.609375 -1.421875 15.921875 -1.421875 
Q 13.140625 -1.421875 11.28125 0.453125 
Q 9.421875 2.34375 9.421875 5.078125 
z
" id="DejaVuSerif-2e"/>
      </defs>
      <g style="fill:#d2d2d2;" transform="translate(213.127273 590.716563)scale(0.22 -0.22)">
       <use transform="translate(0 0.78125)" xlink:href="#DejaVuSerif-30"/>
       <use transform="translate(63.623047 0.78125)" xlink:href="#DejaVuSerif-2e"/>
       <use transform="translate(95.410156 0.78125)" xlink:href="#DejaVuSerif-30"/>
      </g>
     </g>
    </g>
    <g id="xtick_2">
     <g id="line2d_2">
      <g>
       <use style="fill:#d2d2d2;stroke:#d2d2d2;stroke-width:0.8;" x="409.934314" xlink:href="#m8b8a93ee7a" y="567"/>
      </g>
     </g>
     <g id="text_2">
      <!-- $\mathdefault{0.5}$ -->
      <defs>
       <path d="M 50.296875 72.90625 
L 50.296875 64.890625 
L 16.890625 64.890625 
L 16.890625 44 
Q 19.4375 45.75 22.828125 46.625 
Q 26.21875 47.515625 30.421875 47.515625 
Q 42.234375 47.515625 49.0625 40.96875 
Q 55.90625 34.421875 55.90625 23.09375 
Q 55.90625 11.53125 49 5.046875 
Q 42.09375 -1.421875 29.59375 -1.421875 
Q 24.5625 -1.421875 19.28125 -0.1875 
Q 14.015625 1.03125 8.5 3.515625 
L 8.5 17.671875 
L 14.015625 17.671875 
Q 14.453125 10.75 18.421875 7.078125 
Q 22.40625 3.421875 29.59375 3.421875 
Q 37.3125 3.421875 41.453125 8.5 
Q 45.609375 13.578125 45.609375 23.09375 
Q 45.609375 32.5625 41.484375 37.609375 
Q 37.359375 42.671875 29.59375 42.671875 
Q 25.203125 42.671875 21.84375 41.109375 
Q 18.5 39.546875 15.921875 36.28125 
L 11.71875 36.28125 
L 11.71875 72.90625 
z
" id="DejaVuSerif-35"/>
      </defs>
      <g style="fill:#d2d2d2;" transform="translate(392.334314 590.716563)scale(0.22 -0.22)">
       <use transform="translate(0 0.78125)" xlink:href="#DejaVuSerif-30"/>
       <use transform="translate(63.623047 0.78125)" xlink:href="#DejaVuSerif-2e"/>
       <use transform="translate(95.410156 0.78125)" xlink:href="#DejaVuSerif-35"/>
      </g>
     </g>
    </g>
    <g id="xtick_3">
     <g id="line2d_3">
      <g>
       <use style="fill:#d2d2d2;stroke:#d2d2d2;stroke-width:0.8;" x="589.141355" xlink:href="#m8b8a93ee7a" y="567"/>
      </g>
     </g>
     <g id="text_3">
      <!-- $\mathdefault{1.0}$ -->
      <defs>
       <path d="M 14.203125 0 
L 14.203125 5.171875 
L 26.90625 5.171875 
L 26.90625 65.828125 
L 12.203125 56.296875 
L 12.203125 62.703125 
L 29.984375 74.21875 
L 36.71875 74.21875 
L 36.71875 5.171875 
L 49.421875 5.171875 
L 49.421875 0 
z
" id="DejaVuSerif-31"/>
      </defs>
      <g style="fill:#d2d2d2;" transform="translate(571.541355 590.716563)scale(0.22 -0.22)">
       <use transform="translate(0 0.78125)" xlink:href="#DejaVuSerif-31"/>
       <use transform="translate(63.623047 0.78125)" xlink:href="#DejaVuSerif-2e"/>
       <use transform="translate(95.410156 0.78125)" xlink:href="#DejaVuSerif-30"/>
      </g>
     </g>
    </g>
    <g id="xtick_4">
     <g id="line2d_4">
      <g>
       <use style="fill:#d2d2d2;stroke:#d2d2d2;stroke-width:0.8;" x="768.348396" xlink:href="#m8b8a93ee7a" y="567"/>
      </g>
     </g>
     <g id="text_4">
      <!-- $\mathdefault{1.5}$ -->
      <g style="fill:#d2d2d2;" transform="translate(750.748396 590.716563)scale(0.22 -0.22)">
       <use transform="translate(0 0.78125)" xlink:href="#DejaVuSerif-31"/>
       <use transform="translate(63.623047 0.78125)" xlink:href="#DejaVuSerif-2e"/>
       <use transform="translate(95.410156 0.78125)" xlink:href="#DejaVuSerif-35"/>
      </g>
     </g>
    </g>
    <g id="xtick_5">
     <g id="line2d_5">
      <g>
       <use style="fill:#d2d2d2;stroke:#d2d2d2;stroke-width:0.8;" x="947.555437" xlink:href="#m8b8a93ee7a" y="567"/>
      </g>
     </g>
     <g id="text_5">
      <!-- $\mathdefault{2.0}$ -->
      <defs>
       <path d="M 12.796875 55.515625 
L 7.328125 55.515625 
L 7.328125 68.5 
Q 12.546875 71.296875 17.84375 72.75 
Q 23.140625 74.21875 28.21875 74.21875 
Q 39.59375 74.21875 46.1875 68.703125 
Q 52.78125 63.1875 52.78125 53.71875 
Q 52.78125 43.015625 37.84375 28.125 
Q 36.671875 27 36.078125 26.421875 
L 17.671875 8.015625 
L 48.09375 8.015625 
L 48.09375 17 
L 53.8125 17 
L 53.8125 0 
L 6.78125 0 
L 6.78125 5.328125 
L 28.90625 27.390625 
Q 36.234375 34.71875 39.359375 40.84375 
Q 42.484375 46.96875 42.484375 53.71875 
Q 42.484375 61.078125 38.640625 65.234375 
Q 34.8125 69.390625 28.078125 69.390625 
Q 21.09375 69.390625 17.28125 65.921875 
Q 13.484375 62.453125 12.796875 55.515625 
z
" id="DejaVuSerif-32"/>
      </defs>
      <g style="fill:#d2d2d2;" transform="translate(929.955437 590.716563)scale(0.22 -0.22)">
       <use transform="translate(0 0.78125)" xlink:href="#DejaVuSerif-32"/>
       <use transform="translate(63.623047 0.78125)" xlink:href="#DejaVuSerif-2e"/>
       <use transform="translate(95.410156 0.78125)" xlink:href="#DejaVuSerif-30"/>
      </g>
     </g>
    </g>
    <g id="xtick_6">
     <g id="line2d_6">
      <g>
       <use style="fill:#d2d2d2;stroke:#d2d2d2;stroke-width:0.8;" x="1126.762478" xlink:href="#m8b8a93ee7a" y="567"/>
      </g>
     </g>
     <g id="text_6">
      <!-- $\mathdefault{2.5}$ -->
      <g style="fill:#d2d2d2;" transform="translate(1109.162478 590.716563)scale(0.22 -0.22)">
       <use transform="translate(0 0.78125)" xlink:href="#DejaVuSerif-32"/>
       <use transform="translate(63.623047 0.78125)" xlink:href="#DejaVuSerif-2e"/>
       <use transform="translate(95.410156 0.78125)" xlink:href="#DejaVuSerif-35"/>
      </g>
     </g>
    </g>
    <g id="text_7">
     <!-- $RR_{Null}$ -->
     <defs>
      <path d="M 25.203125 64.796875 
L 20.21875 38.921875 
L 32.90625 38.921875 
Q 40.375 38.921875 44.984375 43.046875 
Q 49.609375 47.171875 49.609375 53.8125 
Q 49.609375 59.125 46.5 61.953125 
Q 43.40625 64.796875 37.59375 64.796875 
z
M 43.3125 35.015625 
Q 46.4375 34.28125 48.515625 31.390625 
Q 50.59375 28.515625 53.328125 19.921875 
L 59.515625 0 
L 49.125 0 
L 43.40625 18.703125 
Q 41.21875 25.921875 38.328125 28.359375 
Q 35.453125 30.8125 29.5 30.8125 
L 18.609375 30.8125 
L 12.59375 0 
L 2.6875 0 
L 16.890625 72.90625 
L 39.109375 72.90625 
Q 49.21875 72.90625 54.609375 68.328125 
Q 60.015625 63.765625 60.015625 55.171875 
Q 60.015625 47.5625 55.421875 41.984375 
Q 50.828125 36.421875 43.3125 35.015625 
z
" id="DejaVuSans-Oblique-52"/>
      <path d="M 16.890625 72.90625 
L 30.171875 72.90625 
L 50.296875 10.40625 
L 62.5 72.90625 
L 72.125 72.90625 
L 57.90625 0 
L 44.578125 0 
L 24.515625 62.890625 
L 12.3125 0 
L 2.6875 0 
z
" id="DejaVuSans-Oblique-4e"/>
      <path d="M 6.6875 21.6875 
L 13.09375 54.6875 
L 22.125 54.6875 
L 15.71875 22.015625 
Q 15.234375 19.625 15.015625 17.921875 
Q 14.796875 16.21875 14.796875 15.09375 
Q 14.796875 10.9375 17.328125 8.65625 
Q 19.875 6.390625 24.515625 6.390625 
Q 31.734375 6.390625 37 11.265625 
Q 42.28125 16.15625 43.890625 24.421875 
L 49.90625 54.6875 
L 58.890625 54.6875 
L 48.296875 0 
L 39.3125 0 
L 41.109375 8.59375 
Q 37.3125 3.8125 32.0625 1.1875 
Q 26.8125 -1.421875 20.90625 -1.421875 
Q 13.71875 -1.421875 9.71875 2.515625 
Q 5.71875 6.453125 5.71875 13.484375 
Q 5.71875 14.9375 5.953125 17.140625 
Q 6.203125 19.34375 6.6875 21.6875 
z
" id="DejaVuSans-Oblique-75"/>
      <path d="M 18.3125 75.984375 
L 27.296875 75.984375 
L 12.5 0 
L 3.515625 0 
z
" id="DejaVuSans-Oblique-6c"/>
     </defs>
     <g style="fill:#d2d2d2;" transform="translate(693.52 623.606875)scale(0.32 -0.32)">
      <use transform="translate(0 0.09375)" xlink:href="#DejaVuSans-Oblique-52"/>
      <use transform="translate(69.482422 0.09375)" xlink:href="#DejaVuSans-Oblique-52"/>
      <use transform="translate(138.964844 -16.3125)scale(0.7)" xlink:href="#DejaVuSans-Oblique-4e"/>
      <use transform="translate(191.328125 -16.3125)scale(0.7)" xlink:href="#DejaVuSans-Oblique-75"/>
      <use transform="translate(235.693359 -16.3125)scale(0.7)" xlink:href="#DejaVuSans-Oblique-6c"/>
      <use transform="translate(255.141602 -16.3125)scale(0.7)" xlink:href="#DejaVuSans-Oblique-6c"/>
     </g>
    </g>
   </g>
   <g id="matplotlib.axis_2">
    <g id="ytick_1">
     <g id="line2d_7">
      <defs>
       <path d="M 0 0 
L -3.5 0 
" id="m4a28337bc1" style="stroke:#d2d2d2;stroke-width:0.8;"/>
      </defs>
      <g>
       <use style="fill:#d2d2d2;stroke:#d2d2d2;stroke-width:0.8;" x="180" xlink:href="#m4a28337bc1" y="567"/>
      </g>
     </g>
     <g id="text_8">
      <!-- $\mathdefault{0.0}$ -->
      <g style="fill:#d2d2d2;" transform="translate(137.8 575.358281)scale(0.22 -0.22)">
       <use transform="translate(0 0.78125)" xlink:href="#DejaVuSerif-30"/>
       <use transform="translate(63.623047 0.78125)" xlink:href="#DejaVuSerif-2e"/>
       <use transform="translate(95.410156 0.78125)" xlink:href="#DejaVuSerif-30"/>
      </g>
     </g>
    </g>
    <g id="ytick_2">
     <g id="line2d_8">
      <g>
       <use style="fill:#d2d2d2;stroke:#d2d2d2;stroke-width:0.8;" x="180" xlink:href="#m4a28337bc1" y="478.627058"/>
      </g>
     </g>
     <g id="text_9">
      <!-- $\mathdefault{0.2}$ -->
      <g style="fill:#d2d2d2;" transform="translate(137.8 486.985339)scale(0.22 -0.22)">
       <use transform="translate(0 0.78125)" xlink:href="#DejaVuSerif-30"/>
       <use transform="translate(63.623047 0.78125)" xlink:href="#DejaVuSerif-2e"/>
       <use transform="translate(95.378906 0.78125)" xlink:href="#DejaVuSerif-32"/>
      </g>
     </g>
    </g>
    <g id="ytick_3">
     <g id="line2d_9">
      <g>
       <use style="fill:#d2d2d2;stroke:#d2d2d2;stroke-width:0.8;" x="180" xlink:href="#m4a28337bc1" y="390.254116"/>
      </g>
     </g>
     <g id="text_10">
      <!-- $\mathdefault{0.4}$ -->
      <defs>
       <path d="M 34.90625 24.703125 
L 34.90625 63.484375 
L 10.015625 24.703125 
z
M 56.390625 0 
L 23.1875 0 
L 23.1875 5.171875 
L 34.90625 5.171875 
L 34.90625 19.484375 
L 3.078125 19.484375 
L 3.078125 24.8125 
L 35.015625 74.21875 
L 44.671875 74.21875 
L 44.671875 24.703125 
L 58.59375 24.703125 
L 58.59375 19.484375 
L 44.671875 19.484375 
L 44.671875 5.171875 
L 56.390625 5.171875 
z
" id="DejaVuSerif-34"/>
      </defs>
      <g style="fill:#d2d2d2;" transform="translate(137.8 398.612397)scale(0.22 -0.22)">
       <use transform="translate(0 0.78125)" xlink:href="#DejaVuSerif-30"/>
       <use transform="translate(63.623047 0.78125)" xlink:href="#DejaVuSerif-2e"/>
       <use transform="translate(95.410156 0.78125)" xlink:href="#DejaVuSerif-34"/>
      </g>
     </g>
    </g>
    <g id="ytick_4">
     <g id="line2d_10">
      <g>
       <use style="fill:#d2d2d2;stroke:#d2d2d2;stroke-width:0.8;" x="180" xlink:href="#m4a28337bc1" y="301.881174"/>
      </g>
     </g>
     <g id="text_11">
      <!-- $\mathdefault{0.6}$ -->
      <defs>
       <path d="M 32.71875 3.421875 
Q 39.59375 3.421875 43.296875 8.46875 
Q 47.015625 13.53125 47.015625 23 
Q 47.015625 32.46875 43.296875 37.515625 
Q 39.59375 42.578125 32.71875 42.578125 
Q 25.734375 42.578125 22.0625 37.6875 
Q 18.40625 32.8125 18.40625 23.578125 
Q 18.40625 13.875 22.109375 8.640625 
Q 25.828125 3.421875 32.71875 3.421875 
z
M 16.796875 40.140625 
Q 20.125 43.796875 24.3125 45.59375 
Q 28.515625 47.40625 33.796875 47.40625 
Q 44.671875 47.40625 51 40.859375 
Q 57.328125 34.328125 57.328125 23 
Q 57.328125 11.921875 50.515625 5.25 
Q 43.703125 -1.421875 32.328125 -1.421875 
Q 19.96875 -1.421875 13.328125 7.78125 
Q 6.6875 17 6.6875 34.078125 
Q 6.6875 53.21875 14.546875 63.71875 
Q 22.40625 74.21875 36.71875 74.21875 
Q 40.578125 74.21875 44.828125 73.484375 
Q 49.078125 72.75 53.515625 71.296875 
L 53.515625 59.28125 
L 48 59.28125 
Q 47.40625 64.203125 44.234375 66.796875 
Q 41.0625 69.390625 35.6875 69.390625 
Q 26.21875 69.390625 21.578125 62.203125 
Q 16.9375 55.03125 16.796875 40.140625 
z
" id="DejaVuSerif-36"/>
      </defs>
      <g style="fill:#d2d2d2;" transform="translate(137.8 310.239456)scale(0.22 -0.22)">
       <use transform="translate(0 0.78125)" xlink:href="#DejaVuSerif-30"/>
       <use transform="translate(63.623047 0.78125)" xlink:href="#DejaVuSerif-2e"/>
       <use transform="translate(95.410156 0.78125)" xlink:href="#DejaVuSerif-36"/>
      </g>
     </g>
    </g>
    <g id="ytick_5">
     <g id="line2d_11">
      <g>
       <use style="fill:#d2d2d2;stroke:#d2d2d2;stroke-width:0.8;" x="180" xlink:href="#m4a28337bc1" y="213.508232"/>
      </g>
     </g>
     <g id="text_12">
      <!-- $\mathdefault{0.8}$ -->
      <defs>
       <path d="M 46.578125 19.921875 
Q 46.578125 27.734375 42.6875 32.046875 
Q 38.8125 36.375 31.78125 36.375 
Q 24.75 36.375 20.875 32.046875 
Q 17 27.734375 17 19.921875 
Q 17 12.0625 20.875 7.734375 
Q 24.75 3.421875 31.78125 3.421875 
Q 38.8125 3.421875 42.6875 7.734375 
Q 46.578125 12.0625 46.578125 19.921875 
z
M 44.578125 55.328125 
Q 44.578125 61.96875 41.203125 65.671875 
Q 37.84375 69.390625 31.78125 69.390625 
Q 25.78125 69.390625 22.390625 65.671875 
Q 19 61.96875 19 55.328125 
Q 19 48.640625 22.390625 44.921875 
Q 25.78125 41.21875 31.78125 41.21875 
Q 37.84375 41.21875 41.203125 44.921875 
Q 44.578125 48.640625 44.578125 55.328125 
z
M 39.3125 38.8125 
Q 47.609375 37.703125 52.25 32.6875 
Q 56.890625 27.6875 56.890625 19.921875 
Q 56.890625 9.671875 50.390625 4.125 
Q 43.890625 -1.421875 31.78125 -1.421875 
Q 19.734375 -1.421875 13.203125 4.125 
Q 6.6875 9.671875 6.6875 19.921875 
Q 6.6875 27.6875 11.328125 32.6875 
Q 15.96875 37.703125 24.3125 38.8125 
Q 16.9375 40.140625 13 44.40625 
Q 9.078125 48.6875 9.078125 55.328125 
Q 9.078125 64.109375 15.125 69.15625 
Q 21.1875 74.21875 31.78125 74.21875 
Q 42.390625 74.21875 48.4375 69.15625 
Q 54.5 64.109375 54.5 55.328125 
Q 54.5 48.6875 50.5625 44.40625 
Q 46.625 40.140625 39.3125 38.8125 
z
" id="DejaVuSerif-38"/>
      </defs>
      <g style="fill:#d2d2d2;" transform="translate(138.02 221.866514)scale(0.22 -0.22)">
       <use transform="translate(0 0.78125)" xlink:href="#DejaVuSerif-30"/>
       <use transform="translate(63.623047 0.78125)" xlink:href="#DejaVuSerif-2e"/>
       <use transform="translate(95.363281 0.78125)" xlink:href="#DejaVuSerif-38"/>
      </g>
     </g>
    </g>
    <g id="ytick_6">
     <g id="line2d_12">
      <g>
       <use style="fill:#d2d2d2;stroke:#d2d2d2;stroke-width:0.8;" x="180" xlink:href="#m4a28337bc1" y="125.13529"/>
      </g>
     </g>
     <g id="text_13">
      <!-- $\mathdefault{1.0}$ -->
      <g style="fill:#d2d2d2;" transform="translate(137.8 133.493572)scale(0.22 -0.22)">
       <use transform="translate(0 0.78125)" xlink:href="#DejaVuSerif-31"/>
       <use transform="translate(63.623047 0.78125)" xlink:href="#DejaVuSerif-2e"/>
       <use transform="translate(95.410156 0.78125)" xlink:href="#DejaVuSerif-30"/>
      </g>
     </g>
    </g>
    <g id="text_14">
     <!-- Density -->
     <defs>
      <path d="M 24.703125 5.171875 
L 33.796875 5.171875 
Q 48 5.171875 55.59375 13.28125 
Q 63.1875 21.390625 63.1875 36.53125 
Q 63.1875 51.65625 55.609375 59.65625 
Q 48.046875 67.671875 33.796875 67.671875 
L 24.703125 67.671875 
z
M 5.515625 0 
L 5.515625 5.171875 
L 14.796875 5.171875 
L 14.796875 67.671875 
L 5.515625 67.671875 
L 5.515625 72.90625 
L 34.515625 72.90625 
Q 53.375 72.90625 63.890625 63.28125 
Q 74.421875 53.65625 74.421875 36.53125 
Q 74.421875 19.34375 63.875 9.671875 
Q 53.328125 0 34.515625 0 
z
" id="DejaVuSerif-44"/>
      <path d="M 54.203125 25 
L 15.484375 25 
L 15.484375 24.609375 
Q 15.484375 14.109375 19.4375 8.765625 
Q 23.390625 3.421875 31.109375 3.421875 
Q 37.015625 3.421875 40.796875 6.515625 
Q 44.578125 9.625 46.09375 15.71875 
L 53.328125 15.71875 
Q 51.171875 7.171875 45.375 2.875 
Q 39.59375 -1.421875 30.171875 -1.421875 
Q 18.796875 -1.421875 11.890625 6.078125 
Q 4.984375 13.578125 4.984375 25.984375 
Q 4.984375 38.28125 11.765625 45.796875 
Q 18.5625 53.328125 29.59375 53.328125 
Q 41.359375 53.328125 47.65625 46.0625 
Q 53.953125 38.8125 54.203125 25 
z
M 43.609375 30.171875 
Q 43.3125 39.265625 39.765625 43.875 
Q 36.234375 48.484375 29.59375 48.484375 
Q 23.390625 48.484375 19.828125 43.84375 
Q 16.265625 39.203125 15.484375 30.171875 
z
" id="DejaVuSerif-65"/>
      <path d="M 4.109375 0 
L 4.109375 5.171875 
L 12.203125 5.171875 
L 12.203125 46.6875 
L 3.609375 46.6875 
L 3.609375 51.90625 
L 21.1875 51.90625 
L 21.1875 42.671875 
Q 23.6875 47.953125 27.65625 50.640625 
Q 31.640625 53.328125 36.921875 53.328125 
Q 45.515625 53.328125 49.5625 48.390625 
Q 53.609375 43.453125 53.609375 33.015625 
L 53.609375 5.171875 
L 61.625 5.171875 
L 61.625 0 
L 36.8125 0 
L 36.8125 5.171875 
L 44.578125 5.171875 
L 44.578125 30.171875 
Q 44.578125 39.703125 42.234375 43.234375 
Q 39.890625 46.78125 33.984375 46.78125 
Q 27.734375 46.78125 24.453125 42.203125 
Q 21.1875 37.640625 21.1875 28.90625 
L 21.1875 5.171875 
L 29 5.171875 
L 29 0 
z
" id="DejaVuSerif-6e"/>
      <path d="M 5.609375 2.875 
L 5.609375 14.984375 
L 10.796875 14.984375 
Q 10.984375 9.1875 14.421875 6.296875 
Q 17.875 3.421875 24.609375 3.421875 
Q 30.671875 3.421875 33.84375 5.6875 
Q 37.015625 7.953125 37.015625 12.3125 
Q 37.015625 15.71875 34.6875 17.8125 
Q 32.375 19.921875 24.90625 22.3125 
L 18.40625 24.515625 
Q 11.71875 26.65625 8.71875 29.875 
Q 5.71875 33.109375 5.71875 38.09375 
Q 5.71875 45.21875 10.9375 49.265625 
Q 16.15625 53.328125 25.390625 53.328125 
Q 29.5 53.328125 34.03125 52.25 
Q 38.578125 51.171875 43.40625 49.125 
L 43.40625 37.796875 
L 38.234375 37.796875 
Q 38.03125 42.828125 34.703125 45.65625 
Q 31.390625 48.484375 25.6875 48.484375 
Q 20.015625 48.484375 17.109375 46.484375 
Q 14.203125 44.484375 14.203125 40.484375 
Q 14.203125 37.203125 16.40625 35.21875 
Q 18.609375 33.25 25.203125 31.203125 
L 32.328125 29 
Q 39.703125 26.703125 42.9375 23.265625 
Q 46.1875 19.828125 46.1875 14.40625 
Q 46.1875 7.03125 40.546875 2.796875 
Q 34.90625 -1.421875 25 -1.421875 
Q 19.96875 -1.421875 15.1875 -0.34375 
Q 10.40625 0.734375 5.609375 2.875 
z
" id="DejaVuSerif-73"/>
      <path d="M 9.71875 68.015625 
Q 9.71875 70.265625 11.34375 71.921875 
Q 12.984375 73.578125 15.28125 73.578125 
Q 17.53125 73.578125 19.15625 71.921875 
Q 20.796875 70.265625 20.796875 68.015625 
Q 20.796875 65.71875 19.1875 64.109375 
Q 17.578125 62.5 15.28125 62.5 
Q 12.984375 62.5 11.34375 64.109375 
Q 9.71875 65.71875 9.71875 68.015625 
z
M 21.1875 5.171875 
L 29.6875 5.171875 
L 29.6875 0 
L 3.609375 0 
L 3.609375 5.171875 
L 12.203125 5.171875 
L 12.203125 46.6875 
L 3.609375 46.6875 
L 3.609375 51.90625 
L 21.1875 51.90625 
z
" id="DejaVuSerif-69"/>
      <path d="M 10.796875 46.6875 
L 2.875 46.6875 
L 2.875 51.90625 
L 10.796875 51.90625 
L 10.796875 68.015625 
L 19.828125 68.015625 
L 19.828125 51.90625 
L 36.71875 51.90625 
L 36.71875 46.6875 
L 19.828125 46.6875 
L 19.828125 13.71875 
Q 19.828125 7.125 21.09375 5.265625 
Q 22.359375 3.421875 25.78125 3.421875 
Q 29.296875 3.421875 30.90625 5.484375 
Q 32.515625 7.5625 32.625 12.203125 
L 39.40625 12.203125 
Q 39.015625 5.125 35.546875 1.84375 
Q 32.078125 -1.421875 25 -1.421875 
Q 17.234375 -1.421875 14.015625 2.015625 
Q 10.796875 5.46875 10.796875 13.71875 
z
" id="DejaVuSerif-74"/>
      <path d="M 21.578125 -9.515625 
L 25 -0.875 
L 5.609375 46.6875 
L -0.296875 46.6875 
L -0.296875 51.90625 
L 23.578125 51.90625 
L 23.578125 46.6875 
L 15.28125 46.6875 
L 29.890625 10.984375 
L 44.484375 46.6875 
L 36.71875 46.6875 
L 36.71875 51.90625 
L 56.203125 51.90625 
L 56.203125 46.6875 
L 50.390625 46.6875 
L 26.609375 -11.71875 
Q 24.171875 -17.78125 21.1875 -20 
Q 18.21875 -22.21875 12.796875 -22.21875 
Q 10.5 -22.21875 8.078125 -21.828125 
Q 5.671875 -21.4375 3.21875 -20.703125 
L 3.21875 -10.796875 
L 7.8125 -10.796875 
Q 8.109375 -14.109375 9.5 -15.546875 
Q 10.890625 -17 13.8125 -17 
Q 16.5 -17 18.140625 -15.5 
Q 19.78125 -14.015625 21.578125 -9.515625 
z
" id="DejaVuSerif-79"/>
     </defs>
     <g style="fill:#d2d2d2;" transform="translate(126.69 383.78)rotate(-90)scale(0.32 -0.32)">
      <use xlink:href="#DejaVuSerif-44"/>
      <use x="80.175781" xlink:href="#DejaVuSerif-65"/>
      <use x="139.355469" xlink:href="#DejaVuSerif-6e"/>
      <use x="203.759766" xlink:href="#DejaVuSerif-73"/>
      <use x="255.078125" xlink:href="#DejaVuSerif-69"/>
      <use x="287.060547" xlink:href="#DejaVuSerif-74"/>
      <use x="327.246094" xlink:href="#DejaVuSerif-79"/>
     </g>
    </g>
   </g>
   <g id="patch_22">
    <path d="M 180 567 
L 180 77.76 
" style="fill:none;stroke:#d2d2d2;stroke-linecap:square;stroke-linejoin:miter;stroke-width:1.5;"/>
   </g>
   <g id="patch_23">
    <path d="M 180 567 
L 1296 567 
" style="fill:none;stroke:#d2d2d2;stroke-linecap:square;stroke-linejoin:miter;stroke-width:1.5;"/>
   </g>
  </g>
  <g id="axes_2">
   <g id="matplotlib.axis_3"/>
  </g>
  <g id="axes_3">
   <g id="matplotlib.axis_4"/>
  </g>
  <g id="axes_4">
   <g id="patch_24">
    <path d="M 864 388.8 
L 1368 388.8 
L 1368 194.4 
L 864 194.4 
z
" style="fill:none;opacity:0;"/>
   </g>
   <g id="patch_25">
    <path clip-path="url(#p440853f1c1)" d="M 886.909091 388.8 
L 893.454545 388.8 
L 893.454545 388.453291 
L 886.909091 388.453291 
z
" style="fill:#88c9c1;stroke:#d2d2d2;stroke-linejoin:miter;"/>
   </g>
   <g id="patch_26">
    <path clip-path="url(#p440853f1c1)" d="M 893.454545 388.8 
L 900 388.8 
L 900 388.8 
L 893.454545 388.8 
z
" style="fill:#88c9c1;stroke:#d2d2d2;stroke-linejoin:miter;"/>
   </g>
   <g id="patch_27">
    <path clip-path="url(#p440853f1c1)" d="M 900 388.8 
L 906.545455 388.8 
L 906.545455 388.453291 
L 900 388.453291 
z
" style="fill:#88c9c1;stroke:#d2d2d2;stroke-linejoin:miter;"/>
   </g>
   <g id="patch_28">
    <path clip-path="url(#p440853f1c1)" d="M 906.545455 388.8 
L 913.090909 388.8 
L 913.090909 388.8 
L 906.545455 388.8 
z
" style="fill:#88c9c1;stroke:#d2d2d2;stroke-linejoin:miter;"/>
   </g>
   <g id="patch_29">
    <path clip-path="url(#p440853f1c1)" d="M 913.090909 388.8 
L 919.636364 388.8 
L 919.636364 383.946067 
L 913.090909 383.946067 
z
" style="fill:#88c9c1;stroke:#d2d2d2;stroke-linejoin:miter;"/>
   </g>
   <g id="patch_30">
    <path clip-path="url(#p440853f1c1)" d="M 919.636364 388.8 
L 926.181818 388.8 
L 926.181818 386.719743 
L 919.636364 386.719743 
z
" style="fill:#88c9c1;stroke:#d2d2d2;stroke-linejoin:miter;"/>
   </g>
   <g id="patch_31">
    <path clip-path="url(#p440853f1c1)" d="M 926.181818 388.8 
L 932.727273 388.8 
L 932.727273 380.132263 
L 926.181818 380.132263 
z
" style="fill:#88c9c1;stroke:#d2d2d2;stroke-linejoin:miter;"/>
   </g>
   <g id="patch_32">
    <path clip-path="url(#p440853f1c1)" d="M 932.727273 388.8 
L 939.272727 388.8 
L 939.272727 380.825682 
L 932.727273 380.825682 
z
" style="fill:#88c9c1;stroke:#d2d2d2;stroke-linejoin:miter;"/>
   </g>
   <g id="patch_33">
    <path clip-path="url(#p440853f1c1)" d="M 939.272727 388.8 
L 945.818182 388.8 
L 945.818182 372.157945 
L 939.272727 372.157945 
z
" style="fill:#88c9c1;stroke:#d2d2d2;stroke-linejoin:miter;"/>
   </g>
   <g id="patch_34">
    <path clip-path="url(#p440853f1c1)" d="M 945.818182 388.8 
L 952.363636 388.8 
L 952.363636 362.103371 
L 945.818182 362.103371 
z
" style="fill:#88c9c1;stroke:#d2d2d2;stroke-linejoin:miter;"/>
   </g>
   <g id="patch_35">
    <path clip-path="url(#p440853f1c1)" d="M 952.363636 388.8 
L 958.909091 388.8 
L 958.909091 358.982986 
L 952.363636 358.982986 
z
" style="fill:#88c9c1;stroke:#d2d2d2;stroke-linejoin:miter;"/>
   </g>
   <g id="patch_36">
    <path clip-path="url(#p440853f1c1)" d="M 958.909091 388.8 
L 965.454545 388.8 
L 965.454545 352.048796 
L 958.909091 352.048796 
z
" style="fill:#88c9c1;stroke:#d2d2d2;stroke-linejoin:miter;"/>
   </g>
   <g id="patch_37">
    <path clip-path="url(#p440853f1c1)" d="M 965.454545 388.8 
L 972 388.8 
L 972 343.381059 
L 965.454545 343.381059 
z
" style="fill:#88c9c1;stroke:#d2d2d2;stroke-linejoin:miter;"/>
   </g>
   <g id="patch_38">
    <path clip-path="url(#p440853f1c1)" d="M 972 388.8 
L 978.545455 388.8 
L 978.545455 317.724559 
L 972 317.724559 
z
" style="fill:#88c9c1;stroke:#d2d2d2;stroke-linejoin:miter;"/>
   </g>
   <g id="patch_39">
    <path clip-path="url(#p440853f1c1)" d="M 978.545455 388.8 
L 985.090909 388.8 
L 985.090909 322.925201 
L 978.545455 322.925201 
z
" style="fill:#88c9c1;stroke:#d2d2d2;stroke-linejoin:miter;"/>
   </g>
   <g id="patch_40">
    <path clip-path="url(#p440853f1c1)" d="M 985.090909 388.8 
L 991.636364 388.8 
L 991.636364 302.469342 
L 985.090909 302.469342 
z
" style="fill:#88c9c1;stroke:#d2d2d2;stroke-linejoin:miter;"/>
   </g>
   <g id="patch_41">
    <path clip-path="url(#p440853f1c1)" d="M 991.636364 388.8 
L 998.181818 388.8 
L 998.181818 284.440449 
L 991.636364 284.440449 
z
" style="fill:#88c9c1;stroke:#d2d2d2;stroke-linejoin:miter;"/>
   </g>
   <g id="patch_42">
    <path clip-path="url(#p440853f1c1)" d="M 998.181818 388.8 
L 1004.727273 388.8 
L 1004.727273 271.612199 
L 998.181818 271.612199 
z
" style="fill:#88c9c1;stroke:#d2d2d2;stroke-linejoin:miter;"/>
   </g>
   <g id="patch_43">
    <path clip-path="url(#p440853f1c1)" d="M 1004.727273 388.8 
L 1011.272727 388.8 
L 1011.272727 249.076083 
L 1004.727273 249.076083 
z
" style="fill:#88c9c1;stroke:#d2d2d2;stroke-linejoin:miter;"/>
   </g>
   <g id="patch_44">
    <path clip-path="url(#p440853f1c1)" d="M 1011.272727 388.8 
L 1017.818182 388.8 
L 1017.818182 246.995827 
L 1011.272727 246.995827 
z
" style="fill:#88c9c1;stroke:#d2d2d2;stroke-linejoin:miter;"/>
   </g>
   <g id="patch_45">
    <path clip-path="url(#p440853f1c1)" d="M 1017.818182 388.8 
L 1024.363636 388.8 
L 1024.363636 231.047191 
L 1017.818182 231.047191 
z
" style="fill:#88c9c1;stroke:#d2d2d2;stroke-linejoin:miter;"/>
   </g>
   <g id="patch_46">
    <path clip-path="url(#p440853f1c1)" d="M 1024.363636 388.8 
L 1030.909091 388.8 
L 1030.909091 215.445265 
L 1024.363636 215.445265 
z
" style="fill:#88c9c1;stroke:#d2d2d2;stroke-linejoin:miter;"/>
   </g>
   <g id="patch_47">
    <path clip-path="url(#p440853f1c1)" d="M 1030.909091 388.8 
L 1037.454545 388.8 
L 1037.454545 203.657143 
L 1030.909091 203.657143 
z
" style="fill:#88c9c1;stroke:#d2d2d2;stroke-linejoin:miter;"/>
   </g>
   <g id="patch_48">
    <path clip-path="url(#p440853f1c1)" d="M 1037.454545 388.8 
L 1044 388.8 
L 1044 220.992616 
L 1037.454545 220.992616 
z
" style="fill:#88c9c1;stroke:#d2d2d2;stroke-linejoin:miter;"/>
   </g>
   <g id="patch_49">
    <path clip-path="url(#p440853f1c1)" d="M 1044 388.8 
L 1050.545455 388.8 
L 1050.545455 229.313644 
L 1044 229.313644 
z
" style="fill:#88c9c1;stroke:#d2d2d2;stroke-linejoin:miter;"/>
   </g>
   <g id="patch_50">
    <path clip-path="url(#p440853f1c1)" d="M 1050.545455 388.8 
L 1057.090909 388.8 
L 1057.090909 223.072873 
L 1050.545455 223.072873 
z
" style="fill:#88c9c1;stroke:#d2d2d2;stroke-linejoin:miter;"/>
   </g>
   <g id="patch_51">
    <path clip-path="url(#p440853f1c1)" d="M 1057.090909 388.8 
L 1063.636364 388.8 
L 1063.636364 225.499839 
L 1057.090909 225.499839 
z
" style="fill:#88c9c1;stroke:#d2d2d2;stroke-linejoin:miter;"/>
   </g>
   <g id="patch_52">
    <path clip-path="url(#p440853f1c1)" d="M 1063.636364 388.8 
L 1070.181818 388.8 
L 1070.181818 229.660353 
L 1063.636364 229.660353 
z
" style="fill:#88c9c1;stroke:#d2d2d2;stroke-linejoin:miter;"/>
   </g>
   <g id="patch_53">
    <path clip-path="url(#p440853f1c1)" d="M 1070.181818 388.8 
L 1076.727273 388.8 
L 1076.727273 241.448475 
L 1070.181818 241.448475 
z
" style="fill:#88c9c1;stroke:#d2d2d2;stroke-linejoin:miter;"/>
   </g>
   <g id="patch_54">
    <path clip-path="url(#p440853f1c1)" d="M 1076.727273 388.8 
L 1083.272727 388.8 
L 1083.272727 251.849759 
L 1076.727273 251.849759 
z
" style="fill:#88c9c1;stroke:#d2d2d2;stroke-linejoin:miter;"/>
   </g>
   <g id="patch_55">
    <path clip-path="url(#p440853f1c1)" d="M 1083.272727 388.8 
L 1089.818182 388.8 
L 1089.818182 244.91557 
L 1083.272727 244.91557 
z
" style="fill:#88c9c1;stroke:#d2d2d2;stroke-linejoin:miter;"/>
   </g>
   <g id="patch_56">
    <path clip-path="url(#p440853f1c1)" d="M 1089.818182 388.8 
L 1096.363636 388.8 
L 1096.363636 277.159551 
L 1089.818182 277.159551 
z
" style="fill:#88c9c1;stroke:#d2d2d2;stroke-linejoin:miter;"/>
   </g>
   <g id="patch_57">
    <path clip-path="url(#p440853f1c1)" d="M 1096.363636 388.8 
L 1102.909091 388.8 
L 1102.909091 293.801605 
L 1096.363636 293.801605 
z
" style="fill:#88c9c1;stroke:#d2d2d2;stroke-linejoin:miter;"/>
   </g>
   <g id="patch_58">
    <path clip-path="url(#p440853f1c1)" d="M 1102.909091 388.8 
L 1109.454545 388.8 
L 1109.454545 296.228571 
L 1102.909091 296.228571 
z
" style="fill:#88c9c1;stroke:#d2d2d2;stroke-linejoin:miter;"/>
   </g>
   <g id="patch_59">
    <path clip-path="url(#p440853f1c1)" d="M 1109.454545 388.8 
L 1116 388.8 
L 1116 310.09695 
L 1109.454545 310.09695 
z
" style="fill:#88c9c1;stroke:#d2d2d2;stroke-linejoin:miter;"/>
   </g>
   <g id="patch_60">
    <path clip-path="url(#p440853f1c1)" d="M 1116 388.8 
L 1122.545455 388.8 
L 1122.545455 315.991011 
L 1116 315.991011 
z
" style="fill:#88c9c1;stroke:#d2d2d2;stroke-linejoin:miter;"/>
   </g>
   <g id="patch_61">
    <path clip-path="url(#p440853f1c1)" d="M 1122.545455 388.8 
L 1129.090909 388.8 
L 1129.090909 319.111396 
L 1122.545455 319.111396 
z
" style="fill:#88c9c1;stroke:#d2d2d2;stroke-linejoin:miter;"/>
   </g>
   <g id="patch_62">
    <path clip-path="url(#p440853f1c1)" d="M 1129.090909 388.8 
L 1135.636364 388.8 
L 1135.636364 346.154735 
L 1129.090909 346.154735 
z
" style="fill:#88c9c1;stroke:#d2d2d2;stroke-linejoin:miter;"/>
   </g>
   <g id="patch_63">
    <path clip-path="url(#p440853f1c1)" d="M 1135.636364 388.8 
L 1142.181818 388.8 
L 1142.181818 341.647512 
L 1135.636364 341.647512 
z
" style="fill:#88c9c1;stroke:#d2d2d2;stroke-linejoin:miter;"/>
   </g>
   <g id="patch_64">
    <path clip-path="url(#p440853f1c1)" d="M 1142.181818 388.8 
L 1148.727273 388.8 
L 1148.727273 346.501445 
L 1142.181818 346.501445 
z
" style="fill:#88c9c1;stroke:#d2d2d2;stroke-linejoin:miter;"/>
   </g>
   <g id="patch_65">
    <path clip-path="url(#p440853f1c1)" d="M 1148.727273 388.8 
L 1155.272727 388.8 
L 1155.272727 358.289567 
L 1148.727273 358.289567 
z
" style="fill:#88c9c1;stroke:#d2d2d2;stroke-linejoin:miter;"/>
   </g>
   <g id="patch_66">
    <path clip-path="url(#p440853f1c1)" d="M 1155.272727 388.8 
L 1161.818182 388.8 
L 1161.818182 366.957303 
L 1155.272727 366.957303 
z
" style="fill:#88c9c1;stroke:#d2d2d2;stroke-linejoin:miter;"/>
   </g>
   <g id="patch_67">
    <path clip-path="url(#p440853f1c1)" d="M 1161.818182 388.8 
L 1168.363636 388.8 
L 1168.363636 365.570465 
L 1161.818182 365.570465 
z
" style="fill:#88c9c1;stroke:#d2d2d2;stroke-linejoin:miter;"/>
   </g>
   <g id="patch_68">
    <path clip-path="url(#p440853f1c1)" d="M 1168.363636 388.8 
L 1174.909091 388.8 
L 1174.909091 372.851364 
L 1168.363636 372.851364 
z
" style="fill:#88c9c1;stroke:#d2d2d2;stroke-linejoin:miter;"/>
   </g>
   <g id="patch_69">
    <path clip-path="url(#p440853f1c1)" d="M 1174.909091 388.8 
L 1181.454545 388.8 
L 1181.454545 376.665169 
L 1174.909091 376.665169 
z
" style="fill:#88c9c1;stroke:#d2d2d2;stroke-linejoin:miter;"/>
   </g>
   <g id="patch_70">
    <path clip-path="url(#p440853f1c1)" d="M 1181.454545 388.8 
L 1188 388.8 
L 1188 380.132263 
L 1181.454545 380.132263 
z
" style="fill:#88c9c1;stroke:#d2d2d2;stroke-linejoin:miter;"/>
   </g>
   <g id="patch_71">
    <path clip-path="url(#p440853f1c1)" d="M 1188 388.8 
L 1194.545455 388.8 
L 1194.545455 379.785554 
L 1188 379.785554 
z
" style="fill:#88c9c1;stroke:#d2d2d2;stroke-linejoin:miter;"/>
   </g>
   <g id="patch_72">
    <path clip-path="url(#p440853f1c1)" d="M 1194.545455 388.8 
L 1201.090909 388.8 
L 1201.090909 382.55923 
L 1194.545455 382.55923 
z
" style="fill:#88c9c1;stroke:#d2d2d2;stroke-linejoin:miter;"/>
   </g>
   <g id="patch_73">
    <path clip-path="url(#p440853f1c1)" d="M 1201.090909 388.8 
L 1207.636364 388.8 
L 1207.636364 382.905939 
L 1201.090909 382.905939 
z
" style="fill:#88c9c1;stroke:#d2d2d2;stroke-linejoin:miter;"/>
   </g>
   <g id="patch_74">
    <path clip-path="url(#p440853f1c1)" d="M 1207.636364 388.8 
L 1214.181818 388.8 
L 1214.181818 385.679615 
L 1207.636364 385.679615 
z
" style="fill:#88c9c1;stroke:#d2d2d2;stroke-linejoin:miter;"/>
   </g>
   <g id="patch_75">
    <path clip-path="url(#p440853f1c1)" d="M 1214.181818 388.8 
L 1220.727273 388.8 
L 1220.727273 387.413162 
L 1214.181818 387.413162 
z
" style="fill:#88c9c1;stroke:#d2d2d2;stroke-linejoin:miter;"/>
   </g>
   <g id="patch_76">
    <path clip-path="url(#p440853f1c1)" d="M 1220.727273 388.8 
L 1227.272727 388.8 
L 1227.272727 384.639486 
L 1220.727273 384.639486 
z
" style="fill:#88c9c1;stroke:#d2d2d2;stroke-linejoin:miter;"/>
   </g>
   <g id="patch_77">
    <path clip-path="url(#p440853f1c1)" d="M 1227.272727 388.8 
L 1233.818182 388.8 
L 1233.818182 387.759872 
L 1227.272727 387.759872 
z
" style="fill:#88c9c1;stroke:#d2d2d2;stroke-linejoin:miter;"/>
   </g>
   <g id="patch_78">
    <path clip-path="url(#p440853f1c1)" d="M 1233.818182 388.8 
L 1240.363636 388.8 
L 1240.363636 387.759872 
L 1233.818182 387.759872 
z
" style="fill:#88c9c1;stroke:#d2d2d2;stroke-linejoin:miter;"/>
   </g>
   <g id="patch_79">
    <path clip-path="url(#p440853f1c1)" d="M 1240.363636 388.8 
L 1246.909091 388.8 
L 1246.909091 388.106581 
L 1240.363636 388.106581 
z
" style="fill:#88c9c1;stroke:#d2d2d2;stroke-linejoin:miter;"/>
   </g>
   <g id="patch_80">
    <path clip-path="url(#p440853f1c1)" d="M 1246.909091 388.8 
L 1253.454545 388.8 
L 1253.454545 387.759872 
L 1246.909091 387.759872 
z
" style="fill:#88c9c1;stroke:#d2d2d2;stroke-linejoin:miter;"/>
   </g>
   <g id="patch_81">
    <path clip-path="url(#p440853f1c1)" d="M 1253.454545 388.8 
L 1260 388.8 
L 1260 388.106581 
L 1253.454545 388.106581 
z
" style="fill:#88c9c1;stroke:#d2d2d2;stroke-linejoin:miter;"/>
   </g>
   <g id="patch_82">
    <path clip-path="url(#p440853f1c1)" d="M 1260 388.8 
L 1266.545455 388.8 
L 1266.545455 387.759872 
L 1260 387.759872 
z
" style="fill:#88c9c1;stroke:#d2d2d2;stroke-linejoin:miter;"/>
   </g>
   <g id="patch_83">
    <path clip-path="url(#p440853f1c1)" d="M 1266.545455 388.8 
L 1273.090909 388.8 
L 1273.090909 388.453291 
L 1266.545455 388.453291 
z
" style="fill:#88c9c1;stroke:#d2d2d2;stroke-linejoin:miter;"/>
   </g>
   <g id="patch_84">
    <path clip-path="url(#p440853f1c1)" d="M 1273.090909 388.8 
L 1279.636364 388.8 
L 1279.636364 388.453291 
L 1273.090909 388.453291 
z
" style="fill:#88c9c1;stroke:#d2d2d2;stroke-linejoin:miter;"/>
   </g>
   <g id="patch_85">
    <path clip-path="url(#p440853f1c1)" d="M 1279.636364 388.8 
L 1286.181818 388.8 
L 1286.181818 388.8 
L 1279.636364 388.8 
z
" style="fill:#88c9c1;stroke:#d2d2d2;stroke-linejoin:miter;"/>
   </g>
   <g id="patch_86">
    <path clip-path="url(#p440853f1c1)" d="M 1286.181818 388.8 
L 1292.727273 388.8 
L 1292.727273 388.8 
L 1286.181818 388.8 
z
" style="fill:#88c9c1;stroke:#d2d2d2;stroke-linejoin:miter;"/>
   </g>
   <g id="patch_87">
    <path clip-path="url(#p440853f1c1)" d="M 1292.727273 388.8 
L 1299.272727 388.8 
L 1299.272727 388.8 
L 1292.727273 388.8 
z
" style="fill:#88c9c1;stroke:#d2d2d2;stroke-linejoin:miter;"/>
   </g>
   <g id="patch_88">
    <path clip-path="url(#p440853f1c1)" d="M 1299.272727 388.8 
L 1305.818182 388.8 
L 1305.818182 388.8 
L 1299.272727 388.8 
z
" style="fill:#88c9c1;stroke:#d2d2d2;stroke-linejoin:miter;"/>
   </g>
   <g id="patch_89">
    <path clip-path="url(#p440853f1c1)" d="M 1305.818182 388.8 
L 1312.363636 388.8 
L 1312.363636 388.8 
L 1305.818182 388.8 
z
" style="fill:#88c9c1;stroke:#d2d2d2;stroke-linejoin:miter;"/>
   </g>
   <g id="patch_90">
    <path clip-path="url(#p440853f1c1)" d="M 1312.363636 388.8 
L 1318.909091 388.8 
L 1318.909091 388.8 
L 1312.363636 388.8 
z
" style="fill:#88c9c1;stroke:#d2d2d2;stroke-linejoin:miter;"/>
   </g>
   <g id="patch_91">
    <path clip-path="url(#p440853f1c1)" d="M 1318.909091 388.8 
L 1325.454545 388.8 
L 1325.454545 388.8 
L 1318.909091 388.8 
z
" style="fill:#88c9c1;stroke:#d2d2d2;stroke-linejoin:miter;"/>
   </g>
   <g id="patch_92">
    <path clip-path="url(#p440853f1c1)" d="M 1325.454545 388.8 
L 1332 388.8 
L 1332 388.8 
L 1325.454545 388.8 
z
" style="fill:#88c9c1;stroke:#d2d2d2;stroke-linejoin:miter;"/>
   </g>
   <g id="patch_93">
    <path clip-path="url(#p440853f1c1)" d="M 1332 388.8 
L 1338.545455 388.8 
L 1338.545455 388.8 
L 1332 388.8 
z
" style="fill:#88c9c1;stroke:#d2d2d2;stroke-linejoin:miter;"/>
   </g>
   <g id="patch_94">
    <path clip-path="url(#p440853f1c1)" d="M 1338.545455 388.8 
L 1345.090909 388.8 
L 1345.090909 388.453291 
L 1338.545455 388.453291 
z
" style="fill:#88c9c1;stroke:#d2d2d2;stroke-linejoin:miter;"/>
   </g>
   <g id="matplotlib.axis_5">
    <g id="xtick_7">
     <g id="line2d_13">
      <g>
       <use style="fill:#d2d2d2;stroke:#d2d2d2;stroke-width:0.8;" x="871.765782" xlink:href="#m8b8a93ee7a" y="388.8"/>
      </g>
     </g>
     <g id="text_15">
      <!-- $\mathdefault{0}$ -->
      <g style="fill:#d2d2d2;" transform="translate(864.725782 412.516563)scale(0.22 -0.22)">
       <use transform="translate(0 0.78125)" xlink:href="#DejaVuSerif-30"/>
      </g>
     </g>
    </g>
    <g id="xtick_8">
     <g id="line2d_14">
      <g>
       <use style="fill:#d2d2d2;stroke:#d2d2d2;stroke-width:0.8;" x="975.575393" xlink:href="#m8b8a93ee7a" y="388.8"/>
      </g>
     </g>
     <g id="text_16">
      <!-- $\mathdefault{1}$ -->
      <g style="fill:#d2d2d2;" transform="translate(968.535393 412.516563)scale(0.22 -0.22)">
       <use transform="translate(0 0.78125)" xlink:href="#DejaVuSerif-31"/>
      </g>
     </g>
    </g>
    <g id="xtick_9">
     <g id="line2d_15">
      <g>
       <use style="fill:#d2d2d2;stroke:#d2d2d2;stroke-width:0.8;" x="1079.385005" xlink:href="#m8b8a93ee7a" y="388.8"/>
      </g>
     </g>
     <g id="text_17">
      <!-- $\mathdefault{2}$ -->
      <g style="fill:#d2d2d2;" transform="translate(1072.345005 412.516563)scale(0.22 -0.22)">
       <use transform="translate(0 0.78125)" xlink:href="#DejaVuSerif-32"/>
      </g>
     </g>
    </g>
    <g id="xtick_10">
     <g id="line2d_16">
      <g>
       <use style="fill:#d2d2d2;stroke:#d2d2d2;stroke-width:0.8;" x="1183.194616" xlink:href="#m8b8a93ee7a" y="388.8"/>
      </g>
     </g>
     <g id="text_18">
      <!-- $\mathdefault{3}$ -->
      <defs>
       <path d="M 9.71875 69.828125 
Q 15.4375 71.96875 20.671875 73.09375 
Q 25.921875 74.21875 30.515625 74.21875 
Q 41.21875 74.21875 47.21875 69.59375 
Q 53.21875 64.984375 53.21875 56.78125 
Q 53.21875 50.203125 49.0625 45.78125 
Q 44.921875 41.359375 37.3125 39.796875 
Q 46.296875 38.53125 51.25 33.28125 
Q 56.203125 28.03125 56.203125 19.671875 
Q 56.203125 9.46875 49.34375 4.015625 
Q 42.484375 -1.421875 29.59375 -1.421875 
Q 23.875 -1.421875 18.421875 -0.1875 
Q 12.984375 1.03125 7.625 3.515625 
L 7.625 17.671875 
L 13.09375 17.671875 
Q 13.578125 10.640625 17.828125 7.03125 
Q 22.078125 3.421875 29.78125 3.421875 
Q 37.25 3.421875 41.578125 7.734375 
Q 45.90625 12.0625 45.90625 19.578125 
Q 45.90625 28.171875 41.453125 32.59375 
Q 37.015625 37.015625 28.421875 37.015625 
L 23.78125 37.015625 
L 23.78125 42 
L 26.21875 42 
Q 34.765625 42 39.03125 45.53125 
Q 43.3125 49.078125 43.3125 56.203125 
Q 43.3125 62.59375 39.796875 65.984375 
Q 36.28125 69.390625 29.6875 69.390625 
Q 23.09375 69.390625 19.453125 66.265625 
Q 15.828125 63.140625 15.1875 56.984375 
L 9.71875 56.984375 
z
" id="DejaVuSerif-33"/>
      </defs>
      <g style="fill:#d2d2d2;" transform="translate(1176.154616 412.516563)scale(0.22 -0.22)">
       <use transform="translate(0 0.78125)" xlink:href="#DejaVuSerif-33"/>
      </g>
     </g>
    </g>
    <g id="xtick_11">
     <g id="line2d_17">
      <g>
       <use style="fill:#d2d2d2;stroke:#d2d2d2;stroke-width:0.8;" x="1287.004228" xlink:href="#m8b8a93ee7a" y="388.8"/>
      </g>
     </g>
     <g id="text_19">
      <!-- $\mathdefault{4}$ -->
      <g style="fill:#d2d2d2;" transform="translate(1279.964228 412.516563)scale(0.22 -0.22)">
       <use transform="translate(0 0.78125)" xlink:href="#DejaVuSerif-34"/>
      </g>
     </g>
    </g>
    <g id="text_20">
     <!-- $RR_{CI}$ -->
     <defs>
      <path d="M 69.484375 67.28125 
L 67.484375 56.890625 
Q 62.796875 61.625 57.546875 63.921875 
Q 52.296875 66.21875 46.1875 66.21875 
Q 37.84375 66.21875 31.515625 62.203125 
Q 25.203125 58.203125 20.609375 50 
Q 17.671875 44.734375 16.125 38.84375 
Q 14.59375 32.953125 14.59375 27 
Q 14.59375 17.046875 19.75 11.8125 
Q 24.90625 6.59375 34.71875 6.59375 
Q 41.5 6.59375 47.75 8.765625 
Q 54 10.9375 59.90625 15.28125 
L 57.625 3.609375 
Q 51.8125 1.125 45.875 -0.140625 
Q 39.9375 -1.421875 33.984375 -1.421875 
Q 19.96875 -1.421875 12.078125 6.1875 
Q 4.203125 13.8125 4.203125 27.390625 
Q 4.203125 36.078125 7.203125 44.46875 
Q 10.203125 52.875 15.828125 59.8125 
Q 21.78125 67.1875 29.421875 70.703125 
Q 37.0625 74.21875 47.21875 74.21875 
Q 53.46875 74.21875 59.0625 72.484375 
Q 64.65625 70.75 69.484375 67.28125 
z
" id="DejaVuSans-Oblique-43"/>
      <path d="M 16.890625 72.90625 
L 26.8125 72.90625 
L 12.59375 0 
L 2.6875 0 
z
" id="DejaVuSans-Oblique-49"/>
     </defs>
     <g style="fill:#d2d2d2;" transform="translate(1084.2 443.887187)scale(0.3 -0.3)">
      <use transform="translate(0 0.09375)" xlink:href="#DejaVuSans-Oblique-52"/>
      <use transform="translate(69.482422 0.09375)" xlink:href="#DejaVuSans-Oblique-52"/>
      <use transform="translate(138.964844 -16.3125)scale(0.7)" xlink:href="#DejaVuSans-Oblique-43"/>
      <use transform="translate(187.841797 -16.3125)scale(0.7)" xlink:href="#DejaVuSans-Oblique-49"/>
     </g>
    </g>
   </g>
   <g id="matplotlib.axis_6">
    <g id="ytick_7">
     <g id="line2d_18">
      <g>
       <use style="fill:#d2d2d2;stroke:#d2d2d2;stroke-width:0.8;" x="864" xlink:href="#m4a28337bc1" y="388.8"/>
      </g>
     </g>
     <g id="text_21">
      <!-- $\mathdefault{0.00}$ -->
      <g style="fill:#d2d2d2;" transform="translate(807.94 397.158281)scale(0.22 -0.22)">
       <use transform="translate(0 0.78125)" xlink:href="#DejaVuSerif-30"/>
       <use transform="translate(63.623047 0.78125)" xlink:href="#DejaVuSerif-2e"/>
       <use transform="translate(95.410156 0.78125)" xlink:href="#DejaVuSerif-30"/>
       <use transform="translate(159.033203 0.78125)" xlink:href="#DejaVuSerif-30"/>
      </g>
     </g>
    </g>
    <g id="ytick_8">
     <g id="line2d_19">
      <g>
       <use style="fill:#d2d2d2;stroke:#d2d2d2;stroke-width:0.8;" x="864" xlink:href="#m4a28337bc1" y="334.147761"/>
      </g>
     </g>
     <g id="text_22">
      <!-- $\mathdefault{0.25}$ -->
      <g style="fill:#d2d2d2;" transform="translate(807.94 342.506042)scale(0.22 -0.22)">
       <use transform="translate(0 0.78125)" xlink:href="#DejaVuSerif-30"/>
       <use transform="translate(63.623047 0.78125)" xlink:href="#DejaVuSerif-2e"/>
       <use transform="translate(95.378906 0.78125)" xlink:href="#DejaVuSerif-32"/>
       <use transform="translate(159.001953 0.78125)" xlink:href="#DejaVuSerif-35"/>
      </g>
     </g>
    </g>
    <g id="ytick_9">
     <g id="line2d_20">
      <g>
       <use style="fill:#d2d2d2;stroke:#d2d2d2;stroke-width:0.8;" x="864" xlink:href="#m4a28337bc1" y="279.495522"/>
      </g>
     </g>
     <g id="text_23">
      <!-- $\mathdefault{0.50}$ -->
      <g style="fill:#d2d2d2;" transform="translate(807.94 287.853803)scale(0.22 -0.22)">
       <use transform="translate(0 0.78125)" xlink:href="#DejaVuSerif-30"/>
       <use transform="translate(63.623047 0.78125)" xlink:href="#DejaVuSerif-2e"/>
       <use transform="translate(95.410156 0.78125)" xlink:href="#DejaVuSerif-35"/>
       <use transform="translate(159.033203 0.78125)" xlink:href="#DejaVuSerif-30"/>
      </g>
     </g>
    </g>
    <g id="ytick_10">
     <g id="line2d_21">
      <g>
       <use style="fill:#d2d2d2;stroke:#d2d2d2;stroke-width:0.8;" x="864" xlink:href="#m4a28337bc1" y="224.843283"/>
      </g>
     </g>
     <g id="text_24">
      <!-- $\mathdefault{0.75}$ -->
      <defs>
       <path d="M 56.390625 67.921875 
L 27.875 0 
L 20.609375 0 
L 47.796875 64.890625 
L 14.109375 64.890625 
L 14.109375 55.90625 
L 8.40625 55.90625 
L 8.40625 72.90625 
L 56.390625 72.90625 
z
" id="DejaVuSerif-37"/>
      </defs>
      <g style="fill:#d2d2d2;" transform="translate(807.94 233.201564)scale(0.22 -0.22)">
       <use transform="translate(0 0.78125)" xlink:href="#DejaVuSerif-30"/>
       <use transform="translate(63.623047 0.78125)" xlink:href="#DejaVuSerif-2e"/>
       <use transform="translate(95.410156 0.78125)" xlink:href="#DejaVuSerif-37"/>
       <use transform="translate(159.033203 0.78125)" xlink:href="#DejaVuSerif-35"/>
      </g>
     </g>
    </g>
    <g id="text_25">
     <!-- Density -->
     <g style="fill:#d2d2d2;" transform="translate(797.274375 349.1625)rotate(-90)scale(0.3 -0.3)">
      <use xlink:href="#DejaVuSerif-44"/>
      <use x="80.175781" xlink:href="#DejaVuSerif-65"/>
      <use x="139.355469" xlink:href="#DejaVuSerif-6e"/>
      <use x="203.759766" xlink:href="#DejaVuSerif-73"/>
      <use x="255.078125" xlink:href="#DejaVuSerif-69"/>
      <use x="287.060547" xlink:href="#DejaVuSerif-74"/>
      <use x="327.246094" xlink:href="#DejaVuSerif-79"/>
     </g>
    </g>
   </g>
   <g id="patch_95">
    <path d="M 864 388.8 
L 864 194.4 
" style="fill:none;stroke:#d2d2d2;stroke-linecap:square;stroke-linejoin:miter;stroke-width:1.5;"/>
   </g>
   <g id="patch_96">
    <path d="M 864 388.8 
L 1368 388.8 
" style="fill:none;stroke:#d2d2d2;stroke-linecap:square;stroke-linejoin:miter;stroke-width:1.5;"/>
   </g>
  </g>
  <g id="axes_5">
   <g id="matplotlib.axis_7"/>
   <g id="line2d_22">
    <path clip-path="url(#p440853f1c1)" d="M 1052.809744 388.8 
L 1052.809744 194.4 
" style="fill:none;stroke:#f79a52;stroke-linecap:square;stroke-width:6;"/>
   </g>
   <g id="line2d_23">
    <path clip-path="url(#p440853f1c1)" d="M 956.691114 388.8 
L 956.691114 233.28 
" style="fill:none;stroke:#e04b4b;stroke-linecap:square;stroke-width:6;"/>
   </g>
   <g id="line2d_24">
    <path clip-path="url(#p440853f1c1)" d="M 1163.919372 388.8 
L 1163.919372 233.28 
" style="fill:none;stroke:#e04b4b;stroke-linecap:square;stroke-width:6;"/>
   </g>
   <g id="text_26">
    <!-- $CI_{95\%}$ -->
    <defs>
     <path d="M 10.984375 1.515625 
L 10.984375 10.5 
Q 14.703125 8.734375 18.5 7.8125 
Q 22.3125 6.890625 25.984375 6.890625 
Q 35.75 6.890625 40.890625 13.453125 
Q 46.046875 20.015625 46.78125 33.40625 
Q 43.953125 29.203125 39.59375 26.953125 
Q 35.25 24.703125 29.984375 24.703125 
Q 19.046875 24.703125 12.671875 31.3125 
Q 6.296875 37.9375 6.296875 49.421875 
Q 6.296875 60.640625 12.9375 67.421875 
Q 19.578125 74.21875 30.609375 74.21875 
Q 43.265625 74.21875 49.921875 64.515625 
Q 56.59375 54.828125 56.59375 36.375 
Q 56.59375 19.140625 48.40625 8.859375 
Q 40.234375 -1.421875 26.421875 -1.421875 
Q 22.703125 -1.421875 18.890625 -0.6875 
Q 15.09375 0.046875 10.984375 1.515625 
z
M 30.609375 32.421875 
Q 37.25 32.421875 41.125 36.953125 
Q 45.015625 41.5 45.015625 49.421875 
Q 45.015625 57.28125 41.125 61.84375 
Q 37.25 66.40625 30.609375 66.40625 
Q 23.96875 66.40625 20.09375 61.84375 
Q 16.21875 57.28125 16.21875 49.421875 
Q 16.21875 41.5 20.09375 36.953125 
Q 23.96875 32.421875 30.609375 32.421875 
z
" id="DejaVuSans-39"/>
     <path d="M 10.796875 72.90625 
L 49.515625 72.90625 
L 49.515625 64.59375 
L 19.828125 64.59375 
L 19.828125 46.734375 
Q 21.96875 47.46875 24.109375 47.828125 
Q 26.265625 48.1875 28.421875 48.1875 
Q 40.625 48.1875 47.75 41.5 
Q 54.890625 34.8125 54.890625 23.390625 
Q 54.890625 11.625 47.5625 5.09375 
Q 40.234375 -1.421875 26.90625 -1.421875 
Q 22.3125 -1.421875 17.546875 -0.640625 
Q 12.796875 0.140625 7.71875 1.703125 
L 7.71875 11.625 
Q 12.109375 9.234375 16.796875 8.0625 
Q 21.484375 6.890625 26.703125 6.890625 
Q 35.15625 6.890625 40.078125 11.328125 
Q 45.015625 15.765625 45.015625 23.390625 
Q 45.015625 31 40.078125 35.4375 
Q 35.15625 39.890625 26.703125 39.890625 
Q 22.75 39.890625 18.8125 39.015625 
Q 14.890625 38.140625 10.796875 36.28125 
z
" id="DejaVuSans-35"/>
     <path d="M 72.703125 32.078125 
Q 68.453125 32.078125 66.03125 28.46875 
Q 63.625 24.859375 63.625 18.40625 
Q 63.625 12.0625 66.03125 8.421875 
Q 68.453125 4.78125 72.703125 4.78125 
Q 76.859375 4.78125 79.265625 8.421875 
Q 81.6875 12.0625 81.6875 18.40625 
Q 81.6875 24.8125 79.265625 28.4375 
Q 76.859375 32.078125 72.703125 32.078125 
z
M 72.703125 38.28125 
Q 80.421875 38.28125 84.953125 32.90625 
Q 89.5 27.546875 89.5 18.40625 
Q 89.5 9.28125 84.9375 3.921875 
Q 80.375 -1.421875 72.703125 -1.421875 
Q 64.890625 -1.421875 60.34375 3.921875 
Q 55.8125 9.28125 55.8125 18.40625 
Q 55.8125 27.59375 60.375 32.9375 
Q 64.9375 38.28125 72.703125 38.28125 
z
M 22.3125 68.015625 
Q 18.109375 68.015625 15.6875 64.375 
Q 13.28125 60.75 13.28125 54.390625 
Q 13.28125 47.953125 15.671875 44.328125 
Q 18.0625 40.71875 22.3125 40.71875 
Q 26.5625 40.71875 28.96875 44.328125 
Q 31.390625 47.953125 31.390625 54.390625 
Q 31.390625 60.6875 28.953125 64.34375 
Q 26.515625 68.015625 22.3125 68.015625 
z
M 66.40625 74.21875 
L 74.21875 74.21875 
L 28.609375 -1.421875 
L 20.796875 -1.421875 
z
M 22.3125 74.21875 
Q 30.03125 74.21875 34.609375 68.875 
Q 39.203125 63.53125 39.203125 54.390625 
Q 39.203125 45.171875 34.640625 39.84375 
Q 30.078125 34.515625 22.3125 34.515625 
Q 14.546875 34.515625 10.03125 39.859375 
Q 5.515625 45.21875 5.515625 54.390625 
Q 5.515625 63.484375 10.046875 68.84375 
Q 14.59375 74.21875 22.3125 74.21875 
z
" id="DejaVuSans-25"/>
    </defs>
    <g style="fill:#e04b4b;" transform="translate(930.891114 197.005)scale(0.2 -0.2)">
     <use transform="translate(0 0.78125)" xlink:href="#DejaVuSans-Oblique-43"/>
     <use transform="translate(69.824219 0.78125)" xlink:href="#DejaVuSans-Oblique-49"/>
     <use transform="translate(99.316406 -15.625)scale(0.7)" xlink:href="#DejaVuSans-39"/>
     <use transform="translate(143.852539 -15.625)scale(0.7)" xlink:href="#DejaVuSans-35"/>
     <use transform="translate(188.388672 -15.625)scale(0.7)" xlink:href="#DejaVuSans-25"/>
    </g>
    <!-- 0.818 -->
    <g style="fill:#e04b4b;" transform="translate(928.062989 219.400625)scale(0.2 -0.2)">
     <use xlink:href="#DejaVuSerif-30"/>
     <use x="63.623047" xlink:href="#DejaVuSerif-2e"/>
     <use x="95.410156" xlink:href="#DejaVuSerif-38"/>
     <use x="159.033203" xlink:href="#DejaVuSerif-31"/>
     <use x="222.65625" xlink:href="#DejaVuSerif-38"/>
    </g>
   </g>
   <g id="text_27">
    <!-- $CI_{95\%}$ -->
    <g style="fill:#e04b4b;" transform="translate(1138.119372 197.005)scale(0.2 -0.2)">
     <use transform="translate(0 0.78125)" xlink:href="#DejaVuSans-Oblique-43"/>
     <use transform="translate(69.824219 0.78125)" xlink:href="#DejaVuSans-Oblique-49"/>
     <use transform="translate(99.316406 -15.625)scale(0.7)" xlink:href="#DejaVuSans-39"/>
     <use transform="translate(143.852539 -15.625)scale(0.7)" xlink:href="#DejaVuSans-35"/>
     <use transform="translate(188.388672 -15.625)scale(0.7)" xlink:href="#DejaVuSans-25"/>
    </g>
    <!-- 2.814 -->
    <g style="fill:#e04b4b;" transform="translate(1135.291247 219.400625)scale(0.2 -0.2)">
     <use xlink:href="#DejaVuSerif-32"/>
     <use x="63.623047" xlink:href="#DejaVuSerif-2e"/>
     <use x="95.410156" xlink:href="#DejaVuSerif-38"/>
     <use x="159.033203" xlink:href="#DejaVuSerif-31"/>
     <use x="222.65625" xlink:href="#DejaVuSerif-34"/>
    </g>
   </g>
  </g>
 </g>
 <defs>
  <clipPath id="pf9f53a5c2d">
   <rect height="489.24" width="1116" x="180" y="77.76"/>
  </clipPath>
  <clipPath id="p440853f1c1">
   <rect height="194.4" width="504" x="864" y="194.4"/>
  </clipPath>
 </defs>
</svg>
