<?xml version="1.0" encoding="utf-8" standalone="no"?>
<!DOCTYPE svg PUBLIC "-//W3C//DTD SVG 1.1//EN"
  "http://www.w3.org/Graphics/SVG/1.1/DTD/svg11.dtd">
<!-- Created with matplotlib (http://matplotlib.org/) -->
<svg height="432pt" version="1.1" viewBox="0 0 648 432" width="648pt" xmlns="http://www.w3.org/2000/svg" xmlns:xlink="http://www.w3.org/1999/xlink">
 <defs>
  <style type="text/css">
*{stroke-linecap:butt;stroke-linejoin:round;}
  </style>
 </defs>
 <g id="figure_1">
  <g id="patch_1">
   <path d="M 0 432 
L 648 432 
L 648 0 
L 0 0 
z
" style="fill:none;"/>
  </g>
  <g id="axes_1">
   <g id="patch_2">
    <path d="M 81 378 
L 583.2 378 
L 583.2 51.84 
L 81 51.84 
z
" style="fill:none;opacity:0;"/>
   </g>
   <g id="patch_3">
    <path clip-path="url(#paeac23a74f)" d="M 143.775 378 
L 164.7 378 
L 164.7 67.371429 
L 143.775 67.371429 
z
" style="fill:#1f77b4;"/>
   </g>
   <g id="patch_4">
    <path clip-path="url(#paeac23a74f)" d="M 394.875 378 
L 415.8 378 
L 415.8 309.422663 
L 394.875 309.422663 
z
" style="fill:#1f77b4;"/>
   </g>
   <g id="patch_5">
    <path clip-path="url(#paeac23a74f)" d="M 164.7 378 
L 185.625 378 
L 185.625 366.570444 
L 164.7 366.570444 
z
" style="fill:#ff7f0e;"/>
   </g>
   <g id="patch_6">
    <path clip-path="url(#paeac23a74f)" d="M 415.8 378 
L 436.725 378 
L 436.725 374.815723 
L 415.8 374.815723 
z
" style="fill:#ff7f0e;"/>
   </g>
   <g id="patch_7">
    <path clip-path="url(#paeac23a74f)" d="M 185.625 378 
L 206.55 378 
L 206.55 371.55453 
L 185.625 371.55453 
z
" style="fill:#2ca02c;"/>
   </g>
   <g id="patch_8">
    <path clip-path="url(#paeac23a74f)" d="M 436.725 378 
L 457.65 378 
L 457.65 376.707829 
L 436.725 376.707829 
z
" style="fill:#2ca02c;"/>
   </g>
   <g id="patch_9">
    <path clip-path="url(#paeac23a74f)" d="M 206.55 378 
L 227.475 378 
L 227.475 304.900066 
L 206.55 304.900066 
z
" style="fill:#d62728;"/>
   </g>
   <g id="patch_10">
    <path clip-path="url(#paeac23a74f)" d="M 457.65 378 
L 478.575 378 
L 478.575 361.617123 
L 457.65 361.617123 
z
" style="fill:#d62728;"/>
   </g>
   <g id="patch_11">
    <path clip-path="url(#paeac23a74f)" d="M 227.475 378 
L 248.4 378 
L 248.4 296.716319 
L 227.475 296.716319 
z
" style="fill:#9467bd;"/>
   </g>
   <g id="patch_12">
    <path clip-path="url(#paeac23a74f)" d="M 478.575 378 
L 499.5 378 
L 499.5 360.540315 
L 478.575 360.540315 
z
" style="fill:#9467bd;"/>
   </g>
   <g id="patch_13">
    <path clip-path="url(#paeac23a74f)" d="M 248.4 378 
L 269.325 378 
L 269.325 358.309782 
L 248.4 358.309782 
z
" style="fill:#8c564b;"/>
   </g>
   <g id="patch_14">
    <path clip-path="url(#paeac23a74f)" d="M 499.5 378 
L 520.425 378 
L 520.425 377.415447 
L 499.5 377.415447 
z
" style="fill:#8c564b;"/>
   </g>
   <g id="matplotlib.axis_1">
    <g id="xtick_1">
     <g id="line2d_1">
      <defs>
       <path d="M 0 0 
L 0 3.5 
" id="m61133dea15" style="stroke:#d2d2d2;stroke-width:0.8;"/>
      </defs>
      <g>
       <use style="fill:#d2d2d2;stroke:#d2d2d2;stroke-width:0.8;" x="206.55" xlink:href="#m61133dea15" y="378"/>
      </g>
     </g>
     <g id="text_1">
      <!-- Alive -->
      <defs>
       <path d="M 20.015625 26.421875 
L 46.78125 26.421875 
L 33.40625 61.078125 
z
M -0.59375 0 
L -0.59375 5.171875 
L 5.8125 5.171875 
L 31.78125 72.90625 
L 39.984375 72.90625 
L 66.015625 5.171875 
L 73.1875 5.171875 
L 73.1875 0 
L 46.6875 0 
L 46.6875 5.171875 
L 54.78125 5.171875 
L 48.6875 21.1875 
L 18.015625 21.1875 
L 11.921875 5.171875 
L 19.921875 5.171875 
L 19.921875 0 
z
" id="DejaVuSerif-41"/>
       <path d="M 20.515625 5.171875 
L 29 5.171875 
L 29 0 
L 2.875 0 
L 2.875 5.171875 
L 11.53125 5.171875 
L 11.53125 70.796875 
L 2.875 70.796875 
L 2.875 75.984375 
L 20.515625 75.984375 
z
" id="DejaVuSerif-6c"/>
       <path d="M 9.71875 68.015625 
Q 9.71875 70.265625 11.34375 71.921875 
Q 12.984375 73.578125 15.28125 73.578125 
Q 17.53125 73.578125 19.15625 71.921875 
Q 20.796875 70.265625 20.796875 68.015625 
Q 20.796875 65.71875 19.1875 64.109375 
Q 17.578125 62.5 15.28125 62.5 
Q 12.984375 62.5 11.34375 64.109375 
Q 9.71875 65.71875 9.71875 68.015625 
z
M 21.1875 5.171875 
L 29.6875 5.171875 
L 29.6875 0 
L 3.609375 0 
L 3.609375 5.171875 
L 12.203125 5.171875 
L 12.203125 46.6875 
L 3.609375 46.6875 
L 3.609375 51.90625 
L 21.1875 51.90625 
z
" id="DejaVuSerif-69"/>
       <path d="M 24.703125 0 
L 5.609375 46.6875 
L -0.296875 46.6875 
L -0.296875 51.90625 
L 23.578125 51.90625 
L 23.578125 46.6875 
L 15.28125 46.6875 
L 29.890625 10.984375 
L 44.484375 46.6875 
L 36.71875 46.6875 
L 36.71875 51.90625 
L 56.203125 51.90625 
L 56.203125 46.6875 
L 50.390625 46.6875 
L 31.296875 0 
z
" id="DejaVuSerif-76"/>
       <path d="M 54.203125 25 
L 15.484375 25 
L 15.484375 24.609375 
Q 15.484375 14.109375 19.4375 8.765625 
Q 23.390625 3.421875 31.109375 3.421875 
Q 37.015625 3.421875 40.796875 6.515625 
Q 44.578125 9.625 46.09375 15.71875 
L 53.328125 15.71875 
Q 51.171875 7.171875 45.375 2.875 
Q 39.59375 -1.421875 30.171875 -1.421875 
Q 18.796875 -1.421875 11.890625 6.078125 
Q 4.984375 13.578125 4.984375 25.984375 
Q 4.984375 38.28125 11.765625 45.796875 
Q 18.5625 53.328125 29.59375 53.328125 
Q 41.359375 53.328125 47.65625 46.0625 
Q 53.953125 38.8125 54.203125 25 
z
M 43.609375 30.171875 
Q 43.3125 39.265625 39.765625 43.875 
Q 36.234375 48.484375 29.59375 48.484375 
Q 23.390625 48.484375 19.828125 43.84375 
Q 16.265625 39.203125 15.484375 30.171875 
z
" id="DejaVuSerif-65"/>
      </defs>
      <g style="fill:#d2d2d2;" transform="translate(176.325 403.23625)scale(0.24 -0.24)">
       <use xlink:href="#DejaVuSerif-41"/>
       <use x="72.216797" xlink:href="#DejaVuSerif-6c"/>
       <use x="104.199219" xlink:href="#DejaVuSerif-69"/>
       <use x="136.181641" xlink:href="#DejaVuSerif-76"/>
       <use x="192.675781" xlink:href="#DejaVuSerif-65"/>
      </g>
     </g>
    </g>
    <g id="xtick_2">
     <g id="line2d_2">
      <g>
       <use style="fill:#d2d2d2;stroke:#d2d2d2;stroke-width:0.8;" x="457.65" xlink:href="#m61133dea15" y="378"/>
      </g>
     </g>
     <g id="text_2">
      <!-- Dead -->
      <defs>
       <path d="M 24.703125 5.171875 
L 33.796875 5.171875 
Q 48 5.171875 55.59375 13.28125 
Q 63.1875 21.390625 63.1875 36.53125 
Q 63.1875 51.65625 55.609375 59.65625 
Q 48.046875 67.671875 33.796875 67.671875 
L 24.703125 67.671875 
z
M 5.515625 0 
L 5.515625 5.171875 
L 14.796875 5.171875 
L 14.796875 67.671875 
L 5.515625 67.671875 
L 5.515625 72.90625 
L 34.515625 72.90625 
Q 53.375 72.90625 63.890625 63.28125 
Q 74.421875 53.65625 74.421875 36.53125 
Q 74.421875 19.34375 63.875 9.671875 
Q 53.328125 0 34.515625 0 
z
" id="DejaVuSerif-44"/>
       <path d="M 39.796875 16.3125 
L 39.796875 27.296875 
L 28.21875 27.296875 
Q 21.53125 27.296875 18.25 24.40625 
Q 14.984375 21.53125 14.984375 15.578125 
Q 14.984375 10.15625 18.296875 6.984375 
Q 21.625 3.8125 27.296875 3.8125 
Q 32.90625 3.8125 36.34375 7.28125 
Q 39.796875 10.75 39.796875 16.3125 
z
M 48.78125 32.421875 
L 48.78125 5.171875 
L 56.78125 5.171875 
L 56.78125 0 
L 39.796875 0 
L 39.796875 5.609375 
Q 36.8125 2 32.90625 0.28125 
Q 29 -1.421875 23.78125 -1.421875 
Q 15.140625 -1.421875 10.0625 3.171875 
Q 4.984375 7.765625 4.984375 15.578125 
Q 4.984375 23.640625 10.796875 28.078125 
Q 16.609375 32.515625 27.203125 32.515625 
L 39.796875 32.515625 
L 39.796875 36.078125 
Q 39.796875 42 36.203125 45.234375 
Q 32.625 48.484375 26.125 48.484375 
Q 20.75 48.484375 17.578125 46.046875 
Q 14.40625 43.609375 13.625 38.8125 
L 8.984375 38.8125 
L 8.984375 49.3125 
Q 13.671875 51.3125 18.09375 52.3125 
Q 22.515625 53.328125 26.703125 53.328125 
Q 37.5 53.328125 43.140625 47.96875 
Q 48.78125 42.625 48.78125 32.421875 
z
" id="DejaVuSerif-61"/>
       <path d="M 52.484375 5.171875 
L 61.078125 5.171875 
L 61.078125 0 
L 43.5 0 
L 43.5 8.109375 
Q 40.875 3.21875 36.796875 0.890625 
Q 32.71875 -1.421875 26.703125 -1.421875 
Q 17.140625 -1.421875 11.0625 6.171875 
Q 4.984375 13.765625 4.984375 25.984375 
Q 4.984375 38.1875 11.03125 45.75 
Q 17.09375 53.328125 26.703125 53.328125 
Q 32.71875 53.328125 36.796875 51 
Q 40.875 48.6875 43.5 43.796875 
L 43.5 70.796875 
L 35.015625 70.796875 
L 35.015625 75.984375 
L 52.484375 75.984375 
z
M 43.5 23.390625 
L 43.5 28.515625 
Q 43.5 37.84375 39.90625 42.765625 
Q 36.328125 47.703125 29.5 47.703125 
Q 22.5625 47.703125 19.015625 42.234375 
Q 15.484375 36.765625 15.484375 25.984375 
Q 15.484375 15.234375 19.015625 9.71875 
Q 22.5625 4.203125 29.5 4.203125 
Q 36.328125 4.203125 39.90625 9.109375 
Q 43.5 14.015625 43.5 23.390625 
z
" id="DejaVuSerif-64"/>
      </defs>
      <g style="fill:#d2d2d2;" transform="translate(426.09 403.23625)scale(0.24 -0.24)">
       <use xlink:href="#DejaVuSerif-44"/>
       <use x="80.175781" xlink:href="#DejaVuSerif-65"/>
       <use x="139.355469" xlink:href="#DejaVuSerif-61"/>
       <use x="198.974609" xlink:href="#DejaVuSerif-64"/>
      </g>
     </g>
    </g>
   </g>
   <g id="matplotlib.axis_2">
    <g id="ytick_1">
     <g id="line2d_3">
      <defs>
       <path d="M 0 0 
L -3.5 0 
" id="m255c64ff86" style="stroke:#d2d2d2;stroke-width:0.8;"/>
      </defs>
      <g>
       <use style="fill:#d2d2d2;stroke:#d2d2d2;stroke-width:0.8;" x="81" xlink:href="#m255c64ff86" y="378"/>
      </g>
     </g>
     <g id="text_3">
      <!-- $\mathdefault{0}$ -->
      <defs>
       <path d="M 31.78125 3.421875 
Q 39.265625 3.421875 42.96875 11.625 
Q 46.6875 19.828125 46.6875 36.375 
Q 46.6875 52.984375 42.96875 61.1875 
Q 39.265625 69.390625 31.78125 69.390625 
Q 24.3125 69.390625 20.59375 61.1875 
Q 16.890625 52.984375 16.890625 36.375 
Q 16.890625 19.828125 20.59375 11.625 
Q 24.3125 3.421875 31.78125 3.421875 
z
M 31.78125 -1.421875 
Q 19.921875 -1.421875 13.25 8.53125 
Q 6.59375 18.5 6.59375 36.375 
Q 6.59375 54.296875 13.25 64.25 
Q 19.921875 74.21875 31.78125 74.21875 
Q 43.703125 74.21875 50.34375 64.25 
Q 56.984375 54.296875 56.984375 36.375 
Q 56.984375 18.5 50.34375 8.53125 
Q 43.703125 -1.421875 31.78125 -1.421875 
z
" id="DejaVuSerif-30"/>
      </defs>
      <g style="fill:#d2d2d2;" transform="translate(67.6 381.799219)scale(0.1 -0.1)">
       <use transform="translate(0 0.78125)" xlink:href="#DejaVuSerif-30"/>
      </g>
     </g>
    </g>
    <g id="ytick_2">
     <g id="line2d_4">
      <g>
       <use style="fill:#d2d2d2;stroke:#d2d2d2;stroke-width:0.8;" x="81" xlink:href="#m255c64ff86" y="339.542543"/>
      </g>
     </g>
     <g id="text_4">
      <!-- $\mathdefault{2500}$ -->
      <defs>
       <path d="M 12.796875 55.515625 
L 7.328125 55.515625 
L 7.328125 68.5 
Q 12.546875 71.296875 17.84375 72.75 
Q 23.140625 74.21875 28.21875 74.21875 
Q 39.59375 74.21875 46.1875 68.703125 
Q 52.78125 63.1875 52.78125 53.71875 
Q 52.78125 43.015625 37.84375 28.125 
Q 36.671875 27 36.078125 26.421875 
L 17.671875 8.015625 
L 48.09375 8.015625 
L 48.09375 17 
L 53.8125 17 
L 53.8125 0 
L 6.78125 0 
L 6.78125 5.328125 
L 28.90625 27.390625 
Q 36.234375 34.71875 39.359375 40.84375 
Q 42.484375 46.96875 42.484375 53.71875 
Q 42.484375 61.078125 38.640625 65.234375 
Q 34.8125 69.390625 28.078125 69.390625 
Q 21.09375 69.390625 17.28125 65.921875 
Q 13.484375 62.453125 12.796875 55.515625 
z
" id="DejaVuSerif-32"/>
       <path d="M 50.296875 72.90625 
L 50.296875 64.890625 
L 16.890625 64.890625 
L 16.890625 44 
Q 19.4375 45.75 22.828125 46.625 
Q 26.21875 47.515625 30.421875 47.515625 
Q 42.234375 47.515625 49.0625 40.96875 
Q 55.90625 34.421875 55.90625 23.09375 
Q 55.90625 11.53125 49 5.046875 
Q 42.09375 -1.421875 29.59375 -1.421875 
Q 24.5625 -1.421875 19.28125 -0.1875 
Q 14.015625 1.03125 8.5 3.515625 
L 8.5 17.671875 
L 14.015625 17.671875 
Q 14.453125 10.75 18.421875 7.078125 
Q 22.40625 3.421875 29.59375 3.421875 
Q 37.3125 3.421875 41.453125 8.5 
Q 45.609375 13.578125 45.609375 23.09375 
Q 45.609375 32.5625 41.484375 37.609375 
Q 37.359375 42.671875 29.59375 42.671875 
Q 25.203125 42.671875 21.84375 41.109375 
Q 18.5 39.546875 15.921875 36.28125 
L 11.71875 36.28125 
L 11.71875 72.90625 
z
" id="DejaVuSerif-35"/>
      </defs>
      <g style="fill:#d2d2d2;" transform="translate(48.5 343.341762)scale(0.1 -0.1)">
       <use transform="translate(0 0.78125)" xlink:href="#DejaVuSerif-32"/>
       <use transform="translate(63.623047 0.78125)" xlink:href="#DejaVuSerif-35"/>
       <use transform="translate(127.246094 0.78125)" xlink:href="#DejaVuSerif-30"/>
       <use transform="translate(190.869141 0.78125)" xlink:href="#DejaVuSerif-30"/>
      </g>
     </g>
    </g>
    <g id="ytick_3">
     <g id="line2d_5">
      <g>
       <use style="fill:#d2d2d2;stroke:#d2d2d2;stroke-width:0.8;" x="81" xlink:href="#m255c64ff86" y="301.085086"/>
      </g>
     </g>
     <g id="text_5">
      <!-- $\mathdefault{5000}$ -->
      <g style="fill:#d2d2d2;" transform="translate(48.5 304.884305)scale(0.1 -0.1)">
       <use transform="translate(0 0.78125)" xlink:href="#DejaVuSerif-35"/>
       <use transform="translate(63.623047 0.78125)" xlink:href="#DejaVuSerif-30"/>
       <use transform="translate(127.246094 0.78125)" xlink:href="#DejaVuSerif-30"/>
       <use transform="translate(190.869141 0.78125)" xlink:href="#DejaVuSerif-30"/>
      </g>
     </g>
    </g>
    <g id="ytick_4">
     <g id="line2d_6">
      <g>
       <use style="fill:#d2d2d2;stroke:#d2d2d2;stroke-width:0.8;" x="81" xlink:href="#m255c64ff86" y="262.627629"/>
      </g>
     </g>
     <g id="text_6">
      <!-- $\mathdefault{7500}$ -->
      <defs>
       <path d="M 56.390625 67.921875 
L 27.875 0 
L 20.609375 0 
L 47.796875 64.890625 
L 14.109375 64.890625 
L 14.109375 55.90625 
L 8.40625 55.90625 
L 8.40625 72.90625 
L 56.390625 72.90625 
z
" id="DejaVuSerif-37"/>
      </defs>
      <g style="fill:#d2d2d2;" transform="translate(48.5 266.426848)scale(0.1 -0.1)">
       <use transform="translate(0 0.78125)" xlink:href="#DejaVuSerif-37"/>
       <use transform="translate(63.623047 0.78125)" xlink:href="#DejaVuSerif-35"/>
       <use transform="translate(127.246094 0.78125)" xlink:href="#DejaVuSerif-30"/>
       <use transform="translate(190.869141 0.78125)" xlink:href="#DejaVuSerif-30"/>
      </g>
     </g>
    </g>
    <g id="ytick_5">
     <g id="line2d_7">
      <g>
       <use style="fill:#d2d2d2;stroke:#d2d2d2;stroke-width:0.8;" x="81" xlink:href="#m255c64ff86" y="224.170172"/>
      </g>
     </g>
     <g id="text_7">
      <!-- $\mathdefault{10000}$ -->
      <defs>
       <path d="M 14.203125 0 
L 14.203125 5.171875 
L 26.90625 5.171875 
L 26.90625 65.828125 
L 12.203125 56.296875 
L 12.203125 62.703125 
L 29.984375 74.21875 
L 36.71875 74.21875 
L 36.71875 5.171875 
L 49.421875 5.171875 
L 49.421875 0 
z
" id="DejaVuSerif-31"/>
      </defs>
      <g style="fill:#d2d2d2;" transform="translate(42.1 227.969391)scale(0.1 -0.1)">
       <use transform="translate(0 0.78125)" xlink:href="#DejaVuSerif-31"/>
       <use transform="translate(63.623047 0.78125)" xlink:href="#DejaVuSerif-30"/>
       <use transform="translate(127.246094 0.78125)" xlink:href="#DejaVuSerif-30"/>
       <use transform="translate(190.869141 0.78125)" xlink:href="#DejaVuSerif-30"/>
       <use transform="translate(254.492188 0.78125)" xlink:href="#DejaVuSerif-30"/>
      </g>
     </g>
    </g>
    <g id="ytick_6">
     <g id="line2d_8">
      <g>
       <use style="fill:#d2d2d2;stroke:#d2d2d2;stroke-width:0.8;" x="81" xlink:href="#m255c64ff86" y="185.712715"/>
      </g>
     </g>
     <g id="text_8">
      <!-- $\mathdefault{12500}$ -->
      <g style="fill:#d2d2d2;" transform="translate(42.1 189.511934)scale(0.1 -0.1)">
       <use transform="translate(0 0.78125)" xlink:href="#DejaVuSerif-31"/>
       <use transform="translate(63.623047 0.78125)" xlink:href="#DejaVuSerif-32"/>
       <use transform="translate(127.246094 0.78125)" xlink:href="#DejaVuSerif-35"/>
       <use transform="translate(190.869141 0.78125)" xlink:href="#DejaVuSerif-30"/>
       <use transform="translate(254.492188 0.78125)" xlink:href="#DejaVuSerif-30"/>
      </g>
     </g>
    </g>
    <g id="ytick_7">
     <g id="line2d_9">
      <g>
       <use style="fill:#d2d2d2;stroke:#d2d2d2;stroke-width:0.8;" x="81" xlink:href="#m255c64ff86" y="147.255258"/>
      </g>
     </g>
     <g id="text_9">
      <!-- $\mathdefault{15000}$ -->
      <g style="fill:#d2d2d2;" transform="translate(42.1 151.054477)scale(0.1 -0.1)">
       <use transform="translate(0 0.78125)" xlink:href="#DejaVuSerif-31"/>
       <use transform="translate(63.623047 0.78125)" xlink:href="#DejaVuSerif-35"/>
       <use transform="translate(127.246094 0.78125)" xlink:href="#DejaVuSerif-30"/>
       <use transform="translate(190.869141 0.78125)" xlink:href="#DejaVuSerif-30"/>
       <use transform="translate(254.492188 0.78125)" xlink:href="#DejaVuSerif-30"/>
      </g>
     </g>
    </g>
    <g id="ytick_8">
     <g id="line2d_10">
      <g>
       <use style="fill:#d2d2d2;stroke:#d2d2d2;stroke-width:0.8;" x="81" xlink:href="#m255c64ff86" y="108.797801"/>
      </g>
     </g>
     <g id="text_10">
      <!-- $\mathdefault{17500}$ -->
      <g style="fill:#d2d2d2;" transform="translate(42.1 112.59702)scale(0.1 -0.1)">
       <use transform="translate(0 0.78125)" xlink:href="#DejaVuSerif-31"/>
       <use transform="translate(63.623047 0.78125)" xlink:href="#DejaVuSerif-37"/>
       <use transform="translate(127.246094 0.78125)" xlink:href="#DejaVuSerif-35"/>
       <use transform="translate(190.869141 0.78125)" xlink:href="#DejaVuSerif-30"/>
       <use transform="translate(254.492188 0.78125)" xlink:href="#DejaVuSerif-30"/>
      </g>
     </g>
    </g>
    <g id="ytick_9">
     <g id="line2d_11">
      <g>
       <use style="fill:#d2d2d2;stroke:#d2d2d2;stroke-width:0.8;" x="81" xlink:href="#m255c64ff86" y="70.340344"/>
      </g>
     </g>
     <g id="text_11">
      <!-- $\mathdefault{20000}$ -->
      <g style="fill:#d2d2d2;" transform="translate(42.1 74.139563)scale(0.1 -0.1)">
       <use transform="translate(0 0.78125)" xlink:href="#DejaVuSerif-32"/>
       <use transform="translate(63.623047 0.78125)" xlink:href="#DejaVuSerif-30"/>
       <use transform="translate(127.246094 0.78125)" xlink:href="#DejaVuSerif-30"/>
       <use transform="translate(190.869141 0.78125)" xlink:href="#DejaVuSerif-30"/>
       <use transform="translate(254.492188 0.78125)" xlink:href="#DejaVuSerif-30"/>
      </g>
     </g>
    </g>
    <g id="text_12">
     <!-- Patient Count -->
     <defs>
      <path d="M 24.703125 37.109375 
L 37.59375 37.109375 
Q 44.875 37.109375 48.671875 41.03125 
Q 52.484375 44.96875 52.484375 52.390625 
Q 52.484375 59.859375 48.671875 63.765625 
Q 44.875 67.671875 37.59375 67.671875 
L 24.703125 67.671875 
z
M 5.515625 0 
L 5.515625 5.171875 
L 14.796875 5.171875 
L 14.796875 67.671875 
L 5.515625 67.671875 
L 5.515625 72.90625 
L 39.984375 72.90625 
Q 50.921875 72.90625 57.3125 67.359375 
Q 63.71875 61.8125 63.71875 52.390625 
Q 63.71875 43.015625 57.3125 37.453125 
Q 50.921875 31.890625 39.984375 31.890625 
L 24.703125 31.890625 
L 24.703125 5.171875 
L 35.984375 5.171875 
L 35.984375 0 
z
" id="DejaVuSerif-50"/>
      <path d="M 10.796875 46.6875 
L 2.875 46.6875 
L 2.875 51.90625 
L 10.796875 51.90625 
L 10.796875 68.015625 
L 19.828125 68.015625 
L 19.828125 51.90625 
L 36.71875 51.90625 
L 36.71875 46.6875 
L 19.828125 46.6875 
L 19.828125 13.71875 
Q 19.828125 7.125 21.09375 5.265625 
Q 22.359375 3.421875 25.78125 3.421875 
Q 29.296875 3.421875 30.90625 5.484375 
Q 32.515625 7.5625 32.625 12.203125 
L 39.40625 12.203125 
Q 39.015625 5.125 35.546875 1.84375 
Q 32.078125 -1.421875 25 -1.421875 
Q 17.234375 -1.421875 14.015625 2.015625 
Q 10.796875 5.46875 10.796875 13.71875 
z
" id="DejaVuSerif-74"/>
      <path d="M 4.109375 0 
L 4.109375 5.171875 
L 12.203125 5.171875 
L 12.203125 46.6875 
L 3.609375 46.6875 
L 3.609375 51.90625 
L 21.1875 51.90625 
L 21.1875 42.671875 
Q 23.6875 47.953125 27.65625 50.640625 
Q 31.640625 53.328125 36.921875 53.328125 
Q 45.515625 53.328125 49.5625 48.390625 
Q 53.609375 43.453125 53.609375 33.015625 
L 53.609375 5.171875 
L 61.625 5.171875 
L 61.625 0 
L 36.8125 0 
L 36.8125 5.171875 
L 44.578125 5.171875 
L 44.578125 30.171875 
Q 44.578125 39.703125 42.234375 43.234375 
Q 39.890625 46.78125 33.984375 46.78125 
Q 27.734375 46.78125 24.453125 42.203125 
Q 21.1875 37.640625 21.1875 28.90625 
L 21.1875 5.171875 
L 29 5.171875 
L 29 0 
z
" id="DejaVuSerif-6e"/>
      <path id="DejaVuSerif-20"/>
      <path d="M 70.515625 19.28125 
Q 67.28125 9.078125 59.6875 3.828125 
Q 52.09375 -1.421875 40.484375 -1.421875 
Q 33.34375 -1.421875 27.234375 1.015625 
Q 21.140625 3.46875 16.40625 8.203125 
Q 10.9375 13.671875 8.265625 20.625 
Q 5.609375 27.59375 5.609375 36.375 
Q 5.609375 53.375 15.421875 63.796875 
Q 25.25 74.21875 41.3125 74.21875 
Q 47.265625 74.21875 54 72.65625 
Q 60.75 71.09375 68.5 67.921875 
L 68.5 51.125 
L 62.984375 51.125 
Q 61.1875 60.296875 55.734375 64.640625 
Q 50.296875 69 40.484375 69 
Q 28.8125 69 22.796875 60.71875 
Q 16.796875 52.4375 16.796875 36.375 
Q 16.796875 20.359375 22.796875 12.078125 
Q 28.8125 3.8125 40.484375 3.8125 
Q 48.640625 3.8125 53.90625 7.6875 
Q 59.1875 11.578125 61.53125 19.28125 
z
" id="DejaVuSerif-43"/>
      <path d="M 30.078125 3.421875 
Q 37.3125 3.421875 40.984375 9.125 
Q 44.671875 14.84375 44.671875 25.984375 
Q 44.671875 37.109375 40.984375 42.796875 
Q 37.3125 48.484375 30.078125 48.484375 
Q 22.859375 48.484375 19.171875 42.796875 
Q 15.484375 37.109375 15.484375 25.984375 
Q 15.484375 14.84375 19.1875 9.125 
Q 22.90625 3.421875 30.078125 3.421875 
z
M 30.078125 -1.421875 
Q 18.75 -1.421875 11.859375 6.078125 
Q 4.984375 13.578125 4.984375 25.984375 
Q 4.984375 38.375 11.84375 45.84375 
Q 18.703125 53.328125 30.078125 53.328125 
Q 41.453125 53.328125 48.3125 45.84375 
Q 55.171875 38.375 55.171875 25.984375 
Q 55.171875 13.578125 48.3125 6.078125 
Q 41.453125 -1.421875 30.078125 -1.421875 
z
" id="DejaVuSerif-6f"/>
      <path d="M 35.40625 51.90625 
L 52.203125 51.90625 
L 52.203125 5.171875 
L 60.6875 5.171875 
L 60.6875 0 
L 43.21875 0 
L 43.21875 9.1875 
Q 40.71875 4 36.765625 1.28125 
Q 32.8125 -1.421875 27.59375 -1.421875 
Q 18.953125 -1.421875 14.875 3.484375 
Q 10.796875 8.40625 10.796875 18.890625 
L 10.796875 46.6875 
L 2.6875 46.6875 
L 2.6875 51.90625 
L 19.828125 51.90625 
L 19.828125 21.6875 
Q 19.828125 12.203125 22.140625 8.6875 
Q 24.46875 5.171875 30.421875 5.171875 
Q 36.671875 5.171875 39.9375 9.765625 
Q 43.21875 14.359375 43.21875 23.09375 
L 43.21875 46.6875 
L 35.40625 46.6875 
z
" id="DejaVuSerif-75"/>
     </defs>
     <g style="fill:#d2d2d2;" transform="translate(34.356562 277.946719)rotate(-90)scale(0.18 -0.18)">
      <use xlink:href="#DejaVuSerif-50"/>
      <use x="67.222656" xlink:href="#DejaVuSerif-61"/>
      <use x="126.841797" xlink:href="#DejaVuSerif-74"/>
      <use x="167.027344" xlink:href="#DejaVuSerif-69"/>
      <use x="199.009766" xlink:href="#DejaVuSerif-65"/>
      <use x="258.189453" xlink:href="#DejaVuSerif-6e"/>
      <use x="322.59375" xlink:href="#DejaVuSerif-74"/>
      <use x="362.779297" xlink:href="#DejaVuSerif-20"/>
      <use x="394.566406" xlink:href="#DejaVuSerif-43"/>
      <use x="471.080078" xlink:href="#DejaVuSerif-6f"/>
      <use x="531.285156" xlink:href="#DejaVuSerif-75"/>
      <use x="595.689453" xlink:href="#DejaVuSerif-6e"/>
      <use x="660.09375" xlink:href="#DejaVuSerif-74"/>
     </g>
    </g>
   </g>
   <g id="patch_15">
    <path d="M 81 378 
L 81 51.84 
" style="fill:none;stroke:#d2d2d2;stroke-linecap:square;stroke-linejoin:miter;stroke-width:1.5;"/>
   </g>
   <g id="patch_16">
    <path d="M 81 378 
L 583.2 378 
" style="fill:none;stroke:#d2d2d2;stroke-linecap:square;stroke-linejoin:miter;stroke-width:1.5;"/>
   </g>
   <g id="legend_1">
    <g id="patch_17">
     <path d="M 434.132813 148.050937 
L 576.2 148.050937 
Q 578.2 148.050937 578.2 146.050937 
L 578.2 58.84 
Q 578.2 56.84 576.2 56.84 
L 434.132813 56.84 
Q 432.132813 56.84 432.132813 58.84 
L 432.132813 146.050937 
Q 432.132813 148.050937 434.132813 148.050937 
z
" style="fill:#ffffff;opacity:0.8;stroke:#cccccc;stroke-linejoin:miter;"/>
    </g>
    <g id="patch_18">
     <path d="M 436.132813 68.438437 
L 456.132813 68.438437 
L 456.132813 61.438437 
L 436.132813 61.438437 
z
" style="fill:#1f77b4;"/>
    </g>
    <g id="text_13">
     <!-- Cedars Sinai -->
     <defs>
      <path d="M 47.796875 52 
L 47.796875 39.015625 
L 42.625 39.015625 
Q 42.390625 42.875 40.484375 44.78125 
Q 38.578125 46.6875 34.90625 46.6875 
Q 28.265625 46.6875 24.71875 42.09375 
Q 21.1875 37.5 21.1875 28.90625 
L 21.1875 5.171875 
L 31.59375 5.171875 
L 31.59375 0 
L 4.109375 0 
L 4.109375 5.171875 
L 12.203125 5.171875 
L 12.203125 46.78125 
L 3.609375 46.78125 
L 3.609375 51.90625 
L 21.1875 51.90625 
L 21.1875 42.671875 
Q 23.828125 48.09375 27.96875 50.703125 
Q 32.125 53.328125 38.09375 53.328125 
Q 40.28125 53.328125 42.703125 52.984375 
Q 45.125 52.640625 47.796875 52 
z
" id="DejaVuSerif-72"/>
      <path d="M 5.609375 2.875 
L 5.609375 14.984375 
L 10.796875 14.984375 
Q 10.984375 9.1875 14.421875 6.296875 
Q 17.875 3.421875 24.609375 3.421875 
Q 30.671875 3.421875 33.84375 5.6875 
Q 37.015625 7.953125 37.015625 12.3125 
Q 37.015625 15.71875 34.6875 17.8125 
Q 32.375 19.921875 24.90625 22.3125 
L 18.40625 24.515625 
Q 11.71875 26.65625 8.71875 29.875 
Q 5.71875 33.109375 5.71875 38.09375 
Q 5.71875 45.21875 10.9375 49.265625 
Q 16.15625 53.328125 25.390625 53.328125 
Q 29.5 53.328125 34.03125 52.25 
Q 38.578125 51.171875 43.40625 49.125 
L 43.40625 37.796875 
L 38.234375 37.796875 
Q 38.03125 42.828125 34.703125 45.65625 
Q 31.390625 48.484375 25.6875 48.484375 
Q 20.015625 48.484375 17.109375 46.484375 
Q 14.203125 44.484375 14.203125 40.484375 
Q 14.203125 37.203125 16.40625 35.21875 
Q 18.609375 33.25 25.203125 31.203125 
L 32.328125 29 
Q 39.703125 26.703125 42.9375 23.265625 
Q 46.1875 19.828125 46.1875 14.40625 
Q 46.1875 7.03125 40.546875 2.796875 
Q 34.90625 -1.421875 25 -1.421875 
Q 19.96875 -1.421875 15.1875 -0.34375 
Q 10.40625 0.734375 5.609375 2.875 
z
" id="DejaVuSerif-73"/>
      <path d="M 9.28125 3.515625 
L 9.28125 20.125 
L 14.890625 20.0625 
Q 15.140625 11.765625 19.703125 7.78125 
Q 24.265625 3.8125 33.59375 3.8125 
Q 42.28125 3.8125 46.84375 7.25 
Q 51.421875 10.6875 51.421875 17.28125 
Q 51.421875 22.5625 48.65625 25.390625 
Q 45.90625 28.21875 37.015625 30.90625 
L 27.390625 33.796875 
Q 16.9375 36.96875 12.671875 41.703125 
Q 8.40625 46.4375 8.40625 54.6875 
Q 8.40625 63.96875 14.984375 69.09375 
Q 21.578125 74.21875 33.5 74.21875 
Q 38.578125 74.21875 44.625 73.109375 
Q 50.6875 72.015625 57.515625 69.921875 
L 57.515625 54.390625 
L 52 54.390625 
Q 51.171875 62.109375 46.84375 65.546875 
Q 42.53125 69 33.6875 69 
Q 25.984375 69 21.953125 65.84375 
Q 17.921875 62.703125 17.921875 56.6875 
Q 17.921875 51.46875 20.9375 48.484375 
Q 23.96875 45.515625 33.796875 42.578125 
L 42.828125 39.890625 
Q 52.734375 36.921875 56.953125 32.296875 
Q 61.1875 27.6875 61.1875 19.921875 
Q 61.1875 9.328125 54.390625 3.953125 
Q 47.609375 -1.421875 34.1875 -1.421875 
Q 28.171875 -1.421875 21.9375 -0.1875 
Q 15.71875 1.03125 9.28125 3.515625 
z
" id="DejaVuSerif-53"/>
     </defs>
     <g style="fill:#202020;" transform="translate(464.132813 68.438437)scale(0.1 -0.1)">
      <use xlink:href="#DejaVuSerif-43"/>
      <use x="76.513672" xlink:href="#DejaVuSerif-65"/>
      <use x="135.693359" xlink:href="#DejaVuSerif-64"/>
      <use x="199.707031" xlink:href="#DejaVuSerif-61"/>
      <use x="259.326172" xlink:href="#DejaVuSerif-72"/>
      <use x="307.128906" xlink:href="#DejaVuSerif-73"/>
      <use x="358.447266" xlink:href="#DejaVuSerif-20"/>
      <use x="390.234375" xlink:href="#DejaVuSerif-53"/>
      <use x="458.740234" xlink:href="#DejaVuSerif-69"/>
      <use x="490.722656" xlink:href="#DejaVuSerif-6e"/>
      <use x="555.126953" xlink:href="#DejaVuSerif-61"/>
      <use x="614.746094" xlink:href="#DejaVuSerif-69"/>
     </g>
    </g>
    <g id="patch_19">
     <path d="M 436.132813 83.116562 
L 456.132813 83.116562 
L 456.132813 76.116562 
L 436.132813 76.116562 
z
" style="fill:#ff7f0e;"/>
    </g>
    <g id="text_14">
     <!-- UCLA Harbor -->
     <defs>
      <path d="M 14.015625 67.671875 
L 4.6875 67.671875 
L 4.6875 72.90625 
L 33.203125 72.90625 
L 33.203125 67.671875 
L 23.875 67.671875 
L 23.875 29.984375 
Q 23.875 16.015625 28.4375 10.5 
Q 33.015625 4.984375 44.1875 4.984375 
Q 55.375 4.984375 59.9375 10.5 
Q 64.5 16.015625 64.5 29.984375 
L 64.5 67.671875 
L 55.171875 67.671875 
L 55.171875 72.90625 
L 79.78125 72.90625 
L 79.78125 67.671875 
L 70.515625 67.671875 
L 70.515625 29 
Q 70.515625 12.359375 64.109375 5.46875 
Q 57.71875 -1.421875 42.390625 -1.421875 
Q 27.046875 -1.421875 20.53125 5.515625 
Q 14.015625 12.453125 14.015625 29 
z
" id="DejaVuSerif-55"/>
      <path d="M 5.515625 0 
L 5.515625 5.171875 
L 14.796875 5.171875 
L 14.796875 67.671875 
L 5.515625 67.671875 
L 5.515625 72.90625 
L 33.984375 72.90625 
L 33.984375 67.671875 
L 24.703125 67.671875 
L 24.703125 6 
L 58.015625 6 
L 58.015625 18.21875 
L 64.015625 18.21875 
L 64.015625 0 
z
" id="DejaVuSerif-4c"/>
      <path d="M 5.515625 0 
L 5.515625 5.171875 
L 14.796875 5.171875 
L 14.796875 67.671875 
L 5.515625 67.671875 
L 5.515625 72.90625 
L 33.984375 72.90625 
L 33.984375 67.671875 
L 24.703125 67.671875 
L 24.703125 42.484375 
L 62.5 42.484375 
L 62.5 67.671875 
L 53.21875 67.671875 
L 53.21875 72.90625 
L 81.6875 72.90625 
L 81.6875 67.671875 
L 72.40625 67.671875 
L 72.40625 5.171875 
L 81.6875 5.171875 
L 81.6875 0 
L 53.21875 0 
L 53.21875 5.171875 
L 62.5 5.171875 
L 62.5 36.53125 
L 24.703125 36.53125 
L 24.703125 5.171875 
L 33.984375 5.171875 
L 33.984375 0 
z
" id="DejaVuSerif-48"/>
      <path d="M 11.53125 5.171875 
L 11.53125 70.796875 
L 2.875 70.796875 
L 2.875 75.984375 
L 20.515625 75.984375 
L 20.515625 43.796875 
Q 23.140625 48.6875 27.21875 51 
Q 31.296875 53.328125 37.3125 53.328125 
Q 46.875 53.328125 52.921875 45.75 
Q 58.984375 38.1875 58.984375 25.984375 
Q 58.984375 13.765625 52.921875 6.171875 
Q 46.875 -1.421875 37.3125 -1.421875 
Q 31.296875 -1.421875 27.21875 0.890625 
Q 23.140625 3.21875 20.515625 8.109375 
L 20.515625 0 
L 2.875 0 
L 2.875 5.171875 
z
M 20.515625 23.390625 
Q 20.515625 14.015625 24.09375 9.109375 
Q 27.6875 4.203125 34.515625 4.203125 
Q 41.40625 4.203125 44.9375 9.71875 
Q 48.484375 15.234375 48.484375 25.984375 
Q 48.484375 36.765625 44.9375 42.234375 
Q 41.40625 47.703125 34.515625 47.703125 
Q 27.6875 47.703125 24.09375 42.765625 
Q 20.515625 37.84375 20.515625 28.515625 
z
" id="DejaVuSerif-62"/>
     </defs>
     <g style="fill:#202020;" transform="translate(464.132813 83.116562)scale(0.1 -0.1)">
      <use xlink:href="#DejaVuSerif-55"/>
      <use x="84.277344" xlink:href="#DejaVuSerif-43"/>
      <use x="160.791016" xlink:href="#DejaVuSerif-4c"/>
      <use x="227.197266" xlink:href="#DejaVuSerif-41"/>
      <use x="299.414062" xlink:href="#DejaVuSerif-20"/>
      <use x="331.201172" xlink:href="#DejaVuSerif-48"/>
      <use x="418.408203" xlink:href="#DejaVuSerif-61"/>
      <use x="478.027344" xlink:href="#DejaVuSerif-72"/>
      <use x="525.830078" xlink:href="#DejaVuSerif-62"/>
      <use x="589.84375" xlink:href="#DejaVuSerif-6f"/>
      <use x="650.048828" xlink:href="#DejaVuSerif-72"/>
     </g>
    </g>
    <g id="patch_20">
     <path d="M 436.132813 97.794687 
L 456.132813 97.794687 
L 456.132813 90.794687 
L 436.132813 90.794687 
z
" style="fill:#2ca02c;"/>
    </g>
    <g id="text_15">
     <!-- UCLA Olive View -->
     <defs>
      <path d="M 41.015625 3.8125 
Q 52.984375 3.8125 59.078125 12.03125 
Q 65.1875 20.265625 65.1875 36.375 
Q 65.1875 52.546875 59.078125 60.765625 
Q 52.984375 69 41.015625 69 
Q 29 69 22.890625 60.765625 
Q 16.796875 52.546875 16.796875 36.375 
Q 16.796875 20.265625 22.890625 12.03125 
Q 29 3.8125 41.015625 3.8125 
z
M 41.015625 -1.421875 
Q 33.59375 -1.421875 27.359375 1.015625 
Q 21.140625 3.46875 16.40625 8.203125 
Q 10.9375 13.671875 8.265625 20.609375 
Q 5.609375 27.546875 5.609375 36.375 
Q 5.609375 45.21875 8.265625 52.171875 
Q 10.9375 59.125 16.40625 64.59375 
Q 21.1875 69.390625 27.34375 71.796875 
Q 33.5 74.21875 41.015625 74.21875 
Q 56.890625 74.21875 66.65625 63.8125 
Q 76.421875 53.421875 76.421875 36.375 
Q 76.421875 27.640625 73.734375 20.625 
Q 71.046875 13.625 65.578125 8.203125 
Q 60.796875 3.421875 54.640625 1 
Q 48.484375 -1.421875 41.015625 -1.421875 
z
" id="DejaVuSerif-4f"/>
      <path d="M 17.484375 67.671875 
L 39.015625 11.71875 
L 60.5 67.671875 
L 52.296875 67.671875 
L 52.296875 72.90625 
L 73.6875 72.90625 
L 73.6875 67.671875 
L 66.609375 67.671875 
L 40.578125 0 
L 32.171875 0 
L 6.296875 67.671875 
L -0.984375 67.671875 
L -0.984375 72.90625 
L 25.59375 72.90625 
L 25.59375 67.671875 
z
" id="DejaVuSerif-56"/>
      <path d="M 48 51.90625 
L 61.28125 11.375 
L 73 46.6875 
L 65.484375 46.6875 
L 65.484375 51.90625 
L 84.28125 51.90625 
L 84.28125 46.6875 
L 78.515625 46.6875 
L 63.09375 0 
L 55.609375 0 
L 42.828125 38.8125 
L 29.984375 0 
L 22.796875 0 
L 7.421875 46.6875 
L 1.609375 46.6875 
L 1.609375 51.90625 
L 25.09375 51.90625 
L 25.09375 46.6875 
L 16.703125 46.6875 
L 28.328125 11.375 
L 41.703125 51.90625 
z
" id="DejaVuSerif-77"/>
     </defs>
     <g style="fill:#202020;" transform="translate(464.132813 97.794687)scale(0.1 -0.1)">
      <use xlink:href="#DejaVuSerif-55"/>
      <use x="84.277344" xlink:href="#DejaVuSerif-43"/>
      <use x="160.791016" xlink:href="#DejaVuSerif-4c"/>
      <use x="227.197266" xlink:href="#DejaVuSerif-41"/>
      <use x="299.414062" xlink:href="#DejaVuSerif-20"/>
      <use x="331.201172" xlink:href="#DejaVuSerif-4f"/>
      <use x="413.183594" xlink:href="#DejaVuSerif-6c"/>
      <use x="445.166016" xlink:href="#DejaVuSerif-69"/>
      <use x="477.148438" xlink:href="#DejaVuSerif-76"/>
      <use x="533.642578" xlink:href="#DejaVuSerif-65"/>
      <use x="592.822266" xlink:href="#DejaVuSerif-20"/>
      <use x="624.609375" xlink:href="#DejaVuSerif-56"/>
      <use x="696.810547" xlink:href="#DejaVuSerif-69"/>
      <use x="728.792969" xlink:href="#DejaVuSerif-65"/>
      <use x="787.972656" xlink:href="#DejaVuSerif-77"/>
     </g>
    </g>
    <g id="patch_21">
     <path d="M 436.132813 112.472812 
L 456.132813 112.472812 
L 456.132813 105.472812 
L 436.132813 105.472812 
z
" style="fill:#d62728;"/>
    </g>
    <g id="text_16">
     <!-- UCLA Ronald Reagan -->
     <defs>
      <path d="M 47.90625 36.1875 
Q 51.3125 35.25 53.78125 33.03125 
Q 56.25 30.8125 58.203125 26.8125 
L 68.796875 5.171875 
L 77.6875 5.171875 
L 77.6875 0 
L 60.5 0 
L 49.125 23.1875 
Q 45.84375 29.9375 43.109375 31.90625 
Q 40.375 33.890625 35.59375 33.890625 
L 24.703125 33.890625 
L 24.703125 5.171875 
L 35.015625 5.171875 
L 35.015625 0 
L 5.515625 0 
L 5.515625 5.171875 
L 14.796875 5.171875 
L 14.796875 67.671875 
L 5.515625 67.671875 
L 5.515625 72.90625 
L 42.484375 72.90625 
Q 53.125 72.90625 58.90625 67.828125 
Q 64.703125 62.75 64.703125 53.421875 
Q 64.703125 45.90625 60.46875 41.578125 
Q 56.25 37.25 47.90625 36.1875 
z
M 24.703125 39.109375 
L 39.109375 39.109375 
Q 46.484375 39.109375 50 42.59375 
Q 53.515625 46.09375 53.515625 53.421875 
Q 53.515625 60.75 50 64.203125 
Q 46.484375 67.671875 39.109375 67.671875 
L 24.703125 67.671875 
z
" id="DejaVuSerif-52"/>
      <path d="M 52.484375 46.6875 
L 52.484375 1.125 
Q 52.484375 -10.0625 46.328125 -16.140625 
Q 40.1875 -22.21875 28.8125 -22.21875 
Q 23.6875 -22.21875 19 -21.28125 
Q 14.3125 -20.359375 10.015625 -18.5 
L 10.015625 -7.625 
L 14.703125 -7.625 
Q 15.578125 -12.703125 18.84375 -15.046875 
Q 22.125 -17.390625 28.21875 -17.390625 
Q 36.140625 -17.390625 39.8125 -12.921875 
Q 43.5 -8.453125 43.5 1.125 
L 43.5 8.109375 
Q 40.875 3.21875 36.796875 0.890625 
Q 32.71875 -1.421875 26.703125 -1.421875 
Q 17.140625 -1.421875 11.0625 6.171875 
Q 4.984375 13.765625 4.984375 25.984375 
Q 4.984375 38.1875 11.03125 45.75 
Q 17.09375 53.328125 26.703125 53.328125 
Q 32.71875 53.328125 36.796875 51 
Q 40.875 48.6875 43.5 43.796875 
L 43.5 51.90625 
L 61.078125 51.90625 
L 61.078125 46.6875 
z
M 43.5 28.515625 
Q 43.5 37.84375 39.90625 42.765625 
Q 36.328125 47.703125 29.5 47.703125 
Q 22.5625 47.703125 19.015625 42.234375 
Q 15.484375 36.765625 15.484375 25.984375 
Q 15.484375 15.234375 19.015625 9.71875 
Q 22.5625 4.203125 29.5 4.203125 
Q 36.328125 4.203125 39.90625 9.109375 
Q 43.5 14.015625 43.5 23.390625 
z
" id="DejaVuSerif-67"/>
     </defs>
     <g style="fill:#202020;" transform="translate(464.132813 112.472812)scale(0.1 -0.1)">
      <use xlink:href="#DejaVuSerif-55"/>
      <use x="84.277344" xlink:href="#DejaVuSerif-43"/>
      <use x="160.791016" xlink:href="#DejaVuSerif-4c"/>
      <use x="227.197266" xlink:href="#DejaVuSerif-41"/>
      <use x="299.414062" xlink:href="#DejaVuSerif-20"/>
      <use x="331.201172" xlink:href="#DejaVuSerif-52"/>
      <use x="406.494141" xlink:href="#DejaVuSerif-6f"/>
      <use x="466.699219" xlink:href="#DejaVuSerif-6e"/>
      <use x="531.103516" xlink:href="#DejaVuSerif-61"/>
      <use x="590.722656" xlink:href="#DejaVuSerif-6c"/>
      <use x="622.705078" xlink:href="#DejaVuSerif-64"/>
      <use x="686.71875" xlink:href="#DejaVuSerif-20"/>
      <use x="718.505859" xlink:href="#DejaVuSerif-52"/>
      <use x="793.798828" xlink:href="#DejaVuSerif-65"/>
      <use x="852.978516" xlink:href="#DejaVuSerif-61"/>
      <use x="912.597656" xlink:href="#DejaVuSerif-67"/>
      <use x="976.611328" xlink:href="#DejaVuSerif-61"/>
      <use x="1036.230469" xlink:href="#DejaVuSerif-6e"/>
     </g>
    </g>
    <g id="patch_22">
     <path d="M 436.132813 127.293125 
L 456.132813 127.293125 
L 456.132813 120.293125 
L 436.132813 120.293125 
z
" style="fill:#9467bd;"/>
    </g>
    <g id="text_17">
     <!-- UCLA Santa Monica -->
     <defs>
      <path d="M 5.515625 0 
L 5.515625 5.171875 
L 14.796875 5.171875 
L 14.796875 67.671875 
L 4.984375 67.671875 
L 4.984375 72.90625 
L 26.21875 72.90625 
L 51.8125 21 
L 77.390625 72.90625 
L 97.3125 72.90625 
L 97.3125 67.671875 
L 87.59375 67.671875 
L 87.59375 5.171875 
L 96.921875 5.171875 
L 96.921875 0 
L 68.40625 0 
L 68.40625 5.171875 
L 77.6875 5.171875 
L 77.6875 61.53125 
L 52.6875 10.6875 
L 45.796875 10.6875 
L 20.796875 61.53125 
L 20.796875 5.171875 
L 30.078125 5.171875 
L 30.078125 0 
z
" id="DejaVuSerif-4d"/>
      <path d="M 51.421875 15.578125 
Q 49.515625 7.28125 44.09375 2.921875 
Q 38.671875 -1.421875 30.078125 -1.421875 
Q 18.75 -1.421875 11.859375 6.078125 
Q 4.984375 13.578125 4.984375 25.984375 
Q 4.984375 38.421875 11.859375 45.875 
Q 18.75 53.328125 30.078125 53.328125 
Q 35.015625 53.328125 39.890625 52.171875 
Q 44.78125 51.03125 49.703125 48.6875 
L 49.703125 35.40625 
L 44.484375 35.40625 
Q 43.453125 42.234375 40.015625 45.359375 
Q 36.578125 48.484375 30.171875 48.484375 
Q 22.90625 48.484375 19.1875 42.84375 
Q 15.484375 37.203125 15.484375 25.984375 
Q 15.484375 14.75 19.171875 9.078125 
Q 22.859375 3.421875 30.171875 3.421875 
Q 35.984375 3.421875 39.453125 6.4375 
Q 42.921875 9.46875 44.1875 15.578125 
z
" id="DejaVuSerif-63"/>
     </defs>
     <g style="fill:#202020;" transform="translate(464.132813 127.293125)scale(0.1 -0.1)">
      <use xlink:href="#DejaVuSerif-55"/>
      <use x="84.277344" xlink:href="#DejaVuSerif-43"/>
      <use x="160.791016" xlink:href="#DejaVuSerif-4c"/>
      <use x="227.197266" xlink:href="#DejaVuSerif-41"/>
      <use x="299.414062" xlink:href="#DejaVuSerif-20"/>
      <use x="331.201172" xlink:href="#DejaVuSerif-53"/>
      <use x="399.707031" xlink:href="#DejaVuSerif-61"/>
      <use x="459.326172" xlink:href="#DejaVuSerif-6e"/>
      <use x="523.730469" xlink:href="#DejaVuSerif-74"/>
      <use x="563.916016" xlink:href="#DejaVuSerif-61"/>
      <use x="623.535156" xlink:href="#DejaVuSerif-20"/>
      <use x="655.322266" xlink:href="#DejaVuSerif-4d"/>
      <use x="757.714844" xlink:href="#DejaVuSerif-6f"/>
      <use x="817.919922" xlink:href="#DejaVuSerif-6e"/>
      <use x="882.324219" xlink:href="#DejaVuSerif-69"/>
      <use x="914.306641" xlink:href="#DejaVuSerif-63"/>
      <use x="970.3125" xlink:href="#DejaVuSerif-61"/>
     </g>
    </g>
    <g id="patch_23">
     <path d="M 436.132813 141.97125 
L 456.132813 141.97125 
L 456.132813 134.97125 
L 436.132813 134.97125 
z
" style="fill:#8c564b;"/>
    </g>
    <g id="text_18">
     <!-- Kaiser LA -->
     <defs>
      <path d="M 5.515625 0 
L 5.515625 5.171875 
L 14.796875 5.171875 
L 14.796875 67.671875 
L 5.515625 67.671875 
L 5.515625 72.90625 
L 33.984375 72.90625 
L 33.984375 67.671875 
L 24.703125 67.671875 
L 24.703125 40.09375 
L 56.109375 67.671875 
L 48.1875 67.671875 
L 48.1875 72.90625 
L 72.40625 72.90625 
L 72.40625 67.671875 
L 64.203125 67.671875 
L 32.90625 40.1875 
L 67.921875 5.171875 
L 76.21875 5.171875 
L 76.21875 0 
L 59.28125 0 
L 24.703125 34.625 
L 24.703125 5.171875 
L 33.984375 5.171875 
L 33.984375 0 
z
" id="DejaVuSerif-4b"/>
     </defs>
     <g style="fill:#202020;" transform="translate(464.132813 141.97125)scale(0.1 -0.1)">
      <use xlink:href="#DejaVuSerif-4b"/>
      <use x="74.707031" xlink:href="#DejaVuSerif-61"/>
      <use x="134.326172" xlink:href="#DejaVuSerif-69"/>
      <use x="166.308594" xlink:href="#DejaVuSerif-73"/>
      <use x="217.626953" xlink:href="#DejaVuSerif-65"/>
      <use x="276.806641" xlink:href="#DejaVuSerif-72"/>
      <use x="324.609375" xlink:href="#DejaVuSerif-20"/>
      <use x="356.396484" xlink:href="#DejaVuSerif-4c"/>
      <use x="422.802734" xlink:href="#DejaVuSerif-41"/>
     </g>
    </g>
   </g>
  </g>
 </g>
 <defs>
  <clipPath id="paeac23a74f">
   <rect height="326.16" width="502.2" x="81" y="51.84"/>
  </clipPath>
 </defs>
</svg>
