<?xml version="1.0" encoding="utf-8" standalone="no"?>
<!DOCTYPE svg PUBLIC "-//W3C//DTD SVG 1.1//EN"
  "http://www.w3.org/Graphics/SVG/1.1/DTD/svg11.dtd">
<!-- Created with matplotlib (http://matplotlib.org/) -->
<svg height="288pt" version="1.1" viewBox="0 0 864 288" width="864pt" xmlns="http://www.w3.org/2000/svg" xmlns:xlink="http://www.w3.org/1999/xlink">
 <defs>
  <style type="text/css">
*{stroke-linecap:butt;stroke-linejoin:round;}
  </style>
 </defs>
 <g id="figure_1">
  <g id="patch_1">
   <path d="M 0 288 
L 864 288 
L 864 0 
L 0 0 
z
" style="fill:none;"/>
  </g>
  <g id="axes_1">
   <g id="patch_2">
    <path d="M 48.3 260.2 
L 824.075 260.2 
L 824.075 14.81763 
L 48.3 14.81763 
z
" style="fill:none;"/>
   </g>
   <g id="matplotlib.axis_1">
    <g id="xtick_1">
     <g id="line2d_1">
      <defs>
       <path d="M 0 0 
L 0 3.5 
" id="m1401aebe40" style="stroke:#d2d2d2;"/>
      </defs>
      <g>
       <use style="fill:#d2d2d2;stroke:#d2d2d2;" x="143.588708" xlink:href="#m1401aebe40" y="260.2"/>
      </g>
     </g>
     <g id="text_1">
      <!-- −3.01 -->
      <defs>
       <path d="M 10.59375 35.5 
L 73.1875 35.5 
L 73.1875 27.203125 
L 10.59375 27.203125 
z
" id="DejaVuSans-2212"/>
       <path d="M 40.578125 39.3125 
Q 47.65625 37.796875 51.625 33 
Q 55.609375 28.21875 55.609375 21.1875 
Q 55.609375 10.40625 48.1875 4.484375 
Q 40.765625 -1.421875 27.09375 -1.421875 
Q 22.515625 -1.421875 17.65625 -0.515625 
Q 12.796875 0.390625 7.625 2.203125 
L 7.625 11.71875 
Q 11.71875 9.328125 16.59375 8.109375 
Q 21.484375 6.890625 26.8125 6.890625 
Q 36.078125 6.890625 40.9375 10.546875 
Q 45.796875 14.203125 45.796875 21.1875 
Q 45.796875 27.640625 41.28125 31.265625 
Q 36.765625 34.90625 28.71875 34.90625 
L 20.21875 34.90625 
L 20.21875 43.015625 
L 29.109375 43.015625 
Q 36.375 43.015625 40.234375 45.921875 
Q 44.09375 48.828125 44.09375 54.296875 
Q 44.09375 59.90625 40.109375 62.90625 
Q 36.140625 65.921875 28.71875 65.921875 
Q 24.65625 65.921875 20.015625 65.03125 
Q 15.375 64.15625 9.8125 62.3125 
L 9.8125 71.09375 
Q 15.4375 72.65625 20.34375 73.4375 
Q 25.25 74.21875 29.59375 74.21875 
Q 40.828125 74.21875 47.359375 69.109375 
Q 53.90625 64.015625 53.90625 55.328125 
Q 53.90625 49.265625 50.4375 45.09375 
Q 46.96875 40.921875 40.578125 39.3125 
z
" id="DejaVuSans-33"/>
       <path d="M 10.6875 12.40625 
L 21 12.40625 
L 21 0 
L 10.6875 0 
z
" id="DejaVuSans-2e"/>
       <path d="M 31.78125 66.40625 
Q 24.171875 66.40625 20.328125 58.90625 
Q 16.5 51.421875 16.5 36.375 
Q 16.5 21.390625 20.328125 13.890625 
Q 24.171875 6.390625 31.78125 6.390625 
Q 39.453125 6.390625 43.28125 13.890625 
Q 47.125 21.390625 47.125 36.375 
Q 47.125 51.421875 43.28125 58.90625 
Q 39.453125 66.40625 31.78125 66.40625 
z
M 31.78125 74.21875 
Q 44.046875 74.21875 50.515625 64.515625 
Q 56.984375 54.828125 56.984375 36.375 
Q 56.984375 17.96875 50.515625 8.265625 
Q 44.046875 -1.421875 31.78125 -1.421875 
Q 19.53125 -1.421875 13.0625 8.265625 
Q 6.59375 17.96875 6.59375 36.375 
Q 6.59375 54.828125 13.0625 64.515625 
Q 19.53125 74.21875 31.78125 74.21875 
z
" id="DejaVuSans-30"/>
       <path d="M 12.40625 8.296875 
L 28.515625 8.296875 
L 28.515625 63.921875 
L 10.984375 60.40625 
L 10.984375 69.390625 
L 28.421875 72.90625 
L 38.28125 72.90625 
L 38.28125 8.296875 
L 54.390625 8.296875 
L 54.390625 0 
L 12.40625 0 
z
" id="DejaVuSans-31"/>
      </defs>
      <g style="fill:#d2d2d2;" transform="translate(120.604724 278.597656)scale(0.15 -0.15)">
       <use xlink:href="#DejaVuSans-2212"/>
       <use x="83.789062" xlink:href="#DejaVuSans-33"/>
       <use x="147.412109" xlink:href="#DejaVuSans-2e"/>
       <use x="179.199219" xlink:href="#DejaVuSans-30"/>
       <use x="242.822266" xlink:href="#DejaVuSans-31"/>
      </g>
     </g>
    </g>
    <g id="xtick_2">
     <g id="line2d_2">
      <g>
       <use style="fill:#d2d2d2;stroke:#d2d2d2;" x="270.157096" xlink:href="#m1401aebe40" y="260.2"/>
      </g>
     </g>
     <g id="text_2">
      <!-- 4.96 -->
      <defs>
       <path d="M 37.796875 64.3125 
L 12.890625 25.390625 
L 37.796875 25.390625 
z
M 35.203125 72.90625 
L 47.609375 72.90625 
L 47.609375 25.390625 
L 58.015625 25.390625 
L 58.015625 17.1875 
L 47.609375 17.1875 
L 47.609375 0 
L 37.796875 0 
L 37.796875 17.1875 
L 4.890625 17.1875 
L 4.890625 26.703125 
z
" id="DejaVuSans-34"/>
       <path d="M 10.984375 1.515625 
L 10.984375 10.5 
Q 14.703125 8.734375 18.5 7.8125 
Q 22.3125 6.890625 25.984375 6.890625 
Q 35.75 6.890625 40.890625 13.453125 
Q 46.046875 20.015625 46.78125 33.40625 
Q 43.953125 29.203125 39.59375 26.953125 
Q 35.25 24.703125 29.984375 24.703125 
Q 19.046875 24.703125 12.671875 31.3125 
Q 6.296875 37.9375 6.296875 49.421875 
Q 6.296875 60.640625 12.9375 67.421875 
Q 19.578125 74.21875 30.609375 74.21875 
Q 43.265625 74.21875 49.921875 64.515625 
Q 56.59375 54.828125 56.59375 36.375 
Q 56.59375 19.140625 48.40625 8.859375 
Q 40.234375 -1.421875 26.421875 -1.421875 
Q 22.703125 -1.421875 18.890625 -0.6875 
Q 15.09375 0.046875 10.984375 1.515625 
z
M 30.609375 32.421875 
Q 37.25 32.421875 41.125 36.953125 
Q 45.015625 41.5 45.015625 49.421875 
Q 45.015625 57.28125 41.125 61.84375 
Q 37.25 66.40625 30.609375 66.40625 
Q 23.96875 66.40625 20.09375 61.84375 
Q 16.21875 57.28125 16.21875 49.421875 
Q 16.21875 41.5 20.09375 36.953125 
Q 23.96875 32.421875 30.609375 32.421875 
z
" id="DejaVuSans-39"/>
       <path d="M 33.015625 40.375 
Q 26.375 40.375 22.484375 35.828125 
Q 18.609375 31.296875 18.609375 23.390625 
Q 18.609375 15.53125 22.484375 10.953125 
Q 26.375 6.390625 33.015625 6.390625 
Q 39.65625 6.390625 43.53125 10.953125 
Q 47.40625 15.53125 47.40625 23.390625 
Q 47.40625 31.296875 43.53125 35.828125 
Q 39.65625 40.375 33.015625 40.375 
z
M 52.59375 71.296875 
L 52.59375 62.3125 
Q 48.875 64.0625 45.09375 64.984375 
Q 41.3125 65.921875 37.59375 65.921875 
Q 27.828125 65.921875 22.671875 59.328125 
Q 17.53125 52.734375 16.796875 39.40625 
Q 19.671875 43.65625 24.015625 45.921875 
Q 28.375 48.1875 33.59375 48.1875 
Q 44.578125 48.1875 50.953125 41.515625 
Q 57.328125 34.859375 57.328125 23.390625 
Q 57.328125 12.15625 50.6875 5.359375 
Q 44.046875 -1.421875 33.015625 -1.421875 
Q 20.359375 -1.421875 13.671875 8.265625 
Q 6.984375 17.96875 6.984375 36.375 
Q 6.984375 53.65625 15.1875 63.9375 
Q 23.390625 74.21875 37.203125 74.21875 
Q 40.921875 74.21875 44.703125 73.484375 
Q 48.484375 72.75 52.59375 71.296875 
z
" id="DejaVuSans-36"/>
      </defs>
      <g style="fill:#d2d2d2;" transform="translate(253.457877 278.597656)scale(0.15 -0.15)">
       <use xlink:href="#DejaVuSans-34"/>
       <use x="63.623047" xlink:href="#DejaVuSans-2e"/>
       <use x="95.410156" xlink:href="#DejaVuSans-39"/>
       <use x="159.033203" xlink:href="#DejaVuSans-36"/>
      </g>
     </g>
    </g>
    <g id="xtick_3">
     <g id="line2d_3">
      <g>
       <use style="fill:#d2d2d2;stroke:#d2d2d2;" x="396.725483" xlink:href="#m1401aebe40" y="260.2"/>
      </g>
     </g>
     <g id="text_3">
      <!-- 12.93 -->
      <defs>
       <path d="M 19.1875 8.296875 
L 53.609375 8.296875 
L 53.609375 0 
L 7.328125 0 
L 7.328125 8.296875 
Q 12.9375 14.109375 22.625 23.890625 
Q 32.328125 33.6875 34.8125 36.53125 
Q 39.546875 41.84375 41.421875 45.53125 
Q 43.3125 49.21875 43.3125 52.78125 
Q 43.3125 58.59375 39.234375 62.25 
Q 35.15625 65.921875 28.609375 65.921875 
Q 23.96875 65.921875 18.8125 64.3125 
Q 13.671875 62.703125 7.8125 59.421875 
L 7.8125 69.390625 
Q 13.765625 71.78125 18.9375 73 
Q 24.125 74.21875 28.421875 74.21875 
Q 39.75 74.21875 46.484375 68.546875 
Q 53.21875 62.890625 53.21875 53.421875 
Q 53.21875 48.921875 51.53125 44.890625 
Q 49.859375 40.875 45.40625 35.40625 
Q 44.1875 33.984375 37.640625 27.21875 
Q 31.109375 20.453125 19.1875 8.296875 
z
" id="DejaVuSans-32"/>
      </defs>
      <g style="fill:#d2d2d2;" transform="translate(375.25439 278.597656)scale(0.15 -0.15)">
       <use xlink:href="#DejaVuSans-31"/>
       <use x="63.623047" xlink:href="#DejaVuSans-32"/>
       <use x="127.246094" xlink:href="#DejaVuSans-2e"/>
       <use x="159.033203" xlink:href="#DejaVuSans-39"/>
       <use x="222.65625" xlink:href="#DejaVuSans-33"/>
      </g>
     </g>
    </g>
    <g id="xtick_4">
     <g id="line2d_4">
      <g>
       <use style="fill:#d2d2d2;stroke:#d2d2d2;" x="523.293871" xlink:href="#m1401aebe40" y="260.2"/>
      </g>
     </g>
     <g id="text_4">
      <!-- 20.90 -->
      <g style="fill:#d2d2d2;" transform="translate(501.822777 278.597656)scale(0.15 -0.15)">
       <use xlink:href="#DejaVuSans-32"/>
       <use x="63.623047" xlink:href="#DejaVuSans-30"/>
       <use x="127.246094" xlink:href="#DejaVuSans-2e"/>
       <use x="159.033203" xlink:href="#DejaVuSans-39"/>
       <use x="222.65625" xlink:href="#DejaVuSans-30"/>
      </g>
     </g>
    </g>
    <g id="xtick_5">
     <g id="line2d_5">
      <g>
       <use style="fill:#d2d2d2;stroke:#d2d2d2;" x="649.862258" xlink:href="#m1401aebe40" y="260.2"/>
      </g>
     </g>
     <g id="text_5">
      <!-- 28.87 -->
      <defs>
       <path d="M 31.78125 34.625 
Q 24.75 34.625 20.71875 30.859375 
Q 16.703125 27.09375 16.703125 20.515625 
Q 16.703125 13.921875 20.71875 10.15625 
Q 24.75 6.390625 31.78125 6.390625 
Q 38.8125 6.390625 42.859375 10.171875 
Q 46.921875 13.96875 46.921875 20.515625 
Q 46.921875 27.09375 42.890625 30.859375 
Q 38.875 34.625 31.78125 34.625 
z
M 21.921875 38.8125 
Q 15.578125 40.375 12.03125 44.71875 
Q 8.5 49.078125 8.5 55.328125 
Q 8.5 64.0625 14.71875 69.140625 
Q 20.953125 74.21875 31.78125 74.21875 
Q 42.671875 74.21875 48.875 69.140625 
Q 55.078125 64.0625 55.078125 55.328125 
Q 55.078125 49.078125 51.53125 44.71875 
Q 48 40.375 41.703125 38.8125 
Q 48.828125 37.15625 52.796875 32.3125 
Q 56.78125 27.484375 56.78125 20.515625 
Q 56.78125 9.90625 50.3125 4.234375 
Q 43.84375 -1.421875 31.78125 -1.421875 
Q 19.734375 -1.421875 13.25 4.234375 
Q 6.78125 9.90625 6.78125 20.515625 
Q 6.78125 27.484375 10.78125 32.3125 
Q 14.796875 37.15625 21.921875 38.8125 
z
M 18.3125 54.390625 
Q 18.3125 48.734375 21.84375 45.5625 
Q 25.390625 42.390625 31.78125 42.390625 
Q 38.140625 42.390625 41.71875 45.5625 
Q 45.3125 48.734375 45.3125 54.390625 
Q 45.3125 60.0625 41.71875 63.234375 
Q 38.140625 66.40625 31.78125 66.40625 
Q 25.390625 66.40625 21.84375 63.234375 
Q 18.3125 60.0625 18.3125 54.390625 
z
" id="DejaVuSans-38"/>
       <path d="M 8.203125 72.90625 
L 55.078125 72.90625 
L 55.078125 68.703125 
L 28.609375 0 
L 18.3125 0 
L 43.21875 64.59375 
L 8.203125 64.59375 
z
" id="DejaVuSans-37"/>
      </defs>
      <g style="fill:#d2d2d2;" transform="translate(628.391165 278.597656)scale(0.15 -0.15)">
       <use xlink:href="#DejaVuSans-32"/>
       <use x="63.623047" xlink:href="#DejaVuSans-38"/>
       <use x="127.246094" xlink:href="#DejaVuSans-2e"/>
       <use x="159.033203" xlink:href="#DejaVuSans-38"/>
       <use x="222.65625" xlink:href="#DejaVuSans-37"/>
      </g>
     </g>
    </g>
    <g id="xtick_6">
     <g id="line2d_6">
      <g>
       <use style="fill:#d2d2d2;stroke:#d2d2d2;" x="776.430646" xlink:href="#m1401aebe40" y="260.2"/>
      </g>
     </g>
     <g id="text_6">
      <!-- 36.84 -->
      <g style="fill:#d2d2d2;" transform="translate(754.959552 278.597656)scale(0.15 -0.15)">
       <use xlink:href="#DejaVuSans-33"/>
       <use x="63.623047" xlink:href="#DejaVuSans-36"/>
       <use x="127.246094" xlink:href="#DejaVuSans-2e"/>
       <use x="159.033203" xlink:href="#DejaVuSans-38"/>
       <use x="222.65625" xlink:href="#DejaVuSans-34"/>
      </g>
     </g>
    </g>
    <g id="text_7">
     <!-- Observed Value -->
     <defs>
      <path d="M 39.40625 66.21875 
Q 28.65625 66.21875 22.328125 58.203125 
Q 16.015625 50.203125 16.015625 36.375 
Q 16.015625 22.609375 22.328125 14.59375 
Q 28.65625 6.59375 39.40625 6.59375 
Q 50.140625 6.59375 56.421875 14.59375 
Q 62.703125 22.609375 62.703125 36.375 
Q 62.703125 50.203125 56.421875 58.203125 
Q 50.140625 66.21875 39.40625 66.21875 
z
M 39.40625 74.21875 
Q 54.734375 74.21875 63.90625 63.9375 
Q 73.09375 53.65625 73.09375 36.375 
Q 73.09375 19.140625 63.90625 8.859375 
Q 54.734375 -1.421875 39.40625 -1.421875 
Q 24.03125 -1.421875 14.8125 8.828125 
Q 5.609375 19.09375 5.609375 36.375 
Q 5.609375 53.65625 14.8125 63.9375 
Q 24.03125 74.21875 39.40625 74.21875 
z
" id="DejaVuSans-4f"/>
      <path d="M 48.6875 27.296875 
Q 48.6875 37.203125 44.609375 42.84375 
Q 40.53125 48.484375 33.40625 48.484375 
Q 26.265625 48.484375 22.1875 42.84375 
Q 18.109375 37.203125 18.109375 27.296875 
Q 18.109375 17.390625 22.1875 11.75 
Q 26.265625 6.109375 33.40625 6.109375 
Q 40.53125 6.109375 44.609375 11.75 
Q 48.6875 17.390625 48.6875 27.296875 
z
M 18.109375 46.390625 
Q 20.953125 51.265625 25.265625 53.625 
Q 29.59375 56 35.59375 56 
Q 45.5625 56 51.78125 48.09375 
Q 58.015625 40.1875 58.015625 27.296875 
Q 58.015625 14.40625 51.78125 6.484375 
Q 45.5625 -1.421875 35.59375 -1.421875 
Q 29.59375 -1.421875 25.265625 0.953125 
Q 20.953125 3.328125 18.109375 8.203125 
L 18.109375 0 
L 9.078125 0 
L 9.078125 75.984375 
L 18.109375 75.984375 
z
" id="DejaVuSans-62"/>
      <path d="M 44.28125 53.078125 
L 44.28125 44.578125 
Q 40.484375 46.53125 36.375 47.5 
Q 32.28125 48.484375 27.875 48.484375 
Q 21.1875 48.484375 17.84375 46.4375 
Q 14.5 44.390625 14.5 40.28125 
Q 14.5 37.15625 16.890625 35.375 
Q 19.28125 33.59375 26.515625 31.984375 
L 29.59375 31.296875 
Q 39.15625 29.25 43.1875 25.515625 
Q 47.21875 21.78125 47.21875 15.09375 
Q 47.21875 7.46875 41.1875 3.015625 
Q 35.15625 -1.421875 24.609375 -1.421875 
Q 20.21875 -1.421875 15.453125 -0.5625 
Q 10.6875 0.296875 5.421875 2 
L 5.421875 11.28125 
Q 10.40625 8.6875 15.234375 7.390625 
Q 20.0625 6.109375 24.8125 6.109375 
Q 31.15625 6.109375 34.5625 8.28125 
Q 37.984375 10.453125 37.984375 14.40625 
Q 37.984375 18.0625 35.515625 20.015625 
Q 33.0625 21.96875 24.703125 23.78125 
L 21.578125 24.515625 
Q 13.234375 26.265625 9.515625 29.90625 
Q 5.8125 33.546875 5.8125 39.890625 
Q 5.8125 47.609375 11.28125 51.796875 
Q 16.75 56 26.8125 56 
Q 31.78125 56 36.171875 55.265625 
Q 40.578125 54.546875 44.28125 53.078125 
z
" id="DejaVuSans-73"/>
      <path d="M 56.203125 29.59375 
L 56.203125 25.203125 
L 14.890625 25.203125 
Q 15.484375 15.921875 20.484375 11.0625 
Q 25.484375 6.203125 34.421875 6.203125 
Q 39.59375 6.203125 44.453125 7.46875 
Q 49.3125 8.734375 54.109375 11.28125 
L 54.109375 2.78125 
Q 49.265625 0.734375 44.1875 -0.34375 
Q 39.109375 -1.421875 33.890625 -1.421875 
Q 20.796875 -1.421875 13.15625 6.1875 
Q 5.515625 13.8125 5.515625 26.8125 
Q 5.515625 40.234375 12.765625 48.109375 
Q 20.015625 56 32.328125 56 
Q 43.359375 56 49.78125 48.890625 
Q 56.203125 41.796875 56.203125 29.59375 
z
M 47.21875 32.234375 
Q 47.125 39.59375 43.09375 43.984375 
Q 39.0625 48.390625 32.421875 48.390625 
Q 24.90625 48.390625 20.390625 44.140625 
Q 15.875 39.890625 15.1875 32.171875 
z
" id="DejaVuSans-65"/>
      <path d="M 41.109375 46.296875 
Q 39.59375 47.171875 37.8125 47.578125 
Q 36.03125 48 33.890625 48 
Q 26.265625 48 22.1875 43.046875 
Q 18.109375 38.09375 18.109375 28.8125 
L 18.109375 0 
L 9.078125 0 
L 9.078125 54.6875 
L 18.109375 54.6875 
L 18.109375 46.1875 
Q 20.953125 51.171875 25.484375 53.578125 
Q 30.03125 56 36.53125 56 
Q 37.453125 56 38.578125 55.875 
Q 39.703125 55.765625 41.0625 55.515625 
z
" id="DejaVuSans-72"/>
      <path d="M 2.984375 54.6875 
L 12.5 54.6875 
L 29.59375 8.796875 
L 46.6875 54.6875 
L 56.203125 54.6875 
L 35.6875 0 
L 23.484375 0 
z
" id="DejaVuSans-76"/>
      <path d="M 45.40625 46.390625 
L 45.40625 75.984375 
L 54.390625 75.984375 
L 54.390625 0 
L 45.40625 0 
L 45.40625 8.203125 
Q 42.578125 3.328125 38.25 0.953125 
Q 33.9375 -1.421875 27.875 -1.421875 
Q 17.96875 -1.421875 11.734375 6.484375 
Q 5.515625 14.40625 5.515625 27.296875 
Q 5.515625 40.1875 11.734375 48.09375 
Q 17.96875 56 27.875 56 
Q 33.9375 56 38.25 53.625 
Q 42.578125 51.265625 45.40625 46.390625 
z
M 14.796875 27.296875 
Q 14.796875 17.390625 18.875 11.75 
Q 22.953125 6.109375 30.078125 6.109375 
Q 37.203125 6.109375 41.296875 11.75 
Q 45.40625 17.390625 45.40625 27.296875 
Q 45.40625 37.203125 41.296875 42.84375 
Q 37.203125 48.484375 30.078125 48.484375 
Q 22.953125 48.484375 18.875 42.84375 
Q 14.796875 37.203125 14.796875 27.296875 
z
" id="DejaVuSans-64"/>
      <path id="DejaVuSans-20"/>
      <path d="M 28.609375 0 
L 0.78125 72.90625 
L 11.078125 72.90625 
L 34.1875 11.53125 
L 57.328125 72.90625 
L 67.578125 72.90625 
L 39.796875 0 
z
" id="DejaVuSans-56"/>
      <path d="M 34.28125 27.484375 
Q 23.390625 27.484375 19.1875 25 
Q 14.984375 22.515625 14.984375 16.5 
Q 14.984375 11.71875 18.140625 8.90625 
Q 21.296875 6.109375 26.703125 6.109375 
Q 34.1875 6.109375 38.703125 11.40625 
Q 43.21875 16.703125 43.21875 25.484375 
L 43.21875 27.484375 
z
M 52.203125 31.203125 
L 52.203125 0 
L 43.21875 0 
L 43.21875 8.296875 
Q 40.140625 3.328125 35.546875 0.953125 
Q 30.953125 -1.421875 24.3125 -1.421875 
Q 15.921875 -1.421875 10.953125 3.296875 
Q 6 8.015625 6 15.921875 
Q 6 25.140625 12.171875 29.828125 
Q 18.359375 34.515625 30.609375 34.515625 
L 43.21875 34.515625 
L 43.21875 35.40625 
Q 43.21875 41.609375 39.140625 45 
Q 35.0625 48.390625 27.6875 48.390625 
Q 23 48.390625 18.546875 47.265625 
Q 14.109375 46.140625 10.015625 43.890625 
L 10.015625 52.203125 
Q 14.9375 54.109375 19.578125 55.046875 
Q 24.21875 56 28.609375 56 
Q 40.484375 56 46.34375 49.84375 
Q 52.203125 43.703125 52.203125 31.203125 
z
" id="DejaVuSans-61"/>
      <path d="M 9.421875 75.984375 
L 18.40625 75.984375 
L 18.40625 0 
L 9.421875 0 
z
" id="DejaVuSans-6c"/>
      <path d="M 8.5 21.578125 
L 8.5 54.6875 
L 17.484375 54.6875 
L 17.484375 21.921875 
Q 17.484375 14.15625 20.5 10.265625 
Q 23.53125 6.390625 29.59375 6.390625 
Q 36.859375 6.390625 41.078125 11.03125 
Q 45.3125 15.671875 45.3125 23.6875 
L 45.3125 54.6875 
L 54.296875 54.6875 
L 54.296875 0 
L 45.3125 0 
L 45.3125 8.40625 
Q 42.046875 3.421875 37.71875 1 
Q 33.40625 -1.421875 27.6875 -1.421875 
Q 18.265625 -1.421875 13.375 4.4375 
Q 8.5 10.296875 8.5 21.578125 
z
M 31.109375 56 
z
" id="DejaVuSans-75"/>
     </defs>
     <g style="fill:#d2d2d2;" transform="translate(356.66875 306.914062)scale(0.2 -0.2)">
      <use xlink:href="#DejaVuSans-4f"/>
      <use x="78.710938" xlink:href="#DejaVuSans-62"/>
      <use x="142.1875" xlink:href="#DejaVuSans-73"/>
      <use x="194.287109" xlink:href="#DejaVuSans-65"/>
      <use x="255.810547" xlink:href="#DejaVuSans-72"/>
      <use x="296.923828" xlink:href="#DejaVuSans-76"/>
      <use x="356.103516" xlink:href="#DejaVuSans-65"/>
      <use x="417.626953" xlink:href="#DejaVuSans-64"/>
      <use x="481.103516" xlink:href="#DejaVuSans-20"/>
      <use x="512.890625" xlink:href="#DejaVuSans-56"/>
      <use x="581.189453" xlink:href="#DejaVuSans-61"/>
      <use x="642.46875" xlink:href="#DejaVuSans-6c"/>
      <use x="670.251953" xlink:href="#DejaVuSans-75"/>
      <use x="733.630859" xlink:href="#DejaVuSans-65"/>
     </g>
    </g>
   </g>
   <g id="matplotlib.axis_2"/>
   <g id="patch_3">
    <path d="M 48.3 260.2 
L 824.075 260.2 
" style="fill:none;stroke:#d2d2d2;stroke-linecap:square;stroke-linejoin:miter;stroke-width:0.8;"/>
   </g>
   <g id="PathCollection_1">
    <defs>
     <path d="M 0 5 
C 1.326016 5 2.597899 4.473168 3.535534 3.535534 
C 4.473168 2.597899 5 1.326016 5 0 
C 5 -1.326016 4.473168 -2.597899 3.535534 -3.535534 
C 2.597899 -4.473168 1.326016 -5 0 -5 
C -1.326016 -5 -2.597899 -4.473168 -3.535534 -3.535534 
C -4.473168 -2.597899 -5 -1.326016 -5 0 
C -5 1.326016 -4.473168 2.597899 -3.535534 3.535534 
C -2.597899 4.473168 -1.326016 5 0 5 
z
" id="mea79d0e5cb" style="stroke:#000000;"/>
    </defs>
    <g clip-path="url(#p66c39e3707)">
     <use style="fill:#acc2d9;stroke:#000000;" x="143.588708" xlink:href="#mea79d0e5cb" y="251.590092"/>
     <use style="fill:#acc2d9;stroke:#000000;" x="176.896179" xlink:href="#mea79d0e5cb" y="251.590092"/>
     <use style="fill:#acc2d9;stroke:#000000;" x="210.203649" xlink:href="#mea79d0e5cb" y="251.590092"/>
     <use style="fill:#acc2d9;stroke:#000000;" x="210.203649" xlink:href="#mea79d0e5cb" y="234.370277"/>
     <use style="fill:#acc2d9;stroke:#000000;" x="210.203649" xlink:href="#mea79d0e5cb" y="217.150461"/>
     <use style="fill:#acc2d9;stroke:#000000;" x="210.203649" xlink:href="#mea79d0e5cb" y="199.930646"/>
     <use style="fill:#acc2d9;stroke:#000000;" x="243.511119" xlink:href="#mea79d0e5cb" y="251.590092"/>
     <use style="fill:#acc2d9;stroke:#000000;" x="243.511119" xlink:href="#mea79d0e5cb" y="234.370277"/>
     <use style="fill:#acc2d9;stroke:#000000;" x="243.511119" xlink:href="#mea79d0e5cb" y="217.150461"/>
     <use style="fill:#acc2d9;stroke:#000000;" x="243.511119" xlink:href="#mea79d0e5cb" y="199.930646"/>
     <use style="fill:#acc2d9;stroke:#000000;" x="243.511119" xlink:href="#mea79d0e5cb" y="182.710831"/>
     <use style="fill:#acc2d9;stroke:#000000;" x="243.511119" xlink:href="#mea79d0e5cb" y="165.491015"/>
     <use style="fill:#acc2d9;stroke:#000000;" x="243.511119" xlink:href="#mea79d0e5cb" y="148.2712"/>
     <use style="fill:#acc2d9;stroke:#000000;" x="243.511119" xlink:href="#mea79d0e5cb" y="131.051384"/>
     <use style="fill:#acc2d9;stroke:#000000;" x="243.511119" xlink:href="#mea79d0e5cb" y="113.831569"/>
     <use style="fill:#acc2d9;stroke:#000000;" x="243.511119" xlink:href="#mea79d0e5cb" y="96.611754"/>
     <use style="fill:#acc2d9;stroke:#000000;" x="276.81859" xlink:href="#mea79d0e5cb" y="251.590092"/>
     <use style="fill:#acc2d9;stroke:#000000;" x="276.81859" xlink:href="#mea79d0e5cb" y="234.370277"/>
     <use style="fill:#acc2d9;stroke:#000000;" x="276.81859" xlink:href="#mea79d0e5cb" y="217.150461"/>
     <use style="fill:#acc2d9;stroke:#000000;" x="276.81859" xlink:href="#mea79d0e5cb" y="199.930646"/>
     <use style="fill:#acc2d9;stroke:#000000;" x="276.81859" xlink:href="#mea79d0e5cb" y="182.710831"/>
     <use style="fill:#acc2d9;stroke:#000000;" x="276.81859" xlink:href="#mea79d0e5cb" y="165.491015"/>
     <use style="fill:#acc2d9;stroke:#000000;" x="310.12606" xlink:href="#mea79d0e5cb" y="251.590092"/>
     <use style="fill:#acc2d9;stroke:#000000;" x="310.12606" xlink:href="#mea79d0e5cb" y="234.370277"/>
     <use style="fill:#acc2d9;stroke:#000000;" x="310.12606" xlink:href="#mea79d0e5cb" y="217.150461"/>
     <use style="fill:#acc2d9;stroke:#000000;" x="343.433531" xlink:href="#mea79d0e5cb" y="251.590092"/>
     <use style="fill:#acc2d9;stroke:#000000;" x="343.433531" xlink:href="#mea79d0e5cb" y="234.370277"/>
     <use style="fill:#acc2d9;stroke:#000000;" x="343.433531" xlink:href="#mea79d0e5cb" y="217.150461"/>
     <use style="fill:#acc2d9;stroke:#000000;" x="343.433531" xlink:href="#mea79d0e5cb" y="199.930646"/>
     <use style="fill:#acc2d9;stroke:#000000;" x="376.741001" xlink:href="#mea79d0e5cb" y="251.590092"/>
     <use style="fill:#acc2d9;stroke:#000000;" x="376.741001" xlink:href="#mea79d0e5cb" y="234.370277"/>
     <use style="fill:#acc2d9;stroke:#000000;" x="376.741001" xlink:href="#mea79d0e5cb" y="217.150461"/>
     <use style="fill:#acc2d9;stroke:#000000;" x="376.741001" xlink:href="#mea79d0e5cb" y="199.930646"/>
     <use style="fill:#acc2d9;stroke:#000000;" x="376.741001" xlink:href="#mea79d0e5cb" y="182.710831"/>
     <use style="fill:#acc2d9;stroke:#000000;" x="376.741001" xlink:href="#mea79d0e5cb" y="165.491015"/>
     <use style="fill:#acc2d9;stroke:#000000;" x="376.741001" xlink:href="#mea79d0e5cb" y="148.2712"/>
     <use style="fill:#acc2d9;stroke:#000000;" x="410.048471" xlink:href="#mea79d0e5cb" y="251.590092"/>
     <use style="fill:#acc2d9;stroke:#000000;" x="410.048471" xlink:href="#mea79d0e5cb" y="234.370277"/>
     <use style="fill:#acc2d9;stroke:#000000;" x="410.048471" xlink:href="#mea79d0e5cb" y="217.150461"/>
     <use style="fill:#acc2d9;stroke:#000000;" x="443.355942" xlink:href="#mea79d0e5cb" y="251.590092"/>
     <use style="fill:#acc2d9;stroke:#000000;" x="443.355942" xlink:href="#mea79d0e5cb" y="234.370277"/>
     <use style="fill:#acc2d9;stroke:#000000;" x="443.355942" xlink:href="#mea79d0e5cb" y="217.150461"/>
     <use style="fill:#acc2d9;stroke:#000000;" x="476.663412" xlink:href="#mea79d0e5cb" y="251.590092"/>
     <use style="fill:#acc2d9;stroke:#000000;" x="509.970883" xlink:href="#mea79d0e5cb" y="251.590092"/>
     <use style="fill:#acc2d9;stroke:#000000;" x="543.278353" xlink:href="#mea79d0e5cb" y="251.590092"/>
     <use style="fill:#acc2d9;stroke:#000000;" x="576.585823" xlink:href="#mea79d0e5cb" y="251.590092"/>
     <use style="fill:#acc2d9;stroke:#000000;" x="609.893294" xlink:href="#mea79d0e5cb" y="251.590092"/>
     <use style="fill:#acc2d9;stroke:#000000;" x="609.893294" xlink:href="#mea79d0e5cb" y="234.370277"/>
     <use style="fill:#acc2d9;stroke:#000000;" x="676.508235" xlink:href="#mea79d0e5cb" y="251.590092"/>
     <use style="fill:#acc2d9;stroke:#000000;" x="776.430646" xlink:href="#mea79d0e5cb" y="251.590092"/>
    </g>
   </g>
  </g>
  <g id="axes_2">
   <g id="PolyCollection_1">
    <defs>
     <path d="M 143.588708 -27.8 
L 143.588708 -60.035236 
L 144.856928 -60.668228 
L 146.125149 -61.306798 
L 147.393369 -61.950782 
L 148.661589 -62.60001 
L 149.92981 -63.254306 
L 151.19803 -63.913489 
L 152.46625 -64.577368 
L 153.734471 -65.245751 
L 155.002691 -65.918436 
L 156.270911 -66.595216 
L 157.539132 -67.275878 
L 158.807352 -67.960206 
L 160.075572 -68.647974 
L 161.343793 -69.338954 
L 162.612013 -70.032912 
L 163.880233 -70.729608 
L 165.148454 -71.428798 
L 166.416674 -72.130234 
L 167.684894 -72.833661 
L 168.953115 -73.538823 
L 170.221335 -74.245457 
L 171.489555 -74.953299 
L 172.757775 -75.662079 
L 174.025996 -76.371526 
L 175.294216 -77.081363 
L 176.562436 -77.791313 
L 177.830657 -78.501096 
L 179.098877 -79.210427 
L 180.367097 -79.919022 
L 181.635318 -80.626594 
L 182.903538 -81.332856 
L 184.171758 -82.037518 
L 185.439979 -82.740289 
L 186.708199 -83.44088 
L 187.976419 -84.139 
L 189.24464 -84.834357 
L 190.51286 -85.526661 
L 191.78108 -86.215623 
L 193.049301 -86.900954 
L 194.317521 -87.582366 
L 195.585741 -88.259574 
L 196.853961 -88.932294 
L 198.122182 -89.600244 
L 199.390402 -90.263145 
L 200.658622 -90.920721 
L 201.926843 -91.5727 
L 203.195063 -92.21881 
L 204.463283 -92.858787 
L 205.731504 -93.492368 
L 206.999724 -94.119296 
L 208.267944 -94.739318 
L 209.536165 -95.352186 
L 210.804385 -95.957657 
L 212.072605 -96.555492 
L 213.340826 -97.145461 
L 214.609046 -97.727337 
L 215.877266 -98.3009 
L 217.145487 -98.865936 
L 218.413707 -99.422238 
L 219.681927 -99.969606 
L 220.950147 -100.507845 
L 222.218368 -101.036769 
L 223.486588 -101.556199 
L 224.754808 -102.065963 
L 226.023029 -102.565897 
L 227.291249 -103.055844 
L 228.559469 -103.535656 
L 229.82769 -104.005191 
L 231.09591 -104.464317 
L 232.36413 -104.912909 
L 233.632351 -105.35085 
L 234.900571 -105.778033 
L 236.168791 -106.194356 
L 237.437012 -106.599729 
L 238.705232 -106.994068 
L 239.973452 -107.377298 
L 241.241673 -107.749352 
L 242.509893 -108.110171 
L 243.778113 -108.459706 
L 245.046333 -108.797914 
L 246.314554 -109.124762 
L 247.582774 -109.440224 
L 248.850994 -109.744282 
L 250.119215 -110.036926 
L 251.387435 -110.318154 
L 252.655655 -110.587972 
L 253.923876 -110.846393 
L 255.192096 -111.093438 
L 256.460316 -111.329134 
L 257.728537 -111.553517 
L 258.996757 -111.766629 
L 260.264977 -111.968518 
L 261.533198 -112.159239 
L 262.801418 -112.338854 
L 264.069638 -112.507431 
L 265.337859 -112.665044 
L 266.606079 -112.811772 
L 267.874299 -112.9477 
L 269.142519 -113.072919 
L 270.41074 -113.187523 
L 271.67896 -113.291614 
L 272.94718 -113.385296 
L 274.215401 -113.468678 
L 275.483621 -113.541874 
L 276.751841 -113.605 
L 278.020062 -113.658177 
L 279.288282 -113.701529 
L 280.556502 -113.735184 
L 281.824723 -113.759271 
L 283.092943 -113.773923 
L 284.361163 -113.779274 
L 285.629384 -113.775462 
L 286.897604 -113.762626 
L 288.165824 -113.740905 
L 289.434045 -113.710442 
L 290.702265 -113.671378 
L 291.970485 -113.623859 
L 293.238705 -113.568027 
L 294.506926 -113.504028 
L 295.775146 -113.432006 
L 297.043366 -113.352107 
L 298.311587 -113.264474 
L 299.579807 -113.169252 
L 300.848027 -113.066585 
L 302.116248 -112.956614 
L 303.384468 -112.839481 
L 304.652688 -112.715326 
L 305.920909 -112.58429 
L 307.189129 -112.446507 
L 308.457349 -112.302116 
L 309.72557 -112.151249 
L 310.99379 -111.994038 
L 312.26201 -111.830613 
L 313.530231 -111.661101 
L 314.798451 -111.485628 
L 316.066671 -111.304317 
L 317.334891 -111.117287 
L 318.603112 -110.924656 
L 319.871332 -110.72654 
L 321.139552 -110.52305 
L 322.407773 -110.314295 
L 323.675993 -110.100383 
L 324.944213 -109.881416 
L 326.212434 -109.657496 
L 327.480654 -109.42872 
L 328.748874 -109.195183 
L 330.017095 -108.956976 
L 331.285315 -108.714189 
L 332.553535 -108.466907 
L 333.821756 -108.215213 
L 335.089976 -107.959187 
L 336.358196 -107.698905 
L 337.626417 -107.434443 
L 338.894637 -107.165872 
L 340.162857 -106.89326 
L 341.431077 -106.616673 
L 342.699298 -106.336175 
L 343.967518 -106.051827 
L 345.235738 -105.763686 
L 346.503959 -105.471809 
L 347.772179 -105.176249 
L 349.040399 -104.877057 
L 350.30862 -104.574284 
L 351.57684 -104.267976 
L 352.84506 -103.958179 
L 354.113281 -103.644935 
L 355.381501 -103.328287 
L 356.649721 -103.008275 
L 357.917942 -102.684938 
L 359.186162 -102.358313 
L 360.454382 -102.028437 
L 361.722603 -101.695343 
L 362.990823 -101.359066 
L 364.259043 -101.019639 
L 365.527263 -100.677094 
L 366.795484 -100.331463 
L 368.063704 -99.982777 
L 369.331924 -99.631066 
L 370.600145 -99.276361 
L 371.868365 -98.918692 
L 373.136585 -98.558089 
L 374.404806 -98.194581 
L 375.673026 -97.8282 
L 376.941246 -97.458975 
L 378.209467 -97.086938 
L 379.477687 -96.71212 
L 380.745907 -96.334552 
L 382.014128 -95.954268 
L 383.282348 -95.571301 
L 384.550568 -95.185684 
L 385.818789 -94.797454 
L 387.087009 -94.406647 
L 388.355229 -94.013299 
L 389.62345 -93.61745 
L 390.89167 -93.219139 
L 392.15989 -92.818407 
L 393.42811 -92.415298 
L 394.696331 -92.009856 
L 395.964551 -91.602126 
L 397.232771 -91.192155 
L 398.500992 -90.779993 
L 399.769212 -90.36569 
L 401.037432 -89.949299 
L 402.305653 -89.530873 
L 403.573873 -89.110469 
L 404.842093 -88.688145 
L 406.110314 -88.26396 
L 407.378534 -87.837976 
L 408.646754 -87.410256 
L 409.914975 -86.980866 
L 411.183195 -86.549872 
L 412.451415 -86.117345 
L 413.719636 -85.683354 
L 414.987856 -85.247973 
L 416.256076 -84.811277 
L 417.524296 -84.373342 
L 418.792517 -83.934247 
L 420.060737 -83.494072 
L 421.328957 -83.052898 
L 422.597178 -82.610811 
L 423.865398 -82.167894 
L 425.133618 -81.724236 
L 426.401839 -81.279924 
L 427.670059 -80.83505 
L 428.938279 -80.389704 
L 430.2065 -79.943981 
L 431.47472 -79.497974 
L 432.74294 -79.051779 
L 434.011161 -78.605494 
L 435.279381 -78.159217 
L 436.547601 -77.713047 
L 437.815822 -77.267084 
L 439.084042 -76.821431 
L 440.352262 -76.376188 
L 441.620482 -75.93146 
L 442.888703 -75.487349 
L 444.156923 -75.043961 
L 445.425143 -74.601399 
L 446.693364 -74.159769 
L 447.961584 -73.719177 
L 449.229804 -73.279728 
L 450.498025 -72.841528 
L 451.766245 -72.404683 
L 453.034465 -71.9693 
L 454.302686 -71.535482 
L 455.570906 -71.103337 
L 456.839126 -70.672969 
L 458.107347 -70.244482 
L 459.375567 -69.817981 
L 460.643787 -69.393568 
L 461.912008 -68.971348 
L 463.180228 -68.55142 
L 464.448448 -68.133886 
L 465.716668 -67.718845 
L 466.984889 -67.306396 
L 468.253109 -66.896635 
L 469.521329 -66.48966 
L 470.78955 -66.085562 
L 472.05777 -65.684437 
L 473.32599 -65.286373 
L 474.594211 -64.891461 
L 475.862431 -64.499788 
L 477.130651 -64.111439 
L 478.398872 -63.726498 
L 479.667092 -63.345045 
L 480.935312 -62.96716 
L 482.203533 -62.592919 
L 483.471753 -62.222397 
L 484.739973 -61.855665 
L 486.008194 -61.492792 
L 487.276414 -61.133846 
L 488.544634 -60.778889 
L 489.812854 -60.427984 
L 491.081075 -60.081189 
L 492.349295 -59.738559 
L 493.617515 -59.400147 
L 494.885736 -59.066002 
L 496.153956 -58.736171 
L 497.422176 -58.410698 
L 498.690397 -58.089623 
L 499.958617 -57.772982 
L 501.226837 -57.460811 
L 502.495058 -57.153139 
L 503.763278 -56.849994 
L 505.031498 -56.5514 
L 506.299719 -56.257379 
L 507.567939 -55.967947 
L 508.836159 -55.683119 
L 510.10438 -55.402906 
L 511.3726 -55.127315 
L 512.64082 -54.85635 
L 513.90904 -54.590011 
L 515.177261 -54.328297 
L 516.445481 -54.071201 
L 517.713701 -53.818713 
L 518.981922 -53.570822 
L 520.250142 -53.327511 
L 521.518362 -53.088761 
L 522.786583 -52.85455 
L 524.054803 -52.624851 
L 525.323023 -52.399636 
L 526.591244 -52.178873 
L 527.859464 -51.962528 
L 529.127684 -51.75056 
L 530.395905 -51.542931 
L 531.664125 -51.339596 
L 532.932345 -51.140507 
L 534.200566 -50.945615 
L 535.468786 -50.754868 
L 536.737006 -50.56821 
L 538.005226 -50.385584 
L 539.273447 -50.206929 
L 540.541667 -50.032184 
L 541.809887 -49.861281 
L 543.078108 -49.694155 
L 544.346328 -49.530735 
L 545.614548 -49.37095 
L 546.882769 -49.214726 
L 548.150989 -49.061986 
L 549.419209 -48.912655 
L 550.68743 -48.766651 
L 551.95565 -48.623895 
L 553.22387 -48.484303 
L 554.492091 -48.347791 
L 555.760311 -48.214275 
L 557.028531 -48.083667 
L 558.296752 -47.95588 
L 559.564972 -47.830824 
L 560.833192 -47.70841 
L 562.101412 -47.588548 
L 563.369633 -47.471146 
L 564.637853 -47.356111 
L 565.906073 -47.243352 
L 567.174294 -47.132776 
L 568.442514 -47.02429 
L 569.710734 -46.917799 
L 570.978955 -46.813212 
L 572.247175 -46.710434 
L 573.515395 -46.609371 
L 574.783616 -46.509933 
L 576.051836 -46.412024 
L 577.320056 -46.315554 
L 578.588277 -46.220431 
L 579.856497 -46.126564 
L 581.124717 -46.033863 
L 582.392938 -45.942238 
L 583.661158 -45.851602 
L 584.929378 -45.761866 
L 586.197598 -45.672945 
L 587.465819 -45.584755 
L 588.734039 -45.497211 
L 590.002259 -45.410233 
L 591.27048 -45.323738 
L 592.5387 -45.237649 
L 593.80692 -45.151888 
L 595.075141 -45.06638 
L 596.343361 -44.981052 
L 597.611581 -44.895831 
L 598.879802 -44.810649 
L 600.148022 -44.725438 
L 601.416242 -44.640132 
L 602.684463 -44.554668 
L 603.952683 -44.468986 
L 605.220903 -44.383027 
L 606.489124 -44.296734 
L 607.757344 -44.210055 
L 609.025564 -44.122937 
L 610.293785 -44.035331 
L 611.562005 -43.947192 
L 612.830225 -43.858476 
L 614.098445 -43.769142 
L 615.366666 -43.679151 
L 616.634886 -43.588468 
L 617.903106 -43.497059 
L 619.171327 -43.404894 
L 620.439547 -43.311946 
L 621.707767 -43.21819 
L 622.975988 -43.123603 
L 624.244208 -43.028166 
L 625.512428 -42.931862 
L 626.780649 -42.834678 
L 628.048869 -42.736601 
L 629.317089 -42.637624 
L 630.58531 -42.53774 
L 631.85353 -42.436947 
L 633.12175 -42.335242 
L 634.389971 -42.23263 
L 635.658191 -42.129113 
L 636.926411 -42.024699 
L 638.194631 -41.919397 
L 639.462852 -41.81322 
L 640.731072 -41.706181 
L 641.999292 -41.598298 
L 643.267513 -41.489589 
L 644.535733 -41.380076 
L 645.803953 -41.269782 
L 647.072174 -41.158732 
L 648.340394 -41.046954 
L 649.608614 -40.934477 
L 650.876835 -40.821332 
L 652.145055 -40.707554 
L 653.413275 -40.593176 
L 654.681496 -40.478236 
L 655.949716 -40.362771 
L 657.217936 -40.246821 
L 658.486157 -40.130427 
L 659.754377 -40.013632 
L 661.022597 -39.896479 
L 662.290817 -39.779012 
L 663.559038 -39.661278 
L 664.827258 -39.543324 
L 666.095478 -39.425196 
L 667.363699 -39.306944 
L 668.631919 -39.188616 
L 669.900139 -39.070262 
L 671.16836 -38.951932 
L 672.43658 -38.833677 
L 673.7048 -38.715546 
L 674.973021 -38.597592 
L 676.241241 -38.479865 
L 677.509461 -38.362417 
L 678.777682 -38.245297 
L 680.045902 -38.128557 
L 681.314122 -38.012247 
L 682.582343 -37.896418 
L 683.850563 -37.781119 
L 685.118783 -37.666398 
L 686.387003 -37.552305 
L 687.655224 -37.438886 
L 688.923444 -37.326189 
L 690.191664 -37.21426 
L 691.459885 -37.103144 
L 692.728105 -36.992884 
L 693.996325 -36.883523 
L 695.264546 -36.775102 
L 696.532766 -36.667663 
L 697.800986 -36.561244 
L 699.069207 -36.455883 
L 700.337427 -36.351615 
L 701.605647 -36.248476 
L 702.873868 -36.146498 
L 704.142088 -36.045712 
L 705.410308 -35.946149 
L 706.678529 -35.847837 
L 707.946749 -35.750801 
L 709.214969 -35.655066 
L 710.483189 -35.560656 
L 711.75141 -35.46759 
L 713.01963 -35.375888 
L 714.28785 -35.285567 
L 715.556071 -35.196643 
L 716.824291 -35.109127 
L 718.092511 -35.023033 
L 719.360732 -34.938368 
L 720.628952 -34.855142 
L 721.897172 -34.773359 
L 723.165393 -34.693022 
L 724.433613 -34.614135 
L 725.701833 -34.536696 
L 726.970054 -34.460704 
L 728.238274 -34.386154 
L 729.506494 -34.313042 
L 730.774715 -34.241359 
L 732.042935 -34.171096 
L 733.311155 -34.102242 
L 734.579375 -34.034785 
L 735.847596 -33.968709 
L 737.115816 -33.904 
L 738.384036 -33.840639 
L 739.652257 -33.778608 
L 740.920477 -33.717885 
L 742.188697 -33.658449 
L 743.456918 -33.600277 
L 744.725138 -33.543343 
L 745.993358 -33.487622 
L 747.261579 -33.433087 
L 748.529799 -33.37971 
L 749.798019 -33.327461 
L 751.06624 -33.27631 
L 752.33446 -33.226226 
L 753.60268 -33.177177 
L 754.870901 -33.129131 
L 756.139121 -33.082053 
L 757.407341 -33.03591 
L 758.675561 -32.990667 
L 759.943782 -32.94629 
L 761.212002 -32.902742 
L 762.480222 -32.859987 
L 763.748443 -32.81799 
L 765.016663 -32.776714 
L 766.284883 -32.736122 
L 767.553104 -32.696179 
L 768.821324 -32.656848 
L 770.089544 -32.618091 
L 771.357765 -32.579874 
L 772.625985 -32.542159 
L 773.894205 -32.504912 
L 775.162426 -32.468096 
L 776.430646 -32.431678 
L 776.430646 -27.8 
L 776.430646 -27.8 
L 775.162426 -27.8 
L 773.894205 -27.8 
L 772.625985 -27.8 
L 771.357765 -27.8 
L 770.089544 -27.8 
L 768.821324 -27.8 
L 767.553104 -27.8 
L 766.284883 -27.8 
L 765.016663 -27.8 
L 763.748443 -27.8 
L 762.480222 -27.8 
L 761.212002 -27.8 
L 759.943782 -27.8 
L 758.675561 -27.8 
L 757.407341 -27.8 
L 756.139121 -27.8 
L 754.870901 -27.8 
L 753.60268 -27.8 
L 752.33446 -27.8 
L 751.06624 -27.8 
L 749.798019 -27.8 
L 748.529799 -27.8 
L 747.261579 -27.8 
L 745.993358 -27.8 
L 744.725138 -27.8 
L 743.456918 -27.8 
L 742.188697 -27.8 
L 740.920477 -27.8 
L 739.652257 -27.8 
L 738.384036 -27.8 
L 737.115816 -27.8 
L 735.847596 -27.8 
L 734.579375 -27.8 
L 733.311155 -27.8 
L 732.042935 -27.8 
L 730.774715 -27.8 
L 729.506494 -27.8 
L 728.238274 -27.8 
L 726.970054 -27.8 
L 725.701833 -27.8 
L 724.433613 -27.8 
L 723.165393 -27.8 
L 721.897172 -27.8 
L 720.628952 -27.8 
L 719.360732 -27.8 
L 718.092511 -27.8 
L 716.824291 -27.8 
L 715.556071 -27.8 
L 714.28785 -27.8 
L 713.01963 -27.8 
L 711.75141 -27.8 
L 710.483189 -27.8 
L 709.214969 -27.8 
L 707.946749 -27.8 
L 706.678529 -27.8 
L 705.410308 -27.8 
L 704.142088 -27.8 
L 702.873868 -27.8 
L 701.605647 -27.8 
L 700.337427 -27.8 
L 699.069207 -27.8 
L 697.800986 -27.8 
L 696.532766 -27.8 
L 695.264546 -27.8 
L 693.996325 -27.8 
L 692.728105 -27.8 
L 691.459885 -27.8 
L 690.191664 -27.8 
L 688.923444 -27.8 
L 687.655224 -27.8 
L 686.387003 -27.8 
L 685.118783 -27.8 
L 683.850563 -27.8 
L 682.582343 -27.8 
L 681.314122 -27.8 
L 680.045902 -27.8 
L 678.777682 -27.8 
L 677.509461 -27.8 
L 676.241241 -27.8 
L 674.973021 -27.8 
L 673.7048 -27.8 
L 672.43658 -27.8 
L 671.16836 -27.8 
L 669.900139 -27.8 
L 668.631919 -27.8 
L 667.363699 -27.8 
L 666.095478 -27.8 
L 664.827258 -27.8 
L 663.559038 -27.8 
L 662.290817 -27.8 
L 661.022597 -27.8 
L 659.754377 -27.8 
L 658.486157 -27.8 
L 657.217936 -27.8 
L 655.949716 -27.8 
L 654.681496 -27.8 
L 653.413275 -27.8 
L 652.145055 -27.8 
L 650.876835 -27.8 
L 649.608614 -27.8 
L 648.340394 -27.8 
L 647.072174 -27.8 
L 645.803953 -27.8 
L 644.535733 -27.8 
L 643.267513 -27.8 
L 641.999292 -27.8 
L 640.731072 -27.8 
L 639.462852 -27.8 
L 638.194631 -27.8 
L 636.926411 -27.8 
L 635.658191 -27.8 
L 634.389971 -27.8 
L 633.12175 -27.8 
L 631.85353 -27.8 
L 630.58531 -27.8 
L 629.317089 -27.8 
L 628.048869 -27.8 
L 626.780649 -27.8 
L 625.512428 -27.8 
L 624.244208 -27.8 
L 622.975988 -27.8 
L 621.707767 -27.8 
L 620.439547 -27.8 
L 619.171327 -27.8 
L 617.903106 -27.8 
L 616.634886 -27.8 
L 615.366666 -27.8 
L 614.098445 -27.8 
L 612.830225 -27.8 
L 611.562005 -27.8 
L 610.293785 -27.8 
L 609.025564 -27.8 
L 607.757344 -27.8 
L 606.489124 -27.8 
L 605.220903 -27.8 
L 603.952683 -27.8 
L 602.684463 -27.8 
L 601.416242 -27.8 
L 600.148022 -27.8 
L 598.879802 -27.8 
L 597.611581 -27.8 
L 596.343361 -27.8 
L 595.075141 -27.8 
L 593.80692 -27.8 
L 592.5387 -27.8 
L 591.27048 -27.8 
L 590.002259 -27.8 
L 588.734039 -27.8 
L 587.465819 -27.8 
L 586.197598 -27.8 
L 584.929378 -27.8 
L 583.661158 -27.8 
L 582.392938 -27.8 
L 581.124717 -27.8 
L 579.856497 -27.8 
L 578.588277 -27.8 
L 577.320056 -27.8 
L 576.051836 -27.8 
L 574.783616 -27.8 
L 573.515395 -27.8 
L 572.247175 -27.8 
L 570.978955 -27.8 
L 569.710734 -27.8 
L 568.442514 -27.8 
L 567.174294 -27.8 
L 565.906073 -27.8 
L 564.637853 -27.8 
L 563.369633 -27.8 
L 562.101412 -27.8 
L 560.833192 -27.8 
L 559.564972 -27.8 
L 558.296752 -27.8 
L 557.028531 -27.8 
L 555.760311 -27.8 
L 554.492091 -27.8 
L 553.22387 -27.8 
L 551.95565 -27.8 
L 550.68743 -27.8 
L 549.419209 -27.8 
L 548.150989 -27.8 
L 546.882769 -27.8 
L 545.614548 -27.8 
L 544.346328 -27.8 
L 543.078108 -27.8 
L 541.809887 -27.8 
L 540.541667 -27.8 
L 539.273447 -27.8 
L 538.005226 -27.8 
L 536.737006 -27.8 
L 535.468786 -27.8 
L 534.200566 -27.8 
L 532.932345 -27.8 
L 531.664125 -27.8 
L 530.395905 -27.8 
L 529.127684 -27.8 
L 527.859464 -27.8 
L 526.591244 -27.8 
L 525.323023 -27.8 
L 524.054803 -27.8 
L 522.786583 -27.8 
L 521.518362 -27.8 
L 520.250142 -27.8 
L 518.981922 -27.8 
L 517.713701 -27.8 
L 516.445481 -27.8 
L 515.177261 -27.8 
L 513.90904 -27.8 
L 512.64082 -27.8 
L 511.3726 -27.8 
L 510.10438 -27.8 
L 508.836159 -27.8 
L 507.567939 -27.8 
L 506.299719 -27.8 
L 505.031498 -27.8 
L 503.763278 -27.8 
L 502.495058 -27.8 
L 501.226837 -27.8 
L 499.958617 -27.8 
L 498.690397 -27.8 
L 497.422176 -27.8 
L 496.153956 -27.8 
L 494.885736 -27.8 
L 493.617515 -27.8 
L 492.349295 -27.8 
L 491.081075 -27.8 
L 489.812854 -27.8 
L 488.544634 -27.8 
L 487.276414 -27.8 
L 486.008194 -27.8 
L 484.739973 -27.8 
L 483.471753 -27.8 
L 482.203533 -27.8 
L 480.935312 -27.8 
L 479.667092 -27.8 
L 478.398872 -27.8 
L 477.130651 -27.8 
L 475.862431 -27.8 
L 474.594211 -27.8 
L 473.32599 -27.8 
L 472.05777 -27.8 
L 470.78955 -27.8 
L 469.521329 -27.8 
L 468.253109 -27.8 
L 466.984889 -27.8 
L 465.716668 -27.8 
L 464.448448 -27.8 
L 463.180228 -27.8 
L 461.912008 -27.8 
L 460.643787 -27.8 
L 459.375567 -27.8 
L 458.107347 -27.8 
L 456.839126 -27.8 
L 455.570906 -27.8 
L 454.302686 -27.8 
L 453.034465 -27.8 
L 451.766245 -27.8 
L 450.498025 -27.8 
L 449.229804 -27.8 
L 447.961584 -27.8 
L 446.693364 -27.8 
L 445.425143 -27.8 
L 444.156923 -27.8 
L 442.888703 -27.8 
L 441.620482 -27.8 
L 440.352262 -27.8 
L 439.084042 -27.8 
L 437.815822 -27.8 
L 436.547601 -27.8 
L 435.279381 -27.8 
L 434.011161 -27.8 
L 432.74294 -27.8 
L 431.47472 -27.8 
L 430.2065 -27.8 
L 428.938279 -27.8 
L 427.670059 -27.8 
L 426.401839 -27.8 
L 425.133618 -27.8 
L 423.865398 -27.8 
L 422.597178 -27.8 
L 421.328957 -27.8 
L 420.060737 -27.8 
L 418.792517 -27.8 
L 417.524296 -27.8 
L 416.256076 -27.8 
L 414.987856 -27.8 
L 413.719636 -27.8 
L 412.451415 -27.8 
L 411.183195 -27.8 
L 409.914975 -27.8 
L 408.646754 -27.8 
L 407.378534 -27.8 
L 406.110314 -27.8 
L 404.842093 -27.8 
L 403.573873 -27.8 
L 402.305653 -27.8 
L 401.037432 -27.8 
L 399.769212 -27.8 
L 398.500992 -27.8 
L 397.232771 -27.8 
L 395.964551 -27.8 
L 394.696331 -27.8 
L 393.42811 -27.8 
L 392.15989 -27.8 
L 390.89167 -27.8 
L 389.62345 -27.8 
L 388.355229 -27.8 
L 387.087009 -27.8 
L 385.818789 -27.8 
L 384.550568 -27.8 
L 383.282348 -27.8 
L 382.014128 -27.8 
L 380.745907 -27.8 
L 379.477687 -27.8 
L 378.209467 -27.8 
L 376.941246 -27.8 
L 375.673026 -27.8 
L 374.404806 -27.8 
L 373.136585 -27.8 
L 371.868365 -27.8 
L 370.600145 -27.8 
L 369.331924 -27.8 
L 368.063704 -27.8 
L 366.795484 -27.8 
L 365.527263 -27.8 
L 364.259043 -27.8 
L 362.990823 -27.8 
L 361.722603 -27.8 
L 360.454382 -27.8 
L 359.186162 -27.8 
L 357.917942 -27.8 
L 356.649721 -27.8 
L 355.381501 -27.8 
L 354.113281 -27.8 
L 352.84506 -27.8 
L 351.57684 -27.8 
L 350.30862 -27.8 
L 349.040399 -27.8 
L 347.772179 -27.8 
L 346.503959 -27.8 
L 345.235738 -27.8 
L 343.967518 -27.8 
L 342.699298 -27.8 
L 341.431077 -27.8 
L 340.162857 -27.8 
L 338.894637 -27.8 
L 337.626417 -27.8 
L 336.358196 -27.8 
L 335.089976 -27.8 
L 333.821756 -27.8 
L 332.553535 -27.8 
L 331.285315 -27.8 
L 330.017095 -27.8 
L 328.748874 -27.8 
L 327.480654 -27.8 
L 326.212434 -27.8 
L 324.944213 -27.8 
L 323.675993 -27.8 
L 322.407773 -27.8 
L 321.139552 -27.8 
L 319.871332 -27.8 
L 318.603112 -27.8 
L 317.334891 -27.8 
L 316.066671 -27.8 
L 314.798451 -27.8 
L 313.530231 -27.8 
L 312.26201 -27.8 
L 310.99379 -27.8 
L 309.72557 -27.8 
L 308.457349 -27.8 
L 307.189129 -27.8 
L 305.920909 -27.8 
L 304.652688 -27.8 
L 303.384468 -27.8 
L 302.116248 -27.8 
L 300.848027 -27.8 
L 299.579807 -27.8 
L 298.311587 -27.8 
L 297.043366 -27.8 
L 295.775146 -27.8 
L 294.506926 -27.8 
L 293.238705 -27.8 
L 291.970485 -27.8 
L 290.702265 -27.8 
L 289.434045 -27.8 
L 288.165824 -27.8 
L 286.897604 -27.8 
L 285.629384 -27.8 
L 284.361163 -27.8 
L 283.092943 -27.8 
L 281.824723 -27.8 
L 280.556502 -27.8 
L 279.288282 -27.8 
L 278.020062 -27.8 
L 276.751841 -27.8 
L 275.483621 -27.8 
L 274.215401 -27.8 
L 272.94718 -27.8 
L 271.67896 -27.8 
L 270.41074 -27.8 
L 269.142519 -27.8 
L 267.874299 -27.8 
L 266.606079 -27.8 
L 265.337859 -27.8 
L 264.069638 -27.8 
L 262.801418 -27.8 
L 261.533198 -27.8 
L 260.264977 -27.8 
L 258.996757 -27.8 
L 257.728537 -27.8 
L 256.460316 -27.8 
L 255.192096 -27.8 
L 253.923876 -27.8 
L 252.655655 -27.8 
L 251.387435 -27.8 
L 250.119215 -27.8 
L 248.850994 -27.8 
L 247.582774 -27.8 
L 246.314554 -27.8 
L 245.046333 -27.8 
L 243.778113 -27.8 
L 242.509893 -27.8 
L 241.241673 -27.8 
L 239.973452 -27.8 
L 238.705232 -27.8 
L 237.437012 -27.8 
L 236.168791 -27.8 
L 234.900571 -27.8 
L 233.632351 -27.8 
L 232.36413 -27.8 
L 231.09591 -27.8 
L 229.82769 -27.8 
L 228.559469 -27.8 
L 227.291249 -27.8 
L 226.023029 -27.8 
L 224.754808 -27.8 
L 223.486588 -27.8 
L 222.218368 -27.8 
L 220.950147 -27.8 
L 219.681927 -27.8 
L 218.413707 -27.8 
L 217.145487 -27.8 
L 215.877266 -27.8 
L 214.609046 -27.8 
L 213.340826 -27.8 
L 212.072605 -27.8 
L 210.804385 -27.8 
L 209.536165 -27.8 
L 208.267944 -27.8 
L 206.999724 -27.8 
L 205.731504 -27.8 
L 204.463283 -27.8 
L 203.195063 -27.8 
L 201.926843 -27.8 
L 200.658622 -27.8 
L 199.390402 -27.8 
L 198.122182 -27.8 
L 196.853961 -27.8 
L 195.585741 -27.8 
L 194.317521 -27.8 
L 193.049301 -27.8 
L 191.78108 -27.8 
L 190.51286 -27.8 
L 189.24464 -27.8 
L 187.976419 -27.8 
L 186.708199 -27.8 
L 185.439979 -27.8 
L 184.171758 -27.8 
L 182.903538 -27.8 
L 181.635318 -27.8 
L 180.367097 -27.8 
L 179.098877 -27.8 
L 177.830657 -27.8 
L 176.562436 -27.8 
L 175.294216 -27.8 
L 174.025996 -27.8 
L 172.757775 -27.8 
L 171.489555 -27.8 
L 170.221335 -27.8 
L 168.953115 -27.8 
L 167.684894 -27.8 
L 166.416674 -27.8 
L 165.148454 -27.8 
L 163.880233 -27.8 
L 162.612013 -27.8 
L 161.343793 -27.8 
L 160.075572 -27.8 
L 158.807352 -27.8 
L 157.539132 -27.8 
L 156.270911 -27.8 
L 155.002691 -27.8 
L 153.734471 -27.8 
L 152.46625 -27.8 
L 151.19803 -27.8 
L 149.92981 -27.8 
L 148.661589 -27.8 
L 147.393369 -27.8 
L 146.125149 -27.8 
L 144.856928 -27.8 
L 143.588708 -27.8 
z
" id="mf949f3e932" style="stroke:#acc2d9;stroke-opacity:0.6;"/>
    </defs>
    <g clip-path="url(#p66c39e3707)">
     <use style="fill:#acc2d9;fill-opacity:0.6;stroke:#acc2d9;stroke-opacity:0.6;" x="0" xlink:href="#mf949f3e932" y="288"/>
    </g>
   </g>
  </g>
  <g id="axes_3">
   <g id="PolyCollection_2">
    <defs>
     <path d="M 143.588708 -27.8 
L 143.588708 -72.048077 
L 144.856928 -72.996263 
L 146.125149 -73.954494 
L 147.393369 -74.922523 
L 148.661589 -75.900091 
L 149.92981 -76.886925 
L 151.19803 -77.882743 
L 152.46625 -78.887245 
L 153.734471 -79.900121 
L 155.002691 -80.92105 
L 156.270911 -81.949697 
L 157.539132 -82.985714 
L 158.807352 -84.028743 
L 160.075572 -85.078413 
L 161.343793 -86.134342 
L 162.612013 -87.196137 
L 163.880233 -88.263393 
L 165.148454 -89.335696 
L 166.416674 -90.412619 
L 167.684894 -91.493729 
L 168.953115 -92.578578 
L 170.221335 -93.666714 
L 171.489555 -94.757673 
L 172.757775 -95.850983 
L 174.025996 -96.946164 
L 175.294216 -98.04273 
L 176.562436 -99.140185 
L 177.830657 -100.23803 
L 179.098877 -101.335757 
L 180.367097 -102.432854 
L 181.635318 -103.528802 
L 182.903538 -104.623081 
L 184.171758 -105.715164 
L 185.439979 -106.804522 
L 186.708199 -107.890624 
L 187.976419 -108.972935 
L 189.24464 -110.05092 
L 190.51286 -111.124042 
L 191.78108 -112.191765 
L 193.049301 -113.253552 
L 194.317521 -114.308868 
L 195.585741 -115.357178 
L 196.853961 -116.397952 
L 198.122182 -117.43066 
L 199.390402 -118.454776 
L 200.658622 -119.46978 
L 201.926843 -120.475154 
L 203.195063 -121.470387 
L 204.463283 -122.454973 
L 205.731504 -123.428412 
L 206.999724 -124.390214 
L 208.267944 -125.339891 
L 209.536165 -126.276969 
L 210.804385 -127.20098 
L 212.072605 -128.111463 
L 213.340826 -129.007971 
L 214.609046 -129.890064 
L 215.877266 -130.757314 
L 217.145487 -131.609305 
L 218.413707 -132.445629 
L 219.681927 -133.265894 
L 220.950147 -134.069718 
L 222.218368 -134.856732 
L 223.486588 -135.62658 
L 224.754808 -136.378921 
L 226.023029 -137.113424 
L 227.291249 -137.829776 
L 228.559469 -138.527675 
L 229.82769 -139.206834 
L 231.09591 -139.866982 
L 232.36413 -140.507862 
L 233.632351 -141.129229 
L 234.900571 -141.730858 
L 236.168791 -142.312535 
L 237.437012 -142.874062 
L 238.705232 -143.415256 
L 239.973452 -143.93595 
L 241.241673 -144.435992 
L 242.509893 -144.915242 
L 243.778113 -145.37358 
L 245.046333 -145.810895 
L 246.314554 -146.227095 
L 247.582774 -146.622101 
L 248.850994 -146.995847 
L 250.119215 -147.348283 
L 251.387435 -147.679372 
L 252.655655 -147.98909 
L 253.923876 -148.277429 
L 255.192096 -148.544389 
L 256.460316 -148.789988 
L 257.728537 -149.014253 
L 258.996757 -149.217225 
L 260.264977 -149.398955 
L 261.533198 -149.559508 
L 262.801418 -149.698956 
L 264.069638 -149.817386 
L 265.337859 -149.914892 
L 266.606079 -149.991579 
L 267.874299 -150.047561 
L 269.142519 -150.082963 
L 270.41074 -150.097914 
L 271.67896 -150.092557 
L 272.94718 -150.067037 
L 274.215401 -150.02151 
L 275.483621 -149.956138 
L 276.751841 -149.871089 
L 278.020062 -149.766536 
L 279.288282 -149.64266 
L 280.556502 -149.499646 
L 281.824723 -149.337682 
L 283.092943 -149.156963 
L 284.361163 -148.957687 
L 285.629384 -148.740055 
L 286.897604 -148.504271 
L 288.165824 -148.250543 
L 289.434045 -147.979081 
L 290.702265 -147.690097 
L 291.970485 -147.383804 
L 293.238705 -147.060419 
L 294.506926 -146.720158 
L 295.775146 -146.363239 
L 297.043366 -145.989879 
L 298.311587 -145.600298 
L 299.579807 -145.194715 
L 300.848027 -144.773349 
L 302.116248 -144.336419 
L 303.384468 -143.884143 
L 304.652688 -143.41674 
L 305.920909 -142.934428 
L 307.189129 -142.437423 
L 308.457349 -141.925942 
L 309.72557 -141.400199 
L 310.99379 -140.860409 
L 312.26201 -140.306786 
L 313.530231 -139.739542 
L 314.798451 -139.158887 
L 316.066671 -138.565034 
L 317.334891 -137.95819 
L 318.603112 -137.338565 
L 319.871332 -136.706366 
L 321.139552 -136.0618 
L 322.407773 -135.405072 
L 323.675993 -134.736389 
L 324.944213 -134.055956 
L 326.212434 -133.363976 
L 327.480654 -132.660655 
L 328.748874 -131.946196 
L 330.017095 -131.220804 
L 331.285315 -130.484682 
L 332.553535 -129.738037 
L 333.821756 -128.981071 
L 335.089976 -128.213993 
L 336.358196 -127.437007 
L 337.626417 -126.650322 
L 338.894637 -125.854147 
L 340.162857 -125.048692 
L 341.431077 -124.234168 
L 342.699298 -123.410788 
L 343.967518 -122.578769 
L 345.235738 -121.738327 
L 346.503959 -120.889682 
L 347.772179 -120.033055 
L 349.040399 -119.168672 
L 350.30862 -118.296758 
L 351.57684 -117.417543 
L 352.84506 -116.531261 
L 354.113281 -115.638147 
L 355.381501 -114.738439 
L 356.649721 -113.832379 
L 357.917942 -112.920213 
L 359.186162 -112.002189 
L 360.454382 -111.07856 
L 361.722603 -110.14958 
L 362.990823 -109.215508 
L 364.259043 -108.276607 
L 365.527263 -107.333142 
L 366.795484 -106.385384 
L 368.063704 -105.433604 
L 369.331924 -104.478079 
L 370.600145 -103.519088 
L 371.868365 -102.556914 
L 373.136585 -101.591843 
L 374.404806 -100.624163 
L 375.673026 -99.654168 
L 376.941246 -98.682151 
L 378.209467 -97.708409 
L 379.477687 -96.733243 
L 380.745907 -95.756955 
L 382.014128 -94.779849 
L 383.282348 -93.80223 
L 384.550568 -92.824408 
L 385.818789 -91.84669 
L 387.087009 -90.869389 
L 388.355229 -89.892814 
L 389.62345 -88.917279 
L 390.89167 -87.943096 
L 392.15989 -86.970578 
L 393.42811 -86.000037 
L 394.696331 -85.031786 
L 395.964551 -84.066136 
L 397.232771 -83.103397 
L 398.500992 -82.14388 
L 399.769212 -81.187891 
L 401.037432 -80.235736 
L 402.305653 -79.287718 
L 403.573873 -78.344138 
L 404.842093 -77.405293 
L 406.110314 -76.471478 
L 407.378534 -75.542985 
L 408.646754 -74.620099 
L 409.914975 -73.703103 
L 411.183195 -72.792277 
L 412.451415 -71.887893 
L 413.719636 -70.99022 
L 414.987856 -70.099521 
L 416.256076 -69.216053 
L 417.524296 -68.340067 
L 418.792517 -67.471809 
L 420.060737 -66.611518 
L 421.328957 -65.759424 
L 422.597178 -64.915754 
L 423.865398 -64.080724 
L 425.133618 -63.254545 
L 426.401839 -62.437421 
L 427.670059 -61.629544 
L 428.938279 -60.831103 
L 430.2065 -60.042277 
L 431.47472 -59.263234 
L 432.74294 -58.494139 
L 434.011161 -57.735143 
L 435.279381 -56.986391 
L 436.547601 -56.24802 
L 437.815822 -55.520157 
L 439.084042 -54.802919 
L 440.352262 -54.096417 
L 441.620482 -53.400749 
L 442.888703 -52.716007 
L 444.156923 -52.042274 
L 445.425143 -51.379622 
L 446.693364 -50.728116 
L 447.961584 -50.087811 
L 449.229804 -49.458753 
L 450.498025 -48.840979 
L 451.766245 -48.234518 
L 453.034465 -47.63939 
L 454.302686 -47.055606 
L 455.570906 -46.48317 
L 456.839126 -45.922075 
L 458.107347 -45.372309 
L 459.375567 -44.83385 
L 460.643787 -44.306668 
L 461.912008 -43.790725 
L 463.180228 -43.285978 
L 464.448448 -42.792374 
L 465.716668 -42.309854 
L 466.984889 -41.838351 
L 468.253109 -41.377794 
L 469.521329 -40.928101 
L 470.78955 -40.489188 
L 472.05777 -40.060963 
L 473.32599 -39.643328 
L 474.594211 -39.236181 
L 475.862431 -38.839411 
L 477.130651 -38.452907 
L 478.398872 -38.076549 
L 479.667092 -37.710214 
L 480.935312 -37.353775 
L 482.203533 -37.0071 
L 483.471753 -36.670055 
L 484.739973 -36.342499 
L 486.008194 -36.02429 
L 487.276414 -35.715284 
L 488.544634 -35.415331 
L 489.812854 -35.124282 
L 491.081075 -34.841982 
L 492.349295 -34.568276 
L 493.617515 -34.303008 
L 494.885736 -34.046018 
L 496.153956 -33.797145 
L 497.422176 -33.556229 
L 498.690397 -33.323107 
L 499.958617 -33.097616 
L 501.226837 -32.879592 
L 502.495058 -32.668871 
L 503.763278 -32.465288 
L 505.031498 -32.26868 
L 506.299719 -32.078883 
L 507.567939 -31.895732 
L 508.836159 -31.719065 
L 510.10438 -31.54872 
L 511.3726 -31.384536 
L 512.64082 -31.226351 
L 513.90904 -31.074008 
L 515.177261 -30.927349 
L 516.445481 -30.786216 
L 517.713701 -30.650457 
L 518.981922 -30.519917 
L 520.250142 -30.394446 
L 521.518362 -30.273895 
L 522.786583 -30.158116 
L 524.054803 -30.046966 
L 525.323023 -29.9403 
L 526.591244 -29.837978 
L 527.859464 -29.739864 
L 529.127684 -29.645819 
L 530.395905 -29.555713 
L 531.664125 -29.469413 
L 532.932345 -29.386792 
L 534.200566 -29.307725 
L 535.468786 -29.232087 
L 536.737006 -29.15976 
L 538.005226 -29.090626 
L 539.273447 -29.02457 
L 540.541667 -28.961479 
L 541.809887 -28.901246 
L 543.078108 -28.843762 
L 544.346328 -28.788925 
L 545.614548 -28.736633 
L 546.882769 -28.686787 
L 548.150989 -28.639293 
L 549.419209 -28.594056 
L 550.68743 -28.550988 
L 551.95565 -28.509999 
L 553.22387 -28.471006 
L 554.492091 -28.433926 
L 555.760311 -28.398678 
L 557.028531 -28.365186 
L 558.296752 -28.333374 
L 559.564972 -28.303171 
L 560.833192 -28.274506 
L 562.101412 -28.247312 
L 563.369633 -28.221524 
L 564.637853 -28.197078 
L 565.906073 -28.173913 
L 567.174294 -28.151972 
L 568.442514 -28.131198 
L 569.710734 -28.111537 
L 570.978955 -28.092936 
L 572.247175 -28.075345 
L 573.515395 -28.058716 
L 574.783616 -28.043003 
L 576.051836 -28.02816 
L 577.320056 -28.014146 
L 578.588277 -28.000919 
L 579.856497 -27.98844 
L 581.124717 -27.976671 
L 582.392938 -27.965577 
L 583.661158 -27.955122 
L 584.929378 -27.945275 
L 586.197598 -27.936002 
L 587.465819 -27.927274 
L 588.734039 -27.919063 
L 590.002259 -27.911341 
L 591.27048 -27.904081 
L 592.5387 -27.897258 
L 593.80692 -27.89085 
L 595.075141 -27.884832 
L 596.343361 -27.879184 
L 597.611581 -27.873884 
L 598.879802 -27.868914 
L 600.148022 -27.864255 
L 601.416242 -27.859888 
L 602.684463 -27.855797 
L 603.952683 -27.851967 
L 605.220903 -27.848382 
L 606.489124 -27.845027 
L 607.757344 -27.841889 
L 609.025564 -27.838956 
L 610.293785 -27.836215 
L 611.562005 -27.833654 
L 612.830225 -27.831262 
L 614.098445 -27.82903 
L 615.366666 -27.826947 
L 616.634886 -27.825004 
L 617.903106 -27.823193 
L 619.171327 -27.821505 
L 620.439547 -27.819932 
L 621.707767 -27.818468 
L 622.975988 -27.817104 
L 624.244208 -27.815836 
L 625.512428 -27.814656 
L 626.780649 -27.813559 
L 628.048869 -27.812539 
L 629.317089 -27.811592 
L 630.58531 -27.810712 
L 631.85353 -27.809896 
L 633.12175 -27.809138 
L 634.389971 -27.808435 
L 635.658191 -27.807783 
L 636.926411 -27.807179 
L 638.194631 -27.80662 
L 639.462852 -27.806101 
L 640.731072 -27.805621 
L 641.999292 -27.805177 
L 643.267513 -27.804767 
L 644.535733 -27.804387 
L 645.803953 -27.804036 
L 647.072174 -27.803711 
L 648.340394 -27.803412 
L 649.608614 -27.803135 
L 650.876835 -27.80288 
L 652.145055 -27.802645 
L 653.413275 -27.802428 
L 654.681496 -27.802227 
L 655.949716 -27.802043 
L 657.217936 -27.801873 
L 658.486157 -27.801717 
L 659.754377 -27.801573 
L 661.022597 -27.801441 
L 662.290817 -27.801319 
L 663.559038 -27.801207 
L 664.827258 -27.801104 
L 666.095478 -27.80101 
L 667.363699 -27.800923 
L 668.631919 -27.800843 
L 669.900139 -27.80077 
L 671.16836 -27.800703 
L 672.43658 -27.800642 
L 673.7048 -27.800586 
L 674.973021 -27.800534 
L 676.241241 -27.800487 
L 677.509461 -27.800444 
L 678.777682 -27.800404 
L 680.045902 -27.800368 
L 681.314122 -27.800335 
L 682.582343 -27.800305 
L 683.850563 -27.800278 
L 685.118783 -27.800252 
L 686.387003 -27.800229 
L 687.655224 -27.800208 
L 688.923444 -27.800189 
L 690.191664 -27.800172 
L 691.459885 -27.800156 
L 692.728105 -27.800142 
L 693.996325 -27.800128 
L 695.264546 -27.800116 
L 696.532766 -27.800105 
L 697.800986 -27.800096 
L 699.069207 -27.800087 
L 700.337427 -27.800078 
L 701.605647 -27.800071 
L 702.873868 -27.800064 
L 704.142088 -27.800058 
L 705.410308 -27.800052 
L 706.678529 -27.800047 
L 707.946749 -27.800043 
L 709.214969 -27.800039 
L 710.483189 -27.800035 
L 711.75141 -27.800031 
L 713.01963 -27.800028 
L 714.28785 -27.800026 
L 715.556071 -27.800023 
L 716.824291 -27.800021 
L 718.092511 -27.800019 
L 719.360732 -27.800017 
L 720.628952 -27.800015 
L 721.897172 -27.800014 
L 723.165393 -27.800012 
L 724.433613 -27.800011 
L 725.701833 -27.80001 
L 726.970054 -27.800009 
L 728.238274 -27.800008 
L 729.506494 -27.800007 
L 730.774715 -27.800006 
L 732.042935 -27.800006 
L 733.311155 -27.800005 
L 734.579375 -27.800005 
L 735.847596 -27.800004 
L 737.115816 -27.800004 
L 738.384036 -27.800003 
L 739.652257 -27.800003 
L 740.920477 -27.800003 
L 742.188697 -27.800002 
L 743.456918 -27.800002 
L 744.725138 -27.800002 
L 745.993358 -27.800002 
L 747.261579 -27.800002 
L 748.529799 -27.800001 
L 749.798019 -27.800001 
L 751.06624 -27.800001 
L 752.33446 -27.800001 
L 753.60268 -27.800001 
L 754.870901 -27.800001 
L 756.139121 -27.800001 
L 757.407341 -27.800001 
L 758.675561 -27.800001 
L 759.943782 -27.8 
L 761.212002 -27.8 
L 762.480222 -27.8 
L 763.748443 -27.8 
L 765.016663 -27.8 
L 766.284883 -27.8 
L 767.553104 -27.8 
L 768.821324 -27.8 
L 770.089544 -27.8 
L 771.357765 -27.8 
L 772.625985 -27.8 
L 773.894205 -27.8 
L 775.162426 -27.8 
L 776.430646 -27.8 
L 776.430646 -27.8 
L 776.430646 -27.8 
L 775.162426 -27.8 
L 773.894205 -27.8 
L 772.625985 -27.8 
L 771.357765 -27.8 
L 770.089544 -27.8 
L 768.821324 -27.8 
L 767.553104 -27.8 
L 766.284883 -27.8 
L 765.016663 -27.8 
L 763.748443 -27.8 
L 762.480222 -27.8 
L 761.212002 -27.8 
L 759.943782 -27.8 
L 758.675561 -27.8 
L 757.407341 -27.8 
L 756.139121 -27.8 
L 754.870901 -27.8 
L 753.60268 -27.8 
L 752.33446 -27.8 
L 751.06624 -27.8 
L 749.798019 -27.8 
L 748.529799 -27.8 
L 747.261579 -27.8 
L 745.993358 -27.8 
L 744.725138 -27.8 
L 743.456918 -27.8 
L 742.188697 -27.8 
L 740.920477 -27.8 
L 739.652257 -27.8 
L 738.384036 -27.8 
L 737.115816 -27.8 
L 735.847596 -27.8 
L 734.579375 -27.8 
L 733.311155 -27.8 
L 732.042935 -27.8 
L 730.774715 -27.8 
L 729.506494 -27.8 
L 728.238274 -27.8 
L 726.970054 -27.8 
L 725.701833 -27.8 
L 724.433613 -27.8 
L 723.165393 -27.8 
L 721.897172 -27.8 
L 720.628952 -27.8 
L 719.360732 -27.8 
L 718.092511 -27.8 
L 716.824291 -27.8 
L 715.556071 -27.8 
L 714.28785 -27.8 
L 713.01963 -27.8 
L 711.75141 -27.8 
L 710.483189 -27.8 
L 709.214969 -27.8 
L 707.946749 -27.8 
L 706.678529 -27.8 
L 705.410308 -27.8 
L 704.142088 -27.8 
L 702.873868 -27.8 
L 701.605647 -27.8 
L 700.337427 -27.8 
L 699.069207 -27.8 
L 697.800986 -27.8 
L 696.532766 -27.8 
L 695.264546 -27.8 
L 693.996325 -27.8 
L 692.728105 -27.8 
L 691.459885 -27.8 
L 690.191664 -27.8 
L 688.923444 -27.8 
L 687.655224 -27.8 
L 686.387003 -27.8 
L 685.118783 -27.8 
L 683.850563 -27.8 
L 682.582343 -27.8 
L 681.314122 -27.8 
L 680.045902 -27.8 
L 678.777682 -27.8 
L 677.509461 -27.8 
L 676.241241 -27.8 
L 674.973021 -27.8 
L 673.7048 -27.8 
L 672.43658 -27.8 
L 671.16836 -27.8 
L 669.900139 -27.8 
L 668.631919 -27.8 
L 667.363699 -27.8 
L 666.095478 -27.8 
L 664.827258 -27.8 
L 663.559038 -27.8 
L 662.290817 -27.8 
L 661.022597 -27.8 
L 659.754377 -27.8 
L 658.486157 -27.8 
L 657.217936 -27.8 
L 655.949716 -27.8 
L 654.681496 -27.8 
L 653.413275 -27.8 
L 652.145055 -27.8 
L 650.876835 -27.8 
L 649.608614 -27.8 
L 648.340394 -27.8 
L 647.072174 -27.8 
L 645.803953 -27.8 
L 644.535733 -27.8 
L 643.267513 -27.8 
L 641.999292 -27.8 
L 640.731072 -27.8 
L 639.462852 -27.8 
L 638.194631 -27.8 
L 636.926411 -27.8 
L 635.658191 -27.8 
L 634.389971 -27.8 
L 633.12175 -27.8 
L 631.85353 -27.8 
L 630.58531 -27.8 
L 629.317089 -27.8 
L 628.048869 -27.8 
L 626.780649 -27.8 
L 625.512428 -27.8 
L 624.244208 -27.8 
L 622.975988 -27.8 
L 621.707767 -27.8 
L 620.439547 -27.8 
L 619.171327 -27.8 
L 617.903106 -27.8 
L 616.634886 -27.8 
L 615.366666 -27.8 
L 614.098445 -27.8 
L 612.830225 -27.8 
L 611.562005 -27.8 
L 610.293785 -27.8 
L 609.025564 -27.8 
L 607.757344 -27.8 
L 606.489124 -27.8 
L 605.220903 -27.8 
L 603.952683 -27.8 
L 602.684463 -27.8 
L 601.416242 -27.8 
L 600.148022 -27.8 
L 598.879802 -27.8 
L 597.611581 -27.8 
L 596.343361 -27.8 
L 595.075141 -27.8 
L 593.80692 -27.8 
L 592.5387 -27.8 
L 591.27048 -27.8 
L 590.002259 -27.8 
L 588.734039 -27.8 
L 587.465819 -27.8 
L 586.197598 -27.8 
L 584.929378 -27.8 
L 583.661158 -27.8 
L 582.392938 -27.8 
L 581.124717 -27.8 
L 579.856497 -27.8 
L 578.588277 -27.8 
L 577.320056 -27.8 
L 576.051836 -27.8 
L 574.783616 -27.8 
L 573.515395 -27.8 
L 572.247175 -27.8 
L 570.978955 -27.8 
L 569.710734 -27.8 
L 568.442514 -27.8 
L 567.174294 -27.8 
L 565.906073 -27.8 
L 564.637853 -27.8 
L 563.369633 -27.8 
L 562.101412 -27.8 
L 560.833192 -27.8 
L 559.564972 -27.8 
L 558.296752 -27.8 
L 557.028531 -27.8 
L 555.760311 -27.8 
L 554.492091 -27.8 
L 553.22387 -27.8 
L 551.95565 -27.8 
L 550.68743 -27.8 
L 549.419209 -27.8 
L 548.150989 -27.8 
L 546.882769 -27.8 
L 545.614548 -27.8 
L 544.346328 -27.8 
L 543.078108 -27.8 
L 541.809887 -27.8 
L 540.541667 -27.8 
L 539.273447 -27.8 
L 538.005226 -27.8 
L 536.737006 -27.8 
L 535.468786 -27.8 
L 534.200566 -27.8 
L 532.932345 -27.8 
L 531.664125 -27.8 
L 530.395905 -27.8 
L 529.127684 -27.8 
L 527.859464 -27.8 
L 526.591244 -27.8 
L 525.323023 -27.8 
L 524.054803 -27.8 
L 522.786583 -27.8 
L 521.518362 -27.8 
L 520.250142 -27.8 
L 518.981922 -27.8 
L 517.713701 -27.8 
L 516.445481 -27.8 
L 515.177261 -27.8 
L 513.90904 -27.8 
L 512.64082 -27.8 
L 511.3726 -27.8 
L 510.10438 -27.8 
L 508.836159 -27.8 
L 507.567939 -27.8 
L 506.299719 -27.8 
L 505.031498 -27.8 
L 503.763278 -27.8 
L 502.495058 -27.8 
L 501.226837 -27.8 
L 499.958617 -27.8 
L 498.690397 -27.8 
L 497.422176 -27.8 
L 496.153956 -27.8 
L 494.885736 -27.8 
L 493.617515 -27.8 
L 492.349295 -27.8 
L 491.081075 -27.8 
L 489.812854 -27.8 
L 488.544634 -27.8 
L 487.276414 -27.8 
L 486.008194 -27.8 
L 484.739973 -27.8 
L 483.471753 -27.8 
L 482.203533 -27.8 
L 480.935312 -27.8 
L 479.667092 -27.8 
L 478.398872 -27.8 
L 477.130651 -27.8 
L 475.862431 -27.8 
L 474.594211 -27.8 
L 473.32599 -27.8 
L 472.05777 -27.8 
L 470.78955 -27.8 
L 469.521329 -27.8 
L 468.253109 -27.8 
L 466.984889 -27.8 
L 465.716668 -27.8 
L 464.448448 -27.8 
L 463.180228 -27.8 
L 461.912008 -27.8 
L 460.643787 -27.8 
L 459.375567 -27.8 
L 458.107347 -27.8 
L 456.839126 -27.8 
L 455.570906 -27.8 
L 454.302686 -27.8 
L 453.034465 -27.8 
L 451.766245 -27.8 
L 450.498025 -27.8 
L 449.229804 -27.8 
L 447.961584 -27.8 
L 446.693364 -27.8 
L 445.425143 -27.8 
L 444.156923 -27.8 
L 442.888703 -27.8 
L 441.620482 -27.8 
L 440.352262 -27.8 
L 439.084042 -27.8 
L 437.815822 -27.8 
L 436.547601 -27.8 
L 435.279381 -27.8 
L 434.011161 -27.8 
L 432.74294 -27.8 
L 431.47472 -27.8 
L 430.2065 -27.8 
L 428.938279 -27.8 
L 427.670059 -27.8 
L 426.401839 -27.8 
L 425.133618 -27.8 
L 423.865398 -27.8 
L 422.597178 -27.8 
L 421.328957 -27.8 
L 420.060737 -27.8 
L 418.792517 -27.8 
L 417.524296 -27.8 
L 416.256076 -27.8 
L 414.987856 -27.8 
L 413.719636 -27.8 
L 412.451415 -27.8 
L 411.183195 -27.8 
L 409.914975 -27.8 
L 408.646754 -27.8 
L 407.378534 -27.8 
L 406.110314 -27.8 
L 404.842093 -27.8 
L 403.573873 -27.8 
L 402.305653 -27.8 
L 401.037432 -27.8 
L 399.769212 -27.8 
L 398.500992 -27.8 
L 397.232771 -27.8 
L 395.964551 -27.8 
L 394.696331 -27.8 
L 393.42811 -27.8 
L 392.15989 -27.8 
L 390.89167 -27.8 
L 389.62345 -27.8 
L 388.355229 -27.8 
L 387.087009 -27.8 
L 385.818789 -27.8 
L 384.550568 -27.8 
L 383.282348 -27.8 
L 382.014128 -27.8 
L 380.745907 -27.8 
L 379.477687 -27.8 
L 378.209467 -27.8 
L 376.941246 -27.8 
L 375.673026 -27.8 
L 374.404806 -27.8 
L 373.136585 -27.8 
L 371.868365 -27.8 
L 370.600145 -27.8 
L 369.331924 -27.8 
L 368.063704 -27.8 
L 366.795484 -27.8 
L 365.527263 -27.8 
L 364.259043 -27.8 
L 362.990823 -27.8 
L 361.722603 -27.8 
L 360.454382 -27.8 
L 359.186162 -27.8 
L 357.917942 -27.8 
L 356.649721 -27.8 
L 355.381501 -27.8 
L 354.113281 -27.8 
L 352.84506 -27.8 
L 351.57684 -27.8 
L 350.30862 -27.8 
L 349.040399 -27.8 
L 347.772179 -27.8 
L 346.503959 -27.8 
L 345.235738 -27.8 
L 343.967518 -27.8 
L 342.699298 -27.8 
L 341.431077 -27.8 
L 340.162857 -27.8 
L 338.894637 -27.8 
L 337.626417 -27.8 
L 336.358196 -27.8 
L 335.089976 -27.8 
L 333.821756 -27.8 
L 332.553535 -27.8 
L 331.285315 -27.8 
L 330.017095 -27.8 
L 328.748874 -27.8 
L 327.480654 -27.8 
L 326.212434 -27.8 
L 324.944213 -27.8 
L 323.675993 -27.8 
L 322.407773 -27.8 
L 321.139552 -27.8 
L 319.871332 -27.8 
L 318.603112 -27.8 
L 317.334891 -27.8 
L 316.066671 -27.8 
L 314.798451 -27.8 
L 313.530231 -27.8 
L 312.26201 -27.8 
L 310.99379 -27.8 
L 309.72557 -27.8 
L 308.457349 -27.8 
L 307.189129 -27.8 
L 305.920909 -27.8 
L 304.652688 -27.8 
L 303.384468 -27.8 
L 302.116248 -27.8 
L 300.848027 -27.8 
L 299.579807 -27.8 
L 298.311587 -27.8 
L 297.043366 -27.8 
L 295.775146 -27.8 
L 294.506926 -27.8 
L 293.238705 -27.8 
L 291.970485 -27.8 
L 290.702265 -27.8 
L 289.434045 -27.8 
L 288.165824 -27.8 
L 286.897604 -27.8 
L 285.629384 -27.8 
L 284.361163 -27.8 
L 283.092943 -27.8 
L 281.824723 -27.8 
L 280.556502 -27.8 
L 279.288282 -27.8 
L 278.020062 -27.8 
L 276.751841 -27.8 
L 275.483621 -27.8 
L 274.215401 -27.8 
L 272.94718 -27.8 
L 271.67896 -27.8 
L 270.41074 -27.8 
L 269.142519 -27.8 
L 267.874299 -27.8 
L 266.606079 -27.8 
L 265.337859 -27.8 
L 264.069638 -27.8 
L 262.801418 -27.8 
L 261.533198 -27.8 
L 260.264977 -27.8 
L 258.996757 -27.8 
L 257.728537 -27.8 
L 256.460316 -27.8 
L 255.192096 -27.8 
L 253.923876 -27.8 
L 252.655655 -27.8 
L 251.387435 -27.8 
L 250.119215 -27.8 
L 248.850994 -27.8 
L 247.582774 -27.8 
L 246.314554 -27.8 
L 245.046333 -27.8 
L 243.778113 -27.8 
L 242.509893 -27.8 
L 241.241673 -27.8 
L 239.973452 -27.8 
L 238.705232 -27.8 
L 237.437012 -27.8 
L 236.168791 -27.8 
L 234.900571 -27.8 
L 233.632351 -27.8 
L 232.36413 -27.8 
L 231.09591 -27.8 
L 229.82769 -27.8 
L 228.559469 -27.8 
L 227.291249 -27.8 
L 226.023029 -27.8 
L 224.754808 -27.8 
L 223.486588 -27.8 
L 222.218368 -27.8 
L 220.950147 -27.8 
L 219.681927 -27.8 
L 218.413707 -27.8 
L 217.145487 -27.8 
L 215.877266 -27.8 
L 214.609046 -27.8 
L 213.340826 -27.8 
L 212.072605 -27.8 
L 210.804385 -27.8 
L 209.536165 -27.8 
L 208.267944 -27.8 
L 206.999724 -27.8 
L 205.731504 -27.8 
L 204.463283 -27.8 
L 203.195063 -27.8 
L 201.926843 -27.8 
L 200.658622 -27.8 
L 199.390402 -27.8 
L 198.122182 -27.8 
L 196.853961 -27.8 
L 195.585741 -27.8 
L 194.317521 -27.8 
L 193.049301 -27.8 
L 191.78108 -27.8 
L 190.51286 -27.8 
L 189.24464 -27.8 
L 187.976419 -27.8 
L 186.708199 -27.8 
L 185.439979 -27.8 
L 184.171758 -27.8 
L 182.903538 -27.8 
L 181.635318 -27.8 
L 180.367097 -27.8 
L 179.098877 -27.8 
L 177.830657 -27.8 
L 176.562436 -27.8 
L 175.294216 -27.8 
L 174.025996 -27.8 
L 172.757775 -27.8 
L 171.489555 -27.8 
L 170.221335 -27.8 
L 168.953115 -27.8 
L 167.684894 -27.8 
L 166.416674 -27.8 
L 165.148454 -27.8 
L 163.880233 -27.8 
L 162.612013 -27.8 
L 161.343793 -27.8 
L 160.075572 -27.8 
L 158.807352 -27.8 
L 157.539132 -27.8 
L 156.270911 -27.8 
L 155.002691 -27.8 
L 153.734471 -27.8 
L 152.46625 -27.8 
L 151.19803 -27.8 
L 149.92981 -27.8 
L 148.661589 -27.8 
L 147.393369 -27.8 
L 146.125149 -27.8 
L 144.856928 -27.8 
L 143.588708 -27.8 
z
" id="m43ecdd72b9" style="stroke:#e50000;stroke-opacity:0.4;"/>
    </defs>
    <g clip-path="url(#p66c39e3707)">
     <use style="fill:#e50000;fill-opacity:0.4;stroke:#e50000;stroke-opacity:0.4;" x="0" xlink:href="#m43ecdd72b9" y="288"/>
    </g>
   </g>
  </g>
  <g id="axes_4">
   <g id="line2d_7">
    <path clip-path="url(#p66c39e3707)" d="M 348.35973 260.2 
L 348.35973 14.81763 
" style="fill:none;stroke:#0343df;stroke-linecap:square;stroke-width:1.5;"/>
   </g>
   <g id="line2d_8">
    <path clip-path="url(#p66c39e3707)" d="M 327.088737 260.2 
L 327.088737 14.81763 
" style="fill:none;stroke:#0343df;stroke-linecap:square;stroke-width:1.5;"/>
   </g>
   <g id="patch_4">
    <path d="M 409.810212 117.386216 
Q 385.041263 116.413163 360.272313 115.440109 
L 360.115294 119.437026 
Q 354.237512 116.203802 348.35973 112.970578 
Q 354.473041 110.208427 360.586353 107.446276 
L 360.429333 111.443192 
Q 385.198283 112.416246 409.967232 113.3893 
L 409.810212 117.386216 
z
" style="fill:#88c9c1;"/>
   </g>
   <g id="text_8">
    <!-- $\bar{x}$ -->
    <defs>
     <path d="M -39.34375 74.515625 
L -10.15625 74.515625 
L -10.15625 67.28125 
L -39.34375 67.28125 
z
" id="DejaVuSans-304"/>
     <path d="M 60.015625 54.6875 
L 34.90625 27.875 
L 50.296875 0 
L 39.984375 0 
L 28.421875 21.6875 
L 8.296875 0 
L -2.59375 0 
L 24.3125 28.8125 
L 10.015625 54.6875 
L 20.3125 54.6875 
L 30.8125 34.90625 
L 49.125 54.6875 
z
" id="DejaVuSans-Oblique-78"/>
    </defs>
    <g style="fill:#d3d3d3;" transform="translate(411.885535 112.970578)scale(0.12 -0.12)">
     <use transform="translate(62.138672 0.484375)" xlink:href="#DejaVuSans-304"/>
     <use transform="translate(0 0.578125)" xlink:href="#DejaVuSans-Oblique-78"/>
    </g>
   </g>
   <g id="patch_5">
    <path d="M 452.104257 84.708946 
Q 395.574283 83.598549 339.044309 82.488153 
L 338.965754 86.487382 
Q 333.027246 83.370155 327.088737 80.252929 
Q 333.145079 77.371313 339.20142 74.489696 
L 339.122864 78.488925 
Q 395.652839 79.599321 452.182813 80.709717 
L 452.104257 84.708946 
z
" style="fill:#88c9c1;"/>
   </g>
   <g id="text_9">
    <!-- $\tilde{x}$ -->
    <defs>
     <path d="M -25.328125 66.890625 
L -28.109375 69.578125 
Q -29.171875 70.5625 -29.984375 71.015625 
Q -30.796875 71.484375 -31.421875 71.484375 
Q -33.28125 71.484375 -34.15625 69.703125 
Q -35.03125 67.921875 -35.140625 63.921875 
L -41.234375 63.921875 
Q -41.140625 70.515625 -38.640625 74.09375 
Q -36.15625 77.6875 -31.71875 77.6875 
Q -29.859375 77.6875 -28.296875 77 
Q -26.734375 76.3125 -24.9375 74.703125 
L -22.140625 72.015625 
Q -21.078125 71.046875 -20.265625 70.578125 
Q -19.46875 70.125 -18.828125 70.125 
Q -16.96875 70.125 -16.09375 71.90625 
Q -15.21875 73.6875 -15.109375 77.6875 
L -9.015625 77.6875 
Q -9.109375 71.09375 -11.59375 67.5 
Q -14.09375 63.921875 -18.53125 63.921875 
Q -20.390625 63.921875 -21.953125 64.59375 
Q -23.515625 65.28125 -25.328125 66.890625 
z
" id="DejaVuSans-303"/>
    </defs>
    <g style="fill:#d3d3d3;" transform="translate(454.140348 80.252929)scale(0.12 -0.12)">
     <use transform="translate(62.029297 3.3125)" xlink:href="#DejaVuSans-303"/>
     <use transform="translate(0 0.046875)" xlink:href="#DejaVuSans-Oblique-78"/>
    </g>
   </g>
  </g>
  <g id="axes_5">
   <g id="line2d_9">
    <path clip-path="url(#p66c39e3707)" d="M 276.360422 260.2 
L 276.360422 14.81763 
" style="fill:none;stroke:#c44240;stroke-linecap:square;stroke-width:1.5;"/>
   </g>
   <g id="line2d_10">
    <path clip-path="url(#p66c39e3707)" d="M 279.245696 260.2 
L 279.245696 14.81763 
" style="fill:none;stroke:#c44240;stroke-linecap:square;stroke-width:1.5;"/>
   </g>
   <g id="patch_6">
    <path d="M 199.120005 113.404288 
Q 231.709842 112.37702 264.299678 111.349753 
L 264.173657 107.351738 
Q 270.267039 110.161158 276.360422 112.970578 
Q 270.456072 116.15818 264.551722 119.345781 
L 264.4257 115.347767 
Q 231.835864 116.375034 199.246027 117.402302 
L 199.120005 113.404288 
z
" style="fill:#e04b4b;"/>
   </g>
   <g id="text_10">
    <!-- $\bar{x}$ truncated -->
    <defs>
     <path d="M 18.3125 70.21875 
L 18.3125 54.6875 
L 36.8125 54.6875 
L 36.8125 47.703125 
L 18.3125 47.703125 
L 18.3125 18.015625 
Q 18.3125 11.328125 20.140625 9.421875 
Q 21.96875 7.515625 27.59375 7.515625 
L 36.8125 7.515625 
L 36.8125 0 
L 27.59375 0 
Q 17.1875 0 13.234375 3.875 
Q 9.28125 7.765625 9.28125 18.015625 
L 9.28125 47.703125 
L 2.6875 47.703125 
L 2.6875 54.6875 
L 9.28125 54.6875 
L 9.28125 70.21875 
z
" id="DejaVuSans-74"/>
     <path d="M 54.890625 33.015625 
L 54.890625 0 
L 45.90625 0 
L 45.90625 32.71875 
Q 45.90625 40.484375 42.875 44.328125 
Q 39.84375 48.1875 33.796875 48.1875 
Q 26.515625 48.1875 22.3125 43.546875 
Q 18.109375 38.921875 18.109375 30.90625 
L 18.109375 0 
L 9.078125 0 
L 9.078125 54.6875 
L 18.109375 54.6875 
L 18.109375 46.1875 
Q 21.34375 51.125 25.703125 53.5625 
Q 30.078125 56 35.796875 56 
Q 45.21875 56 50.046875 50.171875 
Q 54.890625 44.34375 54.890625 33.015625 
z
" id="DejaVuSans-6e"/>
     <path d="M 48.78125 52.59375 
L 48.78125 44.1875 
Q 44.96875 46.296875 41.140625 47.34375 
Q 37.3125 48.390625 33.40625 48.390625 
Q 24.65625 48.390625 19.8125 42.84375 
Q 14.984375 37.3125 14.984375 27.296875 
Q 14.984375 17.28125 19.8125 11.734375 
Q 24.65625 6.203125 33.40625 6.203125 
Q 37.3125 6.203125 41.140625 7.25 
Q 44.96875 8.296875 48.78125 10.40625 
L 48.78125 2.09375 
Q 45.015625 0.34375 40.984375 -0.53125 
Q 36.96875 -1.421875 32.421875 -1.421875 
Q 20.0625 -1.421875 12.78125 6.34375 
Q 5.515625 14.109375 5.515625 27.296875 
Q 5.515625 40.671875 12.859375 48.328125 
Q 20.21875 56 33.015625 56 
Q 37.15625 56 41.109375 55.140625 
Q 45.0625 54.296875 48.78125 52.59375 
z
" id="DejaVuSans-63"/>
    </defs>
    <g style="fill:#d3d3d3;" transform="translate(127.707257 112.970578)scale(0.12 -0.12)">
     <use transform="translate(62.138672 -0.078125)" xlink:href="#DejaVuSans-304"/>
     <use transform="translate(0 0.015625)" xlink:href="#DejaVuSans-Oblique-78"/>
     <use transform="translate(59.179688 0.015625)" xlink:href="#DejaVuSans-20"/>
     <use transform="translate(90.966797 0.015625)" xlink:href="#DejaVuSans-74"/>
     <use transform="translate(130.175781 0.015625)" xlink:href="#DejaVuSans-72"/>
     <use transform="translate(171.289062 0.015625)" xlink:href="#DejaVuSans-75"/>
     <use transform="translate(234.667969 0.015625)" xlink:href="#DejaVuSans-6e"/>
     <use transform="translate(298.046875 0.015625)" xlink:href="#DejaVuSans-63"/>
     <use transform="translate(353.027344 0.015625)" xlink:href="#DejaVuSans-61"/>
     <use transform="translate(414.306641 0.015625)" xlink:href="#DejaVuSans-74"/>
     <use transform="translate(453.515625 0.015625)" xlink:href="#DejaVuSans-65"/>
     <use transform="translate(515.039062 0.015625)" xlink:href="#DejaVuSans-64"/>
    </g>
   </g>
   <g id="patch_7">
    <path d="M 199.127335 80.688626 
Q 233.158152 79.653654 267.188968 78.618683 
L 267.067373 74.620531 
Q 273.156535 77.43673 279.245696 80.252929 
Q 273.338927 83.433957 267.432158 86.614986 
L 267.310563 82.616834 
Q 233.279747 83.651806 199.24893 84.686777 
L 199.127335 80.688626 
z
" style="fill:#e04b4b;"/>
   </g>
   <g id="text_11">
    <!-- $\tilde{x}$ truncated -->
    <g style="fill:#d3d3d3;" transform="translate(127.707257 80.252929)scale(0.12 -0.12)">
     <use transform="translate(62.029297 3.3125)" xlink:href="#DejaVuSans-303"/>
     <use transform="translate(0 0.046875)" xlink:href="#DejaVuSans-Oblique-78"/>
     <use transform="translate(59.179688 0.046875)" xlink:href="#DejaVuSans-20"/>
     <use transform="translate(90.966797 0.046875)" xlink:href="#DejaVuSans-74"/>
     <use transform="translate(130.175781 0.046875)" xlink:href="#DejaVuSans-72"/>
     <use transform="translate(171.289062 0.046875)" xlink:href="#DejaVuSans-75"/>
     <use transform="translate(234.667969 0.046875)" xlink:href="#DejaVuSans-6e"/>
     <use transform="translate(298.046875 0.046875)" xlink:href="#DejaVuSans-63"/>
     <use transform="translate(353.027344 0.046875)" xlink:href="#DejaVuSans-61"/>
     <use transform="translate(414.306641 0.046875)" xlink:href="#DejaVuSans-74"/>
     <use transform="translate(453.515625 0.046875)" xlink:href="#DejaVuSans-65"/>
     <use transform="translate(515.039062 0.046875)" xlink:href="#DejaVuSans-64"/>
    </g>
   </g>
  </g>
 </g>
 <defs>
  <clipPath id="p66c39e3707">
   <rect height="245.38237" width="775.775" x="48.3" y="14.81763"/>
  </clipPath>
 </defs>
</svg>
