<?xml version="1.0" encoding="utf-8"?>
<!-- Generator: Adobe Illustrator 21.0.2, SVG Export Plug-In . SVG Version: 6.00 Build 0)  -->
<svg version="1.1" xmlns="http://www.w3.org/2000/svg" xmlns:xlink="http://www.w3.org/1999/xlink" x="0px" y="0px"
	 viewBox="0 0 900 860" style="enable-background:new 0 0 900 860;" xml:space="preserve">
<style type="text/css">
	.st0{fill:#FFFFFF;}
	.st1{font-family:'Trirong-Regular';}
	.st2{font-size:61.69988px;}
	.st3{fill:#F0AD4E;}
	.st4{fill:#5BC0DE;}
	.st5{font-family:'Rubik-Italic';}
	.st6{font-size:36px;}
</style>
<g id="textLayer">
	<text id="statsout" transform="matrix(1 0 0 1 39.18994 794.54474)" class="st0 st1 st2">to make effective decisions.</text>
	<text id="statsIs" transform="matrix(1 0 0 1 0.00146 133.50879)" class="st0 st1 st2">Statistics is the Science of Data</text>
</g>
<g id="p5">
	<path class="st3" d="M354.8107,698.94318h-252.623c-7.80367,0-14.1885-6.38483-14.1885-14.18848v-54.62299
		c0-7.80371,6.38483-14.18854,14.1885-14.18854h252.623c7.80368,0,14.18851,6.38483,14.18851,14.18854v54.62299
		C368.99921,692.55835,362.61438,698.94318,354.8107,698.94318z"/>
	<g>
		<path class="st4" d="M390,656.47803c22.01218-0.82495,44.02438-1.4187,66.03656-2.09888l16.50912-0.49811l16.50916-0.3902
			l33.01828-0.77899c22.01215-0.51996,44.02435-0.99078,66.03656-1.73853c11.00604-0.40521,22.01215-0.65466,33.01825-0.59692
			c2.75153,0.01001,5.50305,0.00867,8.25458,0.08167l2.04169,0.03864c0.58618,0.00311,1.17328,0.01459,1.75983-0.00891
			c1.17383-0.02539,2.34741-0.11115,3.51514-0.25366c4.68372-0.47528,9.31805-1.81219,13.58521-3.97119l-2.96704,4.27643
			l19.93237-125.04755l20.1958-125.00729l20.56085-124.95151c6.8905-41.64487,13.90228-83.27121,21.02112-124.8812l1.2851,0.19635
			c-5.63086,41.83733-11.36865,83.65831-17.22784,125.46075l-17.68799,125.39044l-18.0531,125.33469l-18.31659,125.29443
			l-0.40009,2.73688l-2.56708,1.53979c-5.34442,3.20569-11.3147,5.4425-17.52808,6.51135
			c-1.55505,0.25281-3.12372,0.43134-4.69843,0.53131c-0.78699,0.06067-1.57593,0.08185-2.3653,0.10675l-2.08557,0.0434
			c-2.75153,0.07294-5.50305,0.07166-8.25458,0.08167c-11.0061,0.05774-22.01221-0.19171-33.01825-0.59698
			c-22.01221-0.74774-44.02441-1.21857-66.03656-1.73846l-33.01828-0.77905l-16.50916-0.3902l-16.50912-0.49811
			c-22.01218-0.68011-44.02438-1.27393-66.03656-2.09882V656.47803z"/>
	</g>
	<text transform="matrix(1 0 0 1 147.98026 665.31543)" class="st5 st6">interpreting</text>
</g>
<g id="p4">
	<path class="st3" d="M354.8107,593.94318h-252.623c-7.80367,0-14.1885-6.38483-14.1885-14.18848v-54.62299
		c0-7.80371,6.38483-14.18851,14.1885-14.18851h252.623c7.80368,0,14.18851,6.3848,14.18851,14.18851v54.62299
		C368.99921,587.55835,362.61438,593.94318,354.8107,593.94318z"/>
	<g>
		<path class="st4" d="M390,551.44598c21.17819-0.82489,42.35635-1.4187,63.53455-2.09882l15.88364-0.49811l15.88364-0.3902
			l31.76727-0.77905c21.17822-0.5199,42.35638-0.99072,63.53455-1.73846c10.58911-0.40527,21.17822-0.65472,31.76727-0.59698
			c2.64728,0.01001,5.29456,0.00873,7.94183,0.08167l1.83636,0.02655c0.56433,0.00952,1.1283-0.01794,1.69299-0.03162
			c1.12817-0.05347,2.2558-0.14844,3.37842-0.29486c4.50006-0.51849,8.94501-1.82758,13.05585-3.89514l-2.89862,3.90741
			l22.50342-99.22412l22.76373-99.16727c7.69916-33.03149,15.31671-66.08075,23.12463-99.08849
			c7.74463-33.02155,15.60913-66.01689,23.57941-98.98917l1.27008,0.27734c-6.49963,33.2934-13.1051,66.56369-19.83044,99.8078
			c-6.66205,33.25792-13.51447,66.47429-20.28528,99.70848l-20.64612,99.6297l-20.90649,99.57281l-0.52057,2.47925l-2.37823,1.42847
			c-5.14014,3.08734-10.85785,5.28442-16.81934,6.40851c-1.49353,0.25977-2.99933,0.45203-4.51178,0.58594
			c-0.75677,0.05389-1.51447,0.11737-2.27368,0.13959l-2.13434,0.05872c-2.64728,0.073-5.29456,0.07166-7.94183,0.08167
			c-10.58905,0.05774-21.17816-0.19171-31.76727-0.59692c-21.17816-0.74774-42.35632-1.21857-63.53455-1.73853l-31.76727-0.77899
			l-15.88364-0.3902l-15.88364-0.49811c-21.17819-0.68018-42.35635-1.27393-63.53455-2.09888V551.44598z"/>
	</g>
	<text transform="matrix(1 0 0 1 147.98026 561.6709)" class="st5 st6">presenting</text>
</g>
<g id="p3">
	<g>
		<path class="st4" d="M390,446.414c21.17819-0.82492,42.35635-1.4187,63.53455-2.09885l15.88364-0.49808l15.88364-0.42892
			c10.58911-0.26859,21.17819-0.60947,31.76727-0.8187l31.76727-0.70114c10.58911-0.30652,21.17822-0.56857,31.76727-0.95898
			c10.58911-0.40521,21.17822-0.65469,31.76727-0.59695c2.64728,0.01001,5.29456,0.0087,7.94183,0.08167l1.83636,0.02652
			c0.56433,0.00952,1.1283-0.01794,1.69299-0.03162c1.12817-0.05347,2.2558-0.14841,3.37842-0.29486
			c4.50006-0.51849,8.94501-1.82761,13.05585-3.89514l-2.78857,3.48041l22.48822-72.64401l22.74365-72.56793
			c7.69031-24.15683,15.3006-48.33748,23.0976-72.46251l11.69287-36.18835l11.85089-36.14128l1.24591,0.37108l-9.854,36.73601
			l-10.01208,36.68892c-6.67297,24.45982-13.53259,48.86403-20.31232,73.29207l-20.66626,73.18661l-20.92163,73.11057
			l-0.62396,2.18042l-2.16479,1.30026c-5.14014,3.08737-10.85785,5.28439-16.81934,6.40848
			c-1.49353,0.2598-2.99933,0.45203-4.51178,0.58597c-0.75677,0.05386-1.51447,0.11734-2.27368,0.13956l-2.13434,0.05875
			c-2.64728,0.07297-5.29456,0.07166-7.94183,0.08167c-10.58905,0.05774-21.17816-0.19171-31.76727-0.59692
			c-10.58905-0.39044-21.17816-0.6525-31.76727-0.95901l-31.76727-0.70111c-10.58908-0.20926-21.17816-0.55014-31.76727-0.81873
			l-15.88364-0.42889l-15.88364-0.49808c-21.17819-0.68018-42.35635-1.27393-63.53455-2.09888V446.414z"/>
	</g>
	<path class="st3" d="M354.8107,488.94321h-252.623c-7.80367,0-14.1885-6.38483-14.1885-14.18851v-54.62302
		c0-7.80365,6.38483-14.18848,14.1885-14.18848h252.623c7.80368,0,14.18851,6.38483,14.18851,14.18848v54.62302
		C368.99921,482.55838,362.61438,488.94321,354.8107,488.94321z"/>
	<text transform="matrix(1 0 0 1 147.98026 457.02637)" class="st5 st6">analyzing</text>
</g>
<g id="p2">
	<path class="st3" d="M354.8107,383.94321h-252.623c-7.80367,0-14.1885-6.38483-14.1885-14.18851v-54.62302
		c0-7.80365,6.38483-14.18848,14.1885-14.18848h252.623c7.80368,0,14.18851,6.38483,14.18851,14.18848v54.62302
		C368.99921,377.55838,362.61438,383.94321,354.8107,383.94321z"/>
	<g>
		<path class="st4" d="M390,341.38199c22.01218-0.82492,44.02438-1.41867,66.03656-2.09885l16.50912-0.49808l16.50916-0.42889
			c11.00607-0.26862,22.01218-0.60947,33.01828-0.81873c22.01215-0.48007,44.02435-0.84671,66.03656-1.66013
			c11.00604-0.40521,22.01215-0.65466,33.01825-0.59692c2.75153,0.01001,5.50305,0.0087,8.25458,0.08163l2.04169,0.03864
			c0.58618,0.00314,1.17328,0.01462,1.75983-0.00885c1.17383-0.02545,2.34741-0.11121,3.51514-0.25369
			c4.68243-0.49719,9.29535-1.86176,13.57947-3.98145l-2.59949,2.93521l19.89178-46.45822
			c6.64117-15.48178,13.42303-30.90601,20.12762-46.36182c6.81451-15.41086,13.55182-30.85332,20.46942-46.22203
			c3.4339-7.69455,6.88013-15.38403,10.37384-23.05412c3.47058-7.67955,6.97943-15.34344,10.52655-22.9917l1.20331,0.492
			c-2.82776,7.9424-5.69366,15.86919-8.59796,23.78029c-2.8811,7.92056-5.80963,15.82175-8.75061,23.71785
			c-5.83197,15.81261-11.8443,31.55148-17.77942,47.32195c-6.04498,15.72551-12.01276,31.48259-18.12128,47.18214
			l-18.35706,47.08575l-0.69122,1.77298l-1.90851,1.16251c-5.32745,3.24493-11.31909,5.45413-17.53381,6.50107
			c-1.55505,0.25278-3.12372,0.43137-4.69843,0.53128c-0.78699,0.0607-1.57593,0.08191-2.3653,0.10675l-2.08557,0.0434
			c-2.75153,0.07294-5.50305,0.07166-8.25458,0.08163c-11.0061,0.05774-22.01221-0.19171-33.01825-0.59692
			c-22.01221-0.81339-44.02441-1.18005-66.03656-1.66013c-11.0061-0.20926-22.01221-0.55011-33.01828-0.81873l-16.50916-0.42889
			l-16.50912-0.49808c-22.01218-0.68018-44.02438-1.27393-66.03656-2.09885V341.38199z"/>
	</g>
	<text transform="matrix(1 0 0 1 147.98026 356.38184)" class="st5 st6">organizing</text>
</g>
<g id="p1">
	<g>
		<path class="st4" d="M390,236.35001c24.51419-0.82494,49.02838-1.41869,73.54254-2.09885l18.38565-0.49809l18.38565-0.42889
			c12.25708-0.2686,24.51416-0.60947,36.77124-0.81871c24.51422-0.48007,49.02838-0.84673,73.5426-1.66011
			c12.25708-0.40521,24.51416-0.65469,36.77124-0.59697c3.06427,0.01001,6.12854,0.00868,9.19281,0.08163l4.59644,0.08195
			c1.34631,0.02203,2.62744-0.01067,3.94281-0.11c5.2312-0.35898,10.41272-1.79446,15.17163-4.17729l-2.27405,2.26335
			c4.07123-6.7468,8.17798-13.47354,12.33026-20.17455c4.14349-6.70599,8.3847-13.35681,12.57227-20.03793
			c4.2865-6.62524,8.50031-13.29152,12.88379-19.86201c2.16821-3.29851,4.34814-6.59041,6.57275-9.85712
			c2.20276-3.27901,4.44159-6.53766,6.71637-9.77602l1.13202,0.63919c-1.59802,3.62047-3.23206,7.22066-4.9021,10.80048
			c-1.64819,3.59212-3.34113,7.15903-5.04565,10.71936c-3.36218,7.14717-6.89398,14.19855-10.35309,21.29095
			c-3.55811,7.03654-7.06256,14.10338-10.66467,21.11504c-3.59332,7.01665-7.23218,14.00755-10.90662,20.97842l-0.68866,1.30647
			l-1.58563,0.95714c-5.94672,3.58952-12.70032,5.90073-19.66632,6.76231c-1.73468,0.19788-3.51703,0.30687-5.23511,0.33826
			l-4.59644,0.08195c-3.06427,0.07295-6.12854,0.07162-9.19281,0.08163c-12.25708,0.05772-24.51416-0.19176-36.77124-0.59697
			c-24.51422-0.81339-49.02838-1.18004-73.5426-1.66011c-12.25708-0.20924-24.51416-0.55011-36.77124-0.81871l-18.38565-0.42889
			l-18.38565-0.49809c-24.51416-0.68016-49.02835-1.27391-73.54254-2.09885V236.35001z"/>
	</g>
	<g>
		<g>
			<path class="st3" d="M693.96002,150.64999l-18.81445,0.72418l-18.81439,0.62375l-37.62885,1.24141l-37.62885,1.06941
				l-37.62885,0.87625c-12.54291,0.27489-25.08588,0.77844-37.62881,1.2209l-9.4072,0.25453l-9.40723,0.10956l-9.4072-0.04329
				l-4.70361-0.08119c-1.39835-0.02797-2.69162-0.00311-4.04172,0.09558c-2.66806,0.21663-5.33517,0.64642-7.9274,1.39594
				c-1.29755,0.36829-2.57346,0.81374-3.83673,1.30093c-0.62659,0.25525-1.2551,0.50969-1.87064,0.79486
				c-0.31219,0.13364-0.61591,0.28455-0.92108,0.43344l-0.96783,0.48032c-2.78836,1.43828-5.58633,2.85933-8.39319,4.26448
				c-2.80017,1.41713-5.60748,2.8215-8.4256,4.2065c-5.62234,2.79482-11.28159,5.52364-16.95642,8.22453l-8.54736,3.9884
				c-2.84811,1.3313-5.70224,2.65181-8.58273,3.92508l-2.5899-4.6377c2.59503-1.7845,5.21643-3.52174,7.84384-5.24821
				l7.87924-5.18488c5.27625-3.41463,10.56805-6.80135,15.89676-10.12206c2.65741-1.67278,5.32565-3.32616,8.00101-4.9668
				c2.66867-1.65262,5.34622-3.28932,8.03339-4.90881l1.09653-0.64619c0.3848-0.22334,0.76941-0.44781,1.16382-0.65414
				c0.77997-0.43053,1.57803-0.82666,2.37912-1.21964c1.6109-0.76703,3.27118-1.43179,4.9584-2.02415
				c3.37796-1.17258,6.88864-2.00717,10.45819-2.42949c1.77075-0.21001,3.61285-0.32452,5.35031-0.35901l4.70361-0.08119
				l9.4072-0.04329l9.40723,0.10956l9.4072,0.25453c12.54294,0.44246,25.08591,0.94601,37.62881,1.2209l37.62885,0.87625
				l37.62885,1.06941l37.62885,1.24141l18.81439,0.62375l18.81445,0.72418V150.64999z"/>
			<g>
				<path class="st3" d="M384,193c6.38831-7.48985,13.53741-18.17459,16.71725-27.03897l2.65497,16.22072l12.41571,10.76627
					C406.573,191.00542,393.72617,191.48723,384,193z"/>
			</g>
		</g>
	</g>
	<path class="st3" d="M354.8107,278.94321h-252.623c-7.80367,0-14.1885-6.38483-14.1885-14.18851v-54.623
		c0-7.80368,6.38483-14.18849,14.1885-14.18849h252.623c7.80368,0,14.18851,6.38481,14.18851,14.18849v54.623
		C368.99921,272.55838,362.61438,278.94321,354.8107,278.94321z"/>
	<text transform="matrix(1 0 0 1 147.97977 247.95996)" class="st5 st6">collecting</text>
</g>
</svg>
