<?xml version="1.0" encoding="utf-8" standalone="no"?>
<!DOCTYPE svg PUBLIC "-//W3C//DTD SVG 1.1//EN"
  "http://www.w3.org/Graphics/SVG/1.1/DTD/svg11.dtd">
<!-- Created with matplotlib (http://matplotlib.org/) -->
<svg height="324pt" version="1.1" viewBox="0 0 864 324" width="864pt" xmlns="http://www.w3.org/2000/svg" xmlns:xlink="http://www.w3.org/1999/xlink">
 <defs>
  <style type="text/css">
*{stroke-linecap:butt;stroke-linejoin:round;}
  </style>
 </defs>
 <g id="figure_1">
  <g id="patch_1">
   <path d="M 0 324 
L 864 324 
L 864 0 
L 0 0 
z
" style="fill:none;"/>
  </g>
  <g id="axes_1">
   <g id="patch_2">
    <path d="M 108 283.5 
L 777.6 283.5 
L 777.6 38.88 
L 108 38.88 
z
" style="fill:none;"/>
   </g>
   <g id="patch_3">
    <path clip-path="url(#p8cc5ed9081)" d="M 109.913525 281.765106 
L 113.229122 281.765106 
L 113.229122 144.860438 
L 109.913525 144.860438 
z
" style="fill:#73b55b;"/>
   </g>
   <g id="patch_4">
    <path clip-path="url(#p8cc5ed9081)" d="M 113.229122 281.765106 
L 116.544718 281.765106 
L 116.544718 102.489384 
L 113.229122 102.489384 
z
" style="fill:#73b55b;"/>
   </g>
   <g id="patch_5">
    <path clip-path="url(#p8cc5ed9081)" d="M 116.544718 281.765106 
L 119.860314 281.765106 
L 119.860314 56.237012 
L 116.544718 56.237012 
z
" style="fill:#73b55b;"/>
   </g>
   <g id="patch_6">
    <path clip-path="url(#p8cc5ed9081)" d="M 119.860314 281.765106 
L 123.17591 281.765106 
L 123.17591 155.151811 
L 119.860314 155.151811 
z
" style="fill:#73b55b;"/>
   </g>
   <g id="patch_7">
    <path clip-path="url(#p8cc5ed9081)" d="M 123.17591 281.765106 
L 126.491506 281.765106 
L 126.491506 199.610544 
L 123.17591 199.610544 
z
" style="fill:#73b55b;"/>
   </g>
   <g id="patch_8">
    <path clip-path="url(#p8cc5ed9081)" d="M 126.491506 281.765106 
L 129.807102 281.765106 
L 129.807102 217.458725 
L 126.491506 217.458725 
z
" style="fill:#73b55b;"/>
   </g>
   <g id="patch_9">
    <path clip-path="url(#p8cc5ed9081)" d="M 129.807102 281.765106 
L 133.122698 281.765106 
L 133.122698 236.541872 
L 129.807102 236.541872 
z
" style="fill:#73b55b;"/>
   </g>
   <g id="patch_10">
    <path clip-path="url(#p8cc5ed9081)" d="M 133.122698 281.765106 
L 136.438295 281.765106 
L 136.438295 246.656822 
L 133.122698 246.656822 
z
" style="fill:#73b55b;"/>
   </g>
   <g id="patch_11">
    <path clip-path="url(#p8cc5ed9081)" d="M 136.438295 281.765106 
L 139.753891 281.765106 
L 139.753891 257.389254 
L 136.438295 257.389254 
z
" style="fill:#73b55b;"/>
   </g>
   <g id="patch_12">
    <path clip-path="url(#p8cc5ed9081)" d="M 139.753891 281.765106 
L 143.069487 281.765106 
L 143.069487 265.445929 
L 139.753891 265.445929 
z
" style="fill:#73b55b;"/>
   </g>
   <g id="patch_13">
    <path clip-path="url(#p8cc5ed9081)" d="M 143.069487 281.765106 
L 146.385083 281.765106 
L 146.385083 271.00327 
L 143.069487 271.00327 
z
" style="fill:#73b55b;"/>
   </g>
   <g id="patch_14">
    <path clip-path="url(#p8cc5ed9081)" d="M 146.385083 281.765106 
L 149.700679 281.765106 
L 149.700679 273.914259 
L 146.385083 273.914259 
z
" style="fill:#73b55b;"/>
   </g>
   <g id="patch_15">
    <path clip-path="url(#p8cc5ed9081)" d="M 149.700679 281.765106 
L 153.016275 281.765106 
L 153.016275 275.64909 
L 149.700679 275.64909 
z
" style="fill:#73b55b;"/>
   </g>
   <g id="patch_16">
    <path clip-path="url(#p8cc5ed9081)" d="M 153.016275 281.765106 
L 156.331871 281.765106 
L 156.331871 276.795843 
L 153.016275 276.795843 
z
" style="fill:#73b55b;"/>
   </g>
   <g id="patch_17">
    <path clip-path="url(#p8cc5ed9081)" d="M 156.331871 281.765106 
L 159.647468 281.765106 
L 159.647468 277.119286 
L 156.331871 277.119286 
z
" style="fill:#73b55b;"/>
   </g>
   <g id="patch_18">
    <path clip-path="url(#p8cc5ed9081)" d="M 159.647468 281.765106 
L 162.963064 281.765106 
L 162.963064 277.530941 
L 159.647468 277.530941 
z
" style="fill:#73b55b;"/>
   </g>
   <g id="patch_19">
    <path clip-path="url(#p8cc5ed9081)" d="M 162.963064 281.765106 
L 166.27866 281.765106 
L 166.27866 278.001404 
L 162.963064 278.001404 
z
" style="fill:#73b55b;"/>
   </g>
   <g id="patch_20">
    <path clip-path="url(#p8cc5ed9081)" d="M 166.27866 281.765106 
L 169.594256 281.765106 
L 169.594256 278.413059 
L 166.27866 278.413059 
z
" style="fill:#73b55b;"/>
   </g>
   <g id="patch_21">
    <path clip-path="url(#p8cc5ed9081)" d="M 169.594256 281.765106 
L 172.909852 281.765106 
L 172.909852 278.971734 
L 169.594256 278.971734 
z
" style="fill:#73b55b;"/>
   </g>
   <g id="patch_22">
    <path clip-path="url(#p8cc5ed9081)" d="M 172.909852 281.765106 
L 176.225448 281.765106 
L 176.225448 279.295177 
L 172.909852 279.295177 
z
" style="fill:#73b55b;"/>
   </g>
   <g id="patch_23">
    <path clip-path="url(#p8cc5ed9081)" d="M 176.225448 281.765106 
L 179.541044 281.765106 
L 179.541044 279.883255 
L 176.225448 279.883255 
z
" style="fill:#73b55b;"/>
   </g>
   <g id="patch_24">
    <path clip-path="url(#p8cc5ed9081)" d="M 179.541044 281.765106 
L 182.856641 281.765106 
L 182.856641 280.206698 
L 179.541044 280.206698 
z
" style="fill:#73b55b;"/>
   </g>
   <g id="patch_25">
    <path clip-path="url(#p8cc5ed9081)" d="M 182.856641 281.765106 
L 186.172237 281.765106 
L 186.172237 280.089083 
L 182.856641 280.089083 
z
" style="fill:#73b55b;"/>
   </g>
   <g id="patch_26">
    <path clip-path="url(#p8cc5ed9081)" d="M 186.172237 281.765106 
L 189.487833 281.765106 
L 189.487833 280.588949 
L 186.172237 280.588949 
z
" style="fill:#73b55b;"/>
   </g>
   <g id="patch_27">
    <path clip-path="url(#p8cc5ed9081)" d="M 189.487833 281.765106 
L 192.803429 281.765106 
L 192.803429 280.765373 
L 189.487833 280.765373 
z
" style="fill:#73b55b;"/>
   </g>
   <g id="patch_28">
    <path clip-path="url(#p8cc5ed9081)" d="M 192.803429 281.765106 
L 196.119025 281.765106 
L 196.119025 280.735969 
L 192.803429 280.735969 
z
" style="fill:#73b55b;"/>
   </g>
   <g id="patch_29">
    <path clip-path="url(#p8cc5ed9081)" d="M 196.119025 281.765106 
L 199.434621 281.765106 
L 199.434621 281.147624 
L 196.119025 281.147624 
z
" style="fill:#73b55b;"/>
   </g>
   <g id="patch_30">
    <path clip-path="url(#p8cc5ed9081)" d="M 199.434621 281.765106 
L 202.750217 281.765106 
L 202.750217 281.235836 
L 199.434621 281.235836 
z
" style="fill:#73b55b;"/>
   </g>
   <g id="patch_31">
    <path clip-path="url(#p8cc5ed9081)" d="M 202.750217 281.765106 
L 206.065814 281.765106 
L 206.065814 281.324048 
L 202.750217 281.324048 
z
" style="fill:#73b55b;"/>
   </g>
   <g id="patch_32">
    <path clip-path="url(#p8cc5ed9081)" d="M 206.065814 281.765106 
L 209.38141 281.765106 
L 209.38141 281.471067 
L 206.065814 281.471067 
z
" style="fill:#73b55b;"/>
   </g>
   <g id="patch_33">
    <path clip-path="url(#p8cc5ed9081)" d="M 209.38141 281.765106 
L 212.697006 281.765106 
L 212.697006 281.500471 
L 209.38141 281.500471 
z
" style="fill:#73b55b;"/>
   </g>
   <g id="patch_34">
    <path clip-path="url(#p8cc5ed9081)" d="M 212.697006 281.765106 
L 216.012602 281.765106 
L 216.012602 281.559279 
L 212.697006 281.559279 
z
" style="fill:#73b55b;"/>
   </g>
   <g id="patch_35">
    <path clip-path="url(#p8cc5ed9081)" d="M 216.012602 281.765106 
L 219.328198 281.765106 
L 219.328198 281.618087 
L 216.012602 281.618087 
z
" style="fill:#73b55b;"/>
   </g>
   <g id="patch_36">
    <path clip-path="url(#p8cc5ed9081)" d="M 219.328198 281.765106 
L 222.643794 281.765106 
L 222.643794 281.559279 
L 219.328198 281.559279 
z
" style="fill:#73b55b;"/>
   </g>
   <g id="patch_37">
    <path clip-path="url(#p8cc5ed9081)" d="M 222.643794 281.765106 
L 225.95939 281.765106 
L 225.95939 281.588683 
L 222.643794 281.588683 
z
" style="fill:#73b55b;"/>
   </g>
   <g id="patch_38">
    <path clip-path="url(#p8cc5ed9081)" d="M 225.95939 281.765106 
L 229.274987 281.765106 
L 229.274987 281.618087 
L 225.95939 281.618087 
z
" style="fill:#73b55b;"/>
   </g>
   <g id="patch_39">
    <path clip-path="url(#p8cc5ed9081)" d="M 229.274987 281.765106 
L 232.590583 281.765106 
L 232.590583 281.588683 
L 229.274987 281.588683 
z
" style="fill:#73b55b;"/>
   </g>
   <g id="patch_40">
    <path clip-path="url(#p8cc5ed9081)" d="M 232.590583 281.765106 
L 235.906179 281.765106 
L 235.906179 281.676895 
L 232.590583 281.676895 
z
" style="fill:#73b55b;"/>
   </g>
   <g id="patch_41">
    <path clip-path="url(#p8cc5ed9081)" d="M 235.906179 281.765106 
L 239.221775 281.765106 
L 239.221775 281.588683 
L 235.906179 281.588683 
z
" style="fill:#73b55b;"/>
   </g>
   <g id="patch_42">
    <path clip-path="url(#p8cc5ed9081)" d="M 239.221775 281.765106 
L 242.537371 281.765106 
L 242.537371 281.441663 
L 239.221775 281.441663 
z
" style="fill:#73b55b;"/>
   </g>
   <g id="patch_43">
    <path clip-path="url(#p8cc5ed9081)" d="M 242.537371 281.765106 
L 245.852967 281.765106 
L 245.852967 281.559279 
L 242.537371 281.559279 
z
" style="fill:#73b55b;"/>
   </g>
   <g id="patch_44">
    <path clip-path="url(#p8cc5ed9081)" d="M 245.852967 281.765106 
L 249.168563 281.765106 
L 249.168563 281.588683 
L 245.852967 281.588683 
z
" style="fill:#73b55b;"/>
   </g>
   <g id="patch_45">
    <path clip-path="url(#p8cc5ed9081)" d="M 249.168563 281.765106 
L 252.48416 281.765106 
L 252.48416 281.618087 
L 249.168563 281.618087 
z
" style="fill:#73b55b;"/>
   </g>
   <g id="patch_46">
    <path clip-path="url(#p8cc5ed9081)" d="M 252.48416 281.765106 
L 255.799756 281.765106 
L 255.799756 281.618087 
L 252.48416 281.618087 
z
" style="fill:#73b55b;"/>
   </g>
   <g id="patch_47">
    <path clip-path="url(#p8cc5ed9081)" d="M 255.799756 281.765106 
L 259.115352 281.765106 
L 259.115352 281.676895 
L 255.799756 281.676895 
z
" style="fill:#73b55b;"/>
   </g>
   <g id="patch_48">
    <path clip-path="url(#p8cc5ed9081)" d="M 259.115352 281.765106 
L 262.430948 281.765106 
L 262.430948 281.618087 
L 259.115352 281.618087 
z
" style="fill:#73b55b;"/>
   </g>
   <g id="patch_49">
    <path clip-path="url(#p8cc5ed9081)" d="M 262.430948 281.765106 
L 265.746544 281.765106 
L 265.746544 281.618087 
L 262.430948 281.618087 
z
" style="fill:#73b55b;"/>
   </g>
   <g id="patch_50">
    <path clip-path="url(#p8cc5ed9081)" d="M 265.746544 281.765106 
L 269.06214 281.765106 
L 269.06214 281.676895 
L 265.746544 281.676895 
z
" style="fill:#73b55b;"/>
   </g>
   <g id="patch_51">
    <path clip-path="url(#p8cc5ed9081)" d="M 269.06214 281.765106 
L 272.377736 281.765106 
L 272.377736 281.765106 
L 269.06214 281.765106 
z
" style="fill:#73b55b;"/>
   </g>
   <g id="patch_52">
    <path clip-path="url(#p8cc5ed9081)" d="M 272.377736 281.765106 
L 275.693333 281.765106 
L 275.693333 281.706299 
L 272.377736 281.706299 
z
" style="fill:#73b55b;"/>
   </g>
   <g id="patch_53">
    <path clip-path="url(#p8cc5ed9081)" d="M 275.693333 281.765106 
L 279.008929 281.765106 
L 279.008929 281.765106 
L 275.693333 281.765106 
z
" style="fill:#73b55b;"/>
   </g>
   <g id="patch_54">
    <path clip-path="url(#p8cc5ed9081)" d="M 279.008929 281.765106 
L 282.324525 281.765106 
L 282.324525 281.618087 
L 279.008929 281.618087 
z
" style="fill:#73b55b;"/>
   </g>
   <g id="patch_55">
    <path clip-path="url(#p8cc5ed9081)" d="M 282.324525 281.765106 
L 285.640121 281.765106 
L 285.640121 281.765106 
L 282.324525 281.765106 
z
" style="fill:#73b55b;"/>
   </g>
   <g id="patch_56">
    <path clip-path="url(#p8cc5ed9081)" d="M 285.640121 281.765106 
L 288.955717 281.765106 
L 288.955717 281.676895 
L 285.640121 281.676895 
z
" style="fill:#73b55b;"/>
   </g>
   <g id="patch_57">
    <path clip-path="url(#p8cc5ed9081)" d="M 288.955717 281.765106 
L 292.271313 281.765106 
L 292.271313 281.735702 
L 288.955717 281.735702 
z
" style="fill:#73b55b;"/>
   </g>
   <g id="patch_58">
    <path clip-path="url(#p8cc5ed9081)" d="M 292.271313 281.765106 
L 295.586909 281.765106 
L 295.586909 281.676895 
L 292.271313 281.676895 
z
" style="fill:#73b55b;"/>
   </g>
   <g id="patch_59">
    <path clip-path="url(#p8cc5ed9081)" d="M 295.586909 281.765106 
L 298.902506 281.765106 
L 298.902506 281.735702 
L 295.586909 281.735702 
z
" style="fill:#73b55b;"/>
   </g>
   <g id="patch_60">
    <path clip-path="url(#p8cc5ed9081)" d="M 298.902506 281.765106 
L 302.218102 281.765106 
L 302.218102 281.588683 
L 298.902506 281.588683 
z
" style="fill:#73b55b;"/>
   </g>
   <g id="patch_61">
    <path clip-path="url(#p8cc5ed9081)" d="M 302.218102 281.765106 
L 305.533698 281.765106 
L 305.533698 281.765106 
L 302.218102 281.765106 
z
" style="fill:#73b55b;"/>
   </g>
   <g id="patch_62">
    <path clip-path="url(#p8cc5ed9081)" d="M 305.533698 281.765106 
L 308.849294 281.765106 
L 308.849294 281.765106 
L 305.533698 281.765106 
z
" style="fill:#73b55b;"/>
   </g>
   <g id="patch_63">
    <path clip-path="url(#p8cc5ed9081)" d="M 308.849294 281.765106 
L 312.16489 281.765106 
L 312.16489 281.735702 
L 308.849294 281.735702 
z
" style="fill:#73b55b;"/>
   </g>
   <g id="patch_64">
    <path clip-path="url(#p8cc5ed9081)" d="M 312.16489 281.765106 
L 315.480486 281.765106 
L 315.480486 281.735702 
L 312.16489 281.735702 
z
" style="fill:#73b55b;"/>
   </g>
   <g id="patch_65">
    <path clip-path="url(#p8cc5ed9081)" d="M 315.480486 281.765106 
L 318.796082 281.765106 
L 318.796082 281.735702 
L 315.480486 281.735702 
z
" style="fill:#73b55b;"/>
   </g>
   <g id="patch_66">
    <path clip-path="url(#p8cc5ed9081)" d="M 318.796082 281.765106 
L 322.111679 281.765106 
L 322.111679 281.765106 
L 318.796082 281.765106 
z
" style="fill:#73b55b;"/>
   </g>
   <g id="patch_67">
    <path clip-path="url(#p8cc5ed9081)" d="M 322.111679 281.765106 
L 325.427275 281.765106 
L 325.427275 281.765106 
L 322.111679 281.765106 
z
" style="fill:#73b55b;"/>
   </g>
   <g id="patch_68">
    <path clip-path="url(#p8cc5ed9081)" d="M 325.427275 281.765106 
L 328.742871 281.765106 
L 328.742871 281.765106 
L 325.427275 281.765106 
z
" style="fill:#73b55b;"/>
   </g>
   <g id="patch_69">
    <path clip-path="url(#p8cc5ed9081)" d="M 328.742871 281.765106 
L 332.058467 281.765106 
L 332.058467 281.735702 
L 328.742871 281.735702 
z
" style="fill:#73b55b;"/>
   </g>
   <g id="patch_70">
    <path clip-path="url(#p8cc5ed9081)" d="M 332.058467 281.765106 
L 335.374063 281.765106 
L 335.374063 281.765106 
L 332.058467 281.765106 
z
" style="fill:#73b55b;"/>
   </g>
   <g id="patch_71">
    <path clip-path="url(#p8cc5ed9081)" d="M 335.374063 281.765106 
L 338.689659 281.765106 
L 338.689659 281.735702 
L 335.374063 281.735702 
z
" style="fill:#73b55b;"/>
   </g>
   <g id="patch_72">
    <path clip-path="url(#p8cc5ed9081)" d="M 338.689659 281.765106 
L 342.005255 281.765106 
L 342.005255 281.706299 
L 338.689659 281.706299 
z
" style="fill:#73b55b;"/>
   </g>
   <g id="patch_73">
    <path clip-path="url(#p8cc5ed9081)" d="M 342.005255 281.765106 
L 345.320852 281.765106 
L 345.320852 281.765106 
L 342.005255 281.765106 
z
" style="fill:#73b55b;"/>
   </g>
   <g id="patch_74">
    <path clip-path="url(#p8cc5ed9081)" d="M 345.320852 281.765106 
L 348.636448 281.765106 
L 348.636448 281.765106 
L 345.320852 281.765106 
z
" style="fill:#73b55b;"/>
   </g>
   <g id="patch_75">
    <path clip-path="url(#p8cc5ed9081)" d="M 348.636448 281.765106 
L 351.952044 281.765106 
L 351.952044 281.765106 
L 348.636448 281.765106 
z
" style="fill:#73b55b;"/>
   </g>
   <g id="patch_76">
    <path clip-path="url(#p8cc5ed9081)" d="M 351.952044 281.765106 
L 355.26764 281.765106 
L 355.26764 281.765106 
L 351.952044 281.765106 
z
" style="fill:#73b55b;"/>
   </g>
   <g id="patch_77">
    <path clip-path="url(#p8cc5ed9081)" d="M 355.26764 281.765106 
L 358.583236 281.765106 
L 358.583236 281.765106 
L 355.26764 281.765106 
z
" style="fill:#73b55b;"/>
   </g>
   <g id="patch_78">
    <path clip-path="url(#p8cc5ed9081)" d="M 358.583236 281.765106 
L 361.898832 281.765106 
L 361.898832 281.765106 
L 358.583236 281.765106 
z
" style="fill:#73b55b;"/>
   </g>
   <g id="patch_79">
    <path clip-path="url(#p8cc5ed9081)" d="M 361.898832 281.765106 
L 365.214428 281.765106 
L 365.214428 281.765106 
L 361.898832 281.765106 
z
" style="fill:#73b55b;"/>
   </g>
   <g id="patch_80">
    <path clip-path="url(#p8cc5ed9081)" d="M 365.214428 281.765106 
L 368.530025 281.765106 
L 368.530025 281.765106 
L 365.214428 281.765106 
z
" style="fill:#73b55b;"/>
   </g>
   <g id="patch_81">
    <path clip-path="url(#p8cc5ed9081)" d="M 368.530025 281.765106 
L 371.845621 281.765106 
L 371.845621 281.735702 
L 368.530025 281.735702 
z
" style="fill:#73b55b;"/>
   </g>
   <g id="patch_82">
    <path clip-path="url(#p8cc5ed9081)" d="M 371.845621 281.765106 
L 375.161217 281.765106 
L 375.161217 281.765106 
L 371.845621 281.765106 
z
" style="fill:#73b55b;"/>
   </g>
   <g id="patch_83">
    <path clip-path="url(#p8cc5ed9081)" d="M 375.161217 281.765106 
L 378.476813 281.765106 
L 378.476813 281.765106 
L 375.161217 281.765106 
z
" style="fill:#73b55b;"/>
   </g>
   <g id="patch_84">
    <path clip-path="url(#p8cc5ed9081)" d="M 378.476813 281.765106 
L 381.792409 281.765106 
L 381.792409 281.765106 
L 378.476813 281.765106 
z
" style="fill:#73b55b;"/>
   </g>
   <g id="patch_85">
    <path clip-path="url(#p8cc5ed9081)" d="M 381.792409 281.765106 
L 385.108005 281.765106 
L 385.108005 281.735702 
L 381.792409 281.735702 
z
" style="fill:#73b55b;"/>
   </g>
   <g id="patch_86">
    <path clip-path="url(#p8cc5ed9081)" d="M 385.108005 281.765106 
L 388.423601 281.765106 
L 388.423601 281.765106 
L 385.108005 281.765106 
z
" style="fill:#73b55b;"/>
   </g>
   <g id="patch_87">
    <path clip-path="url(#p8cc5ed9081)" d="M 388.423601 281.765106 
L 391.739198 281.765106 
L 391.739198 281.765106 
L 388.423601 281.765106 
z
" style="fill:#73b55b;"/>
   </g>
   <g id="patch_88">
    <path clip-path="url(#p8cc5ed9081)" d="M 391.739198 281.765106 
L 395.054794 281.765106 
L 395.054794 281.765106 
L 391.739198 281.765106 
z
" style="fill:#73b55b;"/>
   </g>
   <g id="patch_89">
    <path clip-path="url(#p8cc5ed9081)" d="M 395.054794 281.765106 
L 398.37039 281.765106 
L 398.37039 281.765106 
L 395.054794 281.765106 
z
" style="fill:#73b55b;"/>
   </g>
   <g id="patch_90">
    <path clip-path="url(#p8cc5ed9081)" d="M 398.37039 281.765106 
L 401.685986 281.765106 
L 401.685986 281.765106 
L 398.37039 281.765106 
z
" style="fill:#73b55b;"/>
   </g>
   <g id="patch_91">
    <path clip-path="url(#p8cc5ed9081)" d="M 401.685986 281.765106 
L 405.001582 281.765106 
L 405.001582 281.765106 
L 401.685986 281.765106 
z
" style="fill:#73b55b;"/>
   </g>
   <g id="patch_92">
    <path clip-path="url(#p8cc5ed9081)" d="M 405.001582 281.765106 
L 408.317178 281.765106 
L 408.317178 281.735702 
L 405.001582 281.735702 
z
" style="fill:#73b55b;"/>
   </g>
   <g id="patch_93">
    <path clip-path="url(#p8cc5ed9081)" d="M 408.317178 281.765106 
L 411.632774 281.765106 
L 411.632774 281.765106 
L 408.317178 281.765106 
z
" style="fill:#73b55b;"/>
   </g>
   <g id="patch_94">
    <path clip-path="url(#p8cc5ed9081)" d="M 411.632774 281.765106 
L 414.948371 281.765106 
L 414.948371 281.765106 
L 411.632774 281.765106 
z
" style="fill:#73b55b;"/>
   </g>
   <g id="patch_95">
    <path clip-path="url(#p8cc5ed9081)" d="M 414.948371 281.765106 
L 418.263967 281.765106 
L 418.263967 281.765106 
L 414.948371 281.765106 
z
" style="fill:#73b55b;"/>
   </g>
   <g id="patch_96">
    <path clip-path="url(#p8cc5ed9081)" d="M 418.263967 281.765106 
L 421.579563 281.765106 
L 421.579563 281.765106 
L 418.263967 281.765106 
z
" style="fill:#73b55b;"/>
   </g>
   <g id="patch_97">
    <path clip-path="url(#p8cc5ed9081)" d="M 421.579563 281.765106 
L 424.895159 281.765106 
L 424.895159 281.765106 
L 421.579563 281.765106 
z
" style="fill:#73b55b;"/>
   </g>
   <g id="patch_98">
    <path clip-path="url(#p8cc5ed9081)" d="M 424.895159 281.765106 
L 428.210755 281.765106 
L 428.210755 281.765106 
L 424.895159 281.765106 
z
" style="fill:#73b55b;"/>
   </g>
   <g id="patch_99">
    <path clip-path="url(#p8cc5ed9081)" d="M 428.210755 281.765106 
L 431.526351 281.765106 
L 431.526351 281.765106 
L 428.210755 281.765106 
z
" style="fill:#73b55b;"/>
   </g>
   <g id="patch_100">
    <path clip-path="url(#p8cc5ed9081)" d="M 431.526351 281.765106 
L 434.841947 281.765106 
L 434.841947 281.765106 
L 431.526351 281.765106 
z
" style="fill:#73b55b;"/>
   </g>
   <g id="patch_101">
    <path clip-path="url(#p8cc5ed9081)" d="M 434.841947 281.765106 
L 438.157544 281.765106 
L 438.157544 281.765106 
L 434.841947 281.765106 
z
" style="fill:#73b55b;"/>
   </g>
   <g id="patch_102">
    <path clip-path="url(#p8cc5ed9081)" d="M 438.157544 281.765106 
L 441.47314 281.765106 
L 441.47314 281.765106 
L 438.157544 281.765106 
z
" style="fill:#73b55b;"/>
   </g>
   <g id="patch_103">
    <path clip-path="url(#p8cc5ed9081)" d="M 441.47314 281.765106 
L 444.788736 281.765106 
L 444.788736 281.765106 
L 441.47314 281.765106 
z
" style="fill:#73b55b;"/>
   </g>
   <g id="patch_104">
    <path clip-path="url(#p8cc5ed9081)" d="M 444.788736 281.765106 
L 448.104332 281.765106 
L 448.104332 281.765106 
L 444.788736 281.765106 
z
" style="fill:#73b55b;"/>
   </g>
   <g id="patch_105">
    <path clip-path="url(#p8cc5ed9081)" d="M 448.104332 281.765106 
L 451.419928 281.765106 
L 451.419928 281.765106 
L 448.104332 281.765106 
z
" style="fill:#73b55b;"/>
   </g>
   <g id="patch_106">
    <path clip-path="url(#p8cc5ed9081)" d="M 451.419928 281.765106 
L 454.735524 281.765106 
L 454.735524 281.765106 
L 451.419928 281.765106 
z
" style="fill:#73b55b;"/>
   </g>
   <g id="patch_107">
    <path clip-path="url(#p8cc5ed9081)" d="M 454.735524 281.765106 
L 458.05112 281.765106 
L 458.05112 281.765106 
L 454.735524 281.765106 
z
" style="fill:#73b55b;"/>
   </g>
   <g id="patch_108">
    <path clip-path="url(#p8cc5ed9081)" d="M 458.05112 281.765106 
L 461.366717 281.765106 
L 461.366717 281.765106 
L 458.05112 281.765106 
z
" style="fill:#73b55b;"/>
   </g>
   <g id="patch_109">
    <path clip-path="url(#p8cc5ed9081)" d="M 461.366717 281.765106 
L 464.682313 281.765106 
L 464.682313 281.765106 
L 461.366717 281.765106 
z
" style="fill:#73b55b;"/>
   </g>
   <g id="patch_110">
    <path clip-path="url(#p8cc5ed9081)" d="M 464.682313 281.765106 
L 467.997909 281.765106 
L 467.997909 281.765106 
L 464.682313 281.765106 
z
" style="fill:#73b55b;"/>
   </g>
   <g id="patch_111">
    <path clip-path="url(#p8cc5ed9081)" d="M 467.997909 281.765106 
L 471.313505 281.765106 
L 471.313505 281.765106 
L 467.997909 281.765106 
z
" style="fill:#73b55b;"/>
   </g>
   <g id="patch_112">
    <path clip-path="url(#p8cc5ed9081)" d="M 471.313505 281.765106 
L 474.629101 281.765106 
L 474.629101 281.765106 
L 471.313505 281.765106 
z
" style="fill:#73b55b;"/>
   </g>
   <g id="patch_113">
    <path clip-path="url(#p8cc5ed9081)" d="M 474.629101 281.765106 
L 477.944697 281.765106 
L 477.944697 281.765106 
L 474.629101 281.765106 
z
" style="fill:#73b55b;"/>
   </g>
   <g id="patch_114">
    <path clip-path="url(#p8cc5ed9081)" d="M 477.944697 281.765106 
L 481.260293 281.765106 
L 481.260293 281.765106 
L 477.944697 281.765106 
z
" style="fill:#73b55b;"/>
   </g>
   <g id="patch_115">
    <path clip-path="url(#p8cc5ed9081)" d="M 481.260293 281.765106 
L 484.57589 281.765106 
L 484.57589 281.765106 
L 481.260293 281.765106 
z
" style="fill:#73b55b;"/>
   </g>
   <g id="patch_116">
    <path clip-path="url(#p8cc5ed9081)" d="M 484.57589 281.765106 
L 487.891486 281.765106 
L 487.891486 281.765106 
L 484.57589 281.765106 
z
" style="fill:#73b55b;"/>
   </g>
   <g id="patch_117">
    <path clip-path="url(#p8cc5ed9081)" d="M 487.891486 281.765106 
L 491.207082 281.765106 
L 491.207082 281.765106 
L 487.891486 281.765106 
z
" style="fill:#73b55b;"/>
   </g>
   <g id="patch_118">
    <path clip-path="url(#p8cc5ed9081)" d="M 491.207082 281.765106 
L 494.522678 281.765106 
L 494.522678 281.765106 
L 491.207082 281.765106 
z
" style="fill:#73b55b;"/>
   </g>
   <g id="patch_119">
    <path clip-path="url(#p8cc5ed9081)" d="M 494.522678 281.765106 
L 497.838274 281.765106 
L 497.838274 281.765106 
L 494.522678 281.765106 
z
" style="fill:#73b55b;"/>
   </g>
   <g id="patch_120">
    <path clip-path="url(#p8cc5ed9081)" d="M 497.838274 281.765106 
L 501.15387 281.765106 
L 501.15387 281.765106 
L 497.838274 281.765106 
z
" style="fill:#73b55b;"/>
   </g>
   <g id="patch_121">
    <path clip-path="url(#p8cc5ed9081)" d="M 501.15387 281.765106 
L 504.469466 281.765106 
L 504.469466 281.765106 
L 501.15387 281.765106 
z
" style="fill:#73b55b;"/>
   </g>
   <g id="patch_122">
    <path clip-path="url(#p8cc5ed9081)" d="M 504.469466 281.765106 
L 507.785063 281.765106 
L 507.785063 281.765106 
L 504.469466 281.765106 
z
" style="fill:#73b55b;"/>
   </g>
   <g id="patch_123">
    <path clip-path="url(#p8cc5ed9081)" d="M 507.785063 281.765106 
L 511.100659 281.765106 
L 511.100659 281.765106 
L 507.785063 281.765106 
z
" style="fill:#73b55b;"/>
   </g>
   <g id="patch_124">
    <path clip-path="url(#p8cc5ed9081)" d="M 511.100659 281.765106 
L 514.416255 281.765106 
L 514.416255 281.765106 
L 511.100659 281.765106 
z
" style="fill:#73b55b;"/>
   </g>
   <g id="patch_125">
    <path clip-path="url(#p8cc5ed9081)" d="M 514.416255 281.765106 
L 517.731851 281.765106 
L 517.731851 281.765106 
L 514.416255 281.765106 
z
" style="fill:#73b55b;"/>
   </g>
   <g id="patch_126">
    <path clip-path="url(#p8cc5ed9081)" d="M 517.731851 281.765106 
L 521.047447 281.765106 
L 521.047447 281.765106 
L 517.731851 281.765106 
z
" style="fill:#73b55b;"/>
   </g>
   <g id="patch_127">
    <path clip-path="url(#p8cc5ed9081)" d="M 521.047447 281.765106 
L 524.363043 281.765106 
L 524.363043 281.765106 
L 521.047447 281.765106 
z
" style="fill:#73b55b;"/>
   </g>
   <g id="patch_128">
    <path clip-path="url(#p8cc5ed9081)" d="M 524.363043 281.765106 
L 527.678639 281.765106 
L 527.678639 281.765106 
L 524.363043 281.765106 
z
" style="fill:#73b55b;"/>
   </g>
   <g id="patch_129">
    <path clip-path="url(#p8cc5ed9081)" d="M 527.678639 281.765106 
L 530.994236 281.765106 
L 530.994236 281.765106 
L 527.678639 281.765106 
z
" style="fill:#73b55b;"/>
   </g>
   <g id="patch_130">
    <path clip-path="url(#p8cc5ed9081)" d="M 530.994236 281.765106 
L 534.309832 281.765106 
L 534.309832 281.765106 
L 530.994236 281.765106 
z
" style="fill:#73b55b;"/>
   </g>
   <g id="patch_131">
    <path clip-path="url(#p8cc5ed9081)" d="M 534.309832 281.765106 
L 537.625428 281.765106 
L 537.625428 281.735702 
L 534.309832 281.735702 
z
" style="fill:#73b55b;"/>
   </g>
   <g id="patch_132">
    <path clip-path="url(#p8cc5ed9081)" d="M 537.625428 281.765106 
L 540.941024 281.765106 
L 540.941024 281.765106 
L 537.625428 281.765106 
z
" style="fill:#73b55b;"/>
   </g>
   <g id="patch_133">
    <path clip-path="url(#p8cc5ed9081)" d="M 540.941024 281.765106 
L 544.25662 281.765106 
L 544.25662 281.765106 
L 540.941024 281.765106 
z
" style="fill:#73b55b;"/>
   </g>
   <g id="patch_134">
    <path clip-path="url(#p8cc5ed9081)" d="M 544.25662 281.765106 
L 547.572216 281.765106 
L 547.572216 281.765106 
L 544.25662 281.765106 
z
" style="fill:#73b55b;"/>
   </g>
   <g id="patch_135">
    <path clip-path="url(#p8cc5ed9081)" d="M 547.572216 281.765106 
L 550.887812 281.765106 
L 550.887812 281.735702 
L 547.572216 281.735702 
z
" style="fill:#73b55b;"/>
   </g>
   <g id="patch_136">
    <path clip-path="url(#p8cc5ed9081)" d="M 550.887812 281.765106 
L 554.203409 281.765106 
L 554.203409 281.765106 
L 550.887812 281.765106 
z
" style="fill:#73b55b;"/>
   </g>
   <g id="patch_137">
    <path clip-path="url(#p8cc5ed9081)" d="M 554.203409 281.765106 
L 557.519005 281.765106 
L 557.519005 281.765106 
L 554.203409 281.765106 
z
" style="fill:#73b55b;"/>
   </g>
   <g id="patch_138">
    <path clip-path="url(#p8cc5ed9081)" d="M 557.519005 281.765106 
L 560.834601 281.765106 
L 560.834601 281.765106 
L 557.519005 281.765106 
z
" style="fill:#73b55b;"/>
   </g>
   <g id="patch_139">
    <path clip-path="url(#p8cc5ed9081)" d="M 560.834601 281.765106 
L 564.150197 281.765106 
L 564.150197 281.765106 
L 560.834601 281.765106 
z
" style="fill:#73b55b;"/>
   </g>
   <g id="patch_140">
    <path clip-path="url(#p8cc5ed9081)" d="M 564.150197 281.765106 
L 567.465793 281.765106 
L 567.465793 281.765106 
L 564.150197 281.765106 
z
" style="fill:#73b55b;"/>
   </g>
   <g id="patch_141">
    <path clip-path="url(#p8cc5ed9081)" d="M 567.465793 281.765106 
L 570.781389 281.765106 
L 570.781389 281.765106 
L 567.465793 281.765106 
z
" style="fill:#73b55b;"/>
   </g>
   <g id="patch_142">
    <path clip-path="url(#p8cc5ed9081)" d="M 570.781389 281.765106 
L 574.096985 281.765106 
L 574.096985 281.765106 
L 570.781389 281.765106 
z
" style="fill:#73b55b;"/>
   </g>
   <g id="patch_143">
    <path clip-path="url(#p8cc5ed9081)" d="M 574.096985 281.765106 
L 577.412582 281.765106 
L 577.412582 281.765106 
L 574.096985 281.765106 
z
" style="fill:#73b55b;"/>
   </g>
   <g id="patch_144">
    <path clip-path="url(#p8cc5ed9081)" d="M 577.412582 281.765106 
L 580.728178 281.765106 
L 580.728178 281.765106 
L 577.412582 281.765106 
z
" style="fill:#73b55b;"/>
   </g>
   <g id="patch_145">
    <path clip-path="url(#p8cc5ed9081)" d="M 580.728178 281.765106 
L 584.043774 281.765106 
L 584.043774 281.765106 
L 580.728178 281.765106 
z
" style="fill:#73b55b;"/>
   </g>
   <g id="patch_146">
    <path clip-path="url(#p8cc5ed9081)" d="M 584.043774 281.765106 
L 587.35937 281.765106 
L 587.35937 281.765106 
L 584.043774 281.765106 
z
" style="fill:#73b55b;"/>
   </g>
   <g id="patch_147">
    <path clip-path="url(#p8cc5ed9081)" d="M 587.35937 281.765106 
L 590.674966 281.765106 
L 590.674966 281.765106 
L 587.35937 281.765106 
z
" style="fill:#73b55b;"/>
   </g>
   <g id="patch_148">
    <path clip-path="url(#p8cc5ed9081)" d="M 590.674966 281.765106 
L 593.990562 281.765106 
L 593.990562 281.765106 
L 590.674966 281.765106 
z
" style="fill:#73b55b;"/>
   </g>
   <g id="patch_149">
    <path clip-path="url(#p8cc5ed9081)" d="M 593.990562 281.765106 
L 597.306158 281.765106 
L 597.306158 281.765106 
L 593.990562 281.765106 
z
" style="fill:#73b55b;"/>
   </g>
   <g id="patch_150">
    <path clip-path="url(#p8cc5ed9081)" d="M 597.306158 281.765106 
L 600.621755 281.765106 
L 600.621755 281.765106 
L 597.306158 281.765106 
z
" style="fill:#73b55b;"/>
   </g>
   <g id="patch_151">
    <path clip-path="url(#p8cc5ed9081)" d="M 600.621755 281.765106 
L 603.937351 281.765106 
L 603.937351 281.765106 
L 600.621755 281.765106 
z
" style="fill:#73b55b;"/>
   </g>
   <g id="patch_152">
    <path clip-path="url(#p8cc5ed9081)" d="M 603.937351 281.765106 
L 607.252947 281.765106 
L 607.252947 281.765106 
L 603.937351 281.765106 
z
" style="fill:#73b55b;"/>
   </g>
   <g id="patch_153">
    <path clip-path="url(#p8cc5ed9081)" d="M 607.252947 281.765106 
L 610.568543 281.765106 
L 610.568543 281.765106 
L 607.252947 281.765106 
z
" style="fill:#73b55b;"/>
   </g>
   <g id="patch_154">
    <path clip-path="url(#p8cc5ed9081)" d="M 610.568543 281.765106 
L 613.884139 281.765106 
L 613.884139 281.765106 
L 610.568543 281.765106 
z
" style="fill:#73b55b;"/>
   </g>
   <g id="patch_155">
    <path clip-path="url(#p8cc5ed9081)" d="M 613.884139 281.765106 
L 617.199735 281.765106 
L 617.199735 281.765106 
L 613.884139 281.765106 
z
" style="fill:#73b55b;"/>
   </g>
   <g id="patch_156">
    <path clip-path="url(#p8cc5ed9081)" d="M 617.199735 281.765106 
L 620.515331 281.765106 
L 620.515331 281.765106 
L 617.199735 281.765106 
z
" style="fill:#73b55b;"/>
   </g>
   <g id="patch_157">
    <path clip-path="url(#p8cc5ed9081)" d="M 620.515331 281.765106 
L 623.830928 281.765106 
L 623.830928 281.765106 
L 620.515331 281.765106 
z
" style="fill:#73b55b;"/>
   </g>
   <g id="patch_158">
    <path clip-path="url(#p8cc5ed9081)" d="M 623.830928 281.765106 
L 627.146524 281.765106 
L 627.146524 281.765106 
L 623.830928 281.765106 
z
" style="fill:#73b55b;"/>
   </g>
   <g id="patch_159">
    <path clip-path="url(#p8cc5ed9081)" d="M 627.146524 281.765106 
L 630.46212 281.765106 
L 630.46212 281.765106 
L 627.146524 281.765106 
z
" style="fill:#73b55b;"/>
   </g>
   <g id="patch_160">
    <path clip-path="url(#p8cc5ed9081)" d="M 630.46212 281.765106 
L 633.777716 281.765106 
L 633.777716 281.735702 
L 630.46212 281.735702 
z
" style="fill:#73b55b;"/>
   </g>
   <g id="patch_161">
    <path clip-path="url(#p8cc5ed9081)" d="M 633.777716 281.765106 
L 637.093312 281.765106 
L 637.093312 281.765106 
L 633.777716 281.765106 
z
" style="fill:#73b55b;"/>
   </g>
   <g id="patch_162">
    <path clip-path="url(#p8cc5ed9081)" d="M 637.093312 281.765106 
L 640.408908 281.765106 
L 640.408908 281.765106 
L 637.093312 281.765106 
z
" style="fill:#73b55b;"/>
   </g>
   <g id="patch_163">
    <path clip-path="url(#p8cc5ed9081)" d="M 640.408908 281.765106 
L 643.724504 281.765106 
L 643.724504 281.765106 
L 640.408908 281.765106 
z
" style="fill:#73b55b;"/>
   </g>
   <g id="patch_164">
    <path clip-path="url(#p8cc5ed9081)" d="M 643.724504 281.765106 
L 647.040101 281.765106 
L 647.040101 281.765106 
L 643.724504 281.765106 
z
" style="fill:#73b55b;"/>
   </g>
   <g id="patch_165">
    <path clip-path="url(#p8cc5ed9081)" d="M 647.040101 281.765106 
L 650.355697 281.765106 
L 650.355697 281.765106 
L 647.040101 281.765106 
z
" style="fill:#73b55b;"/>
   </g>
   <g id="patch_166">
    <path clip-path="url(#p8cc5ed9081)" d="M 650.355697 281.765106 
L 653.671293 281.765106 
L 653.671293 281.765106 
L 650.355697 281.765106 
z
" style="fill:#73b55b;"/>
   </g>
   <g id="patch_167">
    <path clip-path="url(#p8cc5ed9081)" d="M 653.671293 281.765106 
L 656.986889 281.765106 
L 656.986889 281.765106 
L 653.671293 281.765106 
z
" style="fill:#73b55b;"/>
   </g>
   <g id="patch_168">
    <path clip-path="url(#p8cc5ed9081)" d="M 656.986889 281.765106 
L 660.302485 281.765106 
L 660.302485 281.765106 
L 656.986889 281.765106 
z
" style="fill:#73b55b;"/>
   </g>
   <g id="patch_169">
    <path clip-path="url(#p8cc5ed9081)" d="M 660.302485 281.765106 
L 663.618081 281.765106 
L 663.618081 281.765106 
L 660.302485 281.765106 
z
" style="fill:#73b55b;"/>
   </g>
   <g id="patch_170">
    <path clip-path="url(#p8cc5ed9081)" d="M 663.618081 281.765106 
L 666.933677 281.765106 
L 666.933677 281.765106 
L 663.618081 281.765106 
z
" style="fill:#73b55b;"/>
   </g>
   <g id="patch_171">
    <path clip-path="url(#p8cc5ed9081)" d="M 666.933677 281.765106 
L 670.249274 281.765106 
L 670.249274 281.765106 
L 666.933677 281.765106 
z
" style="fill:#73b55b;"/>
   </g>
   <g id="patch_172">
    <path clip-path="url(#p8cc5ed9081)" d="M 670.249274 281.765106 
L 673.56487 281.765106 
L 673.56487 281.765106 
L 670.249274 281.765106 
z
" style="fill:#73b55b;"/>
   </g>
   <g id="patch_173">
    <path clip-path="url(#p8cc5ed9081)" d="M 673.56487 281.765106 
L 676.880466 281.765106 
L 676.880466 281.765106 
L 673.56487 281.765106 
z
" style="fill:#73b55b;"/>
   </g>
   <g id="patch_174">
    <path clip-path="url(#p8cc5ed9081)" d="M 676.880466 281.765106 
L 680.196062 281.765106 
L 680.196062 281.765106 
L 676.880466 281.765106 
z
" style="fill:#73b55b;"/>
   </g>
   <g id="patch_175">
    <path clip-path="url(#p8cc5ed9081)" d="M 680.196062 281.765106 
L 683.511658 281.765106 
L 683.511658 281.765106 
L 680.196062 281.765106 
z
" style="fill:#73b55b;"/>
   </g>
   <g id="patch_176">
    <path clip-path="url(#p8cc5ed9081)" d="M 683.511658 281.765106 
L 686.827254 281.765106 
L 686.827254 281.765106 
L 683.511658 281.765106 
z
" style="fill:#73b55b;"/>
   </g>
   <g id="patch_177">
    <path clip-path="url(#p8cc5ed9081)" d="M 686.827254 281.765106 
L 690.14285 281.765106 
L 690.14285 281.765106 
L 686.827254 281.765106 
z
" style="fill:#73b55b;"/>
   </g>
   <g id="patch_178">
    <path clip-path="url(#p8cc5ed9081)" d="M 690.14285 281.765106 
L 693.458447 281.765106 
L 693.458447 281.765106 
L 690.14285 281.765106 
z
" style="fill:#73b55b;"/>
   </g>
   <g id="patch_179">
    <path clip-path="url(#p8cc5ed9081)" d="M 693.458447 281.765106 
L 696.774043 281.765106 
L 696.774043 281.765106 
L 693.458447 281.765106 
z
" style="fill:#73b55b;"/>
   </g>
   <g id="patch_180">
    <path clip-path="url(#p8cc5ed9081)" d="M 696.774043 281.765106 
L 700.089639 281.765106 
L 700.089639 281.765106 
L 696.774043 281.765106 
z
" style="fill:#73b55b;"/>
   </g>
   <g id="patch_181">
    <path clip-path="url(#p8cc5ed9081)" d="M 700.089639 281.765106 
L 703.405235 281.765106 
L 703.405235 281.765106 
L 700.089639 281.765106 
z
" style="fill:#73b55b;"/>
   </g>
   <g id="patch_182">
    <path clip-path="url(#p8cc5ed9081)" d="M 703.405235 281.765106 
L 706.720831 281.765106 
L 706.720831 281.765106 
L 703.405235 281.765106 
z
" style="fill:#73b55b;"/>
   </g>
   <g id="patch_183">
    <path clip-path="url(#p8cc5ed9081)" d="M 706.720831 281.765106 
L 710.036427 281.765106 
L 710.036427 281.765106 
L 706.720831 281.765106 
z
" style="fill:#73b55b;"/>
   </g>
   <g id="patch_184">
    <path clip-path="url(#p8cc5ed9081)" d="M 710.036427 281.765106 
L 713.352023 281.765106 
L 713.352023 281.765106 
L 710.036427 281.765106 
z
" style="fill:#73b55b;"/>
   </g>
   <g id="patch_185">
    <path clip-path="url(#p8cc5ed9081)" d="M 713.352023 281.765106 
L 716.66762 281.765106 
L 716.66762 281.765106 
L 713.352023 281.765106 
z
" style="fill:#73b55b;"/>
   </g>
   <g id="patch_186">
    <path clip-path="url(#p8cc5ed9081)" d="M 716.66762 281.765106 
L 719.983216 281.765106 
L 719.983216 281.765106 
L 716.66762 281.765106 
z
" style="fill:#73b55b;"/>
   </g>
   <g id="patch_187">
    <path clip-path="url(#p8cc5ed9081)" d="M 719.983216 281.765106 
L 723.298812 281.765106 
L 723.298812 281.765106 
L 719.983216 281.765106 
z
" style="fill:#73b55b;"/>
   </g>
   <g id="patch_188">
    <path clip-path="url(#p8cc5ed9081)" d="M 723.298812 281.765106 
L 726.614408 281.765106 
L 726.614408 281.765106 
L 723.298812 281.765106 
z
" style="fill:#73b55b;"/>
   </g>
   <g id="patch_189">
    <path clip-path="url(#p8cc5ed9081)" d="M 726.614408 281.765106 
L 729.930004 281.765106 
L 729.930004 281.765106 
L 726.614408 281.765106 
z
" style="fill:#73b55b;"/>
   </g>
   <g id="patch_190">
    <path clip-path="url(#p8cc5ed9081)" d="M 729.930004 281.765106 
L 733.2456 281.765106 
L 733.2456 281.765106 
L 729.930004 281.765106 
z
" style="fill:#73b55b;"/>
   </g>
   <g id="patch_191">
    <path clip-path="url(#p8cc5ed9081)" d="M 733.2456 281.765106 
L 736.561196 281.765106 
L 736.561196 281.765106 
L 733.2456 281.765106 
z
" style="fill:#73b55b;"/>
   </g>
   <g id="patch_192">
    <path clip-path="url(#p8cc5ed9081)" d="M 736.561196 281.765106 
L 739.876793 281.765106 
L 739.876793 281.765106 
L 736.561196 281.765106 
z
" style="fill:#73b55b;"/>
   </g>
   <g id="patch_193">
    <path clip-path="url(#p8cc5ed9081)" d="M 739.876793 281.765106 
L 743.192389 281.765106 
L 743.192389 281.765106 
L 739.876793 281.765106 
z
" style="fill:#73b55b;"/>
   </g>
   <g id="patch_194">
    <path clip-path="url(#p8cc5ed9081)" d="M 743.192389 281.765106 
L 746.507985 281.765106 
L 746.507985 281.765106 
L 743.192389 281.765106 
z
" style="fill:#73b55b;"/>
   </g>
   <g id="patch_195">
    <path clip-path="url(#p8cc5ed9081)" d="M 746.507985 281.765106 
L 749.823581 281.765106 
L 749.823581 281.765106 
L 746.507985 281.765106 
z
" style="fill:#73b55b;"/>
   </g>
   <g id="patch_196">
    <path clip-path="url(#p8cc5ed9081)" d="M 749.823581 281.765106 
L 753.139177 281.765106 
L 753.139177 281.765106 
L 749.823581 281.765106 
z
" style="fill:#73b55b;"/>
   </g>
   <g id="patch_197">
    <path clip-path="url(#p8cc5ed9081)" d="M 753.139177 281.765106 
L 756.454773 281.765106 
L 756.454773 281.765106 
L 753.139177 281.765106 
z
" style="fill:#73b55b;"/>
   </g>
   <g id="patch_198">
    <path clip-path="url(#p8cc5ed9081)" d="M 756.454773 281.765106 
L 759.770369 281.765106 
L 759.770369 281.765106 
L 756.454773 281.765106 
z
" style="fill:#73b55b;"/>
   </g>
   <g id="patch_199">
    <path clip-path="url(#p8cc5ed9081)" d="M 759.770369 281.765106 
L 763.085966 281.765106 
L 763.085966 281.765106 
L 759.770369 281.765106 
z
" style="fill:#73b55b;"/>
   </g>
   <g id="patch_200">
    <path clip-path="url(#p8cc5ed9081)" d="M 763.085966 281.765106 
L 766.401562 281.765106 
L 766.401562 281.765106 
L 763.085966 281.765106 
z
" style="fill:#73b55b;"/>
   </g>
   <g id="patch_201">
    <path clip-path="url(#p8cc5ed9081)" d="M 766.401562 281.765106 
L 769.717158 281.765106 
L 769.717158 281.765106 
L 766.401562 281.765106 
z
" style="fill:#73b55b;"/>
   </g>
   <g id="patch_202">
    <path clip-path="url(#p8cc5ed9081)" d="M 769.717158 281.765106 
L 773.032754 281.765106 
L 773.032754 281.735702 
L 769.717158 281.735702 
z
" style="fill:#73b55b;"/>
   </g>
   <g id="matplotlib.axis_1">
    <g id="xtick_1">
     <g id="line2d_1">
      <defs>
       <path d="M 0 0 
L 0 3.5 
" id="m3a306c429b" style="stroke:#d2d2d2;stroke-width:0.8;"/>
      </defs>
      <g>
       <use style="fill:#d2d2d2;stroke:#d2d2d2;stroke-width:0.8;" x="108" xlink:href="#m3a306c429b" y="283.5"/>
      </g>
     </g>
     <g id="text_1">
      <!-- 0.00 -->
      <defs>
       <path d="M 31.78125 66.40625 
Q 24.171875 66.40625 20.328125 58.90625 
Q 16.5 51.421875 16.5 36.375 
Q 16.5 21.390625 20.328125 13.890625 
Q 24.171875 6.390625 31.78125 6.390625 
Q 39.453125 6.390625 43.28125 13.890625 
Q 47.125 21.390625 47.125 36.375 
Q 47.125 51.421875 43.28125 58.90625 
Q 39.453125 66.40625 31.78125 66.40625 
z
M 31.78125 74.21875 
Q 44.046875 74.21875 50.515625 64.515625 
Q 56.984375 54.828125 56.984375 36.375 
Q 56.984375 17.96875 50.515625 8.265625 
Q 44.046875 -1.421875 31.78125 -1.421875 
Q 19.53125 -1.421875 13.0625 8.265625 
Q 6.59375 17.96875 6.59375 36.375 
Q 6.59375 54.828125 13.0625 64.515625 
Q 19.53125 74.21875 31.78125 74.21875 
z
" id="DejaVuSans-30"/>
       <path d="M 10.6875 12.40625 
L 21 12.40625 
L 21 0 
L 10.6875 0 
z
" id="DejaVuSans-2e"/>
      </defs>
      <g style="fill:#d2d2d2;" transform="translate(96.867188 298.098437)scale(0.1 -0.1)">
       <use xlink:href="#DejaVuSans-30"/>
       <use x="63.623047" xlink:href="#DejaVuSans-2e"/>
       <use x="95.410156" xlink:href="#DejaVuSans-30"/>
       <use x="159.033203" xlink:href="#DejaVuSans-30"/>
      </g>
     </g>
    </g>
    <g id="xtick_2">
     <g id="line2d_2">
      <g>
       <use style="fill:#d2d2d2;stroke:#d2d2d2;stroke-width:0.8;" x="203.657143" xlink:href="#m3a306c429b" y="283.5"/>
      </g>
     </g>
     <g id="text_2">
      <!-- 0.50 -->
      <defs>
       <path d="M 10.796875 72.90625 
L 49.515625 72.90625 
L 49.515625 64.59375 
L 19.828125 64.59375 
L 19.828125 46.734375 
Q 21.96875 47.46875 24.109375 47.828125 
Q 26.265625 48.1875 28.421875 48.1875 
Q 40.625 48.1875 47.75 41.5 
Q 54.890625 34.8125 54.890625 23.390625 
Q 54.890625 11.625 47.5625 5.09375 
Q 40.234375 -1.421875 26.90625 -1.421875 
Q 22.3125 -1.421875 17.546875 -0.640625 
Q 12.796875 0.140625 7.71875 1.703125 
L 7.71875 11.625 
Q 12.109375 9.234375 16.796875 8.0625 
Q 21.484375 6.890625 26.703125 6.890625 
Q 35.15625 6.890625 40.078125 11.328125 
Q 45.015625 15.765625 45.015625 23.390625 
Q 45.015625 31 40.078125 35.4375 
Q 35.15625 39.890625 26.703125 39.890625 
Q 22.75 39.890625 18.8125 39.015625 
Q 14.890625 38.140625 10.796875 36.28125 
z
" id="DejaVuSans-35"/>
      </defs>
      <g style="fill:#d2d2d2;" transform="translate(192.52433 298.098437)scale(0.1 -0.1)">
       <use xlink:href="#DejaVuSans-30"/>
       <use x="63.623047" xlink:href="#DejaVuSans-2e"/>
       <use x="95.410156" xlink:href="#DejaVuSans-35"/>
       <use x="159.033203" xlink:href="#DejaVuSans-30"/>
      </g>
     </g>
    </g>
    <g id="xtick_3">
     <g id="line2d_3">
      <g>
       <use style="fill:#d2d2d2;stroke:#d2d2d2;stroke-width:0.8;" x="299.314286" xlink:href="#m3a306c429b" y="283.5"/>
      </g>
     </g>
     <g id="text_3">
      <!-- 1.00 -->
      <defs>
       <path d="M 12.40625 8.296875 
L 28.515625 8.296875 
L 28.515625 63.921875 
L 10.984375 60.40625 
L 10.984375 69.390625 
L 28.421875 72.90625 
L 38.28125 72.90625 
L 38.28125 8.296875 
L 54.390625 8.296875 
L 54.390625 0 
L 12.40625 0 
z
" id="DejaVuSans-31"/>
      </defs>
      <g style="fill:#d2d2d2;" transform="translate(288.181473 298.098437)scale(0.1 -0.1)">
       <use xlink:href="#DejaVuSans-31"/>
       <use x="63.623047" xlink:href="#DejaVuSans-2e"/>
       <use x="95.410156" xlink:href="#DejaVuSans-30"/>
       <use x="159.033203" xlink:href="#DejaVuSans-30"/>
      </g>
     </g>
    </g>
    <g id="xtick_4">
     <g id="line2d_4">
      <g>
       <use style="fill:#d2d2d2;stroke:#d2d2d2;stroke-width:0.8;" x="394.971429" xlink:href="#m3a306c429b" y="283.5"/>
      </g>
     </g>
     <g id="text_4">
      <!-- 1.50 -->
      <g style="fill:#d2d2d2;" transform="translate(383.838616 298.098437)scale(0.1 -0.1)">
       <use xlink:href="#DejaVuSans-31"/>
       <use x="63.623047" xlink:href="#DejaVuSans-2e"/>
       <use x="95.410156" xlink:href="#DejaVuSans-35"/>
       <use x="159.033203" xlink:href="#DejaVuSans-30"/>
      </g>
     </g>
    </g>
    <g id="xtick_5">
     <g id="line2d_5">
      <g>
       <use style="fill:#d2d2d2;stroke:#d2d2d2;stroke-width:0.8;" x="490.628571" xlink:href="#m3a306c429b" y="283.5"/>
      </g>
     </g>
     <g id="text_5">
      <!-- 2.00 -->
      <defs>
       <path d="M 19.1875 8.296875 
L 53.609375 8.296875 
L 53.609375 0 
L 7.328125 0 
L 7.328125 8.296875 
Q 12.9375 14.109375 22.625 23.890625 
Q 32.328125 33.6875 34.8125 36.53125 
Q 39.546875 41.84375 41.421875 45.53125 
Q 43.3125 49.21875 43.3125 52.78125 
Q 43.3125 58.59375 39.234375 62.25 
Q 35.15625 65.921875 28.609375 65.921875 
Q 23.96875 65.921875 18.8125 64.3125 
Q 13.671875 62.703125 7.8125 59.421875 
L 7.8125 69.390625 
Q 13.765625 71.78125 18.9375 73 
Q 24.125 74.21875 28.421875 74.21875 
Q 39.75 74.21875 46.484375 68.546875 
Q 53.21875 62.890625 53.21875 53.421875 
Q 53.21875 48.921875 51.53125 44.890625 
Q 49.859375 40.875 45.40625 35.40625 
Q 44.1875 33.984375 37.640625 27.21875 
Q 31.109375 20.453125 19.1875 8.296875 
z
" id="DejaVuSans-32"/>
      </defs>
      <g style="fill:#d2d2d2;" transform="translate(479.495759 298.098437)scale(0.1 -0.1)">
       <use xlink:href="#DejaVuSans-32"/>
       <use x="63.623047" xlink:href="#DejaVuSans-2e"/>
       <use x="95.410156" xlink:href="#DejaVuSans-30"/>
       <use x="159.033203" xlink:href="#DejaVuSans-30"/>
      </g>
     </g>
    </g>
    <g id="xtick_6">
     <g id="line2d_6">
      <g>
       <use style="fill:#d2d2d2;stroke:#d2d2d2;stroke-width:0.8;" x="586.285714" xlink:href="#m3a306c429b" y="283.5"/>
      </g>
     </g>
     <g id="text_6">
      <!-- 2.50 -->
      <g style="fill:#d2d2d2;" transform="translate(575.152902 298.098437)scale(0.1 -0.1)">
       <use xlink:href="#DejaVuSans-32"/>
       <use x="63.623047" xlink:href="#DejaVuSans-2e"/>
       <use x="95.410156" xlink:href="#DejaVuSans-35"/>
       <use x="159.033203" xlink:href="#DejaVuSans-30"/>
      </g>
     </g>
    </g>
    <g id="xtick_7">
     <g id="line2d_7">
      <g>
       <use style="fill:#d2d2d2;stroke:#d2d2d2;stroke-width:0.8;" x="681.942857" xlink:href="#m3a306c429b" y="283.5"/>
      </g>
     </g>
     <g id="text_7">
      <!-- 3.00 -->
      <defs>
       <path d="M 40.578125 39.3125 
Q 47.65625 37.796875 51.625 33 
Q 55.609375 28.21875 55.609375 21.1875 
Q 55.609375 10.40625 48.1875 4.484375 
Q 40.765625 -1.421875 27.09375 -1.421875 
Q 22.515625 -1.421875 17.65625 -0.515625 
Q 12.796875 0.390625 7.625 2.203125 
L 7.625 11.71875 
Q 11.71875 9.328125 16.59375 8.109375 
Q 21.484375 6.890625 26.8125 6.890625 
Q 36.078125 6.890625 40.9375 10.546875 
Q 45.796875 14.203125 45.796875 21.1875 
Q 45.796875 27.640625 41.28125 31.265625 
Q 36.765625 34.90625 28.71875 34.90625 
L 20.21875 34.90625 
L 20.21875 43.015625 
L 29.109375 43.015625 
Q 36.375 43.015625 40.234375 45.921875 
Q 44.09375 48.828125 44.09375 54.296875 
Q 44.09375 59.90625 40.109375 62.90625 
Q 36.140625 65.921875 28.71875 65.921875 
Q 24.65625 65.921875 20.015625 65.03125 
Q 15.375 64.15625 9.8125 62.3125 
L 9.8125 71.09375 
Q 15.4375 72.65625 20.34375 73.4375 
Q 25.25 74.21875 29.59375 74.21875 
Q 40.828125 74.21875 47.359375 69.109375 
Q 53.90625 64.015625 53.90625 55.328125 
Q 53.90625 49.265625 50.4375 45.09375 
Q 46.96875 40.921875 40.578125 39.3125 
z
" id="DejaVuSans-33"/>
      </defs>
      <g style="fill:#d2d2d2;" transform="translate(670.810045 298.098437)scale(0.1 -0.1)">
       <use xlink:href="#DejaVuSans-33"/>
       <use x="63.623047" xlink:href="#DejaVuSans-2e"/>
       <use x="95.410156" xlink:href="#DejaVuSans-30"/>
       <use x="159.033203" xlink:href="#DejaVuSans-30"/>
      </g>
     </g>
    </g>
    <g id="xtick_8">
     <g id="line2d_8">
      <g>
       <use style="fill:#d2d2d2;stroke:#d2d2d2;stroke-width:0.8;" x="777.6" xlink:href="#m3a306c429b" y="283.5"/>
      </g>
     </g>
     <g id="text_8">
      <!-- 3.50 -->
      <g style="fill:#d2d2d2;" transform="translate(766.467188 298.098437)scale(0.1 -0.1)">
       <use xlink:href="#DejaVuSans-33"/>
       <use x="63.623047" xlink:href="#DejaVuSans-2e"/>
       <use x="95.410156" xlink:href="#DejaVuSans-35"/>
       <use x="159.033203" xlink:href="#DejaVuSans-30"/>
      </g>
     </g>
    </g>
    <g id="text_9">
     <!-- 2014 UCLA Salaries in Millions USD -->
     <defs>
      <path d="M 37.796875 64.3125 
L 12.890625 25.390625 
L 37.796875 25.390625 
z
M 35.203125 72.90625 
L 47.609375 72.90625 
L 47.609375 25.390625 
L 58.015625 25.390625 
L 58.015625 17.1875 
L 47.609375 17.1875 
L 47.609375 0 
L 37.796875 0 
L 37.796875 17.1875 
L 4.890625 17.1875 
L 4.890625 26.703125 
z
" id="DejaVuSans-34"/>
      <path id="DejaVuSans-20"/>
      <path d="M 8.6875 72.90625 
L 18.609375 72.90625 
L 18.609375 28.609375 
Q 18.609375 16.890625 22.84375 11.734375 
Q 27.09375 6.59375 36.625 6.59375 
Q 46.09375 6.59375 50.34375 11.734375 
Q 54.59375 16.890625 54.59375 28.609375 
L 54.59375 72.90625 
L 64.5 72.90625 
L 64.5 27.390625 
Q 64.5 13.140625 57.4375 5.859375 
Q 50.390625 -1.421875 36.625 -1.421875 
Q 22.796875 -1.421875 15.734375 5.859375 
Q 8.6875 13.140625 8.6875 27.390625 
z
" id="DejaVuSans-55"/>
      <path d="M 64.40625 67.28125 
L 64.40625 56.890625 
Q 59.421875 61.53125 53.78125 63.8125 
Q 48.140625 66.109375 41.796875 66.109375 
Q 29.296875 66.109375 22.65625 58.46875 
Q 16.015625 50.828125 16.015625 36.375 
Q 16.015625 21.96875 22.65625 14.328125 
Q 29.296875 6.6875 41.796875 6.6875 
Q 48.140625 6.6875 53.78125 8.984375 
Q 59.421875 11.28125 64.40625 15.921875 
L 64.40625 5.609375 
Q 59.234375 2.09375 53.4375 0.328125 
Q 47.65625 -1.421875 41.21875 -1.421875 
Q 24.65625 -1.421875 15.125 8.703125 
Q 5.609375 18.84375 5.609375 36.375 
Q 5.609375 53.953125 15.125 64.078125 
Q 24.65625 74.21875 41.21875 74.21875 
Q 47.75 74.21875 53.53125 72.484375 
Q 59.328125 70.75 64.40625 67.28125 
z
" id="DejaVuSans-43"/>
      <path d="M 9.8125 72.90625 
L 19.671875 72.90625 
L 19.671875 8.296875 
L 55.171875 8.296875 
L 55.171875 0 
L 9.8125 0 
z
" id="DejaVuSans-4c"/>
      <path d="M 34.1875 63.1875 
L 20.796875 26.90625 
L 47.609375 26.90625 
z
M 28.609375 72.90625 
L 39.796875 72.90625 
L 67.578125 0 
L 57.328125 0 
L 50.6875 18.703125 
L 17.828125 18.703125 
L 11.1875 0 
L 0.78125 0 
z
" id="DejaVuSans-41"/>
      <path d="M 53.515625 70.515625 
L 53.515625 60.890625 
Q 47.90625 63.578125 42.921875 64.890625 
Q 37.9375 66.21875 33.296875 66.21875 
Q 25.25 66.21875 20.875 63.09375 
Q 16.5 59.96875 16.5 54.203125 
Q 16.5 49.359375 19.40625 46.890625 
Q 22.3125 44.4375 30.421875 42.921875 
L 36.375 41.703125 
Q 47.40625 39.59375 52.65625 34.296875 
Q 57.90625 29 57.90625 20.125 
Q 57.90625 9.515625 50.796875 4.046875 
Q 43.703125 -1.421875 29.984375 -1.421875 
Q 24.8125 -1.421875 18.96875 -0.25 
Q 13.140625 0.921875 6.890625 3.21875 
L 6.890625 13.375 
Q 12.890625 10.015625 18.65625 8.296875 
Q 24.421875 6.59375 29.984375 6.59375 
Q 38.421875 6.59375 43.015625 9.90625 
Q 47.609375 13.234375 47.609375 19.390625 
Q 47.609375 24.75 44.3125 27.78125 
Q 41.015625 30.8125 33.5 32.328125 
L 27.484375 33.5 
Q 16.453125 35.6875 11.515625 40.375 
Q 6.59375 45.0625 6.59375 53.421875 
Q 6.59375 63.09375 13.40625 68.65625 
Q 20.21875 74.21875 32.171875 74.21875 
Q 37.3125 74.21875 42.625 73.28125 
Q 47.953125 72.359375 53.515625 70.515625 
z
" id="DejaVuSans-53"/>
      <path d="M 34.28125 27.484375 
Q 23.390625 27.484375 19.1875 25 
Q 14.984375 22.515625 14.984375 16.5 
Q 14.984375 11.71875 18.140625 8.90625 
Q 21.296875 6.109375 26.703125 6.109375 
Q 34.1875 6.109375 38.703125 11.40625 
Q 43.21875 16.703125 43.21875 25.484375 
L 43.21875 27.484375 
z
M 52.203125 31.203125 
L 52.203125 0 
L 43.21875 0 
L 43.21875 8.296875 
Q 40.140625 3.328125 35.546875 0.953125 
Q 30.953125 -1.421875 24.3125 -1.421875 
Q 15.921875 -1.421875 10.953125 3.296875 
Q 6 8.015625 6 15.921875 
Q 6 25.140625 12.171875 29.828125 
Q 18.359375 34.515625 30.609375 34.515625 
L 43.21875 34.515625 
L 43.21875 35.40625 
Q 43.21875 41.609375 39.140625 45 
Q 35.0625 48.390625 27.6875 48.390625 
Q 23 48.390625 18.546875 47.265625 
Q 14.109375 46.140625 10.015625 43.890625 
L 10.015625 52.203125 
Q 14.9375 54.109375 19.578125 55.046875 
Q 24.21875 56 28.609375 56 
Q 40.484375 56 46.34375 49.84375 
Q 52.203125 43.703125 52.203125 31.203125 
z
" id="DejaVuSans-61"/>
      <path d="M 9.421875 75.984375 
L 18.40625 75.984375 
L 18.40625 0 
L 9.421875 0 
z
" id="DejaVuSans-6c"/>
      <path d="M 41.109375 46.296875 
Q 39.59375 47.171875 37.8125 47.578125 
Q 36.03125 48 33.890625 48 
Q 26.265625 48 22.1875 43.046875 
Q 18.109375 38.09375 18.109375 28.8125 
L 18.109375 0 
L 9.078125 0 
L 9.078125 54.6875 
L 18.109375 54.6875 
L 18.109375 46.1875 
Q 20.953125 51.171875 25.484375 53.578125 
Q 30.03125 56 36.53125 56 
Q 37.453125 56 38.578125 55.875 
Q 39.703125 55.765625 41.0625 55.515625 
z
" id="DejaVuSans-72"/>
      <path d="M 9.421875 54.6875 
L 18.40625 54.6875 
L 18.40625 0 
L 9.421875 0 
z
M 9.421875 75.984375 
L 18.40625 75.984375 
L 18.40625 64.59375 
L 9.421875 64.59375 
z
" id="DejaVuSans-69"/>
      <path d="M 56.203125 29.59375 
L 56.203125 25.203125 
L 14.890625 25.203125 
Q 15.484375 15.921875 20.484375 11.0625 
Q 25.484375 6.203125 34.421875 6.203125 
Q 39.59375 6.203125 44.453125 7.46875 
Q 49.3125 8.734375 54.109375 11.28125 
L 54.109375 2.78125 
Q 49.265625 0.734375 44.1875 -0.34375 
Q 39.109375 -1.421875 33.890625 -1.421875 
Q 20.796875 -1.421875 13.15625 6.1875 
Q 5.515625 13.8125 5.515625 26.8125 
Q 5.515625 40.234375 12.765625 48.109375 
Q 20.015625 56 32.328125 56 
Q 43.359375 56 49.78125 48.890625 
Q 56.203125 41.796875 56.203125 29.59375 
z
M 47.21875 32.234375 
Q 47.125 39.59375 43.09375 43.984375 
Q 39.0625 48.390625 32.421875 48.390625 
Q 24.90625 48.390625 20.390625 44.140625 
Q 15.875 39.890625 15.1875 32.171875 
z
" id="DejaVuSans-65"/>
      <path d="M 44.28125 53.078125 
L 44.28125 44.578125 
Q 40.484375 46.53125 36.375 47.5 
Q 32.28125 48.484375 27.875 48.484375 
Q 21.1875 48.484375 17.84375 46.4375 
Q 14.5 44.390625 14.5 40.28125 
Q 14.5 37.15625 16.890625 35.375 
Q 19.28125 33.59375 26.515625 31.984375 
L 29.59375 31.296875 
Q 39.15625 29.25 43.1875 25.515625 
Q 47.21875 21.78125 47.21875 15.09375 
Q 47.21875 7.46875 41.1875 3.015625 
Q 35.15625 -1.421875 24.609375 -1.421875 
Q 20.21875 -1.421875 15.453125 -0.5625 
Q 10.6875 0.296875 5.421875 2 
L 5.421875 11.28125 
Q 10.40625 8.6875 15.234375 7.390625 
Q 20.0625 6.109375 24.8125 6.109375 
Q 31.15625 6.109375 34.5625 8.28125 
Q 37.984375 10.453125 37.984375 14.40625 
Q 37.984375 18.0625 35.515625 20.015625 
Q 33.0625 21.96875 24.703125 23.78125 
L 21.578125 24.515625 
Q 13.234375 26.265625 9.515625 29.90625 
Q 5.8125 33.546875 5.8125 39.890625 
Q 5.8125 47.609375 11.28125 51.796875 
Q 16.75 56 26.8125 56 
Q 31.78125 56 36.171875 55.265625 
Q 40.578125 54.546875 44.28125 53.078125 
z
" id="DejaVuSans-73"/>
      <path d="M 54.890625 33.015625 
L 54.890625 0 
L 45.90625 0 
L 45.90625 32.71875 
Q 45.90625 40.484375 42.875 44.328125 
Q 39.84375 48.1875 33.796875 48.1875 
Q 26.515625 48.1875 22.3125 43.546875 
Q 18.109375 38.921875 18.109375 30.90625 
L 18.109375 0 
L 9.078125 0 
L 9.078125 54.6875 
L 18.109375 54.6875 
L 18.109375 46.1875 
Q 21.34375 51.125 25.703125 53.5625 
Q 30.078125 56 35.796875 56 
Q 45.21875 56 50.046875 50.171875 
Q 54.890625 44.34375 54.890625 33.015625 
z
" id="DejaVuSans-6e"/>
      <path d="M 9.8125 72.90625 
L 24.515625 72.90625 
L 43.109375 23.296875 
L 61.8125 72.90625 
L 76.515625 72.90625 
L 76.515625 0 
L 66.890625 0 
L 66.890625 64.015625 
L 48.09375 14.015625 
L 38.1875 14.015625 
L 19.390625 64.015625 
L 19.390625 0 
L 9.8125 0 
z
" id="DejaVuSans-4d"/>
      <path d="M 30.609375 48.390625 
Q 23.390625 48.390625 19.1875 42.75 
Q 14.984375 37.109375 14.984375 27.296875 
Q 14.984375 17.484375 19.15625 11.84375 
Q 23.34375 6.203125 30.609375 6.203125 
Q 37.796875 6.203125 41.984375 11.859375 
Q 46.1875 17.53125 46.1875 27.296875 
Q 46.1875 37.015625 41.984375 42.703125 
Q 37.796875 48.390625 30.609375 48.390625 
z
M 30.609375 56 
Q 42.328125 56 49.015625 48.375 
Q 55.71875 40.765625 55.71875 27.296875 
Q 55.71875 13.875 49.015625 6.21875 
Q 42.328125 -1.421875 30.609375 -1.421875 
Q 18.84375 -1.421875 12.171875 6.21875 
Q 5.515625 13.875 5.515625 27.296875 
Q 5.515625 40.765625 12.171875 48.375 
Q 18.84375 56 30.609375 56 
z
" id="DejaVuSans-6f"/>
      <path d="M 19.671875 64.796875 
L 19.671875 8.109375 
L 31.59375 8.109375 
Q 46.6875 8.109375 53.6875 14.9375 
Q 60.6875 21.78125 60.6875 36.53125 
Q 60.6875 51.171875 53.6875 57.984375 
Q 46.6875 64.796875 31.59375 64.796875 
z
M 9.8125 72.90625 
L 30.078125 72.90625 
Q 51.265625 72.90625 61.171875 64.09375 
Q 71.09375 55.28125 71.09375 36.53125 
Q 71.09375 17.671875 61.125 8.828125 
Q 51.171875 0 30.078125 0 
L 9.8125 0 
z
" id="DejaVuSans-44"/>
     </defs>
     <g style="fill:#d2d2d2;" transform="translate(319.893125 314.815938)scale(0.14 -0.14)">
      <use xlink:href="#DejaVuSans-32"/>
      <use x="63.623047" xlink:href="#DejaVuSans-30"/>
      <use x="127.246094" xlink:href="#DejaVuSans-31"/>
      <use x="190.869141" xlink:href="#DejaVuSans-34"/>
      <use x="254.492188" xlink:href="#DejaVuSans-20"/>
      <use x="286.279297" xlink:href="#DejaVuSans-55"/>
      <use x="359.472656" xlink:href="#DejaVuSans-43"/>
      <use x="429.296875" xlink:href="#DejaVuSans-4c"/>
      <use x="485.041016" xlink:href="#DejaVuSans-41"/>
      <use x="553.449219" xlink:href="#DejaVuSans-20"/>
      <use x="585.236328" xlink:href="#DejaVuSans-53"/>
      <use x="648.712891" xlink:href="#DejaVuSans-61"/>
      <use x="709.992188" xlink:href="#DejaVuSans-6c"/>
      <use x="737.775391" xlink:href="#DejaVuSans-61"/>
      <use x="799.054688" xlink:href="#DejaVuSans-72"/>
      <use x="840.167969" xlink:href="#DejaVuSans-69"/>
      <use x="867.951172" xlink:href="#DejaVuSans-65"/>
      <use x="929.474609" xlink:href="#DejaVuSans-73"/>
      <use x="981.574219" xlink:href="#DejaVuSans-20"/>
      <use x="1013.361328" xlink:href="#DejaVuSans-69"/>
      <use x="1041.144531" xlink:href="#DejaVuSans-6e"/>
      <use x="1104.523438" xlink:href="#DejaVuSans-20"/>
      <use x="1136.310547" xlink:href="#DejaVuSans-4d"/>
      <use x="1222.589844" xlink:href="#DejaVuSans-69"/>
      <use x="1250.373047" xlink:href="#DejaVuSans-6c"/>
      <use x="1278.15625" xlink:href="#DejaVuSans-6c"/>
      <use x="1305.939453" xlink:href="#DejaVuSans-69"/>
      <use x="1333.722656" xlink:href="#DejaVuSans-6f"/>
      <use x="1394.904297" xlink:href="#DejaVuSans-6e"/>
      <use x="1458.283203" xlink:href="#DejaVuSans-73"/>
      <use x="1510.382812" xlink:href="#DejaVuSans-20"/>
      <use x="1542.169922" xlink:href="#DejaVuSans-55"/>
      <use x="1615.363281" xlink:href="#DejaVuSans-53"/>
      <use x="1678.839844" xlink:href="#DejaVuSans-44"/>
     </g>
    </g>
   </g>
   <g id="matplotlib.axis_2"/>
   <g id="line2d_9">
    <path clip-path="url(#p8cc5ed9081)" d="M 123.51056 283.5 
L 123.51056 38.88 
" style="fill:none;stroke:#f79a52;stroke-linecap:square;stroke-width:2;"/>
   </g>
   <g id="line2d_10">
    <path clip-path="url(#p8cc5ed9081)" d="M 119.104072 283.5 
L 119.104072 38.88 
" style="fill:none;stroke:#4682b4;stroke-linecap:square;stroke-width:1.5;"/>
   </g>
   <g id="patch_203">
    <path d="M 142.709856 80.512394 
Q 134.050017 83.644767 126.441547 86.396846 
" style="fill:none;stroke:#f79a52;stroke-linecap:round;"/>
    <path d="M 131.771686 87.021046 
L 126.441547 86.396846 
L 130.13899 82.507256 
L 131.771686 87.021046 
z
" style="fill:#f79a52;stroke:#f79a52;stroke-linecap:round;"/>
   </g>
   <g id="text_10">
    <!-- $\mu=$\$81,074 -->
    <defs>
     <path d="M -1.3125 -20.796875 
L 13.375 54.6875 
L 22.40625 54.6875 
L 15.765625 20.65625 
Q 15.578125 19.625 15.421875 18.359375 
Q 15.28125 17.09375 15.28125 15.828125 
Q 15.28125 11.28125 18.140625 8.828125 
Q 21 6.390625 26.3125 6.390625 
Q 33.546875 6.390625 37.984375 10.484375 
Q 42.4375 14.59375 44 22.796875 
L 50.203125 54.6875 
L 59.1875 54.6875 
L 51.03125 12.640625 
Q 50.828125 11.71875 50.75 11.03125 
Q 50.6875 10.359375 50.6875 9.8125 
Q 50.6875 8.296875 51.296875 7.59375 
Q 51.90625 6.890625 53.21875 6.890625 
Q 53.71875 6.890625 54.5625 7.125 
Q 55.421875 7.375 56.984375 8.015625 
L 55.609375 0.78125 
Q 53.46875 -0.296875 51.515625 -0.859375 
Q 49.5625 -1.421875 47.703125 -1.421875 
Q 44.484375 -1.421875 42.65625 0.625 
Q 40.828125 2.6875 40.828125 6.296875 
Q 38.09375 2.390625 34.296875 0.484375 
Q 30.515625 -1.421875 25.390625 -1.421875 
Q 20.84375 -1.421875 17.453125 0.671875 
Q 14.0625 2.78125 12.984375 6.203125 
L 7.71875 -20.796875 
z
" id="DejaVuSans-Oblique-3bc"/>
     <path d="M 10.59375 45.40625 
L 73.1875 45.40625 
L 73.1875 37.203125 
L 10.59375 37.203125 
z
M 10.59375 25.484375 
L 73.1875 25.484375 
L 73.1875 17.1875 
L 10.59375 17.1875 
z
" id="DejaVuSans-3d"/>
     <path d="M 33.796875 -14.703125 
L 28.90625 -14.703125 
L 28.859375 0 
Q 23.734375 0.09375 18.609375 1.1875 
Q 13.484375 2.296875 8.296875 4.5 
L 8.296875 13.28125 
Q 13.28125 10.15625 18.375 8.5625 
Q 23.484375 6.984375 28.90625 6.9375 
L 28.90625 29.203125 
Q 18.109375 30.953125 13.203125 35.15625 
Q 8.296875 39.359375 8.296875 46.6875 
Q 8.296875 54.640625 13.625 59.21875 
Q 18.953125 63.8125 28.90625 64.5 
L 28.90625 75.984375 
L 33.796875 75.984375 
L 33.796875 64.65625 
Q 38.328125 64.453125 42.578125 63.6875 
Q 46.828125 62.9375 50.875 61.625 
L 50.875 53.078125 
Q 46.828125 55.125 42.546875 56.25 
Q 38.28125 57.375 33.796875 57.5625 
L 33.796875 36.71875 
Q 44.875 35.015625 50.09375 30.609375 
Q 55.328125 26.21875 55.328125 18.609375 
Q 55.328125 10.359375 49.78125 5.59375 
Q 44.234375 0.828125 33.796875 0.09375 
z
M 28.90625 37.59375 
L 28.90625 57.625 
Q 23.25 56.984375 20.265625 54.390625 
Q 17.28125 51.8125 17.28125 47.515625 
Q 17.28125 43.3125 20.03125 40.96875 
Q 22.796875 38.625 28.90625 37.59375 
z
M 33.796875 28.21875 
L 33.796875 7.078125 
Q 39.984375 7.90625 43.140625 10.59375 
Q 46.296875 13.28125 46.296875 17.671875 
Q 46.296875 21.96875 43.28125 24.5 
Q 40.28125 27.046875 33.796875 28.21875 
z
" id="DejaVuSans-24"/>
     <path d="M 31.78125 34.625 
Q 24.75 34.625 20.71875 30.859375 
Q 16.703125 27.09375 16.703125 20.515625 
Q 16.703125 13.921875 20.71875 10.15625 
Q 24.75 6.390625 31.78125 6.390625 
Q 38.8125 6.390625 42.859375 10.171875 
Q 46.921875 13.96875 46.921875 20.515625 
Q 46.921875 27.09375 42.890625 30.859375 
Q 38.875 34.625 31.78125 34.625 
z
M 21.921875 38.8125 
Q 15.578125 40.375 12.03125 44.71875 
Q 8.5 49.078125 8.5 55.328125 
Q 8.5 64.0625 14.71875 69.140625 
Q 20.953125 74.21875 31.78125 74.21875 
Q 42.671875 74.21875 48.875 69.140625 
Q 55.078125 64.0625 55.078125 55.328125 
Q 55.078125 49.078125 51.53125 44.71875 
Q 48 40.375 41.703125 38.8125 
Q 48.828125 37.15625 52.796875 32.3125 
Q 56.78125 27.484375 56.78125 20.515625 
Q 56.78125 9.90625 50.3125 4.234375 
Q 43.84375 -1.421875 31.78125 -1.421875 
Q 19.734375 -1.421875 13.25 4.234375 
Q 6.78125 9.90625 6.78125 20.515625 
Q 6.78125 27.484375 10.78125 32.3125 
Q 14.796875 37.15625 21.921875 38.8125 
z
M 18.3125 54.390625 
Q 18.3125 48.734375 21.84375 45.5625 
Q 25.390625 42.390625 31.78125 42.390625 
Q 38.140625 42.390625 41.71875 45.5625 
Q 45.3125 48.734375 45.3125 54.390625 
Q 45.3125 60.0625 41.71875 63.234375 
Q 38.140625 66.40625 31.78125 66.40625 
Q 25.390625 66.40625 21.84375 63.234375 
Q 18.3125 60.0625 18.3125 54.390625 
z
" id="DejaVuSans-38"/>
     <path d="M 11.71875 12.40625 
L 22.015625 12.40625 
L 22.015625 4 
L 14.015625 -11.625 
L 7.71875 -11.625 
L 11.71875 4 
z
" id="DejaVuSans-2c"/>
     <path d="M 8.203125 72.90625 
L 55.078125 72.90625 
L 55.078125 68.703125 
L 28.609375 0 
L 18.3125 0 
L 43.21875 64.59375 
L 8.203125 64.59375 
z
" id="DejaVuSans-37"/>
    </defs>
    <g style="fill:#f79a52;" transform="translate(130.208145 75.312766)scale(0.12 -0.12)">
     <use transform="translate(0 0.015625)" xlink:href="#DejaVuSans-Oblique-3bc"/>
     <use transform="translate(83.105469 0.015625)" xlink:href="#DejaVuSans-3d"/>
     <use transform="translate(186.376953 0.015625)" xlink:href="#DejaVuSans-24"/>
     <use transform="translate(250 0.015625)" xlink:href="#DejaVuSans-38"/>
     <use transform="translate(313.623047 0.015625)" xlink:href="#DejaVuSans-31"/>
     <use transform="translate(377.246094 0.015625)" xlink:href="#DejaVuSans-2c"/>
     <use transform="translate(409.033203 0.015625)" xlink:href="#DejaVuSans-30"/>
     <use transform="translate(472.65625 0.015625)" xlink:href="#DejaVuSans-37"/>
     <use transform="translate(536.279297 0.015625)" xlink:href="#DejaVuSans-34"/>
    </g>
   </g>
   <g id="patch_204">
    <path d="M 144.166397 56.065311 
Q 132.597405 59.344211 122.104079 62.318244 
" style="fill:none;stroke:#4682b4;stroke-linecap:round;"/>
    <path d="M 127.376615 63.318426 
L 122.104079 62.318244 
L 126.067746 58.700325 
L 127.376615 63.318426 
z
" style="fill:#4682b4;stroke:#4682b4;stroke-linecap:round;"/>
   </g>
   <g id="text_11">
    <!-- MED=$58,041 -->
    <defs>
     <path d="M 9.8125 72.90625 
L 55.90625 72.90625 
L 55.90625 64.59375 
L 19.671875 64.59375 
L 19.671875 43.015625 
L 54.390625 43.015625 
L 54.390625 34.71875 
L 19.671875 34.71875 
L 19.671875 8.296875 
L 56.78125 8.296875 
L 56.78125 0 
L 9.8125 0 
z
" id="DejaVuSans-45"/>
    </defs>
    <g style="fill:#4682b4;" transform="translate(130.208145 51.024255)scale(0.12 -0.12)">
     <use xlink:href="#DejaVuSans-4d"/>
     <use x="86.279297" xlink:href="#DejaVuSans-45"/>
     <use x="149.462891" xlink:href="#DejaVuSans-44"/>
     <use x="226.464844" xlink:href="#DejaVuSans-3d"/>
     <use x="310.253906" xlink:href="#DejaVuSans-24"/>
     <use x="373.876953" xlink:href="#DejaVuSans-35"/>
     <use x="437.5" xlink:href="#DejaVuSans-38"/>
     <use x="501.123047" xlink:href="#DejaVuSans-2c"/>
     <use x="532.910156" xlink:href="#DejaVuSans-30"/>
     <use x="596.533203" xlink:href="#DejaVuSans-34"/>
     <use x="660.15625" xlink:href="#DejaVuSans-31"/>
    </g>
   </g>
  </g>
  <g id="axes_2">
   <g id="patch_205">
    <path d="M 216 243 
L 475.2 243 
L 475.2 64.8 
L 216 64.8 
z
" style="fill:none;"/>
   </g>
   <g id="patch_206">
    <path clip-path="url(#p65fa18f421)" d="M 227.781818 243 
L 232.494545 243 
L 232.494545 132.62447 
L 227.781818 132.62447 
z
" style="fill:#73b55b;"/>
   </g>
   <g id="patch_207">
    <path clip-path="url(#p65fa18f421)" d="M 232.494545 243 
L 237.207273 243 
L 237.207273 147.050865 
L 232.494545 147.050865 
z
" style="fill:#73b55b;"/>
   </g>
   <g id="patch_208">
    <path clip-path="url(#p65fa18f421)" d="M 237.207273 243 
L 241.92 243 
L 241.92 156.713827 
L 237.207273 156.713827 
z
" style="fill:#73b55b;"/>
   </g>
   <g id="patch_209">
    <path clip-path="url(#p65fa18f421)" d="M 241.92 243 
L 246.632727 243 
L 246.632727 170.323634 
L 241.92 170.323634 
z
" style="fill:#73b55b;"/>
   </g>
   <g id="patch_210">
    <path clip-path="url(#p65fa18f421)" d="M 246.632727 243 
L 251.345455 243 
L 251.345455 164.879711 
L 246.632727 164.879711 
z
" style="fill:#73b55b;"/>
   </g>
   <g id="patch_211">
    <path clip-path="url(#p65fa18f421)" d="M 251.345455 243 
L 256.058182 243 
L 256.058182 166.512888 
L 251.345455 166.512888 
z
" style="fill:#73b55b;"/>
   </g>
   <g id="patch_212">
    <path clip-path="url(#p65fa18f421)" d="M 256.058182 243 
L 260.770909 243 
L 260.770909 168.146065 
L 256.058182 168.146065 
z
" style="fill:#73b55b;"/>
   </g>
   <g id="patch_213">
    <path clip-path="url(#p65fa18f421)" d="M 260.770909 243 
L 265.483636 243 
L 265.483636 171.140222 
L 260.770909 171.140222 
z
" style="fill:#73b55b;"/>
   </g>
   <g id="patch_214">
    <path clip-path="url(#p65fa18f421)" d="M 265.483636 243 
L 270.196364 243 
L 270.196364 167.465575 
L 265.483636 167.465575 
z
" style="fill:#73b55b;"/>
   </g>
   <g id="patch_215">
    <path clip-path="url(#p65fa18f421)" d="M 270.196364 243 
L 274.909091 243 
L 274.909091 163.382633 
L 270.196364 163.382633 
z
" style="fill:#73b55b;"/>
   </g>
   <g id="patch_216">
    <path clip-path="url(#p65fa18f421)" d="M 274.909091 243 
L 279.621818 243 
L 279.621818 153.03918 
L 274.909091 153.03918 
z
" style="fill:#73b55b;"/>
   </g>
   <g id="patch_217">
    <path clip-path="url(#p65fa18f421)" d="M 279.621818 243 
L 284.334545 243 
L 284.334545 126.091763 
L 279.621818 126.091763 
z
" style="fill:#73b55b;"/>
   </g>
   <g id="patch_218">
    <path clip-path="url(#p65fa18f421)" d="M 284.334545 243 
L 289.047273 243 
L 289.047273 120.647841 
L 284.334545 120.647841 
z
" style="fill:#73b55b;"/>
   </g>
   <g id="patch_219">
    <path clip-path="url(#p65fa18f421)" d="M 289.047273 243 
L 293.76 243 
L 293.76 92.883835 
L 289.047273 92.883835 
z
" style="fill:#73b55b;"/>
   </g>
   <g id="patch_220">
    <path clip-path="url(#p65fa18f421)" d="M 293.76 243 
L 298.472727 243 
L 298.472727 91.114561 
L 293.76 91.114561 
z
" style="fill:#73b55b;"/>
   </g>
   <g id="patch_221">
    <path clip-path="url(#p65fa18f421)" d="M 298.472727 243 
L 303.185455 243 
L 303.185455 73.285714 
L 298.472727 73.285714 
z
" style="fill:#73b55b;"/>
   </g>
   <g id="patch_222">
    <path clip-path="url(#p65fa18f421)" d="M 303.185455 243 
L 307.898182 243 
L 307.898182 89.889678 
L 303.185455 89.889678 
z
" style="fill:#73b55b;"/>
   </g>
   <g id="patch_223">
    <path clip-path="url(#p65fa18f421)" d="M 307.898182 243 
L 312.610909 243 
L 312.610909 99.824837 
L 307.898182 99.824837 
z
" style="fill:#73b55b;"/>
   </g>
   <g id="patch_224">
    <path clip-path="url(#p65fa18f421)" d="M 312.610909 243 
L 317.323636 243 
L 317.323636 94.380914 
L 312.610909 94.380914 
z
" style="fill:#73b55b;"/>
   </g>
   <g id="patch_225">
    <path clip-path="url(#p65fa18f421)" d="M 317.323636 243 
L 322.036364 243 
L 322.036364 108.126819 
L 317.323636 108.126819 
z
" style="fill:#73b55b;"/>
   </g>
   <g id="patch_226">
    <path clip-path="url(#p65fa18f421)" d="M 322.036364 243 
L 326.749091 243 
L 326.749091 112.481957 
L 322.036364 112.481957 
z
" style="fill:#73b55b;"/>
   </g>
   <g id="patch_227">
    <path clip-path="url(#p65fa18f421)" d="M 326.749091 243 
L 331.461818 243 
L 331.461818 135.618628 
L 326.749091 135.618628 
z
" style="fill:#73b55b;"/>
   </g>
   <g id="patch_228">
    <path clip-path="url(#p65fa18f421)" d="M 331.461818 243 
L 336.174545 243 
L 336.174545 135.346431 
L 331.461818 135.346431 
z
" style="fill:#73b55b;"/>
   </g>
   <g id="patch_229">
    <path clip-path="url(#p65fa18f421)" d="M 336.174545 243 
L 340.887273 243 
L 340.887273 143.104021 
L 336.174545 143.104021 
z
" style="fill:#73b55b;"/>
   </g>
   <g id="patch_230">
    <path clip-path="url(#p65fa18f421)" d="M 340.887273 243 
L 345.6 243 
L 345.6 149.50063 
L 340.887273 149.50063 
z
" style="fill:#73b55b;"/>
   </g>
   <g id="patch_231">
    <path clip-path="url(#p65fa18f421)" d="M 345.6 243 
L 350.312727 243 
L 350.312727 164.743613 
L 345.6 164.743613 
z
" style="fill:#73b55b;"/>
   </g>
   <g id="patch_232">
    <path clip-path="url(#p65fa18f421)" d="M 350.312727 243 
L 355.025455 243 
L 355.025455 169.779242 
L 350.312727 169.779242 
z
" style="fill:#73b55b;"/>
   </g>
   <g id="patch_233">
    <path clip-path="url(#p65fa18f421)" d="M 355.025455 243 
L 359.738182 243 
L 359.738182 176.720243 
L 355.025455 176.720243 
z
" style="fill:#73b55b;"/>
   </g>
   <g id="patch_234">
    <path clip-path="url(#p65fa18f421)" d="M 359.738182 243 
L 364.450909 243 
L 364.450909 173.726085 
L 359.738182 173.726085 
z
" style="fill:#73b55b;"/>
   </g>
   <g id="patch_235">
    <path clip-path="url(#p65fa18f421)" d="M 364.450909 243 
L 369.163636 243 
L 369.163636 186.383205 
L 364.450909 186.383205 
z
" style="fill:#73b55b;"/>
   </g>
   <g id="patch_236">
    <path clip-path="url(#p65fa18f421)" d="M 369.163636 243 
L 373.876364 243 
L 373.876364 189.241265 
L 369.163636 189.241265 
z
" style="fill:#73b55b;"/>
   </g>
   <g id="patch_237">
    <path clip-path="url(#p65fa18f421)" d="M 373.876364 243 
L 378.589091 243 
L 378.589091 195.365678 
L 373.876364 195.365678 
z
" style="fill:#73b55b;"/>
   </g>
   <g id="patch_238">
    <path clip-path="url(#p65fa18f421)" d="M 378.589091 243 
L 383.301818 243 
L 383.301818 192.37152 
L 378.589091 192.37152 
z
" style="fill:#73b55b;"/>
   </g>
   <g id="patch_239">
    <path clip-path="url(#p65fa18f421)" d="M 383.301818 243 
L 388.014545 243 
L 388.014545 192.37152 
L 383.301818 192.37152 
z
" style="fill:#73b55b;"/>
   </g>
   <g id="patch_240">
    <path clip-path="url(#p65fa18f421)" d="M 388.014545 243 
L 392.727273 243 
L 392.727273 190.874442 
L 388.014545 190.874442 
z
" style="fill:#73b55b;"/>
   </g>
   <g id="patch_241">
    <path clip-path="url(#p65fa18f421)" d="M 392.727273 243 
L 397.44 243 
L 397.44 187.199794 
L 392.727273 187.199794 
z
" style="fill:#73b55b;"/>
   </g>
   <g id="patch_242">
    <path clip-path="url(#p65fa18f421)" d="M 397.44 243 
L 402.152727 243 
L 402.152727 195.91007 
L 397.44 195.91007 
z
" style="fill:#73b55b;"/>
   </g>
   <g id="patch_243">
    <path clip-path="url(#p65fa18f421)" d="M 402.152727 243 
L 406.865455 243 
L 406.865455 199.720816 
L 402.152727 199.720816 
z
" style="fill:#73b55b;"/>
   </g>
   <g id="patch_244">
    <path clip-path="url(#p65fa18f421)" d="M 406.865455 243 
L 411.578182 243 
L 411.578182 197.815443 
L 406.865455 197.815443 
z
" style="fill:#73b55b;"/>
   </g>
   <g id="patch_245">
    <path clip-path="url(#p65fa18f421)" d="M 411.578182 243 
L 416.290909 243 
L 416.290909 201.217894 
L 411.578182 201.217894 
z
" style="fill:#73b55b;"/>
   </g>
   <g id="patch_246">
    <path clip-path="url(#p65fa18f421)" d="M 416.290909 243 
L 421.003636 243 
L 421.003636 201.762287 
L 416.290909 201.762287 
z
" style="fill:#73b55b;"/>
   </g>
   <g id="patch_247">
    <path clip-path="url(#p65fa18f421)" d="M 421.003636 243 
L 425.716364 243 
L 425.716364 203.803758 
L 421.003636 203.803758 
z
" style="fill:#73b55b;"/>
   </g>
   <g id="patch_248">
    <path clip-path="url(#p65fa18f421)" d="M 425.716364 243 
L 430.429091 243 
L 430.429091 207.342307 
L 425.716364 207.342307 
z
" style="fill:#73b55b;"/>
   </g>
   <g id="patch_249">
    <path clip-path="url(#p65fa18f421)" d="M 430.429091 243 
L 435.141818 243 
L 435.141818 207.070111 
L 430.429091 207.070111 
z
" style="fill:#73b55b;"/>
   </g>
   <g id="patch_250">
    <path clip-path="url(#p65fa18f421)" d="M 435.141818 243 
L 439.854545 243 
L 439.854545 206.661817 
L 435.141818 206.661817 
z
" style="fill:#73b55b;"/>
   </g>
   <g id="patch_251">
    <path clip-path="url(#p65fa18f421)" d="M 439.854545 243 
L 444.567273 243 
L 444.567273 208.839386 
L 439.854545 208.839386 
z
" style="fill:#73b55b;"/>
   </g>
   <g id="patch_252">
    <path clip-path="url(#p65fa18f421)" d="M 444.567273 243 
L 449.28 243 
L 449.28 214.14721 
L 444.567273 214.14721 
z
" style="fill:#73b55b;"/>
   </g>
   <g id="patch_253">
    <path clip-path="url(#p65fa18f421)" d="M 449.28 243 
L 453.992727 243 
L 453.992727 212.514034 
L 449.28 212.514034 
z
" style="fill:#73b55b;"/>
   </g>
   <g id="patch_254">
    <path clip-path="url(#p65fa18f421)" d="M 453.992727 243 
L 458.705455 243 
L 458.705455 214.283309 
L 453.992727 214.283309 
z
" style="fill:#73b55b;"/>
   </g>
   <g id="patch_255">
    <path clip-path="url(#p65fa18f421)" d="M 458.705455 243 
L 463.418182 243 
L 463.418182 217.00527 
L 458.705455 217.00527 
z
" style="fill:#73b55b;"/>
   </g>
   <g id="matplotlib.axis_3">
    <g id="xtick_9">
     <g id="line2d_11">
      <defs>
       <path d="M 0 0 
L 0 -3.5 
" id="m6a118eb454" style="stroke:#d2d2d2;stroke-width:0.8;"/>
      </defs>
      <g>
       <use style="fill:#d2d2d2;stroke:#d2d2d2;stroke-width:0.8;" x="248.268908" xlink:href="#m6a118eb454" y="243"/>
      </g>
     </g>
     <g id="text_12">
      <!-- 0.02 -->
      <g style="fill:#d2d2d2;" transform="translate(240.475939 251.818906)scale(0.07 -0.07)">
       <use xlink:href="#DejaVuSans-30"/>
       <use x="63.623047" xlink:href="#DejaVuSans-2e"/>
       <use x="95.410156" xlink:href="#DejaVuSans-30"/>
       <use x="159.033203" xlink:href="#DejaVuSans-32"/>
      </g>
     </g>
    </g>
    <g id="xtick_10">
     <g id="line2d_12">
      <g>
       <use style="fill:#d2d2d2;stroke:#d2d2d2;stroke-width:0.8;" x="289.251283" xlink:href="#m6a118eb454" y="243"/>
      </g>
     </g>
     <g id="text_13">
      <!-- 0.04 -->
      <g style="fill:#d2d2d2;" transform="translate(281.458314 251.818906)scale(0.07 -0.07)">
       <use xlink:href="#DejaVuSans-30"/>
       <use x="63.623047" xlink:href="#DejaVuSans-2e"/>
       <use x="95.410156" xlink:href="#DejaVuSans-30"/>
       <use x="159.033203" xlink:href="#DejaVuSans-34"/>
      </g>
     </g>
    </g>
    <g id="xtick_11">
     <g id="line2d_13">
      <g>
       <use style="fill:#d2d2d2;stroke:#d2d2d2;stroke-width:0.8;" x="330.233658" xlink:href="#m6a118eb454" y="243"/>
      </g>
     </g>
     <g id="text_14">
      <!-- 0.06 -->
      <defs>
       <path d="M 33.015625 40.375 
Q 26.375 40.375 22.484375 35.828125 
Q 18.609375 31.296875 18.609375 23.390625 
Q 18.609375 15.53125 22.484375 10.953125 
Q 26.375 6.390625 33.015625 6.390625 
Q 39.65625 6.390625 43.53125 10.953125 
Q 47.40625 15.53125 47.40625 23.390625 
Q 47.40625 31.296875 43.53125 35.828125 
Q 39.65625 40.375 33.015625 40.375 
z
M 52.59375 71.296875 
L 52.59375 62.3125 
Q 48.875 64.0625 45.09375 64.984375 
Q 41.3125 65.921875 37.59375 65.921875 
Q 27.828125 65.921875 22.671875 59.328125 
Q 17.53125 52.734375 16.796875 39.40625 
Q 19.671875 43.65625 24.015625 45.921875 
Q 28.375 48.1875 33.59375 48.1875 
Q 44.578125 48.1875 50.953125 41.515625 
Q 57.328125 34.859375 57.328125 23.390625 
Q 57.328125 12.15625 50.6875 5.359375 
Q 44.046875 -1.421875 33.015625 -1.421875 
Q 20.359375 -1.421875 13.671875 8.265625 
Q 6.984375 17.96875 6.984375 36.375 
Q 6.984375 53.65625 15.1875 63.9375 
Q 23.390625 74.21875 37.203125 74.21875 
Q 40.921875 74.21875 44.703125 73.484375 
Q 48.484375 72.75 52.59375 71.296875 
z
" id="DejaVuSans-36"/>
      </defs>
      <g style="fill:#d2d2d2;" transform="translate(322.44069 251.818906)scale(0.07 -0.07)">
       <use xlink:href="#DejaVuSans-30"/>
       <use x="63.623047" xlink:href="#DejaVuSans-2e"/>
       <use x="95.410156" xlink:href="#DejaVuSans-30"/>
       <use x="159.033203" xlink:href="#DejaVuSans-36"/>
      </g>
     </g>
    </g>
    <g id="xtick_12">
     <g id="line2d_14">
      <g>
       <use style="fill:#d2d2d2;stroke:#d2d2d2;stroke-width:0.8;" x="371.216034" xlink:href="#m6a118eb454" y="243"/>
      </g>
     </g>
     <g id="text_15">
      <!-- 0.08 -->
      <g style="fill:#d2d2d2;" transform="translate(363.423065 251.818906)scale(0.07 -0.07)">
       <use xlink:href="#DejaVuSans-30"/>
       <use x="63.623047" xlink:href="#DejaVuSans-2e"/>
       <use x="95.410156" xlink:href="#DejaVuSans-30"/>
       <use x="159.033203" xlink:href="#DejaVuSans-38"/>
      </g>
     </g>
    </g>
    <g id="xtick_13">
     <g id="line2d_15">
      <g>
       <use style="fill:#d2d2d2;stroke:#d2d2d2;stroke-width:0.8;" x="412.198409" xlink:href="#m6a118eb454" y="243"/>
      </g>
     </g>
     <g id="text_16">
      <!-- 0.10 -->
      <g style="fill:#d2d2d2;" transform="translate(404.40544 251.818906)scale(0.07 -0.07)">
       <use xlink:href="#DejaVuSans-30"/>
       <use x="63.623047" xlink:href="#DejaVuSans-2e"/>
       <use x="95.410156" xlink:href="#DejaVuSans-31"/>
       <use x="159.033203" xlink:href="#DejaVuSans-30"/>
      </g>
     </g>
    </g>
    <g id="xtick_14">
     <g id="line2d_16">
      <g>
       <use style="fill:#d2d2d2;stroke:#d2d2d2;stroke-width:0.8;" x="453.180784" xlink:href="#m6a118eb454" y="243"/>
      </g>
     </g>
     <g id="text_17">
      <!-- 0.12 -->
      <g style="fill:#d2d2d2;" transform="translate(445.387816 251.818906)scale(0.07 -0.07)">
       <use xlink:href="#DejaVuSans-30"/>
       <use x="63.623047" xlink:href="#DejaVuSans-2e"/>
       <use x="95.410156" xlink:href="#DejaVuSans-31"/>
       <use x="159.033203" xlink:href="#DejaVuSans-32"/>
      </g>
     </g>
    </g>
   </g>
   <g id="matplotlib.axis_4"/>
   <g id="line2d_17">
    <path clip-path="url(#p65fa18f421)" d="M 373.4162 243 
L 373.4162 64.8 
" style="fill:none;stroke:#f79a52;stroke-linecap:square;stroke-width:2;"/>
   </g>
   <g id="line2d_18">
    <path clip-path="url(#p65fa18f421)" d="M 326.219435 243 
L 326.219435 64.8 
" style="fill:none;stroke:#4682b4;stroke-linecap:square;stroke-width:1.5;"/>
   </g>
   <g id="patch_256">
    <path d="M 412.550159 115.292394 
Q 393.686607 134.376193 375.609022 152.664848 
" style="fill:none;stroke:#f79a52;stroke-linecap:round;"/>
    <path d="M 380.690256 150.938272 
L 375.609022 152.664848 
L 377.276501 147.563916 
L 380.690256 150.938272 
z
" style="fill:#f79a52;stroke:#f79a52;stroke-linecap:round;"/>
   </g>
   <g id="text_18">
    <!-- $\mu=$\$81,074 -->
    <g style="fill:#f79a52;" transform="translate(385.685886 109.35)scale(0.12 -0.12)">
     <use transform="translate(0 0.015625)" xlink:href="#DejaVuSans-Oblique-3bc"/>
     <use transform="translate(83.105469 0.015625)" xlink:href="#DejaVuSans-3d"/>
     <use transform="translate(186.376953 0.015625)" xlink:href="#DejaVuSans-24"/>
     <use transform="translate(250 0.015625)" xlink:href="#DejaVuSans-38"/>
     <use transform="translate(313.623047 0.015625)" xlink:href="#DejaVuSans-31"/>
     <use transform="translate(377.246094 0.015625)" xlink:href="#DejaVuSans-2c"/>
     <use transform="translate(409.033203 0.015625)" xlink:href="#DejaVuSans-30"/>
     <use transform="translate(472.65625 0.015625)" xlink:href="#DejaVuSans-37"/>
     <use transform="translate(536.279297 0.015625)" xlink:href="#DejaVuSans-34"/>
    </g>
   </g>
   <g id="patch_257">
    <path d="M 413.839013 79.203088 
Q 370.896916 103.954938 328.923464 128.148462 
" style="fill:none;stroke:#4682b4;stroke-linecap:round;"/>
    <path d="M 334.280614 127.83074 
L 328.923464 128.148462 
L 331.883576 123.672109 
L 334.280614 127.83074 
z
" style="fill:#4682b4;stroke:#4682b4;stroke-linecap:round;"/>
   </g>
   <g id="text_19">
    <!-- MED=$58,041 -->
    <g style="fill:#4682b4;" transform="translate(385.685886 73.71)scale(0.12 -0.12)">
     <use xlink:href="#DejaVuSans-4d"/>
     <use x="86.279297" xlink:href="#DejaVuSans-45"/>
     <use x="149.462891" xlink:href="#DejaVuSans-44"/>
     <use x="226.464844" xlink:href="#DejaVuSans-3d"/>
     <use x="310.253906" xlink:href="#DejaVuSans-24"/>
     <use x="373.876953" xlink:href="#DejaVuSans-35"/>
     <use x="437.5" xlink:href="#DejaVuSans-38"/>
     <use x="501.123047" xlink:href="#DejaVuSans-2c"/>
     <use x="532.910156" xlink:href="#DejaVuSans-30"/>
     <use x="596.533203" xlink:href="#DejaVuSans-34"/>
     <use x="660.15625" xlink:href="#DejaVuSans-31"/>
    </g>
   </g>
  </g>
  <g id="axes_3">
   <g id="patch_258">
    <path d="M 518.4 243 
L 777.6 243 
L 777.6 64.8 
L 518.4 64.8 
z
" style="fill:none;"/>
   </g>
   <g id="patch_259">
    <path clip-path="url(#pca20395814)" d="M 530.181818 243 
L 541.963636 243 
L 541.963636 73.285714 
L 530.181818 73.285714 
z
" style="fill:#73b55b;"/>
   </g>
   <g id="patch_260">
    <path clip-path="url(#pca20395814)" d="M 541.963636 243 
L 553.745455 243 
L 553.745455 112.450549 
L 541.963636 112.450549 
z
" style="fill:#73b55b;"/>
   </g>
   <g id="patch_261">
    <path clip-path="url(#pca20395814)" d="M 553.745455 243 
L 565.527273 243 
L 565.527273 185.558242 
L 553.745455 185.558242 
z
" style="fill:#73b55b;"/>
   </g>
   <g id="patch_262">
    <path clip-path="url(#pca20395814)" d="M 565.527273 243 
L 577.309091 243 
L 577.309091 206.446154 
L 565.527273 206.446154 
z
" style="fill:#73b55b;"/>
   </g>
   <g id="patch_263">
    <path clip-path="url(#pca20395814)" d="M 577.309091 243 
L 589.090909 243 
L 589.090909 232.556044 
L 577.309091 232.556044 
z
" style="fill:#73b55b;"/>
   </g>
   <g id="patch_264">
    <path clip-path="url(#pca20395814)" d="M 589.090909 243 
L 600.872727 243 
L 600.872727 240.389011 
L 589.090909 240.389011 
z
" style="fill:#73b55b;"/>
   </g>
   <g id="patch_265">
    <path clip-path="url(#pca20395814)" d="M 600.872727 243 
L 612.654545 243 
L 612.654545 240.389011 
L 600.872727 240.389011 
z
" style="fill:#73b55b;"/>
   </g>
   <g id="patch_266">
    <path clip-path="url(#pca20395814)" d="M 612.654545 243 
L 624.436364 243 
L 624.436364 240.389011 
L 612.654545 240.389011 
z
" style="fill:#73b55b;"/>
   </g>
   <g id="patch_267">
    <path clip-path="url(#pca20395814)" d="M 624.436364 243 
L 636.218182 243 
L 636.218182 243 
L 624.436364 243 
z
" style="fill:#73b55b;"/>
   </g>
   <g id="patch_268">
    <path clip-path="url(#pca20395814)" d="M 636.218182 243 
L 648 243 
L 648 243 
L 636.218182 243 
z
" style="fill:#73b55b;"/>
   </g>
   <g id="patch_269">
    <path clip-path="url(#pca20395814)" d="M 648 243 
L 659.781818 243 
L 659.781818 243 
L 648 243 
z
" style="fill:#73b55b;"/>
   </g>
   <g id="patch_270">
    <path clip-path="url(#pca20395814)" d="M 659.781818 243 
L 671.563636 243 
L 671.563636 240.389011 
L 659.781818 240.389011 
z
" style="fill:#73b55b;"/>
   </g>
   <g id="patch_271">
    <path clip-path="url(#pca20395814)" d="M 671.563636 243 
L 683.345455 243 
L 683.345455 240.389011 
L 671.563636 240.389011 
z
" style="fill:#73b55b;"/>
   </g>
   <g id="patch_272">
    <path clip-path="url(#pca20395814)" d="M 683.345455 243 
L 695.127273 243 
L 695.127273 243 
L 683.345455 243 
z
" style="fill:#73b55b;"/>
   </g>
   <g id="patch_273">
    <path clip-path="url(#pca20395814)" d="M 695.127273 243 
L 706.909091 243 
L 706.909091 243 
L 695.127273 243 
z
" style="fill:#73b55b;"/>
   </g>
   <g id="patch_274">
    <path clip-path="url(#pca20395814)" d="M 706.909091 243 
L 718.690909 243 
L 718.690909 240.389011 
L 706.909091 240.389011 
z
" style="fill:#73b55b;"/>
   </g>
   <g id="patch_275">
    <path clip-path="url(#pca20395814)" d="M 718.690909 243 
L 730.472727 243 
L 730.472727 243 
L 718.690909 243 
z
" style="fill:#73b55b;"/>
   </g>
   <g id="patch_276">
    <path clip-path="url(#pca20395814)" d="M 730.472727 243 
L 742.254545 243 
L 742.254545 243 
L 730.472727 243 
z
" style="fill:#73b55b;"/>
   </g>
   <g id="patch_277">
    <path clip-path="url(#pca20395814)" d="M 742.254545 243 
L 754.036364 243 
L 754.036364 243 
L 742.254545 243 
z
" style="fill:#73b55b;"/>
   </g>
   <g id="patch_278">
    <path clip-path="url(#pca20395814)" d="M 754.036364 243 
L 765.818182 243 
L 765.818182 240.389011 
L 754.036364 240.389011 
z
" style="fill:#73b55b;"/>
   </g>
   <g id="matplotlib.axis_5">
    <g id="xtick_15">
     <g id="line2d_19">
      <g>
       <use style="fill:#d2d2d2;stroke:#d2d2d2;stroke-width:0.8;" x="530.181818" xlink:href="#m6a118eb454" y="243"/>
      </g>
     </g>
     <g id="text_20">
      <!-- 0.50 -->
      <g style="fill:#d2d2d2;" transform="translate(522.388849 251.818906)scale(0.07 -0.07)">
       <use xlink:href="#DejaVuSans-30"/>
       <use x="63.623047" xlink:href="#DejaVuSans-2e"/>
       <use x="95.410156" xlink:href="#DejaVuSans-35"/>
       <use x="159.033203" xlink:href="#DejaVuSans-30"/>
      </g>
     </g>
    </g>
    <g id="xtick_16">
     <g id="line2d_20">
      <g>
       <use style="fill:#d2d2d2;stroke:#d2d2d2;stroke-width:0.8;" x="569.769572" xlink:href="#m6a118eb454" y="243"/>
      </g>
     </g>
     <g id="text_21">
      <!-- 1.00 -->
      <g style="fill:#d2d2d2;" transform="translate(561.976603 251.818906)scale(0.07 -0.07)">
       <use xlink:href="#DejaVuSans-31"/>
       <use x="63.623047" xlink:href="#DejaVuSans-2e"/>
       <use x="95.410156" xlink:href="#DejaVuSans-30"/>
       <use x="159.033203" xlink:href="#DejaVuSans-30"/>
      </g>
     </g>
    </g>
    <g id="xtick_17">
     <g id="line2d_21">
      <g>
       <use style="fill:#d2d2d2;stroke:#d2d2d2;stroke-width:0.8;" x="609.357325" xlink:href="#m6a118eb454" y="243"/>
      </g>
     </g>
     <g id="text_22">
      <!-- 1.50 -->
      <g style="fill:#d2d2d2;" transform="translate(601.564356 251.818906)scale(0.07 -0.07)">
       <use xlink:href="#DejaVuSans-31"/>
       <use x="63.623047" xlink:href="#DejaVuSans-2e"/>
       <use x="95.410156" xlink:href="#DejaVuSans-35"/>
       <use x="159.033203" xlink:href="#DejaVuSans-30"/>
      </g>
     </g>
    </g>
    <g id="xtick_18">
     <g id="line2d_22">
      <g>
       <use style="fill:#d2d2d2;stroke:#d2d2d2;stroke-width:0.8;" x="648.945078" xlink:href="#m6a118eb454" y="243"/>
      </g>
     </g>
     <g id="text_23">
      <!-- 2.00 -->
      <g style="fill:#d2d2d2;" transform="translate(641.15211 251.818906)scale(0.07 -0.07)">
       <use xlink:href="#DejaVuSans-32"/>
       <use x="63.623047" xlink:href="#DejaVuSans-2e"/>
       <use x="95.410156" xlink:href="#DejaVuSans-30"/>
       <use x="159.033203" xlink:href="#DejaVuSans-30"/>
      </g>
     </g>
    </g>
    <g id="xtick_19">
     <g id="line2d_23">
      <g>
       <use style="fill:#d2d2d2;stroke:#d2d2d2;stroke-width:0.8;" x="688.532832" xlink:href="#m6a118eb454" y="243"/>
      </g>
     </g>
     <g id="text_24">
      <!-- 2.50 -->
      <g style="fill:#d2d2d2;" transform="translate(680.739863 251.818906)scale(0.07 -0.07)">
       <use xlink:href="#DejaVuSans-32"/>
       <use x="63.623047" xlink:href="#DejaVuSans-2e"/>
       <use x="95.410156" xlink:href="#DejaVuSans-35"/>
       <use x="159.033203" xlink:href="#DejaVuSans-30"/>
      </g>
     </g>
    </g>
    <g id="xtick_20">
     <g id="line2d_24">
      <g>
       <use style="fill:#d2d2d2;stroke:#d2d2d2;stroke-width:0.8;" x="728.120585" xlink:href="#m6a118eb454" y="243"/>
      </g>
     </g>
     <g id="text_25">
      <!-- 3.00 -->
      <g style="fill:#d2d2d2;" transform="translate(720.327617 251.818906)scale(0.07 -0.07)">
       <use xlink:href="#DejaVuSans-33"/>
       <use x="63.623047" xlink:href="#DejaVuSans-2e"/>
       <use x="95.410156" xlink:href="#DejaVuSans-30"/>
       <use x="159.033203" xlink:href="#DejaVuSans-30"/>
      </g>
     </g>
    </g>
    <g id="xtick_21">
     <g id="line2d_25">
      <g>
       <use style="fill:#d2d2d2;stroke:#d2d2d2;stroke-width:0.8;" x="767.708339" xlink:href="#m6a118eb454" y="243"/>
      </g>
     </g>
     <g id="text_26">
      <!-- 3.50 -->
      <g style="fill:#d2d2d2;" transform="translate(759.91537 251.818906)scale(0.07 -0.07)">
       <use xlink:href="#DejaVuSans-33"/>
       <use x="63.623047" xlink:href="#DejaVuSans-2e"/>
       <use x="95.410156" xlink:href="#DejaVuSans-35"/>
       <use x="159.033203" xlink:href="#DejaVuSans-30"/>
      </g>
     </g>
    </g>
   </g>
   <g id="matplotlib.axis_6"/>
  </g>
  <g id="axes_4">
   <g id="patch_279">
    <path d="M 707.776353 263.281888 
Q 707.025656 254.138698 707.684692 246.109794 
" style="fill:none;stroke:#e04b4b;stroke-linecap:round;"/>
    <path d="M 705.364164 249.932771 
L 707.684692 246.109794 
L 709.350757 250.260003 
L 705.364164 249.932771 
z
" style="fill:#e04b4b;stroke:#e04b4b;stroke-linecap:round;"/>
   </g>
   <g id="patch_280">
    <path d="M 667.205239 263.281888 
Q 666.454542 254.138698 667.113579 246.109794 
" style="fill:none;stroke:#e04b4b;stroke-linecap:round;"/>
    <path d="M 664.793051 249.932771 
L 667.113579 246.109794 
L 668.779644 250.260003 
L 664.793051 249.932771 
z
" style="fill:#e04b4b;stroke:#e04b4b;stroke-linecap:round;"/>
   </g>
   <g id="patch_281">
    <path d="M 765.636704 263.281888 
Q 764.886008 254.138698 765.545044 246.109794 
" style="fill:none;stroke:#e04b4b;stroke-linecap:round;"/>
    <path d="M 763.224516 249.932771 
L 765.545044 246.109794 
L 767.211109 250.260003 
L 763.224516 249.932771 
z
" style="fill:#e04b4b;stroke:#e04b4b;stroke-linecap:round;"/>
   </g>
   <g id="patch_282">
    <path d="M 672.77967 263.281888 
Q 672.028973 254.138698 672.688009 246.109794 
" style="fill:none;stroke:#e04b4b;stroke-linecap:round;"/>
    <path d="M 670.367482 249.932771 
L 672.688009 246.109794 
L 674.354074 250.260003 
L 670.367482 249.932771 
z
" style="fill:#e04b4b;stroke:#e04b4b;stroke-linecap:round;"/>
   </g>
  </g>
 </g>
 <defs>
  <clipPath id="p8cc5ed9081">
   <rect height="244.62" width="669.6" x="108" y="38.88"/>
  </clipPath>
  <clipPath id="p65fa18f421">
   <rect height="178.2" width="259.2" x="216" y="64.8"/>
  </clipPath>
  <clipPath id="pca20395814">
   <rect height="178.2" width="259.2" x="518.4" y="64.8"/>
  </clipPath>
 </defs>
</svg>
