<?xml version="1.0" encoding="utf-8" standalone="no"?>
<!DOCTYPE svg PUBLIC "-//W3C//DTD SVG 1.1//EN"
  "http://www.w3.org/Graphics/SVG/1.1/DTD/svg11.dtd">
<!-- Created with matplotlib (http://matplotlib.org/) -->
<svg height="360pt" version="1.1" viewBox="0 0 504 360" width="504pt" xmlns="http://www.w3.org/2000/svg" xmlns:xlink="http://www.w3.org/1999/xlink">
 <defs>
  <style type="text/css">
*{stroke-linecap:butt;stroke-linejoin:round;}
  </style>
 </defs>
 <g id="figure_1">
  <g id="patch_1">
   <path d="M 0 360 
L 504 360 
L 504 0 
L 0 0 
z
" style="fill:none;"/>
  </g>
  <g id="axes_1">
   <g id="patch_2">
    <path d="M 63 315 
L 453.6 315 
L 453.6 43.2 
L 63 43.2 
z
" style="fill:none;"/>
   </g>
   <g id="patch_3">
    <path clip-path="url(#p7b81312d20)" d="M 54.441379 315 
L 74.165182 315 
L 74.165182 314.854819 
L 54.441379 314.854819 
z
" style="fill:#88c9c1;stroke:#d2d2d2;stroke-linejoin:miter;"/>
   </g>
   <g id="patch_4">
    <path clip-path="url(#p7b81312d20)" d="M 74.165182 315 
L 93.888985 315 
L 93.888985 314.92741 
L 74.165182 314.92741 
z
" style="fill:#88c9c1;stroke:#d2d2d2;stroke-linejoin:miter;"/>
   </g>
   <g id="patch_5">
    <path clip-path="url(#p7b81312d20)" d="M 93.888985 315 
L 113.612789 315 
L 113.612789 313.983735 
L 93.888985 313.983735 
z
" style="fill:#88c9c1;stroke:#d2d2d2;stroke-linejoin:miter;"/>
   </g>
   <g id="patch_6">
    <path clip-path="url(#p7b81312d20)" d="M 113.612789 315 
L 133.336592 315 
L 133.336592 311.443073 
L 113.612789 311.443073 
z
" style="fill:#88c9c1;stroke:#d2d2d2;stroke-linejoin:miter;"/>
   </g>
   <g id="patch_7">
    <path clip-path="url(#p7b81312d20)" d="M 133.336592 315 
L 153.060396 315 
L 153.060396 307.813557 
L 133.336592 307.813557 
z
" style="fill:#88c9c1;stroke:#d2d2d2;stroke-linejoin:miter;"/>
   </g>
   <g id="patch_8">
    <path clip-path="url(#p7b81312d20)" d="M 153.060396 315 
L 172.784199 315 
L 172.784199 300.772294 
L 153.060396 300.772294 
z
" style="fill:#88c9c1;stroke:#d2d2d2;stroke-linejoin:miter;"/>
   </g>
   <g id="patch_9">
    <path clip-path="url(#p7b81312d20)" d="M 172.784199 315 
L 192.508003 315 
L 192.508003 284.439468 
L 172.784199 284.439468 
z
" style="fill:#88c9c1;stroke:#d2d2d2;stroke-linejoin:miter;"/>
   </g>
   <g id="patch_10">
    <path clip-path="url(#p7b81312d20)" d="M 192.508003 315 
L 212.231806 315 
L 212.231806 284.9476 
L 192.508003 284.9476 
z
" style="fill:#88c9c1;stroke:#d2d2d2;stroke-linejoin:miter;"/>
   </g>
   <g id="patch_11">
    <path clip-path="url(#p7b81312d20)" d="M 212.231806 315 
L 231.95561 315 
L 231.95561 244.369602 
L 212.231806 244.369602 
z
" style="fill:#88c9c1;stroke:#d2d2d2;stroke-linejoin:miter;"/>
   </g>
   <g id="patch_12">
    <path clip-path="url(#p7b81312d20)" d="M 231.95561 315 
L 251.679413 315 
L 251.679413 219.253345 
L 231.95561 219.253345 
z
" style="fill:#88c9c1;stroke:#d2d2d2;stroke-linejoin:miter;"/>
   </g>
   <g id="patch_13">
    <path clip-path="url(#p7b81312d20)" d="M 251.679413 315 
L 271.403216 315 
L 271.403216 56.142857 
L 251.679413 56.142857 
z
" style="fill:#88c9c1;stroke:#d2d2d2;stroke-linejoin:miter;"/>
   </g>
   <g id="patch_14">
    <path clip-path="url(#p7b81312d20)" d="M 271.403216 315 
L 291.12702 315 
L 291.12702 238.126833 
L 271.403216 238.126833 
z
" style="fill:#88c9c1;stroke:#d2d2d2;stroke-linejoin:miter;"/>
   </g>
   <g id="patch_15">
    <path clip-path="url(#p7b81312d20)" d="M 291.12702 315 
L 310.850823 315 
L 310.850823 255.258152 
L 291.12702 255.258152 
z
" style="fill:#88c9c1;stroke:#d2d2d2;stroke-linejoin:miter;"/>
   </g>
   <g id="patch_16">
    <path clip-path="url(#p7b81312d20)" d="M 310.850823 315 
L 330.574627 315 
L 330.574627 278.48706 
L 310.850823 278.48706 
z
" style="fill:#88c9c1;stroke:#d2d2d2;stroke-linejoin:miter;"/>
   </g>
   <g id="patch_17">
    <path clip-path="url(#p7b81312d20)" d="M 330.574627 315 
L 350.29843 315 
L 350.29843 295.763561 
L 330.574627 295.763561 
z
" style="fill:#88c9c1;stroke:#d2d2d2;stroke-linejoin:miter;"/>
   </g>
   <g id="patch_18">
    <path clip-path="url(#p7b81312d20)" d="M 350.29843 315 
L 370.022234 315 
L 370.022234 302.950004 
L 350.29843 302.950004 
z
" style="fill:#88c9c1;stroke:#d2d2d2;stroke-linejoin:miter;"/>
   </g>
   <g id="patch_19">
    <path clip-path="url(#p7b81312d20)" d="M 370.022234 315 
L 389.746037 315 
L 389.746037 309.192773 
L 370.022234 309.192773 
z
" style="fill:#88c9c1;stroke:#d2d2d2;stroke-linejoin:miter;"/>
   </g>
   <g id="patch_20">
    <path clip-path="url(#p7b81312d20)" d="M 389.746037 315 
L 409.469841 315 
L 409.469841 312.096387 
L 389.746037 312.096387 
z
" style="fill:#88c9c1;stroke:#d2d2d2;stroke-linejoin:miter;"/>
   </g>
   <g id="patch_21">
    <path clip-path="url(#p7b81312d20)" d="M 409.469841 315 
L 429.193644 315 
L 429.193644 314.274097 
L 409.469841 314.274097 
z
" style="fill:#88c9c1;stroke:#d2d2d2;stroke-linejoin:miter;"/>
   </g>
   <g id="matplotlib.axis_1">
    <g id="xtick_1">
     <g id="line2d_1">
      <defs>
       <path d="M 0 0 
L 0 3.5 
" id="m5f4a8e4823" style="stroke:#d2d2d2;stroke-width:0.8;"/>
      </defs>
      <g>
       <use style="fill:#d2d2d2;stroke:#d2d2d2;stroke-width:0.8;" x="104.699471" xlink:href="#m5f4a8e4823" y="315"/>
      </g>
     </g>
     <g id="text_1">
      <!-- −100000 -->
      <defs>
       <path d="M 10.59375 35.5 
L 73.1875 35.5 
L 73.1875 27.203125 
L 10.59375 27.203125 
z
" id="DejaVuSans-2212"/>
       <path d="M 12.40625 8.296875 
L 28.515625 8.296875 
L 28.515625 63.921875 
L 10.984375 60.40625 
L 10.984375 69.390625 
L 28.421875 72.90625 
L 38.28125 72.90625 
L 38.28125 8.296875 
L 54.390625 8.296875 
L 54.390625 0 
L 12.40625 0 
z
" id="DejaVuSans-31"/>
       <path d="M 31.78125 66.40625 
Q 24.171875 66.40625 20.328125 58.90625 
Q 16.5 51.421875 16.5 36.375 
Q 16.5 21.390625 20.328125 13.890625 
Q 24.171875 6.390625 31.78125 6.390625 
Q 39.453125 6.390625 43.28125 13.890625 
Q 47.125 21.390625 47.125 36.375 
Q 47.125 51.421875 43.28125 58.90625 
Q 39.453125 66.40625 31.78125 66.40625 
z
M 31.78125 74.21875 
Q 44.046875 74.21875 50.515625 64.515625 
Q 56.984375 54.828125 56.984375 36.375 
Q 56.984375 17.96875 50.515625 8.265625 
Q 44.046875 -1.421875 31.78125 -1.421875 
Q 19.53125 -1.421875 13.0625 8.265625 
Q 6.59375 17.96875 6.59375 36.375 
Q 6.59375 54.828125 13.0625 64.515625 
Q 19.53125 74.21875 31.78125 74.21875 
z
" id="DejaVuSans-30"/>
      </defs>
      <g style="fill:#d2d2d2;" transform="translate(81.422128 329.598437)scale(0.1 -0.1)">
       <use xlink:href="#DejaVuSans-2212"/>
       <use x="83.789062" xlink:href="#DejaVuSans-31"/>
       <use x="147.412109" xlink:href="#DejaVuSans-30"/>
       <use x="211.035156" xlink:href="#DejaVuSans-30"/>
       <use x="274.658203" xlink:href="#DejaVuSans-30"/>
       <use x="338.28125" xlink:href="#DejaVuSans-30"/>
       <use x="401.904297" xlink:href="#DejaVuSans-30"/>
      </g>
     </g>
    </g>
    <g id="xtick_2">
     <g id="line2d_2">
      <g>
       <use style="fill:#d2d2d2;stroke:#d2d2d2;stroke-width:0.8;" x="181.499736" xlink:href="#m5f4a8e4823" y="315"/>
      </g>
     </g>
     <g id="text_2">
      <!-- −50000 -->
      <defs>
       <path d="M 10.796875 72.90625 
L 49.515625 72.90625 
L 49.515625 64.59375 
L 19.828125 64.59375 
L 19.828125 46.734375 
Q 21.96875 47.46875 24.109375 47.828125 
Q 26.265625 48.1875 28.421875 48.1875 
Q 40.625 48.1875 47.75 41.5 
Q 54.890625 34.8125 54.890625 23.390625 
Q 54.890625 11.625 47.5625 5.09375 
Q 40.234375 -1.421875 26.90625 -1.421875 
Q 22.3125 -1.421875 17.546875 -0.640625 
Q 12.796875 0.140625 7.71875 1.703125 
L 7.71875 11.625 
Q 12.109375 9.234375 16.796875 8.0625 
Q 21.484375 6.890625 26.703125 6.890625 
Q 35.15625 6.890625 40.078125 11.328125 
Q 45.015625 15.765625 45.015625 23.390625 
Q 45.015625 31 40.078125 35.4375 
Q 35.15625 39.890625 26.703125 39.890625 
Q 22.75 39.890625 18.8125 39.015625 
Q 14.890625 38.140625 10.796875 36.28125 
z
" id="DejaVuSans-35"/>
      </defs>
      <g style="fill:#d2d2d2;" transform="translate(161.403642 329.598437)scale(0.1 -0.1)">
       <use xlink:href="#DejaVuSans-2212"/>
       <use x="83.789062" xlink:href="#DejaVuSans-35"/>
       <use x="147.412109" xlink:href="#DejaVuSans-30"/>
       <use x="211.035156" xlink:href="#DejaVuSans-30"/>
       <use x="274.658203" xlink:href="#DejaVuSans-30"/>
       <use x="338.28125" xlink:href="#DejaVuSans-30"/>
      </g>
     </g>
    </g>
    <g id="xtick_3">
     <g id="line2d_3">
      <g>
       <use style="fill:#d2d2d2;stroke:#d2d2d2;stroke-width:0.8;" x="258.3" xlink:href="#m5f4a8e4823" y="315"/>
      </g>
     </g>
     <g id="text_3">
      <!-- 0 -->
      <g style="fill:#d2d2d2;" transform="translate(255.11875 329.598437)scale(0.1 -0.1)">
       <use xlink:href="#DejaVuSans-30"/>
      </g>
     </g>
    </g>
    <g id="xtick_4">
     <g id="line2d_4">
      <g>
       <use style="fill:#d2d2d2;stroke:#d2d2d2;stroke-width:0.8;" x="335.100264" xlink:href="#m5f4a8e4823" y="315"/>
      </g>
     </g>
     <g id="text_4">
      <!-- 50000 -->
      <g style="fill:#d2d2d2;" transform="translate(319.194014 329.598437)scale(0.1 -0.1)">
       <use xlink:href="#DejaVuSans-35"/>
       <use x="63.623047" xlink:href="#DejaVuSans-30"/>
       <use x="127.246094" xlink:href="#DejaVuSans-30"/>
       <use x="190.869141" xlink:href="#DejaVuSans-30"/>
       <use x="254.492188" xlink:href="#DejaVuSans-30"/>
      </g>
     </g>
    </g>
    <g id="xtick_5">
     <g id="line2d_5">
      <g>
       <use style="fill:#d2d2d2;stroke:#d2d2d2;stroke-width:0.8;" x="411.900529" xlink:href="#m5f4a8e4823" y="315"/>
      </g>
     </g>
     <g id="text_5">
      <!-- 100000 -->
      <g style="fill:#d2d2d2;" transform="translate(392.813029 329.598437)scale(0.1 -0.1)">
       <use xlink:href="#DejaVuSans-31"/>
       <use x="63.623047" xlink:href="#DejaVuSans-30"/>
       <use x="127.246094" xlink:href="#DejaVuSans-30"/>
       <use x="190.869141" xlink:href="#DejaVuSans-30"/>
       <use x="254.492188" xlink:href="#DejaVuSans-30"/>
       <use x="318.115234" xlink:href="#DejaVuSans-30"/>
      </g>
     </g>
    </g>
    <g id="text_6">
     <!-- Bootstrap $\theta^{*}_{\tilde{x}}$ -->
     <defs>
      <path d="M 19.671875 34.8125 
L 19.671875 8.109375 
L 35.5 8.109375 
Q 43.453125 8.109375 47.28125 11.40625 
Q 51.125 14.703125 51.125 21.484375 
Q 51.125 28.328125 47.28125 31.5625 
Q 43.453125 34.8125 35.5 34.8125 
z
M 19.671875 64.796875 
L 19.671875 42.828125 
L 34.28125 42.828125 
Q 41.5 42.828125 45.03125 45.53125 
Q 48.578125 48.25 48.578125 53.8125 
Q 48.578125 59.328125 45.03125 62.0625 
Q 41.5 64.796875 34.28125 64.796875 
z
M 9.8125 72.90625 
L 35.015625 72.90625 
Q 46.296875 72.90625 52.390625 68.21875 
Q 58.5 63.53125 58.5 54.890625 
Q 58.5 48.1875 55.375 44.234375 
Q 52.25 40.28125 46.1875 39.3125 
Q 53.46875 37.75 57.5 32.78125 
Q 61.53125 27.828125 61.53125 20.40625 
Q 61.53125 10.640625 54.890625 5.3125 
Q 48.25 0 35.984375 0 
L 9.8125 0 
z
" id="DejaVuSans-42"/>
      <path d="M 30.609375 48.390625 
Q 23.390625 48.390625 19.1875 42.75 
Q 14.984375 37.109375 14.984375 27.296875 
Q 14.984375 17.484375 19.15625 11.84375 
Q 23.34375 6.203125 30.609375 6.203125 
Q 37.796875 6.203125 41.984375 11.859375 
Q 46.1875 17.53125 46.1875 27.296875 
Q 46.1875 37.015625 41.984375 42.703125 
Q 37.796875 48.390625 30.609375 48.390625 
z
M 30.609375 56 
Q 42.328125 56 49.015625 48.375 
Q 55.71875 40.765625 55.71875 27.296875 
Q 55.71875 13.875 49.015625 6.21875 
Q 42.328125 -1.421875 30.609375 -1.421875 
Q 18.84375 -1.421875 12.171875 6.21875 
Q 5.515625 13.875 5.515625 27.296875 
Q 5.515625 40.765625 12.171875 48.375 
Q 18.84375 56 30.609375 56 
z
" id="DejaVuSans-6f"/>
      <path d="M 18.3125 70.21875 
L 18.3125 54.6875 
L 36.8125 54.6875 
L 36.8125 47.703125 
L 18.3125 47.703125 
L 18.3125 18.015625 
Q 18.3125 11.328125 20.140625 9.421875 
Q 21.96875 7.515625 27.59375 7.515625 
L 36.8125 7.515625 
L 36.8125 0 
L 27.59375 0 
Q 17.1875 0 13.234375 3.875 
Q 9.28125 7.765625 9.28125 18.015625 
L 9.28125 47.703125 
L 2.6875 47.703125 
L 2.6875 54.6875 
L 9.28125 54.6875 
L 9.28125 70.21875 
z
" id="DejaVuSans-74"/>
      <path d="M 44.28125 53.078125 
L 44.28125 44.578125 
Q 40.484375 46.53125 36.375 47.5 
Q 32.28125 48.484375 27.875 48.484375 
Q 21.1875 48.484375 17.84375 46.4375 
Q 14.5 44.390625 14.5 40.28125 
Q 14.5 37.15625 16.890625 35.375 
Q 19.28125 33.59375 26.515625 31.984375 
L 29.59375 31.296875 
Q 39.15625 29.25 43.1875 25.515625 
Q 47.21875 21.78125 47.21875 15.09375 
Q 47.21875 7.46875 41.1875 3.015625 
Q 35.15625 -1.421875 24.609375 -1.421875 
Q 20.21875 -1.421875 15.453125 -0.5625 
Q 10.6875 0.296875 5.421875 2 
L 5.421875 11.28125 
Q 10.40625 8.6875 15.234375 7.390625 
Q 20.0625 6.109375 24.8125 6.109375 
Q 31.15625 6.109375 34.5625 8.28125 
Q 37.984375 10.453125 37.984375 14.40625 
Q 37.984375 18.0625 35.515625 20.015625 
Q 33.0625 21.96875 24.703125 23.78125 
L 21.578125 24.515625 
Q 13.234375 26.265625 9.515625 29.90625 
Q 5.8125 33.546875 5.8125 39.890625 
Q 5.8125 47.609375 11.28125 51.796875 
Q 16.75 56 26.8125 56 
Q 31.78125 56 36.171875 55.265625 
Q 40.578125 54.546875 44.28125 53.078125 
z
" id="DejaVuSans-73"/>
      <path d="M 41.109375 46.296875 
Q 39.59375 47.171875 37.8125 47.578125 
Q 36.03125 48 33.890625 48 
Q 26.265625 48 22.1875 43.046875 
Q 18.109375 38.09375 18.109375 28.8125 
L 18.109375 0 
L 9.078125 0 
L 9.078125 54.6875 
L 18.109375 54.6875 
L 18.109375 46.1875 
Q 20.953125 51.171875 25.484375 53.578125 
Q 30.03125 56 36.53125 56 
Q 37.453125 56 38.578125 55.875 
Q 39.703125 55.765625 41.0625 55.515625 
z
" id="DejaVuSans-72"/>
      <path d="M 34.28125 27.484375 
Q 23.390625 27.484375 19.1875 25 
Q 14.984375 22.515625 14.984375 16.5 
Q 14.984375 11.71875 18.140625 8.90625 
Q 21.296875 6.109375 26.703125 6.109375 
Q 34.1875 6.109375 38.703125 11.40625 
Q 43.21875 16.703125 43.21875 25.484375 
L 43.21875 27.484375 
z
M 52.203125 31.203125 
L 52.203125 0 
L 43.21875 0 
L 43.21875 8.296875 
Q 40.140625 3.328125 35.546875 0.953125 
Q 30.953125 -1.421875 24.3125 -1.421875 
Q 15.921875 -1.421875 10.953125 3.296875 
Q 6 8.015625 6 15.921875 
Q 6 25.140625 12.171875 29.828125 
Q 18.359375 34.515625 30.609375 34.515625 
L 43.21875 34.515625 
L 43.21875 35.40625 
Q 43.21875 41.609375 39.140625 45 
Q 35.0625 48.390625 27.6875 48.390625 
Q 23 48.390625 18.546875 47.265625 
Q 14.109375 46.140625 10.015625 43.890625 
L 10.015625 52.203125 
Q 14.9375 54.109375 19.578125 55.046875 
Q 24.21875 56 28.609375 56 
Q 40.484375 56 46.34375 49.84375 
Q 52.203125 43.703125 52.203125 31.203125 
z
" id="DejaVuSans-61"/>
      <path d="M 18.109375 8.203125 
L 18.109375 -20.796875 
L 9.078125 -20.796875 
L 9.078125 54.6875 
L 18.109375 54.6875 
L 18.109375 46.390625 
Q 20.953125 51.265625 25.265625 53.625 
Q 29.59375 56 35.59375 56 
Q 45.5625 56 51.78125 48.09375 
Q 58.015625 40.1875 58.015625 27.296875 
Q 58.015625 14.40625 51.78125 6.484375 
Q 45.5625 -1.421875 35.59375 -1.421875 
Q 29.59375 -1.421875 25.265625 0.953125 
Q 20.953125 3.328125 18.109375 8.203125 
z
M 48.6875 27.296875 
Q 48.6875 37.203125 44.609375 42.84375 
Q 40.53125 48.484375 33.40625 48.484375 
Q 26.265625 48.484375 22.1875 42.84375 
Q 18.109375 37.203125 18.109375 27.296875 
Q 18.109375 17.390625 22.1875 11.75 
Q 26.265625 6.109375 33.40625 6.109375 
Q 40.53125 6.109375 44.609375 11.75 
Q 48.6875 17.390625 48.6875 27.296875 
z
" id="DejaVuSans-70"/>
      <path id="DejaVuSans-20"/>
      <path d="M 45.515625 34.671875 
L 14.453125 34.671875 
Q 12.359375 20.0625 14.5 13.875 
Q 17.1875 6.25 24.46875 6.25 
Q 31.78125 6.25 37.359375 13.921875 
Q 42.234375 20.65625 45.515625 34.671875 
z
M 47.015625 42.96875 
Q 48.34375 56.84375 46.625 61.71875 
Q 43.953125 69.4375 36.765625 69.4375 
Q 29.296875 69.4375 23.828125 61.8125 
Q 19.53125 55.671875 16.15625 42.96875 
z
M 38.1875 76.765625 
Q 49.90625 76.765625 54.59375 66.40625 
Q 59.28125 56.109375 55.71875 37.84375 
Q 52.203125 19.625 43.453125 9.28125 
Q 34.765625 -1.125 23.046875 -1.125 
Q 11.28125 -1.125 6.640625 9.28125 
Q 2 19.625 5.515625 37.84375 
Q 9.078125 56.109375 17.71875 66.40625 
Q 26.421875 76.765625 38.1875 76.765625 
z
" id="DejaVuSans-Oblique-3b8"/>
      <path d="M 47.015625 60.890625 
L 29.5 51.421875 
L 47.015625 41.890625 
L 44.1875 37.109375 
L 27.78125 47.015625 
L 27.78125 28.609375 
L 22.21875 28.609375 
L 22.21875 47.015625 
L 5.8125 37.109375 
L 2.984375 41.890625 
L 20.515625 51.421875 
L 2.984375 60.890625 
L 5.8125 65.71875 
L 22.21875 55.8125 
L 22.21875 74.21875 
L 27.78125 74.21875 
L 27.78125 55.8125 
L 44.1875 65.71875 
z
" id="DejaVuSans-2a"/>
      <path d="M -25.328125 66.890625 
L -28.109375 69.578125 
Q -29.171875 70.5625 -29.984375 71.015625 
Q -30.796875 71.484375 -31.421875 71.484375 
Q -33.28125 71.484375 -34.15625 69.703125 
Q -35.03125 67.921875 -35.140625 63.921875 
L -41.234375 63.921875 
Q -41.140625 70.515625 -38.640625 74.09375 
Q -36.15625 77.6875 -31.71875 77.6875 
Q -29.859375 77.6875 -28.296875 77 
Q -26.734375 76.3125 -24.9375 74.703125 
L -22.140625 72.015625 
Q -21.078125 71.046875 -20.265625 70.578125 
Q -19.46875 70.125 -18.828125 70.125 
Q -16.96875 70.125 -16.09375 71.90625 
Q -15.21875 73.6875 -15.109375 77.6875 
L -9.015625 77.6875 
Q -9.109375 71.09375 -11.59375 67.5 
Q -14.09375 63.921875 -18.53125 63.921875 
Q -20.390625 63.921875 -21.953125 64.59375 
Q -23.515625 65.28125 -25.328125 66.890625 
z
" id="DejaVuSans-303"/>
      <path d="M 60.015625 54.6875 
L 34.90625 27.875 
L 50.296875 0 
L 39.984375 0 
L 28.421875 21.6875 
L 8.296875 0 
L -2.59375 0 
L 24.3125 28.8125 
L 10.015625 54.6875 
L 20.3125 54.6875 
L 30.8125 34.90625 
L 49.125 54.6875 
z
" id="DejaVuSans-Oblique-78"/>
     </defs>
     <g style="fill:#d2d2d2;" transform="translate(201.96 352.598125)scale(0.18 -0.18)">
      <use transform="translate(0 0.223438)" xlink:href="#DejaVuSans-42"/>
      <use transform="translate(68.603516 0.223438)" xlink:href="#DejaVuSans-6f"/>
      <use transform="translate(129.785156 0.223438)" xlink:href="#DejaVuSans-6f"/>
      <use transform="translate(190.966797 0.223438)" xlink:href="#DejaVuSans-74"/>
      <use transform="translate(230.175781 0.223438)" xlink:href="#DejaVuSans-73"/>
      <use transform="translate(282.275391 0.223438)" xlink:href="#DejaVuSans-74"/>
      <use transform="translate(321.484375 0.223438)" xlink:href="#DejaVuSans-72"/>
      <use transform="translate(362.597656 0.223438)" xlink:href="#DejaVuSans-61"/>
      <use transform="translate(423.876953 0.223438)" xlink:href="#DejaVuSans-70"/>
      <use transform="translate(487.353516 0.223438)" xlink:href="#DejaVuSans-20"/>
      <use transform="translate(519.140625 0.223438)" xlink:href="#DejaVuSans-Oblique-3b8"/>
      <use transform="translate(587.879349 42.046875)scale(0.7)" xlink:href="#DejaVuSans-2a"/>
      <use transform="translate(623.584961 -24.823437)scale(0.7)" xlink:href="#DejaVuSans-303"/>
      <use transform="translate(580.322266 -27.120312)scale(0.7)" xlink:href="#DejaVuSans-Oblique-78"/>
     </g>
    </g>
   </g>
   <g id="matplotlib.axis_2"/>
   <g id="patch_22">
    <path d="M 63 315 
L 453.6 315 
" style="fill:none;stroke:#d2d2d2;stroke-linecap:square;stroke-linejoin:miter;stroke-width:0.8;"/>
   </g>
  </g>
  <g id="axes_2">
   <g id="text_7">
    <!-- p-value =  -->
    <defs>
     <path d="M 4.890625 31.390625 
L 31.203125 31.390625 
L 31.203125 23.390625 
L 4.890625 23.390625 
z
" id="DejaVuSans-2d"/>
     <path d="M 2.984375 54.6875 
L 12.5 54.6875 
L 29.59375 8.796875 
L 46.6875 54.6875 
L 56.203125 54.6875 
L 35.6875 0 
L 23.484375 0 
z
" id="DejaVuSans-76"/>
     <path d="M 9.421875 75.984375 
L 18.40625 75.984375 
L 18.40625 0 
L 9.421875 0 
z
" id="DejaVuSans-6c"/>
     <path d="M 8.5 21.578125 
L 8.5 54.6875 
L 17.484375 54.6875 
L 17.484375 21.921875 
Q 17.484375 14.15625 20.5 10.265625 
Q 23.53125 6.390625 29.59375 6.390625 
Q 36.859375 6.390625 41.078125 11.03125 
Q 45.3125 15.671875 45.3125 23.6875 
L 45.3125 54.6875 
L 54.296875 54.6875 
L 54.296875 0 
L 45.3125 0 
L 45.3125 8.40625 
Q 42.046875 3.421875 37.71875 1 
Q 33.40625 -1.421875 27.6875 -1.421875 
Q 18.265625 -1.421875 13.375 4.4375 
Q 8.5 10.296875 8.5 21.578125 
z
M 31.109375 56 
z
" id="DejaVuSans-75"/>
     <path d="M 56.203125 29.59375 
L 56.203125 25.203125 
L 14.890625 25.203125 
Q 15.484375 15.921875 20.484375 11.0625 
Q 25.484375 6.203125 34.421875 6.203125 
Q 39.59375 6.203125 44.453125 7.46875 
Q 49.3125 8.734375 54.109375 11.28125 
L 54.109375 2.78125 
Q 49.265625 0.734375 44.1875 -0.34375 
Q 39.109375 -1.421875 33.890625 -1.421875 
Q 20.796875 -1.421875 13.15625 6.1875 
Q 5.515625 13.8125 5.515625 26.8125 
Q 5.515625 40.234375 12.765625 48.109375 
Q 20.015625 56 32.328125 56 
Q 43.359375 56 49.78125 48.890625 
Q 56.203125 41.796875 56.203125 29.59375 
z
M 47.21875 32.234375 
Q 47.125 39.59375 43.09375 43.984375 
Q 39.0625 48.390625 32.421875 48.390625 
Q 24.90625 48.390625 20.390625 44.140625 
Q 15.875 39.890625 15.1875 32.171875 
z
" id="DejaVuSans-65"/>
     <path d="M 10.59375 45.40625 
L 73.1875 45.40625 
L 73.1875 37.203125 
L 10.59375 37.203125 
z
M 10.59375 25.484375 
L 73.1875 25.484375 
L 73.1875 17.1875 
L 10.59375 17.1875 
z
" id="DejaVuSans-3d"/>
    </defs>
    <g style="fill:#d2d2d2;" transform="translate(368.371719 81.017812)scale(0.14 -0.14)">
     <use xlink:href="#DejaVuSans-70"/>
     <use x="63.476562" xlink:href="#DejaVuSans-2d"/>
     <use x="99.529297" xlink:href="#DejaVuSans-76"/>
     <use x="158.708984" xlink:href="#DejaVuSans-61"/>
     <use x="219.988281" xlink:href="#DejaVuSans-6c"/>
     <use x="247.771484" xlink:href="#DejaVuSans-75"/>
     <use x="311.150391" xlink:href="#DejaVuSans-65"/>
     <use x="372.673828" xlink:href="#DejaVuSans-20"/>
     <use x="404.460938" xlink:href="#DejaVuSans-3d"/>
     <use x="488.25" xlink:href="#DejaVuSans-20"/>
    </g>
    <!-- 0.2441 -->
    <defs>
     <path d="M 10.6875 12.40625 
L 21 12.40625 
L 21 0 
L 10.6875 0 
z
" id="DejaVuSans-2e"/>
     <path d="M 19.1875 8.296875 
L 53.609375 8.296875 
L 53.609375 0 
L 7.328125 0 
L 7.328125 8.296875 
Q 12.9375 14.109375 22.625 23.890625 
Q 32.328125 33.6875 34.8125 36.53125 
Q 39.546875 41.84375 41.421875 45.53125 
Q 43.3125 49.21875 43.3125 52.78125 
Q 43.3125 58.59375 39.234375 62.25 
Q 35.15625 65.921875 28.609375 65.921875 
Q 23.96875 65.921875 18.8125 64.3125 
Q 13.671875 62.703125 7.8125 59.421875 
L 7.8125 69.390625 
Q 13.765625 71.78125 18.9375 73 
Q 24.125 74.21875 28.421875 74.21875 
Q 39.75 74.21875 46.484375 68.546875 
Q 53.21875 62.890625 53.21875 53.421875 
Q 53.21875 48.921875 51.53125 44.890625 
Q 49.859375 40.875 45.40625 35.40625 
Q 44.1875 33.984375 37.640625 27.21875 
Q 31.109375 20.453125 19.1875 8.296875 
z
" id="DejaVuSans-32"/>
     <path d="M 37.796875 64.3125 
L 12.890625 25.390625 
L 37.796875 25.390625 
z
M 35.203125 72.90625 
L 47.609375 72.90625 
L 47.609375 25.390625 
L 58.015625 25.390625 
L 58.015625 17.1875 
L 47.609375 17.1875 
L 47.609375 0 
L 37.796875 0 
L 37.796875 17.1875 
L 4.890625 17.1875 
L 4.890625 26.703125 
z
" id="DejaVuSans-34"/>
    </defs>
    <g style="fill:#d2d2d2;" transform="translate(380.281563 96.69475)scale(0.14 -0.14)">
     <use xlink:href="#DejaVuSans-30"/>
     <use x="63.623047" xlink:href="#DejaVuSans-2e"/>
     <use x="95.410156" xlink:href="#DejaVuSans-32"/>
     <use x="159.033203" xlink:href="#DejaVuSans-34"/>
     <use x="222.65625" xlink:href="#DejaVuSans-34"/>
     <use x="286.279297" xlink:href="#DejaVuSans-31"/>
    </g>
   </g>
   <g id="patch_23">
    <path clip-path="url(#p7b81312d20)" d="M 54.441379 315 
L 74.165182 315 
L 74.165182 314.854819 
L 54.441379 314.854819 
z
" style="fill:#e04b4b;stroke:#e04b4b;stroke-linejoin:miter;"/>
   </g>
   <g id="patch_24">
    <path clip-path="url(#p7b81312d20)" d="M 74.165182 315 
L 93.888985 315 
L 93.888985 314.92741 
L 74.165182 314.92741 
z
" style="fill:#e04b4b;stroke:#e04b4b;stroke-linejoin:miter;"/>
   </g>
   <g id="patch_25">
    <path clip-path="url(#p7b81312d20)" d="M 93.888985 315 
L 113.612789 315 
L 113.612789 313.983735 
L 93.888985 313.983735 
z
" style="fill:#e04b4b;stroke:#e04b4b;stroke-linejoin:miter;"/>
   </g>
   <g id="patch_26">
    <path clip-path="url(#p7b81312d20)" d="M 113.612789 315 
L 133.336592 315 
L 133.336592 311.443073 
L 113.612789 311.443073 
z
" style="fill:#e04b4b;stroke:#e04b4b;stroke-linejoin:miter;"/>
   </g>
   <g id="patch_27">
    <path clip-path="url(#p7b81312d20)" d="M 133.336592 315 
L 153.060396 315 
L 153.060396 307.813557 
L 133.336592 307.813557 
z
" style="fill:#e04b4b;stroke:#e04b4b;stroke-linejoin:miter;"/>
   </g>
   <g id="patch_28">
    <path clip-path="url(#p7b81312d20)" d="M 153.060396 315 
L 172.784199 315 
L 172.784199 300.772294 
L 153.060396 300.772294 
z
" style="fill:#e04b4b;stroke:#e04b4b;stroke-linejoin:miter;"/>
   </g>
   <g id="patch_29">
    <path clip-path="url(#p7b81312d20)" d="M 172.784199 315 
L 192.508003 315 
L 192.508003 284.439468 
L 172.784199 284.439468 
z
" style="fill:#e04b4b;stroke:#e04b4b;stroke-linejoin:miter;"/>
   </g>
   <g id="patch_30">
    <path clip-path="url(#p7b81312d20)" d="M 192.508003 315 
L 212.231806 315 
L 212.231806 284.9476 
L 192.508003 284.9476 
z
" style="fill:#e04b4b;stroke:#e04b4b;stroke-linejoin:miter;"/>
   </g>
   <g id="patch_31">
    <path clip-path="url(#p7b81312d20)" d="M 212.231806 315 
L 231.95561 315 
L 231.95561 244.369602 
L 212.231806 244.369602 
z
" style="fill:#e04b4b;stroke:#e04b4b;stroke-linejoin:miter;"/>
   </g>
   <g id="patch_32">
    <path clip-path="url(#p7b81312d20)" d="M 291.12702 315 
L 310.850823 315 
L 310.850823 255.258152 
L 291.12702 255.258152 
z
" style="fill:#e04b4b;stroke:#e04b4b;stroke-linejoin:miter;"/>
   </g>
   <g id="patch_33">
    <path clip-path="url(#p7b81312d20)" d="M 310.850823 315 
L 330.574627 315 
L 330.574627 278.48706 
L 310.850823 278.48706 
z
" style="fill:#e04b4b;stroke:#e04b4b;stroke-linejoin:miter;"/>
   </g>
   <g id="patch_34">
    <path clip-path="url(#p7b81312d20)" d="M 330.574627 315 
L 350.29843 315 
L 350.29843 295.763561 
L 330.574627 295.763561 
z
" style="fill:#e04b4b;stroke:#e04b4b;stroke-linejoin:miter;"/>
   </g>
   <g id="patch_35">
    <path clip-path="url(#p7b81312d20)" d="M 350.29843 315 
L 370.022234 315 
L 370.022234 302.950004 
L 350.29843 302.950004 
z
" style="fill:#e04b4b;stroke:#e04b4b;stroke-linejoin:miter;"/>
   </g>
   <g id="patch_36">
    <path clip-path="url(#p7b81312d20)" d="M 370.022234 315 
L 389.746037 315 
L 389.746037 309.192773 
L 370.022234 309.192773 
z
" style="fill:#e04b4b;stroke:#e04b4b;stroke-linejoin:miter;"/>
   </g>
   <g id="patch_37">
    <path clip-path="url(#p7b81312d20)" d="M 389.746037 315 
L 409.469841 315 
L 409.469841 312.096387 
L 389.746037 312.096387 
z
" style="fill:#e04b4b;stroke:#e04b4b;stroke-linejoin:miter;"/>
   </g>
   <g id="patch_38">
    <path clip-path="url(#p7b81312d20)" d="M 409.469841 315 
L 429.193644 315 
L 429.193644 314.274097 
L 409.469841 314.274097 
z
" style="fill:#e04b4b;stroke:#e04b4b;stroke-linejoin:miter;"/>
   </g>
  </g>
  <g id="axes_3">
   <g id="patch_39">
    <path d="M 301.265627 128.744345 
Q 302.315627 220.873197 303.365627 313.002049 
L 303.365627 313.002049 
Q 304.415627 220.873197 305.465627 128.744345 
z
" style="fill:#e04b4b;stroke:#d2d2d2;stroke-linecap:round;"/>
   </g>
   <g id="text_8">
    <!-- $\tilde{x}$ =  -->
    <g style="fill:#e04b4b;" transform="translate(288.875627 106.1515)scale(0.14 -0.14)">
     <use transform="translate(62.029297 3.3125)" xlink:href="#DejaVuSans-303"/>
     <use transform="translate(0 0.046875)" xlink:href="#DejaVuSans-Oblique-78"/>
     <use transform="translate(59.179688 0.046875)" xlink:href="#DejaVuSans-20"/>
     <use transform="translate(90.966797 0.046875)" xlink:href="#DejaVuSans-3d"/>
     <use transform="translate(174.755859 0.046875)" xlink:href="#DejaVuSans-20"/>
    </g>
    <!-- $29,340 -->
    <defs>
     <path d="M 33.796875 -14.703125 
L 28.90625 -14.703125 
L 28.859375 0 
Q 23.734375 0.09375 18.609375 1.1875 
Q 13.484375 2.296875 8.296875 4.5 
L 8.296875 13.28125 
Q 13.28125 10.15625 18.375 8.5625 
Q 23.484375 6.984375 28.90625 6.9375 
L 28.90625 29.203125 
Q 18.109375 30.953125 13.203125 35.15625 
Q 8.296875 39.359375 8.296875 46.6875 
Q 8.296875 54.640625 13.625 59.21875 
Q 18.953125 63.8125 28.90625 64.5 
L 28.90625 75.984375 
L 33.796875 75.984375 
L 33.796875 64.65625 
Q 38.328125 64.453125 42.578125 63.6875 
Q 46.828125 62.9375 50.875 61.625 
L 50.875 53.078125 
Q 46.828125 55.125 42.546875 56.25 
Q 38.28125 57.375 33.796875 57.5625 
L 33.796875 36.71875 
Q 44.875 35.015625 50.09375 30.609375 
Q 55.328125 26.21875 55.328125 18.609375 
Q 55.328125 10.359375 49.78125 5.59375 
Q 44.234375 0.828125 33.796875 0.09375 
z
M 28.90625 37.59375 
L 28.90625 57.625 
Q 23.25 56.984375 20.265625 54.390625 
Q 17.28125 51.8125 17.28125 47.515625 
Q 17.28125 43.3125 20.03125 40.96875 
Q 22.796875 38.625 28.90625 37.59375 
z
M 33.796875 28.21875 
L 33.796875 7.078125 
Q 39.984375 7.90625 43.140625 10.59375 
Q 46.296875 13.28125 46.296875 17.671875 
Q 46.296875 21.96875 43.28125 24.5 
Q 40.28125 27.046875 33.796875 28.21875 
z
" id="DejaVuSans-24"/>
     <path d="M 10.984375 1.515625 
L 10.984375 10.5 
Q 14.703125 8.734375 18.5 7.8125 
Q 22.3125 6.890625 25.984375 6.890625 
Q 35.75 6.890625 40.890625 13.453125 
Q 46.046875 20.015625 46.78125 33.40625 
Q 43.953125 29.203125 39.59375 26.953125 
Q 35.25 24.703125 29.984375 24.703125 
Q 19.046875 24.703125 12.671875 31.3125 
Q 6.296875 37.9375 6.296875 49.421875 
Q 6.296875 60.640625 12.9375 67.421875 
Q 19.578125 74.21875 30.609375 74.21875 
Q 43.265625 74.21875 49.921875 64.515625 
Q 56.59375 54.828125 56.59375 36.375 
Q 56.59375 19.140625 48.40625 8.859375 
Q 40.234375 -1.421875 26.421875 -1.421875 
Q 22.703125 -1.421875 18.890625 -0.6875 
Q 15.09375 0.046875 10.984375 1.515625 
z
M 30.609375 32.421875 
Q 37.25 32.421875 41.125 36.953125 
Q 45.015625 41.5 45.015625 49.421875 
Q 45.015625 57.28125 41.125 61.84375 
Q 37.25 66.40625 30.609375 66.40625 
Q 23.96875 66.40625 20.09375 61.84375 
Q 16.21875 57.28125 16.21875 49.421875 
Q 16.21875 41.5 20.09375 36.953125 
Q 23.96875 32.421875 30.609375 32.421875 
z
" id="DejaVuSans-39"/>
     <path d="M 11.71875 12.40625 
L 22.015625 12.40625 
L 22.015625 4 
L 14.015625 -11.625 
L 7.71875 -11.625 
L 11.71875 4 
z
" id="DejaVuSans-2c"/>
     <path d="M 40.578125 39.3125 
Q 47.65625 37.796875 51.625 33 
Q 55.609375 28.21875 55.609375 21.1875 
Q 55.609375 10.40625 48.1875 4.484375 
Q 40.765625 -1.421875 27.09375 -1.421875 
Q 22.515625 -1.421875 17.65625 -0.515625 
Q 12.796875 0.390625 7.625 2.203125 
L 7.625 11.71875 
Q 11.71875 9.328125 16.59375 8.109375 
Q 21.484375 6.890625 26.8125 6.890625 
Q 36.078125 6.890625 40.9375 10.546875 
Q 45.796875 14.203125 45.796875 21.1875 
Q 45.796875 27.640625 41.28125 31.265625 
Q 36.765625 34.90625 28.71875 34.90625 
L 20.21875 34.90625 
L 20.21875 43.015625 
L 29.109375 43.015625 
Q 36.375 43.015625 40.234375 45.921875 
Q 44.09375 48.828125 44.09375 54.296875 
Q 44.09375 59.90625 40.109375 62.90625 
Q 36.140625 65.921875 28.71875 65.921875 
Q 24.65625 65.921875 20.015625 65.03125 
Q 15.375 64.15625 9.8125 62.3125 
L 9.8125 71.09375 
Q 15.4375 72.65625 20.34375 73.4375 
Q 25.25 74.21875 29.59375 74.21875 
Q 40.828125 74.21875 47.359375 69.109375 
Q 53.90625 64.015625 53.90625 55.328125 
Q 53.90625 49.265625 50.4375 45.09375 
Q 46.96875 40.921875 40.578125 39.3125 
z
" id="DejaVuSans-33"/>
    </defs>
    <g style="fill:#e04b4b;" transform="translate(274.41844 121.828438)scale(0.14 -0.14)">
     <use xlink:href="#DejaVuSans-24"/>
     <use x="63.623047" xlink:href="#DejaVuSans-32"/>
     <use x="127.246094" xlink:href="#DejaVuSans-39"/>
     <use x="190.869141" xlink:href="#DejaVuSans-2c"/>
     <use x="222.65625" xlink:href="#DejaVuSans-33"/>
     <use x="286.279297" xlink:href="#DejaVuSans-34"/>
     <use x="349.902344" xlink:href="#DejaVuSans-30"/>
    </g>
   </g>
   <g id="patch_40">
    <path d="M 211.134373 128.744345 
Q 212.184373 220.873197 213.234373 313.002049 
L 213.234373 313.002049 
Q 214.284373 220.873197 215.334373 128.744345 
z
" style="fill:#e04b4b;stroke:#d2d2d2;stroke-linecap:round;"/>
   </g>
   <g id="text_9">
    <!-- $-\tilde{x}$ =  -->
    <g style="fill:#e04b4b;" transform="translate(192.864373 106.1515)scale(0.14 -0.14)">
     <use transform="translate(0 0.046875)" xlink:href="#DejaVuSans-2212"/>
     <use transform="translate(145.818359 3.3125)" xlink:href="#DejaVuSans-303"/>
     <use transform="translate(83.789062 0.046875)" xlink:href="#DejaVuSans-Oblique-78"/>
     <use transform="translate(142.96875 0.046875)" xlink:href="#DejaVuSans-20"/>
     <use transform="translate(174.755859 0.046875)" xlink:href="#DejaVuSans-3d"/>
     <use transform="translate(258.544922 0.046875)" xlink:href="#DejaVuSans-20"/>
    </g>
    <!-- $-29,340 -->
    <g style="fill:#e04b4b;" transform="translate(181.761717 121.828438)scale(0.14 -0.14)">
     <use xlink:href="#DejaVuSans-24"/>
     <use x="63.623047" xlink:href="#DejaVuSans-2d"/>
     <use x="99.707031" xlink:href="#DejaVuSans-32"/>
     <use x="163.330078" xlink:href="#DejaVuSans-39"/>
     <use x="226.953125" xlink:href="#DejaVuSans-2c"/>
     <use x="258.740234" xlink:href="#DejaVuSans-33"/>
     <use x="322.363281" xlink:href="#DejaVuSans-34"/>
     <use x="385.986328" xlink:href="#DejaVuSans-30"/>
    </g>
   </g>
  </g>
  <g id="axes_4">
   <g id="patch_41">
    <path d="M 158.652144 183.099615 
Q 159.702144 248.049525 160.752144 312.999436 
L 160.752144 312.999436 
Q 161.802144 248.049525 162.852144 183.099615 
z
" style="fill:#e04b4b;stroke:#d2d2d2;stroke-linecap:round;"/>
   </g>
   <g id="text_10">
    <!-- $\Delta_{crit-}^{*}$ =  -->
    <defs>
     <path d="M 34.1875 63.1875 
L 14.15625 8.203125 
L 54.25 8.203125 
z
M 0.78125 0 
L 28.609375 72.90625 
L 39.796875 72.90625 
L 67.578125 0 
z
" id="DejaVuSans-394"/>
     <path d="M 53.609375 52.59375 
L 51.8125 43.703125 
Q 48.578125 46.046875 44.9375 47.21875 
Q 41.3125 48.390625 37.40625 48.390625 
Q 33.109375 48.390625 29.21875 46.875 
Q 25.34375 45.359375 22.703125 42.578125 
Q 18.5 38.328125 16.203125 32.609375 
Q 13.921875 26.90625 13.921875 20.796875 
Q 13.921875 13.421875 17.609375 9.8125 
Q 21.296875 6.203125 28.8125 6.203125 
Q 32.515625 6.203125 36.6875 7.328125 
Q 40.875 8.453125 45.40625 10.6875 
L 43.703125 1.8125 
Q 39.796875 0.203125 35.671875 -0.609375 
Q 31.546875 -1.421875 27.203125 -1.421875 
Q 16.3125 -1.421875 10.453125 4.015625 
Q 4.59375 9.46875 4.59375 19.578125 
Q 4.59375 28.078125 7.640625 35.234375 
Q 10.6875 42.390625 16.703125 48.09375 
Q 20.796875 52 26.3125 54 
Q 31.84375 56 38.375 56 
Q 42.1875 56 45.9375 55.140625 
Q 49.703125 54.296875 53.609375 52.59375 
z
" id="DejaVuSans-Oblique-63"/>
     <path d="M 44.578125 46.390625 
Q 43.21875 47.125 41.453125 47.515625 
Q 39.703125 47.90625 37.703125 47.90625 
Q 30.515625 47.90625 25.140625 42.453125 
Q 19.78125 37.015625 18.015625 27.875 
L 12.5 0 
L 3.515625 0 
L 14.203125 54.6875 
L 23.1875 54.6875 
L 21.484375 46.1875 
Q 25.046875 50.921875 30 53.453125 
Q 34.96875 56 40.578125 56 
Q 42.046875 56 43.453125 55.828125 
Q 44.875 55.671875 46.296875 55.28125 
z
" id="DejaVuSans-Oblique-72"/>
     <path d="M 18.3125 75.984375 
L 27.296875 75.984375 
L 25.09375 64.59375 
L 16.109375 64.59375 
z
M 14.203125 54.6875 
L 23.1875 54.6875 
L 12.5 0 
L 3.515625 0 
z
" id="DejaVuSans-Oblique-69"/>
     <path d="M 42.28125 54.6875 
L 40.921875 47.703125 
L 23 47.703125 
L 17.1875 18.015625 
Q 16.890625 16.359375 16.75 15.234375 
Q 16.609375 14.109375 16.609375 13.484375 
Q 16.609375 10.359375 18.484375 8.9375 
Q 20.359375 7.515625 24.515625 7.515625 
L 33.59375 7.515625 
L 32.078125 0 
L 23.484375 0 
Q 15.484375 0 11.546875 3.125 
Q 7.625 6.25 7.625 12.59375 
Q 7.625 13.71875 7.765625 15.0625 
Q 7.90625 16.40625 8.203125 18.015625 
L 14.015625 47.703125 
L 6.390625 47.703125 
L 7.8125 54.6875 
L 15.28125 54.6875 
L 18.3125 70.21875 
L 27.296875 70.21875 
L 24.3125 54.6875 
z
" id="DejaVuSans-Oblique-74"/>
    </defs>
    <g style="fill:#e04b4b;" transform="translate(131.352144 159.363062)scale(0.14 -0.14)">
     <use transform="translate(0 0.701562)" xlink:href="#DejaVuSans-394"/>
     <use transform="translate(69.365234 39.046875)scale(0.7)" xlink:href="#DejaVuSans-2a"/>
     <use transform="translate(69.365234 -26.642188)scale(0.7)" xlink:href="#DejaVuSans-Oblique-63"/>
     <use transform="translate(107.851562 -26.642188)scale(0.7)" xlink:href="#DejaVuSans-Oblique-72"/>
     <use transform="translate(136.630859 -26.642188)scale(0.7)" xlink:href="#DejaVuSans-Oblique-69"/>
     <use transform="translate(156.079102 -26.642188)scale(0.7)" xlink:href="#DejaVuSans-Oblique-74"/>
     <use transform="translate(197.163086 -26.642188)scale(0.7)" xlink:href="#DejaVuSans-2212"/>
     <use transform="translate(272.1875 0.701562)" xlink:href="#DejaVuSans-20"/>
     <use transform="translate(303.974609 0.701562)" xlink:href="#DejaVuSans-3d"/>
     <use transform="translate(387.763672 0.701562)" xlink:href="#DejaVuSans-20"/>
    </g>
    <!-- $-63,508 -->
    <defs>
     <path d="M 33.015625 40.375 
Q 26.375 40.375 22.484375 35.828125 
Q 18.609375 31.296875 18.609375 23.390625 
Q 18.609375 15.53125 22.484375 10.953125 
Q 26.375 6.390625 33.015625 6.390625 
Q 39.65625 6.390625 43.53125 10.953125 
Q 47.40625 15.53125 47.40625 23.390625 
Q 47.40625 31.296875 43.53125 35.828125 
Q 39.65625 40.375 33.015625 40.375 
z
M 52.59375 71.296875 
L 52.59375 62.3125 
Q 48.875 64.0625 45.09375 64.984375 
Q 41.3125 65.921875 37.59375 65.921875 
Q 27.828125 65.921875 22.671875 59.328125 
Q 17.53125 52.734375 16.796875 39.40625 
Q 19.671875 43.65625 24.015625 45.921875 
Q 28.375 48.1875 33.59375 48.1875 
Q 44.578125 48.1875 50.953125 41.515625 
Q 57.328125 34.859375 57.328125 23.390625 
Q 57.328125 12.15625 50.6875 5.359375 
Q 44.046875 -1.421875 33.015625 -1.421875 
Q 20.359375 -1.421875 13.671875 8.265625 
Q 6.984375 17.96875 6.984375 36.375 
Q 6.984375 53.65625 15.1875 63.9375 
Q 23.390625 74.21875 37.203125 74.21875 
Q 40.921875 74.21875 44.703125 73.484375 
Q 48.484375 72.75 52.59375 71.296875 
z
" id="DejaVuSans-36"/>
     <path d="M 31.78125 34.625 
Q 24.75 34.625 20.71875 30.859375 
Q 16.703125 27.09375 16.703125 20.515625 
Q 16.703125 13.921875 20.71875 10.15625 
Q 24.75 6.390625 31.78125 6.390625 
Q 38.8125 6.390625 42.859375 10.171875 
Q 46.921875 13.96875 46.921875 20.515625 
Q 46.921875 27.09375 42.890625 30.859375 
Q 38.875 34.625 31.78125 34.625 
z
M 21.921875 38.8125 
Q 15.578125 40.375 12.03125 44.71875 
Q 8.5 49.078125 8.5 55.328125 
Q 8.5 64.0625 14.71875 69.140625 
Q 20.953125 74.21875 31.78125 74.21875 
Q 42.671875 74.21875 48.875 69.140625 
Q 55.078125 64.0625 55.078125 55.328125 
Q 55.078125 49.078125 51.53125 44.71875 
Q 48 40.375 41.703125 38.8125 
Q 48.828125 37.15625 52.796875 32.3125 
Q 56.78125 27.484375 56.78125 20.515625 
Q 56.78125 9.90625 50.3125 4.234375 
Q 43.84375 -1.421875 31.78125 -1.421875 
Q 19.734375 -1.421875 13.25 4.234375 
Q 6.78125 9.90625 6.78125 20.515625 
Q 6.78125 27.484375 10.78125 32.3125 
Q 14.796875 37.15625 21.921875 38.8125 
z
M 18.3125 54.390625 
Q 18.3125 48.734375 21.84375 45.5625 
Q 25.390625 42.390625 31.78125 42.390625 
Q 38.140625 42.390625 41.71875 45.5625 
Q 45.3125 48.734375 45.3125 54.390625 
Q 45.3125 60.0625 41.71875 63.234375 
Q 38.140625 66.40625 31.78125 66.40625 
Q 25.390625 66.40625 21.84375 63.234375 
Q 18.3125 60.0625 18.3125 54.390625 
z
" id="DejaVuSans-38"/>
    </defs>
    <g style="fill:#e04b4b;" transform="translate(129.279488 176.188437)scale(0.14 -0.14)">
     <use xlink:href="#DejaVuSans-24"/>
     <use x="63.623047" xlink:href="#DejaVuSans-2d"/>
     <use x="99.707031" xlink:href="#DejaVuSans-36"/>
     <use x="163.330078" xlink:href="#DejaVuSans-33"/>
     <use x="226.953125" xlink:href="#DejaVuSans-2c"/>
     <use x="258.740234" xlink:href="#DejaVuSans-35"/>
     <use x="322.363281" xlink:href="#DejaVuSans-30"/>
     <use x="385.986328" xlink:href="#DejaVuSans-38"/>
    </g>
   </g>
   <g id="patch_42">
    <path d="M 353.520527 183.099615 
Q 354.570527 248.049525 355.620527 312.999436 
L 355.620527 312.999436 
Q 356.670527 248.049525 357.720527 183.099615 
z
" style="fill:#e04b4b;stroke:#d2d2d2;stroke-linecap:round;"/>
   </g>
   <g id="text_11">
    <!-- $\Delta_{crit+}^{*}$ =  -->
    <defs>
     <path d="M 46 62.703125 
L 46 35.5 
L 73.1875 35.5 
L 73.1875 27.203125 
L 46 27.203125 
L 46 0 
L 37.796875 0 
L 37.796875 27.203125 
L 10.59375 27.203125 
L 10.59375 35.5 
L 37.796875 35.5 
L 37.796875 62.703125 
z
" id="DejaVuSans-2b"/>
    </defs>
    <g style="fill:#e04b4b;" transform="translate(326.220527 159.363062)scale(0.14 -0.14)">
     <use transform="translate(0 0.701562)" xlink:href="#DejaVuSans-394"/>
     <use transform="translate(69.365234 39.046875)scale(0.7)" xlink:href="#DejaVuSans-2a"/>
     <use transform="translate(69.365234 -26.642188)scale(0.7)" xlink:href="#DejaVuSans-Oblique-63"/>
     <use transform="translate(107.851562 -26.642188)scale(0.7)" xlink:href="#DejaVuSans-Oblique-72"/>
     <use transform="translate(136.630859 -26.642188)scale(0.7)" xlink:href="#DejaVuSans-Oblique-69"/>
     <use transform="translate(156.079102 -26.642188)scale(0.7)" xlink:href="#DejaVuSans-Oblique-74"/>
     <use transform="translate(197.163086 -26.642188)scale(0.7)" xlink:href="#DejaVuSans-2b"/>
     <use transform="translate(272.1875 0.701562)" xlink:href="#DejaVuSans-20"/>
     <use transform="translate(303.974609 0.701562)" xlink:href="#DejaVuSans-3d"/>
     <use transform="translate(387.763672 0.701562)" xlink:href="#DejaVuSans-20"/>
    </g>
    <!-- $63,360 -->
    <g style="fill:#e04b4b;" transform="translate(326.673339 176.188437)scale(0.14 -0.14)">
     <use xlink:href="#DejaVuSans-24"/>
     <use x="63.623047" xlink:href="#DejaVuSans-36"/>
     <use x="127.246094" xlink:href="#DejaVuSans-33"/>
     <use x="190.869141" xlink:href="#DejaVuSans-2c"/>
     <use x="222.65625" xlink:href="#DejaVuSans-33"/>
     <use x="286.279297" xlink:href="#DejaVuSans-36"/>
     <use x="349.902344" xlink:href="#DejaVuSans-30"/>
    </g>
   </g>
  </g>
 </g>
 <defs>
  <clipPath id="p7b81312d20">
   <rect height="271.8" width="390.6" x="63" y="43.2"/>
  </clipPath>
 </defs>
</svg>
