<svg xmlns="http://www.w3.org/2000/svg" viewBox="0 0 105.94956 108.87925"><defs><style>.cls-1,.cls-3{fill:#ffcfd4;}.cls-1,.cls-2,.cls-4{stroke:#000;stroke-miterlimit:10;stroke-width:1.7204px;}.cls-2,.cls-5{fill:#fff;}</style></defs><title>Asset 2</title><g id="MOUSE" data-name="Mouse"><g id="Layer_1-2" data-name="Layer 1"><path id="tail" class="cls-1" d="M1.044,21.62321c-.30225.24721-.15071.89156-.10752,1.07526.34489,1.46659,3.36691,3.28467,6.66656,3.54833,2.1692.17332,4.28689-.33885,8.27944-2.47308a71.22533,71.22533,0,0,0,12.25788-8.602c6.79976-5.61394,6.91841-6.45859,9.56974-7.41924,5.15137-1.86649,9.9936-.59469,12.25787,0,3.11724.81873,8.65426,2.273,10.86005,6.344a18.86492,18.86492,0,0,0,2.58061,3.87091c1.24551,1.42956,2.08461,2.36529,3.4408,2.5806a4.30832,4.30832,0,0,0,4.40854-2.1505c.87159-2.0145-1.11584-4.48161-3.01071-6.77409a27.50419,27.50419,0,0,0-10.75252-8.387A26.15505,26.15505,0,0,0,41.04339,1.516c-5.2219,1.26544-8.75075,4.04445-11.39767,6.12894-4.04267,3.18366-4.02219,4.51466-9.89232,9.24717a49.695,49.695,0,0,1-7.84934,4.94615c-3.06184,1.70516-4.1445,2.05459-5.26874,1.72041-.746-.22176-3.17322-1.23881-4.516-1.82793C1.9,21.63453,1.33485,21.38534,1.044,21.62321Z"/><path id="body" class="cls-2" d="M67.70964,103.665c5.15166.00068,8.81786-3.661,12.3654-7.20419,3.69792-3.69338,5.92413-7.38191,8.387-12.15035,6.82265-13.20977,11.66092-22.57748,11.39767-35.37579A32.747,32.747,0,0,0,98.2468,38.07457C94.08545,25.99414,83.40439,20.62821,81.903,19.90281a32.99412,32.99412,0,0,0-20.42979-2.5806,31.55119,31.55119,0,0,0-15.05353,7.09666c-11.06115,9.68933-10.89527,24.57869-10.86,27.7415.10726,9.627,3.7628,16.9582,9.13964,27.74151a108.32689,108.32689,0,0,0,6.344,10.86005c3.61306,5.57712,5.12031,7.001,5.69883,7.52676C58.78111,100.14165,62.65743,103.66428,67.70964,103.665Z"/><path id="lear" class="cls-2" d="M45.23688,77.03454c-.806-.04926-8.99151-.68269-13.04639-7.45508a16.05372,16.05372,0,0,1,4.94616-21.14662c5.39865-3.51523,13.22726-3.5296,18.42265,1.14693,5.83445,5.2518,4.75814,13.18824,4.65944,13.83491"/><path id="rear" class="cls-2" d="M89.96039,77.03454c.806-.04926,8.9915-.68269,13.04638-7.45508a16.05372,16.05372,0,0,0-4.94616-21.14662C92.662,44.91761,84.83336,44.90324,79.638,49.57977c-5.83445,5.2518-4.75815,13.18824-4.65945,13.83491"/><path id="learpad" class="cls-3" d="M33.94673,64.95587c1.35225.49155,2.559-5.20754,7.63429-7.95686,6.33664-3.4326,13.594.50085,14.5159-1.61288.61523-1.41062-2.26953-3.95927-3.87091-5.05368-.25217-.17234-6.44311-4.2559-12.3654-1.07526-3.94378,2.11806-5.15464,6.05365-5.80636,8.17192C33.12575,60.447,32.82674,64.54876,33.94673,64.95587Z"/><path id="rearpad" class="cls-3" d="M101.91061,64.95587c-1.35226.49155-2.559-5.20754-7.63429-7.95686-6.33664-3.4326-13.594.50085-14.5159-1.61288-.61523-1.41062,2.26952-3.95927,3.8709-5.05368.25217-.17234,6.44312-4.2559,12.3654-1.07526,3.94378,2.11806,5.15465,6.05365,5.80637,8.17192C102.73159,60.447,103.03059,64.54876,101.91061,64.95587Z"/><path id="nose" class="cls-4" d="M67.24368,100.1883a4.84246,4.84246,0,0,0,3.31855-3.07986,2.45254,2.45254,0,0,0-.23277-2.54012c-.64768-.87032-4.153-1.38-5.30795-.11469a2.874,2.874,0,0,0-.64515,2.00713A4.61833,4.61833,0,0,0,67.24368,100.1883Z"/><g id="lwhisk1"><path d="M40.59267,94.48831a20.86286,20.86286,0,0,1,4.73614-2.48643,21.78124,21.78124,0,0,1,5.29046-1.17773,15.30189,15.30189,0,0,1,5.46475.25931,12.34718,12.34718,0,0,1,4.856,2.46571l-.07516.15476c-1.7843-.33585-3.447-.70244-5.13044-.936a38.54546,38.54546,0,0,0-5.05118-.569,22.237,22.237,0,0,0-10.00167,2.43659Z"/></g><g id="lwhisk2"><path d="M42.65845,102.4315a16.43877,16.43877,0,0,1,7.42915-6.48186,12.82882,12.82882,0,0,1,4.90524-1.32029,10.68568,10.68568,0,0,1,4.95371.95811l-.02916.16955c-1.6709.19577-3.23012.32867-4.76754.58556a30.55931,30.55931,0,0,0-4.56344.88982,17.55052,17.55052,0,0,0-7.78894,5.30046Z"/></g><g id="lwhisk3"><path d="M50.09739,107.13346a13.06255,13.06255,0,0,1,.67857-4.14586,12.37634,12.37634,0,0,1,2.13961-3.73014A7.4398,7.4398,0,0,1,54.617,97.70155a4.982,4.982,0,0,1,2.219-.75613,5.72039,5.72039,0,0,1,4.20369,1.29943l-.06485.15936a13.42946,13.42946,0,0,0-3.87235.24085,6.71509,6.71509,0,0,0-3.17848,1.54906,11.23087,11.23087,0,0,0-2.35668,3.13067,13.8987,13.8987,0,0,0-1.29867,3.825Z"/></g><g id="rwhisk3"><path d="M83.8107,108.84115a9.08289,9.08289,0,0,0-2.38729-7.65472A12.32728,12.32728,0,0,0,78.096,99.06332,22.78391,22.78391,0,0,0,74.1726,97.6261l-.007-.1719a7.0588,7.0588,0,0,1,4.57163.0127,7.91729,7.91729,0,0,1,3.71864,2.80944,9.145,9.145,0,0,1,1.85963,4.18246,9.76065,9.76065,0,0,1-.33706,4.42045Z"/></g><g id="rwhisk2"><path d="M93.85736,104.28528a16.01609,16.01609,0,0,0-7.69629-7.81108,16.98292,16.98292,0,0,0-5.2655-1.07653,26.32934,26.32934,0,0,0-5.57065.2518l-.06333-.16a10.444,10.444,0,0,1,5.66549-1.81195,11.59416,11.59416,0,0,1,5.8354,1.55868,15.11177,15.11177,0,0,1,4.52865,3.84727,16.90323,16.90323,0,0,1,2.72748,5.14178Z"/></g><g id="rwhisk1"><path d="M96.023,93.81422a27.80324,27.80324,0,0,0-5.37767-1.56553,25.57562,25.57562,0,0,0-5.51075-.46028,53.56647,53.56647,0,0,0-5.44468.64325c-1.81683.23806-3.61688.59139-5.53107.88257l-.067-.15845a14.856,14.856,0,0,1,5.26884-2.41272A18.51875,18.51875,0,0,1,85.164,90.4124a26.69312,26.69312,0,0,1,5.68408,1.00032,25.48562,25.48562,0,0,1,5.24985,2.24663Z"/></g><path id="reye" class="cls-4" d="M74.86007,83.66526c0,1.62565.11544,2.95694,1.45159,2.95694a3.00029,3.00029,0,0,0,0-5.887C74.97551,80.7352,74.86007,82.03961,74.86007,83.66526Z"/><g id="reyeshine"><ellipse class="cls-5" cx="76.86273" cy="82.54969" rx="0.84676" ry="0.90052" transform="translate(-28.2751 41.70404) rotate(-25.81217)"/><path class="cls-5" d="M76.11981,82.909a.63992.63992,0,0,0,.519.3439,1.40868,1.40868,0,0,0,.53807-.05369.63519.63519,0,0,0,.43868-.3699.649.649,0,0,0-.09657-.59708.78454.78454,0,0,0-.94852-.28676.94718.94718,0,0,0-.39178.345A.63787.63787,0,0,0,76.11981,82.909Zm-.03872.01873a1.40752,1.40752,0,0,1-.17371-.71792.82806.82806,0,0,1,.46337-.6773.988.988,0,0,1,1.36025.59719,1.37806,1.37806,0,0,1,.01825.73936.997.997,0,0,1-.41647.65242.73709.73709,0,0,1-.79429-.018A1.41458,1.41458,0,0,1,76.08109,82.92775Z"/></g><path id="leye" class="cls-4" d="M59.80654,83.66526c0,1.62565-.11544,2.95694-1.45159,2.95694a3.00029,3.00029,0,0,1,0-5.887C59.6911,80.7352,59.80654,82.03961,59.80654,83.66526Z"/><g id="leyeshine"><ellipse class="cls-5" cx="57.80388" cy="82.54969" rx="0.90052" ry="0.84676" transform="translate(-41.67862 98.64228) rotate(-64.18783)"/><path class="cls-5" d="M58.58552,82.92775a1.41444,1.41444,0,0,1-.45741.57579.73706.73706,0,0,1-.79427.018.997.997,0,0,1-.41648-.65242,1.378,1.378,0,0,1,.01826-.73936.98793.98793,0,0,1,1.36024-.59719.8281.8281,0,0,1,.46338.6773A1.40762,1.40762,0,0,1,58.58552,82.92775ZM58.5468,82.909a.6379.6379,0,0,0-.05889-.61851.9472.9472,0,0,0-.39179-.345.78454.78454,0,0,0-.94852.28676.649.649,0,0,0-.09657.59708.63519.63519,0,0,0,.43869.3699,1.40866,1.40866,0,0,0,.53807.05369A.63992.63992,0,0,0,58.5468,82.909Z"/></g></g></g></svg>